<svg width="24" height="24" viewBox="0 0 24 24" fill="none" xmlns="http://www.w3.org/2000/svg">
<path d="M17.2 3H7.8C6.11984 3 5.27976 3 4.63803 3.32698C4.07354 3.6146 3.6146 4.07354 3.32698 4.63803C3 5.27976 3 6.11984 3 7.8V13.2C3 14.8802 3 15.7202 3.32698 16.362C3.6146 16.9265 4.07354 17.3854 4.63803 17.673C5.27976 18 6.11984 18 7.8 18C7.92806 18 8.05087 18.0509 8.14142 18.1414L9.73726 19.7373C10.5293 20.5293 10.9253 20.9253 11.382 21.0737C11.7837 21.2042 12.2163 21.2042 12.618 21.0737C13.0747 20.9253 13.4707 20.5293 14.2627 19.7373L15.1515 18.8485C15.4099 18.5901 15.5391 18.4609 15.6839 18.3599C15.9216 18.194 16.1926 18.0817 16.478 18.0309C16.6518 18 16.8346 18 17.2 18C18.8802 18 18.8583 18 19.5 17.673C20.0645 17.3854 20.5234 16.9265 20.811 16.362C21.138 15.7202 21.138 14.8802 21.138 13.2V7.8C21.138 6.11984 21.138 5.27976 20.811 4.63803C20.5234 4.07354 20.0645 3.6146 19.5 3.32698C18.8583 3 18.8802 3 17.2 3Z" stroke="currentColor" stroke-width="2" stroke-linecap="round" stroke-linejoin="round"/>
<path d="M11.4543 7.62191C11.5064 7.44378 11.5325 7.35471 11.5521 7.31515C11.7359 6.94488 12.2641 6.94488 12.4479 7.31515C12.4675 7.35471 12.4935 7.44378 12.5456 7.62191C12.6275 7.90172 12.6684 8.04162 12.7159 8.17044C13.1208 9.26918 13.9869 10.1353 15.0857 10.5403C15.2145 10.5877 15.3544 10.6287 15.6342 10.7105C15.8123 10.7626 15.9014 10.7886 15.941 10.8083C16.3112 10.992 16.3112 11.5202 15.941 11.704C15.9014 11.7236 15.8123 11.7497 15.6342 11.8018C15.3544 11.8836 15.2145 11.9245 15.0857 11.972C13.9869 12.377 13.1208 13.2431 12.7159 14.3418C12.6684 14.4706 12.6275 14.6105 12.5456 14.8903C12.4935 15.0685 12.4675 15.1575 12.4479 15.1971C12.2641 15.5674 11.7359 15.5674 11.5521 15.1971C11.5325 15.1575 11.5064 15.0685 11.4543 14.8903C11.3725 14.6105 11.3316 14.4706 11.2841 14.3418C10.8791 13.2431 10.013 12.377 8.9143 11.972C8.78548 11.9245 8.64558 11.8836 8.36577 11.8018C8.18764 11.7497 8.09857 11.7236 8.05901 11.704C7.68874 11.5202 7.68874 10.992 8.05901 10.8083C8.09857 10.7886 8.18764 10.7626 8.36577 10.7105C8.64558 10.6287 8.78548 10.5877 8.9143 10.5403C10.013 10.1353 10.8791 9.26918 11.2841 8.17044C11.3316 8.04162 11.3725 7.90172 11.4543 7.62191Z" stroke="currentColor" stroke-width="2" stroke-linecap="round" stroke-linejoin="round"/>
</svg>
