<svg width="24" height="24" viewBox="0 0 24 24" fill="none" xmlns="http://www.w3.org/2000/svg">
<path d="M15.8888 7.90555C19.3374 8.31918 22.0105 11.2549 22.0105 14.8149C22.0105 15.3923 21.9402 15.9532 21.8077 16.4896C21.6378 17.1773 21.5529 17.5212 21.5348 17.6254C21.4337 18.2084 21.4372 18.2991 21.5821 18.8727C21.608 18.9753 21.657 19.1241 21.7549 19.4216C21.9345 19.9674 22.0244 20.2403 22.035 20.4399C22.079 21.2694 21.4405 21.9767 20.6108 22.0176C20.4112 22.0274 20.1305 21.9659 19.5693 21.8429L18.7311 21.6591C18.3451 21.5745 18.1521 21.5322 17.9954 21.5148C17.7603 21.4886 17.7729 21.4891 17.5366 21.4991C17.379 21.5058 16.9468 21.57 16.0822 21.6984C15.7458 21.7483 15.4015 21.7742 15.0513 21.7742C11.5807 21.7742 8.70357 19.2338 8.17784 15.9111M15.9002 9.00418C15.9002 12.8477 12.7844 15.9634 8.94091 15.9634C8.59063 15.9634 8.24639 15.9376 7.91 15.8876C7.04542 15.7592 6.61314 15.695 6.45563 15.6884C6.21933 15.6783 6.23186 15.6779 5.9968 15.704C5.84011 15.7215 5.64711 15.7638 5.26111 15.8484L4.42287 16.0321C3.86163 16.1551 3.58102 16.2166 3.38136 16.2068C2.5517 16.166 1.9132 15.4586 1.95722 14.6291C1.96782 14.4295 2.05764 14.1566 2.23728 13.6109C2.33521 13.3134 2.38417 13.1646 2.4101 13.062C2.55502 12.4883 2.55846 12.3977 2.45739 11.8147C2.43931 11.7104 2.35435 11.3665 2.18448 10.6789C2.05196 10.1425 1.98165 9.58154 1.98165 9.00418C1.98165 5.16069 5.09742 2.04492 8.94091 2.04492C12.3467 2.04492 15.1811 4.49148 15.7825 7.723C15.8598 8.13827 15.9002 8.56651 15.9002 9.00418ZM6.41565 8.61195C6.61463 8.55376 6.71412 8.52467 6.80572 8.4909C7.58706 8.20291 8.20297 7.58701 8.49096 6.80567C8.52472 6.71406 8.55382 6.61457 8.61201 6.4156C8.64905 6.28892 8.66757 6.22558 8.68154 6.19745C8.81223 5.93415 9.18782 5.93415 9.31851 6.19745C9.33248 6.22558 9.351 6.28892 9.38805 6.4156C9.44624 6.61457 9.47533 6.71406 9.5091 6.80567C9.79708 7.58701 10.413 8.20291 11.1943 8.4909C11.2859 8.52467 11.3854 8.55376 11.5844 8.61195C11.7111 8.649 11.7744 8.66752 11.8025 8.68149C12.0659 8.81218 12.0659 9.18776 11.8025 9.31846C11.7744 9.33242 11.7111 9.35095 11.5844 9.38799C11.3854 9.44618 11.2859 9.47528 11.1943 9.50904C10.413 9.79703 9.79708 10.4129 9.5091 11.1943C9.47533 11.2859 9.44624 11.3854 9.38805 11.5843C9.351 11.711 9.33248 11.7744 9.31851 11.8025C9.18782 12.0658 8.81223 12.0658 8.68154 11.8025C8.66757 11.7744 8.64905 11.711 8.61201 11.5843C8.55382 11.3854 8.52472 11.2859 8.49096 11.1943C8.20297 10.4129 7.58706 9.79703 6.80572 9.50904C6.71412 9.47528 6.61463 9.44618 6.41565 9.38799C6.28898 9.35095 6.22564 9.33242 6.1975 9.31846C5.9342 9.18776 5.9342 8.81218 6.1975 8.68149C6.22564 8.66752 6.28898 8.649 6.41565 8.61195Z" stroke="currentColor" stroke-width="2" stroke-linecap="round" stroke-linejoin="round"/>
</svg>
