<svg width="24" height="24" viewBox="0 0 24 24" fill="none" xmlns="http://www.w3.org/2000/svg">
<path d="M20 10V7.26813C20 7.02995 20 6.91085 19.9932 6.81031C19.8925 5.31209 18.6995 4.11915 17.2013 4.01839C17.1008 4.01162 16.9817 4.01162 16.7435 4.01162C16.647 4.01162 16.5988 4.01162 16.552 4.01016C15.8789 3.98917 15.2325 3.74233 14.7167 3.30937C14.6809 3.27929 14.6449 3.24713 14.573 3.18282L14.375 3.00581C14.1079 2.76705 13.9744 2.64766 13.8323 2.54755C13.4231 2.25923 12.9482 2.07789 12.4509 2.02008C12.2783 2 12.0992 2 11.7409 2H10.2591C9.90084 2 9.72172 2 9.54906 2.02008C9.05181 2.07789 8.57692 2.25923 8.16769 2.54755C8.02559 2.64766 7.89206 2.76705 7.625 3.00581L7.42701 3.18282C7.3551 3.24712 7.31911 3.27929 7.28328 3.30937C6.76751 3.74233 6.12108 3.98917 5.44801 4.01016C5.40124 4.01162 5.353 4.01162 5.25651 4.01162C5.01832 4.01162 4.89923 4.01162 4.79869 4.01839C3.30047 4.11915 2.10752 5.31209 2.00676 6.81031C2 6.91085 2 7.02995 2 7.26813V12.7116C2 14.3918 2 15.2319 2.32698 15.8736C2.6146 16.4381 3.07354 16.897 3.63803 17.1846C4.27976 17.5116 5.11984 17.5116 6.8 17.5116H10M14.5 10.5117C14.5 12.4447 12.933 14.0117 11 14.0117C9.067 14.0117 7.5 12.4447 7.5 10.5117C7.5 8.57872 9.067 7.01172 11 7.01172C12.933 7.01172 14.5 8.57872 14.5 10.5117ZM14.5845 17.673C14.8643 17.5912 15.0042 17.5503 15.133 17.5028C16.2317 17.0978 17.0978 16.2317 17.5028 15.133C17.5503 15.0042 17.5912 14.8643 17.673 14.5845C17.7251 14.4063 17.7512 14.3173 17.7708 14.2777C17.9546 13.9074 18.4828 13.9074 18.6665 14.2777C18.6862 14.3173 18.7122 14.4063 18.7643 14.5845C18.8462 14.8643 18.8871 15.0042 18.9345 15.133C19.3395 16.2317 20.2056 17.0978 21.3044 17.5028C21.4332 17.5503 21.5731 17.5912 21.8529 17.673C22.031 17.7251 22.1201 17.7512 22.1597 17.7708C22.5299 17.9546 22.5299 18.4828 22.1597 18.6665C22.1201 18.6862 22.031 18.7122 21.8529 18.7643C21.5731 18.8462 21.4332 18.8871 21.3044 18.9345C20.2056 19.3395 19.3395 20.2056 18.9345 21.3044C18.8871 21.4332 18.8462 21.5731 18.7643 21.8529C18.7122 22.031 18.6862 22.1201 18.6665 22.1597C18.4828 22.5299 17.9546 22.5299 17.7708 22.1597C17.7512 22.1201 17.7251 22.031 17.673 21.8529C17.5912 21.5731 17.5503 21.4332 17.5028 21.3044C17.0978 20.2056 16.2317 19.3395 15.133 18.9345C15.0042 18.8871 14.8643 18.8462 14.5845 18.7643C14.4063 18.7122 14.3173 18.6862 14.2777 18.6665C13.9074 18.4828 13.9074 17.9546 14.2777 17.7708C14.3173 17.7512 14.4063 17.7251 14.5845 17.673Z" stroke="currentColor" stroke-width="2" stroke-linecap="round" stroke-linejoin="round"/>
</svg>
