<svg width="24" height="24" viewBox="0 0 24 24" fill="none" xmlns="http://www.w3.org/2000/svg">
<path d="M18.6663 12L18.6663 7.33333C18.6663 5.46649 18.6663 4.53307 18.303 3.82003C17.9835 3.19282 17.4735 2.68289 16.8463 2.36331C16.1333 2 15.1999 2 13.333 2H10.6663C8.7995 2 7.86608 2 7.15304 2.36331C6.52583 2.68289 6.0159 3.19282 5.69632 3.82003C5.33301 4.53307 5.33301 5.46649 5.33301 7.33333V16.6667C5.33301 18.5335 5.33301 19.4669 5.69632 20.18C6.0159 20.8072 6.52583 21.3171 7.15304 21.6367C7.86608 22 8.7995 22 10.6663 22H11.9997M10.8886 5.33333H13.1108M14.467 18.1901C14.6908 18.1247 14.8027 18.092 14.9057 18.054C15.7843 17.7302 16.4769 17.0376 16.8008 16.1589C16.8387 16.0559 16.8714 15.9441 16.9369 15.7203C16.9785 15.5779 16.9994 15.5066 17.0151 15.475C17.162 15.1789 17.5844 15.1789 17.7314 15.475C17.7471 15.5066 17.7679 15.5779 17.8095 15.7203C17.875 15.9441 17.9077 16.0559 17.9457 16.1589C18.2695 17.0376 18.9621 17.7302 19.8407 18.054C19.9437 18.092 20.0556 18.1247 20.2794 18.1901C20.4218 18.2318 20.493 18.2526 20.5247 18.2683C20.8208 18.4153 20.8208 18.8376 20.5247 18.9846C20.493 19.0003 20.4218 19.0211 20.2794 19.0628C20.0556 19.1282 19.9437 19.161 19.8407 19.1989C18.9621 19.5228 18.2695 20.2154 17.9457 21.094C17.9077 21.197 17.875 21.3089 17.8095 21.5326C17.7679 21.6751 17.7471 21.7463 17.7314 21.7779C17.5844 22.074 17.162 22.074 17.0151 21.7779C16.9994 21.7463 16.9785 21.6751 16.9369 21.5326C16.8714 21.3089 16.8387 21.197 16.8008 21.094C16.4769 20.2154 15.7843 19.5228 14.9057 19.1989C14.8027 19.161 14.6908 19.1282 14.467 19.0628C14.3246 19.0211 14.2534 19.0003 14.2217 18.9846C13.9257 18.8376 13.9257 18.4153 14.2217 18.2683C14.2534 18.2526 14.3246 18.2318 14.467 18.1901Z" stroke="currentColor" stroke-width="2" stroke-linecap="round" stroke-linejoin="round"/>
</svg>
