<svg width="24" height="24" viewBox="0 0 24 24" fill="none" xmlns="http://www.w3.org/2000/svg">
<path d="M20 12H22M12 4V6M12 4C12.5523 4 13 3.55228 13 3C13 2.44772 12.5523 2 12 2C11.4477 2 11 2.44772 11 3C11 3.55228 11.4477 4 12 4ZM2 12H4M14.5 11.5V12.9561M9.5 11.5V12.9561M7 18H17V22H7V18ZM9.5 18H14.5C17.5376 18 20 15.5376 20 12.5C20 9.46243 17.5376 7 14.5 7H9.5C6.46243 7 4 9.46243 4 12.5C4 15.5376 6.46243 18 9.5 18Z" stroke="currentColor" stroke-width="2" stroke-linecap="round" stroke-linejoin="round"/>
</svg>
