<svg width="24" height="24" viewBox="0 0 24 24" fill="none" xmlns="http://www.w3.org/2000/svg">
<path d="M20 12H22M12 4V7.46875M12 4C12.5523 4 13 3.55228 13 3C13 2.44772 12.5523 2 12 2C11.4477 2 11 2.44772 11 3C11 3.55228 11.4477 4 12 4ZM2 12H4M14.5 11.5251V12.9812M9.5 11.5251V12.9812M18 1.5L16 2M6.01577 1.5L8.01577 2M6.01578 5L8.01578 4.5M18 5L16 4.5M7 18H17V22H7V18ZM9.0188 18H14.9812C17.753 18 20 15.753 20 12.9812C20 10.2094 17.753 7.9624 14.9812 7.9624H9.0188C6.24699 7.9624 4 10.2094 4 12.9812C4 15.753 6.24699 18 9.0188 18Z" stroke="currentColor" stroke-width="2" stroke-linecap="round" stroke-linejoin="round"/>
</svg>
