<svg width="24" height="24" viewBox="0 0 24 24" fill="none" xmlns="http://www.w3.org/2000/svg">
<path d="M2 9.8C2 8.11984 2 7.27976 2.32698 6.63803C2.6146 6.07354 3.07354 5.6146 3.63803 5.32698C4.27976 5 5.11984 5 6.8 5H11.2C12.8802 5 13.7202 5 14.362 5.32698C14.9265 5.6146 15.3854 6.07354 15.673 6.63803C16 7.27976 16 8.11984 16 9.8V14.2C16 15.8802 16 16.7202 15.673 17.362C15.3854 17.9265 14.9265 18.3854 14.362 18.673C13.7202 19 12.8802 19 11.2 19H6.8C5.11984 19 4.27976 19 3.63803 18.673C3.07354 18.3854 2.6146 17.9265 2.32698 17.362C2 16.7202 2 15.8802 2 14.2V9.8Z" stroke="currentColor" stroke-width="2" stroke-linecap="round" stroke-linejoin="round"/>
<path d="M16.8119 12.611C16.3449 12.0359 16.3677 11.2059 16.8656 10.6573L19.3892 7.87666C20.3111 6.86094 22 7.51308 22 8.88474V14.7732C22 16.1857 20.2259 16.8153 19.3356 15.7188L16.8119 12.611Z" stroke="currentColor" stroke-width="2" stroke-linecap="round" stroke-linejoin="round"/>
<path d="M8.61198 9.41563C8.64903 9.28895 8.66755 9.22561 8.68151 9.19748C8.81221 8.93417 9.18779 8.93417 9.31849 9.19748C9.33245 9.22561 9.35097 9.28895 9.38802 9.41563C9.44621 9.6146 9.47531 9.71409 9.50907 9.8057C9.79706 10.587 10.413 11.2029 11.1943 11.4909C11.2859 11.5247 11.3854 11.5538 11.5844 11.612C11.7111 11.649 11.7744 11.6675 11.8025 11.6815C12.0658 11.8122 12.0658 12.1878 11.8025 12.3185C11.7744 12.3325 11.7111 12.351 11.5844 12.388C11.3854 12.4462 11.2859 12.4753 11.1943 12.5091C10.413 12.7971 9.79706 13.413 9.50907 14.1943C9.47531 14.2859 9.44621 14.3854 9.38802 14.5844C9.35097 14.7111 9.33245 14.7744 9.31849 14.8025C9.18779 15.0658 8.81221 15.0658 8.68151 14.8025C8.66755 14.7744 8.64903 14.7111 8.61198 14.5844C8.55379 14.3854 8.5247 14.2859 8.49093 14.1943C8.20294 13.413 7.58704 12.7971 6.8057 12.5091C6.71409 12.4753 6.6146 12.4462 6.41563 12.388C6.28895 12.351 6.22561 12.3325 6.19748 12.3185C5.93417 12.1878 5.93417 11.8122 6.19748 11.6815C6.22561 11.6675 6.28895 11.649 6.41563 11.612C6.6146 11.5538 6.71409 11.5247 6.8057 11.4909C7.58704 11.2029 8.20294 10.587 8.49093 9.8057C8.5247 9.71409 8.55379 9.6146 8.61198 9.41563Z" stroke="currentColor" stroke-width="2" stroke-linecap="round" stroke-linejoin="round"/>
</svg>
