<svg width="24" height="24" viewBox="0 0 24 24" fill="none" xmlns="http://www.w3.org/2000/svg">
<path d="M12 2C10.3431 2 9 3.34315 9 5V9M13.5 13.5987C14.3967 13.0799 15 12.1104 15 11V9.60656M5 11C5 13.471 6.28037 15.643 8.21388 16.8887C10.071 18.0852 12 19.7909 12 22V22M18.7381 12.9033C18.3521 14.2726 17.56 15.4716 16.5 16.3621M12 22H16M12 22H8M1.75 2L21.75 22M15.886 4.85972C16.1038 4.79601 16.2127 4.76416 16.313 4.72719C17.1685 4.41189 17.8428 3.73756 18.1581 2.88212C18.1951 2.78182 18.2269 2.6729 18.2906 2.45505C18.3312 2.31636 18.3515 2.24701 18.3668 2.21621C18.5098 1.92793 18.9211 1.92793 19.0641 2.21621C19.0794 2.24701 19.0997 2.31636 19.1403 2.45505C19.204 2.6729 19.2358 2.78182 19.2728 2.88212C19.5881 3.73756 20.2624 4.41189 21.1179 4.72719C21.2182 4.76416 21.3271 4.79601 21.545 4.85972C21.6836 4.90028 21.753 4.92056 21.7838 4.93585C22.0721 5.07894 22.0721 5.49015 21.7838 5.63324C21.753 5.64853 21.6836 5.66881 21.545 5.70937C21.3271 5.77308 21.2182 5.80493 21.1179 5.8419C20.2624 6.1572 19.5881 6.83153 19.2728 7.68698C19.2358 7.78727 19.204 7.8962 19.1403 8.11405C19.0997 8.25274 19.0794 8.32208 19.0641 8.35288C18.9211 8.64116 18.5098 8.64116 18.3668 8.35288C18.3515 8.32208 18.3312 8.25274 18.2906 8.11405C18.2269 7.8962 18.1951 7.78727 18.1581 7.68698C17.8428 6.83153 17.1685 6.1572 16.313 5.8419C16.2127 5.80493 16.1038 5.77308 15.886 5.70937C15.7473 5.66881 15.6779 5.64853 15.6471 5.63324C15.3588 5.49015 15.3588 5.07894 15.6471 4.93585C15.6779 4.92056 15.7473 4.90028 15.886 4.85972Z" stroke="currentColor" stroke-width="2" stroke-linecap="round" stroke-linejoin="round"/>
</svg>
