<svg width="24" height="24" viewBox="0 0 24 24" fill="none" xmlns="http://www.w3.org/2000/svg">
<path d="M8.46251 15.5336C7.55884 14.6289 7 13.3797 7 12C7 9.23858 9.23858 7 12 7C14.7614 7 17 9.23858 17 12C17 13.3556 16.4606 14.5851 15.5846 15.4858M6.34267 19C4.30367 17.35 3 14.8273 3 12C3 7.02944 7.02944 3 12 3C16.9706 3 21 7.02944 21 12C21 14.3051 20.1334 16.4077 18.7083 18C18.3855 18.3607 18.0339 18.6952 17.6573 19M13 12C13 12.5523 12.5523 13 12 13C11.4477 13 11 12.5523 11 12C11 11.4477 11.4477 11 12 11C12.5523 11 13 11.4477 13 12ZM10.4412 22H13.5588C14.4056 22 14.9349 21.0833 14.5115 20.35L12.9526 17.65C12.5292 16.9167 11.4708 16.9167 11.0474 17.65L9.48853 20.35C9.06514 21.0833 9.59437 22 10.4412 22Z" stroke="currentColor" stroke-width="2" stroke-linecap="round" stroke-linejoin="round"/>
</svg>
