<svg width="24" height="24" viewBox="0 0 24 24" fill="none" xmlns="http://www.w3.org/2000/svg">
<path d="M11.5 3L6.9726 3.53264C6.55934 3.58125 6.3527 3.60556 6.17542 3.64291C4.45663 4.00501 3.17517 5.44606 3.01638 7.1954C3 7.37583 3 7.58388 3 8C3 8.41612 3 8.62417 3.01638 8.8046C3.17517 10.5539 4.45663 11.995 6.17542 12.3571C6.35269 12.3944 6.55939 12.4187 6.9726 12.4674L11.5 13M13.5 13.9996L10.8564 18.9283C10.1112 20.3177 11.1177 21.9996 12.6942 21.9996C13.4929 21.9996 14.2215 21.5435 14.5703 20.825L18.4771 12.7787M14.6036 6.60693H17M21 8C21 10.416 18.3137 14 15 14C11.6863 14 9 11.3137 9 8C9 4.68629 11.6863 2 15 2C18.9022 2 21 2.51289 21 8Z" stroke="currentColor" stroke-width="2" stroke-linecap="round" stroke-linejoin="round"/>
</svg>
