<svg width="24" height="24" viewBox="0 0 24 24" fill="none" xmlns="http://www.w3.org/2000/svg">
<path d="M19 18C19.7684 18 20.4692 17.7111 21 17.2361C21.6137 16.6868 22 15.8885 22 15V6C22 4.34315 20.6569 3 19 3H5C3.34315 3 2 4.34315 2 6V15C2 15.8885 2.38625 16.6868 3 17.2361C3.53076 17.7111 4.23165 18 5 18M11.4318 22H12.9926C14.595 22 15.3962 22 15.8069 21.6717C16.1641 21.3862 16.3715 20.9534 16.3704 20.4961C16.369 19.9703 15.8671 19.3457 14.8634 18.0967L14.1318 17.1862C13.5267 16.4332 13.2242 16.0567 12.8547 15.9108C12.5304 15.7828 12.1716 15.7717 11.84 15.8795C11.4622 16.0023 11.137 16.3594 10.4866 17.0736L9.65742 17.984C8.50001 19.2549 7.9213 19.8903 7.89648 20.4312C7.87492 20.901 8.07495 21.3538 8.4368 21.6541C8.85343 22 9.7129 22 11.4318 22Z" stroke="currentColor" stroke-width="2" stroke-linecap="round" stroke-linejoin="round"/>
</svg>
