<svg width="24" height="24" viewBox="0 0 24 24" fill="none" xmlns="http://www.w3.org/2000/svg">
<path d="M17 19.5L19.5 22M6.9983 19.5L4.4983 22M3.69621 8.5C2.67979 7.88755 2 6.77316 2 5.5C2 3.567 3.567 2 5.5 2C6.68937 2 7.74018 2.59326 8.37266 3.5M20.3038 8.5C21.3202 7.88755 22 6.77316 22 5.5C22 3.567 20.433 2 18.5 2C17.3106 2 16.2598 2.59326 15.6273 3.5M11.9243 9V11.9243M11.9243 11.9243V14.8485M11.9243 11.9243H14.8485M11.9243 11.9243H9M21 12C21 16.9706 16.9706 21 12 21C7.02944 21 3 16.9706 3 12C3 7.02944 7.02944 3 12 3C16.9706 3 21 7.02944 21 12Z" stroke="currentColor" stroke-width="2" stroke-linecap="round"/>
</svg>
