<svg width="24" height="24" viewBox="0 0 24 24" fill="none" xmlns="http://www.w3.org/2000/svg">
<path d="M18.6356 2C19.4882 2.56684 20.2641 3.23979 20.9445 4M5.30884 2C4.4563 2.56684 3.68041 3.23979 3 4M17 19.5L19.5 22M6.9983 19.5L4.4983 22M12.3033 9.12132L13.0104 8.41421C13.3392 8.08542 13.5036 7.92102 13.6746 7.82228C14.1387 7.55433 14.7105 7.55433 15.1746 7.82228C15.3456 7.92102 15.51 8.08542 15.8388 8.41421C16.1676 8.74301 16.332 8.90741 16.4308 9.07843C16.6987 9.54253 16.6987 10.1143 16.4308 10.5784C16.332 10.7494 16.1676 10.9138 15.8388 11.2426L15.1317 11.9497M12.3033 9.12132L9.63515 11.7895C9.44416 11.9805 9.34867 12.076 9.27279 12.1848C9.20544 12.2813 9.14969 12.3855 9.1067 12.4951C9.05827 12.6186 9.03178 12.751 8.97881 13.0159L8.64955 14.6621C8.57087 15.0556 8.53152 15.2523 8.58957 15.3926C8.64032 15.5153 8.73777 15.6127 8.86044 15.6635C9.00075 15.7215 9.19747 15.6822 9.59091 15.6035L11.2372 15.2742C11.502 15.2213 11.6345 15.1948 11.758 15.1463C11.8676 15.1034 11.9717 15.0476 12.0683 14.9803C12.1771 14.9044 12.2726 14.8089 12.4636 14.6179L15.1317 11.9497M12.3033 9.12132L15.1317 11.9497M21 12C21 16.9706 16.9706 21 12 21C7.02944 21 3 16.9706 3 12C3 7.02944 7.02944 3 12 3C16.9706 3 21 7.02944 21 12Z" stroke="currentColor" stroke-width="2" stroke-linecap="round"/>
</svg>
