<svg width="24" height="24" viewBox="0 0 24 24" fill="none" xmlns="http://www.w3.org/2000/svg">
<path d="M18.6356 2C19.4882 2.56684 20.2641 3.23979 20.9445 4M5.30884 2C4.4563 2.56684 3.68041 3.23979 3 4M17 19.5L19.5 22M6.9983 19.5L4.4983 22M9.52052 9.52049L14.4795 14.4795M21 12C21 16.9706 16.9706 21 12 21C7.02944 21 3 16.9706 3 12C3 7.02944 7.02944 3 12 3C16.9706 3 21 7.02944 21 12ZM15.7193 12C15.7193 14.0541 14.0541 15.7193 12 15.7193C9.94593 15.7193 8.28076 14.0541 8.28076 12C8.28076 9.94591 9.94593 8.28074 12 8.28074C14.0541 8.28074 15.7193 9.94591 15.7193 12Z" stroke="currentColor" stroke-width="2" stroke-linecap="round"/>
</svg>
