<svg width="24" height="24" viewBox="0 0 24 24" fill="none" xmlns="http://www.w3.org/2000/svg">
<path d="M15.5 20.2941C14.4241 20.7487 13.2414 21 12 21C7.02944 21 3 16.9706 3 12C3 10.9481 3.18046 9.93834 3.51212 9C3.57186 8.83096 3.63652 8.66423 3.70591 8.5M18.7083 18C20.1334 16.4077 21 14.3051 21 12C21 7.02944 16.9706 3 12 3C9.58467 3 7.39156 3.95145 5.77503 5.5M18.6356 2C19.4882 2.56684 20.2641 3.23979 20.9445 4M5.30884 2C4.64825 2.43921 4.03368 2.94214 3.47389 3.5M6.9983 19.5L4.4983 22M2 2L22 22" stroke="currentColor" stroke-width="2" stroke-linecap="round" stroke-linejoin="round"/>
</svg>
