<svg width="24" height="24" viewBox="0 0 24 24" fill="none" xmlns="http://www.w3.org/2000/svg">
<path d="M18.6356 2C19.4882 2.56684 20.2641 3.23979 20.9445 4M5.30884 2C4.4563 2.56684 3.68041 3.23979 3 4M17 19.5L19.5 22M6.9983 19.5L4.4983 22M21 12C21 16.9706 16.9706 21 12 21C7.02944 21 3 16.9706 3 12C3 7.02944 7.02944 3 12 3C16.9706 3 21 7.02944 21 12ZM11.9973 9.79732C11.1975 8.88833 9.8639 8.64381 8.86188 9.47618C7.85986 10.3085 7.71879 11.7002 8.50568 12.6847C9.29257 13.6691 11.9973 15.9667 11.9973 15.9667C11.9973 15.9667 14.7019 13.6691 15.4888 12.6847C16.2757 11.7002 16.1519 10.2998 15.1326 9.47618C14.1134 8.65257 12.797 8.88833 11.9973 9.79732Z" stroke="currentColor" stroke-width="2" stroke-linecap="round" stroke-linejoin="round"/>
</svg>
