<svg width="24" height="24" viewBox="0 0 24 24" fill="none" xmlns="http://www.w3.org/2000/svg">
<path d="M12 8.00003V13M12 16H12.01M7.6895 3.99388L6.80068 4.06481C5.34068 4.18132 4.18132 5.34068 4.06481 6.80068L3.99388 7.6895C3.94395 8.31515 3.69793 8.9091 3.29084 9.3868L2.71249 10.0654C1.7625 11.1802 1.7625 12.8198 2.71249 13.9346L3.29084 14.6132C3.69793 15.0909 3.94395 15.6849 3.99388 16.3105L4.06481 17.1993C4.18132 18.6593 5.34068 19.8187 6.80068 19.9352L7.6895 20.0061C8.31515 20.056 8.9091 20.3021 9.3868 20.7092L10.0654 21.2875C11.1802 22.2375 12.8198 22.2375 13.9346 21.2875L14.6132 20.7092C15.0909 20.3021 15.6849 20.056 16.3105 20.0061L17.1993 19.9352C18.6593 19.8187 19.8187 18.6593 19.9352 17.1993L20.0061 16.3105C20.056 15.6849 20.3021 15.0909 20.7092 14.6132L21.2875 13.9346C22.2375 12.8198 22.2375 11.1802 21.2875 10.0654L20.7092 9.3868C20.3021 8.9091 20.056 8.31515 20.0061 7.6895L19.9352 6.80068C19.8187 5.34068 18.6593 4.18132 17.1993 4.06481L16.3105 3.99388C15.6849 3.94395 15.0909 3.69793 14.6132 3.29084L13.9346 2.71249C12.8198 1.7625 11.1802 1.7625 10.0654 2.71249L9.3868 3.29084C8.9091 3.69793 8.31515 3.94395 7.6895 3.99388Z" stroke="currentColor" stroke-width="2" stroke-linecap="round" stroke-linejoin="round"/>
</svg>
