<svg width="24" height="24" viewBox="0 0 24 24" fill="none" xmlns="http://www.w3.org/2000/svg">
<path d="M20 5.33398H4M10.2812 10.586L10.2813 16.746C10.2813 17.4181 10.2813 17.7541 10.1505 18.0108C10.0354 18.2366 9.85183 18.4202 9.62604 18.5352C9.36934 18.666 9.03331 18.666 8.36125 18.666H8.20125C7.52919 18.666 7.19316 18.666 6.93646 18.5352C6.71067 18.4202 6.52709 18.2366 6.41204 18.0108C6.28125 17.7541 6.28125 17.4181 6.28125 16.746L6.28125 10.586C6.28125 9.91395 6.28125 9.57792 6.41204 9.32123C6.52709 9.09543 6.71067 8.91186 6.93646 8.79681C7.19316 8.66602 7.52919 8.66602 8.20125 8.66602H8.36125C9.03331 8.66602 9.36934 8.66602 9.62604 8.79681C9.85183 8.91186 10.0354 9.09543 10.1505 9.32123C10.2813 9.57792 10.2812 9.91395 10.2812 10.586ZM17.7188 10.586V13.746C17.7188 14.4181 17.7188 14.7541 17.588 15.0108C17.4729 15.2366 17.2893 15.4202 17.0635 15.5352C16.8068 15.666 16.4708 15.666 15.7987 15.666H15.6388C14.9667 15.666 14.6307 15.666 14.374 15.5352C14.1482 15.4202 13.9646 15.2366 13.8495 15.0108C13.7188 14.7541 13.7188 14.4181 13.7188 13.746V10.586C13.7187 9.91395 13.7188 9.57792 13.8495 9.32123C13.9646 9.09543 14.1482 8.91186 14.374 8.79681C14.6307 8.66602 14.9667 8.66602 15.6388 8.66602H15.7987C16.4708 8.66602 16.8068 8.66602 17.0635 8.79681C17.2893 8.91186 17.4729 9.09543 17.588 9.32123C17.7187 9.57792 17.7187 9.91395 17.7188 10.586Z" stroke="currentColor" stroke-width="2" stroke-linecap="round" stroke-linejoin="round"/>
</svg>
