<svg width="24" height="24" viewBox="0 0 24 24" fill="none" xmlns="http://www.w3.org/2000/svg">
<path d="M5.33398 20V4M10.586 10.2815H16.746C17.4181 10.2815 17.7541 10.2815 18.0108 10.1507C18.2366 10.0357 18.4202 9.85208 18.5352 9.62628C18.666 9.36959 18.666 9.03356 18.666 8.36149V8.20149C18.666 7.52943 18.666 7.1934 18.5352 6.93671C18.4202 6.71091 18.2366 6.52733 18.0108 6.41229C17.7541 6.28149 17.4181 6.28149 16.746 6.28149H10.586C9.91395 6.28149 9.57792 6.28149 9.32123 6.41229C9.09543 6.52733 8.91186 6.71091 8.79681 6.93671C8.66602 7.1934 8.66602 7.52943 8.66602 8.20149V8.36149C8.66602 9.03356 8.66602 9.36959 8.79681 9.62628C8.91186 9.85208 9.09543 10.0357 9.32123 10.1507C9.57792 10.2815 9.91395 10.2815 10.586 10.2815ZM10.586 17.7185H13.746C14.4181 17.7185 14.7541 17.7185 15.0108 17.5877C15.2366 17.4727 15.4202 17.2891 15.5352 17.0633C15.666 16.8066 15.666 16.4706 15.666 15.7985V15.6385C15.666 14.9664 15.666 14.6304 15.5352 14.3737C15.4202 14.1479 15.2366 13.9643 15.0108 13.8493C14.7541 13.7185 14.4181 13.7185 13.746 13.7185H10.586C9.91395 13.7185 9.57792 13.7185 9.32123 13.8493C9.09543 13.9643 8.91186 14.1479 8.79681 14.3737C8.66602 14.6304 8.66602 14.9664 8.66602 15.6385V15.7985C8.66602 16.4706 8.66602 16.8066 8.79681 17.0633C8.91186 17.2891 9.09543 17.4727 9.32123 17.5877C9.57792 17.7185 9.91395 17.7185 10.586 17.7185Z" stroke="currentColor" stroke-width="2" stroke-linecap="round" stroke-linejoin="round"/>
</svg>
