<svg width="24" height="24" viewBox="0 0 24 24" fill="none" xmlns="http://www.w3.org/2000/svg">
<path d="M18.666 20V4M13.414 10.2815H7.25398C6.58192 10.2815 6.24589 10.2815 5.9892 10.1507C5.7634 10.0357 5.57982 9.85208 5.46478 9.62628C5.33398 9.36959 5.33398 9.03356 5.33398 8.36149V8.20149C5.33398 7.52943 5.33398 7.1934 5.46478 6.93671C5.57982 6.71091 5.7634 6.52733 5.9892 6.41229C6.24589 6.28149 6.58192 6.28149 7.25398 6.28149H13.414C14.086 6.28149 14.4221 6.28149 14.6788 6.41229C14.9046 6.52733 15.0881 6.71091 15.2032 6.93671C15.334 7.1934 15.334 7.52943 15.334 8.20149V8.36149C15.334 9.03356 15.334 9.36959 15.2032 9.62628C15.0881 9.85208 14.9046 10.0357 14.6788 10.1507C14.4221 10.2815 14.086 10.2815 13.414 10.2815ZM13.414 17.7185H10.254C9.58192 17.7185 9.24589 17.7185 8.9892 17.5877C8.7634 17.4727 8.57982 17.2891 8.46478 17.0633C8.33398 16.8066 8.33398 16.4706 8.33398 15.7985V15.6385C8.33398 14.9664 8.33398 14.6304 8.46478 14.3737C8.57982 14.1479 8.7634 13.9643 8.9892 13.8493C9.24589 13.7185 9.58192 13.7185 10.254 13.7185H13.414C14.086 13.7185 14.4221 13.7185 14.6788 13.8493C14.9046 13.9643 15.0881 14.1479 15.2032 14.3737C15.334 14.6304 15.334 14.9664 15.334 15.6385V15.7985C15.334 16.4706 15.334 16.8066 15.2032 17.0633C15.0881 17.2891 14.9046 17.4727 14.6788 17.5877C14.4221 17.7185 14.086 17.7185 13.414 17.7185Z" stroke="currentColor" stroke-width="2" stroke-linecap="round" stroke-linejoin="round"/>
</svg>
