<svg width="24" height="24" viewBox="0 0 24 24" fill="none" xmlns="http://www.w3.org/2000/svg">
<path d="M20 18.666H4M10.2812 13.414L10.2812 7.25398C10.2812 6.58192 10.2812 6.24589 10.1505 5.9892C10.0354 5.7634 9.85183 5.57982 9.62604 5.46478C9.36934 5.33398 9.03331 5.33398 8.36125 5.33398L8.20125 5.33398C7.52919 5.33398 7.19316 5.33398 6.93646 5.46478C6.71067 5.57982 6.52709 5.7634 6.41204 5.9892C6.28125 6.24589 6.28125 6.58192 6.28125 7.25398L6.28125 13.414C6.28125 14.086 6.28125 14.4221 6.41204 14.6788C6.52709 14.9046 6.71067 15.0881 6.93646 15.2032C7.19316 15.334 7.52919 15.334 8.20125 15.334H8.36125C9.03331 15.334 9.36934 15.334 9.62604 15.2032C9.85183 15.0881 10.0354 14.9046 10.1505 14.6788C10.2813 14.4221 10.2813 14.086 10.2812 13.414ZM17.7188 13.414V10.254C17.7187 9.58192 17.7187 9.24589 17.588 8.98919C17.4729 8.7634 17.2893 8.57982 17.0635 8.46478C16.8068 8.33398 16.4708 8.33398 15.7987 8.33398H15.6388C14.9667 8.33398 14.6307 8.33398 14.374 8.46478C14.1482 8.57982 13.9646 8.7634 13.8495 8.98919C13.7187 9.24589 13.7187 9.58192 13.7188 10.254V13.414C13.7188 14.086 13.7188 14.4221 13.8495 14.6788C13.9646 14.9046 14.1482 15.0881 14.374 15.2032C14.6307 15.334 14.9667 15.334 15.6388 15.334H15.7987C16.4708 15.334 16.8068 15.334 17.0635 15.2032C17.2893 15.0881 17.4729 14.9046 17.588 14.6788C17.7187 14.4221 17.7188 14.086 17.7188 13.414Z" stroke="currentColor" stroke-width="2" stroke-linecap="round" stroke-linejoin="round"/>
</svg>
