<svg width="24" height="24" viewBox="0 0 24 24" fill="none" xmlns="http://www.w3.org/2000/svg">
<path d="M6.22949 12H4M10.4981 12H13.53M20 12H18M10.2812 17.08L10.2812 6.92C10.2812 6.24794 10.2812 5.91191 10.1505 5.65521C10.0354 5.42942 9.85183 5.24584 9.62604 5.13079C9.36934 5 9.03331 5 8.36125 5L8.20125 5C7.52919 5 7.19315 5 6.93646 5.13079C6.71067 5.24584 6.52709 5.42942 6.41204 5.65521C6.28125 5.91191 6.28125 6.24794 6.28125 6.92L6.28125 17.08C6.28125 17.7521 6.28125 18.0881 6.41204 18.3448C6.52709 18.5706 6.71067 18.7542 6.93646 18.8692C7.19316 19 7.52919 19 8.20125 19H8.36125C9.03331 19 9.36934 19 9.62604 18.8692C9.85183 18.7542 10.0354 18.5706 10.1505 18.3448C10.2813 18.0881 10.2813 17.7521 10.2812 17.08ZM17.7188 14.58V9.42C17.7187 8.74794 17.7187 8.41191 17.588 8.15521C17.4729 7.92942 17.2893 7.74584 17.0635 7.63079C16.8068 7.5 16.4708 7.5 15.7987 7.5H15.6388C14.9667 7.5 14.6307 7.5 14.374 7.63079C14.1482 7.74584 13.9646 7.92942 13.8495 8.15521C13.7187 8.41191 13.7187 8.74794 13.7188 9.42V14.58C13.7188 15.2521 13.7188 15.5881 13.8495 15.8448C13.9646 16.0706 14.1482 16.2542 14.374 16.3692C14.6307 16.5 14.9667 16.5 15.6388 16.5H15.7987C16.4708 16.5 16.8068 16.5 17.0635 16.3692C17.2893 16.2542 17.4729 16.0706 17.588 15.8448C17.7187 15.5881 17.7188 15.2521 17.7188 14.58Z" stroke="currentColor" stroke-width="2" stroke-linecap="round" stroke-linejoin="round"/>
</svg>
