<svg width="24" height="24" viewBox="0 0 24 24" fill="none" xmlns="http://www.w3.org/2000/svg">
<path d="M12 6.22949V4M12 10.4981L12 13.53M12 20V18M6.92 10.2815H17.08C17.7521 10.2815 18.0881 10.2815 18.3448 10.1507C18.5706 10.0357 18.7542 9.85208 18.8692 9.62628C19 9.36959 19 9.03356 19 8.36149V8.20149C19 7.52943 19 7.1934 18.8692 6.93671C18.7542 6.71091 18.5706 6.52733 18.3448 6.41229C18.0881 6.28149 17.7521 6.28149 17.08 6.28149H6.92C6.24794 6.28149 5.91191 6.28149 5.65521 6.41229C5.42942 6.52733 5.24584 6.71091 5.13079 6.93671C5 7.1934 5 7.52943 5 8.20149V8.36149C5 9.03356 5 9.36959 5.13079 9.62628C5.24584 9.85208 5.42942 10.0357 5.65521 10.1507C5.91191 10.2815 6.24794 10.2815 6.92 10.2815ZM9.42 17.7185H14.58C15.2521 17.7185 15.5881 17.7185 15.8448 17.5877C16.0706 17.4727 16.2542 17.2891 16.3692 17.0633C16.5 16.8066 16.5 16.4706 16.5 15.7985V15.6385C16.5 14.9664 16.5 14.6304 16.3692 14.3737C16.2542 14.1479 16.0706 13.9643 15.8448 13.8493C15.5881 13.7185 15.2521 13.7185 14.58 13.7185H9.42C8.74794 13.7185 8.41191 13.7185 8.15521 13.8493C7.92942 13.9643 7.74584 14.1479 7.63079 14.3737C7.5 14.6304 7.5 14.9664 7.5 15.6385V15.7985C7.5 16.4706 7.5 16.8066 7.63079 17.0633C7.74584 17.2891 7.92942 17.4727 8.15521 17.5877C8.41191 17.7185 8.74794 17.7185 9.42 17.7185Z" stroke="currentColor" stroke-width="2" stroke-linecap="round" stroke-linejoin="round"/>
</svg>
