<svg width="24" height="24" viewBox="0 0 24 24" fill="none" xmlns="http://www.w3.org/2000/svg">
<path d="M8.39209 15.1522C8.39209 15.1522 8.79297 12.5297 12 12.5297C15.207 12.5297 15.6079 15.1522 15.6079 15.1522M7.8 3H17.2C18.8802 3 18.8583 3 19.5 3.32698C20.0645 3.6146 20.5234 4.07354 20.811 4.63803C21.138 5.27976 21.138 6.11984 21.138 7.8V13.2C21.138 14.8802 21.138 15.7202 20.811 16.362C20.5234 16.9265 20.0645 17.3854 19.5 17.673C18.8583 18 18.8802 18 17.2 18C16.8346 18 16.6518 18 16.478 18.0309C16.1926 18.0817 15.9216 18.194 15.6839 18.3599C15.5391 18.4609 15.4099 18.5901 15.1515 18.8485L14.2627 19.7373C13.4707 20.5293 13.0747 20.9253 12.618 21.0737C12.2163 21.2042 11.7837 21.2042 11.382 21.0737C10.9253 20.9253 10.5293 20.5293 9.73726 19.7373L8.14142 18.1414C8.05087 18.0509 7.92806 18 7.8 18C6.11984 18 5.27976 18 4.63803 17.673C4.07354 17.3854 3.6146 16.9265 3.32698 16.362C3 15.7202 3 14.8802 3 13.2V7.8C3 6.11984 3 5.27976 3.32698 4.63803C3.6146 4.07354 4.07354 3.6146 4.63803 3.32698C5.27976 3 6.11984 3 7.8 3ZM14.0295 8.00297C14.0295 9.1238 13.1209 10.0324 12 10.0324C10.8792 10.0324 9.97058 9.1238 9.97058 8.00297C9.97058 6.88214 10.8792 5.97353 12 5.97353C13.1209 5.97353 14.0295 6.88214 14.0295 8.00297Z" stroke="currentColor" stroke-width="2" stroke-linecap="round" stroke-linejoin="round"/>
</svg>
