<svg width="24" height="24" viewBox="0 0 24 24" fill="none" xmlns="http://www.w3.org/2000/svg">
<path d="M8.57173 7.27155C5.14133 7.27155 4 10.6716 4 13.5031C4 16.9021 6.28587 22 8.57173 22C9.8144 21.9474 10.4907 21.4337 12 21.4337C13.4997 21.4337 13.7141 22 15.4283 22C16.7613 22 18.7858 19.9445 19.6202 17.9651C19.7055 17.7627 19.7481 17.6615 19.7474 17.3564C19.7469 17.1105 19.6619 16.8034 19.536 16.5921C19.3799 16.3301 19.0766 16.108 18.4702 15.6638C17.799 15.1722 17.1576 14.3371 17.1424 12.9358C17.1356 12.1473 17.4173 11.5203 17.8064 11.0306C18.4413 10.2316 18.7587 9.83213 18.8137 9.42215C18.8588 9.08539 18.7655 8.67884 18.5781 8.39544C18.3499 8.05041 18.2151 7.98553 17.9454 7.85579C17.1129 7.45534 16.3335 7.29394 16 7.27155C14.3627 7.14524 12.7659 8.40524 12 8.40524C11.2224 8.40524 9.82827 7.27155 8.57173 7.27155Z" stroke="currentColor" stroke-width="2" stroke-linecap="round" stroke-linejoin="round"/>
<path d="M12.5333 4.10527C13.0991 4.10527 13.6418 3.88346 14.0418 3.48865C14.4419 3.09383 14.6667 2.55835 14.6667 2C14.1009 2 13.5583 2.2218 13.1582 2.61662C12.7581 3.01143 12.5333 3.54692 12.5333 4.10527Z" stroke="currentColor" stroke-width="2" stroke-linecap="round" stroke-linejoin="round"/>
</svg>
