<svg width="24" height="24" viewBox="0 0 24 24" fill="none" xmlns="http://www.w3.org/2000/svg">
<path d="M5.32227 13.5245C5.32227 13.5245 7.35722 13.0491 8.66113 13.0491C9.96504 13.0491 12 13.5245 12 13.5245C12 13.5245 13.9894 14 15.3389 14C16.6883 14 18.6777 13.5245 18.6777 13.5245M15.1111 6V8.28341C15.1111 8.90052 15.1111 9.20908 15.1685 9.49824C15.268 9.99951 15.4939 10.4671 15.8247 10.8566C16.0156 11.0812 16.2573 11.273 16.7407 11.6566L17.0136 11.873C17.7132 12.4281 18.0631 12.7057 18.3561 13.0151C19.2107 13.9174 19.7641 15.0627 19.9398 16.293C20 16.7149 20 17.1615 20 18.0546C20 18.9336 20 19.3732 19.9086 19.735C19.6385 20.8039 18.8039 21.6385 17.735 21.9086C17.3732 22 16.9336 22 16.0546 22H7.9454C7.06636 22 6.62684 22 6.26504 21.9086C5.19614 21.6385 4.36152 20.8039 4.09142 19.735C4 19.3732 4 18.9336 4 18.0546C4 17.1615 4 16.7149 4.06024 16.293C4.23591 15.0627 4.78925 13.9174 5.64386 13.0151C5.93694 12.7057 6.28676 12.4281 6.98642 11.873L7.25926 11.6566C7.7427 11.273 7.98442 11.0812 8.17528 10.8566C8.50615 10.4671 8.73203 9.99951 8.83151 9.49824C8.88889 9.20908 8.88889 8.90052 8.88889 8.28341V6H15.1111ZM10 6H14C14.465 6 14.6975 6 14.8882 5.94889C15.4059 5.81019 15.8102 5.40587 15.9489 4.88823C16 4.69748 16 4.46499 16 4C16 3.53501 16 3.30252 15.9489 3.11177C15.8102 2.59413 15.4059 2.18981 14.8882 2.05111C14.6975 2 14.465 2 14 2H10C9.53501 2 9.30252 2 9.11177 2.05111C8.59413 2.18981 8.18981 2.59413 8.05111 3.11177C8 3.30252 8 3.53501 8 4C8 4.46499 8 4.69748 8.05111 4.88823C8.18981 5.40587 8.59413 5.81019 9.11177 5.94889C9.30252 6 9.53501 6 10 6Z" stroke="currentColor" stroke-width="2" stroke-linecap="round" stroke-linejoin="round"/>
</svg>
