<svg width="24" height="24" viewBox="0 0 24 24" fill="none" xmlns="http://www.w3.org/2000/svg">
<path d="M19.851 19.8514C17.4548 22.2477 11.997 20.675 7.66075 16.3387C3.3245 12.0025 1.75182 6.5447 4.14808 4.14844C6.54433 1.75219 12.0021 3.32487 16.3384 7.66112C20.6746 11.9974 22.2473 17.4551 19.851 19.8514Z" stroke="currentColor" stroke-width="2" stroke-linecap="round" stroke-linejoin="round"/>
<path d="M19.851 4.14844C22.2473 6.5447 20.6746 12.0025 16.3384 16.3387C12.0021 20.675 6.54433 22.2477 4.14808 19.8514C1.75182 17.4551 3.3245 11.9974 7.66075 7.66112C11.997 3.32487 17.4548 1.75219 19.851 4.14844Z" stroke="currentColor" stroke-width="2" stroke-linecap="round" stroke-linejoin="round"/>
<path d="M13.0005 11.9999C13.0005 12.5522 12.5528 12.9999 12.0005 12.9999C11.4483 12.9999 11.0005 12.5522 11.0005 11.9999C11.0005 11.4477 11.4483 10.9999 12.0005 10.9999C12.5528 10.9999 13.0005 11.4477 13.0005 11.9999Z" stroke="currentColor" stroke-width="2" stroke-linecap="round" stroke-linejoin="round"/>
</svg>
