<svg width="24" height="24" viewBox="0 0 24 24" fill="none" xmlns="http://www.w3.org/2000/svg">
<path d="M7.65886 9.35023C8.18146 5.11336 9.92671 2 11.9992 2C14.4845 2 16.4992 6.47715 16.4992 12C16.4992 17.5228 14.4845 22 11.9992 22C10.632 22 9.40726 20.6452 8.58195 18.5067M19.5908 11.8028C21.59 9.70252 22.4934 7.65841 21.7499 6.37065C20.5073 4.21833 15.1345 4.9939 9.74956 8.10292C4.36457 11.2119 1.00654 15.4771 2.24918 17.6294C3.30364 19.4558 7.33206 19.1739 11.8183 17.147M8.48019 5.63902C5.45091 4.82107 3.03111 5.0155 2.24869 6.37069C1.00605 8.52301 4.36408 12.7882 9.74907 15.8972C15.1341 19.0062 20.5068 19.7818 21.7494 17.6295C22.8166 15.7811 20.4908 12.3746 16.4021 9.48021M12.9992 12C12.9992 12.5523 12.5515 13 11.9992 13C11.4469 13 10.9992 12.5523 10.9992 12C10.9992 11.4477 11.4469 11 11.9992 11C12.5515 11 12.9992 11.4477 12.9992 12Z" stroke="currentColor" stroke-width="2" stroke-linecap="round" stroke-linejoin="round"/>
</svg>
