<svg width="24" height="24" viewBox="0 0 24 24" fill="none" xmlns="http://www.w3.org/2000/svg">
<path d="M6.83789 15.5219V20.2981C6.83789 20.9675 6.83789 21.3022 6.97541 21.5366C7.09603 21.7422 7.28611 21.8979 7.51138 21.9757C7.76822 22.0644 8.09638 21.9986 8.75269 21.8669L11.6852 21.2784C11.8028 21.2548 11.8616 21.243 11.9209 21.2383C11.9735 21.2341 12.0265 21.2341 12.0791 21.2383C12.1384 21.243 12.1972 21.2548 12.3148 21.2784L15.2473 21.8669C15.9036 21.9986 16.2318 22.0644 16.4886 21.9757C16.7139 21.8979 16.904 21.7422 17.0246 21.5366C17.1621 21.3022 17.1621 20.9675 17.1621 20.2981V15.0039M19.5 9.5C19.5 13.6421 16.1421 17 12 17C7.85786 17 4.5 13.6421 4.5 9.5C4.5 5.35786 7.85786 2 12 2C16.1421 2 19.5 5.35786 19.5 9.5ZM9.68729 7.29141C10.0665 7.18332 10.3953 6.94447 10.6153 6.61718C11.2768 5.63296 12.7249 5.63296 13.3864 6.61718C13.6064 6.94447 13.9352 7.18332 14.3144 7.29141C15.4549 7.61643 15.9024 8.99361 15.1707 9.92691C14.9275 10.2373 14.8019 10.6237 14.8163 11.0178C14.8596 12.2029 13.6881 13.0541 12.5744 12.6467C12.204 12.5112 11.7977 12.5112 11.4273 12.6467C10.3136 13.0541 9.14212 12.2029 9.18543 11.0178C9.19983 10.6237 9.07426 10.2373 8.83096 9.92691C8.09935 8.99361 8.54682 7.61643 9.68729 7.29141Z" stroke="currentColor" stroke-width="2" stroke-linecap="round" stroke-linejoin="round"/>
</svg>
