<svg width="24" height="24" viewBox="0 0 24 24" fill="none" xmlns="http://www.w3.org/2000/svg">
<path d="M6.83876 15.1394V20.298C6.83876 20.9674 6.83876 21.3021 6.97629 21.5365C7.09691 21.7421 7.28698 21.8978 7.51225 21.9756C7.76909 22.0643 8.09725 21.9985 8.75356 21.8668L11.6861 21.2783C11.8037 21.2547 11.8624 21.2429 11.9217 21.2382C11.9744 21.234 12.0273 21.234 12.08 21.2382C12.1393 21.2429 12.1981 21.2547 12.3157 21.2783L15.2482 21.8668C15.9045 21.9985 16.2327 22.0643 16.4895 21.9756C16.7148 21.8978 16.9048 21.7421 17.0255 21.5365C17.163 21.3021 17.163 20.9674 17.163 20.298L17.163 15.1394M7.63057 4.33976C8.42615 4.24041 9.14782 3.82376 9.63164 3.18444C10.8205 1.61349 13.1812 1.61349 14.3701 3.18444C14.8539 3.82376 15.5756 4.24041 16.3712 4.33976C18.3261 4.58387 19.5064 6.62832 18.7404 8.44338C18.4286 9.18205 18.4286 10.0154 18.7404 10.754C19.5064 12.5691 18.3261 14.6135 16.3712 14.8576C15.5756 14.957 14.8539 15.3736 14.3701 16.013C13.1812 17.5839 10.8205 17.5839 9.63164 16.013C9.14782 15.3736 8.42615 14.957 7.63057 14.8576C5.67566 14.6135 4.49529 12.5691 5.26134 10.754C5.5731 10.0154 5.5731 9.18205 5.26134 8.44338C4.49529 6.62831 5.67566 4.58387 7.63057 4.33976Z" stroke="currentColor" stroke-width="2" stroke-linecap="round" stroke-linejoin="round"/>
</svg>
