<svg width="24" height="24" viewBox="0 0 24 24" fill="none" xmlns="http://www.w3.org/2000/svg">
<path d="M6 3L12 11L18 3M15 12.5L19.381 6.80467C19.7824 6.2829 20 5.64308 20 4.9848C20 3.33634 18.6637 2 17.0152 2H6.9848C5.33634 2 4 3.33634 4 4.9848C4 5.64308 4.21762 6.2829 4.61898 6.80467L9 12.5M17 17C17 19.7614 14.7614 22 12 22C9.23858 22 7 19.7614 7 17C7 14.2386 9.23858 12 12 12C14.7614 12 17 14.2386 17 17Z" stroke="currentColor" stroke-width="2" stroke-linecap="round" stroke-linejoin="round"/>
</svg>
