<svg width="24" height="24" viewBox="0 0 24 24" fill="none" xmlns="http://www.w3.org/2000/svg">
<path d="M7.35074 16L6.55051 19.7022C6.36838 20.5448 6.27731 20.9661 6.40012 21.2572C6.50734 21.5114 6.71481 21.71 6.97343 21.806C7.26963 21.916 7.68655 21.8066 8.5204 21.5878L11.594 20.7815C11.7452 20.7418 11.8208 20.722 11.8976 20.7141C11.9657 20.7071 12.0343 20.7071 12.1024 20.7141C12.1792 20.722 12.2548 20.7418 12.406 20.7815L15.4796 21.5878C16.3134 21.8066 16.7304 21.916 17.0266 21.806C17.2852 21.71 17.4927 21.5114 17.5999 21.2572C17.7227 20.9661 17.6316 20.5448 17.4495 19.7022L16.6493 16M19.5 9.5C19.5 13.6421 16.1421 17 12 17C7.85786 17 4.5 13.6421 4.5 9.5C4.5 5.35786 7.85786 2 12 2C16.1421 2 19.5 5.35786 19.5 9.5Z" stroke="currentColor" stroke-width="2" stroke-linecap="round" stroke-linejoin="round"/>
</svg>
