<svg width="24" height="24" viewBox="0 0 24 24" fill="none" xmlns="http://www.w3.org/2000/svg">
<path d="M14 5V4C14 2.89543 13.1046 2 12 2C10.8954 2 10 2.89543 10 4V5M11 10H13M7.21739 22H16.7826C18.0072 22 19 21.0072 19 19.7826V12C19 8.13401 15.866 5 12 5C8.13401 5 5 8.13401 5 12V19.7826C5 21.0072 5.99276 22 7.21739 22ZM15 22V17.4C15 16.5599 15 16.1399 14.8365 15.819C14.6927 15.5368 14.4632 15.3073 14.181 15.1635C13.8601 15 13.4401 15 12.6 15H11.4C10.5599 15 10.1399 15 9.81901 15.1635C9.53677 15.3073 9.3073 15.5368 9.16349 15.819C9 16.1399 9 16.5599 9 17.4V22H15Z" stroke="currentColor" stroke-width="2" stroke-linecap="round"/>
</svg>
