<svg width="24" height="24" viewBox="0 0 24 24" fill="none" xmlns="http://www.w3.org/2000/svg">
<path d="M16 22H17.2C18.8802 22 19.7202 22 20.362 21.673C20.9265 21.3854 21.3854 20.9265 21.673 20.362C22 19.7202 22 18.8802 22 17.2V16.4C22 15.5599 22 15.1399 21.8365 14.819C21.6927 14.5368 21.4632 14.3073 21.181 14.1635C20.8601 14 20.4401 14 19.6 14H18.8689C18.5993 14 18.4645 14 18.3898 14.0075C18.2513 14.0214 18.328 14.0085 18.1926 14.0407C18.1195 14.0581 17.8191 14.1622 17.2183 14.3703C16.3965 14.655 14.8192 15 12 15C9.18079 15 7.60345 14.655 6.78171 14.3703C6.18087 14.1622 5.88045 14.0581 5.80738 14.0407C5.67199 14.0085 5.74866 14.0214 5.61019 14.0075C5.53546 14 5.40067 14 5.13108 14H4.4C3.55992 14 3.13988 14 2.81901 14.1635C2.53677 14.3073 2.3073 14.5368 2.16349 14.819C2 15.1399 2 15.5599 2 16.4V17.2C2 18.8802 2 19.7202 2.32698 20.362C2.6146 20.9265 3.07354 21.3854 3.63803 21.673C4.27976 22 5.11984 22 6.8 22H8M14 16V17.5M10 16V17.5M9 2.5V6.5M15 2.5V6.5M6.5 7H17.5C18.8807 7 20 5.88071 20 4.5C20 3.11929 18.8807 2 17.5 2H6.5C5.11929 2 4 3.11929 4 4.5C4 5.88071 5.11929 7 6.5 7ZM6 7H18V19.6C18 20.4401 18 20.8601 17.8365 21.181C17.6927 21.4632 17.4632 21.6927 17.181 21.8365C16.8601 22 16.4401 22 15.6 22H8.4C7.55992 22 7.13988 22 6.81901 21.8365C6.53677 21.6927 6.3073 21.4632 6.16349 21.181C6 20.8601 6 20.4401 6 19.6V7Z" stroke="currentColor" stroke-width="2" stroke-linecap="round" stroke-linejoin="round"/>
</svg>
