<svg width="24" height="24" viewBox="0 0 24 24" fill="none" xmlns="http://www.w3.org/2000/svg">
<path d="M9 11.5V21.5M15 11.5V21.5M11 7H13M18 11.5V7.3C18 5.61984 18 4.77976 17.673 4.13803C17.3854 3.57354 16.9265 3.1146 16.362 2.82698C15.7202 2.5 14.8802 2.5 13.2 2.5H10.8C9.11984 2.5 8.27976 2.5 7.63803 2.82698C7.07354 3.1146 6.6146 3.57354 6.32698 4.13803C6 4.77976 6 5.61984 6 7.3V11.5H18ZM8.8 21.5H15.2C16.8802 21.5 17.7202 21.5 18.362 21.173C18.9265 20.8854 19.3854 20.4265 19.673 19.862C20 19.2202 20 18.3802 20 16.7V16.3C20 14.6198 20 13.7798 19.673 13.138C19.3854 12.5735 18.9265 12.1146 18.362 11.827C17.7202 11.5 16.8802 11.5 15.2 11.5H8.8C7.11984 11.5 6.27976 11.5 5.63803 11.827C5.07354 12.1146 4.6146 12.5735 4.32698 13.138C4 13.7798 4 14.6198 4 16.3V16.7C4 18.3802 4 19.2202 4.32698 19.862C4.6146 20.4265 5.07354 20.8854 5.63803 21.173C6.27976 21.5 7.11984 21.5 8.8 21.5Z" stroke="currentColor" stroke-width="2" stroke-linecap="round" stroke-linejoin="round"/>
</svg>
