<svg width="24" height="24" viewBox="0 0 24 24" fill="none" xmlns="http://www.w3.org/2000/svg">
<path d="M7.84102 14.3416L5.74489 10.5657M10.8039 11.3791L8.70778 7.60317M13.7649 8.41642L11.6687 4.64052M8.54733 20.7109L20.507 8.75131C20.5497 8.70859 20.571 8.68723 20.5888 8.66885C21.7126 7.50609 21.7126 5.66186 20.5888 4.4991C20.571 4.48072 20.5497 4.45936 20.507 4.41664C20.4215 4.3312 20.3788 4.28848 20.3421 4.25296C18.0165 2.00536 14.3281 2.00536 12.0025 4.25296C11.9658 4.28848 11.9231 4.3312 11.8376 4.41664L4.21266 12.0416C4.12722 12.1271 4.0845 12.1698 4.04899 12.2065C1.80138 14.532 1.80138 18.2205 4.04899 20.546C4.0845 20.5828 4.12722 20.6255 4.21266 20.7109C4.25538 20.7537 4.27674 20.775 4.29512 20.7928C5.45788 21.9166 7.30211 21.9166 8.46487 20.7928C8.48325 20.775 8.50461 20.7537 8.54733 20.7109Z" stroke="currentColor" stroke-width="2" stroke-linecap="round" stroke-linejoin="round"/>
</svg>
