<svg width="24" height="24" viewBox="0 0 24 24" fill="none" xmlns="http://www.w3.org/2000/svg">
<path d="M4.5019 5.38329C6.56765 4.79131 9.93326 5.71394 12.7391 7.90672M4.5019 5.38329C6.33421 3.30848 9.0143 2 12 2C12.6422 2 13.2703 2.06054 13.8789 2.17624M4.5019 5.38329C3.14193 6.92324 2.24898 8.88535 2.04473 11.0479M19.5544 18.5524C18.5338 14.2832 15.7022 10.2224 12.7391 7.90672M19.5544 18.5524C21.0779 16.7974 22 14.5064 22 12C22 10.7664 21.7766 9.58492 21.3681 8.49388M19.5544 18.5524C17.7663 20.6121 15.1498 21.9334 12.2234 21.9976M2.04473 11.0479C5.65491 9.09608 8.2712 9.74273 9.88138 10.8267M2.04473 11.0479C2.01514 11.3613 2 11.6789 2 12C2 15.2459 3.54648 18.1306 5.94283 19.9575C7.62383 21.239 9.72305 22 12 22C12.0747 22 12.1491 21.9992 12.2234 21.9976M12.2234 21.9976C12.469 21.0653 12.7888 19.6381 12.7888 17.4263C12.7888 15.3723 12.1138 12.3296 9.88138 10.8267M21.3681 8.49388C20.8861 8.39994 20.2981 8.2589 19.6873 8.09396C17.4709 7.49543 14.1572 5.93587 13.8789 2.17624M21.3681 8.49388C20.7603 6.87067 19.7428 5.4476 18.4413 4.35058M13.8789 2.17624C15.5955 2.50258 17.1567 3.26773 18.4413 4.35058M18.4413 4.35058C17.0245 4.99458 14.6488 6.27573 12.7391 7.90672M6 19.5C6.49743 16.018 8.01441 13.1316 9.88138 10.8267M12.7391 7.90672C11.7553 8.74701 10.778 9.71981 9.88138 10.8267" stroke="currentColor" stroke-width="2" stroke-linecap="round" stroke-linejoin="round"/>
</svg>
