<svg width="24" height="24" viewBox="0 0 24 24" fill="none" xmlns="http://www.w3.org/2000/svg">
<path d="M9.75204 2.34096C9.75204 2.5111 9.8428 2.66831 9.99015 2.75338L10.876 3.2648C11.2389 3.47436 11.4204 3.57914 11.6106 3.63024C11.8656 3.69878 12.1342 3.69878 12.3892 3.63024C12.5794 3.57914 12.7608 3.47436 13.1238 3.2648L13.9052 2.81366C14.1171 2.69129 14.2477 2.46514 14.2477 2.2204M19.1516 5.03944C18.9672 5.1459 18.8536 5.34266 18.8536 5.55558V6.50928C18.8536 6.92839 18.8536 7.13795 18.9044 7.32818C18.9726 7.5833 19.1069 7.81592 19.2937 8.0025C19.4331 8.14163 19.6146 8.24641 19.9775 8.45596L20.7758 8.91684C20.9773 9.03318 21.2256 9.03319 21.4271 8.91684M21.3393 15.0417C21.1921 14.9568 21.0108 14.9568 20.8636 15.0417L19.9775 15.5533C19.6146 15.7629 19.4331 15.8676 19.2937 16.0068C19.1069 16.1934 18.9726 16.426 18.9044 16.6811C18.8536 16.8713 18.8536 17.0809 18.8536 17.5V18.2547C18.8536 18.5296 18.9735 18.7874 19.1765 18.9641M14.2477 21.7277C14.2477 21.3432 14.0426 20.988 13.7096 20.7957L13.1238 20.4575C12.7608 20.2479 12.5794 20.1432 12.3892 20.092C12.1342 20.0235 11.8656 20.0235 11.6106 20.092C11.4204 20.1432 11.2389 20.2479 10.876 20.4575L10.4239 20.7185C10.0472 20.936 9.8016 21.3205 9.75875 21.7479M4.58182 18.6392C4.92957 18.4384 5.14378 18.0674 5.14378 17.6659V17.017C5.14378 16.5979 5.14378 16.3883 5.09296 16.1981C5.02481 15.9429 4.89051 15.7103 4.70364 15.5237C4.56431 15.3846 4.38283 15.2798 4.01986 15.0703L3.4579 14.7458C3.11016 14.5451 2.68173 14.5451 2.33398 14.7458M2.61719 8.71246C2.79106 8.81284 3.00528 8.81284 3.17915 8.71246L4.02209 8.22578C4.38505 8.01623 4.56653 7.91145 4.70587 7.77232C4.89273 7.58574 5.02703 7.35313 5.09519 7.098C5.14601 6.90777 5.14601 6.69821 5.14601 6.2791V5.6302C5.14601 5.37827 5.06168 5.13835 4.91295 4.94495M12 15.6426V19.6125M12 3.68347V8.5M15.459 13.6453L18.8971 15.6302M5.10156 7.66577L8.99316 9.91259M15.4588 9.65048L18.8969 7.66549M5.10172 15.6305L8.78138 13.5061M4.91295 4.94495C3.1127 6.75331 2 9.24671 2 12C2 16.7523 5.315 20.7303 9.75875 21.7479M4.91295 4.94495C6.72385 3.12589 9.23044 2 12 2C17.5228 2 22 6.47715 22 12C22 14.7074 20.9241 17.1635 19.1765 18.9641M9.75875 21.7479C10.4793 21.9128 11.2295 22 12 22C14.8154 22 17.3591 20.8365 19.1765 18.9641M8.84544 11.5644V12.4356C8.84544 12.9404 8.84543 13.1928 8.91885 13.4188C8.98381 13.6187 9.09006 13.8027 9.23072 13.959C9.38969 14.1355 9.60827 14.2617 10.0454 14.5141L10.8 14.9498C11.2372 15.2022 11.4557 15.3284 11.6881 15.3777C11.8937 15.4215 12.1063 15.4215 12.3119 15.3777C12.5443 15.3284 12.7628 15.2022 13.2 14.9498L13.9546 14.5141C14.3917 14.2617 14.6103 14.1355 14.7693 13.959C14.9099 13.8027 15.0162 13.6187 15.0812 13.4188C15.1546 13.1928 15.1546 12.9404 15.1546 12.4356V11.5644C15.1546 11.0596 15.1546 10.8072 15.0812 10.5812C15.0162 10.3813 14.9099 10.1973 14.7693 10.041C14.6103 9.86449 14.3917 9.73829 13.9546 9.48589L13.2 9.05024C12.7628 8.79785 12.5443 8.67165 12.3119 8.62225C12.1063 8.57855 11.8937 8.57855 11.6881 8.62225C11.4557 8.67165 11.2372 8.79785 10.8 9.05024L10.0454 9.48589C9.60827 9.73829 9.38969 9.86449 9.23072 10.041C9.09006 10.1973 8.98381 10.3813 8.91885 10.5812C8.84543 10.8072 8.84544 11.0596 8.84544 11.5644Z" stroke="currentColor" stroke-width="2" stroke-linecap="round" stroke-linejoin="round"/>
</svg>
