<svg width="24" height="24" viewBox="0 0 24 24" fill="none" xmlns="http://www.w3.org/2000/svg">
<path d="M22 12H2M22 12C22 14.7942 20.854 17.3207 19.0063 19.1352M22 12C22 9.20183 20.8507 6.67208 18.9985 4.85705M2 12C2 9.20181 3.14929 6.67204 5.00159 4.85701M2 12C2 14.7981 3.14925 17.3278 5.00147 19.1429M18.9985 4.85705C17.1471 6.67197 16 9.20261 16 12C16 14.7974 17.155 17.3203 19.0063 19.1352M18.9985 4.85705C17.1948 3.08969 14.7247 2 12 2C9.27535 2 6.8052 3.08968 5.00159 4.85701M19.0063 19.1352C17.202 20.9071 14.7286 22 12 22C9.27529 22 6.80509 20.9103 5.00147 19.1429M5.00147 19.1429C6.85283 17.3279 8 14.7974 8 12C8 9.20261 6.85295 6.67193 5.00159 4.85701" stroke="currentColor" stroke-width="2" stroke-linecap="round" stroke-linejoin="round"/>
</svg>
