<svg width="24" height="24" viewBox="0 0 24 24" fill="none" xmlns="http://www.w3.org/2000/svg">
<path d="M18.332 12H18.342M5.78516 12H5.79516M5.2 19H18.8C19.9201 19 20.4802 19 20.908 18.782C21.2843 18.5903 21.5903 18.2843 21.782 17.908C22 17.4802 22 16.9201 22 15.8V8.2C22 7.0799 22 6.51984 21.782 6.09202C21.5903 5.71569 21.2843 5.40973 20.908 5.21799C20.4802 5 19.9201 5 18.8 5H5.2C4.07989 5 3.51984 5 3.09202 5.21799C2.71569 5.40973 2.40973 5.71569 2.21799 6.09202C2 6.51984 2 7.07989 2 8.2V15.8C2 16.9201 2 17.4802 2.21799 17.908C2.40973 18.2843 2.71569 18.5903 3.09202 18.782C3.51984 19 4.0799 19 5.2 19ZM18.832 12C18.832 12.2761 18.6082 12.5 18.332 12.5C18.0559 12.5 17.832 12.2761 17.832 12C17.832 11.7239 18.0559 11.5 18.332 11.5C18.6082 11.5 18.832 11.7239 18.832 12ZM6.28516 12C6.28516 12.2761 6.0613 12.5 5.78516 12.5C5.50901 12.5 5.28516 12.2761 5.28516 12C5.28516 11.7239 5.50901 11.5 5.78516 11.5C6.0613 11.5 6.28516 11.7239 6.28516 12ZM14.5957 12C14.5957 13.4012 13.4598 14.5371 12.0586 14.5371C10.6574 14.5371 9.52148 13.4012 9.52148 12C9.52148 10.5988 10.6574 9.46289 12.0586 9.46289C13.4598 9.46289 14.5957 10.5988 14.5957 12Z" stroke="currentColor" stroke-width="2" stroke-linecap="round" stroke-linejoin="round"/>
</svg>
