<svg width="24" height="24" viewBox="0 0 24 24" fill="none" xmlns="http://www.w3.org/2000/svg">
<path d="M6.11618 15.0994H5.2C4.07989 15.0994 3.51984 15.0994 3.09202 14.8815C2.71569 14.6897 2.40973 14.3837 2.21799 14.0074C2 13.5796 2 13.0195 2 11.8994V7.17998C2 6.05988 2 5.49982 2.21799 5.072C2.40973 4.69568 2.71569 4.38971 3.09202 4.19797C3.51984 3.97998 4.0799 3.97998 5.2 3.97998H14.6849C15.805 3.97998 16.3651 3.97998 16.7929 4.19797C17.1692 4.38971 17.4752 4.69568 17.667 5.072C17.8849 5.49982 17.8849 6.05988 17.8849 7.17998V8.73213M19.0867 14.3613H19.0946M9.12186 14.3613H9.12981M9.31523 19.921H18.8002C19.9203 19.921 20.4803 19.921 20.9082 19.703C21.2845 19.5112 21.5904 19.2053 21.7822 18.8289C22.0002 18.4011 22.0002 17.8411 22.0002 16.721V12.0015C22.0002 10.8814 22.0002 10.3213 21.7822 9.89352C21.5904 9.51719 21.2845 9.21123 20.9082 9.01948C20.4803 8.8015 19.9203 8.8015 18.8002 8.8015H9.31523C8.19513 8.8015 7.63508 8.8015 7.20725 9.01948C6.83093 9.21123 6.52497 9.51719 6.33322 9.89352C6.11523 10.3213 6.11523 10.8814 6.11523 12.0015V16.721C6.11523 17.8411 6.11523 18.4011 6.33322 18.8289C6.52497 19.2053 6.83093 19.5112 7.20725 19.703C7.63508 19.921 8.19513 19.921 9.31523 19.921ZM19.484 14.3613C19.484 14.5807 19.3061 14.7586 19.0867 14.7586C18.8673 14.7586 18.6895 14.5807 18.6895 14.3613C18.6895 14.1419 18.8673 13.9641 19.0867 13.9641C19.3061 13.9641 19.484 14.1419 19.484 14.3613ZM9.51911 14.3613C9.51911 14.5807 9.34126 14.7586 9.12186 14.7586C8.90246 14.7586 8.72461 14.5807 8.72461 14.3613C8.72461 14.1419 8.90246 13.9641 9.12186 13.9641C9.34126 13.9641 9.51911 14.1419 9.51911 14.3613ZM16.1181 14.3613C16.1181 15.4742 15.2159 16.3764 14.103 16.3764C12.9901 16.3764 12.0879 15.4742 12.0879 14.3613C12.0879 13.2484 12.9901 12.3462 14.103 12.3462C15.2159 12.3462 16.1181 13.2484 16.1181 14.3613Z" stroke="currentColor" stroke-width="2" stroke-linecap="round" stroke-linejoin="round"/>
</svg>
