<svg width="24" height="24" viewBox="0 0 24 24" fill="none" xmlns="http://www.w3.org/2000/svg">
<path d="M19.6516 19.9155C19.4087 19.921 19.1285 19.921 18.8002 19.921H9.31523C8.19513 19.921 7.63508 19.921 7.20725 19.703C6.83093 19.5112 6.52497 19.2053 6.33322 18.829C6.11523 18.4011 6.11523 17.8411 6.11523 16.721V12.0015C6.11523 10.8814 6.11523 10.3214 6.33322 9.89353C6.52497 9.51721 6.83093 9.21125 7.20725 9.0195C7.48716 8.87688 7.82367 8.82757 8.33659 8.81052M21.9971 17.4375C22.0002 17.227 22.0002 16.9902 22.0002 16.721V12.0015C22.0002 10.8814 22.0002 10.3214 21.7822 9.89353C21.5904 9.51721 21.2845 9.21125 20.9082 9.0195C20.4803 8.80151 19.9203 8.80151 18.8002 8.80151H13.3374M6.11618 15.0995H5.2C4.07989 15.0995 3.51984 15.0995 3.09202 14.8815C2.71569 14.6897 2.40973 14.3838 2.21799 14.0074C2 13.5796 2 13.0196 2 11.8995V7.18C2 6.05989 2 5.49984 2.21799 5.07202C2.40973 4.69569 2.71569 4.38973 3.09202 4.19799M17.8849 8.73215V7.18C17.8849 6.05989 17.8849 5.49984 17.667 5.07202C17.4752 4.69569 17.1692 4.38973 16.7929 4.19799C16.3651 3.98 15.805 3.98 14.6849 3.98H8.7575M19.0867 14.3614H19.0946M9.12186 14.3614H9.12981M15.4876 15.8253C15.1266 16.1669 14.6392 16.3764 14.103 16.3764C12.9901 16.3764 12.0879 15.4742 12.0879 14.3613C12.0879 13.8694 12.2641 13.4187 12.5569 13.0688M1.75 2L21.75 22M19.484 14.3614C19.484 14.5808 19.3061 14.7586 19.0867 14.7586C18.8673 14.7586 18.6895 14.5808 18.6895 14.3614C18.6895 14.142 18.8673 13.9641 19.0867 13.9641C19.3061 13.9641 19.484 14.142 19.484 14.3614ZM9.51911 14.3614C9.51911 14.5808 9.34126 14.7586 9.12186 14.7586C8.90246 14.7586 8.72461 14.5808 8.72461 14.3614C8.72461 14.142 8.90246 13.9641 9.12186 13.9641C9.34126 13.9641 9.51911 14.142 9.51911 14.3614Z" stroke="currentColor" stroke-width="2" stroke-linecap="round" stroke-linejoin="round"/>
</svg>
