<svg width="24" height="24" viewBox="0 0 24 24" fill="none" xmlns="http://www.w3.org/2000/svg">
<path d="M18.332 10.5H18.342M5.78516 13.5H5.79516M10.0122 10.5C9.7037 10.9202 9.52148 11.4388 9.52148 12C9.52148 13.4012 10.6574 14.5371 12.0586 14.5371C12.6474 14.5371 13.1893 14.3365 13.6198 14M22 16.7845V6.01555C22 5.40219 21.6266 4.85126 21.04 4.67219C20.0846 4.3806 18.5423 4 17 4C14.5 4 12 5 12 5M12 5C12 5 11.6166 5.15335 11 5.33995C10.8661 5.38045 10.7213 5.42253 10.567 5.46494M12 5L12.0139 4.99443M12 19C12 19 14.5 18 17 18C17.1669 18 17.3338 18.0045 17.5 18.0128M12 19C11.9586 19.0165 9.47906 20 7 20C5.45768 20 3.91536 19.6194 2.96005 19.3278C2.37341 19.1487 2 18.5978 2 17.9845V7.21555C2 6.15435 3.08577 5.39971 4.1197 5.63874C4.5447 5.73699 5.01184 5.82748 5.5 5.89332M12 19C16.2405 17.3038 18.3608 16.4557 12 19ZM1.75 2L21.75 22M18.832 10.5C18.832 10.7761 18.6082 11 18.332 11C18.0559 11 17.832 10.7761 17.832 10.5C17.832 10.2239 18.0559 10 18.332 10C18.6082 10 18.832 10.2239 18.832 10.5ZM6.28516 13.5C6.28516 13.7761 6.0613 14 5.78516 14C5.50901 14 5.28516 13.7761 5.28516 13.5C5.28516 13.2239 5.50901 13 5.78516 13C6.0613 13 6.28516 13.2239 6.28516 13.5Z" stroke="currentColor" stroke-width="2" stroke-linecap="round" stroke-linejoin="round"/>
</svg>
