<svg width="25" height="24" viewBox="0 0 25 24" fill="none" xmlns="http://www.w3.org/2000/svg">
<path d="M6.62695 16.1163L10.3189 14.8662C10.6972 14.7381 10.8864 14.674 11.0805 14.6357C11.2528 14.6017 11.4278 14.5829 11.6034 14.5795C11.8012 14.5757 11.9996 14.5981 12.3966 14.6429L17.0096 15.1636C17.7995 15.2527 18.3999 15.9154 18.4109 16.7103C18.4223 17.5358 17.7957 18.2306 16.9734 18.3043L14.4445 18.5309M6.62695 20.9901H7.9387C8.32734 20.9901 8.52166 20.9901 8.71259 21.0148C8.88217 21.0366 9.04958 21.0729 9.21298 21.1233C9.39695 21.18 9.5738 21.2605 9.92751 21.4215L10.9938 21.907C11.4699 22.1237 11.7079 22.2321 11.9567 22.2973C12.1776 22.3551 12.4043 22.3875 12.6325 22.394C12.8896 22.4012 13.1485 22.3639 13.6663 22.2894L17.3656 21.757C17.7486 21.7019 17.9401 21.6744 18.1248 21.6231C18.2889 21.5776 18.4488 21.5182 18.6028 21.4456C18.7761 21.3638 18.9392 21.2597 19.2653 21.0514L21.8902 19.3752C22.3492 19.0821 22.627 18.5751 22.627 18.0305C22.627 16.8141 21.3203 16.0451 20.2569 16.6356L17.6623 18.0764M4.62695 22.4003C4.16197 22.4003 3.92947 22.4003 3.73872 22.3492C3.22109 22.2105 2.81677 21.8062 2.67806 21.2885C2.62695 21.0978 2.62695 20.8653 2.62695 20.4003V16.4334C2.62695 15.9684 2.62695 15.7359 2.67806 15.5452C2.81677 15.0275 3.22109 14.6232 3.73872 14.4845C3.92947 14.4334 4.16197 14.4334 4.62695 14.4334C5.09194 14.4334 5.32443 14.4334 5.51518 14.4845C6.03282 14.6232 6.43714 15.0275 6.57584 15.5452C6.62695 15.7359 6.62695 15.9684 6.62695 16.4334V20.4003C6.62695 20.8653 6.62695 21.0978 6.57584 21.2885C6.43714 21.8062 6.03282 22.2105 5.51518 22.3492C5.32443 22.4003 5.09194 22.4003 4.62695 22.4003ZM10.9694 11.6584H18.3671C19.4872 11.6584 20.0473 11.6584 20.4751 11.4404C20.8514 11.2486 21.1574 10.9427 21.3491 10.5664C21.5671 10.1385 21.5671 9.57848 21.5671 8.45838V5.2C21.5671 4.0799 21.5671 3.51984 21.3491 3.09202C21.1574 2.71569 20.8514 2.40973 20.4751 2.21799C20.0473 2 19.4872 2 18.3671 2H10.9694C9.84934 2 9.28928 2 8.86146 2.21799C8.48514 2.40973 8.17918 2.71569 7.98743 3.09202C7.76944 3.51984 7.76944 4.07989 7.76944 5.2V8.45837C7.76944 9.57848 7.76944 10.1385 7.98743 10.5664C8.17918 10.9427 8.48514 11.2486 8.86146 11.4404C9.28928 11.6584 9.84934 11.6584 10.9694 11.6584ZM16.4187 6.82917C16.4187 7.79584 15.635 8.57948 14.6684 8.57948C13.7017 8.57948 12.9181 7.79584 12.9181 6.82917C12.9181 5.8625 13.7017 5.07886 14.6684 5.07886C15.635 5.07886 16.4187 5.8625 16.4187 6.82917Z" stroke="currentColor" stroke-width="2" stroke-linecap="round" stroke-linejoin="round"/>
</svg>
