<svg width="24" height="24" viewBox="0 0 24 24" fill="none" xmlns="http://www.w3.org/2000/svg">
<path d="M6.26169 10.5306V13.4694M17.7715 10.5306V13.4694M13.539 9H12M12 9H11.7285C10.9001 9 10.2285 9.67157 10.2285 10.5C10.2285 11.3284 10.9001 12 11.7285 12H12.2715C13.0999 12 13.7715 12.6716 13.7715 13.5C13.7715 14.3284 13.0999 15 12.2715 15H12M12 9V8M12 15H10.4178M12 15V16M5.2 19H18.8C19.9201 19 20.4802 19 20.908 18.782C21.2843 18.5903 21.5903 18.2843 21.782 17.908C22 17.4802 22 16.9201 22 15.8V8.2C22 7.0799 22 6.51984 21.782 6.09202C21.5903 5.71569 21.2843 5.40973 20.908 5.21799C20.4802 5 19.9201 5 18.8 5H5.2C4.07989 5 3.51984 5 3.09202 5.21799C2.71569 5.40973 2.40973 5.71569 2.21799 6.09202C2 6.51984 2 7.07989 2 8.2V15.8C2 16.9201 2 17.4802 2.21799 17.908C2.40973 18.2843 2.71569 18.5903 3.09202 18.782C3.51984 19 4.0799 19 5.2 19Z" stroke="currentColor" stroke-width="2" stroke-linecap="round" stroke-linejoin="round"/>
</svg>
