<svg width="24" height="24" viewBox="0 0 24 24" fill="none" xmlns="http://www.w3.org/2000/svg">
<path d="M6.26169 10.5306V13.4694M17.7715 10.5306V13.4694M13.539 9H13C12.4477 9 12 8.55228 12 8M12 15H12.2715C12.7334 15 13.1466 14.7912 13.4218 14.4628M12 15H10.4178M12 15V16M10.2285 10.5C10.2285 11.3284 10.9001 12 11.7285 12M1.75 2L21.75 22M4.44916 5.00355C3.80445 5.01401 3.41139 5.05526 3.09202 5.21799C2.71569 5.40973 2.40973 5.71569 2.21799 6.09202C2 6.51984 2 7.0799 2 8.2V15.8C2 16.9201 2 17.4802 2.21799 17.908C2.40973 18.2843 2.71569 18.5903 3.09202 18.782C3.51984 19 4.0799 19 5.2 19H18.5397M21.9986 16.3661C22 16.1947 22 16.0069 22 15.8V8.2C22 7.07989 22 6.51984 21.782 6.09202C21.5903 5.71569 21.2843 5.40973 20.908 5.21799C20.4802 5 19.9201 5 18.8 5H10.0246" stroke="currentColor" stroke-width="2" stroke-linecap="round" stroke-linejoin="round"/>
</svg>
