<svg width="24" height="24" viewBox="0 0 24 24" fill="none" xmlns="http://www.w3.org/2000/svg">
<path d="M22.9457 10.9012C22.8912 10.3516 22.4014 9.95033 21.8518 10.0049C21.3022 10.0595 20.901 10.5492 20.9555 11.0988L22.9457 10.9012ZM13.8011 3.18005C14.3423 3.28992 14.8701 2.94021 14.98 2.39897C15.0899 1.85772 14.7402 1.32989 14.1989 1.22002L13.8011 3.18005ZM9 11.5C9 10.9477 8.55228 10.5 8 10.5C7.44772 10.5 7 10.9477 7 11.5H9ZM7 16.5C7 17.0523 7.44772 17.5 8 17.5C8.55228 17.5 9 17.0523 9 16.5H7ZM13 7.5C13 6.94772 12.5523 6.5 12 6.5C11.4477 6.5 11 6.94772 11 7.5H13ZM11 16.5C11 17.0523 11.4477 17.5 12 17.5C12.5523 17.5 13 17.0523 13 16.5H11ZM17 13.5C17 12.9477 16.5523 12.5 16 12.5C15.4477 12.5 15 12.9477 15 13.5H17ZM15 16.5C15 17.0523 15.4477 17.5 16 17.5C16.5523 17.5 17 17.0523 17 16.5H15ZM20.5561 2C20.5561 1.44772 20.1084 1 19.5561 1C19.0038 1 18.5561 1.44772 18.5561 2H20.5561ZM18.5561 7.11218C18.5561 7.66447 19.0038 8.11218 19.5561 8.11218C20.1084 8.11218 20.5561 7.66447 20.5561 7.11218H18.5561ZM22.1122 5.55609C22.6645 5.55609 23.1122 5.10838 23.1122 4.55609C23.1122 4.00381 22.6645 3.55609 22.1122 3.55609V5.55609ZM17 3.55609C16.4477 3.55609 16 4.00381 16 4.55609C16 5.10838 16.4477 5.55609 17 5.55609V3.55609ZM21 12C21 16.9706 16.9706 21 12 21V23C18.0751 23 23 18.0751 23 12H21ZM12 21C7.02944 21 3 16.9706 3 12H1C1 18.0751 5.92487 23 12 23V21ZM3 12C3 7.02944 7.02944 3 12 3V1C5.92487 1 1 5.92487 1 12H3ZM20.9555 11.0988C20.9849 11.3949 21 11.6955 21 12H23C23 11.6295 22.9816 11.2629 22.9457 10.9012L20.9555 11.0988ZM12 3C12.6177 3 13.22 3.06209 13.8011 3.18005L14.1989 1.22002C13.4876 1.07563 12.7521 1 12 1V3ZM7 11.5V16.5H9V11.5H7ZM11 7.5V16.5H13V7.5H11ZM15 13.5V16.5H17V13.5H15ZM18.5561 2V4.55609H20.5561V2H18.5561ZM18.5561 4.55609V7.11218H20.5561V4.55609H18.5561ZM22.1122 3.55609H19.5561V5.55609H22.1122V3.55609ZM19.5561 3.55609H17V5.55609H19.5561V3.55609Z" fill="currentColor"/>
</svg>
