<svg width="24" height="24" viewBox="0 0 24 24" fill="none" xmlns="http://www.w3.org/2000/svg">
<path d="M8 11.5V16.5M12 7.49995V16.5M16 13.5V16.5M19.6233 7.70405V2.0315M19.6233 2.0315V2M19.6233 2.0315C19.6407 2.0315 19.6581 2.03893 19.6713 2.05378L22 4.66189M19.6233 2.0315C19.6059 2.0315 19.5886 2.03893 19.5753 2.05378L17.2466 4.66189M21 12.5V16.2C21 17.8801 21 18.7202 20.673 19.3619C20.3854 19.9264 19.9265 20.3853 19.362 20.673C18.7202 21 17.8802 21 16.2 21H7.8C6.11984 21 5.27976 21 4.63803 20.673C4.07354 20.3853 3.6146 19.9264 3.32698 19.3619C3 18.7202 3 17.8801 3 16.2V7.79995C3 6.11979 3 5.27971 3.32698 4.63798C3.6146 4.07349 4.07354 3.61455 4.63803 3.32693C5.27976 2.99995 6.11984 2.99995 7.8 2.99995H13" stroke="currentColor" stroke-width="2" stroke-linecap="round"/>
</svg>
