<svg width="24" height="24" viewBox="0 0 24 24" fill="none" xmlns="http://www.w3.org/2000/svg">
<path d="M22.9457 10.9012C22.8912 10.3516 22.4014 9.95033 21.8518 10.0049C21.3022 10.0595 20.901 10.5492 20.9555 11.0988L22.9457 10.9012ZM13.8011 3.18005C14.3423 3.28992 14.8701 2.94021 14.98 2.39897C15.0899 1.85772 14.7402 1.32989 14.1989 1.22002L13.8011 3.18005ZM9 11.5C9 10.9477 8.55228 10.5 8 10.5C7.44772 10.5 7 10.9477 7 11.5H9ZM7 16.5C7 17.0523 7.44772 17.5 8 17.5C8.55228 17.5 9 17.0523 9 16.5H7ZM13 7.5C13 6.94772 12.5523 6.5 12 6.5C11.4477 6.5 11 6.94772 11 7.5H13ZM11 16.5C11 17.0523 11.4477 17.5 12 17.5C12.5523 17.5 13 17.0523 13 16.5H11ZM17 13.5C17 12.9477 16.5523 12.5 16 12.5C15.4477 12.5 15 12.9477 15 13.5H17ZM15 16.5C15 17.0523 15.4477 17.5 16 17.5C16.5523 17.5 17 17.0523 17 16.5H15ZM20.6233 2.00005C20.6233 1.44777 20.1756 1.00005 19.6233 1.00005C19.071 1.00005 18.6233 1.44776 18.6233 2.00005L20.6233 2.00005ZM18.6233 7.7041C18.6233 8.25639 19.071 8.7041 19.6233 8.7041C20.1756 8.7041 20.6233 8.25639 20.6233 7.7041H18.6233ZM17.9926 4.37619C17.6247 3.96422 16.9926 3.92844 16.5806 4.29627C16.1686 4.6641 16.1329 5.29626 16.5007 5.70823L17.9926 4.37619ZM19.5753 7.65032L20.3212 6.98431L20.3212 6.98431L19.5753 7.65032ZM19.6713 7.65032L20.4173 8.31634L20.4173 8.31634L19.6713 7.65032ZM22.7459 5.70823C23.1138 5.29626 23.078 4.6641 22.666 4.29627C22.254 3.92844 21.6219 3.96423 21.2541 4.3762L22.7459 5.70823ZM21 12C21 16.9706 16.9706 21 12 21V23C18.0751 23 23 18.0751 23 12H21ZM12 21C7.02944 21 3 16.9706 3 12H1C1 18.0751 5.92487 23 12 23V21ZM3 12C3 7.02944 7.02944 3 12 3V1C5.92487 1 1 5.92487 1 12H3ZM20.9555 11.0988C20.9849 11.3949 21 11.6955 21 12H23C23 11.6295 22.9816 11.2629 22.9457 10.9012L20.9555 11.0988ZM12 3C12.6177 3 13.22 3.06209 13.8011 3.18005L14.1989 1.22002C13.4876 1.07563 12.7521 1 12 1V3ZM7 11.5V16.5H9V11.5H7ZM11 7.5V16.5H13V7.5H11ZM15 13.5V16.5H17V13.5H15ZM18.6233 2.00005L18.6233 7.6726L20.6233 7.6726L20.6233 2.00005L18.6233 2.00005ZM18.6233 7.6726V7.7041H20.6233V7.6726H18.6233ZM16.5007 5.70823L18.8294 8.31634L20.3212 6.98431L17.9926 4.37619L16.5007 5.70823ZM20.4173 8.31634L22.7459 5.70823L21.2541 4.3762L18.9254 6.98431L20.4173 8.31634ZM18.8294 8.31634C19.0271 8.53781 19.3133 8.67261 19.6233 8.6726L19.6233 6.6726C19.8986 6.67259 20.15 6.79254 20.3212 6.98431L18.8294 8.31634ZM19.6233 8.6726C19.9334 8.6726 20.2195 8.5378 20.4173 8.31634L18.9254 6.9843C19.0966 6.79255 19.348 6.6726 19.6233 6.6726V8.6726Z" fill="currentColor"/>
</svg>
