<svg width="24" height="24" viewBox="0 0 24 24" fill="none" xmlns="http://www.w3.org/2000/svg">
<path d="M3 21L21 21M6.52183 5.29693L4.34202 8.92997C4.21471 9.14214 4.15106 9.24822 4.10605 9.36147C4.0661 9.46201 4.03713 9.56658 4.01967 9.67335C4 9.79361 4 9.91732 4 10.1648L4 18.6C4 19.4401 4 19.8601 4.16349 20.181C4.3073 20.4632 4.53677 20.6927 4.81901 20.8365C5.13988 21 5.55992 21 6.4 21H17.6C18.4401 21 18.8601 21 19.181 20.8365C19.4632 20.6927 19.6927 20.4632 19.8365 20.181C20 19.8601 20 19.4401 20 18.6L20 10.1648C20 9.91732 20 9.79361 19.9803 9.67335C19.9629 9.56658 19.9339 9.46201 19.8939 9.36147C19.8489 9.24822 19.7853 9.14214 19.658 8.92997L17.4782 5.29693C17.3014 5.00226 17.213 4.85493 17.0977 4.73417C16.9955 4.62707 16.878 4.53569 16.749 4.46301C16.6035 4.38105 16.439 4.33168 16.1098 4.23294L12.6896 3.20688C12.4333 3.12997 12.3051 3.09152 12.1745 3.07622C12.0586 3.06265 11.9414 3.06265 11.8255 3.07622C11.6949 3.09152 11.5667 3.12997 11.3104 3.20688L7.89018 4.23294C7.56104 4.33168 7.39646 4.38105 7.25102 4.46301C7.12204 4.53569 7.00452 4.62707 6.9023 4.73417C6.78704 4.85493 6.69864 5.00226 6.52183 5.29693ZM14.4004 21V17.1889C14.4004 16.3489 14.4004 15.9288 14.2369 15.6079C14.0931 15.3257 13.8636 15.0962 13.5814 14.9524C13.2605 14.7889 12.8403 14.7889 12 14.7889C11.1597 14.7889 10.7395 14.7889 10.4186 14.9524C10.1364 15.0962 9.90691 15.3257 9.7631 15.6079C9.59961 15.9288 9.59961 16.3489 9.59961 17.1889L9.59961 21H14.4004ZM14 8.99999C14 10.1046 13.1046 11 12 11C10.8954 11 10 10.1046 10 8.99999C10 7.89542 10.8954 6.99999 12 6.99999C13.1046 6.99999 14 7.89542 14 8.99999Z" stroke="currentColor" stroke-width="2" stroke-linecap="round" stroke-linejoin="round"/>
</svg>
