<svg width="24" height="24" viewBox="0 0 24 24" fill="none" xmlns="http://www.w3.org/2000/svg">
<path d="M10 2H14M10 17.5H14M18 17.2V9.8C18 8.11984 18 7.27976 17.673 6.63803C17.3854 6.07354 16.9265 5.6146 16.362 5.32698C15.7202 5 14.8802 5 13.2 5H10.8C9.11984 5 8.27976 5 7.63803 5.32698C7.07354 5.6146 6.6146 6.07354 6.32698 6.63803C6 7.27976 6 8.11984 6 9.8L6 17.2C6 18.8802 6 19.7202 6.32698 20.362C6.6146 20.9265 7.07354 21.3854 7.63803 21.673C8.27976 22 9.11984 22 10.8 22H13.2C14.8802 22 15.7202 22 16.362 21.673C16.9265 21.3854 17.3854 20.9265 17.673 20.362C18 19.7202 18 18.8802 18 17.2Z" stroke="currentColor" stroke-width="2" stroke-linecap="round" stroke-linejoin="round"/>
</svg>
