<svg width="24" height="24" viewBox="0 0 24 24" fill="none" xmlns="http://www.w3.org/2000/svg">
<path d="M6.5 6H6C5.07003 6 4.60504 6 4.22354 6.10222C3.18827 6.37962 2.37962 7.18827 2.10222 8.22354C2 8.60504 2 9.07003 2 10V14C2 14.93 2 15.395 2.10222 15.7765C2.37962 16.8117 3.18827 17.6204 4.22354 17.8978C4.60504 18 5.07003 18 6 18H6.5M14.5 18H15C15.93 18 16.395 18 16.7765 17.8978C17.8117 17.6204 18.6204 16.8117 18.8978 15.7765C19 15.395 19 14.93 19 14V10C19 9.07003 19 8.60504 18.8978 8.22354C18.6204 7.18827 17.8117 6.37962 16.7765 6.10222C16.395 6 15.93 6 15 6H14.5M22 10V14M10.5 7L8 12H13L10.5 17" stroke="currentColor" stroke-width="2" stroke-linecap="round" stroke-linejoin="round"/>
</svg>
