<svg width="24" height="24" viewBox="0 0 24 24" fill="none" xmlns="http://www.w3.org/2000/svg">
<path d="M10 2L14 2M12 9L10 13.5H14L12 18M10.8 5L14 5C14.93 5 15.395 5 15.7765 5.10222C16.8117 5.37962 17.6204 6.18827 17.8978 7.22354C18 7.60504 18 8.07003 18 9V17.2C18 18.8802 18 19.7202 17.673 20.362C17.3854 20.9265 16.9265 21.3854 16.362 21.673C15.7202 22 14.8802 22 13.2 22H10.5C9.10218 22 8.40326 22 7.85195 21.7716C7.11687 21.4672 6.53284 20.8831 6.22836 20.1481C6 19.5967 6 18.8978 6 17.5L6 9.8C6 8.11984 6 7.27976 6.32698 6.63803C6.6146 6.07354 7.07354 5.6146 7.63803 5.32698C8.27976 5 9.11984 5 10.8 5Z" stroke="currentColor" stroke-width="2" stroke-linecap="round" stroke-linejoin="round"/>
</svg>
