<svg width="24" height="24" viewBox="0 0 24 24" fill="none" xmlns="http://www.w3.org/2000/svg">
<path d="M9.47902 21.5059H14.4838M3.07648 3L21.0765 21M20.4832 15.0412C19.5693 14.1273 18.9705 12.9458 18.774 11.6684L18.3309 8.78809C18.1619 7.68929 17.868 6.61337 17.4552 5.58116C16.6225 3.49951 14.6064 2.13452 12.3644 2.13452H11.7886C10.5865 2.13452 9.44925 2.52697 8.52459 3.21193M17.6713 17.6345H4.74406C3.39064 17.6345 2.71285 15.9982 3.66986 15.0412C4.58376 14.1273 5.18247 12.9458 5.37899 11.6684L5.82211 8.78809C5.93706 8.04091 6.1097 7.30431 6.33824 6.58484" stroke="currentColor" stroke-width="2" stroke-linecap="round" stroke-linejoin="round"/>
</svg>
