<svg width="24" height="24" viewBox="0 0 24 24" fill="none" xmlns="http://www.w3.org/2000/svg">
<path d="M18.9737 12.4021C19.2641 13.3431 19.7805 14.204 20.4831 14.9066C21.4401 15.8637 20.7623 17.5 19.4089 17.5H4.74403C3.39061 17.5 2.71281 15.8637 3.66983 14.9066C4.58373 13.9927 5.18244 12.8113 5.37896 11.5338L5.82208 8.65356C5.99112 7.55477 6.28494 6.47885 6.69782 5.44664C7.53048 3.36499 9.54661 2 11.7886 2H12.3643C13.1877 2 13.9806 2.1841 14.6957 2.5202M14.5616 21.218C14.2415 21.4101 13.4147 22 12 22C10.5852 22 9.74576 21.4116 9.43834 21.218M17.7072 3.50224C17.8834 3.00136 18.2312 2.57901 18.689 2.30998C19.1467 2.04095 19.6849 1.9426 20.2082 2.03237C20.7316 2.12213 21.2062 2.39421 21.5482 2.80041C21.8901 3.20661 22.0773 3.72072 22.0765 4.25168C22.0765 6 19.8281 6.5 19.8281 6.5M19.8573 9.5H19.8673" stroke="currentColor" stroke-width="2" stroke-linecap="round" stroke-linejoin="round"/>
</svg>
