<svg width="24" height="24" viewBox="0 0 24 24" fill="none" xmlns="http://www.w3.org/2000/svg">
<path d="M18.7186 11.1738L18.774 11.5338C18.9705 12.8113 19.5692 13.9927 20.4831 14.9066C21.4401 15.8637 20.7623 17.5 19.4089 17.5H4.74403C3.39061 17.5 2.71281 15.8637 3.66983 14.9066C4.58373 13.9927 5.18244 12.8113 5.37896 11.5338L5.82208 8.65356C5.99112 7.55477 6.28494 6.47885 6.69782 5.44664C7.53048 3.36499 9.54661 2 11.7886 2H12.3643C12.9567 2 13.5333 2.09529 14.0764 2.2739M14.5616 21.218C14.2415 21.4101 13.4147 22 12 22C10.5852 22 9.74576 21.4116 9.43834 21.218M19.0765 2V5M19.0765 5V8M19.0765 5H16.0765M19.0765 5H22.0765" stroke="currentColor" stroke-width="2" stroke-linecap="round" stroke-linejoin="round"/>
</svg>
