<svg width="25" height="24" viewBox="0 0 25 24" fill="none" xmlns="http://www.w3.org/2000/svg">
<path d="M9.78378 21.5059H14.7885M19.626 2C20.4609 3.0296 21.0542 4.26466 21.322 5.62182M5.03291 2C4.19804 3.0296 3.60467 4.26466 3.33691 5.62182M12.0934 2.49414H12.6691C14.9111 2.49414 16.9272 3.85913 17.7599 5.94078C18.1728 6.97299 18.4666 8.04891 18.6356 9.14771L19.0788 12.028C19.2753 13.3054 19.874 14.4869 20.7879 15.4008C21.7449 16.3578 21.0671 17.9941 19.7137 17.9941H5.04879C3.69537 17.9941 3.01758 16.3578 3.97459 15.4008C4.88849 14.4869 5.4872 13.3054 5.68373 12.028L6.12684 9.1477C6.29589 8.04891 6.5897 6.97299 7.00258 5.94078C7.83524 3.85913 9.85137 2.49414 12.0934 2.49414Z" stroke="currentColor" stroke-width="2" stroke-linecap="round" stroke-linejoin="round"/>
</svg>
