<svg width="24" height="24" viewBox="0 0 24 24" fill="none" xmlns="http://www.w3.org/2000/svg">
<path d="M14.9797 17.9814C14.9797 19.6271 13.6457 20.9612 12 20.9612C10.3543 20.9612 9.02026 19.6271 9.02026 17.9814M11.7886 2.13452H12.3643C14.6063 2.13452 16.6225 3.49951 17.4551 5.58116C17.868 6.61337 18.1618 7.68929 18.3309 8.78809L18.774 11.6684C18.9705 12.9458 19.5692 14.1273 20.4831 15.0412C21.4401 15.9982 20.7623 17.6345 19.4089 17.6345H4.74403C3.39061 17.6345 2.71281 15.9982 3.66983 15.0412C4.58373 14.1273 5.18244 12.9458 5.37896 11.6684L5.82208 8.78809C5.99112 7.68929 6.28494 6.61337 6.69782 5.58116C7.53048 3.49951 9.54661 2.13452 11.7886 2.13452Z" stroke="currentColor" stroke-width="2" stroke-linecap="round" stroke-linejoin="round"/>
</svg>
