<svg width="25" height="24" viewBox="0 0 25 24" fill="none" xmlns="http://www.w3.org/2000/svg">
<path d="M9.78377 21.5059H14.7885M12.0934 2.49414H12.6691C14.9111 2.49414 16.9272 3.85913 17.7599 5.94078C18.1728 6.97299 18.4666 8.04891 18.6356 9.14771L19.0787 12.028C19.2753 13.3054 19.874 14.4869 20.7879 15.4008C21.7449 16.3578 21.0671 17.9941 19.7137 17.9941H5.04878C3.69536 17.9941 3.01756 16.3578 3.97458 15.4008C4.88848 14.4869 5.48718 13.3054 5.68371 12.028L6.12683 9.1477C6.29587 8.04891 6.58968 6.97299 7.00257 5.94078C7.83523 3.85913 9.85136 2.49414 12.0934 2.49414Z" stroke="currentColor" stroke-width="2" stroke-linecap="round" stroke-linejoin="round"/>
</svg>
