<svg width="24" height="24" viewBox="0 0 24 24" fill="none" xmlns="http://www.w3.org/2000/svg">
<path d="M15.1693 18.1072C15.3638 19.7414 14.1968 21.2238 12.5626 21.4182C10.9285 21.6127 9.44612 20.4457 9.25164 18.8115M17.2171 1.76929C18.1678 2.69301 18.903 3.84929 19.3292 5.1653M3.56926 3.39355C2.86192 4.5146 2.41866 5.81113 2.31317 7.19043M10.1278 2.74822L10.6995 2.68019C12.9258 2.41523 15.0891 3.53239 16.1619 5.50106C16.6939 6.47723 17.1128 7.5109 17.4105 8.58202L18.1909 11.3897C18.537 12.635 19.2711 13.7374 20.2866 14.5369C21.35 15.3741 20.8704 17.0791 19.5264 17.2391L4.96432 18.9721C3.62039 19.1321 2.75396 17.5873 3.59117 16.5239C4.39066 15.5084 4.84555 14.2644 4.88974 12.9727L4.98937 10.0603C5.02737 8.94921 5.19197 7.8461 5.47998 6.77233C6.0608 4.60686 7.90149 3.01318 10.1278 2.74822Z" stroke="currentColor" stroke-width="2" stroke-linecap="round" stroke-linejoin="round"/>
</svg>
