<svg width="24" height="24" viewBox="0 0 24 24" fill="none" xmlns="http://www.w3.org/2000/svg">
<path d="M10.2537 22.0288L15.187 21.1866M15.8524 1.28491C16.9096 2.0846 17.7814 3.14161 18.3664 4.39515M3.13682 3.45557C2.40483 4.56069 1.93299 5.84708 1.797 7.22371M9.33109 2.89953L9.89859 2.80265C12.1086 2.42537 14.3257 3.43162 15.4968 5.34347C16.0775 6.29148 16.5482 7.30262 16.8997 8.3573L17.8212 11.1219C18.2299 12.3481 19.0189 13.412 20.0735 14.159C21.1779 14.9414 20.7851 16.6684 19.451 16.8962L4.99527 19.3639C3.66115 19.5917 2.71766 18.0927 3.49998 16.9883C4.24706 15.9337 4.63841 14.6683 4.61717 13.376L4.56929 10.4622C4.55102 9.35068 4.65958 8.24065 4.89288 7.15369C5.36337 4.96161 7.12106 3.27681 9.33109 2.89953Z" stroke="currentColor" stroke-width="2" stroke-linecap="round" stroke-linejoin="round"/>
</svg>
