<svg width="24" height="24" viewBox="0 0 24 24" fill="none" xmlns="http://www.w3.org/2000/svg">
<path d="M17.2261 1.9455C18.1871 2.85855 18.9351 4.00655 19.376 5.31772M3.56673 3.47187C2.83104 4.57453 2.35488 5.85933 2.21426 7.23549M14.9861 20.8794C14.6893 21.1059 13.9332 21.7839 12.5272 21.9411C11.1212 22.0982 10.2215 21.6066 9.89453 21.4484M10.1663 2.71844L10.7385 2.6545C12.9666 2.4055 15.1219 3.53814 16.1806 5.51444C16.7056 6.4944 17.117 7.53105 17.4071 8.60427L18.1673 11.4175C18.5045 12.6652 19.2307 13.7729 20.2405 14.5796C21.2978 15.4244 20.806 17.1259 19.4609 17.2762L4.88675 18.9049C3.54171 19.0552 2.68637 17.5043 3.53118 16.4469C4.33793 15.4372 4.80172 14.1965 4.85516 12.9051L4.97566 9.99348C5.02163 8.88271 5.19413 7.78081 5.48982 6.70914C6.08614 4.54789 7.93821 2.96743 10.1663 2.71844Z" stroke="currentColor" stroke-width="2" stroke-linecap="round" stroke-linejoin="round"/>
</svg>
