<svg width="25" height="24" viewBox="0 0 25 24" fill="none" xmlns="http://www.w3.org/2000/svg">
<path d="M14.8664 21.218C14.5462 21.4101 13.7195 22 12.3047 22C10.89 22 10.0505 21.4116 9.74309 21.218M12.0934 2H12.6691C14.9111 2 16.9272 3.36499 17.7599 5.44664C18.1728 6.47885 18.4666 7.55477 18.6356 8.65356L19.0787 11.5338C19.2753 12.8113 19.874 13.9927 20.7879 14.9066C21.7449 15.8637 21.0671 17.5 19.7137 17.5H5.04878C3.69536 17.5 3.01756 15.8637 3.97458 14.9066C4.88848 13.9927 5.48718 12.8113 5.68371 11.5338L6.12683 8.65356C6.29587 7.55477 6.58968 6.47885 7.00257 5.44664C7.83523 3.36499 9.85136 2 12.0934 2Z" stroke="currentColor" stroke-width="2" stroke-linecap="round" stroke-linejoin="round"/>
</svg>
