<svg width="24" height="24" viewBox="0 0 24 24" fill="none" xmlns="http://www.w3.org/2000/svg">
<path d="M14.9797 17.9814C14.9797 19.6271 13.6457 20.9612 12 20.9612C10.3543 20.9612 9.02026 19.6271 9.02026 17.9814M3.07648 2.99998L21.0765 21M20.4831 15.0412C19.5692 14.1273 18.9705 12.9458 18.774 11.6684L18.3309 8.78809C18.1618 7.68929 17.868 6.61337 17.4551 5.58116C16.6225 3.49951 14.6063 2.13452 12.3643 2.13452H11.7886C10.5865 2.13452 9.44922 2.52697 8.52456 3.21193M17.6713 17.6345H4.74403C3.39061 17.6345 2.71282 15.9982 3.66983 15.0412C4.58373 14.1273 5.18244 12.9458 5.37896 11.6684L5.82208 8.78809C5.93703 8.04091 6.10967 7.30431 6.33822 6.58484" stroke="currentColor" stroke-width="2" stroke-linecap="round" stroke-linejoin="round"/>
</svg>
