<svg width="24" height="24" viewBox="0 0 24 24" fill="none" xmlns="http://www.w3.org/2000/svg">
<path d="M4 14C3.53501 14 3.30252 14 3.11177 13.9489C2.59413 13.8102 2.18981 13.4059 2.05111 12.8882C2 12.6975 2 12.465 2 12C2 11.535 2 11.3025 2.05111 11.1118C2.18981 10.5941 2.59413 10.1898 3.11177 10.0511C3.30252 10 3.53501 10 4 10M4 14C4.46499 14 4.69748 14 4.88823 13.9489C5.40587 13.8102 5.81019 13.4059 5.94889 12.8882C6 12.6975 6 12.465 6 12C6 11.535 6 11.3025 5.94889 11.1118C5.81019 10.5941 5.40587 10.1898 4.88823 10.0511C4.69748 10 4.46499 10 4 10M4 14V14C4.00024 14.0808 4.01107 14.1615 4.03391 14.239C4.82479 16.9242 6.98644 19.022 9.70898 19.7228L10.0002 19.795M4 10L4.01924 9.85951C4.02871 9.79037 4.03345 9.75581 4.04102 9.71635C4.04687 9.6859 4.05695 9.64192 4.06495 9.61196C4.07532 9.57315 4.08361 9.5477 4.10017 9.49682C4.9305 6.94552 7.00833 4.95723 9.61355 4.25204L10.0001 4.17576M19.7086 9.85302C18.9509 7.12655 16.7855 4.98607 14.0445 4.26363L13.9996 4.24219M10.0001 4.17576C10 4.12109 10 4.06265 10 4C10 3.53501 10 3.30252 10.0511 3.11177C10.1898 2.59413 10.5941 2.18981 11.1118 2.05111C11.3025 2 11.535 2 12 2C12.465 2 12.6975 2 12.8882 2.05111C13.4059 2.18981 13.8102 2.59413 13.9489 3.11177C14 3.30252 14 3.53501 14 4C14 4.08876 14 4.16904 13.9996 4.24219M10.0001 4.17576C10.0009 4.52688 10.0069 4.72318 10.0511 4.88823C10.1898 5.40587 10.5941 5.81019 11.1118 5.94889C11.3025 6 11.535 6 12 6C12.465 6 12.6975 6 12.8882 5.94889C13.4059 5.81019 13.8102 5.40587 13.9489 4.88823C13.9902 4.73389 13.9981 4.55222 13.9996 4.24219M10.0002 19.795C10 19.8579 10 19.926 10 20C10 20.465 10 20.6975 10.0511 20.8882C10.1898 21.4059 10.5941 21.8102 11.1118 21.9489C11.3025 22 11.535 22 12 22C12.465 22 12.6975 22 12.8882 21.9489C13.4059 21.8102 13.8102 21.4059 13.9489 20.8882C14 20.6975 14 20.465 14 20C14 19.9081 14 19.8252 13.9996 19.75M10.0002 19.795C10.0013 19.4621 10.0081 19.2722 10.0511 19.1118C10.1898 18.5941 10.5941 18.1898 11.1118 18.0511C11.3025 18 11.535 18 12 18C12.465 18 12.6975 18 12.8882 18.0511C13.4059 18.1898 13.8102 18.5941 13.9489 19.1118C13.9899 19.2648 13.998 19.4447 13.9996 19.75M13.9996 19.75L14.0954 19.7228C16.7609 19.0013 18.8744 16.9366 19.6644 14.3L19.7219 13.9994M19.7219 13.9994C19.8045 14 19.8965 14 20 14C20.465 14 20.6975 14 20.8882 13.9489C21.4059 13.8102 21.8102 13.4059 21.9489 12.8882C22 12.6975 22 12.465 22 12C22 11.535 22 11.3025 21.9489 11.1118C21.8102 10.5941 21.4059 10.1898 20.8882 10.0511C20.6975 10 20.465 10 20 10C19.535 10 19.3025 10 19.1118 10.0511C18.5941 10.1898 18.1898 10.5941 18.0511 11.1118C18 11.3025 18 11.535 18 12C18 12.465 18 12.6975 18.0511 12.8882C18.1898 13.4059 18.5941 13.8102 19.1118 13.9489C19.2601 13.9886 19.4336 13.9975 19.7219 13.9994Z" stroke="currentColor" stroke-width="2" stroke-linecap="round" stroke-linejoin="round"/>
</svg>
