<svg width="24" height="24" viewBox="0 0 24 24" fill="none" xmlns="http://www.w3.org/2000/svg">
<path d="M7 19C7 19.465 7 19.6975 6.94889 19.8882C6.81019 20.4059 6.40587 20.8102 5.88823 20.9489C5.69748 21 5.46499 21 5 21C4.53501 21 4.30252 21 4.11177 20.9489C3.59413 20.8102 3.18981 20.4059 3.05111 19.8882C3 19.6975 3 19.465 3 19C3 18.535 3 18.3025 3.05111 18.1118C3.18981 17.5941 3.59413 17.1898 4.11177 17.0511C4.30252 17 4.53501 17 5 17M7 19C7 18.535 7 18.3025 6.94889 18.1118C6.81019 17.5941 6.40587 17.1898 5.88823 17.0511C5.69748 17 5.46499 17 5 17M7 19H17M5 17L10.5 7L10.6389 6.72823M17 19C17 19.465 17 19.6975 17.0511 19.8882C17.1898 20.4059 17.5941 20.8102 18.1118 20.9489C18.3025 21 18.535 21 19 21C19.465 21 19.6975 21 19.8882 20.9489C20.4059 20.8102 20.8102 20.4059 20.9489 19.8882C21 19.6975 21 19.465 21 19C21 18.535 21 18.3025 20.9489 18.1118C20.8102 17.5941 20.4059 17.1898 19.8882 17.0511C19.6975 17 19.465 17 19 17M17 19C17 18.535 17 18.3025 17.0511 18.1118C17.1898 17.5941 17.5941 17.1898 18.1118 17.0511C18.3025 17 18.535 17 19 17M19 17L13.5 7L13.3611 6.72823M13.3611 6.72823C13.6452 6.52898 13.8563 6.23386 13.9489 5.88823C14 5.69748 14 5.46499 14 5C14 4.53501 14 4.30252 13.9489 4.11177C13.8102 3.59413 13.4059 3.18981 12.8882 3.05111C12.6975 3 12.465 3 12 3C11.535 3 11.3025 3 11.1118 3.05111C10.5941 3.18981 10.1898 3.59413 10.0511 4.11177C10 4.30252 10 4.53501 10 5C10 5.46499 10 5.69748 10.0511 5.88823C10.1437 6.23386 10.3548 6.52898 10.6389 6.72823M13.3611 6.72823C13.2197 6.82738 13.0602 6.9028 12.8882 6.94889C12.6975 7 12.465 7 12 7C11.535 7 11.3025 7 11.1118 6.94889C10.9398 6.9028 10.7803 6.82738 10.6389 6.72823" stroke="currentColor" stroke-width="2" stroke-linecap="round" stroke-linejoin="round"/>
</svg>
