<svg width="24" height="24" viewBox="0 0 24 24" fill="none" xmlns="http://www.w3.org/2000/svg">
<path d="M4 15C4.46499 15 4.69748 15 4.88823 15.0511C5.40587 15.1898 5.81019 15.5941 5.94889 16.1118C6 16.3025 6 16.535 6 17C6 17.465 6 17.6975 5.94889 17.8882C5.81019 18.4059 5.40587 18.8102 4.88823 18.9489C4.69748 19 4.46499 19 4 19C3.53501 19 3.30252 19 3.11177 18.9489C2.59413 18.8102 2.18981 18.4059 2.05111 17.8882C2 17.6975 2 17.465 2 17C2 16.535 2 16.3025 2.05111 16.1118C2.18981 15.5941 2.59413 15.1898 3.11177 15.0511C3.30252 15 3.53501 15 4 15ZM4 15C4 11.2723 6.54955 8.14012 10 7.25204M20 15C20.465 15 20.6975 15 20.8882 15.0511C21.4059 15.1898 21.8102 15.5941 21.9489 16.1118C22 16.3025 22 16.535 22 17C22 17.465 22 17.6975 21.9489 17.8882C21.8102 18.4059 21.4059 18.8102 20.8882 18.9489C20.6975 19 20.465 19 20 19C19.535 19 19.3025 19 19.1118 18.9489C18.5941 18.8102 18.1898 18.4059 18.0511 17.8882C18 17.6975 18 17.465 18 17C18 16.535 18 16.3025 18.0511 16.1118C18.1898 15.5941 18.5941 15.1898 19.1118 15.0511C19.3025 15 19.535 15 20 15ZM20 15C20 11.2723 17.4505 8.14012 14 7.25204M10 7C10 7.46499 10 7.69748 10.0511 7.88823C10.1898 8.40587 10.5941 8.81019 11.1118 8.94889C11.3025 9 11.535 9 12 9C12.465 9 12.6975 9 12.8882 8.94889C13.4059 8.81019 13.8102 8.40587 13.9489 7.88823C14 7.69748 14 7.46499 14 7M10 7C10 6.53501 10 6.30252 10.0511 6.11177C10.1898 5.59413 10.5941 5.18981 11.1118 5.05111C11.3025 5 11.535 5 12 5C12.465 5 12.6975 5 12.8882 5.05111C13.4059 5.18981 13.8102 5.59413 13.9489 6.11177C14 6.30252 14 6.53501 14 7M10 7H3.6289M14 7H20.3711M21.1755 7.00195H21.1855M2.80445 7.00195H2.81445M22 7.00195C22 7.45176 21.6354 7.81641 21.1855 7.81641C20.7357 7.81641 20.3711 7.45176 20.3711 7.00195C20.3711 6.55214 20.7357 6.1875 21.1855 6.1875C21.6354 6.1875 22 6.55214 22 7.00195ZM3.62891 7.00195C3.62891 7.45176 3.26426 7.81641 2.81445 7.81641C2.36464 7.81641 2 7.45176 2 7.00195C2 6.55214 2.36464 6.1875 2.81445 6.1875C3.26426 6.1875 3.62891 6.55214 3.62891 7.00195Z" stroke="currentColor" stroke-width="2" stroke-linecap="round" stroke-linejoin="round"/>
</svg>
