<svg width="24" height="24" viewBox="0 0 24 24" fill="none" xmlns="http://www.w3.org/2000/svg">
<path d="M2 9H5M5 9H8M5 9V15M8 9H12M8 9V3M12 9H16M12 9V15M16 9H19M16 9V3M19 9H22M19 9V15M2 15H5M5 15H8M8 15H12M8 15V21M12 15H16M16 15H19M16 15V21M19 15H22M4.4 21H19.6C20.4401 21 20.8601 21 21.181 20.8365C21.4632 20.6927 21.6927 20.4632 21.8365 20.181C22 19.8601 22 19.4401 22 18.6V5.4C22 4.55992 22 4.13988 21.8365 3.81901C21.6927 3.53677 21.4632 3.3073 21.181 3.16349C20.8601 3 20.4401 3 19.6 3H4.4C3.55992 3 3.13988 3 2.81901 3.16349C2.53677 3.3073 2.3073 3.53677 2.16349 3.81901C2 4.13988 2 4.55992 2 5.4V18.6C2 19.4401 2 19.8601 2.16349 20.181C2.3073 20.4632 2.53677 20.6927 2.81901 20.8365C3.13988 21 3.55992 21 4.4 21Z" stroke="currentColor" stroke-width="2" stroke-linecap="round" stroke-linejoin="round"/>
</svg>
