<svg width="24" height="24" viewBox="0 0 24 24" fill="none" xmlns="http://www.w3.org/2000/svg">
<path d="M12 22C6.47715 22 2 17.5228 2 12C2 9.4333 2.967 7.09246 4.55655 5.32191L4.81607 5.06607M12 22C14.5823 22 16.936 21.0212 18.7104 19.4144L18.9238 19.1738M12 22V18M12 2C10.5778 2 9.22492 2.29689 8 2.83209M12 2C15.2716 2 18.1763 3.57111 20.0007 6M12 2V6M21.1679 16C21.4454 15.365 21.6588 14.6956 21.8 14M12 12.25L4.81607 5.06607M12 12.25L18.9238 19.1738M12 12.25V18M12 6.54143V6M12 18H13.2363M19 14H21.8M21.8 14C21.9311 13.3538 22 12.6849 22 12C22 11.3151 21.9311 10.6462 21.8 10M15.6698 10H21.8M21.8 10C21.5 8.52224 20.8742 7.16282 20.0007 6M12 6L20.0007 6M1.75 2L4.81607 5.06607M21.75 22L18.9238 19.1738" stroke="currentColor" stroke-width="2" stroke-linecap="round" stroke-linejoin="round"/>
</svg>
