<svg width="24" height="24" viewBox="0 0 24 24" fill="none" xmlns="http://www.w3.org/2000/svg">
<path d="M15.4439 3.44641L14.1914 4.69889M20.4556 8.45642L19.2031 9.7089M18.9492 4.95182L18.5759 5.32515M11.688 7.20374L10.4355 8.45622M16.6958 12.2137L15.4434 13.4662M11.0611 2.82019L9.80859 4.07267M16.0708 7.8302L14.8184 9.08268M21.0826 12.84L19.8301 14.0924M7.93021 10.9613L6.67773 12.2138M12.94 15.9713L11.6875 17.2238M7.30521 6.57751L6.05273 7.82999M12.313 11.5875L11.0605 12.84M17.3228 16.5975L16.0703 17.85M4.1724 14.7186L2.91992 15.9711M9.18217 19.7286L7.92969 20.9811M3.54545 10.3351L2.29297 11.5876M8.55717 15.3451L7.30469 16.5976M13.5669 20.3549L12.3145 21.6073M22 12C22 17.5228 17.5228 22 12 22C6.47715 22 2 17.5228 2 12C2 6.47715 6.47715 2 12 2C17.5228 2 22 6.47715 22 12Z" stroke="currentColor" stroke-width="2" stroke-linecap="round" stroke-linejoin="round"/>
</svg>
