<svg width="24" height="24" viewBox="0 0 24 24" fill="none" xmlns="http://www.w3.org/2000/svg">
<path d="M8 2.83213C9.22492 2.29694 10.5778 2.00004 12 2.00004C13.4214 2.00004 14.7736 2.29662 15.998 2.83127M21.1679 16C21.7031 14.7751 22 13.4223 22 12C22 11.9679 21.9998 11.9357 21.9995 11.9036M14.1914 4.69889L15.4439 3.44641L15.998 2.83127M19.2031 9.7089L20.4556 8.45642L21.0918 7.8302M18.5759 5.32515L18.9492 4.95182L19.0289 4.88709M11.688 7.20373L11.5307 7.36108M16.6958 12.2137L16.5168 12.3928M11.8836 1.99768L9.80859 4.07267M16.0708 7.8302L14.8184 9.08268M19.8301 14.0924L21.7087 12.2138L21.9995 11.9036M7.93021 10.9613L6.67773 12.2138M12.94 15.9713L11.6875 17.2238M6.05273 7.82999L6.67773 7.20499L6.85121 7.10126M11.0605 12.84L11.6868 12.2138L11.8404 12.0904M16.0703 17.85L16.6958 17.2245L16.8518 17.1019M4.1724 14.7186L2.91992 15.9711M9.18217 19.7286L7.92969 20.9811M3.54545 10.3351L2.29297 11.5876M8.55717 15.3451L7.30469 16.5976M13.5669 20.3549L12.3145 21.6073M1.75 2.00004L4.80209 5.05214M21.75 22L18.9529 19.2029M15.998 2.83127C17.1339 3.32724 18.1597 4.02808 19.0289 4.88709M19.0289 4.88709C19.8823 5.73041 20.5846 6.72618 21.0918 7.8302M21.0918 7.8302C21.6623 9.07201 21.9858 10.4508 21.9995 11.9036M11.8404 12.0904L6.85121 7.10126M11.8404 12.0904L16.8518 17.1019M6.85121 7.10126L4.80209 5.05214M4.80209 5.05214L4.7394 5.1237C3.04146 6.91591 2 9.33636 2 12C2 17.5229 6.47715 22 12 22C14.6201 22 17.0049 20.9924 18.7879 19.3434L18.9529 19.2029M16.8518 17.1019L18.9529 19.2029" stroke="currentColor" stroke-width="2" stroke-linecap="round" stroke-linejoin="round"/>
</svg>
