<svg width="24" height="24" viewBox="0 0 24 24" fill="none" xmlns="http://www.w3.org/2000/svg">
<path d="M22 12C22 17.5228 17.5228 22 12 22C6.47715 22 2 17.5228 2 12C2 6.47715 6.47715 2 12 2C17.5228 2 22 6.47715 22 12Z" stroke="currentColor" stroke-width="2" stroke-linecap="round" stroke-linejoin="round"/>
<path d="M13.8936 18.3219C16.6145 17.508 18.5977 14.9856 18.5977 12C18.5977 9.01438 16.6145 6.49195 13.8936 5.67812C13.4407 5.54265 13.2143 5.47492 12.8825 5.56595C12.6381 5.63301 12.3166 5.87244 12.1823 6.08736C12 6.37914 12 6.69354 12 7.32234V16.6777C12 17.3065 12 17.6209 12.1823 17.9126C12.3166 18.1276 12.6381 18.367 12.8825 18.434C13.2143 18.5251 13.4407 18.4573 13.8936 18.3219Z" stroke="currentColor" stroke-width="2" stroke-linecap="round" stroke-linejoin="round"/>
</svg>
