<svg width="24" height="24" viewBox="0 0 24 24" fill="none" xmlns="http://www.w3.org/2000/svg">
<path d="M12 22C6.47715 22 2 17.5228 2 12C2 6.47715 6.47715 2 12 2M12 22V18M12 22C15.2716 22 18.1763 20.4289 20.0007 18M12 2V6M12 2C15.2716 2 18.1763 3.57111 20.0007 6M12 18H20.0007M12 18V14M20.0007 18C20.8742 16.8372 21.5 15.4778 21.8 14M12 14H21.8M12 14V10M21.8 14C21.9311 13.3538 22 12.6849 22 12C22 11.3151 21.9311 10.6462 21.8 10M12 10H21.8M12 10V6M21.8 10C21.5 8.52224 20.8742 7.16282 20.0007 6M12 6H20.0007" stroke="currentColor" stroke-width="2" stroke-linecap="round" stroke-linejoin="round"/>
</svg>
