<svg width="24" height="24" viewBox="0 0 24 24" fill="none" xmlns="http://www.w3.org/2000/svg">
<path d="M7.07031 12.4716C7.07031 12.4716 8.71354 11.4106 12 12.4716C15.2865 13.5326 16.9297 12.4716 16.9297 12.4716M14.5 6H9M14.7588 5.07045V3.91742C14.7588 2.85846 13.9003 2 12.8414 2L10.7814 2C9.67684 2 8.78141 2.89543 8.78141 4V5.1932C8.78141 6.70461 8.38507 8.1896 7.63192 9.5C6.87877 10.8104 6.48242 12.2954 6.48242 13.8068L6.48242 19C6.48242 20.6569 7.82557 22 9.48242 22H14.5176C16.1744 22 17.5176 20.6569 17.5176 19V13.9296C17.5176 12.3473 17.0365 10.8025 16.1382 9.5C15.2399 8.19751 14.7588 6.65268 14.7588 5.07045Z" stroke="currentColor" stroke-width="2" stroke-linecap="round" stroke-linejoin="round"/>
</svg>
