<svg width="24" height="24" viewBox="0 0 24 24" fill="none" xmlns="http://www.w3.org/2000/svg">
<path d="M8.24773 12.6534C8.47423 12.0752 8.69713 11.6898 8.87953 11.4037L9.85851 9.86775C10.6441 8.6353 11.6054 7.52419 12.7122 6.56962L12.7984 6.4952C15.0066 4.59068 17.7332 3.38915 20.6288 3.04473C20.8188 3.02212 20.9799 3.18323 20.9573 3.37325C20.6129 6.26882 19.4114 8.99551 17.5069 11.2036L17.4324 11.2899C16.4779 12.3966 15.3668 13.358 14.1343 14.1436L12.5984 15.1225C12.3604 15.2742 11.8583 15.5459 11.3449 15.7345M8.24773 12.6534C7.05219 12.4662 5.76827 12.8469 4.82685 13.7883C3.28857 15.3266 2.44428 19.7617 3.34197 20.6594C4.23967 21.5571 8.67473 20.7128 10.213 19.1745C11.1594 18.2281 11.5392 16.9355 11.3449 15.7345M8.24773 12.6534C9.0057 12.7721 9.72813 13.119 10.3052 13.6961C10.8775 14.2684 11.2235 14.9835 11.3449 15.7345" stroke="currentColor" stroke-width="2" stroke-linecap="round" stroke-linejoin="round"/>
</svg>
