<svg width="24" height="24" viewBox="0 0 24 24" fill="none" xmlns="http://www.w3.org/2000/svg">
<path d="M8.24536 12.6531C8.39857 12.3524 8.69631 11.6898 8.87871 11.4037L9.76053 10.0105M8.24536 12.6531C7.05026 12.4665 5.76704 12.8473 4.82602 13.7884C3.28774 15.3266 2.44346 19.7617 3.34115 20.6594C4.23885 21.5571 8.67391 20.7128 10.2122 19.1745C11.1478 18.2389 11.5296 16.9651 11.3506 15.7759M8.24536 12.6531C9.00389 12.7716 9.72692 13.1186 10.3044 13.6961C10.8872 14.2789 11.2352 15.0098 11.3506 15.7759M11.3506 15.7759C11.5988 15.6444 12.3596 15.2742 12.5976 15.1226L13.9797 14.2297M13.9797 14.2297L21.75 22M13.9797 14.2297L9.76053 10.0105M9.76053 10.0105L1.75 2M16.7136 12.0655C16.9617 11.8157 17.2012 11.557 17.4316 11.2899L17.506 11.2036C19.4106 8.99552 20.6121 6.26884 20.9565 3.37327C20.9791 3.18325 20.818 3.02214 20.628 3.04474C17.7324 3.38917 15.0057 4.59069 12.7976 6.49522L12.7113 6.56964C12.42 6.82094 12.1387 7.0831 11.868 7.35546" stroke="currentColor" stroke-width="2" stroke-linecap="round" stroke-linejoin="round"/>
</svg>
