<svg width="24" height="24" viewBox="0 0 24 24" fill="none" xmlns="http://www.w3.org/2000/svg">
<path d="M19.9718 6.3384L17.6356 19.256C17.5965 19.4718 17.5769 19.5797 17.4937 19.7793C17.4461 19.8936 17.2782 20.1746 17.2001 20.2708C17.0638 20.4386 17.0285 20.4667 16.958 20.523C16.2151 21.1155 14.6607 22 12.0006 22C9.34128 22 7.78696 21.116 7.04379 20.5234C6.97321 20.4671 6.93791 20.439 6.80147 20.271C6.72334 20.1747 6.55538 19.8935 6.50773 19.7791C6.42452 19.5793 6.40498 19.4713 6.36589 19.2553L4.01543 6.25051M19.9718 6.3384C19.9905 6.22684 20 6.11398 20 6C20 3.79086 16.4183 2 12 2C7.58172 2 4 3.79086 4 6C4 6.08413 4.0052 6.16766 4.01543 6.25051M19.9718 6.3384C19.6282 8.38916 16.1903 10 12 10C7.74999 10 4.27403 8.34295 4.01543 6.25051" stroke="currentColor" stroke-width="2" stroke-linecap="round" stroke-linejoin="round"/>
</svg>
