<svg width="24" height="24" viewBox="0 0 24 24" fill="none" xmlns="http://www.w3.org/2000/svg">
<path d="M13.9906 19.6352L7.34548 13M13.9906 19.6352C14.7238 20.4718 15.8002 21 17 21C19.2091 21 21 19.2091 21 17V6.2C21 5.0799 21 4.51984 20.782 4.09202C20.5903 3.71569 20.2843 3.40973 19.908 3.21799C19.4802 3 18.9201 3 17.8 3H16.2C15.0799 3 14.5198 3 14.092 3.21799C13.7157 3.40973 13.4097 3.71569 13.218 4.09202C13 4.51984 13 5.07989 13 6.2V7.33594M13.9906 19.6352C13.3738 18.9314 13 18.0093 13 17V7.33594M13 7.33594L11.9196 6.26336C11.1276 5.47133 10.7315 5.07531 10.2749 4.92693C9.8732 4.79642 9.44051 4.79642 9.03882 4.92693C8.58216 5.07531 8.18615 5.47133 7.39411 6.26336L6.26374 7.39373C5.47139 8.18608 5.07522 8.58225 4.92686 9.03906C4.79636 9.44088 4.79645 9.87371 4.92713 10.2755C5.07569 10.7322 5.47205 11.1282 6.26475 11.9202L7.34548 13M16.9932 21H6.2C5.07989 21 4.51984 21 4.09202 20.782C3.71569 20.5903 3.40973 20.2843 3.21799 19.908C3 19.4802 3 18.9201 3 17.8L3 16.2C3 15.0799 3 14.5198 3.21799 14.092C3.40973 13.7157 3.71569 13.4097 4.09202 13.218C4.51984 13 5.07989 13 6.2 13H7.34548M17 17L17.0088 17.0048" stroke="currentColor" stroke-width="2" stroke-linecap="round" stroke-linejoin="round"/>
</svg>
