<svg width="24" height="24" viewBox="0 0 24 24" fill="none" xmlns="http://www.w3.org/2000/svg">
<path d="M15.0322 3.57244L19.5822 10.1292C19.6894 10.2839 19.743 10.3612 19.8294 10.5873C19.8736 10.703 19.9538 11.0899 19.9593 11.2137C19.9699 11.4555 19.9668 11.4709 19.9606 11.5017C19.8365 12.1237 19.4739 13.0675 18.4574 14.084C17.4413 15.1001 16.4978 15.4628 15.8758 15.5871C15.8449 15.5933 15.8295 15.5964 15.5875 15.5857C15.4636 15.5803 15.0764 15.5 14.9607 15.4557C14.7344 15.3692 14.657 15.3155 14.5023 15.2082L7.85058 10.586M15.0322 3.57244C14.9925 3.51764 14.9486 3.46602 14.9003 3.41779C13.9185 2.43598 11.5308 3.23189 9.56716 5.19551C7.60354 7.15913 6.80763 9.54688 7.78944 10.5287C7.80925 10.5485 7.82964 10.5676 7.85058 10.586M15.0322 3.57244C15.8011 4.63316 14.9898 6.8838 13.1226 8.75096C11.1986 10.675 8.86745 11.4779 7.85058 10.586M9.79883 17.9225C9.79883 19.451 8.55974 20.6901 7.03125 20.6901C5.50276 20.6901 4.26367 19.451 4.26367 17.9225C4.26367 17.1411 4.98696 15.9532 5.69403 14.9785C6.07456 14.454 6.26482 14.1918 6.58919 14.0632C6.84129 13.9633 7.22121 13.9633 7.47331 14.0632C7.79768 14.1918 7.98794 14.454 8.36847 14.9785C9.07554 15.9532 9.79883 17.1411 9.79883 17.9225Z" stroke="currentColor" stroke-width="2" stroke-linecap="round" stroke-linejoin="round"/>
</svg>
