<svg width="24" height="24" viewBox="0 0 24 24" fill="none" xmlns="http://www.w3.org/2000/svg">
<path d="M19.9718 6.34215L18.6016 13.9301M19.9718 6.34215C19.9909 6.22937 20.0006 6.11525 20.0006 6C20.0006 3.79086 16.4189 2 12.0006 2C10.3233 2 8.76648 2.25811 7.48047 2.69923M19.9718 6.34215C19.6968 7.9654 17.483 9.31244 14.4927 9.80212M17.8457 18.0957L17.6356 19.256C17.5965 19.4718 17.5769 19.5797 17.4937 19.7793C17.4461 19.8936 17.2782 20.1746 17.2001 20.2708C17.0638 20.4386 17.0285 20.4667 16.958 20.523C16.2151 21.1155 14.6607 22 12.0006 22C9.34128 22 7.78696 21.116 7.04379 20.5234C6.97321 20.4671 6.93791 20.439 6.80147 20.271C6.72334 20.1747 6.55538 19.8935 6.50772 19.7791C6.42452 19.5793 6.40498 19.4713 6.36589 19.2553L4.00195 6.19202M17.8457 18.0957L1.75 2M17.8457 18.0957L21.75 22" stroke="currentColor" stroke-width="2" stroke-linecap="round" stroke-linejoin="round"/>
</svg>
