<svg width="24" height="24" viewBox="0 0 24 24" fill="none" xmlns="http://www.w3.org/2000/svg">
<path d="M18 6C17.4477 6 17 6.44772 17 7C17 7.55228 17.4477 8 18 8V6ZM21.5029 5.74278L22.4314 6.11417L21.5029 5.74278ZM22.9285 4.87139C23.1336 4.35861 22.8842 3.77664 22.3714 3.57152C21.8586 3.36641 21.2766 3.61583 21.0715 4.12861L22.9285 4.87139ZM18 16C17.4477 16 17 16.4477 17 17C17 17.5523 17.4477 18 18 18V16ZM21.5029 18.2572L20.5744 18.6286L21.5029 18.2572ZM21.0715 19.8714C21.2766 20.3842 21.8586 20.6336 22.3714 20.4285C22.8842 20.2234 23.1336 19.6414 22.9285 19.1286L21.0715 19.8714ZM18.5 11C17.9477 11 17.5 11.4477 17.5 12C17.5 12.5523 17.9477 13 18.5 13V11ZM22 13C22.5523 13 23 12.5523 23 12C23 11.4477 22.5523 11 22 11V13ZM6 8C6.55228 8 7 7.55228 7 7C7 6.44772 6.55228 6 6 6V8ZM2.49711 5.74278L3.42559 5.37139L2.49711 5.74278ZM2.92848 4.12861C2.72336 3.61583 2.14139 3.36641 1.62861 3.57152C1.11583 3.77664 0.86641 4.35861 1.07152 4.87139L2.92848 4.12861ZM6 18C6.55228 18 7 17.5523 7 17C7 16.4477 6.55228 16 6 16V18ZM2.49711 18.2572L3.42559 18.6286H3.42559L2.49711 18.2572ZM1.07152 19.1286C0.86641 19.6414 1.11583 20.2234 1.62861 20.4285C2.14139 20.6336 2.72336 20.3842 2.92848 19.8714L1.07152 19.1286ZM5.5 13C6.05228 13 6.5 12.5523 6.5 12C6.5 11.4477 6.05228 11 5.5 11V13ZM2 11C1.44772 11 1 11.4477 1 12C1 12.5523 1.44772 13 2 13V11ZM17 9V15H19V9H17ZM7 15V9H5V15H7ZM12 20C9.23858 20 7 17.7614 7 15H5C5 18.866 8.13401 22 12 22V20ZM17 15C17 17.7614 14.7614 20 12 20V22C15.866 22 19 18.866 19 15H17ZM12 4C14.7614 4 17 6.23858 17 9H19C19 5.13401 15.866 2 12 2V4ZM12 2C8.13401 2 5 5.13401 5 9H7C7 6.23858 9.23858 4 12 4V2ZM18 9H12V11H18V9ZM12 9H6V11H12V9ZM11 10V21H13V10H11ZM18 8H19.6459V6H18V8ZM22.4314 6.11417L22.9285 4.87139L21.0715 4.12861L20.5744 5.37139L22.4314 6.11417ZM19.6459 8C20.8727 8 21.9758 7.25315 22.4314 6.11417L20.5744 5.37139C20.4225 5.75105 20.0548 6 19.6459 6V8ZM18 18H19.6459V16H18V18ZM20.5744 18.6286L21.0715 19.8714L22.9285 19.1286L22.4314 17.8858L20.5744 18.6286ZM19.6459 18C20.0548 18 20.4225 18.249 20.5744 18.6286L22.4314 17.8858C21.9758 16.7469 20.8727 16 19.6459 16V18ZM18.5 13H22V11H18.5V13ZM6 6H4.35407V8H6V6ZM3.42559 5.37139L2.92848 4.12861L1.07152 4.87139L1.56864 6.11417L3.42559 5.37139ZM4.35407 6C3.94516 6 3.57745 5.75105 3.42559 5.37139L1.56864 6.11417C2.02423 7.25315 3.12735 8 4.35407 8V6ZM6 16H4.35407V18H6V16ZM1.56864 17.8858L1.07152 19.1286L2.92848 19.8714L3.42559 18.6286L1.56864 17.8858ZM4.35407 16C3.12735 16 2.02423 16.7469 1.56864 17.8858L3.42559 18.6286C3.57745 18.249 3.94516 18 4.35407 18V16ZM5.5 11H2V13H5.5V11Z" fill="currentColor"/>
</svg>
