<svg width="24" height="24" viewBox="0 0 24 24" fill="none" xmlns="http://www.w3.org/2000/svg">
<path d="M7.5 21H22M19.7871 16.8392C21.0093 16.8392 22 15.4044 22 13.6345C22 11.8645 21.0093 10.4297 19.7871 10.4297C18.565 10.4297 17.5742 11.8645 17.5742 13.6345C17.5742 15.4044 18.565 16.8392 19.7871 16.8392ZM19.7871 16.8392V21M6 7H9.5M6 11H9.5M6 15H9.5M13 21L13 7.8C13 6.11984 13 5.27976 12.673 4.63803C12.3854 4.07354 11.9265 3.6146 11.362 3.32698C10.7202 3 9.88016 3 8.2 3L6.8 3C5.11984 3 4.27976 3 3.63803 3.32698C3.07354 3.6146 2.6146 4.07354 2.32698 4.63803C2 5.27976 2 6.11984 2 7.8L2 21H13Z" stroke="currentColor" stroke-width="2" stroke-linecap="round" stroke-linejoin="round"/>
</svg>
