<svg width="24" height="24" viewBox="0 0 24 24" fill="none" xmlns="http://www.w3.org/2000/svg">
<path d="M13 21L13 7.8C13 6.11984 13 5.27976 12.673 4.63803C12.3854 4.07354 11.9265 3.6146 11.362 3.32698C10.7202 3 9.88016 3 8.2 3L6.8 3C5.11984 3 4.27976 3 3.63803 3.32698C3.07354 3.6146 2.6146 4.07354 2.32698 4.63803C2 5.27976 2 6.11984 2 7.8L2 21H13ZM13 21H22V11.8C22 10.1198 22 9.27976 21.673 8.63803C21.3854 8.07354 20.9265 7.6146 20.362 7.32698C19.7202 7 18.8802 7 17.2 7H13L13 21ZM4 21L20 21M6 7H9M6 11H9M16.5469 11H18.4531M6 15H9M16.5469 15H18.4531" stroke="currentColor" stroke-width="2" stroke-linecap="round" stroke-linejoin="round"/>
</svg>
