<svg width="24" height="24" viewBox="0 0 24 24" fill="none" xmlns="http://www.w3.org/2000/svg">
<path d="M10.3835 9.09791C10.2007 9.3488 10.0256 9.60553 9.85851 9.86775L8.87953 11.4037C8.69713 11.6898 8.52916 11.9838 8.37594 12.2846L8.20303 12.6466M10.3835 9.09791C11.0597 8.16958 11.8409 7.32109 12.7122 6.56962L12.7984 6.4952C15.0066 4.59068 17.7332 3.38915 20.6288 3.04473C20.8188 3.02212 20.9799 3.18323 20.9573 3.37325C20.6129 6.26882 19.4114 8.99551 17.5069 11.2036L17.4324 11.2899C16.6747 12.1685 15.8182 12.9555 14.8807 13.6356M10.3835 9.09791C10.3835 9.09791 11.6769 9.4613 13.1315 10.9159C14.5861 12.3705 14.8807 13.6356 14.8807 13.6356M14.8807 13.6356C14.6373 13.8122 14.3884 13.9816 14.1343 14.1436L12.5984 15.1225C12.3604 15.2742 12.117 15.4159 11.8688 15.5475L11.3477 15.7516M8.20303 12.6466C7.02028 12.4757 5.75655 12.8586 4.82685 13.7883C3.28857 15.3266 2.44428 19.7617 3.34197 20.6594C4.23967 21.5571 8.67473 20.7128 10.213 19.1745C11.155 18.2325 11.5356 16.9477 11.3477 15.7516M8.20303 12.6466C8.97726 12.7585 9.7168 13.1077 10.3052 13.6961C10.8818 14.2727 11.2287 14.9944 11.3477 15.7516" stroke="currentColor" stroke-width="2" stroke-linecap="round" stroke-linejoin="round"/>
</svg>
