<svg width="24" height="24" viewBox="0 0 24 24" fill="none" xmlns="http://www.w3.org/2000/svg">
<path d="M7.5 15.9937H7.51M16.5 15.9937H16.51M4 12H20M6 5H18M7.8 20H16.2C17.8802 20 18.7202 20 19.362 19.673C19.9265 19.3854 20.3854 18.9265 20.673 18.362C21 17.7202 21 16.8802 21 15.2V6.8C21 5.11984 21 4.27976 20.673 3.63803C20.3854 3.07354 19.9265 2.6146 19.362 2.32698C18.7202 2 17.8802 2 16.2 2H7.8C6.11984 2 5.27976 2 4.63803 2.32698C4.07354 2.6146 3.6146 3.07354 3.32698 3.63803C3 4.27976 3 5.11984 3 6.8V15.2C3 16.8802 3 17.7202 3.32698 18.362C3.6146 18.9265 4.07354 19.3854 4.63803 19.673C5.27976 20 6.11984 20 7.8 20ZM8 15.9937C8 16.2698 7.77614 16.4937 7.5 16.4937C7.22386 16.4937 7 16.2698 7 15.9937C7 15.7175 7.22386 15.4937 7.5 15.4937C7.77614 15.4937 8 15.7175 8 15.9937ZM17 15.9937C17 16.2698 16.7761 16.4937 16.5 16.4937C16.2239 16.4937 16 16.2698 16 15.9937C16 15.7175 16.2239 15.4937 16.5 15.4937C16.7761 15.4937 17 15.7175 17 15.9937ZM7 22C6.44772 22 6 21.5523 6 21C6 20.4477 6.44772 20 7 20C7.55228 20 8 20.4477 8 21C8 21.5523 7.55228 22 7 22ZM17 22C16.4477 22 16 21.5523 16 21C16 20.4477 16.4477 20 17 20C17.5523 20 18 20.4477 18 21C18 21.5523 17.5523 22 17 22Z" stroke="currentColor" stroke-width="2" stroke-linecap="round" stroke-linejoin="round"/>
</svg>
