<svg width="24" height="25" viewBox="0 0 24 25" fill="none" xmlns="http://www.w3.org/2000/svg">
<path d="M21 11.5V8.83955C21 7.15939 21 6.31931 20.673 5.67758C20.3854 5.11309 19.9265 4.65415 19.362 4.36653C18.7202 4.03955 17.8802 4.03955 16.2 4.03955H7.8C6.11984 4.03955 5.27976 4.03955 4.63803 4.36653C4.07354 4.65415 3.6146 5.11309 3.32698 5.67758C3 6.31931 3 7.15939 3 8.83955V17.2396C3 18.9197 3 19.7598 3.32698 20.4015C3.6146 20.966 4.07354 21.4249 4.63803 21.7126C5.27976 22.0396 6.11984 22.0396 7.8 22.0396H12.5M8 2.03955V6.03955M16 2.03955V6.03955M3 10.0396H21M19.1377 19.1516L16.0752 16.0891C15.5138 15.5277 15.5138 14.6175 16.0752 14.0561C16.6366 13.4947 17.5468 13.4947 18.1082 14.0561L21.1595 17.1073C22.2915 18.2393 22.2915 20.0746 21.1595 21.2067C20.0275 22.3387 18.1921 22.3387 17.0601 21.2067L15.0104 19.157" stroke="currentColor" stroke-width="2" stroke-linecap="round"/>
</svg>
