<svg width="24" height="25" viewBox="0 0 24 25" fill="none" xmlns="http://www.w3.org/2000/svg">
<path d="M16.5 22.0396H7.8C6.11984 22.0396 5.27976 22.0396 4.63803 21.7126C4.07354 21.4249 3.6146 20.966 3.32698 20.4015C3 19.7598 3 18.9197 3 17.2396V8.83955C3 8.27174 3 8.44024 3.01262 8.03955M20.673 20.4015C21 19.7598 21 18.9197 21 17.2396V8.83955C21 7.15939 21 6.31931 20.673 5.67758C20.3854 5.11309 19.9265 4.65415 19.362 4.36653C18.7202 4.03955 17.8802 4.03955 16.2 4.03955H7.8C6.11984 4.03955 5.27976 4.03955 4.63803 4.36653M8 2.03955V4.03955M16 2.03955V6.03955M10 10.0396H21M3 10.0396H5M2 2.03955L22 22.0396" stroke="currentColor" stroke-width="2" stroke-linecap="round" stroke-linejoin="round"/>
</svg>
