<svg width="24" height="25" viewBox="0 0 24 25" fill="none" xmlns="http://www.w3.org/2000/svg">
<path d="M8 2.03955V6.03955M16 2.03955V6.03955M3 10.0396H21M15.9773 16.0404H16M15.9773 16.0404C15.9773 16.0257 15.9719 16.011 15.9612 15.9998L14.0779 14.0265M15.9773 16.0404C15.9773 16.0552 15.9719 16.0699 15.9612 16.0811L14.0779 18.0544M8.09479 16.0404H8.07204M8.09479 16.0404C8.09479 16.0552 8.10015 16.0699 8.11087 16.0811L9.99411 18.0544M8.09479 16.0404C8.09479 16.0257 8.10015 16.011 8.11087 15.9997L9.99411 14.0265M7.8 22.0396H16.2C17.8802 22.0396 18.7202 22.0396 19.362 21.7126C19.9265 21.425 20.3854 20.966 20.673 20.4015C21 19.7598 21 18.9197 21 17.2396V8.83955C21 7.15939 21 6.31931 20.673 5.67758C20.3854 5.11309 19.9265 4.65415 19.362 4.36653C18.7202 4.03955 17.8802 4.03955 16.2 4.03955H7.8C6.11984 4.03955 5.27976 4.03955 4.63803 4.36653C4.07354 4.65415 3.6146 5.11309 3.32698 5.67758C3 6.31931 3 7.15939 3 8.83955V17.2396C3 18.9197 3 19.7598 3.32698 20.4015C3.6146 20.966 4.07354 21.425 4.63803 21.7126C5.27976 22.0396 6.11984 22.0396 7.8 22.0396Z" stroke="currentColor" stroke-width="2" stroke-linecap="round"/>
</svg>
