<svg width="24" height="25" viewBox="0 0 24 25" fill="none" xmlns="http://www.w3.org/2000/svg">
<path d="M8 2.03955V6.03955M16 2.03955V6.03955M3 10.0396H21M7.8 22.0396H16.2C17.8802 22.0396 18.7202 22.0396 19.362 21.7126C19.9265 21.425 20.3854 20.966 20.673 20.4015C21 19.7598 21 18.9197 21 17.2396V8.83955C21 7.15939 21 6.31931 20.673 5.67758C20.3854 5.11309 19.9265 4.65415 19.362 4.36653C18.7202 4.03955 17.8802 4.03955 16.2 4.03955H7.8C6.11984 4.03955 5.27976 4.03955 4.63803 4.36653C4.07354 4.65415 3.6146 5.11309 3.32698 5.67758C3 6.31931 3 7.15939 3 8.83955V17.2396C3 18.9197 3 19.7598 3.32698 20.4015C3.6146 20.966 4.07354 21.425 4.63803 21.7126C5.27976 22.0396 6.11984 22.0396 7.8 22.0396ZM11.9979 14.1123C11.3774 13.4071 10.3428 13.2174 9.56546 13.8632C8.7881 14.5089 8.67866 15.5886 9.28912 16.3523C9.89959 17.116 11.9979 18.8985 11.9979 18.8985C11.9979 18.8985 14.0962 17.116 14.7066 16.3523C15.3171 15.5886 15.221 14.5021 14.4303 13.8632C13.6396 13.2242 12.6183 13.4071 11.9979 14.1123Z" stroke="currentColor" stroke-width="2" stroke-linecap="round" stroke-linejoin="round"/>
</svg>
