<svg width="24" height="24" viewBox="0 0 24 24" fill="none" xmlns="http://www.w3.org/2000/svg">
<path d="M21 12.75V9.25654C21 9.01835 21 8.89926 20.9932 8.79872C20.8925 7.3005 19.6995 6.10755 18.2013 6.00679C18.1008 6.00003 17.9817 6.00003 17.7435 6.00003C17.647 6.00003 17.5988 6.00003 17.552 5.99857C16.8789 5.97757 16.2325 5.73073 15.7167 5.29777C15.6809 5.26769 15.6449 5.23554 15.573 5.17123L15.375 4.99422C15.1079 4.75545 14.9744 4.63607 14.8323 4.53595C14.4231 4.24763 13.9482 4.0663 13.4509 4.00848C13.2783 3.9884 13.0992 3.9884 12.7409 3.9884H11.2591C10.9008 3.9884 10.7217 3.9884 10.5491 4.00848C10.0518 4.0663 9.57692 4.24763 9.16769 4.53595C9.02559 4.63607 8.89206 4.75545 8.625 4.99421L8.42701 5.17123C8.3551 5.23552 8.31911 5.2677 8.28328 5.29777C7.76751 5.73073 7.12108 5.97757 6.44801 5.99857C6.40124 6.00003 6.353 6.00003 6.25651 6.00003C6.01832 6.00003 5.89923 6.00003 5.79869 6.00679C4.30047 6.10755 3.10752 7.3005 3.00676 8.79872C3 8.89926 3 9.01835 3 9.25654V14.7C3 16.3802 3 17.2203 3.32698 17.862C3.6146 18.4265 4.07354 18.8854 4.63803 19.173C5.27976 19.5 6.11984 19.5 7.8 19.5H12M16.0626 19.0314H19.0313M19.0313 19.0314H22M19.0313 19.0314V16.0626M19.0313 19.0314V22.0001M15.5 12.5C15.5 14.433 13.933 16 12 16C10.067 16 8.5 14.433 8.5 12.5C8.5 10.567 10.067 9.00003 12 9.00003C13.933 9.00003 15.5 10.567 15.5 12.5Z" stroke="currentColor" stroke-width="2" stroke-linecap="round"/>
</svg>
