<svg width="24" height="24" viewBox="0 0 24 24" fill="none" xmlns="http://www.w3.org/2000/svg">
<path d="M19.0527 9.5V9.51M5.13762 9.49756H6.15516M6.8 20.5H17.2C18.8802 20.5 19.7202 20.5 20.362 20.173C20.9265 19.8854 21.3854 19.4265 21.673 18.862C22 18.2202 22 17.3802 22 15.7V11.3C22 9.61984 22 8.77976 21.673 8.13803C21.3854 7.57354 20.9265 7.1146 20.362 6.82698C19.7202 6.5 18.8802 6.5 17.2 6.5H6.8C5.11984 6.5 4.27976 6.5 3.63803 6.82698C3.07354 7.1146 2.6146 7.57354 2.32698 8.13803C2 8.77976 2 9.61984 2 11.3V15.7C2 17.3802 2 18.2202 2.32698 18.862C2.6146 19.4265 3.07354 19.8854 3.63803 20.173C4.27976 20.5 5.11984 20.5 6.8 20.5ZM16 13.5C16 15.7091 14.2091 17.5 12 17.5C9.79086 17.5 8 15.7091 8 13.5C8 11.2909 9.79086 9.5 12 9.5C14.2091 9.5 16 11.2909 16 13.5ZM18 6.5L15.7029 4.20294C15.4435 3.94352 15.3138 3.8138 15.1624 3.72104C15.0282 3.6388 14.8819 3.57819 14.7288 3.54145C14.5562 3.5 14.3728 3.5 14.0059 3.5H9.99411C9.62723 3.5 9.44378 3.5 9.27115 3.54145C9.1181 3.57819 8.97178 3.6388 8.83757 3.72104C8.6862 3.8138 8.55648 3.94352 8.29706 4.20294L6 6.5H18Z" stroke="currentColor" stroke-width="2" stroke-linecap="round" stroke-linejoin="round"/>
</svg>
