<svg width="24" height="24" viewBox="0 0 24 24" fill="none" xmlns="http://www.w3.org/2000/svg">
<path d="M6 6H6.35446C7.09218 6 7.80403 5.72818 8.35399 5.23648L8.89601 4.75189C9.44597 4.2602 10.1578 3.98838 10.8955 3.98838H13.1045C13.8422 3.98838 14.554 4.2602 15.104 4.75189L15.646 5.23648C16.196 5.72818 16.9078 6 17.6455 6H18C19.6569 6 21 7.34315 21 9V16.5C21 17.7432 20.2439 18.8097 19.1664 19.2648M14.5 19.5001L6 19.5C4.34315 19.5 3 18.1569 3 16.5V9C3 8.84537 3.0117 8.69347 3.03426 8.54514M14.7465 14.6697C15.2183 14.0733 15.5 13.3195 15.5 12.5C15.5 10.567 13.933 9 12 9C11.1394 9 10.3513 9.31063 9.74175 9.8259M11.0805 15.878C9.84091 15.5413 8.8747 14.5406 8.58755 13.2814M1.75 2L21.75 22" stroke="currentColor" stroke-width="2" stroke-linecap="round" stroke-linejoin="round"/>
</svg>
