<svg width="24" height="24" viewBox="0 0 24 24" fill="none" xmlns="http://www.w3.org/2000/svg">
<path d="M21 12.7499V9.25641C21 9.01823 21 8.89914 20.9932 8.79859C20.8925 7.30038 19.6995 6.10743 18.2013 6.00667C18.1008 5.9999 17.9817 5.9999 17.7435 5.9999C17.647 5.9999 17.5988 5.9999 17.552 5.99845C16.8789 5.97745 16.2325 5.73061 15.7167 5.29765C15.6809 5.26757 15.6449 5.23541 15.573 5.1711L15.375 4.99409C15.1079 4.75533 14.9744 4.63594 14.8323 4.53583C14.4231 4.24751 13.9482 4.06617 13.4509 4.00836C13.2783 3.98828 13.0992 3.98828 12.7409 3.98828H11.2591C10.9008 3.98828 10.7217 3.98828 10.5491 4.00836C10.0518 4.06617 9.57692 4.24751 9.16769 4.53583C9.02559 4.63594 8.89206 4.75533 8.625 4.99409L8.42701 5.1711C8.3551 5.2354 8.31911 5.26757 8.28328 5.29765C7.76751 5.73061 7.12108 5.97745 6.44801 5.99845C6.40124 5.9999 6.353 5.9999 6.25651 5.9999C6.01832 5.9999 5.89923 5.9999 5.79869 6.00667C4.30047 6.10743 3.10752 7.30038 3.00676 8.79859C3 8.89914 3 9.01823 3 9.25641V14.6999C3 16.3801 3 17.2201 3.32698 17.8619C3.6146 18.4264 4.07354 18.8853 4.63803 19.1729C5.27976 19.4999 6.11984 19.4999 7.8 19.4999H12M21 12.7616V9.26813C21 9.02995 21 8.91085 20.9932 8.81031C20.8925 7.31209 19.6995 6.11915 18.2013 6.01839C18.1008 6.01162 17.9817 6.01162 17.7435 6.01162C17.647 6.01162 17.5988 6.01162 17.552 6.01016C16.8789 5.98917 16.2325 5.74233 15.7167 5.30937C15.6809 5.27929 15.6449 5.24713 15.573 5.18282L15.375 5.00581C15.1079 4.76705 14.9744 4.64766 14.8323 4.54755C14.4231 4.25923 13.9482 4.07789 13.4509 4.02008C13.2783 4 13.0992 4 12.7409 4H11.2591C10.9008 4 10.7217 4 10.5491 4.02008C10.0518 4.07789 9.57692 4.25923 9.16769 4.54755C9.02559 4.64766 8.89206 4.76705 8.625 5.00581L8.42701 5.18282C8.3551 5.24712 8.31911 5.27929 8.28328 5.30937C7.76751 5.74233 7.12108 5.98917 6.44801 6.01016C6.40124 6.01162 6.353 6.01162 6.25651 6.01162C6.01832 6.01162 5.89923 6.01162 5.79869 6.01839C4.30047 6.11915 3.10752 7.31209 3.00676 8.81031C3 8.91085 3 9.02995 3 9.26813V14.7116C3 16.3918 3 17.2319 3.32698 17.8736C3.6146 18.4381 4.07354 18.897 4.63803 19.1846C5.27976 19.5116 6.11984 19.5116 7.8 19.5116H12M17.3932 17.937H22M15.5 12.5C15.5 14.433 13.933 16 12 16C10.067 16 8.5 14.433 8.5 12.5C8.5 10.567 10.067 9 12 9C13.933 9 15.5 10.567 15.5 12.5Z" stroke="currentColor" stroke-width="2" stroke-linecap="round"/>
</svg>
