<svg width="24" height="24" viewBox="0 0 24 24" fill="none" xmlns="http://www.w3.org/2000/svg">
<path d="M3 9.25654C3 9.01835 3 8.89926 3.00676 8.79872C3.10752 7.3005 4.30047 6.10755 5.79869 6.00679C5.89923 6.00003 6.01832 6.00003 6.25651 6.00003C6.353 6.00003 6.40124 6.00003 6.44801 5.99857C7.12108 5.97757 7.76751 5.73073 8.28328 5.29777C8.31912 5.26769 8.35508 5.23554 8.42701 5.17123L8.625 4.99421C8.89206 4.75545 9.02559 4.63607 9.16769 4.53595C9.57692 4.24763 10.0518 4.0663 10.5491 4.00848C10.7217 3.9884 10.9008 3.9884 11.2591 3.9884H12.7409C13.0992 3.9884 13.2783 3.9884 13.4509 4.00848C13.9482 4.0663 14.4231 4.24763 14.8323 4.53595C14.9744 4.63607 15.1079 4.75545 15.375 4.99422L15.573 5.17123C15.6449 5.23554 15.6809 5.26769 15.7167 5.29777C16.2325 5.73073 16.8789 5.97757 17.552 5.99857C17.5988 6.00003 17.647 6.00003 17.7435 6.00003C17.9817 6.00003 18.1008 6.00003 18.2013 6.00679C19.6995 6.10755 20.8925 7.3005 20.9932 8.79872C21 8.89926 21 9.01835 21 9.25654V14.7C21 16.3802 21 17.2203 20.673 17.862C20.3854 18.4265 19.9265 18.8854 19.362 19.173C18.7202 19.5 17.8802 19.5 16.2 19.5H7.8C6.11984 19.5 5.27976 19.5 4.63803 19.173C4.07354 18.8854 3.6146 18.4265 3.32698 17.862C3 17.2203 3 16.3802 3 14.7L3 9.25654Z" stroke="currentColor" stroke-width="2" stroke-linecap="round" stroke-linejoin="round"/>
<path d="M15.5 12.5C15.5 14.433 13.933 16 12 16C10.067 16 8.5 14.433 8.5 12.5C8.5 10.567 10.067 9.00003 12 9.00003C13.933 9.00003 15.5 10.567 15.5 12.5Z" stroke="currentColor" stroke-width="2" stroke-linecap="round" stroke-linejoin="round"/>
</svg>
