<svg width="24" height="24" viewBox="0 0 24 24" fill="none" xmlns="http://www.w3.org/2000/svg">
<path d="M17 16H5.2C4.07989 16 3.51984 16 3.09202 15.782C2.71569 15.5903 2.40973 15.2843 2.21799 14.908C2 14.4802 2 13.9201 2 12.8V7.2C2 6.07989 2 5.51984 2.21799 5.09202C2.40973 4.71569 2.71569 4.40973 3.09202 4.21799C3.51984 4 4.0799 4 5.2 4H17.7C18.6941 4 19.5 4.80589 19.5 5.8V7.25C19.5 7.94036 18.9404 8.5 18.25 8.5C17.5596 8.5 17 9.05964 17 9.75V16ZM17 16H20.6C21.4401 16 21.8601 16 22.181 15.8365C22.4632 15.6927 22.6927 15.4632 22.8365 15.181C23 14.8601 23 14.4401 23 13.6V12.1241C23 11.7109 23 11.5043 22.9485 11.3129C22.9029 11.1432 22.8278 10.9829 22.7267 10.8393C22.6126 10.6772 22.4539 10.5449 22.1364 10.2804L20.6675 9.05627C20.4203 8.85024 20.2967 8.74723 20.158 8.67391C20.0349 8.60886 19.9035 8.56126 19.7673 8.53246C19.6138 8.5 19.4529 8.5 19.1311 8.5H17V16ZM7 20C5.89543 20 5 19.1046 5 18C5 16.8954 5.89543 16 7 16C8.10457 16 9 16.8954 9 18C9 19.1046 8.10457 20 7 20ZM18 20C16.8954 20 16 19.1046 16 18C16 16.8954 16.8954 16 18 16C19.1046 16 20 16.8954 20 18C20 19.1046 19.1046 20 18 20ZM5 7H10V11H5V7Z" stroke="currentColor" stroke-width="2" stroke-linecap="round" stroke-linejoin="round"/>
</svg>
