<svg width="24" height="24" viewBox="0 0 24 24" fill="none" xmlns="http://www.w3.org/2000/svg">
<path d="M18.4961 12.0393C18.6645 11.8096 18.7832 11.5971 18.8617 11.375C19.0904 10.7281 19.0904 10.0223 18.8617 9.37531C18.6351 8.73447 18.0737 8.17307 16.951 7.05028C15.8282 5.92748 15.2668 5.36608 14.6259 5.13955C13.979 4.91085 13.2732 4.91085 12.6262 5.13955C12.3948 5.22135 12.1737 5.34683 11.9328 5.52665M15.4214 15.2296L13.7012 16.9498C12.5785 18.0726 12.017 18.634 11.3762 18.8605C10.7293 19.0892 10.0234 19.0892 9.37649 18.8605C8.73565 18.634 8.17425 18.0726 7.05146 16.9498C5.92866 15.827 5.36726 15.2656 5.14073 14.6247C4.91203 13.9778 4.91203 13.272 5.14073 12.625C5.36726 11.9842 5.92866 11.4228 7.05146 10.3L9.00034 8.3511M2.5 1.69653L22.5 21.6965M18.8366 7.90543C18.5666 7.97255 18.4317 8.00611 18.3007 8.0039C18.1304 8.00102 17.9638 7.95474 17.8165 7.86944C17.7031 7.80379 17.6047 7.70543 17.408 7.50872L16.491 6.59173C16.2943 6.39503 16.196 6.29667 16.1303 6.18329C16.045 6.03597 15.9987 5.8693 15.9959 5.69909C15.9936 5.56809 16.0272 5.4331 16.0943 5.16313C16.3765 4.02797 16.5176 3.46038 16.8062 3.16778C17.1809 2.78792 17.7292 2.63568 18.246 2.76796C18.6442 2.86985 19.0585 3.28413 19.8871 4.1127C20.7156 4.94126 21.1299 5.35554 21.2318 5.75371C21.3641 6.27059 21.2118 6.81883 20.832 7.1935C20.5394 7.48212 19.9718 7.62322 18.8366 7.90543ZM7.90629 18.8369C7.9734 18.5669 8.00696 18.4319 8.00475 18.3009C8.00188 18.1307 7.95559 17.964 7.87029 17.8167C7.80464 17.7033 7.70629 17.605 7.50958 17.4083L6.59259 16.4913C6.39588 16.2946 6.29753 16.1962 6.18415 16.1306C6.03682 16.0453 5.87016 15.999 5.69994 15.9961C5.56894 15.9939 5.43396 16.0274 5.16399 16.0946C4.02882 16.3768 3.46124 16.5179 3.16863 16.8065C2.78878 17.1812 2.63654 17.7294 2.76881 18.2463C2.87071 18.6445 3.28499 19.0587 4.11355 19.8873C4.94212 20.7159 5.3564 21.1301 5.75456 21.232C6.27144 21.3643 6.81969 21.2121 7.19436 20.8322C7.48297 20.5396 7.62408 19.972 7.90629 18.8369Z" stroke="currentColor" stroke-width="2" stroke-linecap="round" stroke-linejoin="round"/>
</svg>
