<svg width="24" height="24" viewBox="0 0 24 24" fill="none" xmlns="http://www.w3.org/2000/svg">
<path d="M22 17V14.8C22 13.1198 22 12.2798 21.673 11.638C21.3854 11.0735 20.9265 10.6146 20.362 10.327C19.7202 10 18.8802 10 17.2 10M15 19.5H8.34629C8.02858 19.5 7.86972 19.5 7.72663 19.5281C7.32745 19.6064 6.97722 19.8436 6.75622 20.1851C6.67699 20.3075 6.618 20.455 6.5 20.75C6.382 21.045 6.32301 21.1925 6.24378 21.3149C6.02278 21.6564 5.67255 21.8936 5.27337 21.9719C5.13028 22 4.97142 22 4.65371 22H4.38516C3.55908 22 3.14604 22 2.82942 21.8418C2.53894 21.6966 2.30342 21.4611 2.15824 21.1706C2 20.854 2 20.4409 2 19.6148V13.25C2 13.0179 2 12.9018 2.00642 12.8038C2.10489 11.3015 3.30152 10.1049 4.80379 10.0064C4.90179 10 5.01786 10 5.25 10M17.2 10H20.5L19.659 6.63583C19.334 5.33584 19.1715 4.68583 18.8091 4.20187C18.4893 3.77485 18.0615 3.44082 17.5697 3.23419C17.0123 3 16.3423 3 15.0023 3H7.56925C6.35663 3 5.28245 3.73421 4.82736 4.82736M17.2 10H10M6.5 14.5H6.51M17.5 14.5H17.51M2 2L4.82736 4.82736M22 22L4.82736 4.82736M7 14.5C7 14.7761 6.77614 15 6.5 15C6.22386 15 6 14.7761 6 14.5C6 14.2239 6.22386 14 6.5 14C6.77614 14 7 14.2239 7 14.5ZM18 14.5C18 14.7761 17.7761 15 17.5 15C17.2239 15 17 14.7761 17 14.5C17 14.2239 17.2239 14 17.5 14C17.7761 14 18 14.2239 18 14.5Z" stroke="currentColor" stroke-width="2" stroke-linecap="round" stroke-linejoin="round"/>
</svg>
