<svg width="24" height="24" viewBox="0 0 24 24" fill="none" xmlns="http://www.w3.org/2000/svg">
<path d="M6 14H7.5M16.5074 14H18.0074M20.5 10.5L19.6155 6.7093C19.3064 5.38465 19.1519 4.72233 18.7905 4.22844C18.4717 3.79276 18.0412 3.45117 17.5445 3.23971C16.9814 3 16.3013 3 14.9411 3H9.05894C7.69871 3 7.0186 3 6.45551 3.23971C5.95878 3.45117 5.52831 3.79276 5.20951 4.22844C4.84812 4.72233 4.69358 5.38465 4.3845 6.7093L3.5 10.5H20.5ZM19.3463 21H19.6148C20.4409 21 20.854 21 21.1706 20.8418C21.4611 20.6966 21.6966 20.4611 21.8418 20.1706C22 19.854 22 19.4409 22 18.6148V15.3C22 13.6198 22 12.7798 21.673 12.138C21.3854 11.5735 20.9265 11.1146 20.362 10.827C19.7202 10.5 18.8802 10.5 17.2 10.5H6.8C5.11984 10.5 4.27976 10.5 3.63803 10.827C3.07354 11.1146 2.6146 11.5735 2.32698 12.138C2 12.7798 2 13.6198 2 15.3V18.6148C2 19.4409 2 19.854 2.15824 20.1706C2.30342 20.4611 2.53894 20.6966 2.82942 20.8418C3.14604 21 3.55908 21 4.38516 21H4.65371C4.97142 21 5.13028 21 5.27337 20.9719C5.67255 20.8936 6.02278 20.6564 6.24378 20.3149C6.32301 20.1925 6.382 20.045 6.5 19.75C6.618 19.455 6.67699 19.3075 6.75622 19.1851C6.97722 18.8436 7.32745 18.6064 7.72663 18.5281C7.86972 18.5 8.02858 18.5 8.34629 18.5H15.6537C15.9714 18.5 16.1303 18.5 16.2734 18.5281C16.6725 18.6064 17.0228 18.8436 17.2438 19.1851C17.323 19.3075 17.382 19.455 17.5 19.75C17.618 20.045 17.677 20.1925 17.7562 20.3149C17.9772 20.6564 18.3275 20.8936 18.7266 20.9719C18.8697 21 19.0286 21 19.3463 21Z" stroke="currentColor" stroke-width="2" stroke-linecap="round" stroke-linejoin="round"/>
</svg>
