<svg width="24" height="24" viewBox="0 0 24 24" fill="none" xmlns="http://www.w3.org/2000/svg">
<path d="M6.5 14.5H6.51M17.5 14.5H17.51M21 10L22 9M3 10L2 9M20.5 10L19.659 6.63583C19.334 5.33583 19.1715 4.68584 18.8091 4.20187C18.4893 3.77485 18.0615 3.44082 17.5697 3.23419C17.0123 3 16.3423 3 15.0023 3H8.99773C7.65772 3 6.98772 3 6.43031 3.23419C5.93849 3.44082 5.51067 3.77485 5.19093 4.20187C4.82854 4.68584 4.66604 5.33583 4.34104 6.63583L3.5 10H20.5ZM19.3463 22H19.6148C20.4409 22 20.854 22 21.1706 21.8418C21.4611 21.6966 21.6966 21.4611 21.8418 21.1706C22 20.854 22 20.4409 22 19.6148V14.8C22 13.1198 22 12.2798 21.673 11.638C21.3854 11.0735 20.9265 10.6146 20.362 10.327C19.7202 10 18.8802 10 17.2 10H6.8C5.11984 10 4.27976 10 3.63803 10.327C3.07354 10.6146 2.6146 11.0735 2.32698 11.638C2 12.2798 2 13.1198 2 14.8V19.6148C2 20.4409 2 20.854 2.15824 21.1706C2.30342 21.4611 2.53894 21.6966 2.82942 21.8418C3.14604 22 3.55908 22 4.38516 22H4.65371C4.97142 22 5.13028 22 5.27337 21.9719C5.67255 21.8936 6.02278 21.6564 6.24378 21.3149C6.32301 21.1925 6.382 21.045 6.5 20.75C6.618 20.455 6.67699 20.3075 6.75622 20.1851C6.97722 19.8436 7.32745 19.6064 7.72663 19.5281C7.86972 19.5 8.02858 19.5 8.34629 19.5H15.6537C15.9714 19.5 16.1303 19.5 16.2734 19.5281C16.6725 19.6064 17.0228 19.8436 17.2438 20.1851C17.323 20.3075 17.382 20.455 17.5 20.75C17.618 21.045 17.677 21.1925 17.7562 21.3149C17.9772 21.6564 18.3275 21.8936 18.7266 21.9719C18.8697 22 19.0286 22 19.3463 22ZM7 14.5C7 14.7761 6.77614 15 6.5 15C6.22386 15 6 14.7761 6 14.5C6 14.2239 6.22386 14 6.5 14C6.77614 14 7 14.2239 7 14.5ZM18 14.5C18 14.7761 17.7761 15 17.5 15C17.2239 15 17 14.7761 17 14.5C17 14.2239 17.2239 14 17.5 14C17.7761 14 18 14.2239 18 14.5Z" stroke="currentColor" stroke-width="2" stroke-linecap="round" stroke-linejoin="round"/>
</svg>
