<svg width="24" height="24" viewBox="0 0 24 24" fill="none" xmlns="http://www.w3.org/2000/svg">
<path d="M21.0001 14.5001L20.957 11.5804C20.9425 10.5922 20.9352 10.0981 20.7871 9.65593C20.6561 9.26465 20.4458 8.90462 20.1693 8.59832C19.8569 8.25221 19.43 8.00318 18.5764 7.50514L16.1692 6.10078C15.9234 5.95739 15.8005 5.88569 15.6721 5.82619C15.5579 5.77332 15.4406 5.72767 15.3207 5.68953C15.1858 5.64661 15.0468 5.61642 14.7687 5.55605L7.60145 4.00006M6.00007 9.66282L6.82141 10.2236C7.1128 10.4226 7.2585 10.522 7.39061 10.6369C7.50798 10.7389 7.61722 10.8499 7.71737 10.9689C7.83011 11.1028 7.92726 11.2501 8.12155 11.5446L10.1051 14.5515C10.3236 14.8828 10.4329 15.0484 10.5615 15.197C10.6758 15.3289 10.8014 15.4505 10.9368 15.5606C11.0893 15.6845 11.2583 15.7885 11.5963 15.9965L14.634 17.8657C15.4103 18.3434 16.4255 18.1212 16.9313 17.3628C17.4036 16.6547 17.2772 15.7061 16.6359 15.1464L14.4987 13.281L13.2587 12.0987C12.2465 11.1336 13.3271 9.48453 14.616 10.0272L15.8687 10.5537C16.2847 10.7285 16.4928 10.816 16.6555 10.9458C16.9002 11.1412 17.0777 11.4083 17.1629 11.7096C17.2196 11.9099 17.2196 12.1356 17.2196 12.5869M14.5001 13.0001H18.6001C19.4401 13.0001 19.8602 13.0001 20.1811 13.1636C20.4633 13.3074 20.6928 13.5368 20.8366 13.8191C21.0001 14.1399 21.0001 14.56 21.0001 15.4001V19.6001C21.0001 20.4401 21.0001 20.8602 20.8366 21.181C20.6928 21.4633 20.4633 21.6928 20.1811 21.8366C19.8602 22.0001 19.4401 22.0001 18.6001 22.0001H7.40007C6.55999 22.0001 6.13995 22.0001 5.81908 21.8366C5.53684 21.6928 5.30737 21.4633 5.16356 21.181C5.00007 20.8602 5.00007 20.4401 5.00007 19.6001V15.4001C5.00007 14.56 5.00007 14.1399 5.16356 13.8191C5.30737 13.5368 5.53684 13.3074 5.81908 13.1636C6.13995 13.0001 6.55999 13.0001 7.40007 13.0001H9.00007M5.00007 18.5001H21.0001M3.55958 10.8663C3.11044 10.7459 2.88587 10.6858 2.71484 10.587C2.25074 10.3191 1.96484 9.82388 1.96484 9.28799C1.96484 9.09051 2.02502 8.86594 2.14536 8.4168L3.43946 3.58717C3.55981 3.13802 3.61998 2.91345 3.71872 2.74243C3.98667 2.27833 4.48186 1.99243 5.01776 1.99243C5.21524 1.99243 5.43981 2.05261 5.88895 2.17295C6.33809 2.2933 6.56266 2.35347 6.73368 2.45221C7.19779 2.72016 7.48368 3.21535 7.48368 3.75125C7.48368 3.94873 7.42351 4.1733 7.30316 4.62244L6.00907 9.45207C5.88872 9.90121 5.82855 10.1258 5.72981 10.2968C5.46186 10.7609 4.96667 11.0468 4.43077 11.0468C4.23329 11.0468 4.00872 10.9866 3.55958 10.8663Z" stroke="currentColor" stroke-width="2" stroke-linecap="round" stroke-linejoin="round"/>
</svg>
