<svg width="24" height="24" viewBox="0 0 24 24" fill="none" xmlns="http://www.w3.org/2000/svg">
<path d="M17 2C17 2.46499 17 2.69748 16.9489 2.88823C16.8102 3.40587 16.4059 3.81019 15.8882 3.94889C15.6975 4 15.465 4 15 4L9 4C8.53501 4 8.30252 4 8.11177 3.94889C7.59413 3.81019 7.18981 3.40587 7.05111 2.88823C7 2.69748 7 2.46499 7 2M17 22C17 21.535 17 21.3025 16.9489 21.1118C16.8102 20.5941 16.4059 20.1898 15.8882 20.0511C15.6975 20 15.465 20 15 20H9C8.53501 20 8.30252 20 8.11177 20.0511C7.59413 20.1898 7.18981 20.5941 7.05111 21.1118C7 21.3025 7 21.535 7 22M19 13.8V10.2C19 9.07989 19 8.51984 18.782 8.09202C18.5903 7.71569 18.2843 7.40973 17.908 7.21799C17.4802 7 16.9201 7 15.8 7L8.2 7C7.07989 7 6.51984 7 6.09202 7.21799C5.71569 7.40973 5.40973 7.7157 5.21799 8.09202C5 8.51984 5 9.0799 5 10.2L5 13.8C5 14.9201 5 15.4802 5.21799 15.908C5.40973 16.2843 5.7157 16.5903 6.09202 16.782C6.51984 17 7.0799 17 8.2 17H15.8C16.9201 17 17.4802 17 17.908 16.782C18.2843 16.5903 18.5903 16.2843 18.782 15.908C19 15.4802 19 14.9201 19 13.8Z" stroke="currentColor" stroke-width="2" stroke-linecap="round" stroke-linejoin="round"/>
</svg>
