<svg width="24" height="24" viewBox="0 0 24 24" fill="none" xmlns="http://www.w3.org/2000/svg">
<path d="M22 17C21.535 17 21.3025 17 21.1118 16.9489C20.5941 16.8102 20.1898 16.4059 20.0511 15.8882C20 15.6975 20 15.465 20 15V9C20 8.53501 20 8.30252 20.0511 8.11177C20.1898 7.59413 20.5941 7.18981 21.1118 7.05111C21.3025 7 21.535 7 22 7M2 17C2.46499 17 2.69748 17 2.88823 16.9489C3.40587 16.8102 3.81019 16.4059 3.94889 15.8882C4 15.6975 4 15.465 4 15V9C4 8.53501 4 8.30252 3.94889 8.11177C3.81019 7.59413 3.40587 7.18981 2.88823 7.05111C2.69748 7 2.46499 7 2 7M10.2 19H13.8C14.9201 19 15.4802 19 15.908 18.782C16.2843 18.5903 16.5903 18.2843 16.782 17.908C17 17.4802 17 16.9201 17 15.8V8.2C17 7.0799 17 6.51984 16.782 6.09202C16.5903 5.71569 16.2843 5.40973 15.908 5.21799C15.4802 5 14.9201 5 13.8 5H10.2C9.07989 5 8.51984 5 8.09202 5.21799C7.71569 5.40973 7.40973 5.71569 7.21799 6.09202C7 6.51984 7 7.07989 7 8.2V15.8C7 16.9201 7 17.4802 7.21799 17.908C7.40973 18.2843 7.71569 18.5903 8.09202 18.782C8.51984 19 9.07989 19 10.2 19Z" stroke="currentColor" stroke-width="2" stroke-linecap="round" stroke-linejoin="round"/>
</svg>
