<svg width="24" height="24" viewBox="0 0 24 24" fill="none" xmlns="http://www.w3.org/2000/svg">
<path d="M9.21607 9.38989L5.40541 13.6513C3.79411 15.4532 2.66536 17.6206 2.13641 19.9284L2.11069 20.0406C1.85976 21.1354 2.75095 22.074 3.85288 21.8754C6.37066 21.4216 8.7443 20.2193 10.6576 18.4287L14.4961 14.8362M16.8113 12.0119C17.3126 10.6107 17.0479 9.035 15.9808 7.96792C14.9139 6.90109 13.3424 6.63798 11.9452 7.13434M8.77148 17.1538L10.138 18.5204M2 2L22 22M21.8746 7.91185L21.1487 7.18586C20.9814 7.01857 20.8977 6.93493 20.8222 6.8692C19.731 5.91911 18.1063 5.91911 17.0151 6.8692C16.9396 6.93492 16.8559 7.01857 16.6886 7.18586L16.5365 7.338C16.21 7.66451 16.21 8.19389 16.5365 8.5204C17.8425 9.82644 19.9601 9.82644 21.2661 8.5204L21.8746 7.91185ZM15.9616 2.00005L16.6876 2.72604C16.8549 2.89333 16.9385 2.97697 17.0043 3.05247C17.9544 4.14369 17.9544 5.76839 17.0043 6.85961C16.9385 6.9351 16.8549 7.01875 16.6876 7.18604L16.5355 7.33818C16.209 7.66469 15.6796 7.66469 15.3531 7.33818C14.047 6.03214 14.047 3.91463 15.3531 2.6086L15.9616 2.00005Z" stroke="currentColor" stroke-width="2" stroke-linecap="round" stroke-linejoin="round"/>
</svg>
