<svg width="24" height="24" viewBox="0 0 24 24" fill="none" xmlns="http://www.w3.org/2000/svg">
<path d="M9.73323 9.23127L11.8476 11.3456M8.77229 17.1538L10.1389 18.5203M10.6599 18.4286L15.6773 13.7329C17.3909 12.1292 17.5296 9.51441 15.9831 7.9679C14.4103 6.39517 11.7407 6.56916 10.15 8.34807L5.40771 13.6512C3.79641 15.4531 2.66765 17.6206 2.13871 19.9284L2.11299 20.0406C1.86206 21.1354 2.75325 22.0739 3.85518 21.8753C6.37295 21.4216 8.7466 20.2193 10.6599 18.4286ZM21.8754 7.9118L21.1495 7.18581C20.9822 7.01852 20.8985 6.93488 20.823 6.86915C19.7318 5.91906 18.1071 5.91906 17.0159 6.86915C16.9404 6.93488 16.8567 7.01852 16.6895 7.18581L16.5373 7.33795C16.2108 7.66446 16.2108 8.19384 16.5373 8.52035C17.8434 9.82639 19.9609 9.82639 21.2669 8.52035L21.8754 7.9118ZM15.9624 2L16.6884 2.72599C16.8557 2.89328 16.9394 2.97693 17.0051 3.05242C17.9552 4.14364 17.9552 5.76834 17.0051 6.85956C16.9394 6.93506 16.8557 7.0187 16.6884 7.18599L16.5363 7.33813C16.2098 7.66464 15.6804 7.66464 15.3539 7.33813C14.0478 6.03209 14.0478 3.91459 15.3539 2.60855L15.9624 2Z" stroke="currentColor" stroke-width="2" stroke-linecap="round" stroke-linejoin="round"/>
</svg>
