<svg width="24" height="24" viewBox="0 0 24 24" fill="none" xmlns="http://www.w3.org/2000/svg">
<path d="M9 18.8096H15M9.60156 11.4644V14.0265C9.60156 14.7221 9.60156 15.0699 9.74402 15.3074C9.87354 15.5233 10.0797 15.6824 10.3214 15.7529C10.5873 15.8305 10.9237 15.7423 11.5966 15.5659C11.7456 15.5269 11.82 15.5073 11.8956 15.4994C11.9651 15.4921 12.0352 15.4921 12.1047 15.4994C12.1803 15.5073 12.2548 15.5269 12.4037 15.5659C13.0766 15.7423 13.413 15.8305 13.6789 15.7529C13.9206 15.6824 14.1268 15.5233 14.2563 15.3074C14.3988 15.0699 14.3988 14.7221 14.3988 14.0265V11.6896M20 18.8V5.2C20 4.07989 20 3.51984 19.782 3.09202C19.5903 2.71569 19.2843 2.40973 18.908 2.21799C18.4802 2 17.9201 2 16.8 2L7.2 2C6.07989 2 5.51984 2 5.09202 2.21799C4.71569 2.40973 4.40973 2.7157 4.21799 3.09202C4 3.51984 4 4.0799 4 5.2L4 18.8C4 19.9201 4 20.4802 4.21799 20.908C4.40973 21.2843 4.7157 21.5903 5.09202 21.782C5.51984 22 6.0799 22 7.2 22H16.8C17.9201 22 18.4802 22 18.908 21.782C19.2843 21.5903 19.5903 21.2843 19.782 20.908C20 20.4802 20 19.9201 20 18.8ZM15.5 8.89714C15.5 10.8301 13.933 12.3971 12 12.3971C10.067 12.3971 8.5 10.8301 8.5 8.89714C8.5 6.96414 10.067 5.39714 12 5.39714C13.933 5.39714 15.5 6.96414 15.5 8.89714Z" stroke="currentColor" stroke-width="2" stroke-linecap="round" stroke-linejoin="round"/>
</svg>
