<svg width="24" height="24" viewBox="0 0 24 24" fill="none" xmlns="http://www.w3.org/2000/svg">
<path d="M11 20H5.2C4.0799 20 3.51984 20 3.09202 19.782C2.71569 19.5903 2.40973 19.2843 2.21799 18.908C2 18.4802 2 17.9201 2 16.8V7.2C2 6.0799 2 5.51984 2.21799 5.09202C2.40973 4.71569 2.71569 4.40973 3.09202 4.21799C3.51984 4 4.0799 4 5.2 4H18.8C19.9201 4 20.4802 4 20.908 4.21799C21.2843 4.40973 21.5903 4.71569 21.782 5.09202C22 5.51984 22 6.0799 22 7.2V8.27051M14.6895 18.3854V20.3175C14.6895 20.9869 14.6895 21.3216 14.827 21.556C14.9476 21.7616 15.1377 21.9173 15.3629 21.9951C15.6198 22.0838 15.9479 22.018 16.6043 21.8863L17.355 21.7356C17.4725 21.712 17.5313 21.7002 17.5906 21.6955C17.6433 21.6913 17.6962 21.6913 17.7489 21.6955C17.8082 21.7002 17.867 21.712 17.9846 21.7356L18.7353 21.8863C19.3916 22.018 19.7197 22.0838 19.9766 21.9951C20.2019 21.9173 20.3919 21.7616 20.5126 21.556C20.6501 21.3216 20.6501 20.9869 20.6501 20.3175V18.0864M6 8.27051H12M6 11.2705H9M6 14.2705H9M22 14.9088C22 17.3002 20.0614 19.2389 17.6699 19.2389C15.2785 19.2389 13.3398 17.3002 13.3398 14.9088C13.3398 12.5173 15.2785 10.5787 17.6699 10.5787C20.0614 10.5787 22 12.5173 22 14.9088Z" stroke="currentColor" stroke-width="2" stroke-linecap="round" stroke-linejoin="round"/>
</svg>
