<svg width="24" height="24" viewBox="0 0 24 24" fill="none" xmlns="http://www.w3.org/2000/svg">
<path d="M15 18H16.8C17.9201 18 18.4802 18 18.908 17.782C19.2843 17.5903 19.5903 17.2843 19.782 16.908C20 16.4802 20 15.9201 20 14.8V5.2C20 4.0799 20 3.51984 19.782 3.09202C19.5903 2.71569 19.2843 2.40973 18.908 2.21799C18.4802 2 17.9201 2 16.8 2H7.2C6.0799 2 5.51984 2 5.09202 2.21799C4.71569 2.40973 4.40973 2.7157 4.21799 3.09202C4 3.51984 4 4.0799 4 5.2V14.8C4 15.9201 4 16.4802 4.21799 16.908C4.40973 17.2843 4.7157 17.5903 5.09202 17.782C5.51984 18 6.0799 18 7.2 18H9M9.60156 18.0673V20.6294C9.60156 21.325 9.60156 21.6728 9.74403 21.9103C9.87354 22.1262 10.0797 22.2853 10.3214 22.3558C10.5873 22.4334 10.9237 22.3452 11.5966 22.1688C11.7456 22.1297 11.82 22.1102 11.8956 22.1023C11.9651 22.0949 12.0352 22.0949 12.1047 22.1023C12.1803 22.1102 12.2548 22.1297 12.4037 22.1688C13.0766 22.3452 13.413 22.4334 13.6789 22.3558C13.9206 22.2853 14.1268 22.1262 14.2563 21.9103C14.3988 21.6728 14.3988 21.325 14.3988 20.6294V18.2925M10 8.76658H14M8 5.76658H16M15.5 15.5C15.5 17.433 13.933 19 12 19C10.067 19 8.5 17.433 8.5 15.5C8.5 13.567 10.067 12 12 12C13.933 12 15.5 13.567 15.5 15.5Z" stroke="currentColor" stroke-width="2" stroke-linecap="round" stroke-linejoin="round"/>
</svg>
