<svg width="24" height="24" viewBox="0 0 24 24" fill="none" xmlns="http://www.w3.org/2000/svg">
<path d="M8.5 20H5.2C4.0799 20 3.51984 20 3.09202 19.782C2.71569 19.5903 2.40973 19.2843 2.21799 18.908C2 18.4802 2 17.9201 2 16.8V7.2C2 6.0799 2 5.51984 2.21799 5.09202C2.40973 4.71569 2.71569 4.40973 3.09202 4.21799C3.51984 4 4.0799 4 5.2 4H18.8C19.9201 4 20.4802 4 20.908 4.21799C21.2843 4.40973 21.5903 4.71569 21.782 5.09202C22 5.51984 22 6.0799 22 7.2V16.8C22 17.9201 22 18.4802 21.782 18.908C21.5903 19.2843 21.2843 19.5903 20.908 19.782C20.5803 19.949 20.1751 19.9881 19.5 19.9972M12.6 20H15.4C15.9601 20 16.2401 20 16.454 19.891C16.6422 19.7951 16.7951 19.6422 16.891 19.454C17 19.2401 17 18.9601 17 18.4V17.6C17 17.0399 17 16.7599 16.891 16.546C16.7951 16.3578 16.6422 16.2049 16.454 16.109C16.2401 16 15.9601 16 15.4 16H12.6C12.0399 16 11.7599 16 11.546 16.109C11.3578 16.2049 11.2049 16.3578 11.109 16.546C11 16.7599 11 17.0399 11 17.6V18.4C11 18.9601 11 19.2401 11.109 19.454C11.2049 19.6422 11.3578 19.7951 11.546 19.891C11.7599 20 12.0399 20 12.6 20Z" stroke="currentColor" stroke-width="2" stroke-linecap="round" stroke-linejoin="round"/>
</svg>
