<svg width="24" height="24" viewBox="0 0 24 24" fill="none" xmlns="http://www.w3.org/2000/svg">
<path d="M11 8H13M6.8 19.5H17.2C18.8802 19.5 19.7202 19.5 20.362 19.173C20.9265 18.8854 21.3854 18.4265 21.673 17.862C22 17.2202 22 16.3802 22 14.7V9.3C22 7.61984 22 6.77976 21.673 6.13803C21.3854 5.57354 20.9265 5.1146 20.362 4.82698C19.7202 4.5 18.8802 4.5 17.2 4.5H6.8C5.11984 4.5 4.27976 4.5 3.63803 4.82698C3.07354 5.1146 2.6146 5.57354 2.32698 6.13803C2 6.77976 2 7.61984 2 9.3V14.7C2 16.3802 2 17.2202 2.32698 17.862C2.6146 18.4265 3.07354 18.8854 3.63803 19.173C4.27976 19.5 5.11984 19.5 6.8 19.5ZM10 13C10 11.8954 9.10457 11 8 11C6.89543 11 6 11.8954 6 13C6 14.1046 6.89543 15 8 15C9.10457 15 10 14.1046 10 13ZM18 13C18 11.8954 17.1046 11 16 11C14.8954 11 14 11.8954 14 13C14 14.1046 14.8954 15 16 15C17.1046 15 18 14.1046 18 13Z" stroke="currentColor" stroke-width="2" stroke-linecap="round" stroke-linejoin="round"/>
</svg>
