<svg width="24" height="24" viewBox="0 0 24 24" fill="none" xmlns="http://www.w3.org/2000/svg">
<path d="M15 21V13H18.6C19.4401 13 19.8601 13 20.181 13.1635C20.4632 13.3073 20.6927 13.5368 20.8365 13.819C21 14.1399 21 14.5599 21 15.4V18.6C21 19.4401 21 19.8601 20.8365 20.181C20.6927 20.4632 20.4632 20.6927 20.181 20.8365C19.8601 21 19.4401 21 18.6 21H15ZM15 21H9M15 21V10.4C15 9.55992 15 9.13988 14.8365 8.81901C14.6927 8.53677 14.4632 8.3073 14.181 8.16349C13.8601 8 13.4401 8 12.6 8H9V21M9 21H5.4C4.55992 21 4.13988 21 3.81901 20.8365C3.53677 20.6927 3.3073 20.4632 3.16349 20.181C3 19.8601 3 19.4401 3 18.6V5.4C3 4.55992 3 4.13988 3.16349 3.81901C3.3073 3.53677 3.53677 3.3073 3.81901 3.16349C4.13988 3 4.55992 3 5.4 3H6.6C7.44008 3 7.86012 3 8.18099 3.16349C8.46323 3.3073 8.6927 3.53677 8.83651 3.81901C9 4.13988 9 4.55992 9 5.4V21Z" stroke="currentColor" stroke-width="2" stroke-linecap="round" stroke-linejoin="round"/>
</svg>
