<svg width="24" height="24" viewBox="0 0 24 24" fill="none" xmlns="http://www.w3.org/2000/svg">
<path d="M9 21V13H5.4C4.55992 13 4.13988 13 3.81901 13.1635C3.53677 13.3073 3.3073 13.5368 3.16349 13.819C3 14.1399 3 14.5599 3 15.4V18.6C3 19.4401 3 19.8601 3.16349 20.181C3.3073 20.4632 3.53677 20.6927 3.81901 20.8365C4.13988 21 4.55992 21 5.4 21H9ZM9 21H15M9 21V10.4C9 9.55992 9 9.13988 9.16349 8.81901C9.3073 8.53677 9.53677 8.3073 9.81901 8.16349C10.1399 8 10.5599 8 11.4 8H15V21M15 21H18.6C19.4401 21 19.8601 21 20.181 20.8365C20.4632 20.6927 20.6927 20.4632 20.8365 20.181C21 19.8601 21 19.4401 21 18.6V5.4C21 4.55992 21 4.13988 20.8365 3.81901C20.6927 3.53677 20.4632 3.3073 20.181 3.16349C19.8601 3 19.4401 3 18.6 3H17.4C16.5599 3 16.1399 3 15.819 3.16349C15.5368 3.3073 15.3073 3.53677 15.1635 3.81901C15 4.13988 15 4.55992 15 5.4V21Z" stroke="currentColor" stroke-width="2" stroke-linecap="round" stroke-linejoin="round"/>
</svg>
