<svg width="24" height="24" viewBox="0 0 24 24" fill="none" xmlns="http://www.w3.org/2000/svg">
<path d="M15.8888 7.90555C19.3374 8.31918 22.0105 11.2549 22.0105 14.8149C22.0105 15.5015 21.9111 16.1649 21.7258 16.7915C21.5003 17.5542 21.4084 18.3691 21.6571 19.1245L21.9619 20.0504C22.325 21.1537 21.3504 22.2333 20.2159 21.9846L18.2437 21.5523C17.693 21.4316 17.1229 21.4847 16.5726 21.6074C16.083 21.7166 15.5738 21.7742 15.0513 21.7742C11.5807 21.7742 8.70356 19.2338 8.17783 15.9111M6.39452 9.39078H6.40317M8.99069 9.39078H8.99934M11.5869 9.39078H11.5955M15.9002 9.00418C15.9002 12.8477 12.7844 15.9634 8.94091 15.9634C8.41833 15.9634 7.90921 15.9058 7.41954 15.7967C6.86925 15.6739 6.29918 15.6208 5.74846 15.7416L3.77627 16.1738C2.64171 16.4225 1.66716 15.3429 2.03031 14.2396L2.33506 13.3138C2.58373 12.5583 2.49184 11.7434 2.26633 10.9807C2.08108 10.3542 1.98164 9.69079 1.98164 9.00418C1.98164 5.16069 5.09741 2.04492 8.94091 2.04492C12.3467 2.04492 15.1811 4.49148 15.7825 7.723C15.8598 8.13827 15.9002 8.56651 15.9002 9.00418Z" stroke="currentColor" stroke-width="2" stroke-linecap="round" stroke-linejoin="round"/>
</svg>
