<svg width="24" height="24" viewBox="0 0 24 24" fill="none" xmlns="http://www.w3.org/2000/svg">
<path d="M8 15.9889C8 17.3049 8 17.9629 8.25432 18.4655C8.47802 18.9076 8.83498 19.2671 9.27402 19.4923C9.77315 19.7484 10.4265 19.7484 11.7333 19.7484H12.0923C12.5826 19.7484 12.8277 19.7484 13.0661 19.7871C13.2778 19.8214 13.4851 19.8783 13.6847 19.9568C13.9094 20.0452 14.1202 20.1703 14.5418 20.4205L17.1019 21.9396C17.8906 22.4076 18.8889 21.8392 18.8889 20.9221C18.8889 20.2718 19.4179 19.7794 20.0616 19.6876C20.3238 19.6502 20.536 19.5898 20.726 19.4923C21.165 19.2671 21.522 18.9076 21.7457 18.4655C22 17.9629 22 17.3049 22 15.9889V11.7595C22 10.4436 22 9.78558 21.7457 9.28295C21.522 8.84083 21.165 8.48137 20.726 8.2561C20.2269 8 19.5735 8 18.2667 8H16M6.39453 8H6.40319M8.9907 8H8.99936M11.5869 8H11.5955M5.73333 2H12.2667C13.5735 2 14.2269 2 14.726 2.2561C15.165 2.48137 15.522 2.84083 15.7457 3.28295C16 3.78558 16 4.44355 16 5.7595V9.98894C16 11.3049 16 11.9629 15.7457 12.4655C15.522 12.9076 15.165 13.2671 14.726 13.4923C14.2269 13.7484 13.5735 13.7484 12.2667 13.7484H11.9077C11.4174 13.7484 11.1723 13.7484 10.9339 13.7871C10.7222 13.8214 10.5149 13.8783 10.3153 13.9568C10.0906 14.0452 9.87978 14.1703 9.45817 14.4205L6.89811 15.9396C6.1094 16.4076 5.11111 15.8392 5.11111 14.9221C5.11111 14.2718 4.58209 13.7794 3.93838 13.6876C3.67625 13.6502 3.46396 13.5898 3.27402 13.4923C2.83498 13.2671 2.47802 12.9076 2.25432 12.4655C2 11.9629 2 11.3049 2 9.98894V5.7595C2 4.44355 2 3.78558 2.25432 3.28295C2.47802 2.84083 2.83498 2.48137 3.27402 2.2561C3.77315 2 4.42654 2 5.73333 2Z" stroke="currentColor" stroke-width="2" stroke-linecap="round" stroke-linejoin="round"/>
</svg>
