<svg width="24" height="24" viewBox="0 0 24 24" fill="none" xmlns="http://www.w3.org/2000/svg">
<path d="M8.55912 12L10.8537 14.3705L15.4429 9.6294M7.60772 3.93488C7.93885 3.87568 8.10441 3.84608 8.26411 3.7988C8.46538 3.73921 8.65984 3.65866 8.8443 3.55847C8.99065 3.47898 9.12865 3.38284 9.40465 3.19057C10.2511 2.6009 10.6743 2.30607 11.1268 2.16822C11.6967 1.99463 12.3053 1.99463 12.8752 2.16822C13.3277 2.30607 13.7509 2.6009 14.5974 3.19057C14.8734 3.38284 15.0114 3.47898 15.1577 3.55847C15.3422 3.65866 15.5366 3.73921 15.7379 3.7988C15.8976 3.84608 16.0632 3.87568 16.3943 3.93488C17.4098 4.11644 17.9175 4.20722 18.335 4.42972C18.8607 4.70993 19.2911 5.14032 19.5713 5.66603C19.7938 6.08347 19.8845 6.59121 20.0661 7.60668C20.1253 7.93781 20.1549 8.10337 20.2022 8.26307C20.2618 8.46434 20.3423 8.6588 20.4425 8.84326C20.522 8.98961 20.6181 9.12761 20.8104 9.40362C21.4001 10.25 21.6949 10.6733 21.8328 11.1258C22.0064 11.6956 22.0064 12.3043 21.8328 12.8742C21.6949 13.3267 21.4001 13.7499 20.8104 14.5963C20.6181 14.8723 20.522 15.0103 20.4425 15.1567C20.3423 15.3411 20.2618 15.5356 20.2022 15.7369C20.1549 15.8966 20.1253 16.0621 20.0661 16.3933C19.8845 17.4087 19.7938 17.9165 19.5713 18.3339C19.2911 18.8596 18.8607 19.29 18.335 19.5702C17.9175 19.7927 17.4098 19.8835 16.3943 20.0651C16.0632 20.1243 15.8976 20.1539 15.7379 20.2012C15.5366 20.2607 15.3422 20.3413 15.1577 20.4415C15.0114 20.521 14.8734 20.6171 14.5974 20.8094C13.7509 21.399 13.3277 21.6939 12.8752 21.8317C12.3053 22.0053 11.6967 22.0053 11.1268 21.8317C10.6743 21.6939 10.2511 21.399 9.40465 20.8094C9.12865 20.6171 8.99065 20.521 8.8443 20.4415C8.65984 20.3413 8.46538 20.2607 8.2641 20.2012C8.10441 20.1539 7.93885 20.1243 7.60772 20.0651C6.59225 19.8835 6.08451 19.7927 5.66707 19.5702C5.14136 19.29 4.71097 18.8596 4.43076 18.3339C4.20826 17.9165 4.11748 17.4087 3.93592 16.3933C3.87671 16.0621 3.84711 15.8966 3.79983 15.7369C3.74024 15.5356 3.65969 15.3411 3.55951 15.1567C3.48002 15.0103 3.38388 14.8723 3.1916 14.5963C2.60194 13.7499 2.3071 13.3267 2.16926 12.8742C1.99566 12.3043 1.99566 11.6956 2.16926 11.1258C2.3071 10.6733 2.60194 10.25 3.1916 9.40362C3.38388 9.12761 3.48002 8.98961 3.55951 8.84326C3.65969 8.6588 3.74024 8.46434 3.79983 8.26307C3.84711 8.10337 3.87671 7.93781 3.93592 7.60668C4.11748 6.59121 4.20826 6.08347 4.43076 5.66603C4.71097 5.14032 5.14136 4.70993 5.66707 4.42972C6.08451 4.20722 6.59225 4.11644 7.60772 3.93488Z" stroke="currentColor" stroke-width="2" stroke-linecap="round" stroke-linejoin="round"/>
</svg>
