<svg width="24" height="24" viewBox="0 0 24 24" fill="none" xmlns="http://www.w3.org/2000/svg">
<path d="M8.55772 12L10.8523 14.3706L15.4415 9.62945M8.20095 3.62545C8.5615 3.63761 8.74177 3.64369 8.91573 3.6189C9.14414 3.58635 9.36519 3.51453 9.5691 3.40661C9.72441 3.32441 9.86668 3.21353 10.1512 2.99177C10.7412 2.53195 11.0362 2.30203 11.3549 2.19342C11.7732 2.05084 12.227 2.05084 12.6453 2.19342C12.964 2.30203 13.259 2.53195 13.849 2.99177C14.1335 3.21353 14.2758 3.32441 14.4311 3.40661C14.635 3.51453 14.8561 3.58635 15.0845 3.6189C15.2584 3.64369 15.4387 3.63761 15.7992 3.62545C16.5468 3.60023 16.9206 3.58763 17.2423 3.68707C17.6645 3.81761 18.0316 4.08433 18.2863 4.44556C18.4802 4.72075 18.5838 5.08014 18.7908 5.79894C18.8906 6.14559 18.9406 6.31892 19.0179 6.47671C19.1194 6.68387 19.2561 6.87191 19.4217 7.0325C19.5479 7.15481 19.6973 7.25585 19.9961 7.45793C20.6158 7.87696 20.9256 8.08647 21.1274 8.35599C21.3922 8.70978 21.5324 9.14134 21.5261 9.58325C21.5213 9.9199 21.3938 10.2715 21.1388 10.9747C21.0158 11.3138 20.9543 11.4834 20.9241 11.6565C20.8845 11.8838 20.8845 12.1162 20.9241 12.3435C20.9543 12.5166 21.0158 12.6862 21.1388 13.0253C21.3938 13.7286 21.5213 14.0802 21.5261 14.4168C21.5324 14.8587 21.3922 15.2903 21.1274 15.6441C20.9256 15.9136 20.6158 16.1231 19.9961 16.5421C19.6973 16.7442 19.5479 16.8452 19.4217 16.9676C19.2561 17.1281 19.1194 17.3162 19.0179 17.5233C18.9406 17.6811 18.8906 17.8545 18.7908 18.2011C18.5838 18.9199 18.4802 19.2793 18.2863 19.5545C18.0316 19.9157 17.6645 20.1824 17.2423 20.313C16.9206 20.4124 16.5468 20.3998 15.7992 20.3746C15.4387 20.3624 15.2584 20.3564 15.0845 20.3812C14.8561 20.4137 14.635 20.4855 14.4311 20.5934C14.2758 20.6756 14.1335 20.7865 13.849 21.0083C13.259 21.4681 12.964 21.698 12.6453 21.8066C12.227 21.9492 11.7732 21.9492 11.3549 21.8066C11.0362 21.698 10.7412 21.4681 10.1512 21.0083C9.86668 20.7865 9.72441 20.6756 9.5691 20.5934C9.36519 20.4855 9.14414 20.4137 8.91573 20.3812C8.74177 20.3564 8.5615 20.3624 8.20095 20.3746C7.45336 20.3998 7.07957 20.4124 6.75791 20.313C6.33567 20.1824 5.96856 19.9157 5.71394 19.5545C5.51996 19.2793 5.41644 18.9199 5.2094 18.2011C5.10956 17.8545 5.05963 17.6811 4.9823 17.5233C4.88076 17.3162 4.74414 17.1281 4.57849 16.9676C4.45232 16.8452 4.30291 16.7442 4.00407 16.5421C3.38444 16.1231 3.07462 15.9136 2.87284 15.6441C2.60798 15.2903 2.46775 14.8587 2.47408 14.4168C2.4789 14.0802 2.6064 13.7286 2.8614 13.0253C2.98438 12.6862 3.04587 12.5166 3.07605 12.3435C3.11568 12.1162 3.11568 11.8838 3.07605 11.6565C3.04587 11.4834 2.98438 11.3138 2.8614 10.9747C2.6064 10.2715 2.4789 9.9199 2.47408 9.58325C2.46775 9.14134 2.60798 8.70978 2.87284 8.35599C3.07462 8.08647 3.38444 7.87696 4.00407 7.45793C4.30291 7.25585 4.45232 7.15481 4.57849 7.0325C4.74414 6.87191 4.88076 6.68387 4.9823 6.47671C5.05963 6.31892 5.10956 6.14559 5.2094 5.79894C5.41644 5.08014 5.51996 4.72075 5.71394 4.44556C5.96856 4.08433 6.33567 3.81761 6.75791 3.68707C7.07957 3.58763 7.45336 3.60023 8.20095 3.62545Z" stroke="currentColor" stroke-width="2" stroke-linecap="round" stroke-linejoin="round"/>
</svg>
