<svg width="24" height="24" viewBox="0 0 24 24" fill="none" xmlns="http://www.w3.org/2000/svg">
<path d="M4.18342 4.38805L4.84371 5.13906L4.18342 4.38805ZM3.29437 12.8639L4.09237 12.2613L3.29437 12.8639ZM20.7239 12.8639L21.5219 13.4666L20.7239 12.8639ZM19.8349 4.38805L19.1849 5.14802L19.8349 4.38805ZM10.4178 20.0788L9.73879 20.8129L10.4178 20.0788ZM11.5679 20.9411L11.8621 19.9854L11.5679 20.9411ZM13.6005 20.0788L12.9214 19.3448L13.6005 20.0788ZM12.4504 20.9411L12.7446 21.8969L12.4504 20.9411ZM11.8838 5.08992L11.1333 5.75078L11.8838 5.08992ZM11.9758 5.17524L12.3088 4.23231L11.9758 5.17524ZM12.1345 5.08988L11.3839 4.42918L12.1345 5.08988ZM12.0425 5.17523L12.3756 6.11809L12.0425 5.17523ZM10.2268 10.3536C9.84265 9.95672 9.20957 9.94641 8.81274 10.3305C8.41591 10.7146 8.4056 11.3477 8.78971 11.7446L10.2268 10.3536ZM11.8028 13.4196L11.0843 14.1151C11.2727 14.3097 11.532 14.4196 11.8028 14.4196C12.0737 14.4196 12.333 14.3097 12.5214 14.1151L11.8028 13.4196ZM17.1106 9.37398C17.4947 8.97715 17.4844 8.34407 17.0875 7.95995C16.6907 7.57584 16.0576 7.58615 15.6735 7.98298L17.1106 9.37398ZM12.6343 4.42906C10.3285 1.81049 6.45915 1.0557 3.52313 3.63704L4.84371 5.13906C6.80638 3.41349 9.42332 3.80884 11.1333 5.75078L12.6343 4.42906ZM3.52313 3.63704C0.629576 6.18106 0.216429 10.4477 2.49638 13.4666L4.09237 12.2613C2.44424 10.079 2.7353 6.99278 4.84371 5.13906L3.52313 3.63704ZM21.5219 13.4666C23.7934 10.4589 23.4446 6.15945 20.4848 3.62809L19.1849 5.14802C21.3131 6.96812 21.5826 10.0677 19.9259 12.2613L21.5219 13.4666ZM20.4848 3.62809C17.5169 1.08976 13.6958 1.80248 11.3839 4.42918L12.8851 5.75059C14.5856 3.8187 17.17 3.42476 19.1849 5.14802L20.4848 3.62809ZM2.49638 13.4666C3.92008 15.3517 7.64377 18.875 9.73879 20.8129L11.0969 19.3448C8.94928 17.3581 5.38381 13.9713 4.09237 12.2613L2.49638 13.4666ZM14.2795 20.8129C16.3745 18.875 20.0982 15.3517 21.5219 13.4666L19.9259 12.2613C18.6345 13.9713 15.069 17.3581 12.9214 19.3448L14.2795 20.8129ZM9.73879 20.8129C10.0014 21.0558 10.2417 21.2792 10.4595 21.4499C10.6895 21.63 10.9495 21.7971 11.2737 21.8969L11.8621 19.9854C11.8597 19.9847 11.8193 19.9745 11.6931 19.8756C11.5547 19.7672 11.3833 19.6097 11.0969 19.3448L9.73879 20.8129ZM12.9214 19.3448C12.635 19.6097 12.4636 19.7672 12.3252 19.8756C12.199 19.9745 12.1586 19.9847 12.1562 19.9854L12.7446 21.8969C13.0688 21.7971 13.3288 21.63 13.5588 21.4499C13.7766 21.2792 14.0169 21.0558 14.2795 20.8129L12.9214 19.3448ZM11.2737 21.8969C11.7474 22.0427 12.2709 22.0427 12.7446 21.8969L12.1562 19.9854C12.0659 20.0132 11.9524 20.0132 11.8621 19.9854L11.2737 21.8969ZM11.1333 5.75078C11.1448 5.76381 11.1922 5.81884 11.242 5.86702C11.2935 5.91685 11.429 6.04266 11.6429 6.11817L12.3088 4.23231C12.4981 4.29915 12.6102 4.40785 12.633 4.42996C12.6483 4.4448 12.657 4.45462 12.6542 4.45146C12.6515 4.44849 12.647 4.4435 12.6343 4.42906L11.1333 5.75078ZM11.3839 4.42918C11.3711 4.44362 11.3667 4.44862 11.364 4.45159C11.3611 4.45476 11.3698 4.44494 11.3852 4.43009C11.408 4.408 11.52 4.29926 11.7093 4.23237L12.3756 6.11809C12.5895 6.04253 12.725 5.91667 12.7765 5.86685C12.8262 5.81866 12.8737 5.76362 12.8851 5.75059L11.3839 4.42918ZM11.6429 6.11817C11.8807 6.20215 12.1378 6.20213 12.3756 6.11809L11.7093 4.23237C11.9025 4.16408 12.1156 4.16406 12.3088 4.23231L11.6429 6.11817ZM8.78971 11.7446L11.0843 14.1151L12.5214 12.7241L10.2268 10.3536L8.78971 11.7446ZM12.5214 14.1151L17.1106 9.37398L15.6735 7.98298L11.0843 12.7241L12.5214 14.1151Z" fill="currentColor"/>
</svg>
