<svg width="24" height="24" viewBox="0 0 24 24" fill="none" xmlns="http://www.w3.org/2000/svg">
<path d="M8.88782 12.196L10.6363 14.0694C10.8396 14.2873 10.9413 14.3962 11.0601 14.4366C11.1645 14.4721 11.2778 14.4721 11.3822 14.4366C11.501 14.3962 11.6027 14.2873 11.806 14.0694L15.8878 9.69604M16.9373 21.0627L21.0627 16.9373C21.4086 16.5914 21.5816 16.4184 21.7053 16.2166C21.8149 16.0376 21.8957 15.8425 21.9447 15.6385C22 15.4083 22 15.1637 22 14.6745V9.32548C22 8.8363 22 8.59171 21.9447 8.36154C21.8957 8.15746 21.8149 7.96237 21.7053 7.78343C21.5816 7.5816 21.4086 7.40864 21.0627 7.06274L16.9373 2.93726C16.5914 2.59135 16.4184 2.4184 16.2166 2.29472C16.0376 2.18506 15.8425 2.10425 15.6385 2.05526C15.4083 2 15.1637 2 14.6745 2H9.32548C8.8363 2 8.59171 2 8.36154 2.05526C8.15746 2.10425 7.96237 2.18506 7.78343 2.29472C7.5816 2.4184 7.40865 2.59135 7.06274 2.93726L2.93726 7.06274C2.59135 7.40865 2.4184 7.5816 2.29472 7.78343C2.18506 7.96237 2.10425 8.15746 2.05526 8.36154C2 8.59171 2 8.8363 2 9.32548L2 14.6745C2 15.1637 2 15.4083 2.05526 15.6385C2.10425 15.8425 2.18506 16.0376 2.29472 16.2166C2.4184 16.4184 2.59136 16.5914 2.93726 16.9373L7.06274 21.0627C7.40865 21.4086 7.5816 21.5816 7.78343 21.7053C7.96237 21.8149 8.15746 21.8957 8.36154 21.9447C8.59171 22 8.8363 22 9.32548 22H14.6745C15.1637 22 15.4083 22 15.6385 21.9447C15.8425 21.8957 16.0376 21.8149 16.2166 21.7053C16.4184 21.5816 16.5914 21.4086 16.9373 21.0627Z" stroke="currentColor" stroke-width="2" stroke-linecap="round" stroke-linejoin="round"/>
</svg>
