<svg width="24" height="24" viewBox="0 0 24 24" fill="none" xmlns="http://www.w3.org/2000/svg">
<path d="M8.5574 12L10.852 14.3706L15.4412 9.62945M8.17048 3.81163C8.62337 3.88765 8.84982 3.92565 9.06592 3.89916C9.25726 3.87571 9.44229 3.81559 9.61088 3.7221C9.80127 3.61651 9.96213 3.45266 10.2838 3.12495C10.8841 2.51351 11.1843 2.20779 11.5305 2.09387C11.835 1.99369 12.1636 1.99369 12.4681 2.09387C12.8143 2.20779 13.1145 2.51351 13.7147 3.12495C14.0365 3.45266 14.1973 3.61651 14.3877 3.7221C14.5563 3.81559 14.7413 3.87571 14.9327 3.89916C15.1488 3.92565 15.3752 3.88765 15.8281 3.81163C16.6731 3.66979 17.0957 3.59888 17.4427 3.71024C17.748 3.80817 18.0138 4.0013 18.2012 4.26132C18.4144 4.557 18.4775 4.98075 18.6038 5.82825C18.6714 6.28247 18.7052 6.50958 18.7972 6.70692C18.8786 6.88165 18.993 7.03904 19.134 7.17049C19.2933 7.31894 19.4988 7.42129 19.9099 7.626C20.6769 8.00794 21.0604 8.19892 21.2757 8.49302C21.4651 8.75165 21.5667 9.06415 21.5655 9.3847C21.5641 9.7492 21.3661 10.1291 20.9701 10.889C20.7578 11.2962 20.6517 11.4998 20.6101 11.7135C20.5733 11.9028 20.5733 12.0973 20.6101 12.2865C20.6517 12.5002 20.7578 12.7039 20.9701 13.1111C21.3661 13.8709 21.5641 14.2509 21.5655 14.6154C21.5667 14.9359 21.4651 15.2484 21.2757 15.507C21.0604 15.8011 20.6769 15.9921 19.9099 16.3741C19.4988 16.5788 19.2933 16.6811 19.134 16.8296C18.993 16.961 18.8786 17.1184 18.7972 17.2931C18.7052 17.4905 18.6714 17.7176 18.6038 18.1718C18.4775 19.0193 18.4144 19.4431 18.2012 19.7387C18.0138 19.9988 17.748 20.1919 17.4427 20.2898C17.0957 20.4012 16.6731 20.3303 15.8281 20.1884C15.3752 20.1124 15.1488 20.0744 14.9327 20.1009C14.7413 20.1244 14.5563 20.1845 14.3877 20.278C14.1973 20.3836 14.0365 20.5474 13.7147 20.8751C13.1145 21.4865 12.8143 21.7923 12.4681 21.9062C12.1636 22.0064 11.835 22.0064 11.5305 21.9062C11.1843 21.7923 10.8841 21.4865 10.2838 20.8751C9.96213 20.5474 9.80127 20.3836 9.61088 20.278C9.44229 20.1845 9.25726 20.1244 9.06592 20.1009C8.84982 20.0744 8.62337 20.1124 8.17048 20.1884C7.32545 20.3303 6.90293 20.4012 6.55585 20.2898C6.25063 20.1919 5.9848 19.9988 5.79735 19.7387C5.58418 19.4431 5.52107 19.0193 5.39483 18.1718C5.32717 17.7176 5.29335 17.4905 5.20138 17.2931C5.11994 17.1184 5.00558 16.961 4.86457 16.8296C4.70532 16.6811 4.49978 16.5788 4.08869 16.3741C3.32168 15.9921 2.93818 15.8011 2.72284 15.507C2.53347 15.2484 2.43193 14.9359 2.43312 14.6154C2.43446 14.2509 2.63247 13.8709 3.02849 13.1111C3.24074 12.7039 3.34686 12.5002 3.38845 12.2865C3.42527 12.0973 3.42527 11.9028 3.38845 11.7135C3.34686 11.4998 3.24074 11.2962 3.02849 10.889C2.63247 10.1291 2.43446 9.7492 2.43312 9.3847C2.43193 9.06415 2.53347 8.75165 2.72284 8.49302C2.93818 8.19892 3.32168 8.00794 4.08869 7.626C4.49978 7.42129 4.70532 7.31894 4.86457 7.17049C5.00558 7.03904 5.11994 6.88165 5.20138 6.70692C5.29335 6.50958 5.32717 6.28247 5.39483 5.82825C5.52107 4.98075 5.58418 4.557 5.79735 4.26132C5.9848 4.0013 6.25063 3.80817 6.55585 3.71024C6.90293 3.59888 7.32545 3.66979 8.17048 3.81163Z" stroke="currentColor" stroke-width="2" stroke-linecap="round" stroke-linejoin="round"/>
</svg>
