<svg width="24" height="24" viewBox="0 0 24 24" fill="none" xmlns="http://www.w3.org/2000/svg">
<path d="M3.74168 9.39482L2.76352 15.9219C2.63901 16.7527 2.57676 17.1681 2.69089 17.5097C2.79128 17.8101 2.98421 18.0711 3.24202 18.2551C3.53511 18.4644 3.95051 18.5266 4.78132 18.6511L17.8355 20.6074C18.6663 20.7319 19.0817 20.7942 19.4233 20.6801C19.7237 20.5797 19.9847 20.3867 20.1687 20.1289C20.378 19.8358 20.4402 19.4204 20.5647 18.5896L21.5429 12.0625M3.74168 9.39482L21.5429 12.0625M3.74168 9.39482C3.74168 9.39482 4.22827 6.72215 6.14998 4.94111C7.11081 4.0506 8.25032 3.63732 9.14964 3.44667C9.40667 3.39218 9.53519 3.36493 9.93722 3.38827C10.19 3.40294 10.7379 3.53462 10.9697 3.63644C11.3384 3.79837 11.535 3.95757 11.9282 4.27598L21.5429 12.0625M7.52225 13.4049L7.52982 13.406M12.1394 16.6616L12.147 16.6627M17.409 14.8863L17.4165 14.8874M7.90053 13.4615C7.86923 13.6705 7.67448 13.8145 7.46556 13.7831C7.25664 13.7518 7.11266 13.5571 7.14397 13.3482C7.17528 13.1393 7.37002 12.9953 7.57894 13.0266C7.78786 13.0579 7.93184 13.2526 7.90053 13.4615ZM12.5177 16.7183C12.4864 16.9272 12.2917 17.0712 12.0828 17.0399C11.8738 17.0085 11.7299 16.8138 11.7612 16.6049C11.7925 16.396 11.9872 16.252 12.1961 16.2833C12.405 16.3146 12.549 16.5093 12.5177 16.7183ZM17.7873 14.943C17.7559 15.1519 17.5612 15.2959 17.3523 15.2646C17.1434 15.2333 16.9994 15.0385 17.0307 14.8296C17.062 14.6207 17.2567 14.4767 17.4657 14.508C17.6746 14.5393 17.8186 14.7341 17.7873 14.943Z" stroke="currentColor" stroke-width="2" stroke-linecap="round" stroke-linejoin="round"/>
</svg>
