<svg width="24" height="24" viewBox="0 0 24 24" fill="none" xmlns="http://www.w3.org/2000/svg">
<path d="M15 22V23H16V22H15ZM9 22H8V23H9V22ZM14.181 10.1635L14.635 9.27248L14.181 10.1635ZM14.8365 10.819L15.7275 10.365L14.8365 10.819ZM9.81901 10.1635L9.36502 9.27248L9.81901 10.1635ZM9.16349 10.819L8.27248 10.365L9.16349 10.819ZM4 21C3.44772 21 3 21.4477 3 22C3 22.5523 3.44772 23 4 23V21ZM20 23C20.5523 23 21 22.5523 21 22C21 21.4477 20.5523 21 20 21V23ZM13 11C13 10.4477 12.5523 10 12 10C11.4477 10 11 10.4477 11 11H13ZM11 13C11 13.5523 11.4477 14 12 14C12.5523 14 13 13.5523 13 13H11ZM11.4 11H12.6V9H11.4V11ZM14 12.4V22H16V12.4H14ZM15 21H9V23H15V21ZM10 22V12.4H8V22H10ZM12.6 11C13.0365 11 13.3038 11.0008 13.5038 11.0171C13.5969 11.0247 13.6533 11.0343 13.6875 11.0423C13.7038 11.0462 13.7138 11.0494 13.7192 11.0513C13.7244 11.0532 13.7266 11.0543 13.727 11.0545L14.635 9.27248C14.3101 9.10694 13.9786 9.04925 13.6666 9.02376C13.3663 8.99922 13.0035 9 12.6 9V11ZM16 12.4C16 11.9965 16.0008 11.6337 15.9762 11.3334C15.9508 11.0214 15.8931 10.6899 15.7275 10.365L13.9455 11.273C13.9457 11.2734 13.9468 11.2756 13.9487 11.2808C13.9506 11.2862 13.9538 11.2962 13.9577 11.3125C13.9657 11.3467 13.9753 11.4031 13.9829 11.4962C13.9992 11.6962 14 11.9635 14 12.4H16ZM13.727 11.0545C13.8211 11.1024 13.8976 11.1789 13.9455 11.273L15.7275 10.365C15.4878 9.89462 15.1054 9.51217 14.635 9.27248L13.727 11.0545ZM11.4 9C10.9965 9 10.6337 8.99922 10.3334 9.02376C10.0214 9.04925 9.68993 9.10694 9.36502 9.27248L10.273 11.0545C10.2734 11.0543 10.2756 11.0532 10.2808 11.0513C10.2862 11.0494 10.2962 11.0462 10.3125 11.0423C10.3467 11.0343 10.4031 11.0247 10.4962 11.0171C10.6962 11.0008 10.9635 11 11.4 11V9ZM10 12.4C10 11.9635 10.0008 11.6962 10.0171 11.4962C10.0247 11.4031 10.0343 11.3467 10.0423 11.3125C10.0462 11.2962 10.0494 11.2862 10.0513 11.2808C10.0532 11.2756 10.0543 11.2734 10.0545 11.273L8.27248 10.365C8.10694 10.6899 8.04925 11.0214 8.02376 11.3334C7.99922 11.6337 8 11.9965 8 12.4H10ZM9.36502 9.27248C8.89462 9.51217 8.51217 9.89462 8.27248 10.365L10.0545 11.273C10.1024 11.1789 10.1789 11.1024 10.273 11.0545L9.36502 9.27248ZM4 23H20V21H4V23ZM13 5C13 5.55228 12.5523 6 12 6V8C13.6569 8 15 6.65685 15 5H13ZM12 6C11.4477 6 11 5.55228 11 5H9C9 6.65685 10.3431 8 12 8V6ZM11 5C11 4.92514 11.0327 4.74812 11.1556 4.47237C11.2714 4.21239 11.4381 3.93018 11.626 3.66738C11.8151 3.40291 12.0055 3.18624 12.1553 3.0478C12.2314 2.97743 12.277 2.94598 12.2897 2.93826C12.3297 2.91395 12.2151 3 12 3V1C11.6599 1 11.389 1.14528 11.2513 1.22894C11.0863 1.32919 10.9326 1.45445 10.7978 1.57904C10.5257 1.83051 10.2474 2.15673 9.99902 2.50419C9.74941 2.85332 9.50981 3.25207 9.32881 3.65815C9.15484 4.04845 9 4.52257 9 5H11ZM12 3C11.7849 3 11.6703 2.91395 11.7103 2.93826C11.723 2.94598 11.7686 2.97743 11.8447 3.0478C11.9945 3.18624 12.1849 3.40291 12.374 3.66738C12.5619 3.93018 12.7286 4.21239 12.8444 4.47237C12.9673 4.74812 13 4.92514 13 5H15C15 4.52257 14.8452 4.04845 14.6712 3.65815C14.4902 3.25207 14.2506 2.85332 14.001 2.50419C13.7526 2.15673 13.4743 1.83051 13.2022 1.57904C13.0674 1.45445 12.9137 1.32919 12.7487 1.22894C12.611 1.14528 12.3401 1 12 1V3ZM11 11V13H13V11H11Z" fill="currentColor"/>
</svg>
