<svg width="24" height="24" viewBox="0 0 24 24" fill="none" xmlns="http://www.w3.org/2000/svg">
<path d="M2 6C2 6 5 10 12 10C19 10 22 6 22 6M12 14C10.8954 14 10 14.8954 10 16C10 17.1046 10.8954 18 12 18C13.1046 18 14 17.1046 14 16C14 14.8954 13.1046 14 12 14ZM12 14V11M20 12C18.8954 12 18 12.8954 18 14C18 15.1046 18.8954 16 20 16C21.1046 16 22 15.1046 22 14C22 12.8954 21.1046 12 20 12ZM20 12V8M4 8L4 11M6 14C6 15.1046 5.10457 16 4 16C2.89543 16 2 15.1046 2 14C2 12.8954 2.89543 12 4 12C5.10457 12 6 12.8954 6 14Z" stroke="currentColor" stroke-width="2" stroke-linecap="round"/>
</svg>
