<svg width="24" height="24" viewBox="0 0 24 24" fill="none" xmlns="http://www.w3.org/2000/svg">
<path d="M11.968 2.00635L11.9743 4.00509M11.9743 4.00509L12.0253 19.995M11.9743 4.00509L9.97559 4.01146M11.9743 4.00509L13.9731 3.99871M12.0253 19.995L12.0317 21.9937M12.0253 19.995L10.0266 20.0014M12.0253 19.995L14.024 19.9886M3.69434 6.44181L5.35543 7.55345M5.35543 7.55345L18.6442 16.4466M5.35543 7.55345L4.24378 9.21455M5.35543 7.55345L6.46708 5.89236M18.6442 16.4466L20.3053 17.5583M18.6442 16.4466L17.5325 18.1077M18.6442 16.4466L19.7558 14.7855M20.2696 6.38892L18.6156 7.51114M18.6156 7.51114L5.38382 16.4889M18.6156 7.51114L19.7378 9.16511M18.6156 7.51114L17.4934 5.85717M5.38382 16.4889L3.72985 17.6111M5.38382 16.4889L6.50604 18.1429M5.38382 16.4889L4.2616 14.8349" stroke="currentColor" stroke-width="2" stroke-linecap="round"/>
</svg>
