<svg width="24" height="24" viewBox="0 0 24 24" fill="none" xmlns="http://www.w3.org/2000/svg">
<path d="M5 18H16.6C17.4401 18 17.8601 18 18.181 17.8365C18.4632 17.6927 18.6927 17.4632 18.8365 17.181C19 16.8601 19 16.4401 19 15.6V4.4C19 3.55992 19 3.13988 18.8365 2.81901C18.6927 2.53677 18.4632 2.3073 18.181 2.16349C17.8601 2 17.4401 2 16.6 2H7.4C6.55992 2 6.13988 2 5.81901 2.16349C5.53677 2.3073 5.3073 2.53677 5.16349 2.81901C5 3.13988 5 3.55992 5 4.4V18ZM5 18C5 18.93 5 19.395 5.10222 19.7765C5.37962 20.8117 6.18827 21.6204 7.22354 21.8978C7.60504 22 8.07003 22 9 22H19M12 14.25V8.43297M12 8.43297V5.75M12 8.43297H9.49996M12 8.43297H14.5" stroke="currentColor" stroke-width="2" stroke-linecap="round"/>
</svg>
