<svg width="24" height="24" viewBox="0 0 24 24" fill="none" xmlns="http://www.w3.org/2000/svg">
<path d="M17.6188 13.5773C17.1092 13.7903 16.8688 14.376 17.0817 14.8856C17.2947 15.3952 17.8804 15.6356 18.39 15.4227L17.6188 13.5773ZM8.5752 5.61511C8.36263 6.12484 8.60353 6.71039 9.11327 6.92296C9.62301 7.13553 10.2086 6.89463 10.4211 6.38489L8.5752 5.61511ZM10.4792 12.1223C9.99445 11.8576 9.38694 12.0361 9.12229 12.5208C8.85764 13.0056 9.03606 13.6131 9.52081 13.8777L10.4792 12.1223ZM9.52958 13.8825C10.0143 14.1472 10.6218 13.9687 10.8865 13.484C11.1511 12.9992 10.9727 12.3917 10.488 12.1271L9.52958 13.8825ZM6.47921 14.1223C5.99447 13.8576 5.38696 14.036 5.1223 14.5208C4.85764 15.0055 5.03605 15.613 5.52079 15.8777L6.47921 14.1223ZM5.52956 15.8825C6.0143 16.1472 6.62181 15.9687 6.88648 15.484C7.15114 14.9993 6.97273 14.3918 6.48799 14.1271L5.52956 15.8825ZM10.4791 17.1223C9.99435 16.8576 9.38686 17.0361 9.12225 17.5209C8.85764 18.0056 9.03611 18.6131 9.52088 18.8778L10.4791 17.1223ZM9.52966 18.8825C10.0144 19.1472 10.6219 18.9687 10.8865 18.4839C11.1511 17.9991 10.9727 17.3917 10.4879 17.127L9.52966 18.8825ZM16.0573 5.0054C15.5059 4.97375 15.0333 5.39507 15.0016 5.94644C14.97 6.49782 15.3913 6.97046 15.9427 7.00211L16.0573 5.0054ZM15.9527 7.00269C16.504 7.03434 16.9767 6.61302 17.0083 6.06164C17.04 5.51027 16.6187 5.03763 16.0673 5.00597L15.9527 7.00269ZM18.1979 9.524C17.6466 9.49235 17.1739 9.91366 17.1423 10.465C17.1106 11.0164 17.5319 11.4891 18.0833 11.5207L18.1979 9.524ZM18.0933 11.5213C18.6447 11.5529 19.1173 11.1316 19.149 10.5803C19.1806 10.0289 18.7593 9.55623 18.2079 9.52458L18.0933 11.5213ZM14 15.5C14 18.5376 11.5376 21 8.5 21V23C12.6421 23 16 19.6421 16 15.5H14ZM8.5 21C5.46243 21 3 18.5376 3 15.5H1C1 19.6421 4.35786 23 8.5 23V21ZM3 15.5C3 12.4624 5.46243 10 8.5 10V8C4.35786 8 1 11.3579 1 15.5H3ZM8.5 10C11.5376 10 14 12.4624 14 15.5H16C16 11.3579 12.6421 8 8.5 8V10ZM15.5 3C18.5376 3 21 5.46243 21 8.5H23C23 4.35786 19.6421 1 15.5 1V3ZM21 8.5C21 10.785 19.6064 12.7468 17.6188 13.5773L18.39 15.4227C21.0957 14.292 23 11.6196 23 8.5H21ZM10.4211 6.38489C11.2508 4.39538 13.2136 3 15.5 3V1C12.3785 1 9.70465 2.90672 8.5752 5.61511L10.4211 6.38489ZM9.52081 13.8777L9.52958 13.8825L10.488 12.1271L10.4792 12.1223L9.52081 13.8777ZM5.52079 15.8777L5.52956 15.8825L6.48799 14.1271L6.47921 14.1223L5.52079 15.8777ZM9.52088 18.8778L9.52966 18.8825L10.4879 17.127L10.4791 17.1223L9.52088 18.8778ZM15.9427 7.00211L15.9527 7.00269L16.0673 5.00597L16.0573 5.0054L15.9427 7.00211ZM18.0833 11.5207L18.0933 11.5213L18.2079 9.52458L18.1979 9.524L18.0833 11.5207Z" fill="currentColor"/>
</svg>
