<svg width="24" height="24" viewBox="0 0 24 24" fill="none" xmlns="http://www.w3.org/2000/svg">
<path d="M17.4534 15.6172C17.4534 15.6172 15 16.5001 15 19.0001C15 21.5001 17 22.0001 17 22.0001M4.90034 14.2933C4.90034 14.2933 7 15.9356 7 18.5C7 21.0645 5 22 5 22M2 22H20.25C21.2165 22 22 21.2165 22 20.25C22 19.2835 21.2165 18.5 20.25 18.5H20M2.86714 4.77391C3.00499 4.97135 3.07891 5.20635 3.07891 5.44715V6.40002C3.07891 9.76034 3.07891 11.4405 3.73287 12.724C4.30811 13.8529 5.22599 14.7708 6.35496 15.3461C7.63843 16 9.31859 16 12.6789 16H13.9104C15.3414 16 16.0568 16 16.7283 15.8436C17.4498 15.6756 18.1338 15.3755 18.746 14.9583C19.3158 14.5701 19.8002 14.0436 20.7691 12.9906L21.0114 12.7272C21.2046 12.5173 21.3012 12.4123 21.3851 12.3024C21.7268 11.8545 21.9355 11.3195 21.9873 10.7586C22 10.6209 22 10.4783 22 10.1929V9.32743C22 9.17958 22 9.10566 21.9979 9.066C21.9273 7.73288 20.2812 7.14929 19.3866 8.14021C19.36 8.16968 19.3134 8.2271 19.2203 8.34193C19.1824 8.38864 19.1635 8.412 19.145 8.43395C18.5879 9.09461 17.7729 9.48294 16.9089 9.49948C16.8802 9.50003 16.8501 9.50003 16.79 9.50003H16.203C15.0877 9.50003 14.5301 9.50003 14.0298 9.36841C13.2243 9.1565 12.505 8.69842 11.9723 8.05809C11.6415 7.66037 11.4057 7.15505 10.934 6.1444L9.85071 3.82298C9.80951 3.7347 9.78892 3.69057 9.76867 3.65036C9.27346 2.66731 8.27967 2.0344 7.17943 2.00137C7.13444 2.00002 7.08573 2.00002 6.98832 2.00001L4.31355 2C2.88736 1.99999 2.0507 3.60454 2.86714 4.77391Z" stroke="currentColor" stroke-width="2" stroke-linecap="round"/>
</svg>
