<svg width="24" height="24" viewBox="0 0 24 24" fill="none" xmlns="http://www.w3.org/2000/svg">
<path d="M12 8V22M4 15H20M7.8 22H16.2C17.8802 22 18.7202 22 19.362 21.673C19.9265 21.3854 20.3854 20.9265 20.673 20.362C21 19.7202 21 18.8802 21 17.2V12.8C21 11.1198 21 10.2798 20.673 9.63803C20.3854 9.07354 19.9265 8.6146 19.362 8.32698C18.7202 8 17.8802 8 16.2 8H7.8C6.11984 8 5.27976 8 4.63803 8.32698C4.07354 8.6146 3.6146 9.07354 3.32698 9.63803C3 10.2798 3 11.1198 3 12.8V17.2C3 18.8802 3 19.7202 3.32698 20.362C3.6146 20.9265 4.07354 21.3854 4.63803 21.673C5.27976 22 6.11984 22 7.8 22ZM11 8C12.5 6.83334 13.5594 3.79394 15.5 2.50008C18.5 0.4999 21.5 3.5 19 6.49995C17.5 8.29992 13.1667 8 11 8ZM12.9313 8C11.4313 6.83334 10.3719 3.79394 8.43127 2.50008C5.43127 0.4999 2.43128 3.5 4.93127 6.49995C6.43127 8.29992 10.7646 8 12.9313 8Z" stroke="currentColor" stroke-width="2" stroke-linecap="round"/>
</svg>
