<svg width="24" height="24" viewBox="0 0 24 24" fill="none" xmlns="http://www.w3.org/2000/svg">
<path d="M6.06066 14.3242H14.5459M8.53548 11.1422H17.7279M11.7075 7.97033H18.7785M2 21.071L3.41421 20.7175C4.28469 20.4999 4.96436 19.8202 5.18198 18.9497C5.3996 18.0792 6.07927 17.3996 6.94975 17.182L7.78894 16.9722M6.69706 15.6677L8.25269 17.2233C8.84672 17.8174 9.14373 18.1144 9.48622 18.2257C9.78749 18.3235 10.112 18.3235 10.4133 18.2257C10.7558 18.1144 11.0528 17.8174 11.6468 17.2233L18.1522 10.7179C18.7462 10.1239 19.0432 9.82691 19.1545 9.48442C19.2524 9.18315 19.2524 8.85863 19.1545 8.55737C19.0432 8.21487 18.7462 7.91786 18.1522 7.32384L16.5966 5.7682C16.0025 5.17418 15.7055 4.87716 15.363 4.76588C15.0618 4.66799 14.7372 4.66799 14.436 4.76588C14.0935 4.87716 13.7965 5.17418 13.2024 5.7682L6.69706 12.2736C6.10303 12.8676 5.80602 13.1646 5.69474 13.5071C5.59685 13.8084 5.59685 14.1329 5.69474 14.4342C5.80602 14.7767 6.10303 15.0737 6.69706 15.6677ZM16.6698 5.84144L18.0788 7.2504C19.3081 8.47974 19.9228 9.09441 20.4646 9.14311C20.935 9.1854 21.3979 9.00363 21.7138 8.65253C22.0777 8.24821 22.1099 7.37953 22.1742 5.64218L22.2284 4.17902C22.2616 3.28162 22.2783 2.83292 22.1117 2.49381C21.9654 2.19583 21.7244 1.9548 21.4264 1.80849C21.0873 1.64198 20.6386 1.6586 19.7412 1.69183L18.2781 1.74602C16.5407 1.81037 15.672 1.84254 15.2677 2.2064C14.9166 2.52236 14.7348 2.98524 14.7771 3.45567C14.8258 3.99742 15.4405 4.61209 16.6698 5.84144Z" stroke="currentColor" stroke-width="2" stroke-linecap="round"/>
</svg>
