<svg width="24" height="24" viewBox="0 0 24 24" fill="none" xmlns="http://www.w3.org/2000/svg">
<path d="M4.87981 19.8141L10.3275 20.5806M7.61987 16.9865L13.9218 17.8732M11.5363 14.0362L17.8381 14.9229M14.8297 10.9292L20.1305 11.318M15.3662 8.31756L19.863 6.80806M14.0205 6.53099L16.012 2.52678M11.8213 6.93552L10.7111 2.13786M18.9166 4.72067C16.4244 1.41222 11.7219 0.750584 8.4135 3.24286C7.31068 4.07362 7.09014 5.64109 7.9209 6.74391C8.75166 7.84673 10.3191 8.06727 11.4219 7.23651C12.5248 6.40575 14.0922 6.6263 14.923 7.72912C15.7538 8.83193 15.5332 10.3994 14.4304 11.2302L5.64436 17.8487C4.54154 18.6795 4.321 20.247 5.15175 21.3498C5.98251 22.4526 7.54999 22.6732 8.6528 21.8424L17.4388 15.2238C20.7473 12.7315 21.4089 8.02912 18.9166 4.72067Z" stroke="currentColor" stroke-width="2" stroke-linecap="round"/>
</svg>
