<svg width="24" height="24" viewBox="0 0 24 24" fill="none" xmlns="http://www.w3.org/2000/svg">
<path d="M16.2776 22.2286C15.2749 20.9677 14.8913 19.2644 15.3591 17.6266C15.9912 15.413 17.9697 13.9793 20.121 13.9075M3.79688 10.8453C5.19304 11.076 6.47849 11.8806 7.2866 13.1475C8.47327 15.0079 8.3033 17.3193 7.07826 18.968M5.20577 5.32699L15.3022 8.21014M11.0569 2.31798L13.148 2.91511C13.9368 3.14037 14.3312 3.253 14.6351 3.42269C15.6288 3.97744 16.223 5.04668 16.1694 6.18345C16.153 6.53116 16.0404 6.92557 15.8151 7.71441L15.6587 8.26214C15.611 8.42929 15.5871 8.51287 15.5699 8.58723C15.2631 9.91388 15.8882 11.2808 17.0925 11.9164C17.16 11.952 17.2388 11.9886 17.3965 12.0618L18.4068 12.5311C20.6954 13.5939 21.8707 16.1637 21.1778 18.59C20.3481 21.4955 17.1988 23.0573 14.3837 21.9594L5.9232 18.6597C4.48564 18.099 3.76686 17.8187 3.30336 17.3269C2.89515 16.8938 2.62499 16.349 2.52725 15.7619C2.41627 15.0953 2.62812 14.3535 3.05181 12.8697L5.12335 5.61547C5.5847 3.99989 5.81537 3.1921 6.30599 2.66482C6.73756 2.20101 7.30488 1.88572 7.92664 1.76416C8.6335 1.62596 9.44129 1.85663 11.0569 2.31798Z" stroke="currentColor" stroke-width="2" stroke-linecap="round"/>
</svg>
