<svg width="24" height="24" viewBox="0 0 24 24" fill="none" xmlns="http://www.w3.org/2000/svg">
<path d="M15 6V5C15 3.34315 13.6569 2 12 2C10.3431 2 9 3.34315 9 5V6M19.3699 10.75L16.816 11.7896C16.0908 12.0848 15.279 12.0848 14.5539 11.7896L13.1311 11.2104C12.4059 10.9152 11.5941 10.9152 10.8689 11.2104L9.44613 11.7896C8.72098 12.0848 7.90915 12.0848 7.184 11.7896L4.63013 10.75M19.3699 15.75L16.816 16.7896C16.0908 17.0848 15.279 17.0848 14.5539 16.7896L13.1311 16.2104C12.4059 15.9152 11.5941 15.9152 10.8689 16.2104L9.44613 16.7896C8.72098 17.0848 7.90915 17.0848 7.184 16.7896L4.63013 15.75M20 14C20 18.4183 16.4183 22 12 22C7.58172 22 4 18.4183 4 14C4 9.58172 7.58172 6 12 6C16.4183 6 20 9.58172 20 14Z" stroke="currentColor" stroke-width="2" stroke-linecap="round"/>
</svg>
