<svg width="24" height="24" viewBox="0 0 24 24" fill="none" xmlns="http://www.w3.org/2000/svg">
<path d="M7.37195 16.9388C5.74632 16.6186 4.68801 15.0412 5.00816 13.4156L6.09022 7.92115C6.25255 7.0969 6.33371 6.68478 6.55612 6.40155C6.75175 6.15241 7.02124 5.97161 7.32595 5.88504C7.67236 5.78663 8.08449 5.8678 8.90873 6.03012L10.0861 6.26199C10.9104 6.42432 11.3225 6.50548 11.6057 6.72789C11.8549 6.92352 12.0357 7.19301 12.1222 7.49772C12.2206 7.84413 12.1395 8.25626 11.9771 9.0805L10.8951 14.575C10.5749 16.2006 8.99758 17.2589 7.37195 16.9388ZM7.37195 16.9388L6.50235 21.3539M16.582 13.0952C14.9655 13.4588 13.3603 12.4431 12.9967 10.8266L11.7678 5.36316C11.5834 4.54356 11.4913 4.13376 11.5803 3.78484C11.6587 3.47791 11.8322 3.20368 12.076 3.00143C12.3532 2.77151 12.763 2.67934 13.5826 2.49498L14.7533 2.23163C15.5729 2.04728 15.9827 1.9551 16.3317 2.04419C16.6386 2.12255 16.9128 2.29607 17.1151 2.53987C17.345 2.81704 17.4372 3.22684 17.6215 4.04644L18.8505 9.50993C19.2141 11.1264 18.1984 12.7316 16.582 13.0952ZM16.582 13.0952L17.5694 17.4854M6.50235 21.3539L8.46466 21.7403M6.50235 21.3539L4.54004 20.9674M17.5694 17.4854L19.5207 17.0465M17.5694 17.4854L15.6182 17.9243M5.85255 10.8778L11.6278 9.40232M17.9509 6.49366L12.1758 5.65057" stroke="currentColor" stroke-width="2" stroke-linecap="round"/>
</svg>
