<svg width="24" height="24" viewBox="0 0 24 24" fill="none" xmlns="http://www.w3.org/2000/svg">
<path d="M11.1144 4.56198L9.20522 5.33975M12.5286 7.39035L10.6194 8.16812M2 21.5H19.5C20.8807 21.5 22 20.3807 22 19M6.5 16.5V21.5M17 16.5V21.5M15.6076 8.32451H16.6143C19.5887 8.32451 22 10.7358 22 13.7102C22 15.1974 20.7944 16.4031 19.3071 16.4031H6.8C5.11984 16.4031 4.27976 16.4031 3.63803 16.0761C3.07354 15.7885 2.6146 15.3295 2.32698 14.765C2 14.1233 2 13.2832 2 11.6031V6.02255C2 5.41119 2 5.1055 2.10121 4.84413C2.1906 4.61328 2.33574 4.40814 2.52368 4.24702C2.73646 4.06458 3.02472 3.96285 3.60123 3.75937L6.9677 2.57121C8.21178 2.13212 8.83382 1.91258 9.40444 1.97691C9.90681 2.03355 10.3802 2.24117 10.7622 2.57237C11.196 2.94857 11.4559 3.55487 11.9756 4.76749L12.6698 6.38735C12.7188 6.50168 12.7433 6.55885 12.7678 6.61052C13.2468 7.62007 14.2472 8.27974 15.3638 8.32233C15.421 8.32451 15.4832 8.32451 15.6076 8.32451Z" stroke="currentColor" stroke-width="2" stroke-linecap="round"/>
</svg>
