<svg width="24" height="24" viewBox="0 0 24 24" fill="none" xmlns="http://www.w3.org/2000/svg">
<path d="M9 6H14M9 16H14M15.3333 10.6667C15.0307 10.4018 14.8793 10.2694 14.7516 10.1248C14.3547 9.67549 14.1015 9.11752 14.0247 8.52289C14 8.33159 14 8.1305 14 7.72831V4.4C14 3.55992 14 3.13988 13.8365 2.81901C13.6927 2.53677 13.4632 2.3073 13.181 2.16349C12.8601 2 12.4401 2 11.6 2H11.4C10.5599 2 10.1399 2 9.81901 2.16349C9.53677 2.3073 9.3073 2.53677 9.16349 2.81901C9 3.13988 9 3.55992 9 4.4V7.72831C9 8.1305 9 8.33159 8.9753 8.52289C8.89851 9.11752 8.64532 9.67549 8.24839 10.1248C8.12068 10.2694 7.96934 10.4018 7.66667 10.6667C7.06131 11.1964 6.75864 11.4612 6.50323 11.7503C5.70936 12.649 5.20297 13.765 5.04941 14.9542C5 15.3368 5 15.739 5 16.5434V18C5 19.4001 5 20.1002 5.27248 20.635C5.51217 21.1054 5.89462 21.4878 6.36502 21.7275C6.8998 22 7.59987 22 9 22H14C15.4001 22 16.1002 22 16.635 21.7275C17.1054 21.4878 17.4878 21.1054 17.7275 20.635C18 20.1002 18 19.4001 18 18V16.5434C18 15.739 18 15.3368 17.9506 14.9542C17.797 13.765 17.2906 12.649 16.4968 11.7503C16.2414 11.4612 15.9387 11.1964 15.3333 10.6667Z" stroke="currentColor" stroke-width="2" stroke-linecap="round"/>
</svg>
