<svg width="24" height="24" viewBox="0 0 24 24" fill="none" xmlns="http://www.w3.org/2000/svg">
<path d="M18.0465 9.30116L18.0553 9.30595M14.9984 7.63698L15.0072 7.64177M12 6.00001L12.0088 6.00481M5.95386 9.30116L5.94508 9.30595M9.00195 7.63698L8.99318 7.64177M3 11.7071V17.2C3 18.8802 3 19.7203 3.32698 20.362C3.6146 20.9265 4.07354 21.3854 4.63803 21.673C5.27976 22 6.11984 22 7.8 22H16.2C17.8802 22 18.7202 22 19.362 21.673C19.9265 21.3854 20.3854 20.9265 20.673 20.362C21 19.7203 21 18.8802 21 17.2V11.7071C21 11.2544 21.1799 10.8202 21.5 10.5C21.8201 10.1799 22 9.74566 22 9.29291V8.97013C22 8.06337 21.5064 7.22852 20.7119 6.79154L14.3132 3.27228C13.4685 2.8077 13.0462 2.57541 12.5994 2.48431C12.2039 2.40367 11.7961 2.40367 11.4006 2.48431C10.9538 2.57541 10.5315 2.8077 9.68679 3.27228L3.28814 6.79154C2.49362 7.22852 2 8.06337 2 8.97013V9.29291C2 9.74566 2.17986 10.1799 2.5 10.5C2.82014 10.8202 3 11.2544 3 11.7071ZM14.5 22V16.5C14.5 15.1193 13.3807 14 12 14C10.6193 14 9.5 15.1193 9.5 16.5V22H14.5Z" stroke="currentColor" stroke-width="2" stroke-linecap="round" stroke-linejoin="round"/>
</svg>
