<svg width="24" height="24" viewBox="0 0 24 24" fill="none" xmlns="http://www.w3.org/2000/svg">
<path d="M5.63803 21.673L5.18404 22.564H5.18404L5.63803 21.673ZM4.32698 20.362L5.21799 19.908L5.21799 19.908L4.32698 20.362ZM19.673 20.362L18.782 19.908L18.782 19.908L19.673 20.362ZM18.362 21.673L18.816 22.564H18.816L18.362 21.673ZM19.9743 6.60842L20.9658 6.4779V6.4779L19.9743 6.60842ZM17.3916 4.02567L17.5221 3.03422L17.3916 4.02567ZM4.02567 6.60842L3.03422 6.4779L4.02567 6.60842ZM6.60842 4.02567L6.4779 3.03422L6.60842 4.02567ZM8.66744 5.94889L8.92625 4.98296L8.66744 5.94889ZM7.60678 4.88823L8.5727 4.62941L7.60678 4.88823ZM16.3932 4.88823L15.4273 4.62941L16.3932 4.88823ZM15.3326 5.94889L15.0737 4.98296L15.3326 5.94889ZM15.3326 2.05111L15.0737 3.01704L15.3326 2.05111ZM16.3932 3.11177L15.4273 3.37059L16.3932 3.11177ZM8.66744 2.05111L8.92625 3.01704L8.66744 2.05111ZM7.60678 3.11177L8.5727 3.37059L7.60678 3.11177ZM8.82393 12.9999C8.27165 12.9999 7.82393 13.4477 7.82393 13.9999C7.82393 14.5522 8.27165 14.9999 8.82393 14.9999V12.9999ZM15.1761 14.9999C15.7283 14.9999 16.1761 14.5522 16.1761 13.9999C16.1761 13.4477 15.7283 12.9999 15.1761 12.9999V14.9999ZM13 10.8239C13 10.2716 12.5523 9.82389 12 9.82389C11.4477 9.82389 11 10.2716 11 10.8239H13ZM11 17.176C11 17.7283 11.4477 18.176 12 18.176C12.5523 18.176 13 17.7283 13 17.176H11ZM19 7.5V17.2H21V7.5H19ZM15.2 21H8.8V23H15.2V21ZM5 17.2V7.5H3V17.2H5ZM8.8 21C7.94342 21 7.36113 20.9992 6.91104 20.9624C6.47262 20.9266 6.24842 20.8617 6.09202 20.782L5.18404 22.564C5.66937 22.8113 6.18608 22.9099 6.74817 22.9558C7.2986 23.0008 7.97642 23 8.8 23V21ZM3 17.2C3 18.0236 2.99922 18.7014 3.04419 19.2518C3.09012 19.8139 3.18868 20.3306 3.43597 20.816L5.21799 19.908C5.1383 19.7516 5.07337 19.5274 5.03755 19.089C5.00078 18.6389 5 18.0566 5 17.2H3ZM6.09202 20.782C5.71569 20.5903 5.40973 20.2843 5.21799 19.908L3.43597 20.816C3.81947 21.5686 4.43139 22.1805 5.18404 22.564L6.09202 20.782ZM19 17.2C19 18.0566 18.9992 18.6389 18.9624 19.089C18.9266 19.5274 18.8617 19.7516 18.782 19.908L20.564 20.816C20.8113 20.3306 20.9099 19.8139 20.9558 19.2518C21.0008 18.7014 21 18.0236 21 17.2H19ZM15.2 23C16.0236 23 16.7014 23.0008 17.2518 22.9558C17.8139 22.9099 18.3306 22.8113 18.816 22.564L17.908 20.782C17.7516 20.8617 17.5274 20.9266 17.089 20.9624C16.6389 20.9992 16.0566 21 15.2 21V23ZM18.782 19.908C18.5903 20.2843 18.2843 20.5903 17.908 20.782L18.816 22.564C19.5686 22.1805 20.1805 21.5686 20.564 20.816L18.782 19.908ZM21 7.5C21 7.06737 21.0022 6.75421 20.9658 6.4779L18.9829 6.73895C18.9978 6.85253 19 7.00379 19 7.5H21ZM16.5 5C16.9962 5 17.1475 5.00216 17.2611 5.01711L17.5221 3.03422C17.2458 2.99784 16.9326 3 16.5 3V5ZM20.9658 6.4779C20.7295 4.68296 19.317 3.27053 17.5221 3.03422L17.2611 5.01711C18.1585 5.13526 18.8647 5.84148 18.9829 6.73895L20.9658 6.4779ZM5 7.5C5 7.00379 5.00216 6.85253 5.01711 6.73895L3.03422 6.4779C2.99784 6.75421 3 7.06737 3 7.5H5ZM7.5 3C7.06737 3 6.75421 2.99784 6.4779 3.03422L6.73895 5.01711C6.85253 5.00216 7.00379 5 7.5 5V3ZM5.01711 6.73895C5.13526 5.84148 5.84148 5.13526 6.73895 5.01711L6.4779 3.03422C4.68296 3.27053 3.27053 4.68296 3.03422 6.4779L5.01711 6.73895ZM9.55566 3H14.4443V1H9.55566V3ZM14.4443 5H9.55566V7H14.4443V5ZM9.55566 5C9.31411 5 9.1663 4.99976 9.05427 4.99465C8.94762 4.98979 8.92252 4.98196 8.92625 4.98296L8.40862 6.91481C8.75859 7.00859 9.15506 7 9.55566 7V5ZM6.55566 4C6.55566 4.4006 6.54707 4.79708 6.64085 5.14705L8.5727 4.62941C8.5737 4.63315 8.56588 4.60805 8.56101 4.50139C8.55591 4.38937 8.55566 4.24156 8.55566 4H6.55566ZM8.92625 4.98296C8.75371 4.93673 8.61893 4.80196 8.5727 4.62941L6.64085 5.14705C6.87202 6.00978 7.54589 6.68365 8.40862 6.91481L8.92625 4.98296ZM15.4443 4C15.4443 4.24156 15.4441 4.38937 15.439 4.50139C15.4341 4.60805 15.4263 4.63315 15.4273 4.62941L17.3592 5.14705C17.4529 4.79708 17.4443 4.4006 17.4443 4H15.4443ZM14.4443 7C14.8449 7 15.2414 7.00859 15.5914 6.91481L15.0737 4.98296C15.0775 4.98196 15.0524 4.98979 14.9457 4.99465C14.8337 4.99976 14.6859 5 14.4443 5V7ZM15.4273 4.62941C15.3811 4.80196 15.2463 4.93673 15.0737 4.98296L15.5914 6.91481C16.4541 6.68365 17.128 6.00978 17.3592 5.14705L15.4273 4.62941ZM14.4443 3C14.6859 3 14.8337 3.00024 14.9457 3.00535C15.0524 3.01021 15.0775 3.01804 15.0737 3.01704L15.5914 1.08519C15.2414 0.991411 14.8449 1 14.4443 1V3ZM17.4443 4C17.4443 3.5994 17.4529 3.20292 17.3592 2.85295L15.4273 3.37059C15.4263 3.36685 15.4341 3.39195 15.439 3.49861C15.4441 3.61063 15.4443 3.75844 15.4443 4H17.4443ZM15.0737 3.01704C15.2463 3.06327 15.3811 3.19804 15.4273 3.37059L17.3592 2.85295C17.128 1.99022 16.4541 1.31635 15.5914 1.08519L15.0737 3.01704ZM9.55566 1C9.15506 1 8.75859 0.991411 8.40862 1.08519L8.92625 3.01704C8.92252 3.01804 8.94762 3.01021 9.05427 3.00535C9.1663 3.00024 9.31411 3 9.55566 3V1ZM8.55566 4C8.55566 3.75844 8.55591 3.61063 8.56101 3.49861C8.56588 3.39195 8.5737 3.36685 8.5727 3.37059L6.64085 2.85295C6.54707 3.20292 6.55566 3.5994 6.55566 4H8.55566ZM8.40862 1.08519C7.54589 1.31635 6.87202 1.99022 6.64085 2.85295L8.5727 3.37059C8.61893 3.19804 8.75371 3.06327 8.92625 3.01704L8.40862 1.08519ZM8.82393 14.9999H12V12.9999H8.82393V14.9999ZM12 14.9999H15.1761V12.9999H12V14.9999ZM11 10.8239V13.9999H13V10.8239H11ZM11 13.9999V17.176H13V13.9999H11Z" fill="currentColor"/>
</svg>
