<svg width="24" height="24" viewBox="0 0 24 24" fill="none" xmlns="http://www.w3.org/2000/svg">
<path d="M5.63803 21.673L5.18404 22.564H5.18404L5.63803 21.673ZM4.32698 20.362L5.21799 19.908L5.21799 19.908L4.32698 20.362ZM19.673 20.362L18.782 19.908L18.782 19.908L19.673 20.362ZM18.362 21.673L18.816 22.564H18.816L18.362 21.673ZM19.9743 6.60842L20.9658 6.4779V6.4779L19.9743 6.60842ZM17.3916 4.02567L17.5221 3.03422L17.3916 4.02567ZM4.02567 6.60842L3.03422 6.4779L4.02567 6.60842ZM6.60842 4.02567L6.4779 3.03422L6.60842 4.02567ZM8.66744 5.94889L8.92625 4.98296L8.66744 5.94889ZM7.60678 4.88823L8.5727 4.62941L7.60678 4.88823ZM16.3932 4.88823L15.4273 4.62941L16.3932 4.88823ZM15.3326 5.94889L15.0737 4.98296L15.3326 5.94889ZM15.3326 2.05111L15.0737 3.01704L15.3326 2.05111ZM16.3932 3.11177L15.4273 3.37059L16.3932 3.11177ZM8.66744 2.05111L8.92625 3.01704L8.66744 2.05111ZM7.60678 3.11177L8.5727 3.37059L7.60678 3.11177ZM8.87203 11.4715C8.68876 11.9925 8.96254 12.5634 9.48353 12.7467C10.0045 12.9299 10.5754 12.6562 10.7587 12.1352L8.87203 11.4715ZM14.1846 12.5528L13.1846 12.5513V12.5528H14.1846ZM11.7192 13.825C11.1801 13.9448 10.8402 14.4791 10.9601 15.0182C11.08 15.5573 11.6143 15.8972 12.1534 15.7773L11.7192 13.825ZM11.9654 16.8011C11.4131 16.8011 10.9654 17.2488 10.9654 17.8011C10.9654 18.3534 11.4131 18.8011 11.9654 18.8011V16.8011ZM11.9754 18.8011C12.5277 18.8011 12.9754 18.3534 12.9754 17.8011C12.9754 17.2488 12.5277 16.8011 11.9754 16.8011V18.8011ZM19 7.5V17.2H21V7.5H19ZM15.2 21H8.8V23H15.2V21ZM5 17.2V7.5H3V17.2H5ZM8.8 21C7.94342 21 7.36113 20.9992 6.91104 20.9624C6.47262 20.9266 6.24842 20.8617 6.09202 20.782L5.18404 22.564C5.66937 22.8113 6.18608 22.9099 6.74817 22.9558C7.2986 23.0008 7.97642 23 8.8 23V21ZM3 17.2C3 18.0236 2.99922 18.7014 3.04419 19.2518C3.09012 19.8139 3.18868 20.3306 3.43597 20.816L5.21799 19.908C5.1383 19.7516 5.07337 19.5274 5.03755 19.089C5.00078 18.6389 5 18.0566 5 17.2H3ZM6.09202 20.782C5.71569 20.5903 5.40973 20.2843 5.21799 19.908L3.43597 20.816C3.81947 21.5686 4.43139 22.1805 5.18404 22.564L6.09202 20.782ZM19 17.2C19 18.0566 18.9992 18.6389 18.9624 19.089C18.9266 19.5274 18.8617 19.7516 18.782 19.908L20.564 20.816C20.8113 20.3306 20.9099 19.8139 20.9558 19.2518C21.0008 18.7014 21 18.0236 21 17.2H19ZM15.2 23C16.0236 23 16.7014 23.0008 17.2518 22.9558C17.8139 22.9099 18.3306 22.8113 18.816 22.564L17.908 20.782C17.7516 20.8617 17.5274 20.9266 17.089 20.9624C16.6389 20.9992 16.0566 21 15.2 21V23ZM18.782 19.908C18.5903 20.2843 18.2843 20.5903 17.908 20.782L18.816 22.564C19.5686 22.1805 20.1805 21.5686 20.564 20.816L18.782 19.908ZM21 7.5C21 7.06737 21.0022 6.75421 20.9658 6.4779L18.9829 6.73895C18.9978 6.85253 19 7.00379 19 7.5H21ZM16.5 5C16.9962 5 17.1475 5.00216 17.2611 5.01711L17.5221 3.03422C17.2458 2.99784 16.9326 3 16.5 3V5ZM20.9658 6.4779C20.7295 4.68296 19.317 3.27053 17.5221 3.03422L17.2611 5.01711C18.1585 5.13526 18.8647 5.84148 18.9829 6.73895L20.9658 6.4779ZM5 7.5C5 7.00379 5.00216 6.85253 5.01711 6.73895L3.03422 6.4779C2.99784 6.75421 3 7.06737 3 7.5H5ZM7.5 3C7.06737 3 6.75421 2.99784 6.4779 3.03422L6.73895 5.01711C6.85253 5.00216 7.00379 5 7.5 5V3ZM5.01711 6.73895C5.13526 5.84148 5.84148 5.13526 6.73895 5.01711L6.4779 3.03422C4.68296 3.27053 3.27053 4.68296 3.03422 6.4779L5.01711 6.73895ZM9.55566 3H14.4443V1H9.55566V3ZM14.4443 5H9.55566V7H14.4443V5ZM9.55566 5C9.31411 5 9.1663 4.99976 9.05427 4.99465C8.94762 4.98979 8.92252 4.98196 8.92625 4.98296L8.40862 6.91481C8.75859 7.00859 9.15506 7 9.55566 7V5ZM6.55566 4C6.55566 4.4006 6.54707 4.79708 6.64085 5.14705L8.5727 4.62941C8.5737 4.63315 8.56588 4.60805 8.56101 4.50139C8.55591 4.38937 8.55566 4.24156 8.55566 4H6.55566ZM8.92625 4.98296C8.75371 4.93673 8.61893 4.80196 8.5727 4.62941L6.64085 5.14705C6.87202 6.00978 7.54589 6.68365 8.40862 6.91481L8.92625 4.98296ZM15.4443 4C15.4443 4.24156 15.4441 4.38937 15.439 4.50139C15.4341 4.60805 15.4263 4.63315 15.4273 4.62941L17.3592 5.14705C17.4529 4.79708 17.4443 4.4006 17.4443 4H15.4443ZM14.4443 7C14.8449 7 15.2414 7.00859 15.5914 6.91481L15.0737 4.98296C15.0775 4.98196 15.0524 4.98979 14.9457 4.99465C14.8337 4.99976 14.6859 5 14.4443 5V7ZM15.4273 4.62941C15.3811 4.80196 15.2463 4.93673 15.0737 4.98296L15.5914 6.91481C16.4541 6.68365 17.128 6.00978 17.3592 5.14705L15.4273 4.62941ZM14.4443 3C14.6859 3 14.8337 3.00024 14.9457 3.00535C15.0524 3.01021 15.0775 3.01804 15.0737 3.01704L15.5914 1.08519C15.2414 0.991411 14.8449 1 14.4443 1V3ZM17.4443 4C17.4443 3.5994 17.4529 3.20292 17.3592 2.85295L15.4273 3.37059C15.4263 3.36685 15.4341 3.39195 15.439 3.49861C15.4441 3.61063 15.4443 3.75844 15.4443 4H17.4443ZM15.0737 3.01704C15.2463 3.06327 15.3811 3.19804 15.4273 3.37059L17.3592 2.85295C17.128 1.99022 16.4541 1.31635 15.5914 1.08519L15.0737 3.01704ZM9.55566 1C9.15506 1 8.75859 0.991411 8.40862 1.08519L8.92625 3.01704C8.92252 3.01804 8.94762 3.01021 9.05427 3.00535C9.1663 3.00024 9.31411 3 9.55566 3V1ZM8.55566 4C8.55566 3.75844 8.55591 3.61063 8.56101 3.49861C8.56588 3.39195 8.5737 3.36685 8.5727 3.37059L6.64085 2.85295C6.54707 3.20292 6.55566 3.5994 6.55566 4H8.55566ZM8.40862 1.08519C7.54589 1.31635 6.87202 1.99022 6.64085 2.85295L8.5727 3.37059C8.61893 3.19804 8.75371 3.06327 8.92625 3.01704L8.40862 1.08519ZM10.7587 12.1352C10.8565 11.8571 11.0496 11.6226 11.3038 11.4732L10.2904 9.74895C9.62906 10.1376 9.1266 10.7478 8.87203 11.4715L10.7587 12.1352ZM11.3038 11.4732C11.5579 11.3238 11.8568 11.2692 12.1473 11.3191L12.4854 9.34787C11.7294 9.21818 10.9518 9.36026 10.2904 9.74895L11.3038 11.4732ZM12.1473 11.3191C12.4379 11.3689 12.7014 11.52 12.8913 11.7455L14.4213 10.4575C13.9273 9.87064 13.2415 9.47755 12.4854 9.34787L12.1473 11.3191ZM12.8913 11.7455C13.0811 11.971 13.1851 12.2565 13.1846 12.5513L15.1846 12.5543C15.1858 11.7871 14.9154 11.0444 14.4213 10.4575L12.8913 11.7455ZM13.1846 12.5528C13.1846 12.9237 12.9656 13.2185 12.5389 13.4793C12.3346 13.6042 12.1219 13.6938 11.9556 13.7524C11.8741 13.7811 11.8079 13.8008 11.7651 13.8127C11.7438 13.8186 11.7286 13.8225 11.7205 13.8245C11.7165 13.8255 11.7143 13.8261 11.714 13.8261C11.7139 13.8262 11.7142 13.8261 11.7151 13.8259C11.7155 13.8258 11.7161 13.8257 11.7168 13.8255C11.7171 13.8254 11.7175 13.8253 11.7179 13.8252C11.7181 13.8252 11.7184 13.8251 11.7185 13.8251C11.7189 13.825 11.7192 13.825 11.9363 14.8011C12.1534 15.7773 12.1537 15.7772 12.1541 15.7771C12.1542 15.7771 12.1546 15.777 12.1549 15.7769C12.1554 15.7768 12.156 15.7767 12.1566 15.7765C12.1579 15.7763 12.1592 15.7759 12.1607 15.7756C12.1637 15.7749 12.1673 15.7741 12.1714 15.7731C12.1797 15.7712 12.1901 15.7687 12.2025 15.7656C12.2274 15.7594 12.2605 15.7509 12.3007 15.7397C12.3808 15.7174 12.4903 15.6844 12.6196 15.6389C12.8748 15.5491 13.2242 15.4045 13.582 15.1858C14.2794 14.7595 15.1846 13.9302 15.1846 12.5528H13.1846ZM11.9654 18.8011H11.9754V16.8011H11.9654V18.8011Z" fill="currentColor"/>
</svg>
