<svg width="24" height="24" viewBox="0 0 24 24" fill="none" xmlns="http://www.w3.org/2000/svg">
<path d="M16.5 4C16.9644 4 17.1966 4 17.3916 4.02567C18.7378 4.2029 19.7971 5.26222 19.9743 6.60842C20 6.80337 20 7.03558 20 7.5V17.2C20 18.8802 20 19.7202 19.673 20.362C19.3854 20.9265 18.9265 21.3854 18.362 21.673C17.7202 22 16.8802 22 15.2 22H8.8C7.11984 22 6.27976 22 5.63803 21.673C5.07354 21.3854 4.6146 20.9265 4.32698 20.362C4 19.7202 4 18.8802 4 17.2V7.5C4 7.03558 4 6.80337 4.02567 6.60842C4.2029 5.26222 5.26222 4.2029 6.60842 4.02567C6.80337 4 7.03558 4 7.5 4M9.55566 6H14.4443C14.9093 6 15.1418 6 15.3326 5.94889C15.8502 5.81019 16.2545 5.40587 16.3932 4.88823C16.4443 4.69748 16.4443 4.46499 16.4443 4C16.4443 3.53501 16.4443 3.30252 16.3932 3.11177C16.2545 2.59413 15.8502 2.18981 15.3326 2.05111C15.1418 2 14.9093 2 14.4443 2H9.55566C9.09068 2 8.85819 2 8.66744 2.05111C8.1498 2.18981 7.74548 2.59413 7.60678 3.11177C7.55566 3.30252 7.55566 3.53501 7.55566 4C7.55566 4.46499 7.55566 4.69748 7.60678 4.88823C7.74548 5.40587 8.1498 5.81019 8.66744 5.94889C8.85819 6 9.09068 6 9.55566 6Z" stroke="currentColor" stroke-width="2"/>
</svg>
