<svg width="24" height="24" viewBox="0 0 24 24" fill="none" xmlns="http://www.w3.org/2000/svg">
<path d="M12 22C6.47715 22 2 17.5228 2 12C2 6.47715 6.47715 2 12 2C17.5228 2 22 6.47715 22 12M12 6.5V12L9.62692 14.3731M17.9973 15.8306C17.1975 14.9216 15.8639 14.6771 14.8619 15.5094C13.8599 16.3418 13.7188 17.7335 14.5057 18.7179C15.2926 19.7024 17.9973 22 17.9973 22C17.9973 22 20.7019 19.7024 21.4888 18.7179C22.2757 17.7335 22.1519 16.3331 21.1326 15.5094C20.1134 14.6858 18.797 14.9216 17.9973 15.8306Z" stroke="currentColor" stroke-width="2" stroke-linecap="round" stroke-linejoin="round"/>
</svg>
