<svg width="24" height="24" viewBox="0 0 24 24" fill="none" xmlns="http://www.w3.org/2000/svg">
<path d="M13.0988 22.9457C13.6484 22.8912 14.0497 22.4014 13.9951 21.8518C13.9405 21.3022 13.4508 20.901 12.9012 20.9555L13.0988 22.9457ZM20.9555 12.9012C20.901 13.4508 21.3022 13.9405 21.8518 13.9951C22.4014 14.0497 22.8912 13.6484 22.9457 13.0988L20.9555 12.9012ZM13 6.5C13 5.94772 12.5523 5.5 12 5.5C11.4477 5.5 11 5.94772 11 6.5H13ZM12 12H11C11 12.2652 11.1054 12.5196 11.2929 12.7071L12 12ZM14.2929 15.7071C14.6834 16.0976 15.3166 16.0976 15.7071 15.7071C16.0976 15.3166 16.0976 14.6834 15.7071 14.2929L14.2929 15.7071ZM19.6053 15.681C19.6053 15.1287 19.1576 14.681 18.6053 14.681C18.053 14.681 17.6053 15.1287 17.6053 15.681H19.6053ZM17.6053 21.5295C17.6053 22.0818 18.053 22.5295 18.6053 22.5295C19.1576 22.5295 19.6053 22.0818 19.6053 21.5295H17.6053ZM21.5295 19.6053C22.0818 19.6053 22.5295 19.1576 22.5295 18.6053C22.5295 18.053 22.0818 17.6053 21.5295 17.6053V19.6053ZM15.681 17.6053C15.1287 17.6053 14.681 18.053 14.681 18.6053C14.681 19.1576 15.1287 19.6053 15.681 19.6053V17.6053ZM12 21C7.02944 21 3 16.9706 3 12H1C1 18.0751 5.92487 23 12 23V21ZM3 12C3 7.02944 7.02944 3 12 3V1C5.92487 1 1 5.92487 1 12H3ZM12 3C16.9706 3 21 7.02944 21 12H23C23 5.92487 18.0751 1 12 1V3ZM12.9012 20.9555C12.6051 20.9849 12.3045 21 12 21V23C12.3705 23 12.7371 22.9816 13.0988 22.9457L12.9012 20.9555ZM21 12C21 12.3045 20.9849 12.6051 20.9555 12.9012L22.9457 13.0988C22.9816 12.7371 23 12.3705 23 12H21ZM11 6.5V12H13V6.5H11ZM11.2929 12.7071L14.2929 15.7071L15.7071 14.2929L12.7071 11.2929L11.2929 12.7071ZM17.6053 15.681V18.6053H19.6053V15.681H17.6053ZM17.6053 18.6053V21.5295H19.6053V18.6053H17.6053ZM21.5295 17.6053H18.6053V19.6053H21.5295V17.6053ZM18.6053 17.6053H15.681V19.6053H18.6053V17.6053Z" fill="currentColor"/>
</svg>
