<svg width="24" height="24" viewBox="0 0 24 24" fill="none" xmlns="http://www.w3.org/2000/svg">
<path d="M11.1041 5H11.8055C12.5936 5 13.3735 5.16008 14.0979 5.47054C15.6258 6.12535 16.8008 7.40228 17.3264 8.97926L17.4915 9.47451C17.4966 9.48973 17.5108 9.5 17.5269 9.5C19.9973 9.5 22 11.5027 22 13.9731V14.25C22 14.8418 21.8918 15.4083 21.694 15.9308M19.2334 18.5673C18.6298 18.8451 17.958 19 17.25 19H9C5.13401 19 2 15.866 2 12C2 9.21199 3.62992 6.80467 5.98886 5.67893M2.75 2L22.75 22" stroke="currentColor" stroke-width="2" stroke-linecap="round" stroke-linejoin="round"/>
</svg>
