<svg width="24" height="24" viewBox="0 0 24 24" fill="none" xmlns="http://www.w3.org/2000/svg">
<path d="M12 7C12 4.23858 14.2386 2 17 2C19.7614 2 22 4.23858 22 7C22 9.51285 20.1463 11.5927 17.7318 11.9468M6.28034 12.4393H6.46281C6.48335 12.4393 6.5 12.4226 6.5 12.4021C6.5 9.42285 8.91514 7 11.8944 7H12.1056C15.0849 7 17.5 9.42285 17.5 12.4021C17.5 12.4226 17.5167 12.4393 17.5372 12.4393H17.7197C20.0836 12.4393 22 14.3557 22 16.7197C22 19.0836 20.0836 21 17.7197 21H6.28034C3.91637 21 2 19.0836 2 16.7197C2 14.3557 3.91637 12.4393 6.28034 12.4393Z" stroke="currentColor" stroke-width="2" stroke-linecap="round" stroke-linejoin="round"/>
</svg>
