<svg width="24" height="24" viewBox="0 0 24 24" fill="none" xmlns="http://www.w3.org/2000/svg">
<path d="M21.4993 11.0044C21.8214 10.2336 21.9993 9.38759 21.9993 8.5C21.9993 4.91015 19.0891 2 15.4993 2C12.9509 2 10.7451 3.46647 9.67969 5.60155M5.66886 13.6623H6.46281C6.48335 13.6623 6.5 13.6456 6.5 13.6251C6.5 11.0715 8.57012 9 11.1237 9H12C15.0376 9 17.5 11.4624 17.5 14.5V14.9628C17.5 14.9833 17.5167 15 17.5372 15H19C20.6569 15 22 16.3431 22 18C22 19.6569 20.6569 21 19 21H5.66886C3.6426 21 2 19.3574 2 17.3311C2 15.3049 3.64261 13.6623 5.66886 13.6623Z" stroke="currentColor" stroke-width="2" stroke-linecap="round" stroke-linejoin="round"/>
</svg>
