<svg width="24" height="24" viewBox="0 0 24 24" fill="none" xmlns="http://www.w3.org/2000/svg">
<path d="M7.03396 9.34145L6.90766 10.3334C7.17315 10.3672 7.44112 10.2932 7.6516 10.1279C7.86209 9.9626 7.99752 9.71983 8.02762 9.45389L7.03396 9.34145ZM16.1688 9.52325L15.1718 9.6016C15.1959 9.90825 15.3598 10.1868 15.6162 10.3567C15.8726 10.5267 16.1929 10.5692 16.4847 10.472L16.1688 9.52325ZM9.75117 10.5268C9.36064 10.1363 8.72748 10.1363 8.33696 10.5268C7.94643 10.9173 7.94643 11.5505 8.33696 11.941L9.75117 10.5268ZM13.263 16.867C13.6535 17.2575 14.2867 17.2575 14.6772 16.867C15.0677 16.4765 15.0677 15.8433 14.6772 15.4528L13.263 16.867ZM14.6772 11.941C15.0677 11.5505 15.0677 10.9173 14.6772 10.5268C14.2867 10.1363 13.6535 10.1363 13.263 10.5268L14.6772 11.941ZM8.33696 15.4528C7.94643 15.8433 7.94643 16.4765 8.33696 16.867C8.72748 17.2575 9.36064 17.2575 9.75117 16.867L8.33696 15.4528ZM6.5 18C4.6355 18 3 16.3491 3 14.1538H1C1 17.3115 3.39394 20 6.5 20V18ZM3 14.1538C3 11.9586 4.6355 10.3077 6.5 10.3077V8.30769C3.39394 8.30769 1 10.9962 1 14.1538H3ZM21 14.1538C21 16.3491 19.3645 18 17.5 18V20C20.6061 20 23 17.3115 23 14.1538H21ZM17.5 10.3077C19.3645 10.3077 21 11.9586 21 14.1538H23C23 10.9962 20.6061 8.30769 17.5 8.30769V10.3077ZM17.5 18H6.5V20H17.5V18ZM8.02762 9.45389C8.25463 7.4476 9.81822 6 11.5927 6V4C8.67422 4 6.36692 6.34244 6.0403 9.22902L8.02762 9.45389ZM6.5 10.3077C6.63831 10.3077 6.77431 10.3165 6.90766 10.3334L7.16025 8.34946C6.9434 8.32185 6.72303 8.30769 6.5 8.30769V10.3077ZM16.4847 10.472C16.8054 10.3652 17.1459 10.3077 17.5 10.3077V8.30769C16.9272 8.30769 16.3735 8.40107 15.8528 8.57448L16.4847 10.472ZM11.5927 6C13.4101 6 15.0083 7.52091 15.1718 9.6016L17.1657 9.4449C16.931 6.45817 14.5837 4 11.5927 4V6ZM8.33696 11.941L10.8 14.404L12.2142 12.9898L9.75117 10.5268L8.33696 11.941ZM10.8 14.404L13.263 16.867L14.6772 15.4528L12.2142 12.9898L10.8 14.404ZM13.263 10.5268L10.8 12.9898L12.2142 14.404L14.6772 11.941L13.263 10.5268ZM10.8 12.9898L8.33696 15.4528L9.75117 16.867L12.2142 14.404L10.8 12.9898Z" fill="currentColor"/>
</svg>
