<svg width="24" height="24" viewBox="0 0 24 24" fill="none" xmlns="http://www.w3.org/2000/svg">
<path d="M21.7126 10.4539C21.9627 9.65684 22.0622 8.79805 21.9809 7.9142C21.6517 4.33947 18.487 1.70842 14.9123 2.03757C12.3747 2.27123 10.3126 3.93378 9.44742 6.15755M17.5247 13.5357H18.2679C20.3291 13.5357 22 15.2067 22 17.2679C22 19.3291 20.3291 21 18.2679 21H7.5C4.46243 21 2 18.5376 2 15.5C2 12.4624 4.46243 10 7.5 10H12.0133C12.6668 10 13.3158 10.1064 13.9351 10.3149L14.1028 10.3714C15.6275 10.8848 16.862 12.0319 17.4903 13.5129C17.4962 13.5267 17.5097 13.5357 17.5247 13.5357Z" stroke="currentColor" stroke-width="2" stroke-linecap="round" stroke-linejoin="round"/>
</svg>
