<svg width="24" height="24" viewBox="0 0 24 24" fill="none" xmlns="http://www.w3.org/2000/svg">
<path d="M8.39453 19.5767L7.18286 22M12.6055 19.5767L11.3938 22M16.8164 19.5767L15.6047 22M6.28034 7.43932H6.46281C6.48335 7.43932 6.5 7.42262 6.5 7.40208C6.5 4.42285 8.96745 2 11.9467 2C14.9842 2 17.5 4.46243 17.5 7.5V8.96281C17.5 8.98335 17.5167 9 17.5372 9H18.5C20.433 9 22 10.567 22 12.5C22 14.433 20.433 16 18.5 16H6.28034C3.91637 16 2 14.0836 2 11.7197C2 9.35569 3.91637 7.43932 6.28034 7.43932Z" stroke="currentColor" stroke-width="2" stroke-linecap="round" stroke-linejoin="round"/>
</svg>
