<svg width="24" height="24" viewBox="0 0 24 24" fill="none" xmlns="http://www.w3.org/2000/svg">
<path d="M7.78906 19.4336V22.143M12 19.4336V22.143M16.2109 19.4336V22.143M6.28034 7.43932H6.46281C6.48335 7.43932 6.5 7.42262 6.5 7.40208C6.5 4.42285 8.91514 2 11.8944 2H12.1056C15.0849 2 17.5 4.42285 17.5 7.40208C17.5 7.42262 17.5167 7.43932 17.5372 7.43932H17.7197C20.0836 7.43932 22 9.35569 22 11.7197C22 14.0836 20.0836 16 17.7197 16H6.28034C3.91637 16 2 14.0836 2 11.7197C2 9.35569 3.91637 7.43932 6.28034 7.43932Z" stroke="currentColor" stroke-width="2" stroke-linecap="round" stroke-linejoin="round"/>
</svg>
