<svg width="24" height="24" viewBox="0 0 24 24" fill="none" xmlns="http://www.w3.org/2000/svg">
<path d="M7.03396 9.34145L6.90766 10.3334C7.17315 10.3672 7.44112 10.2932 7.6516 10.1279C7.86209 9.9626 7.99752 9.71983 8.02762 9.45389L7.03396 9.34145ZM16.1688 9.52325L15.1718 9.6016C15.1959 9.90825 15.3598 10.1868 15.6162 10.3567C15.8726 10.5267 16.1929 10.5692 16.4847 10.472L16.1688 9.52325ZM14.0322 13.9252C14.5845 13.9252 15.0322 13.4774 15.0322 12.9252C15.0322 12.3729 14.5845 11.9252 14.0322 11.9252V13.9252ZM9.03224 11.9252C8.47996 11.9252 8.03224 12.3729 8.03224 12.9252C8.03224 13.4774 8.47996 13.9252 9.03224 13.9252V11.9252ZM12.5322 10.4253C12.5322 9.87298 12.0845 9.42527 11.5322 9.42527C10.98 9.42527 10.5322 9.87298 10.5322 10.4253H12.5322ZM10.5322 15.4253C10.5322 15.9776 10.98 16.4253 11.5322 16.4253C12.0845 16.4253 12.5322 15.9776 12.5322 15.4253H10.5322ZM6.5 18C4.6355 18 3 16.3491 3 14.1538H1C1 17.3115 3.39394 20 6.5 20V18ZM3 14.1538C3 11.9586 4.6355 10.3077 6.5 10.3077V8.30769C3.39394 8.30769 1 10.9962 1 14.1538H3ZM21 14.1538C21 16.3491 19.3645 18 17.5 18V20C20.6061 20 23 17.3115 23 14.1538H21ZM17.5 10.3077C19.3645 10.3077 21 11.9586 21 14.1538H23C23 10.9962 20.6061 8.30769 17.5 8.30769V10.3077ZM17.5 18H6.5V20H17.5V18ZM8.02762 9.45389C8.25463 7.4476 9.81822 6 11.5927 6V4C8.67422 4 6.36692 6.34244 6.0403 9.22902L8.02762 9.45389ZM6.5 10.3077C6.63831 10.3077 6.77431 10.3165 6.90766 10.3334L7.16025 8.34946C6.9434 8.32185 6.72303 8.30769 6.5 8.30769V10.3077ZM16.4847 10.472C16.8054 10.3652 17.1459 10.3077 17.5 10.3077V8.30769C16.9272 8.30769 16.3735 8.40107 15.8528 8.57448L16.4847 10.472ZM11.5927 6C13.4101 6 15.0083 7.52091 15.1718 9.6016L17.1657 9.4449C16.931 6.45817 14.5837 4 11.5927 4V6ZM14.0322 11.9252H11.5322V13.9252H14.0322V11.9252ZM11.5322 11.9252H9.03224V13.9252H11.5322V11.9252ZM10.5322 10.4253V12.9252H12.5322V10.4253H10.5322ZM10.5322 12.9252V15.4253H12.5322V12.9252H10.5322Z" fill="currentColor"/>
</svg>
