<svg width="24" height="24" viewBox="0 0 24 24" fill="none" xmlns="http://www.w3.org/2000/svg">
<path d="M8.39453 19.5767L7.18286 22M12.6055 19.5767L11.3938 22M16.8164 19.5767L15.6047 22M22 10.9731V11.25C22 13.8734 19.8734 16 17.25 16H9C5.13401 16 2 12.866 2 9C2 5.13401 5.13401 2 9 2H11.8055C12.5936 2 13.3735 2.16008 14.0979 2.47054C15.6258 3.12535 16.8008 4.40228 17.3264 5.97926L17.4915 6.47451C17.4966 6.48973 17.5108 6.5 17.5269 6.5C19.9973 6.5 22 8.50269 22 10.9731Z" stroke="currentColor" stroke-width="2" stroke-linecap="round" stroke-linejoin="round"/>
</svg>
