<svg width="24" height="24" viewBox="0 0 24 24" fill="none" xmlns="http://www.w3.org/2000/svg">
<path d="M9 14L10.6464 15.6464C10.8417 15.8417 11.1583 15.8417 11.3536 15.6464L15 12M6.5 19C4.01472 19 2 16.8303 2 14.1538C2 11.4774 4.01472 9.30769 6.5 9.30769C6.68067 9.30769 6.85885 9.31916 7.03396 9.34145C7.31077 6.89502 9.24622 5 11.5927 5C13.9969 5 15.9696 6.98954 16.1688 9.52325C16.5895 9.38314 17.0366 9.30769 17.5 9.30769C19.9853 9.30769 22 11.4774 22 14.1538C22 16.8303 19.9853 19 17.5 19H6.5Z" stroke="currentColor" stroke-width="2" stroke-linecap="round" stroke-linejoin="round"/>
</svg>
