<svg width="24" height="24" viewBox="0 0 24 24" fill="none" xmlns="http://www.w3.org/2000/svg">
<path d="M7.03396 9.34145L6.90766 10.3334C7.17315 10.3672 7.44112 10.2932 7.6516 10.1279C7.86209 9.9626 7.99752 9.71983 8.02762 9.45389L7.03396 9.34145ZM16.1688 9.52325L15.1718 9.6016C15.1959 9.90825 15.3598 10.1868 15.6162 10.3567C15.8726 10.5267 16.1929 10.5692 16.4847 10.472L16.1688 9.52325ZM5.70711 4.29289C5.31658 3.90237 4.68342 3.90237 4.29289 4.29289C3.90237 4.68342 3.90237 5.31658 4.29289 5.70711L5.70711 4.29289ZM20.2929 21.7071C20.6834 22.0976 21.3166 22.0976 21.7071 21.7071C22.0976 21.3166 22.0976 20.6834 21.7071 20.2929L20.2929 21.7071ZM18.796 18.796L19.5031 18.0889L18.796 18.796ZM9.63006 4.37643C9.11696 4.58074 8.86663 5.16232 9.07094 5.67542C9.27525 6.18853 9.85683 6.43885 10.3699 6.23454L9.63006 4.37643ZM20.5072 16.1219C20.2433 16.6071 20.4226 17.2143 20.9078 17.4782C21.393 17.7421 22.0002 17.5628 22.2641 17.0776L20.5072 16.1219ZM6.5 18C4.6355 18 3 16.3491 3 14.1538H1C1 17.3115 3.39394 20 6.5 20V18ZM3 14.1538C3 11.9586 4.6355 10.3077 6.5 10.3077V8.30769C3.39394 8.30769 1 10.9962 1 14.1538H3ZM17.5 10.3077C19.3645 10.3077 21 11.9586 21 14.1538H23C23 10.9962 20.6061 8.30769 17.5 8.30769V10.3077ZM17.5 18H6.5V20H17.5V18ZM6.5 10.3077C6.63831 10.3077 6.77431 10.3165 6.90766 10.3334L7.16025 8.34946C6.9434 8.32185 6.72303 8.30769 6.5 8.30769V10.3077ZM16.4847 10.472C16.8054 10.3652 17.1459 10.3077 17.5 10.3077V8.30769C16.9272 8.30769 16.3735 8.40107 15.8528 8.57448L16.4847 10.472ZM11.5927 6C13.4101 6 15.0083 7.52091 15.1718 9.6016L17.1657 9.4449C16.931 6.45817 14.5837 4 11.5927 4V6ZM4.29289 5.70711L6.85868 8.2729L8.2729 6.85868L5.70711 4.29289L4.29289 5.70711ZM8.02762 9.45389C8.08613 8.93675 8.23561 8.45287 8.45636 8.02063L6.67522 7.11095C6.34576 7.75601 6.12599 8.47174 6.0403 9.22902L8.02762 9.45389ZM6.85868 8.2729L18.0889 19.5031L19.5031 18.0889L8.2729 6.85868L6.85868 8.2729ZM18.0889 19.5031L20.2929 21.7071L21.7071 20.2929L19.5031 18.0889L18.0889 19.5031ZM18.4884 17.8445C18.1756 17.9456 17.8443 18 17.5 18V20C18.0568 20 18.5956 19.9118 19.1037 19.7475L18.4884 17.8445ZM10.3699 6.23454C10.7513 6.08268 11.1625 6 11.5927 6V4C10.9029 4 10.241 4.13315 9.63006 4.37643L10.3699 6.23454ZM21 14.1538C21 14.8777 20.8186 15.5494 20.5072 16.1219L22.2641 17.0776C22.7337 16.2142 23 15.2143 23 14.1538H21Z" fill="currentColor"/>
</svg>
