<svg width="24" height="24" viewBox="0 0 24 24" fill="none" xmlns="http://www.w3.org/2000/svg">
<path d="M20 18.1839C21.206 17.3146 22 15.8341 22 14.1538C22 11.4774 19.9853 9.30769 17.5 9.30769C17.0366 9.30769 16.5895 9.38314 16.1688 9.52325C15.9696 6.98954 13.9969 5 11.5927 5C9.24622 5 7.31077 6.89502 7.03396 9.34145C6.85885 9.31916 6.68067 9.30769 6.5 9.30769C4.01472 9.30769 2 11.4774 2 14.1538C2 15.7209 2.69061 17.1142 3.76194 18M11.3262 12.738L9.82009 13.2086C9.2508 13.3865 8.96616 13.4755 8.75536 13.6471C8.56925 13.7986 8.42482 13.995 8.33572 14.2179C8.23481 14.4702 8.23481 14.7685 8.23481 15.3649V15.7782C8.23481 16.8822 8.23481 17.4342 8.35422 17.9542C8.47571 18.4832 8.68779 18.9872 8.98108 19.4439C9.26937 19.8928 9.66404 20.2787 10.4534 21.0505C10.9764 21.562 11.238 21.8177 11.5353 21.9214C11.8362 22.0263 12.1638 22.0263 12.4647 21.9214C12.762 21.8177 13.0236 21.562 13.5466 21.0505C14.336 20.2787 14.7306 19.8928 15.0189 19.4439C15.3122 18.9872 15.5243 18.4832 15.6458 17.9542C15.7652 17.4342 15.7652 16.8822 15.7652 15.7782V15.3649C15.7652 14.7685 15.7652 14.4702 15.6643 14.2179C15.5752 13.995 15.4308 13.7986 15.2447 13.6471C15.0339 13.4755 14.7492 13.3865 14.1799 13.2086L12.6738 12.738C12.4235 12.6597 12.2984 12.6206 12.1707 12.6051C12.0573 12.5913 11.9427 12.5913 11.8294 12.6051C11.7017 12.6206 11.5765 12.6597 11.3262 12.738Z" stroke="currentColor" stroke-width="2" stroke-linecap="round" stroke-linejoin="round"/>
</svg>
