<svg width="24" height="24" viewBox="0 0 24 24" fill="none" xmlns="http://www.w3.org/2000/svg">
<path d="M12 7C12 4.23858 14.2386 2 17 2C19.7614 2 22 4.23858 22 7C22 8.9791 20.8502 10.6896 19.1821 11.5M22 15.9731V16.25C22 18.8734 19.8734 21 17.25 21H9C5.13401 21 2 17.866 2 14C2 10.134 5.13401 7 9 7H11.8055C12.5936 7 13.3735 7.16008 14.0979 7.47054C15.6258 8.12535 16.8008 9.40228 17.3264 10.9793L17.4915 11.4745C17.4966 11.4897 17.5108 11.5 17.5269 11.5C19.9973 11.5 22 13.5027 22 15.9731Z" stroke="currentColor" stroke-width="2" stroke-linecap="round" stroke-linejoin="round"/>
</svg>
