<svg width="24" height="24" viewBox="0 0 24 24" fill="none" xmlns="http://www.w3.org/2000/svg">
<path d="M17.4004 11.9645C19.4644 11.9645 21.2364 10.7138 21.9997 8.9289C21.8032 8.95237 21.6032 8.96445 21.4004 8.96445C18.639 8.96445 16.4004 6.72587 16.4004 3.96445C16.4004 3.26708 16.5432 2.60305 16.8011 2C14.3222 2.29611 12.4004 4.40585 12.4004 6.96445M17.5261 12.26H17.63C20.0435 12.26 22 14.2165 22 16.63C22 19.0435 20.0435 21 17.63 21H8.44C4.88329 21 2 18.1167 2 14.56C2 11.0033 4.88329 8.12 8.44 8.12H11.885C12.6217 8.12 13.3519 8.25874 14.0373 8.52899C15.6031 9.14636 16.8284 10.4064 17.4018 11.9889L17.4911 12.2354C17.4964 12.2502 17.5105 12.26 17.5261 12.26ZM4 2L4.54018 3.45982L6 4L4.54018 4.54018L4 6L3.45982 4.54018L2 4L3.45982 3.45982L4 2Z" stroke="currentColor" stroke-width="2" stroke-linecap="round" stroke-linejoin="round"/>
</svg>
