<svg width="24" height="24" viewBox="0 0 24 24" fill="none" xmlns="http://www.w3.org/2000/svg">
<path d="M7.03396 9.34145L6.90766 10.3334C7.17315 10.3672 7.44112 10.2932 7.6516 10.1279C7.86209 9.9626 7.99752 9.71983 8.02762 9.45389L7.03396 9.34145ZM16.1688 9.52325L15.1718 9.6016C15.1959 9.90825 15.3598 10.1868 15.6162 10.3567C15.8726 10.5267 16.1929 10.5692 16.4847 10.472L16.1688 9.52325ZM10.5 15.4011C10.5 15.9534 10.9477 16.4011 11.5 16.4011C12.0523 16.4011 12.5 15.9534 12.5 15.4011H10.5ZM12.5 9.40112C12.5 8.84884 12.0523 8.40112 11.5 8.40112C10.9477 8.40112 10.5 8.84884 10.5 9.40112H12.5ZM13.2541 12.8671C13.6219 13.2791 14.254 13.3149 14.666 12.9471C15.078 12.5792 15.1138 11.9471 14.7459 11.5351L13.2541 12.8671ZM11.5505 9.45769L12.2964 8.79168L11.5505 9.45769ZM11.4495 9.45769L12.1954 10.1237V10.1237L11.4495 9.45769ZM8.25406 11.5351C7.88623 11.9471 7.92201 12.5792 8.33398 12.9471C8.74595 13.3149 9.37811 13.2791 9.74594 12.8671L8.25406 11.5351ZM6.5 18C4.6355 18 3 16.3491 3 14.1538H1C1 17.3115 3.39394 20 6.5 20V18ZM3 14.1538C3 11.9586 4.6355 10.3077 6.5 10.3077V8.30769C3.39394 8.30769 1 10.9962 1 14.1538H3ZM21 14.1538C21 16.3491 19.3645 18 17.5 18V20C20.6061 20 23 17.3115 23 14.1538H21ZM17.5 10.3077C19.3645 10.3077 21 11.9586 21 14.1538H23C23 10.9962 20.6061 8.30769 17.5 8.30769V10.3077ZM17.5 18H6.5V20H17.5V18ZM8.02762 9.45389C8.25463 7.4476 9.81822 6 11.5927 6V4C8.67422 4 6.36692 6.34244 6.0403 9.22902L8.02762 9.45389ZM6.5 10.3077C6.63831 10.3077 6.77431 10.3165 6.90766 10.3334L7.16025 8.34946C6.9434 8.32185 6.72303 8.30769 6.5 8.30769V10.3077ZM16.4847 10.472C16.8054 10.3652 17.1459 10.3077 17.5 10.3077V8.30769C16.9272 8.30769 16.3735 8.40107 15.8528 8.57448L16.4847 10.472ZM11.5927 6C13.4101 6 15.0083 7.52091 15.1718 9.6016L17.1657 9.4449C16.931 6.45817 14.5837 4 11.5927 4V6ZM12.5 15.4011L12.5 9.43426H10.5L10.5 15.4011H12.5ZM12.5 9.43426V9.40112H10.5V9.43426H12.5ZM14.7459 11.5351L12.2964 8.79168L10.8046 10.1237L13.2541 12.8671L14.7459 11.5351ZM10.7036 8.79168L8.25406 11.5351L9.74594 12.8671L12.1954 10.1237L10.7036 8.79168ZM12.2964 8.79168C12.098 8.56944 11.8109 8.43426 11.5 8.43426V10.4343C11.2256 10.4343 10.9751 10.3147 10.8046 10.1237L12.2964 8.79168ZM11.5 8.43426C11.1891 8.43426 10.902 8.56944 10.7036 8.79168L12.1954 10.1237C12.0249 10.3147 11.7744 10.4343 11.5 10.4343V8.43426Z" fill="currentColor"/>
</svg>
