<svg width="24" height="24" viewBox="0 0 24 24" fill="none" xmlns="http://www.w3.org/2000/svg">
<path d="M13.1062 7.34526C12.6291 5.97964 11.3295 5 9.80113 5C8.27275 5 6.97319 5.97964 6.49609 7.34526M10 2.5V1M3.92188 7.69416H2.42188M17.5781 7.69421H15.922M15.3594 3.2196L14.1883 4.39066M4.64062 3.21875L5.81168 4.38981M17.5247 13.5357H18.2679C20.3291 13.5357 22 15.2067 22 17.2679C22 19.3291 20.3291 21 18.2679 21H7.5C4.46243 21 2 18.5376 2 15.5C2 12.4624 4.46243 10 7.5 10H12.0133C12.6668 10 13.3158 10.1063 13.9351 10.3149L14.1028 10.3714C15.6275 10.8848 16.862 12.0319 17.4903 13.5129C17.4962 13.5267 17.5097 13.5357 17.5247 13.5357Z" stroke="currentColor" stroke-width="2" stroke-linecap="round" stroke-linejoin="round"/>
</svg>
