<svg width="24" height="24" viewBox="0 0 24 24" fill="none" xmlns="http://www.w3.org/2000/svg">
<path d="M12 12L12 21M12 12L3.5 7.50005M12 12L20.5 7.50005M16.5 9.50005L7.5 4.50005M13.5541 21.1367L19.3541 17.9145C19.9531 17.5817 20.2526 17.4153 20.4707 17.1786C20.6637 16.9692 20.8097 16.721 20.899 16.4507C21 16.1451 21 15.8024 21 15.1172V8.88294C21 8.19765 21 7.85501 20.899 7.54941C20.8097 7.27906 20.6637 7.03089 20.4707 6.82151C20.2526 6.58484 19.9531 6.41844 19.3541 6.08563L13.5541 2.86341C12.9868 2.5483 12.7032 2.39074 12.4029 2.32897C12.1371 2.2743 11.8629 2.2743 11.5971 2.32897C11.2968 2.39074 11.0132 2.5483 10.4459 2.86341L4.64594 6.08563C4.04689 6.41844 3.74737 6.58484 3.52927 6.82151C3.33632 7.03089 3.19029 7.27906 3.10097 7.54941C3 7.85501 3 8.19765 3 8.88294V15.1172C3 15.8024 3 16.1451 3.10097 16.4507C3.19029 16.721 3.33632 16.9692 3.52927 17.1786C3.74737 17.4153 4.0469 17.5817 4.64594 17.9145L10.4459 21.1367C11.0132 21.4518 11.2968 21.6094 11.5971 21.6711C11.8629 21.7258 12.1371 21.7258 12.4029 21.6711C12.7032 21.6094 12.9868 21.4518 13.5541 21.1367Z" stroke="currentColor" stroke-width="2" stroke-linecap="round"/>
</svg>
