<svg width="24" height="24" viewBox="0 0 24 24" fill="none" xmlns="http://www.w3.org/2000/svg">
<path d="M20.7159 7.14927C20.6458 7.03223 20.5637 6.92234 20.4707 6.82145C20.2526 6.58478 19.9531 6.41838 19.3541 6.08557L13.5541 2.86335C12.9868 2.54823 12.7032 2.39068 12.4029 2.32891C12.1371 2.27424 11.8629 2.27424 11.5971 2.32891C11.2968 2.39068 11.0132 2.54823 10.4459 2.86335L4.64594 6.08557C4.04689 6.41838 3.74737 6.58478 3.52927 6.82145C3.42942 6.9298 3.34214 7.04853 3.26878 7.17535M20.7159 7.14927C20.7912 7.27514 20.8527 7.40926 20.899 7.54935C21 7.85495 21 8.19759 21 8.88288V10.75M20.7159 7.14927L12 12M3.26878 7.17535C3.20038 7.29361 3.14407 7.4189 3.10097 7.54935C3 7.85495 3 8.19759 3 8.88288V15.1171C3 15.8024 3 16.145 3.10097 16.4506C3.19029 16.721 3.33632 16.9691 3.52927 17.1785C3.74737 17.4152 4.0469 17.5816 4.64594 17.9144L10.4459 21.1366C11.0132 21.4517 11.2968 21.6093 11.5971 21.6711C11.8166 21.7162 12 21.5304 12 21.3064L12 12M3.26878 7.17535L12 12M16.5 9.49999L7.5 4.49999M17.1992 16.9113L19.5996 19.3117M19.5996 19.3117L22 21.7121M19.5996 19.3117L22 16.9113M19.5996 19.3117L17.1992 21.7121" stroke="currentColor" stroke-width="2" stroke-linecap="round"/>
</svg>
