<svg width="24" height="24" viewBox="0 0 24 24" fill="none" xmlns="http://www.w3.org/2000/svg">
<path d="M5.37695 16.6361C5.37695 18.4908 5.37695 19.4181 5.73789 20.1264C6.05537 20.7495 6.56197 21.2561 7.18508 21.5736C7.89345 21.9346 8.82076 21.9346 10.6754 21.9346H13.3246C15.1792 21.9346 16.1066 21.9346 16.8149 21.5736C17.438 21.2561 17.9446 20.7495 18.2621 20.1264C18.623 19.4181 18.623 18.4908 18.623 16.6361M18.623 7.36387C18.623 5.50924 18.623 4.58193 18.2621 3.87355C17.9446 3.25045 17.438 2.74385 16.8149 2.42636C16.1066 2.06543 15.1792 2.06543 13.3246 2.06543H10.6754C8.82076 2.06543 7.89345 2.06543 7.18508 2.42636C6.56197 2.74385 6.05537 3.25045 5.73789 3.87355C5.37695 4.58193 5.37695 5.50924 5.37695 7.36387M10.8962 5.37695H13.1038M9.7923 9.79232L7.97489 11.6097C7.75935 11.8253 7.75935 12.1747 7.97489 12.3903L9.7923 14.2077M14.2077 9.79232L16.0251 11.6097C16.2406 11.8253 16.2406 12.1747 16.0251 12.3903L14.2077 14.2077" stroke="currentColor" stroke-width="2" stroke-linecap="round" stroke-linejoin="round"/>
</svg>
