<svg width="24" height="24" viewBox="0 0 24 24" fill="none" xmlns="http://www.w3.org/2000/svg">
<path d="M8.01046 9.24188L5.73987 11.5125C5.47058 11.7818 5.47058 12.2184 5.73987 12.4876L8.01046 14.7582M15.8857 9.24188L18.1562 11.5125C18.4255 11.7818 18.4255 12.2184 18.1562 12.4876L15.8857 14.7582M12.8742 7.5L11.0503 16.5183M6.8 22H17.2C18.8802 22 19.7202 22 20.362 21.673C20.9265 21.3854 21.3854 20.9265 21.673 20.362C22 19.7202 22 18.8802 22 17.2V6.8C22 5.11984 22 4.27976 21.673 3.63803C21.3854 3.07354 20.9265 2.6146 20.362 2.32698C19.7202 2 18.8802 2 17.2 2H6.8C5.11984 2 4.27976 2 3.63803 2.32698C3.07354 2.6146 2.6146 3.07354 2.32698 3.63803C2 4.27976 2 5.11984 2 6.8V17.2C2 18.8802 2 19.7202 2.32698 20.362C2.6146 20.9265 3.07354 21.3854 3.63803 21.673C4.27976 22 5.11984 22 6.8 22Z" stroke="currentColor" stroke-width="2" stroke-linecap="round"/>
</svg>
