<svg width="24" height="24" viewBox="0 0 24 24" fill="none" xmlns="http://www.w3.org/2000/svg">
<path d="M6.33594 5.41797L4.17406 7.64938L2 5.41797M17.6641 18.582L19.8259 16.3506L22 18.582M4.16797 7.64941V6.51953C4.16797 5.10337 4.16797 4.39529 4.40224 3.83779C4.70636 3.11407 5.28204 2.53839 6.00576 2.23427C6.56325 2 7.27134 2 8.6875 2M19.832 16.3506V17.4805C19.832 18.8966 19.832 19.6047 19.5978 20.1622C19.2936 20.8859 18.718 21.4616 17.9942 21.7657C17.4367 22 16.7287 22 15.3125 22M16.5 13C19.5376 13 22 10.5376 22 7.5C22 4.46243 19.5376 2 16.5 2C13.4624 2 11 4.46243 11 7.5M13 16.5C13 19.5376 10.5376 22 7.5 22C4.46243 22 2 19.5376 2 16.5C2 13.4624 4.46243 11 7.5 11C10.5376 11 13 13.4624 13 16.5Z" stroke="currentColor" stroke-width="2" stroke-linecap="round" stroke-linejoin="round"/>
</svg>
