<svg width="24" height="24" viewBox="0 0 24 24" fill="none" xmlns="http://www.w3.org/2000/svg">
<path d="M13.2774 17.6387C13.2774 20.0474 15.23 22.0001 17.6387 22.0001C20.0474 22.0001 22.0001 20.0474 22.0001 17.6387C22.0001 15.23 20.0474 13.2774 17.6387 13.2774C16.8091 13.2774 16.0335 13.5091 15.3733 13.9112M21.203 14.9716L21.0099 11.5552C20.9567 10.6138 20.9301 10.143 20.7758 9.72345C20.6393 9.35199 20.4305 9.01122 20.1617 8.72078C19.858 8.3927 19.4508 8.15513 18.6364 7.67998L16.1165 6.20985C15.8707 6.06646 15.7478 5.99476 15.6193 5.93526C15.5052 5.88239 15.3879 5.83674 15.268 5.7986C15.1331 5.75568 14.9941 5.72549 14.716 5.66512L7.54872 4.10913M5.94733 9.77188L6.76867 10.3327C7.06007 10.5316 7.20577 10.6311 7.33788 10.746C7.45524 10.848 7.56449 10.959 7.66464 11.078C7.77738 11.2119 7.87452 11.3592 8.06881 11.6537L10.0524 14.6606C10.2709 14.9919 10.3801 15.1575 10.5088 15.306C10.6231 15.4379 10.7487 15.5596 10.8841 15.6697C11.0366 15.7936 11.2056 15.8976 11.5436 16.1056L14.5812 17.9748C15.3576 18.4525 16.3728 18.2303 16.8786 17.4719C17.3508 16.7638 17.2244 15.8152 16.5832 15.2555L14.4459 13.3901L13.206 12.2077C12.1938 11.2426 13.2743 9.5936 14.5633 10.1363L15.8159 10.6627C16.232 10.8376 16.44 10.925 16.6027 11.0549C16.8475 11.2503 17.0249 11.5174 17.1102 11.8187C17.1669 12.019 17.1669 12.2447 17.1669 12.696M3.55958 10.8663C3.11044 10.7459 2.88587 10.6858 2.71484 10.587C2.25074 10.3191 1.96484 9.82388 1.96484 9.28799C1.96484 9.09051 2.02502 8.86594 2.14536 8.4168L3.43946 3.58717C3.55981 3.13802 3.61998 2.91345 3.71872 2.74243C3.98667 2.27833 4.48186 1.99243 5.01776 1.99243C5.21524 1.99243 5.43981 2.05261 5.88895 2.17295C6.33809 2.2933 6.56266 2.35347 6.73368 2.45221C7.19779 2.72016 7.48368 3.21535 7.48368 3.75125C7.48368 3.94873 7.42351 4.1733 7.30316 4.62244L6.00907 9.45207C5.88872 9.90121 5.82855 10.1258 5.72981 10.2968C5.46186 10.7609 4.96667 11.0468 4.43077 11.0468C4.23329 11.0468 4.00872 10.9866 3.55958 10.8663Z" stroke="currentColor" stroke-width="2" stroke-linecap="round" stroke-linejoin="round"/>
</svg>
