<svg width="24" height="24" viewBox="0 0 24 24" fill="none" xmlns="http://www.w3.org/2000/svg">
<path d="M13.0008 9.74268C13.0008 10.8472 10.5383 11.7427 7.50075 11.7427C4.46318 11.7427 2.00075 10.8472 2.00075 9.74268M2 14.8713C2 15.9759 4.46243 16.8713 7.5 16.8713C9.41144 16.8713 11.0951 16.5168 12.0808 15.9786M13.0008 20C13.0008 21.1046 10.5383 22 7.50075 22C4.46318 22 2.00075 21.1046 2.00075 20M2.00075 4.3761V20.1296M13.0008 4.3761V13.6587M22.0008 17C22.0008 19.7614 19.7622 22 17.0008 22C14.2393 22 12.0008 19.7614 12.0008 17C12.0008 14.2386 14.2393 12 17.0008 12C19.7622 12 22.0008 14.2386 22.0008 17ZM13.0008 4.43018C13.0008 5.77232 10.5383 6.86035 7.50075 6.86035C4.46318 6.86035 2.00075 5.77232 2.00075 4.43018C2.00075 3.08803 4.46318 2 7.50075 2C10.5383 2 13.0008 3.08803 13.0008 4.43018Z" stroke="currentColor" stroke-width="2" stroke-linecap="round" stroke-linejoin="round"/>
</svg>
