<svg width="24" height="24" viewBox="0 0 24 24" fill="none" xmlns="http://www.w3.org/2000/svg">
<path d="M6 13.9011L10.0021 12.3703C10.4641 12.1935 10.9626 12.1338 11.4533 12.1964M15.7527 16.2253H14.2755M6 19.407H7.62672C8.10398 19.407 8.57434 19.5208 8.99876 19.7391L10.7686 20.6493C11.3392 20.9427 11.9888 21.0455 12.6221 20.9426L17.0655 20.2202C17.5253 20.1454 17.9614 19.9646 18.3392 19.692L18.7045 19.4285M19.3063 14.6135C20.4925 13.9035 22 14.758 22 16.1405C22 16.5384 21.867 16.9193 21.6299 17.227M1.75 2L21.75 22M9.70695 4.98062C10.4724 3.22625 12.2224 2 14.2588 2C17.0003 2 19.2227 4.2224 19.2227 6.96387C19.2227 8.97127 18.0311 10.7004 16.3166 11.4824M4 21C3.53501 21 3.30252 21 3.11177 20.9489C2.59413 20.8102 2.18981 20.4059 2.05111 19.8882C2 19.6975 2 19.465 2 19V14C2 13.535 2 13.3025 2.05111 13.1118C2.18981 12.5941 2.59413 12.1898 3.11177 12.0511C3.30252 12 3.53501 12 4 12C4.46499 12 4.69748 12 4.88823 12.0511C5.40587 12.1898 5.81019 12.5941 5.94889 13.1118C6 13.3025 6 13.535 6 14V19C6 19.465 6 19.6975 5.94889 19.8882C5.81019 20.4059 5.40587 20.8102 4.88823 20.9489C4.69748 21 4.46499 21 4 21Z" stroke="currentColor" stroke-width="2" stroke-linecap="round" stroke-linejoin="round"/>
</svg>
