<svg width="24" height="24" viewBox="0 0 24 24" fill="none" xmlns="http://www.w3.org/2000/svg">
<path d="M10 2H14.8506C15.5281 2 15.8669 2 16.3926 2.14615C16.7144 2.23562 17.4171 2.57669 17.6865 2.77423C18.1265 3.09687 18.2167 3.21142 18.3971 3.44052C19.9847 5.45705 21 8.54221 21 12C21 15.4578 19.9847 18.5429 18.3971 20.5595C18.2167 20.7886 18.1265 20.9031 17.6865 21.2258C17.4171 21.4233 16.7144 21.7644 16.3926 21.8539C15.8669 22 15.5281 22 14.8506 22H10M16 12C16 17.5228 13.0899 22 9.5 22C5.91015 22 3 17.5228 3 12C3 6.47715 5.91015 2 9.5 2C13.0899 2 16 6.47715 16 12Z" stroke="currentColor" stroke-width="2" stroke-linecap="round" stroke-linejoin="round"/>
</svg>
