<svg width="24" height="24" viewBox="0 0 24 24" fill="none" xmlns="http://www.w3.org/2000/svg">
<path d="M15.8127 7.52182C14.8163 6.7416 13.5537 6.27527 12.1802 6.27527C8.96004 6.27527 6.34961 8.83832 6.34961 12C6.34961 15.1617 8.96004 17.7247 12.1802 17.7247C13.5537 17.7247 14.8163 17.2584 15.8127 16.4782M4.89648 10.3741H10.2559M4.89648 13.6259H10.2559M22 12C22 17.5228 17.5228 22 12 22C6.47715 22 2 17.5228 2 12C2 6.47715 6.47715 2 12 2C17.5228 2 22 6.47715 22 12Z" stroke="currentColor" stroke-width="2" stroke-linecap="round" stroke-linejoin="round"/>
</svg>
