<svg width="24" height="24" viewBox="0 0 24 24" fill="none" xmlns="http://www.w3.org/2000/svg">
<path d="M15.2793 16.4249H8.7672C8.48864 16.4249 8.34936 16.4249 8.28677 16.3942C8.13215 16.3182 8.07316 16.1278 8.1577 15.9777C8.19192 15.917 8.30679 15.8382 8.53652 15.6806L8.98337 15.3742C9.09094 15.3004 9.14472 15.2636 9.195 15.2267C10.0843 14.5753 10.6653 13.5857 10.8008 12.4917C10.8084 12.4298 10.8144 12.3649 10.8264 12.235L11.1936 8.25874C11.2908 7.20552 12.1744 6.39978 13.2321 6.39978H13.4036C14.4395 6.39978 15.2793 7.23954 15.2793 8.27544M7.83203 12.7441H12.456M22 12C22 17.5228 17.5228 22 12 22C6.47715 22 2 17.5228 2 12C2 6.47715 6.47715 2 12 2C17.5228 2 22 6.47715 22 12Z" stroke="currentColor" stroke-width="2" stroke-linecap="round" stroke-linejoin="round"/>
</svg>
