<svg width="24" height="24" viewBox="0 0 24 24" fill="none" xmlns="http://www.w3.org/2000/svg">
<path d="M6 13.9011L9.57986 12.5318C9.99952 12.3713 10.2093 12.291 10.426 12.2431C10.6183 12.2005 10.8144 12.177 11.0114 12.1729C11.2332 12.1683 11.4561 12.1967 11.9018 12.2536L16.2865 12.8126C17.1341 12.9207 17.7725 13.6367 17.7829 14.4911C17.7946 15.4454 17.0242 16.2253 16.0698 16.2253H14.2755M6 19.407H7.19099C7.62422 19.407 7.84084 19.407 8.05278 19.4374C8.241 19.4644 8.42623 19.5092 8.60596 19.5713C8.80835 19.6412 9.00099 19.7402 9.38625 19.9384L10.2416 20.3783C10.7632 20.6465 11.024 20.7806 11.2996 20.8611C11.5442 20.9326 11.7969 20.9726 12.0516 20.9801C12.3386 20.9886 12.6281 20.9416 13.2071 20.8475L16.6459 20.2884C17.0631 20.2206 17.2718 20.1866 17.4715 20.1248C17.6488 20.0699 17.8207 19.9986 17.9848 19.9119C18.1697 19.8143 18.3411 19.6907 18.684 19.4433L21.2616 17.5838C21.7253 17.2493 22 16.7123 22 16.1405C22 14.758 20.4925 13.9035 19.3063 14.6135L17.1923 15.879M22 5.73615C22 7.79956 20.3273 9.47229 18.2639 9.47229C16.2004 9.47229 14.5277 7.79956 14.5277 5.73615C14.5277 3.67273 16.2004 2 18.2639 2C20.3273 2 22 3.67273 22 5.73615ZM4 21C3.53501 21 3.30252 21 3.11177 20.9489C2.59413 20.8102 2.18981 20.4059 2.05111 19.8882C2 19.6975 2 19.465 2 19V14C2 13.535 2 13.3025 2.05111 13.1118C2.18981 12.5941 2.59413 12.1898 3.11177 12.0511C3.30252 12 3.53501 12 4 12C4.46499 12 4.69748 12 4.88823 12.0511C5.40587 12.1898 5.81019 12.5941 5.94889 13.1118C6 13.3025 6 13.535 6 14V19C6 19.465 6 19.6975 5.94889 19.8882C5.81019 20.4059 5.40587 20.8102 4.88823 20.9489C4.69748 21 4.46499 21 4 21Z" stroke="currentColor" stroke-width="2" stroke-linecap="round" stroke-linejoin="round"/>
</svg>
