<svg width="24" height="24" viewBox="0 0 24 24" fill="none" xmlns="http://www.w3.org/2000/svg">
<path d="M11 9.74268C11 10.8472 13.4624 11.7427 16.5 11.7427C19.5376 11.7427 22 10.8472 22 9.74268M22.0008 14.8713C22.0008 15.9759 19.5383 16.8713 16.5008 16.8713C14.5893 16.8713 12.9056 16.5168 11.9199 15.9786M11 20C11 21.1046 13.4624 22 16.5 22C19.5376 22 22 21.1046 22 20M22 4.39172V20.1296M11 4.39172V13.853M2 17C2 19.7614 4.23858 22 7 22C9.76142 22 12 19.7614 12 17C12 14.2386 9.76142 12 7 12C4.23858 12 2 14.2386 2 17ZM11 4.43018C11 5.77232 13.4624 6.86035 16.5 6.86035C19.5376 6.86035 22 5.77232 22 4.43018C22 3.08803 19.5376 2 16.5 2C13.4624 2 11 3.08803 11 4.43018Z" stroke="currentColor" stroke-width="2" stroke-linecap="round" stroke-linejoin="round"/>
</svg>
