<svg width="24" height="24" viewBox="0 0 24 24" fill="none" xmlns="http://www.w3.org/2000/svg">
<path d="M8.18164 7.22644H13.4326C14.7507 7.22644 15.8193 8.29504 15.8193 9.61322C15.8193 10.9314 14.7507 12 13.4326 12M13.4326 12H9.61371M13.4326 12C14.7507 12 15.8193 13.0686 15.8193 14.3868C15.8193 15.705 14.7507 16.7736 13.4326 16.7736H8.18164M9.13672 6.27173L9.13672 17.7283M13.2207 16.7736V17.7283M13.2207 6.27173V7.22644M22 12C22 17.5228 17.5228 22 12 22C6.47715 22 2 17.5228 2 12C2 6.47715 6.47715 2 12 2C17.5228 2 22 6.47715 22 12Z" stroke="currentColor" stroke-width="2" stroke-linecap="round" stroke-linejoin="round"/>
</svg>
