<svg width="24" height="24" viewBox="0 0 24 24" fill="none" xmlns="http://www.w3.org/2000/svg">
<path d="M11.9997 12H10.7692C9.44802 12 8.37695 10.929 8.37695 9.60776C8.37695 8.28653 9.44802 7.21547 10.7692 7.21547H11.9997M11.9997 12H13.2301C14.5514 12 15.6224 13.0711 15.6224 14.3923C15.6224 15.7136 14.5514 16.7846 13.2301 16.7846H11.9997M11.9997 12V7.21547M11.9997 12V16.7846M11.9997 7.21547V5.62061M11.9997 7.21547H13.7764C14.3182 7.21547 14.8385 7.42732 15.2262 7.80578M11.9997 16.7846V18.3795M11.9997 16.7846H10.5545C10.1439 16.7846 9.93864 16.7846 9.73732 16.7572C9.55853 16.7329 9.3823 16.6925 9.21077 16.6365C9.01763 16.5734 8.83284 16.484 8.46326 16.3051L8.37695 16.2633M22 12C22 17.5228 17.5228 22 12 22C6.47715 22 2 17.5228 2 12C2 6.47715 6.47715 2 12 2C17.5228 2 22 6.47715 22 12Z" stroke="currentColor" stroke-width="2" stroke-linecap="round" stroke-linejoin="round"/>
</svg>
