<svg width="24" height="24" viewBox="0 0 24 24" fill="none" xmlns="http://www.w3.org/2000/svg">
<path d="M11 4C11 5.10457 13.4624 6 16.5 6C19.5376 6 22 5.10457 22 4M11 4C11 2.89543 13.4624 2 16.5 2C19.5376 2 22 2.89543 22 4M11 4V7M22 4V20C22 21.1046 19.5376 22 16.5 22M2 12C2 13.1046 4.46243 14 7.5 14C10.5376 14 13 13.1046 13 12M2 12C2 10.8954 4.46243 10 7.5 10C10.5376 10 13 10.8954 13 12M2 12V20C2 21.1046 4.46243 22 7.5 22C10.5376 22 13 21.1046 13 20V12M16.5 10C19.5376 10 22 9.10457 22 8M2 16C2 17.1046 4.46243 18 7.5 18C10.5376 18 13 17.1046 13 16M16.5 14C19.5376 14 22 13.1046 22 12M16.5 18C19.5376 18 22 17.1046 22 16" stroke="currentColor" stroke-width="2" stroke-linecap="round" stroke-linejoin="round"/>
</svg>
