<svg width="24" height="24" viewBox="0 0 24 24" fill="none" xmlns="http://www.w3.org/2000/svg">
<path d="M8.14039 9.39722H8.15039M12.8045 6.6675H12.8145M17.3181 9.39722H17.3281M21.546 11.4796C23.6781 6.68567 17.7467 2 12.5 2C7.25329 2 3 6.25329 3 11.5C3 16.7467 7.25329 21 12.5 21C13.827 21 14.5962 19.682 13.8571 18.7381C13.0045 17.6491 11.8724 16.4418 13.6119 15.0511C15.3514 13.6604 19.8952 15.1911 21.546 11.4796ZM8.96484 9.39722C8.96484 9.84703 8.6002 10.2117 8.15039 10.2117C7.70058 10.2117 7.33594 9.84703 7.33594 9.39722C7.33594 8.94741 7.70058 8.58276 8.15039 8.58276C8.6002 8.58276 8.96484 8.94741 8.96484 9.39722ZM13.6289 6.6675C13.6289 7.11731 13.2643 7.48195 12.8145 7.48195C12.3646 7.48195 12 7.11731 12 6.6675C12 6.21769 12.3646 5.85304 12.8145 5.85304C13.2643 5.85304 13.6289 6.21769 13.6289 6.6675ZM18.1426 9.39722C18.1426 9.84703 17.7779 10.2117 17.3281 10.2117C16.8783 10.2117 16.5137 9.84703 16.5137 9.39722C16.5137 8.94741 16.8783 8.58276 17.3281 8.58276C17.7779 8.58276 18.1426 8.94741 18.1426 9.39722Z" stroke="currentColor" stroke-width="2" stroke-linecap="round" stroke-linejoin="round"/>
</svg>
