<svg width="24" height="24" viewBox="0 0 24 24" fill="none" xmlns="http://www.w3.org/2000/svg">
<path d="M18.4818 13.9553C19.7261 13.6307 20.875 12.9882 21.546 11.4796C23.6781 6.68567 17.7467 2 12.5 2C10.8151 2 9.23272 2.43861 7.8607 3.20788M8.13961 9.39723H8.14961M12.8045 6.6675H12.8145M17.3181 9.39722H17.3281M1.75 2L5.19016 5.44016M21.75 22L14.4086 14.6586M5.19016 5.44016L5.01194 5.65304C3.75132 7.2652 3 9.29486 3 11.5C3 16.7467 7.25329 21 12.5 21C13.827 21 14.5962 19.682 13.8571 18.7381C13.0045 17.6491 11.8724 16.4418 13.6119 15.0511C13.7728 14.9225 13.9577 14.8189 14.1621 14.7337L14.4086 14.6586M5.19016 5.44016L14.4086 14.6586M8.83616 9.4873C8.83616 9.93711 8.47152 10.3017 8.02171 10.3017C7.5719 10.3017 7.20725 9.93711 7.20725 9.4873C7.20725 9.03749 7.5719 8.67284 8.02171 8.67284C8.47152 8.67284 8.83616 9.03749 8.83616 9.4873ZM13.6289 6.6675C13.6289 7.11731 13.2643 7.48195 12.8145 7.48195C12.3646 7.48195 12 7.11731 12 6.6675C12 6.21769 12.3646 5.85304 12.8145 5.85304C13.2643 5.85304 13.6289 6.21769 13.6289 6.6675ZM18.1426 9.39722C18.1426 9.84703 17.7779 10.2117 17.3281 10.2117C16.8783 10.2117 16.5137 9.84703 16.5137 9.39722C16.5137 8.94741 16.8783 8.58276 17.3281 8.58276C17.7779 8.58276 18.1426 8.94741 18.1426 9.39722Z" stroke="currentColor" stroke-width="2" stroke-linecap="round" stroke-linejoin="round"/>
</svg>
