<svg width="24" height="24" viewBox="0 0 24 24" fill="none" xmlns="http://www.w3.org/2000/svg">
<path d="M22 12C22 17.5228 17.5228 22 12 22C6.47715 22 2 17.5228 2 12C2 6.47715 6.47715 2 12 2C17.5228 2 22 6.47715 22 12Z" stroke="currentColor" stroke-width="2" stroke-linecap="round" stroke-linejoin="round"/>
<path d="M8.44963 12.9332C7.68399 12.6265 7.30117 12.4732 7.18308 12.2496C7.08059 12.0555 7.07678 11.8242 7.17282 11.6269C7.28348 11.3995 7.66105 11.2336 8.41618 10.902L14.0029 8.44827C14.6655 8.15727 14.9968 8.01178 15.2286 8.07247C15.4302 8.12526 15.5971 8.26658 15.6824 8.45679C15.7805 8.67545 15.6915 9.02617 15.5136 9.72761L14.0138 15.6422C13.811 16.4417 13.7097 16.8414 13.5036 16.988C13.3248 17.1153 13.096 17.1496 12.8877 17.0805C12.6476 17.0008 12.4334 16.6485 12.0048 15.9438L10.9198 14.1597C10.849 14.0433 10.8136 13.9851 10.7687 13.9358C10.7288 13.8921 10.6835 13.8537 10.6338 13.8216C10.5779 13.7854 10.5146 13.7601 10.3881 13.7095L8.44963 12.9332Z" stroke="currentColor" stroke-width="2" stroke-linecap="round" stroke-linejoin="round"/>
</svg>
