<svg width="24" height="24" viewBox="0 0 24 24" fill="none" xmlns="http://www.w3.org/2000/svg">
<path d="M22 12C22 17.5228 17.5228 22 12 22C6.47715 22 2 17.5228 2 12C2 6.47715 6.47715 2 12 2C17.5228 2 22 6.47715 22 12Z" stroke="currentColor" stroke-width="2" stroke-linecap="round" stroke-linejoin="round"/>
<path d="M14.7248 8.26327L11.0171 9.49915C10.5997 9.63829 10.391 9.70786 10.2177 9.82643C10.0642 9.93144 9.93151 10.0641 9.8265 10.2176C9.70793 10.3909 9.63836 10.5996 9.49922 11.017L8.26334 14.7247C8.10049 15.2132 8.01907 15.4575 8.07699 15.62C8.1274 15.7613 8.23864 15.8726 8.38001 15.923C8.54245 15.9809 8.78672 15.8995 9.27527 15.7366L12.9829 14.5007C13.4003 14.3616 13.609 14.292 13.7824 14.1735C13.9359 14.0685 14.0685 13.9358 14.1735 13.7823C14.2921 13.609 14.3617 13.4003 14.5008 12.9828L15.7367 9.2752C15.8995 8.78665 15.981 8.54238 15.923 8.37994C15.8726 8.23857 15.7614 8.12733 15.62 8.07692C15.4576 8.019 15.2133 8.10042 14.7248 8.26327Z" stroke="currentColor" stroke-width="2" stroke-linecap="round" stroke-linejoin="round"/>
</svg>
