<svg width="24" height="24" viewBox="0 0 24 24" fill="none" xmlns="http://www.w3.org/2000/svg">
<path d="M22 12C22 17.5228 17.5228 22 12 22M22 12C22 6.47715 17.5228 2 12 2M22 12H20.5M12 22C6.47715 22 2 17.5228 2 12M12 22V20.5M2 12C2 6.47715 6.47715 2 12 2M2 12H3.5M12 2V3.5M19.0711 19.0711L18.0104 18.0104M5.98959 5.98959L4.92893 4.92893M19.0711 4.92893L18.0104 5.98959M5.98959 18.0104L4.92893 19.0711M11.0171 9.49915L14.7248 8.26327C15.2133 8.10042 15.4576 8.019 15.62 8.07692C15.7614 8.12733 15.8726 8.23857 15.923 8.37994C15.981 8.54238 15.8995 8.78665 15.7367 9.2752L14.5008 12.9828C14.3617 13.4003 14.2921 13.609 14.1735 13.7823C14.0685 13.9358 13.9359 14.0685 13.7824 14.1735C13.609 14.292 13.4003 14.3616 12.9829 14.5007L9.27527 15.7366C8.78672 15.8995 8.54245 15.9809 8.38001 15.923C8.23864 15.8726 8.1274 15.7613 8.07699 15.62C8.01907 15.4575 8.10049 15.2132 8.26334 14.7247L9.49922 11.017C9.63836 10.5996 9.70793 10.3909 9.8265 10.2176C9.93151 10.0641 10.0642 9.93144 10.2177 9.82643C10.391 9.70786 10.5997 9.63829 11.0171 9.49915Z" stroke="currentColor" stroke-width="2" stroke-linecap="round" stroke-linejoin="round"/>
</svg>
