<svg width="24" height="24" viewBox="0 0 24 24" fill="none" xmlns="http://www.w3.org/2000/svg">
<path d="M22 12C22 17.5228 17.5228 22 12 22M22 12C22 6.47715 17.5228 2 12 2M22 12H20.5M12 22C6.47715 22 2 17.5228 2 12M12 22V20.5M2 12C2 6.47715 6.47715 2 12 2M2 12H3.5M12 2V3.5M19.0711 19.0711L18.0104 18.0104M5.98959 5.98959L4.92893 4.92893M19.0711 4.92893L18.0104 5.98959M5.98959 18.0104L4.92893 19.0711M8.07434 12L12 8.07431L15.9257 12L12 15.9257L8.07434 12Z" stroke="currentColor" stroke-width="2" stroke-linecap="round" stroke-linejoin="round"/>
</svg>
