<svg width="24" height="24" viewBox="0 0 24 24" fill="none" xmlns="http://www.w3.org/2000/svg">
<path d="M15.8182 13.6971C15.2241 13.103 14.9271 12.806 14.8158 12.4635C14.718 12.1623 14.718 11.8377 14.8158 11.5365C14.9271 11.194 15.2241 10.897 15.8182 10.3029L16.6667 9.45442C17.2607 8.8604 17.5577 8.56338 17.9002 8.4521C18.2015 8.35421 18.526 8.35421 18.8273 8.4521C19.1698 8.56338 19.4668 8.8604 20.0608 9.45442L20.9093 10.3029C21.5034 10.897 21.8004 11.194 21.9117 11.5365C22.0095 11.8377 22.0095 12.1623 21.9117 12.4635C21.8004 12.806 21.5034 13.103 20.9093 13.6971L20.0608 14.5456C19.4668 15.1396 19.1698 15.4366 18.8273 15.5479C18.526 15.6458 18.2015 15.6458 17.9002 15.5479C17.5577 15.4366 17.2607 15.1396 16.6667 14.5456L15.8182 13.6971Z" stroke="currentColor" stroke-width="2" stroke-linecap="round" stroke-linejoin="round"/>
<path d="M9.45489 20.061C8.86086 19.467 8.56385 19.17 8.45257 18.8275C8.35468 18.5262 8.35468 18.2017 8.45257 17.9004C8.56385 17.5579 8.86086 17.2609 9.45489 16.6669L10.3034 15.8184C10.8974 15.2243 11.1945 14.9273 11.5369 14.8161C11.8382 14.7182 12.1627 14.7182 12.464 14.8161C12.8065 14.9273 13.1035 15.2243 13.6975 15.8184L14.5461 16.6669C15.1401 17.2609 15.4371 17.5579 15.5484 17.9004C15.6463 18.2017 15.6463 18.5262 15.5484 18.8275C15.4371 19.17 15.1401 19.467 14.5461 20.061L13.6975 20.9095C13.1035 21.5036 12.8065 21.8006 12.464 21.9119C12.1627 22.0098 11.8382 22.0098 11.5369 21.9119C11.1945 21.8006 10.8974 21.5036 10.3034 20.9095L9.45489 20.061Z" stroke="currentColor" stroke-width="2" stroke-linecap="round" stroke-linejoin="round"/>
<path d="M3.09063 13.6971C2.4966 13.103 2.19959 12.806 2.08831 12.4635C1.99042 12.1623 1.99042 11.8377 2.08831 11.5365C2.19959 11.194 2.4966 10.897 3.09063 10.3029L3.93916 9.45442C4.53318 8.8604 4.83019 8.56338 5.17269 8.4521C5.47395 8.35421 5.79847 8.35421 6.09974 8.4521C6.44223 8.56338 6.73924 8.8604 7.33327 9.45442L8.1818 10.3029C8.77582 10.897 9.07284 11.194 9.18412 11.5365C9.282 11.8377 9.282 12.1623 9.18412 12.4635C9.07284 12.806 8.77582 13.103 8.1818 13.6971L7.33327 14.5456C6.73924 15.1396 6.44223 15.4366 6.09974 15.5479C5.79847 15.6458 5.47395 15.6458 5.17269 15.5479C4.83019 15.4366 4.53318 15.1396 3.93916 14.5456L3.09063 13.6971Z" stroke="currentColor" stroke-width="2" stroke-linecap="round" stroke-linejoin="round"/>
<path d="M9.45489 7.33309C8.86086 6.73906 8.56385 6.44205 8.45257 6.09956C8.35468 5.79829 8.35468 5.47377 8.45257 5.1725C8.56385 4.83001 8.86086 4.533 9.45489 3.93897L10.3034 3.09045C10.8974 2.49642 11.1945 2.19941 11.5369 2.08812C11.8382 1.99024 12.1627 1.99024 12.464 2.08812C12.8065 2.19941 13.1035 2.49642 13.6975 3.09045L14.5461 3.93897C15.1401 4.533 15.4371 4.83001 15.5484 5.1725C15.6463 5.47377 15.6463 5.79829 15.5484 6.09956C15.4371 6.44205 15.1401 6.73906 14.5461 7.33309L13.6975 8.18161C13.1035 8.77564 12.8065 9.07265 12.464 9.18393C12.1627 9.28182 11.8382 9.28182 11.5369 9.18393C11.1945 9.07265 10.8974 8.77564 10.3034 8.18161L9.45489 7.33309Z" stroke="currentColor" stroke-width="2" stroke-linecap="round" stroke-linejoin="round"/>
</svg>
