<svg width="24" height="24" viewBox="0 0 24 24" fill="none" xmlns="http://www.w3.org/2000/svg">
<path d="M16 3H12.6C9.23969 3 7.55953 3 6.27606 3.65396C5.14708 4.2292 4.2292 5.14708 3.65396 6.27606C3 7.55953 3 9.23969 3 12.6V16M11.2962 21H16.2C17.8802 21 18.7202 21 19.362 20.673C19.9265 20.3854 20.3854 19.9265 20.673 19.362C21 18.7202 21 17.8802 21 16.2V11.2962C21 9.61601 21 8.77593 20.673 8.1342C20.3854 7.56971 19.9265 7.11077 19.362 6.82315C18.7202 6.49617 17.8802 6.49617 16.2 6.49617H11.2962C9.61601 6.49617 8.77593 6.49617 8.1342 6.82315C7.56971 7.11077 7.11077 7.56971 6.82315 8.1342C6.49617 8.77593 6.49617 9.61601 6.49617 11.2962V16.2C6.49617 17.8802 6.49617 18.7202 6.82315 19.362C7.11077 19.9265 7.56971 20.3854 8.1342 20.673C8.77593 21 9.61601 21 11.2962 21Z" stroke="currentColor" stroke-width="2" stroke-linecap="round" stroke-linejoin="round"/>
</svg>
