<svg width="24" height="24" viewBox="0 0 24 24" fill="none" xmlns="http://www.w3.org/2000/svg">
<path d="M7.99985 3H11.3998C14.7602 3 16.4403 3 17.7238 3.65396C18.8528 4.2292 19.7706 5.14708 20.3459 6.27606C20.9998 7.55953 20.9998 9.23969 20.9998 12.6V16M12.7038 21H7.8C6.11984 21 5.27976 21 4.63803 20.673C4.07354 20.3854 3.6146 19.9265 3.32698 19.362C3 18.7202 3 17.8802 3 16.2V11.2962C3 9.61601 3 8.77593 3.32698 8.1342C3.6146 7.56971 4.07354 7.11077 4.63803 6.82315C5.27976 6.49617 6.11984 6.49617 7.8 6.49617H12.7038C14.384 6.49617 15.2241 6.49617 15.8658 6.82315C16.4303 7.11077 16.8892 7.56971 17.1768 8.1342C17.5038 8.77593 17.5038 9.61601 17.5038 11.2962V16.2C17.5038 17.8802 17.5038 18.7202 17.1768 19.362C16.8892 19.9265 16.4303 20.3854 15.8658 20.673C15.2241 21 14.384 21 12.7038 21Z" stroke="currentColor" stroke-width="2" stroke-linecap="round" stroke-linejoin="round"/>
</svg>
