<svg width="24" height="24" viewBox="0 0 24 24" fill="none" xmlns="http://www.w3.org/2000/svg">
<path d="M8 16V17.2C8 18.8802 8 19.7202 8.32698 20.362C8.6146 20.9265 9.07354 21.3854 9.63803 21.673C10.2798 22 11.1198 22 12.8 22H17.2C18.8802 22 19.7202 22 20.362 21.673C20.9265 21.3854 21.3854 20.9265 21.673 20.362C22 19.7202 22 18.8802 22 17.2V12.8C22 11.1198 22 10.2798 21.673 9.63803C21.3854 9.07354 20.9265 8.6146 20.362 8.32698C19.7202 8 18.8802 8 17.2 8H16M6.8 16H11.2C12.8802 16 13.7202 16 14.362 15.673C14.9265 15.3854 15.3854 14.9265 15.673 14.362C16 13.7202 16 12.8802 16 11.2V6.8C16 5.11984 16 4.27976 15.673 3.63803C15.3854 3.07354 14.9265 2.6146 14.362 2.32698C13.7202 2 12.8802 2 11.2 2H6.8C5.11984 2 4.27976 2 3.63803 2.32698C3.07354 2.6146 2.6146 3.07354 2.32698 3.63803C2 4.27976 2 5.11984 2 6.8V11.2C2 12.8802 2 13.7202 2.32698 14.362C2.6146 14.9265 3.07354 15.3854 3.63803 15.673C4.27976 16 5.11984 16 6.8 16Z" stroke="currentColor" stroke-width="2" stroke-linecap="round" stroke-linejoin="round"/>
</svg>
