<svg width="24" height="24" viewBox="0 0 24 24" fill="none" xmlns="http://www.w3.org/2000/svg">
<path d="M21.084 16.542V16.7237C21.084 18.2499 21.084 19.0131 20.787 19.596C20.5257 20.1088 20.1088 20.5257 19.596 20.787C19.0131 21.084 18.2499 21.084 16.7237 21.084H16.542M2.91602 7.45801L2.91602 7.27633C2.91602 5.75008 2.91602 4.98695 3.21304 4.404C3.47432 3.89122 3.89122 3.47432 4.404 3.21305C4.98695 2.91602 5.75008 2.91602 7.27633 2.91602L7.45801 2.91602M2.91602 16.542L2.91602 16.7237C2.91602 18.2499 2.91602 19.0131 3.21305 19.596C3.47432 20.1088 3.89122 20.5257 4.404 20.787C4.98695 21.084 5.75008 21.084 7.27633 21.084H7.45801M21.084 7.45801V7.27633C21.084 5.75008 21.084 4.98695 20.787 4.404C20.5257 3.89122 20.1088 3.47432 19.596 3.21304C19.0131 2.91602 18.2499 2.91602 16.7237 2.91602L16.542 2.91602" stroke="currentColor" stroke-width="2" stroke-linecap="round" stroke-linejoin="round"/>
</svg>
