<svg width="24" height="24" viewBox="0 0 24 24" fill="none" xmlns="http://www.w3.org/2000/svg">
<path d="M12.6504 19H6.8C5.11984 19 4.27976 19 3.63803 18.673C3.07354 18.3854 2.6146 17.9265 2.32698 17.362C2 16.7202 2 15.8802 2 14.2V9.8C2 8.11984 2 7.27976 2.32698 6.63803C2.6146 6.07354 3.07354 5.6146 3.63803 5.32698C4.27976 5 5.11984 5 6.8 5H17.2C18.8802 5 19.7202 5 20.362 5.32698C20.9265 5.6146 21.3854 6.07354 21.673 6.63803C22 7.27976 22 8.11984 22 9.8V11.9197M2 10H22M18.6923 15.098L17.57 15.4487C17.1458 15.5812 16.9337 15.6475 16.7766 15.7754C16.6379 15.8883 16.5303 16.0347 16.4639 16.2008C16.3887 16.3888 16.3887 16.6111 16.3887 17.0555V17.3635C16.3887 18.1862 16.3887 18.5976 16.4777 18.985C16.5682 19.3793 16.7262 19.7548 16.9448 20.0952C17.1596 20.4297 17.4537 20.7173 18.0419 21.2925C18.4317 21.6736 18.6266 21.8642 18.8482 21.9414C19.0724 22.0196 19.3165 22.0196 19.5408 21.9414C19.7624 21.8642 19.9572 21.6736 20.347 21.2925C20.9352 20.7173 21.2293 20.4297 21.4442 20.0952C21.6627 19.7548 21.8208 19.3793 21.9113 18.985C22.0003 18.5976 22.0003 18.1862 22.0003 17.3635V17.0555C22.0003 16.6111 22.0003 16.3888 21.9251 16.2008C21.8587 16.0347 21.7511 15.8883 21.6124 15.7754C21.4553 15.6475 21.2432 15.5812 20.8189 15.4487L19.6966 15.098C19.5101 15.0397 19.4168 15.0105 19.3216 14.9989C19.2372 14.9886 19.1518 14.9886 19.0673 14.9989C18.9721 15.0105 18.8789 15.0397 18.6923 15.098Z" stroke="currentColor" stroke-width="2" stroke-linecap="round" stroke-linejoin="round"/>
</svg>
