<svg width="24" height="24" viewBox="0 0 24 24" fill="none" xmlns="http://www.w3.org/2000/svg">
<path d="M10.4094 19H6.8C5.11984 19 4.27976 19 3.63803 18.673C3.07354 18.3854 2.6146 17.9265 2.32698 17.362C2 16.7202 2 15.8802 2 14.2V9.8C2 8.11984 2 7.27976 2.32698 6.63803C2.6146 6.07354 3.07354 5.6146 3.63803 5.32698C4.27976 5 5.11984 5 6.8 5H17.2C18.8802 5 19.7202 5 20.362 5.32698C20.9265 5.6146 21.3854 6.07354 21.673 6.63803C22 7.27976 22 8.11984 22 9.8V9.94434M2 10H22M17.6892 15.4309L18.3963 14.7238C18.7251 14.395 18.8895 14.2306 19.0605 14.1319C19.5246 13.8639 20.0964 13.8639 20.5605 14.1319C20.7316 14.2306 20.896 14.395 21.2248 14.7238C21.5536 15.0526 21.718 15.217 21.8167 15.388C22.0846 15.8521 22.0846 16.4239 21.8167 16.888C21.718 17.059 21.5536 17.2234 21.2248 17.5522L20.5177 18.2593M17.6892 15.4309L15.0211 18.099C14.8301 18.29 14.7346 18.3855 14.6587 18.4943C14.5914 18.5909 14.5356 18.6951 14.4926 18.8047C14.4442 18.9281 14.4177 19.0606 14.3647 19.3254L14.0355 20.9717C13.9568 21.3651 13.9174 21.5619 13.9755 21.7022C14.0262 21.8248 14.1237 21.9223 14.2464 21.973C14.3867 22.0311 14.5834 21.9918 14.9768 21.9131L16.6231 21.5838C16.888 21.5308 17.0204 21.5044 17.1439 21.4559C17.2535 21.4129 17.3577 21.3572 17.4542 21.2898C17.563 21.214 17.6585 21.1185 17.8495 20.9275L20.5177 18.2593M17.6892 15.4309L20.5177 18.2593" stroke="currentColor" stroke-width="2" stroke-linecap="round"/>
</svg>
