<svg width="24" height="24" viewBox="0 0 24 24" fill="none" xmlns="http://www.w3.org/2000/svg">
<path d="M12.7355 19H6.8C5.11984 19 4.27976 19 3.63803 18.673C3.07354 18.3854 2.6146 17.9265 2.32698 17.362C2 16.7202 2 15.8802 2 14.2V9.8C2 8.11984 2 7.27976 2.32698 6.63803C2.6146 6.07354 3.07354 5.6146 3.63803 5.32698C4.27976 5 5.11984 5 6.8 5H17.2C18.8802 5 19.7202 5 20.362 5.32698C20.9265 5.6146 21.3854 6.07354 21.673 6.63803C22 7.27976 22 8.11984 22 9.8V11.9197M2 10H22M19.1855 21.0222V15.0554M19.1855 15.0554V15.0222M19.1855 15.0554C19.2061 15.0554 19.2267 15.0632 19.2424 15.0788L22 17.8222M19.1855 15.0554C19.165 15.0554 19.1444 15.0632 19.1287 15.0788L16.3711 17.8222" stroke="currentColor" stroke-width="2" stroke-linecap="round"/>
</svg>
