<svg width="24" height="24" viewBox="0 0 24 24" fill="none" xmlns="http://www.w3.org/2000/svg">
<path d="M12.6504 19H6.8C5.11984 19 4.27976 19 3.63803 18.673C3.07354 18.3854 2.6146 17.9265 2.32698 17.362C2 16.7202 2 15.8802 2 14.2V9.8C2 8.11984 2 7.27976 2.32698 6.63803C2.6146 6.07354 3.07354 5.6146 3.63803 5.32698C4.27976 5 5.11984 5 6.8 5H17.2C18.8802 5 19.7202 5 20.362 5.32698C20.9265 5.6146 21.3854 6.07354 21.673 6.63803C22 7.27976 22 8.11984 22 9.8V11.9197M2 10H22M16.0585 16.0022C16.2347 15.5014 16.5824 15.079 17.0402 14.81C17.498 14.5409 18.0362 14.4426 18.5595 14.5324C19.0828 14.6221 19.5575 14.8942 19.8994 15.3004C20.2413 15.7066 20.4285 16.2207 20.4277 16.7517C20.4277 18.5 18.1794 19 18.1794 19M18.2085 22H18.2185" stroke="currentColor" stroke-width="2" stroke-linecap="round" stroke-linejoin="round"/>
</svg>
