<svg width="24" height="24" viewBox="0 0 24 24" fill="none" xmlns="http://www.w3.org/2000/svg">
<path d="M11.5995 19H6.8C5.11984 19 4.27976 19 3.63803 18.673C3.07354 18.3854 2.6146 17.9265 2.32698 17.362C2 16.7202 2 15.8802 2 14.2V9.8C2 8.11984 2 7.27976 2.32698 6.63803C2.6146 6.07354 3.07354 5.6146 3.63803 5.32698C4.27976 5 5.11984 5 6.8 5H17.2C18.8802 5 19.7202 5 20.362 5.32698C20.9265 5.6146 21.3854 6.07354 21.673 6.63803C22 7.27976 22 8.11984 22 9.8V10.9249M2 10H22M20.1615 18.5335L22 20.3721M21 16.3721C21 18.029 19.6569 19.3721 18 19.3721C16.3431 19.3721 15 18.029 15 16.3721C15 14.7153 16.3431 13.3721 18 13.3721C19.6569 13.3721 21 14.7153 21 16.3721Z" stroke="currentColor" stroke-width="2" stroke-linecap="round"/>
</svg>
