<svg width="24" height="24" viewBox="0 0 24 24" fill="none" xmlns="http://www.w3.org/2000/svg">
<path d="M11.6343 19H6.8C5.11984 19 4.27976 19 3.63803 18.673C3.07354 18.3854 2.6146 17.9265 2.32698 17.362C2 16.7202 2 15.8802 2 14.2V9.8C2 8.11984 2 7.27976 2.32698 6.63803C2.6146 6.07354 3.07354 5.6146 3.63803 5.32698C4.27976 5 5.11984 5 6.8 5H17.2C18.8802 5 19.7202 5 20.362 5.32698C20.9265 5.6146 21.3854 6.07354 21.673 6.63803C22 7.27976 22 8.11984 22 9.8V11.1085M2 10H22M20.3996 17.2V15.6C20.3996 14.7163 19.6833 14 18.7996 14C17.916 14 17.1996 14.7163 17.1996 15.6V17.2M17.1356 22H20.4636C21.0013 22 21.2701 22 21.4754 21.8954C21.6561 21.8033 21.8029 21.6565 21.895 21.4758C21.9996 21.2705 21.9996 21.0017 21.9996 20.464V18.736C21.9996 18.1983 21.9996 17.9295 21.895 17.7242C21.8029 17.5435 21.6561 17.3967 21.4754 17.3046C21.2701 17.2 21.0013 17.2 20.4636 17.2H17.1356C16.598 17.2 16.3291 17.2 16.1238 17.3046C15.9431 17.3967 15.7963 17.5435 15.7042 17.7242C15.5996 17.9295 15.5996 18.1983 15.5996 18.736V20.464C15.5996 21.0017 15.5996 21.2705 15.7042 21.4758C15.7963 21.6565 15.9431 21.8033 16.1238 21.8954C16.3291 22 16.598 22 17.1356 22Z" stroke="currentColor" stroke-width="2" stroke-linecap="round"/>
</svg>
