<svg width="24" height="24" viewBox="0 0 24 24" fill="none" xmlns="http://www.w3.org/2000/svg">
<path d="M19.1284 12.3545C18.0315 15.2226 15.2535 17.2593 11.9998 17.2593C7.78602 17.2593 4.37012 13.8434 4.37012 9.62964C4.37012 5.41591 7.78602 2 11.9998 2C12.3383 2 12.6718 2.02206 12.9987 2.06481M6.9972 15.9231C6.15378 17.3388 5.73207 18.0466 5.73341 18.8751C5.7348 19.7375 6.29315 20.8168 6.9962 21.3161C7.67169 21.7959 8.36744 21.8507 9.75893 21.9604C10.4701 22.0165 11.2221 22.0505 11.9998 22.0505C12.7825 22.0505 13.5392 22.016 14.2544 21.9593C15.6514 21.8486 16.35 21.7932 17.0265 21.3106C17.7229 20.814 18.2783 19.745 18.2844 18.8897C18.2903 18.0587 17.8701 17.3468 17.0295 15.9231M13.2214 10.7505V10.7686M15.8857 4.85972C16.1036 4.79601 16.2125 4.76416 16.3128 4.72719C17.1682 4.41189 17.8426 3.73756 18.1579 2.88212C18.1948 2.78182 18.2267 2.6729 18.2904 2.45505C18.3309 2.31636 18.3512 2.24701 18.3665 2.21621C18.5096 1.92793 18.9208 1.92793 19.0639 2.21621C19.0792 2.24701 19.0995 2.31636 19.14 2.45505C19.2037 2.6729 19.2356 2.78182 19.2726 2.88212C19.5879 3.73756 20.2622 4.41189 21.1176 4.72719C21.2179 4.76416 21.3269 4.79601 21.5447 4.85972C21.6834 4.90028 21.7527 4.92056 21.7835 4.93585C22.0718 5.07894 22.0718 5.49015 21.7835 5.63324C21.7527 5.64853 21.6834 5.66881 21.5447 5.70937C21.3269 5.77308 21.2179 5.80493 21.1176 5.8419C20.2622 6.1572 19.5879 6.83153 19.2726 7.68698C19.2356 7.78727 19.2037 7.8962 19.14 8.11405C19.0995 8.25274 19.0792 8.32208 19.0639 8.35288C18.9208 8.64116 18.5096 8.64116 18.3665 8.35288C18.3512 8.32208 18.3309 8.25274 18.2904 8.11405C18.2267 7.8962 18.1948 7.78727 18.1579 7.68698C17.8426 6.83153 17.1682 6.1572 16.3128 5.8419C16.2125 5.80493 16.1036 5.77308 15.8857 5.70937C15.747 5.66881 15.6777 5.64853 15.6469 5.63324C15.3586 5.49015 15.3586 5.07894 15.6469 4.93585C15.6777 4.92056 15.747 4.90028 15.8857 4.85972ZM11.3267 10.4886C11.4729 10.4459 11.546 10.4245 11.6134 10.3997C12.1876 10.188 12.6402 9.73541 12.8518 9.1612C12.8766 9.09388 12.898 9.02076 12.9408 8.87454C12.968 8.78144 12.9816 8.73489 12.9919 8.71422C13.0879 8.52072 13.364 8.52072 13.46 8.71422C13.4703 8.73489 13.4839 8.78144 13.5111 8.87454C13.5539 9.02076 13.5753 9.09388 13.6001 9.1612C13.8117 9.73541 14.2643 10.188 14.8386 10.3997C14.9059 10.4245 14.979 10.4459 15.1252 10.4886C15.2183 10.5159 15.2649 10.5295 15.2855 10.5397C15.479 10.6358 15.479 10.9118 15.2855 11.0079C15.2649 11.0181 15.2183 11.0317 15.1252 11.059C14.979 11.1017 14.9059 11.1231 14.8386 11.1479C14.2643 11.3596 13.8117 11.8122 13.6001 12.3864C13.5753 12.4537 13.5539 12.5268 13.5111 12.6731C13.4839 12.7662 13.4703 12.8127 13.46 12.8334C13.364 13.0269 13.0879 13.0269 12.9919 12.8334C12.9816 12.8127 12.968 12.7662 12.9408 12.6731C12.898 12.5268 12.8766 12.4537 12.8518 12.3864C12.6402 11.8122 12.1876 11.3596 11.6134 11.1479C11.546 11.1231 11.4729 11.1017 11.3267 11.059C11.2336 11.0317 11.187 11.0181 11.1664 11.0079C10.9729 10.9118 10.9729 10.6358 11.1664 10.5397C11.187 10.5295 11.2336 10.5159 11.3267 10.4886Z" stroke="currentColor" stroke-width="2" stroke-linecap="round" stroke-linejoin="round"/>
</svg>
