<svg width="24" height="24" viewBox="0 0 24 24" fill="none" xmlns="http://www.w3.org/2000/svg">
<path d="M6.9972 15.9231C6.15378 17.3388 5.73207 18.0466 5.73341 18.8751C5.7348 19.7375 6.29315 20.8168 6.9962 21.3161C7.67169 21.7959 8.36744 21.8507 9.75893 21.9604C10.4701 22.0165 11.2221 22.0505 11.9998 22.0505C12.7825 22.0505 13.5392 22.016 14.2544 21.9593C15.6514 21.8486 16.35 21.7932 17.0265 21.3106C17.7229 20.814 18.2783 19.745 18.2844 18.8897C18.2903 18.0587 17.8701 17.3468 17.0295 15.9231M20.9983 3.04884H21.0083M19.6294 9.62964C19.6294 13.8434 16.2135 17.2593 11.9998 17.2593C7.78602 17.2593 4.37012 13.8434 4.37012 9.62964C4.37012 5.41591 7.78602 2 11.9998 2C16.2135 2 19.6294 5.41591 19.6294 9.62964ZM8.81207 9.15097C9.05749 9.07919 9.18021 9.04331 9.2932 9.00166C10.2569 8.64644 11.0166 7.88676 11.3718 6.92302C11.4135 6.81003 11.4494 6.68732 11.5211 6.44189C11.5668 6.28564 11.5897 6.20752 11.6069 6.17282C11.7681 5.84805 12.2314 5.84805 12.3926 6.17282C12.4098 6.20752 12.4327 6.28564 12.4783 6.44189C12.5501 6.68732 12.586 6.81003 12.6277 6.92302C12.9829 7.88676 13.7426 8.64644 14.7063 9.00166C14.8193 9.04331 14.942 9.07919 15.1874 9.15097C15.3437 9.19666 15.4218 9.21951 15.4565 9.23673C15.7813 9.39794 15.7813 9.8612 15.4565 10.0224C15.4218 10.0396 15.3437 10.0625 15.1874 10.1082C14.942 10.1799 14.8193 10.2158 14.7063 10.2575C13.7426 10.6127 12.9829 11.3724 12.6277 12.3361C12.586 12.4491 12.5501 12.5718 12.4783 12.8172C12.4327 12.9735 12.4098 13.0516 12.3926 13.0863C12.2314 13.4111 11.7681 13.4111 11.6069 13.0863C11.5897 13.0516 11.5668 12.9735 11.5211 12.8172C11.4494 12.5718 11.4135 12.4491 11.3718 12.3361C11.0166 11.3724 10.2569 10.6127 9.2932 10.2575C9.18021 10.2158 9.05749 10.1799 8.81207 10.1082C8.65582 10.0625 8.5777 10.0396 8.543 10.0224C8.21823 9.8612 8.21823 9.39794 8.543 9.23673C8.5777 9.21951 8.65582 9.19666 8.81207 9.15097Z" stroke="currentColor" stroke-width="2" stroke-linecap="round" stroke-linejoin="round"/>
</svg>
