<svg width="24" height="24" viewBox="0 0 24 24" fill="none" xmlns="http://www.w3.org/2000/svg">
<path d="M16.8584 5.4917L16.6555 5.19775C15.8515 4.0328 14.5089 3.35829 13.0944 3.40864C10.1616 3.51302 8.26181 6.54671 9.4484 9.23075L9.52923 9.41357C9.85266 10.1452 10.0366 10.9307 10.0717 11.7298L10.1363 13.2043C10.1916 14.4657 10.2193 15.0963 10.0704 15.674C9.92964 16.22 9.67504 16.7302 9.32327 17.1709C8.95115 17.6371 8.43052 17.9941 7.38928 18.7082L6.23816 19.4976C5.85277 19.7618 5.66007 19.894 5.6353 20.0116C5.6139 20.1132 5.64659 20.2187 5.72172 20.2904C5.80867 20.3734 6.04232 20.3734 6.50962 20.3734H18.0377M5.50977 12.9981H13.2339" stroke="currentColor" stroke-width="2" stroke-linecap="round" stroke-linejoin="round"/>
</svg>
