<svg width="24" height="24" viewBox="0 0 24 24" fill="none" xmlns="http://www.w3.org/2000/svg">
<path d="M21 11.3437H22V11.3437L21 11.3437ZM3 11.3437H4H3ZM22 4.35455C22 3.80227 21.5523 3.35455 21 3.35455C20.4477 3.35456 20 3.80227 20 4.35456L22 4.35455ZM4 4.35455C4 3.80227 3.55228 3.35455 3 3.35455C2.44771 3.35455 2 3.80227 2 4.35456L4 4.35455ZM13 14C13 13.4477 12.5523 13 12 13C11.4477 13 11 13.4477 11 14H13ZM21 21C21.5523 21 22 20.5523 22 20C22 19.4477 21.5523 19 21 19V21ZM3 19C2.44772 19 2 19.4477 2 20C2 20.5523 2.44772 21 3 21V19ZM20 4.77942C20 4.69159 20.0551 4.79661 19.7031 5.05366C19.3723 5.29513 18.8296 5.55438 18.0689 5.78929C16.5597 6.25536 14.4138 6.55884 12 6.55884V8.55884C14.5567 8.55884 16.9109 8.24012 18.659 7.70024C19.5271 7.43218 20.3023 7.0925 20.8824 6.66893C21.4412 6.26092 22 5.63476 22 4.77942H20ZM12 6.55884C9.58618 6.55884 7.44029 6.25536 5.93112 5.78929C5.17045 5.55438 4.62767 5.29513 4.29695 5.05366C3.9449 4.79661 4 4.69159 4 4.77942H2C2 5.63476 2.55878 6.26092 3.11758 6.66893C3.69771 7.0925 4.47296 7.43218 5.34097 7.70024C7.08915 8.24012 9.44326 8.55884 12 8.55884V6.55884ZM4 4.77942C4 4.86724 3.9449 4.76222 4.29695 4.50518C4.62767 4.2637 5.17045 4.00446 5.93112 3.76955C7.44029 3.30348 9.58618 3 12 3V1C9.44326 1 7.08915 1.31872 5.34097 1.8586C4.47296 2.12666 3.69771 2.46633 3.11758 2.88991C2.55878 3.29791 2 3.92408 2 4.77942H4ZM12 3C14.4138 3 16.5597 3.30348 18.0689 3.76955C18.8296 4.00446 19.3723 4.2637 19.7031 4.50518C20.0551 4.76222 20 4.86724 20 4.77942H22C22 3.92408 21.4412 3.29791 20.8824 2.88991C20.3023 2.46633 19.5271 2.12666 18.659 1.8586C16.9109 1.31872 14.5567 1 12 1V3ZM20 11.3437C20 11.1443 20.136 11.2028 19.7549 11.4459C19.421 11.6589 18.8716 11.8882 18.1034 12.0955C16.5816 12.5061 14.4234 12.7722 12 12.7722V14.7722C14.5472 14.7722 16.8889 14.4947 18.6245 14.0264C19.485 13.7942 20.2536 13.5001 20.8306 13.132C21.3604 12.794 22 12.2137 22 11.3437H20ZM12 12.7722C9.57664 12.7722 7.41836 12.5061 5.89656 12.0955C5.12843 11.8882 4.57898 11.6589 4.24511 11.4459C3.86403 11.2028 4 11.1443 4 11.3437H2C2 12.2137 2.63965 12.794 3.16942 13.132C3.74641 13.5001 4.51497 13.7942 5.37552 14.0264C7.11108 14.4947 9.45281 14.7722 12 14.7722V12.7722ZM20 4.35456L20 11.3437L22 11.3437L22 4.35455L20 4.35456ZM2 4.35456L2 11.3437H4L4 4.35455L2 4.35456ZM13 18V14H11V18H13ZM14 21H21V19H14V21ZM10 19H3V21H10V19ZM12 21C11.4477 21 11 20.5523 11 20H9C9 21.6569 10.3431 23 12 23V21ZM11 20C11 19.4477 11.4477 19 12 19V17C10.3432 17 9 18.3431 9 20H11ZM12 19C12.5523 19 13 19.4477 13 20H15C15 18.3431 13.6569 17 12 17V19ZM13 20C13 20.5523 12.5523 21 12 21V23C13.6569 23 15 21.6569 15 20H13Z" fill="currentColor"/>
</svg>
