<svg width="24" height="24" viewBox="0 0 24 24" fill="none" xmlns="http://www.w3.org/2000/svg">
<path d="M16.8 4V5H16.8L16.8 4ZM13.638 19.673L14.092 18.782H14.092L13.638 19.673ZM12.327 18.362L11.436 18.816L12.327 18.362ZM13.638 4.32698L14.092 5.21799L14.092 5.21799L13.638 4.32698ZM12.327 5.63803L13.218 6.09202L12.327 5.63803ZM19 5C18.4477 5 18 4.55228 18 4H16C16 5.65685 17.3431 7 19 7V5ZM18 4C18 3.44772 18.4477 3 19 3V1C17.3431 1 16 2.34315 16 4H18ZM19 3C19.5523 3 20 3.44772 20 4H22C22 2.34315 20.6569 1 19 1V3ZM20 4C20 4.55228 19.5523 5 19 5V7C20.6569 7 22 5.65685 22 4H20ZM19 13C18.4477 13 18 12.5523 18 12H16C16 13.6569 17.3431 15 19 15V13ZM18 12C18 11.4477 18.4477 11 19 11V9C17.3431 9 16 10.3431 16 12H18ZM19 11C19.5523 11 20 11.4477 20 12H22C22 10.3431 20.6569 9 19 9V11ZM20 12C20 12.5523 19.5523 13 19 13V15C20.6569 15 22 13.6569 22 12H20ZM5 13C4.44772 13 4 12.5523 4 12H2C2 13.6569 3.34315 15 5 15V13ZM4 12C4 11.4477 4.44772 11 5 11V9C3.34315 9 2 10.3431 2 12H4ZM5 11C5.55228 11 6 11.4477 6 12H8C8 10.3431 6.65685 9 5 9V11ZM6 12C6 12.5523 5.55228 13 5 13V15C6.65685 15 8 13.6569 8 12H6ZM19 21C18.4477 21 18 20.5523 18 20H16C16 21.6569 17.3431 23 19 23V21ZM18 20C18 19.4477 18.4477 19 19 19V17C17.3431 17 16 18.3431 16 20H18ZM19 19C19.5523 19 20 19.4477 20 20H22C22 18.3431 20.6569 17 19 17V19ZM20 20C20 20.5523 19.5523 21 19 21V23C20.6569 23 22 21.6569 22 20H20ZM16.8 5L17 5L17 3L16.8 3L16.8 5ZM16.8 21H17V19H16.8V21ZM11 8.8V12H13V8.8H11ZM11 12V15.2H13V12H11ZM12 13H17V11H12V13ZM12 11H7V13H12V11ZM16.8 19C15.9434 19 15.3611 18.9992 14.911 18.9624C14.4726 18.9266 14.2484 18.8617 14.092 18.782L13.184 20.564C13.6694 20.8113 14.1861 20.9099 14.7482 20.9558C15.2986 21.0008 15.9764 21 16.8 21V19ZM11 15.2C11 16.0236 10.9992 16.7014 11.0442 17.2518C11.0901 17.8139 11.1887 18.3306 11.436 18.816L13.218 17.908C13.1383 17.7516 13.0734 17.5274 13.0376 17.089C13.0008 16.6389 13 16.0566 13 15.2H11ZM14.092 18.782C13.7157 18.5903 13.4097 18.2843 13.218 17.908L11.436 18.816C11.8195 19.5686 12.4314 20.1805 13.184 20.564L14.092 18.782ZM16.8 3C15.9764 3 15.2986 2.99922 14.7482 3.04419C14.1861 3.09012 13.6694 3.18868 13.184 3.43597L14.092 5.21799C14.2484 5.1383 14.4726 5.07337 14.911 5.03755C15.3611 5.00078 15.9434 5 16.8 5V3ZM13 8.8C13 7.94342 13.0008 7.36113 13.0376 6.91104C13.0734 6.47262 13.1383 6.24842 13.218 6.09202L11.436 5.18404C11.1887 5.66937 11.0901 6.18608 11.0442 6.74817C10.9992 7.2986 11 7.97642 11 8.8H13ZM13.184 3.43597C12.4314 3.81947 11.8195 4.43139 11.436 5.18404L13.218 6.09202C13.4097 5.71569 13.7157 5.40973 14.092 5.21799L13.184 3.43597Z" fill="currentColor"/>
</svg>
