<svg width="24" height="24" viewBox="0 0 24 24" fill="none" xmlns="http://www.w3.org/2000/svg">
<path d="M8.90264 15.6714C9.4523 15.7252 9.94148 15.3232 9.99525 14.7735C10.049 14.2238 9.64703 13.7347 9.09737 13.6809L8.90264 15.6714ZM4 4.72719C4 4.1749 3.55228 3.72719 3 3.72719C2.44771 3.72719 2 4.1749 2 4.72719L4 4.72719ZM3 19.5713H4H3ZM22 4.72719C22 4.1749 21.5523 3.72719 21 3.72719C20.4477 3.72719 20 4.1749 20 4.72719L22 4.72719ZM20 7.9998C20 8.55209 20.4477 8.9998 21 8.9998C21.5523 8.9998 22 8.55208 22 7.9998L20 7.9998ZM8.90506 22.8572C9.45485 22.9096 9.94305 22.5064 9.99549 21.9566C10.0479 21.4068 9.64474 20.9186 9.09495 20.8662L8.90506 22.8572ZM16.0716 11.4541L15.7734 10.4996L16.0716 11.4541ZM17.0009 11.2029L17.1452 12.1924L17.0009 11.2029ZM18.7957 11.4541L18.4974 12.4086H18.4974L18.7957 11.4541ZM17.8664 11.2029L17.7222 12.1924L17.8664 11.2029ZM15.558 21.3651L16.2571 20.6501L15.558 21.3651ZM12.8673 14.971H13.8673H12.8673ZM19.3094 21.3651L18.6102 20.6501L19.3094 21.3651ZM19.9391 11.8114L20.2374 10.8569L19.9391 11.8114ZM12.8673 14.6146H11.8673H12.8673ZM14.9283 11.8114L15.2265 12.7659L14.9283 11.8114ZM20 4.77942C20 4.69159 20.0551 4.79661 19.7031 5.05366C19.3723 5.29514 18.8296 5.55438 18.0689 5.78929C16.5597 6.25536 14.4138 6.55884 12 6.55884V8.55884C14.5567 8.55884 16.9109 8.24012 18.659 7.70024C19.5271 7.43218 20.3023 7.0925 20.8824 6.66893C21.4412 6.26092 22 5.63476 22 4.77942H20ZM12 6.55884C9.58618 6.55884 7.4403 6.25536 5.93112 5.78929C5.17045 5.55438 4.62768 5.29513 4.29696 5.05366C3.9449 4.79661 4 4.69159 4 4.77942H2C2 5.63476 2.55878 6.26092 3.11758 6.66893C3.69771 7.0925 4.47296 7.43218 5.34097 7.70024C7.08915 8.24012 9.44326 8.55884 12 8.55884V6.55884ZM4 4.77942C4 4.86724 3.9449 4.76222 4.29696 4.50518C4.62768 4.2637 5.17045 4.00446 5.93112 3.76955C7.4403 3.30348 9.58618 3 12 3V1C9.44326 1 7.08915 1.31872 5.34097 1.8586C4.47296 2.12666 3.69771 2.46633 3.11758 2.88991C2.55878 3.29791 2 3.92408 2 4.77942H4ZM12 3C14.4138 3 16.5597 3.30348 18.0689 3.76955C18.8296 4.00446 19.3723 4.2637 19.7031 4.50518C20.0551 4.76222 20 4.86724 20 4.77942H22C22 3.92408 21.4412 3.29791 20.8824 2.88991C20.3023 2.46633 19.5271 2.12666 18.659 1.8586C16.9109 1.31872 14.5567 1 12 1V3ZM9.09737 13.6809C7.39991 13.5148 5.99699 13.2117 5.04824 12.8467C4.56928 12.6624 4.26135 12.4832 4.09108 12.3394C3.91425 12.1901 4 12.1827 4 12.3269H2C2 13.0134 2.39881 13.5281 2.8008 13.8675C3.20934 14.2125 3.746 14.4886 4.33009 14.7133C5.50744 15.1663 7.10453 15.4955 8.90264 15.6714L9.09737 13.6809ZM2 4.72719L2 19.5713H4L4 4.72719L2 4.72719ZM20 4.72719L20 7.9998L22 7.9998L22 4.72719L20 4.72719ZM9.09495 20.8662C7.3961 20.7042 5.99113 20.4083 5.04036 20.0517C4.56008 19.8715 4.25154 19.6963 4.0815 19.5563C3.90246 19.4089 4 19.4097 4 19.5713H2C2 20.2616 2.4106 20.7713 2.81038 21.1004C3.21915 21.4369 3.7552 21.7057 4.33796 21.9243C5.5133 22.3652 7.10833 22.6858 8.90506 22.8572L9.09495 20.8662ZM21 14.6146V14.971H23V14.6146H21ZM13.8673 14.971V14.6146H11.8673V14.971H13.8673ZM15.2265 12.7659L16.3699 12.4086L15.7734 10.4996L14.63 10.8569L15.2265 12.7659ZM18.4974 12.4086L19.6408 12.7659L20.2374 10.8569L19.094 10.4996L18.4974 12.4086ZM16.3699 12.4086C16.8621 12.2547 17.0064 12.2127 17.1452 12.1924L16.8567 10.2133C16.525 10.2617 16.2066 10.3642 15.7734 10.4996L16.3699 12.4086ZM19.094 10.4996C18.6607 10.3642 18.3423 10.2617 18.0106 10.2133L17.7222 12.1924C17.8609 12.2127 18.0052 12.2547 18.4974 12.4086L19.094 10.4996ZM17.1452 12.1924C17.3365 12.1645 17.5308 12.1645 17.7222 12.1924L18.0106 10.2133C17.628 10.1576 17.2393 10.1576 16.8567 10.2133L17.1452 12.1924ZM16.2571 20.6501C14.7288 19.1557 13.8673 17.1084 13.8673 14.971H11.8673C11.8673 17.6467 12.9457 20.2094 14.8588 22.0801L16.2571 20.6501ZM21 14.971C21 17.1084 20.1385 19.1557 18.6102 20.6501L20.0085 22.0801C21.9216 20.2094 23 17.6466 23 14.971H21ZM18.6102 20.6501C17.9562 21.2896 16.9111 21.2896 16.2571 20.6501L14.8588 22.0801C16.2901 23.4796 18.5772 23.4796 20.0085 22.0801L18.6102 20.6501ZM23 14.6146C23 12.8927 21.8809 11.3705 20.2374 10.8569L19.6408 12.7659C20.4494 13.0186 21 13.7674 21 14.6146H23ZM13.8673 14.6146C13.8673 13.7674 14.4179 13.0186 15.2265 12.7659L14.63 10.8569C12.9864 11.3705 11.8673 12.8927 11.8673 14.6146H13.8673Z" fill="currentColor"/>
</svg>
