<svg width="24" height="24" viewBox="0 0 24 24" fill="none" xmlns="http://www.w3.org/2000/svg">
<path d="M12 4V3V4ZM13.638 19.673L14.092 18.782H14.092L13.638 19.673ZM12.327 18.362L11.436 18.816L12.327 18.362ZM19 5C18.4477 5 18 4.55228 18 4H16C16 5.65685 17.3431 7 19 7V5ZM18 4C18 3.44772 18.4477 3 19 3V1C17.3431 1 16 2.34315 16 4H18ZM19 3C19.5523 3 20 3.44772 20 4H22C22 2.34315 20.6569 1 19 1V3ZM20 4C20 4.55228 19.5523 5 19 5V7C20.6569 7 22 5.65685 22 4H20ZM19 13C18.4477 13 18 12.5523 18 12H16C16 13.6569 17.3431 15 19 15V13ZM18 12C18 11.4477 18.4477 11 19 11V9C17.3431 9 16 10.3431 16 12H18ZM19 11C19.5523 11 20 11.4477 20 12H22C22 10.3431 20.6569 9 19 9V11ZM20 12C20 12.5523 19.5523 13 19 13V15C20.6569 15 22 13.6569 22 12H20ZM5 5C4.44772 5 4 4.55228 4 4H2C2 5.65685 3.34315 7 5 7V5ZM4 4C4 3.44772 4.44772 3 5 3V1C3.34315 1 2 2.34315 2 4H4ZM5 3C5.55228 3 6 3.44772 6 4H8C8 2.34315 6.65685 1 5 1V3ZM6 4C6 4.55228 5.55228 5 5 5V7C6.65685 7 8 5.65685 8 4H6ZM19 21C18.4477 21 18 20.5523 18 20H16C16 21.6569 17.3431 23 19 23V21ZM18 20C18 19.4477 18.4477 19 19 19V17C17.3431 17 16 18.3431 16 20H18ZM19 19C19.5523 19 20 19.4477 20 20H22C22 18.3431 20.6569 17 19 17V19ZM20 20C20 20.5523 19.5523 21 19 21V23C20.6569 23 22 21.6569 22 20H20ZM7 5L12 5V3L7 3V5ZM12 5L17 5V3L12 3V5ZM16.8 21H17V19H16.8V21ZM11 4V12H13V4H11ZM11 12V15.2H13V12H11ZM12 13H17V11H12V13ZM16.8 19C15.9434 19 15.3611 18.9992 14.911 18.9624C14.4726 18.9266 14.2484 18.8617 14.092 18.782L13.184 20.564C13.6694 20.8113 14.1861 20.9099 14.7482 20.9558C15.2986 21.0008 15.9764 21 16.8 21V19ZM11 15.2C11 16.0236 10.9992 16.7014 11.0442 17.2518C11.0901 17.8139 11.1887 18.3306 11.436 18.816L13.218 17.908C13.1383 17.7516 13.0734 17.5274 13.0376 17.089C13.0008 16.6389 13 16.0566 13 15.2H11ZM14.092 18.782C13.7157 18.5903 13.4097 18.2843 13.218 17.908L11.436 18.816C11.8195 19.5686 12.4314 20.1805 13.184 20.564L14.092 18.782Z" fill="currentColor"/>
</svg>
