<svg width="24" height="24" viewBox="0 0 24 24" fill="none" xmlns="http://www.w3.org/2000/svg">
<path d="M7.89727 15.5542C8.44451 15.6287 8.94853 15.2455 9.02305 14.6983C9.09756 14.151 8.71435 13.647 8.16711 13.5725L7.89727 15.5542ZM4 4.74733C4 4.19505 3.55228 3.74733 3 3.74733C2.44772 3.74733 2 4.19505 2 4.74733H4ZM22 4.69243C22 4.14014 21.5523 3.69243 21 3.69243C20.4477 3.69243 20 4.14014 20 4.69243H22ZM20 11.9629C20 12.5152 20.4477 12.9629 21 12.9629C21.5523 12.9629 22 12.5152 22 11.9629H20ZM6.23803 22.4605C6.77831 22.575 7.30912 22.2299 7.42363 21.6896C7.53814 21.1493 7.19299 20.6185 6.6527 20.504L6.23803 22.4605ZM12.6513 15.9667L12.525 16.9587C12.7905 16.9925 13.0585 16.9185 13.2689 16.7532C13.4794 16.5879 13.6149 16.3451 13.645 16.0792L12.6513 15.9667ZM18.3575 16.0803L17.3605 16.1587C17.3846 16.4653 17.5485 16.7438 17.8049 16.9138C18.0613 17.0837 18.3816 17.1263 18.6734 17.0291L18.3575 16.0803ZM20 4.77942C20 4.69159 20.0551 4.79661 19.703 5.05366C19.3723 5.29514 18.8296 5.55438 18.0689 5.78929C16.5597 6.25536 14.4138 6.55884 12 6.55884V8.55884C14.5567 8.55884 16.9109 8.24012 18.659 7.70024C19.527 7.43218 20.3023 7.0925 20.8824 6.66893C21.4412 6.26092 22 5.63476 22 4.77942H20ZM12 6.55884C9.58618 6.55884 7.44029 6.25536 5.93111 5.78929C5.17045 5.55438 4.62767 5.29513 4.29695 5.05366C3.9449 4.79661 4 4.69159 4 4.77942H2C2 5.63476 2.55878 6.26092 3.11758 6.66893C3.69771 7.0925 4.47295 7.43218 5.34097 7.70024C7.08915 8.24012 9.44326 8.55884 12 8.55884V6.55884ZM4 4.77942C4 4.86724 3.9449 4.76222 4.29695 4.50518C4.62767 4.2637 5.17045 4.00446 5.93111 3.76955C7.44029 3.30348 9.58618 3 12 3V1C9.44326 1 7.08915 1.31872 5.34097 1.8586C4.47295 2.12666 3.69771 2.46633 3.11758 2.88991C2.55878 3.29791 2 3.92408 2 4.77942H4ZM12 3C14.4138 3 16.5597 3.30348 18.0689 3.76955C18.8296 4.00446 19.3723 4.2637 19.703 4.50518C20.0551 4.76222 20 4.86724 20 4.77942H22C22 3.92408 21.4412 3.29791 20.8824 2.88991C20.3023 2.46633 19.527 2.12666 18.659 1.8586C16.9109 1.31872 14.5567 1 12 1V3ZM8.16711 13.5725C6.7244 13.3761 5.56628 13.079 4.79761 12.7442C4.41011 12.5754 4.17446 12.4196 4.05106 12.3039C3.92803 12.1885 4 12.197 4 12.3269H2C2 12.9477 2.32839 13.4303 2.68314 13.7629C3.03751 14.0951 3.50099 14.3609 3.99893 14.5778C5.00113 15.0144 6.35911 15.3448 7.89727 15.5542L8.16711 13.5725ZM2 4.74733V19.5713H4V4.74733H2ZM20 4.69243V11.9629H22V4.69243H20ZM6.6527 20.504C5.64867 20.2912 4.89238 20.0322 4.41307 19.772C4.173 19.6417 4.04819 19.5355 3.99399 19.4739C3.94542 19.4187 4 19.4555 4 19.5713H2C2 20.0749 2.22302 20.4889 2.49267 20.7953C2.7567 21.0952 3.09989 21.3349 3.45893 21.5298C4.17785 21.92 5.14424 22.2287 6.23803 22.4605L6.6527 20.504ZM12.3178 21.0001C11.3861 21.0001 10.5068 20.1635 10.5068 18.9729H8.50679C8.50679 21.1259 10.1445 23.0001 12.3178 23.0001V21.0001ZM10.5068 18.9729C10.5068 17.7822 11.3861 16.9457 12.3178 16.9457V14.9457C10.1445 14.9457 8.50679 16.8198 8.50679 18.9729H10.5068ZM21 18.9729C21 20.1635 20.1207 21.0001 19.189 21.0001V23.0001C21.3623 23.0001 23 21.1259 23 18.9729H21ZM19.189 16.9457C20.1207 16.9457 21 17.7822 21 18.9729H23C23 16.8198 21.3623 14.9457 19.189 14.9457V16.9457ZM19.189 21.0001H12.3178V23.0001H19.189V21.0001ZM13.645 16.0792C13.7681 14.9911 14.6052 14.2548 15.4989 14.2548V12.2548C13.4612 12.2548 11.8804 13.886 11.6576 15.8543L13.645 16.0792ZM12.3178 16.9457C12.3883 16.9457 12.4574 16.9501 12.525 16.9587L12.7776 14.9748C12.6265 14.9555 12.473 14.9457 12.3178 14.9457V16.9457ZM18.6734 17.0291C18.8362 16.9749 19.0089 16.9457 19.189 16.9457V14.9457C18.7902 14.9457 18.4043 15.0107 18.0415 15.1315L18.6734 17.0291ZM15.4989 14.2548C16.414 14.2548 17.2718 15.029 17.3605 16.1587L19.3544 16.002C19.1944 13.9662 17.5875 12.2548 15.4989 12.2548V14.2548Z" fill="currentColor"/>
</svg>
