<svg width="24" height="24" viewBox="0 0 24 24" fill="none" xmlns="http://www.w3.org/2000/svg">
<path d="M15.5402 17.058C15.5402 18.0696 17.0576 20.0928 17.5634 20.0928C19.0808 20.0928 20.4292 18.4064 21.104 17.058C21.7787 15.3716 21.6098 11.1573 19.5866 5.42455C18.8012 4.87743 17.9911 4.5285 17.1761 4.2974C16.6111 4.13718 16.3286 4.05707 15.9279 4.10621C15.5881 4.14787 15.1369 4.34575 14.8761 4.56743C14.5685 4.82886 14.396 5.17006 14.0511 5.85245C12.6945 5.61826 11.3077 5.61826 9.95107 5.85245C9.60365 5.16724 9.42994 4.82463 9.12013 4.56292C8.86085 4.3439 8.41308 4.14793 8.07626 4.10605C7.67381 4.05602 7.38976 4.13661 6.82168 4.29778C6.0071 4.52888 5.19749 4.87773 4.41255 5.42455C2.38935 11.1573 2.22041 15.3716 2.89515 17.058C3.56988 18.4064 4.91835 20.0928 6.43575 20.0928C6.94155 20.0928 8.45896 18.0696 8.45896 17.058M6.94111 16.5522C10.4817 17.5638 13.5165 17.5638 17.0571 16.5522M9.23545 11.4893H9.24456M14.7628 11.4893H14.7719M9.69086 11.4893C9.69086 11.2377 9.48697 11.0338 9.23545 11.0338C8.98394 11.0338 8.78005 11.2377 8.78005 11.4893C8.78005 11.7408 8.98394 11.9447 9.23545 11.9447C9.48697 11.9447 9.69086 11.7408 9.69086 11.4893ZM15.2182 11.4893C15.2182 11.2377 15.0143 11.0338 14.7628 11.0338C14.5113 11.0338 14.3074 11.2377 14.3074 11.4893C14.3074 11.7408 14.5113 11.9447 14.7628 11.9447C15.0143 11.9447 15.2182 11.7408 15.2182 11.4893Z" stroke="currentColor" stroke-width="2" stroke-linecap="round" stroke-linejoin="round"/>
</svg>
