<svg width="24" height="24" viewBox="0 0 24 24" fill="none" xmlns="http://www.w3.org/2000/svg">
<path d="M14.057 15.0216L17.6077 8.87155C18.7436 9.45308 20.1483 9.0473 20.7935 7.9297C21.4595 6.77621 21.0643 5.30123 19.9108 4.63526C19.4474 4.36773 18.9322 4.27145 18.4383 4.32678C18.2393 3.87144 17.8983 3.47336 17.435 3.20583C16.2815 2.53986 14.8065 2.93508 14.1405 4.08858C13.4953 5.20617 13.8462 6.62555 14.9178 7.31852L11.5311 13.1843M12.3122 14.751L9.25376 9.45356C10.3253 8.76059 10.6763 7.34122 10.031 6.22362C9.36504 5.07012 7.89007 4.6749 6.73657 5.34088C6.2732 5.6084 5.93219 6.00648 5.73319 6.46182C5.23934 6.40649 4.7241 6.50278 4.26073 6.7703C3.10723 7.43628 2.71201 8.91125 3.37799 10.0647C4.02323 11.1823 5.4279 11.5881 6.56383 11.0066L8.72565 14.751M7.80463 21H16.1941C17.2127 21 17.7219 21 18.1728 20.8539C18.6506 20.6991 19.0819 20.4267 19.4272 20.0619C19.7529 19.7177 19.9718 19.2579 20.4097 18.3383C20.9124 17.2828 21.1637 16.755 21.1136 16.3261C21.0609 15.8746 20.8063 15.4713 20.4213 15.2296C20.0555 15 19.471 15 18.3019 15H5.69683C4.52776 15 3.94323 15 3.5775 15.2296C3.1925 15.4713 2.93787 15.8746 2.88517 16.3261C2.83511 16.755 3.08642 17.2828 3.58904 18.3383C4.02694 19.2579 4.2459 19.7177 4.57161 20.0619C4.91684 20.4267 5.34816 20.6991 5.826 20.8539C6.27683 21 6.78609 21 7.80463 21Z" stroke="currentColor" stroke-width="2" stroke-linecap="round" stroke-linejoin="round"/>
</svg>
