<svg width="24" height="24" viewBox="0 0 24 24" fill="none" xmlns="http://www.w3.org/2000/svg">
<path d="M17.9071 12.18L18.515 12.7879M16.7266 7.72076L16.504 8.55121M12.2778 6.11943L11.6698 5.5115M6.4987 13.014L5.67091 12.7818M6.63976 8.15775L7.49938 8.14339M20.3333 17.5555C20.3333 17.5555 18.6667 15.8889 15.8889 17C13.1111 18.1112 12.2778 18.1112 9.22222 17.0001C6.16667 15.889 4.22222 17.5555 4.22222 17.5555M22 12C22 17.5228 17.5228 22 12 22C6.47715 22 2 17.5228 2 12C2 6.47715 6.47715 2 12 2C17.5228 2 22 6.47715 22 12ZM14.2222 12C14.2222 13.2273 13.2273 14.2222 12 14.2222C10.7727 14.2222 9.77778 13.2273 9.77778 12C9.77778 10.7727 10.7727 9.77778 12 9.77778C13.2273 9.77778 14.2222 10.7727 14.2222 12Z" stroke="currentColor" stroke-width="2" stroke-linecap="round" stroke-linejoin="round"/>
</svg>
