<svg width="24" height="24" viewBox="0 0 24 24" fill="none" xmlns="http://www.w3.org/2000/svg">
<path d="M2 7L1.3753 6.21913C1.13809 6.4089 1 6.69622 1 7H2ZM22 7H23C23 6.69622 22.8619 6.4089 22.6247 6.21913L22 7ZM3.63803 21.673L3.18404 22.564L3.63803 21.673ZM2.32698 20.362L1.43597 20.816L2.32698 20.362ZM21.673 20.362L22.564 20.816L21.673 20.362ZM20.362 21.673L20.816 22.564L20.362 21.673ZM16.5508 3.06125L16.7518 2.08167L16.5508 3.06125ZM18.3148 4.05183L17.6901 4.8327L18.3148 4.05183ZM17.3125 3.32845L17.7675 2.43794L17.3125 3.32845ZM7.44921 3.06125L7.24817 2.08167L7.44921 3.06125ZM5.68521 4.05183L5.06052 3.27096V3.27096L5.68521 4.05183ZM6.68749 3.32845L6.23253 2.43794L6.68749 3.32845ZM13 11.0608C13 10.5085 12.5523 10.0608 12 10.0608C11.4477 10.0608 11 10.5085 11 11.0608H13ZM11 17.832C11 18.3843 11.4477 18.832 12 18.832C12.5523 18.832 13 18.3843 13 17.832H11ZM9.9246 14.0061C9.55677 13.5941 8.92461 13.5583 8.51264 13.9262C8.10067 14.294 8.06489 14.9262 8.43272 15.3381L9.9246 14.0061ZM11.943 17.7682L12.6889 17.1022L12.6889 17.1022L11.943 17.7682ZM12.057 17.7682L11.3111 17.1022L11.3111 17.1022L12.057 17.7682ZM15.5673 15.3381C15.9351 14.9262 15.8993 14.294 15.4874 13.9262C15.0754 13.5583 14.4432 13.5941 14.0754 14.0061L15.5673 15.3381ZM2 8H22V6H2V8ZM21 7V17.2H23V7H21ZM17.2 21H6.8V23H17.2V21ZM3 17.2V7H1V17.2H3ZM6.8 21C5.94342 21 5.36113 20.9992 4.91104 20.9624C4.47262 20.9266 4.24842 20.8617 4.09202 20.782L3.18404 22.564C3.66937 22.8113 4.18608 22.9099 4.74817 22.9558C5.2986 23.0008 5.97642 23 6.8 23V21ZM1 17.2C1 18.0236 0.999222 18.7014 1.04419 19.2518C1.09012 19.8139 1.18868 20.3306 1.43597 20.816L3.21799 19.908C3.1383 19.7516 3.07337 19.5274 3.03755 19.089C3.00078 18.6389 3 18.0566 3 17.2H1ZM4.09202 20.782C3.7157 20.5903 3.40973 20.2843 3.21799 19.908L1.43597 20.816C1.81947 21.5686 2.43139 22.1805 3.18404 22.564L4.09202 20.782ZM21 17.2C21 18.0566 20.9992 18.6389 20.9624 19.089C20.9266 19.5274 20.8617 19.7516 20.782 19.908L22.564 20.816C22.8113 20.3306 22.9099 19.8139 22.9558 19.2518C23.0008 18.7014 23 18.0236 23 17.2H21ZM17.2 23C18.0236 23 18.7014 23.0008 19.2518 22.9558C19.8139 22.9099 20.3306 22.8113 20.816 22.564L19.908 20.782C19.7516 20.8617 19.5274 20.9266 19.089 20.9624C18.6389 20.9992 18.0566 21 17.2 21V23ZM20.782 19.908C20.5903 20.2843 20.2843 20.5903 19.908 20.782L20.816 22.564C21.5686 22.1805 22.1805 21.5686 22.564 20.816L20.782 19.908ZM8.68375 4H15.3163V2H8.68375V4ZM17.6901 4.8327L21.3753 7.78087L22.6247 6.21913L18.9395 3.27096L17.6901 4.8327ZM2.6247 7.78087L6.30991 4.8327L5.06052 3.27096L1.3753 6.21913L2.6247 7.78087ZM15.3163 4C15.9804 4 16.1738 4.00472 16.3497 4.04084L16.7518 2.08167C16.3309 1.99528 15.9002 2 15.3163 2V4ZM18.9395 3.27096C18.4835 2.90614 18.1501 2.63343 17.7675 2.43794L16.8576 4.21897C17.0175 4.3007 17.1715 4.41783 17.6901 4.8327L18.9395 3.27096ZM16.3497 4.04084C16.5263 4.07706 16.6971 4.13698 16.8576 4.21897L17.7675 2.43794C17.4465 2.27397 17.1049 2.15413 16.7518 2.08167L16.3497 4.04084ZM8.68375 2C8.09975 2 7.66909 1.99528 7.24817 2.08167L7.65026 4.04084C7.82624 4.00472 8.01964 4 8.68375 4V2ZM6.30991 4.8327C6.82849 4.41783 6.98245 4.3007 7.14244 4.21897L6.23253 2.43794C5.84988 2.63343 5.51654 2.90614 5.06052 3.27096L6.30991 4.8327ZM7.24817 2.08167C6.89512 2.15413 6.55348 2.27397 6.23253 2.43794L7.14244 4.21897C7.30291 4.13698 7.47373 4.07706 7.65026 4.04084L7.24817 2.08167ZM11 11.0608V17.7946H13V11.0608H11ZM11 17.7946V17.832H13V17.7946H11ZM8.43272 15.3381L11.1971 18.4342L12.6889 17.1022L9.9246 14.0061L8.43272 15.3381ZM12.8029 18.4342L15.5673 15.3381L14.0754 14.0061L11.3111 17.1022L12.8029 18.4342ZM11.1971 18.4342C11.3973 18.6584 11.6867 18.7946 12 18.7946V16.7946C12.272 16.7946 12.5202 16.9132 12.6889 17.1022L11.1971 18.4342ZM12 18.7946C12.3133 18.7946 12.6027 18.6584 12.8029 18.4342L11.3111 17.1022C11.4798 16.9132 11.728 16.7946 12 16.7946L12 18.7946Z" fill="currentColor"/>
</svg>
