<svg width="24" height="24" viewBox="0 0 24 24" fill="none" xmlns="http://www.w3.org/2000/svg">
<path d="M12.0549 20.9998C12.0186 20.6716 12 20.338 12 20C12 15.0478 15.9998 11.0297 20.9451 11.0002M12.0549 20.9998C12.0366 20.9999 12.0183 21 12 21C7.02944 21 3 16.9706 3 12C3 11.9817 3.00005 11.9634 3.00016 11.9451M12.0549 20.9998C14.265 20.9866 16.2863 20.1768 17.8461 18.843M20.9451 11.0002C20.9814 11.3284 21 11.662 21 12C21 14.739 19.7764 17.1923 17.8461 18.843M20.9451 11.0002C20.484 6.82841 17.1716 3.516 12.9998 3.05491M12.9998 3.05491C12.6716 3.01863 12.338 3 12 3C9.26097 3 6.80771 4.22357 5.15701 6.15394M12.9998 3.05491C12.9703 8.00021 8.95225 12 4 12C3.66205 12 3.32844 11.9814 3.00016 11.9451M5.15701 6.15394C3.82319 7.71372 3.01337 9.73498 3.00016 11.9451M5.15701 6.15394C11.7149 7.09836 16.9016 12.2851 17.8461 18.843" stroke="currentColor" stroke-width="2" stroke-linecap="round" stroke-linejoin="round"/>
</svg>
