<svg width="24" height="24" viewBox="0 0 24 24" fill="none" xmlns="http://www.w3.org/2000/svg">
<path d="M8.68141 18.9489C9.84112 20.7599 11.8691 21.9921 14.2374 21.9921H14.4816C18.6798 21.9921 21.8085 18.1204 20.9273 14.0158C20.6903 12.9119 20.2845 11.8511 19.7244 10.8708L15.0784 2.74036C14.8428 2.32806 14.725 2.12191 14.5708 2.05293C14.4364 1.99277 14.2826 1.99277 14.1482 2.05293C13.994 2.12191 13.8762 2.32806 13.6406 2.74036L13.003 3.85617M11.3078 8.062L8.13419 2.50821C7.97325 2.22657 7.89279 2.08575 7.78746 2.03863C7.69561 1.99754 7.5906 1.99754 7.49874 2.03863C7.39342 2.08575 7.31295 2.22657 7.15202 2.50821L3.97842 8.062C3.59578 8.73163 3.31863 9.45623 3.15674 10.2103C2.55479 13.0141 4.69199 15.6588 7.55967 15.6588H7.72654C10.5942 15.6588 12.7314 13.0141 12.1295 10.2103C11.9676 9.45623 11.6904 8.73163 11.3078 8.062Z" stroke="currentColor" stroke-width="2" stroke-linecap="round" stroke-linejoin="round"/>
</svg>
