<svg width="24" height="24" viewBox="0 0 24 24" fill="none" xmlns="http://www.w3.org/2000/svg">
<path d="M6.3515 8.73686L5.58518 8.09431L5.57809 8.10296L6.3515 8.73686ZM12.0003 2L12.7666 1.35752C12.5766 1.13091 12.296 1.00001 12.0003 1C11.7046 0.999993 11.424 1.13088 11.234 1.35749L12.0003 2ZM17.6467 8.73465L18.4199 8.10043L18.413 8.09217L17.6467 8.73465ZM13.1407 22.9195C13.6875 22.8418 14.0678 22.3356 13.9901 21.7888C13.9123 21.242 13.4061 20.8617 12.8593 20.9394L13.1407 22.9195ZM18.4482 13.1171C18.5129 13.6656 19.01 14.0578 19.5585 13.9931C20.1069 13.9284 20.4991 13.4314 20.4345 12.8829L18.4482 13.1171ZM17.7071 16.2929C17.3166 15.9024 16.6834 15.9024 16.2929 16.2929C15.9024 16.6834 15.9024 17.3166 16.2929 17.7071L17.7071 16.2929ZM21.2929 22.7071C21.6834 23.0976 22.3166 23.0976 22.7071 22.7071C23.0976 22.3166 23.0976 21.6834 22.7071 21.2929L21.2929 22.7071ZM22.7071 17.7071C23.0976 17.3166 23.0976 16.6834 22.7071 16.2929C22.3166 15.9024 21.6834 15.9024 21.2929 16.2929L22.7071 17.7071ZM16.2929 21.2929C15.9024 21.6834 15.9024 22.3166 16.2929 22.7071C16.6834 23.0976 17.3166 23.0976 17.7071 22.7071L16.2929 21.2929ZM12 21C8.46996 21 5.5 17.9277 5.5 14H3.5C3.5 18.9088 7.24577 23 12 23V21ZM7.11778 9.37937L12.7666 2.64251L11.234 1.35749L5.58523 8.09435L7.11778 9.37937ZM11.234 2.64248L16.8804 9.37712L18.413 8.09217L12.7666 1.35752L11.234 2.64248ZM5.5 14C5.5 12.2321 6.11792 10.5994 7.12492 9.37076L5.57809 8.10296C4.27922 9.68769 3.5 11.7679 3.5 14H5.5ZM12.8593 20.9394C12.5786 20.9793 12.2918 21 12 21V23C12.3863 23 12.7671 22.9726 13.1407 22.9195L12.8593 20.9394ZM16.8735 9.36883C17.7109 10.3897 18.28 11.6906 18.4482 13.1171L20.4345 12.8829C20.2217 11.0784 19.5008 9.4183 18.4199 8.10047L16.8735 9.36883ZM16.2929 17.7071L18.7929 20.2071L20.2071 18.7929L17.7071 16.2929L16.2929 17.7071ZM18.7929 20.2071L21.2929 22.7071L22.7071 21.2929L20.2071 18.7929L18.7929 20.2071ZM21.2929 16.2929L18.7929 18.7929L20.2071 20.2071L22.7071 17.7071L21.2929 16.2929ZM18.7929 18.7929L16.2929 21.2929L17.7071 22.7071L20.2071 20.2071L18.7929 18.7929Z" fill="currentColor"/>
</svg>
