<svg width="24" height="24" viewBox="0 0 24 24" fill="none" xmlns="http://www.w3.org/2000/svg">
<path d="M17.6481 10.44C19.6124 11.2792 21 13.2289 21 15.5C21 18.5376 18.5376 21 15.5 21C14.1975 21 13.0008 20.5473 12.0586 19.7906L12.005 19.7387M17.6481 10.44C17.8755 9.83669 18 9.18288 18 8.5C18 5.46243 15.5376 3 12.5 3C9.46243 3 7 5.46243 7 8.5C7 9.07331 7.08772 9.62612 7.25046 10.1458M17.6481 10.44C17.0063 12.1423 15.5444 13.4424 13.7441 13.8587M7.25046 10.1458C4.82179 10.7166 3 12.8971 3 15.5C3 18.5376 5.46243 21 8.5 21C9.83194 21 11.0533 20.5265 12.005 19.7387M7.25046 10.1458C7.95 12.3794 10.0357 14 12.5 14C12.9279 14 13.3443 13.9511 13.7441 13.8587M13.7441 13.8587L13.7656 13.9066C13.9181 14.411 14 14.9459 14 15.5C14 17.2056 13.2236 18.7299 12.005 19.7387" stroke="currentColor" stroke-width="2" stroke-linecap="round" stroke-linejoin="round"/>
</svg>
