<svg width="24" height="24" viewBox="0 0 24 24" fill="none" xmlns="http://www.w3.org/2000/svg">
<path d="M3 2.99999L3.80564 3.67136C6.72075 6.10062 8.17831 7.31525 9.80534 7.7794C11.2398 8.18863 12.7602 8.18863 14.1947 7.7794C15.8217 7.31525 17.2792 6.10062 20.1944 3.67136L21 2.99999M2 10.4852L10.4853 1.99994M2.24219 16.2425L16.2422 2.24254M6.8 22H17.2C18.8802 22 19.7202 22 20.362 21.673C20.9265 21.3854 21.3854 20.9264 21.673 20.362C22 19.7202 22 18.8801 22 17.2V6.79999C22 5.11983 22 4.27975 21.673 3.63802C21.3854 3.07353 20.9265 2.61459 20.362 2.32697C19.7202 1.99999 18.8802 1.99999 17.2 1.99999H6.8C5.11984 1.99999 4.27976 1.99999 3.63803 2.32697C3.07354 2.61459 2.6146 3.07353 2.32698 3.63802C2 4.27975 2 5.11983 2 6.79999V17.2C2 18.8801 2 19.7202 2.32698 20.362C2.6146 20.9264 3.07354 21.3854 3.63803 21.673C4.27976 22 5.11984 22 6.8 22Z" stroke="currentColor" stroke-width="2" stroke-linecap="round" stroke-linejoin="round"/>
</svg>
