<svg width="24" height="24" viewBox="0 0 24 24" fill="none" xmlns="http://www.w3.org/2000/svg">
<path d="M19.1195 10.6908C18.0447 8.61872 15.8799 7.203 13.3844 7.203C9.81848 7.203 6.92773 10.0937 6.92773 13.6597C6.92773 15.974 8.14534 18.0039 9.97488 19.1437M14.5333 3.28796L15.1973 3.55323C15.4966 3.67282 15.8128 3.74498 16.1343 3.76711L16.8476 3.81619C17.6407 3.87076 18.3824 4.22797 18.9196 4.81397L19.4027 5.34105C19.6205 5.57867 19.874 5.78086 20.1541 5.94032C21.0053 6.42485 21.306 7.51009 20.7749 8.33302C19.5308 10.2606 17.7753 12.5492 15.3257 14.9989C12.474 17.8506 9.84062 19.7615 7.74091 21.02C7.20386 21.3419 6.53565 21.335 5.99151 21.0252C5.30068 20.632 4.78737 19.9883 4.5577 19.2273L4.35112 18.5428C4.25799 18.2342 4.11729 17.942 3.93409 17.6768L3.52773 17.0885C3.07595 16.4345 2.89275 15.6318 3.01601 14.8465L3.12688 14.1402C3.17687 13.8218 3.17687 13.4975 3.12688 13.179L3.01601 12.4727C2.89275 11.6874 3.07595 10.8848 3.52773 10.2307L3.93409 9.64244C4.11729 9.37722 4.25799 9.08505 4.35112 8.77646L4.5577 8.09197C4.78737 7.33096 5.30068 6.68729 5.99151 6.29403L6.61287 5.94032C6.893 5.78086 7.14654 5.57867 7.36434 5.34105L7.84745 4.81397C8.38457 4.22797 9.12632 3.87076 9.91936 3.81619L10.6327 3.76711C10.9542 3.74498 11.2704 3.67282 11.5697 3.55323L12.2337 3.28796C12.9719 2.99304 13.7951 2.99304 14.5333 3.28796Z" stroke="currentColor" stroke-width="2" stroke-linecap="round" stroke-linejoin="round"/>
</svg>
