<svg width="24" height="24" viewBox="0 0 24 24" fill="none" xmlns="http://www.w3.org/2000/svg">
<path d="M20 15.9999V17.1999C20 18.8801 20 19.7202 19.673 20.3619C19.3854 20.9264 18.9265 21.3853 18.362 21.673C17.7202 21.9999 16.8802 21.9999 15.2 21.9999H6.8C5.11984 21.9999 4.27976 21.9999 3.63803 21.673C3.07354 21.3853 2.6146 20.9264 2.32698 20.3619C2 19.7202 2 18.8801 2 17.1999V8.79994C2 7.11978 2 6.27971 2.32698 5.63797C2.6146 5.07348 3.07354 4.61454 3.63803 4.32692C4.27976 3.99994 5.11984 3.99994 6.8 3.99994H8M8.67663 17.6945L8.81581 17.6553C9.26572 17.5289 9.49068 17.4656 9.70048 17.37C9.88677 17.2852 10.0639 17.1815 10.229 17.0605C10.4151 16.9243 10.5803 16.7591 10.9108 16.4286L21.2521 6.08751C22.1732 5.16635 22.1732 3.67284 21.2521 2.75167C20.3309 1.83051 18.8374 1.8305 17.9162 2.75165L7.57426 13.0935C7.24404 13.4237 7.07893 13.5888 6.9428 13.7747C6.82194 13.9397 6.71827 14.1167 6.63342 14.3028C6.53785 14.5124 6.47457 14.7372 6.348 15.1867L6.30884 15.3258C6.00554 16.403 5.85388 16.9416 5.99348 17.3109C6.11519 17.633 6.36934 17.8872 6.69132 18.0091C7.06064 18.1488 7.5993 17.9974 8.67663 17.6945Z" stroke="currentColor" stroke-width="2" stroke-linecap="round" stroke-linejoin="round"/>
</svg>
