<svg width="24" height="24" viewBox="0 0 24 24" fill="none" xmlns="http://www.w3.org/2000/svg">
<path d="M21.9608 20.9502L21.4207 20.4326C20.2163 19.2783 18.4305 19.2149 17.1598 20.2814C15.9538 21.2935 14.2734 21.2936 13.0674 20.2814L12.9968 20.2221C12.6632 19.9421 12.2946 19.737 11.9097 19.6068M5.03798 20.4652L5.19851 20.4075C5.57619 20.272 5.76504 20.2042 5.94152 20.113C6.09827 20.0321 6.24757 19.9374 6.38769 19.8302C6.54545 19.7095 6.68732 19.5676 6.97106 19.2839L19.3544 6.90071C20.24 6.01508 20.24 4.57917 19.3544 3.69353C18.4688 2.80789 17.0329 2.80789 16.1472 3.69351L3.76328 16.0773C3.47976 16.3608 3.338 16.5026 3.21736 16.6602C3.11021 16.8002 3.01561 16.9494 2.93466 17.106C2.84351 17.2823 2.77572 17.471 2.64013 17.8483L2.58247 18.0088C2.14284 19.2323 1.92303 19.844 2.06143 20.244C2.18175 20.5917 2.45495 20.865 2.80262 20.9854C3.2025 21.124 3.81433 20.9044 5.03798 20.4652Z" stroke="currentColor" stroke-width="2" stroke-linecap="round" stroke-linejoin="round"/>
</svg>
