<svg width="24" height="24" viewBox="0 0 24 24" fill="none" xmlns="http://www.w3.org/2000/svg">
<path d="M21.0001 21H12.0001M5.99403 20.4652L6.15457 20.4075C6.53225 20.272 6.72109 20.2042 6.89758 20.113C7.05433 20.0321 7.20363 19.9374 7.34374 19.8302C7.5015 19.7095 7.64337 19.5676 7.92712 19.2839L20.3104 6.90071C21.1961 6.01508 21.1961 4.57917 20.3104 3.69353C19.4248 2.80789 17.9889 2.80789 17.1033 3.69351L4.71934 16.0773C4.43581 16.3608 4.29405 16.5026 4.17341 16.6602C4.06626 16.8002 3.97166 16.9494 3.89071 17.106C3.79956 17.2823 3.73177 17.471 3.59619 17.8483L3.53852 18.0088C3.09889 19.2323 2.87908 19.844 3.01748 20.244C3.13781 20.5917 3.411 20.865 3.75867 20.9854C4.15856 21.124 4.77038 20.9044 5.99403 20.4652Z" stroke="currentColor" stroke-width="2" stroke-linecap="round" stroke-linejoin="round"/>
</svg>
