<svg width="24" height="24" viewBox="0 0 24 24" fill="none" xmlns="http://www.w3.org/2000/svg">
<g clip-path="url(#clip0_787_10189)">
<path d="M2.84028 18.2707C2.97586 17.8933 3.04366 17.7047 3.1348 17.5283C3.21576 17.3717 3.31036 17.2226 3.4175 17.0826C3.53815 16.9249 3.67991 16.7832 3.96343 16.4997L17.7115 2.75172C18.6891 1.77418 20.274 1.77418 21.2516 2.75173V2.75173C22.2291 3.7293 22.2291 5.31424 21.2516 6.29179L7.50408 20.0391C7.22033 20.3228 7.07846 20.4647 6.9207 20.5854C6.78059 20.6926 6.63129 20.7873 6.47454 20.8683C6.29805 20.9594 6.10921 21.0272 5.73153 21.1628L5.05152 21.4068C3.82787 21.846 3.21605 22.0656 2.81616 21.9271C2.46849 21.8066 2.1953 21.5334 2.07497 21.1856C1.93657 20.7857 2.15639 20.174 2.59601 18.9505L2.84028 18.2707Z" stroke="currentColor" stroke-width="2" stroke-linecap="round" stroke-linejoin="round"/>
</g>
<defs>
<clipPath id="clip0_787_10189">
<rect width="24" height="24" fill="white"/>
</clipPath>
</defs>
</svg>
