<svg width="24" height="24" viewBox="0 0 24 24" fill="none" xmlns="http://www.w3.org/2000/svg">
<path d="M15.156 5.57817L18.3523 8.77448M5.05141 21.4068L5.73141 21.1628C6.10909 21.0272 6.29793 20.9594 6.47442 20.8682C6.63117 20.7873 6.78047 20.6926 6.92059 20.5854C7.07834 20.4647 7.22022 20.3228 7.50396 20.0391L21.2514 6.29178C22.229 5.31422 22.229 3.72928 21.2515 2.75172C20.2739 1.77417 18.689 1.77416 17.7114 2.75171L3.96331 16.4996C3.67979 16.7832 3.53803 16.9249 3.41739 17.0825C3.31024 17.2225 3.21564 17.3717 3.13468 17.5283C3.04354 17.7046 2.97575 17.8933 2.84016 18.2706L2.59589 18.9504C2.15627 20.1739 1.93646 20.7857 2.07485 21.1856C2.19518 21.5333 2.46837 21.8066 2.81604 21.9271C3.21593 22.0656 3.82776 21.846 5.05141 21.4068Z" stroke="currentColor" stroke-width="2" stroke-linecap="round" stroke-linejoin="round"/>
</svg>
