<svg width="24" height="24" viewBox="0 0 24 24" fill="none" xmlns="http://www.w3.org/2000/svg">
<path d="M4.31319 19.7065L3.16602 20.8338M4.31319 19.7065C4.54663 19.9349 4.86875 20.0731 5.22276 20.0642L6.28242 20.0375C6.88995 20.0223 7.46838 19.7741 7.89811 19.3444L16.7872 10.4553M4.31319 19.7065C4.07322 19.4717 3.92696 19.1415 3.93611 18.7775L3.96275 17.7179C3.97802 17.1103 4.22618 16.5319 4.6559 16.1022L13.545 7.2131M11.668 5.33609L13.545 7.2131M18.6633 12.3314L16.7872 10.4553M13.545 7.2131L16.8555 3.90262C17.7508 3.00731 19.2024 3.00731 20.0977 3.90262C20.993 4.79793 20.993 6.24952 20.0977 7.14483L16.7872 10.4553M13.545 7.2131L16.7872 10.4553" stroke="currentColor" stroke-width="2" stroke-linecap="round" stroke-linejoin="round"/>
</svg>
