<svg width="24" height="24" viewBox="0 0 24 24" fill="none" xmlns="http://www.w3.org/2000/svg">
<path d="M6.8302 20.9812H10.9329M20.7312 20.9812H10.9329M20.7312 20.9812L15.7982 16.0482M20.7312 20.9812L21.75 22M15.7982 16.0482L11.2978 20.5512L10.9329 20.9812M15.7982 16.0482L8.66531 8.91531M6.83244 20.9834L5.10468 19.2557C3.91663 18.0676 3.32261 17.4736 3.10004 16.7886C2.90427 16.1861 2.90427 15.5371 3.10004 14.9345C3.32261 14.2495 3.91663 13.6555 5.10468 12.4675L8.66531 8.91531M11.3749 6.19727L12.634 4.93811C13.0028 4.56933 13.1872 4.38494 13.3646 4.25332C14.4262 3.46548 15.8785 3.46548 16.9401 4.25332C17.1175 4.38494 17.3019 4.56933 17.6707 4.93811L19.7725 7.03992C20.1412 7.4087 20.3256 7.59309 20.4573 7.77045C21.2451 8.83211 21.2451 10.2843 20.4573 11.346C20.3256 11.5234 20.1412 11.7078 19.7725 12.0765L18.5133 13.3357M8.66531 8.91531L1.75 2" stroke="currentColor" stroke-width="2" stroke-linecap="round" stroke-linejoin="round"/>
</svg>
