<svg width="24" height="24" viewBox="0 0 24 24" fill="none" xmlns="http://www.w3.org/2000/svg">
<path d="M6.83011 20.9812H10.9089M19.9433 20.9812H10.9089M6.83235 20.9834L5.1046 19.2557C3.91655 18.0676 3.32252 17.4736 3.09996 16.7886C2.90418 16.1861 2.90418 15.537 3.09996 14.9345C3.32252 14.2495 3.91655 13.6555 5.1046 12.4674L10.1156 7.45639M10.1156 7.45639L11.7581 5.81388C12.9462 4.62584 13.5402 4.03181 14.2252 3.80925C14.8277 3.61347 15.4768 3.61347 16.0793 3.80925C16.7643 4.03181 17.3583 4.62584 18.5464 5.81389L18.8966 6.16409C20.0846 7.35214 20.6786 7.94617 20.9012 8.63115C21.097 9.23368 21.097 9.88272 20.9012 10.4853C20.6786 11.1702 20.0846 11.7643 18.8966 12.9523L17.2541 14.5948M10.1156 7.45639L17.2541 14.5948M17.2541 14.5948L11.2977 20.5512L10.9089 20.9812" stroke="currentColor" stroke-width="2" stroke-linecap="round" stroke-linejoin="round"/>
</svg>
