<svg width="24" height="24" viewBox="0 0 24 24" fill="none" xmlns="http://www.w3.org/2000/svg">
<path d="M8.24444 13.0783C8.47105 13.8471 8.82538 15.0436 9.11627 16.1291M8.24444 13.0783C7.77879 13.3937 7.37723 13.7076 7.0702 13.9664M8.24444 13.0783C9.28848 12.3711 10.6547 11.6563 12 11.5383M9.11627 16.1291C9.25703 16.6543 9.54614 17.9228 9.60359 18.8155M9.11627 16.1291C9.4673 15.9558 10.244 15.5906 10.5427 15.5159M14 2.23627V5.6C14 6.44008 14 6.86012 14.1635 7.18099C14.3073 7.46323 14.5368 7.6927 14.819 7.83651C15.1399 8 15.5599 8 16.4 8H19.8858M14 2.23627C13.8371 2.16748 13.6682 2.11315 13.4953 2.07401C13.1683 2 12.8232 2 12.1329 2H8.8C7.11984 2 6.27976 2 5.63803 2.32698C5.07354 2.6146 4.6146 3.07354 4.32698 3.63803C4 4.27976 4 5.11984 4 6.8V17.2C4 18.8802 4 19.7202 4.32698 20.362C4.6146 20.9265 5.07354 21.3854 5.63803 21.673C6.27976 22 7.11984 22 8.8 22H15.2C16.8802 22 17.7202 22 18.362 21.673C18.9265 21.3854 19.3854 20.9265 19.673 20.362C20 19.7202 20 18.8802 20 17.2V9.61153C20 8.8337 20 8.44479 19.9077 8.0814C19.9008 8.05415 19.8935 8.02702 19.8858 8M14 2.23627C14.1103 2.28283 14.2178 2.33602 14.322 2.39559C14.6131 2.56199 14.8675 2.79522 15.3764 3.26166L18.4435 6.07319C19.0169 6.59878 19.3035 6.86158 19.5091 7.17515C19.6758 7.42955 19.8028 7.7077 19.8858 8" stroke="currentColor" stroke-width="2" stroke-linecap="round" stroke-linejoin="round"/>
</svg>
