<svg width="24" height="24" viewBox="0 0 24 24" fill="none" xmlns="http://www.w3.org/2000/svg">
<path d="M15.8876 7.90552C19.3362 8.31915 22.0094 11.2549 22.0094 14.8149C22.0094 15.3923 21.9391 15.9532 21.8065 16.4896C21.6367 17.1773 21.5517 17.5211 21.5336 17.6254C21.4326 18.2084 21.436 18.299 21.5809 18.8727C21.6068 18.9753 21.6558 19.1241 21.7537 19.4216C21.9334 19.9674 22.0232 20.2402 22.0338 20.4399C22.0778 21.2694 21.4393 21.9767 20.6097 22.0175C20.41 22.0274 20.1294 21.9659 19.5681 21.8428L18.7299 21.6591C18.3439 21.5745 18.1509 21.5322 17.9942 21.5148C17.7592 21.4886 17.7717 21.489 17.5354 21.4991C17.3779 21.5058 16.9456 21.57 16.081 21.6983C15.7446 21.7483 15.4004 21.7742 15.0501 21.7742C11.5834 21.7742 8.7088 19.2394 8.17844 15.9222M6.20891 10.3156L8.55471 5.62402L10.9005 10.3156M6.20891 10.3156L5.62246 11.4885M6.20891 10.3156H10.9005M10.9005 10.3156L11.487 11.4885M17.2183 16.8963C17.7192 16.3899 18.0427 15.7043 18.081 14.9369C18.1472 13.6129 17.3446 12.4466 16.1734 11.9908C15.9888 11.919 15.795 11.8648 15.594 11.8304H15.3024M17.2183 16.8963C16.639 17.4819 15.8225 17.8278 14.9351 17.7835C13.7441 17.724 12.7501 16.9777 12.3173 15.9471L12.078 15.218M17.2183 16.8963L18.1671 17.9449M8.17844 15.9222C8.42885 15.9494 8.68325 15.9634 8.94091 15.9634C10.0695 15.9634 11.1353 15.6948 12.078 15.218M8.17844 15.9222C8.08843 15.9123 7.99894 15.9008 7.91 15.8876C7.04542 15.7592 6.61314 15.695 6.45563 15.6884C6.21933 15.6783 6.23186 15.6779 5.9968 15.704C5.84011 15.7215 5.64711 15.7638 5.26111 15.8484L4.42287 16.0321C3.86163 16.1551 3.58102 16.2166 3.38136 16.2068C2.5517 16.166 1.9132 15.4586 1.95722 14.6291C1.96782 14.4295 2.05764 14.1566 2.23728 13.6109C2.33521 13.3134 2.38417 13.1646 2.4101 13.062C2.55502 12.4883 2.55846 12.3977 2.45739 11.8147C2.43931 11.7104 2.35435 11.3665 2.18448 10.6789C2.05196 10.1425 1.98165 9.58154 1.98165 9.00418C1.98165 5.16069 5.09742 2.04492 8.94091 2.04492C12.3467 2.04492 15.1811 4.49148 15.7825 7.723C15.8598 8.13827 15.9002 8.56651 15.9002 9.00418C15.9002 10.0104 15.6866 10.9668 15.3024 11.8304M12.078 15.218C13.5051 14.496 14.6498 13.2969 15.3024 11.8304" stroke="currentColor" stroke-width="2" stroke-linecap="round" stroke-linejoin="round"/>
</svg>
