<svg width="24" height="24" viewBox="0 0 24 24" fill="none" xmlns="http://www.w3.org/2000/svg">
<path d="M18.4642 3.51192L8.76793 6.74401C8.21137 6.92953 7.93309 7.02229 7.70199 7.18037C7.4973 7.32038 7.32044 7.49724 7.18043 7.70193C7.02235 7.93303 6.92959 8.21131 6.74407 8.76786L3.51198 18.4641C3.18628 19.4412 3.02343 19.9298 3.13928 20.2547C3.2401 20.5374 3.46259 20.7599 3.74531 20.8607C4.07019 20.9765 4.55874 20.8137 5.53584 20.488L15.2321 17.2559C15.7887 17.0704 16.0669 16.9776 16.298 16.8195C16.5027 16.6795 16.6796 16.5027 16.8196 16.298C16.9777 16.0669 17.0704 15.7886 17.256 15.232L20.4881 5.53577C20.8138 4.55868 20.9766 4.07013 20.8607 3.74525C20.7599 3.46252 20.5374 3.24004 20.2547 3.13922C19.9298 3.02337 19.4413 3.18622 18.4642 3.51192Z" stroke="currentColor" stroke-width="2" stroke-linecap="round" stroke-linejoin="round"/>
<path d="M13 12C13 12.5523 12.5523 13 12 13C11.4477 13 11 12.5523 11 12C11 11.4477 11.4477 11 12 11C12.5523 11 13 11.4477 13 12Z" stroke="currentColor" stroke-width="2" stroke-linecap="round" stroke-linejoin="round"/>
</svg>
