<svg width="24" height="24" viewBox="0 0 24 24" fill="none" xmlns="http://www.w3.org/2000/svg">
<path d="M14.056 21V15.3522H16.4764L17.2833 12.1249H14.056V10.5113C14.056 10.2973 14.141 10.0921 14.2923 9.94078C14.4436 9.78947 14.6488 9.70447 14.8628 9.70447H17.2833V6.47717H14.8628C13.7929 6.47717 12.7668 6.9022 12.0102 7.65874C11.2537 8.41528 10.8287 9.44138 10.8287 10.5113V12.1249H8.4082V15.3522H10.8287V21M7.8 21H16.2C17.8802 21 18.7202 21 19.362 20.673C19.9265 20.3854 20.3854 19.9265 20.673 19.362C21 18.7202 21 17.8802 21 16.2V7.8C21 6.11984 21 5.27976 20.673 4.63803C20.3854 4.07354 19.9265 3.6146 19.362 3.32698C18.7202 3 17.8802 3 16.2 3H7.8C6.11984 3 5.27976 3 4.63803 3.32698C4.07354 3.6146 3.6146 4.07354 3.32698 4.63803C3 5.27976 3 6.11984 3 7.8V16.2C3 17.8802 3 18.7202 3.32698 19.362C3.6146 19.9265 4.07354 20.3854 4.63803 20.673C5.27976 21 6.11984 21 7.8 21Z" stroke="currentColor" stroke-width="2" stroke-linecap="round" stroke-linejoin="round"/>
</svg>
