<svg width="24" height="24" viewBox="0 0 24 24" fill="none" xmlns="http://www.w3.org/2000/svg">
<path d="M16 3H16.2C17.8802 3 18.7202 3 19.362 3.32698C19.9265 3.6146 20.3854 4.07354 20.673 4.63803C21 5.27976 21 6.11984 21 7.8V8M8 3H7.8C6.11984 3 5.27976 3 4.63803 3.32698C4.07354 3.6146 3.6146 4.07354 3.32698 4.63803C3 5.27976 3 6.11984 3 7.8V8M3 16V16.2C3 17.8802 3 18.7202 3.32698 19.362C3.6146 19.9265 4.07354 20.3854 4.63803 20.673C5.27976 21 6.11984 21 7.8 21H8M16 21H16.2C17.8802 21 18.7202 21 19.362 20.673C19.9265 20.3854 20.3854 19.9265 20.673 19.362C21 18.7202 21 17.8802 21 16.2V16M6.15596 12.0001C6.15596 11.2991 8.10397 7.79435 12 7.79435C15.896 7.79435 17.844 11.2991 17.844 12.0001C17.844 12.701 15.896 16.2058 12 16.2058C8.10397 16.2058 6.15596 12.701 6.15596 12.0001ZM13.0042 12C13.0042 12.5546 12.5546 13.0042 12 13.0042C11.4454 13.0042 10.9958 12.5546 10.9958 12C10.9958 11.4454 11.4454 10.9958 12 10.9958C12.5546 10.9958 13.0042 11.4454 13.0042 12Z" stroke="currentColor" stroke-width="2" stroke-linecap="round" stroke-linejoin="round"/>
</svg>
