<svg width="24" height="24" viewBox="0 0 24 24" fill="none" xmlns="http://www.w3.org/2000/svg">
<path d="M20 11.9999V21H4L4 9.29625C4 8.72718 4 8.44265 4.11472 8.30395C4.21437 8.18348 4.36465 8.11655 4.52086 8.12307C4.70069 8.13058 4.91219 8.32092 5.33517 8.70161L9 11.9999L9 9.18815C9 8.64876 9 8.37906 9.11026 8.24187C9.20613 8.12257 9.35135 8.05375 9.50439 8.0551C9.68039 8.05664 9.88912 8.22742 10.3066 8.56898L13.6159 11.2766C13.9435 11.5446 14.1072 11.6786 14.2903 11.7739C14.4528 11.8585 14.6261 11.9204 14.8054 11.9578C15.0075 11.9999 15.2191 11.9999 15.6423 11.9999H20ZM20 11.9999L18.5 3H16.5L15.1553 11.0685C15.1018 11.389 15.0751 11.5492 15.1215 11.6741C15.1622 11.7837 15.24 11.8755 15.3415 11.9337C15.457 12 15.6195 12 15.9444 12L20 11.9999ZM3 21L21 21M8.48085 16H9.65663M14.4121 16H15.5879" stroke="currentColor" stroke-width="2" stroke-linecap="round" stroke-linejoin="round"/>
</svg>
