<svg width="24" height="24" viewBox="0 0 24 24" fill="none" xmlns="http://www.w3.org/2000/svg">
<path d="M22 9.98736C22 8.27387 22 7.41712 21.6435 6.95006C21.333 6.54327 20.8591 6.29396 20.348 6.26857C19.7611 6.23942 19.0551 6.72479 17.6432 7.69554L15.4673 9.19141C14.3484 9.96068 13.7889 10.3453 13.5926 10.8266C13.4208 11.2475 13.4208 11.719 13.5926 12.1399C13.7889 12.6212 14.3484 13.0058 15.4673 13.7751L17.6432 15.2709C19.0551 16.2417 19.7611 16.7271 20.348 16.6979C20.8591 16.6725 21.333 16.4232 21.6435 16.0164C22 15.5494 22 14.6926 22 12.9791V9.98736Z" stroke="currentColor" stroke-width="2" stroke-linecap="round" stroke-linejoin="round"/>
<path d="M10.5362 9.98736C10.5362 8.27387 10.5362 7.41712 10.1797 6.95006C9.86926 6.54327 9.39531 6.29396 8.88421 6.26857C8.29737 6.23942 7.59138 6.72479 6.17938 7.69554L4.00357 9.19141C2.88464 9.96068 2.32518 10.3453 2.12882 10.8266C1.95706 11.2475 1.95706 11.719 2.12882 12.1399C2.32518 12.6212 2.88464 13.0058 4.00357 13.7751L6.17939 15.2709C7.59138 16.2417 8.29737 16.7271 8.88421 16.6979C9.39531 16.6725 9.86926 16.4232 10.1797 16.0164C10.5362 15.5494 10.5362 14.6926 10.5362 12.9791V9.98736Z" stroke="currentColor" stroke-width="2" stroke-linecap="round" stroke-linejoin="round"/>
</svg>
