<svg width="24" height="24" viewBox="0 0 24 24" fill="none" xmlns="http://www.w3.org/2000/svg">
<path d="M2 9.98736C2 8.27387 2 7.41712 2.35649 6.95006C2.66696 6.54327 3.1409 6.29396 3.652 6.26857C4.23884 6.23942 4.94484 6.72479 6.35683 7.69554L8.53265 9.19141C9.65158 9.96068 10.211 10.3453 10.4074 10.8266C10.5792 11.2475 10.5792 11.719 10.4074 12.1399C10.211 12.6212 9.65158 13.0058 8.53265 13.7751L6.35683 15.2709C4.94484 16.2417 4.23884 16.7271 3.652 16.6979C3.1409 16.6725 2.66696 16.4232 2.35649 16.0164C2 15.5494 2 14.6926 2 12.9791V9.98736Z" stroke="currentColor" stroke-width="2" stroke-linecap="round" stroke-linejoin="round"/>
<path d="M13.4638 9.98736C13.4638 8.27387 13.4638 7.41712 13.8203 6.95006C14.1307 6.54327 14.6047 6.29396 15.1158 6.26857C15.7026 6.23942 16.4086 6.72479 17.8206 7.69554L19.9964 9.19141C21.1154 9.96068 21.6748 10.3453 21.8712 10.8266C22.0429 11.2475 22.0429 11.719 21.8712 12.1399C21.6748 12.6212 21.1154 13.0058 19.9964 13.7751L17.8206 15.2709C16.4086 16.2417 15.7026 16.7271 15.1158 16.6979C14.6047 16.6725 14.1307 16.4232 13.8203 16.0164C13.4638 15.5494 13.4638 14.6926 13.4638 12.9791V9.98736Z" stroke="currentColor" stroke-width="2" stroke-linecap="round" stroke-linejoin="round"/>
</svg>
