<svg width="24" height="24" viewBox="0 0 24 24" fill="none" xmlns="http://www.w3.org/2000/svg">
<path d="M14 2.23627V6.5C14 7.32843 14.6716 8 15.5 8H19.8858M12.1329 2H8.8C7.11984 2 6.27976 2 5.63803 2.32698C5.07354 2.6146 4.6146 3.07354 4.32698 3.63803C4 4.27976 4 5.11984 4 6.8V17.2C4 18.8802 4 19.7202 4.32698 20.362C4.6146 20.9265 5.07354 21.3854 5.63803 21.673C6.27976 22 7.11984 22 8.8 22H15.2C16.8802 22 17.7202 22 18.362 21.673C18.9265 21.3854 19.3854 20.9265 19.673 20.362C20 19.7202 20 18.8802 20 17.2V9.61153C20 8.8337 20 8.44479 19.9077 8.0814C19.826 7.75932 19.6912 7.45307 19.5091 7.17515C19.3035 6.86158 19.0169 6.59878 18.4435 6.07319L15.3764 3.26166C14.8675 2.79522 14.6131 2.56199 14.322 2.39559C14.0639 2.24802 13.7853 2.13964 13.4953 2.07401C13.1683 2 12.8232 2 12.1329 2ZM11.3037 11.1067L10.1813 11.4575C9.75712 11.59 9.545 11.6563 9.38791 11.7842C9.24922 11.8971 9.1416 12.0435 9.0752 12.2095C9 12.3976 9 12.6199 9 13.0643V13.3723C9 14.195 9 14.6064 9.08899 14.9938C9.17952 15.388 9.33756 15.7636 9.55612 16.104C9.77095 16.4385 10.0651 16.7261 10.6533 17.3012C11.0431 17.6824 11.2379 17.873 11.4595 17.9502C11.6838 18.0284 11.9279 18.0284 12.1521 17.9502C12.3737 17.873 12.5686 17.6824 12.9584 17.3012C13.5466 16.7261 13.8407 16.4385 14.0555 16.104C14.2741 15.7636 14.4321 15.388 14.5226 14.9938C14.6116 14.6064 14.6116 14.195 14.6116 13.3723V13.0643C14.6116 12.6199 14.6116 12.3976 14.5364 12.2095C14.47 12.0435 14.3624 11.8971 14.2237 11.7842C14.0666 11.6563 13.8545 11.59 13.4303 11.4575L12.308 11.1067C12.1214 11.0484 12.0281 11.0193 11.933 11.0077C11.8485 10.9974 11.7631 10.9974 11.6786 11.0077C11.5835 11.0193 11.4902 11.0484 11.3037 11.1067Z" stroke="currentColor" stroke-width="2" stroke-linecap="round" stroke-linejoin="round"/>
</svg>
