<svg width="24" height="24" viewBox="0 0 24 24" fill="none" xmlns="http://www.w3.org/2000/svg">
<path d="M11.5 22H8.8C7.11984 22 6.27976 22 5.63803 21.673C5.07354 21.3854 4.6146 20.9265 4.32698 20.362C4 19.7202 4 18.8802 4 17.2V6.8C4 5.11984 4 4.27976 4.32698 3.63803C4.6146 3.07354 5.07354 2.6146 5.63803 2.32698C6.27976 2 7.11984 2 8.8 2H15.2C16.8802 2 17.7202 2 18.362 2.32698C18.9265 2.6146 19.3854 3.07354 19.673 3.63803C20 4.27976 20 5.11984 20 6.8V10M8 7H16M8 11L16 11M8 15H12M20.4 17.2V15.6C20.4 14.7163 19.6837 14 18.8 14C17.9164 14 17.2 14.7163 17.2 15.6V17.2M17.136 22H20.464C21.0017 22 21.2705 22 21.4758 21.8954C21.6565 21.8033 21.8033 21.6565 21.8954 21.4758C22 21.2705 22 21.0017 22 20.464V18.736C22 18.1983 22 17.9295 21.8954 17.7242C21.8033 17.5435 21.6565 17.3967 21.4758 17.3046C21.2705 17.2 21.0017 17.2 20.464 17.2H17.136C16.5984 17.2 16.3295 17.2 16.1242 17.3046C15.9435 17.3967 15.7967 17.5435 15.7046 17.7242C15.6 17.9295 15.6 18.1983 15.6 18.736V20.464C15.6 21.0017 15.6 21.2705 15.7046 21.4758C15.7967 21.6565 15.9435 21.8033 16.1242 21.8954C16.3295 22 16.5984 22 17.136 22Z" stroke="currentColor" stroke-width="2" stroke-linecap="round"/>
</svg>
