<svg width="24" height="24" viewBox="0 0 24 24" fill="none" xmlns="http://www.w3.org/2000/svg">
<path d="M14 22H8.8C7.11984 22 6.27976 22 5.63803 21.673C5.07354 21.3854 4.6146 20.9265 4.32698 20.362C4 19.7202 4 18.8802 4 17.2V6.8C4 5.11984 4 4.27976 4.32698 3.63803C4.6146 3.07354 5.07354 2.6146 5.63803 2.32698C6.27976 2 7.11984 2 8.8 2H15.2C16.8802 2 17.7202 2 18.362 2.32698C18.9265 2.6146 19.3854 3.07354 19.673 3.63803C20 4.27976 20 5.11984 20 6.8V11M15.6308 16.0022C15.807 15.5014 16.1547 15.079 16.6125 14.81C17.0703 14.5409 17.6085 14.4426 18.1318 14.5324C18.6551 14.6221 19.1298 14.8942 19.4717 15.3004C19.8136 15.7066 20.0008 16.2207 20 16.7517C20 18.5 17.7517 19 17.7517 19M17.7808 22H17.7908" stroke="currentColor" stroke-width="2" stroke-linecap="round" stroke-linejoin="round"/>
</svg>
