<svg width="24" height="24" viewBox="0 0 24 24" fill="none" xmlns="http://www.w3.org/2000/svg">
<path d="M12.2585 22H8.8C7.11984 22 6.27976 22 5.63803 21.673C5.07354 21.3854 4.6146 20.9265 4.32698 20.362C4 19.7202 4 18.8802 4 17.2V6.8C4 5.11984 4 4.27976 4.32698 3.63803C4.6146 3.07354 5.07354 2.6146 5.63803 2.32698C6.27976 2 7.11984 2 8.8 2H15.2C16.8802 2 17.7202 2 18.362 2.32698C18.9265 2.6146 19.3854 3.07354 19.673 3.63803C20 4.27976 20 5.11984 20 6.8V11.2993M17.9973 15.8306C17.1975 14.9216 15.8639 14.6771 14.8619 15.5094C13.8599 16.3418 13.7188 17.7335 14.5057 18.7179C15.2926 19.7024 17.9973 22 17.9973 22C17.9973 22 20.7019 19.7024 21.4888 18.7179C22.2757 17.7335 22.1519 16.3331 21.1326 15.5094C20.1134 14.6858 18.797 14.9216 17.9973 15.8306Z" stroke="currentColor" stroke-width="2" stroke-linecap="round" stroke-linejoin="round"/>
</svg>
