<svg width="24" height="24" viewBox="0 0 24 24" fill="none" xmlns="http://www.w3.org/2000/svg">
<path d="M14 2.39559V6.5C14 7.32843 14.6716 8 15.5 8H19.673M13.8 13.2V11.6C13.8 10.7163 13.0837 10 12.2 10C11.3163 10 10.6 10.7163 10.6 11.6V13.2M12.1329 2H8.8C7.11984 2 6.27976 2 5.63803 2.32698C5.07354 2.6146 4.6146 3.07354 4.32698 3.63803C4 4.27976 4 5.11984 4 6.8V17.2C4 18.8802 4 19.7202 4.32698 20.362C4.6146 20.9265 5.07354 21.3854 5.63803 21.673C6.27976 22 7.11984 22 8.8 22H15.2C16.8802 22 17.7202 22 18.362 21.673C18.9265 21.3854 19.3854 20.9265 19.673 20.362C20 19.7202 20 18.8802 20 17.2V9.61153C20 8.8337 20 8.44479 19.9077 8.0814C19.826 7.75932 19.6912 7.45307 19.5091 7.17515C19.3035 6.86158 19.0169 6.59878 18.4435 6.07319L15.3764 3.26166C14.8675 2.79522 14.6131 2.56199 14.322 2.39559C14.0639 2.24802 13.7853 2.13964 13.4953 2.07401C13.1683 2 12.8232 2 12.1329 2ZM10.536 18H13.864C14.4017 18 14.6705 18 14.8758 17.8954C15.0565 17.8033 15.2033 17.6565 15.2954 17.4758C15.4 17.2705 15.4 17.0017 15.4 16.464V14.736C15.4 14.1983 15.4 13.9295 15.2954 13.7242C15.2033 13.5435 15.0565 13.3967 14.8758 13.3046C14.6705 13.2 14.4017 13.2 13.864 13.2H10.536C9.99835 13.2 9.72952 13.2 9.52417 13.3046C9.34353 13.3967 9.19667 13.5435 9.10463 13.7242C9 13.9295 9 14.1983 9 14.736V16.464C9 17.0017 9 17.2705 9.10463 17.4758C9.19667 17.6565 9.34353 17.8033 9.52417 17.8954C9.72952 18 9.99835 18 10.536 18Z" stroke="currentColor" stroke-width="2" stroke-linecap="round"/>
</svg>
