<svg width="24" height="24" viewBox="0 0 24 24" fill="none" xmlns="http://www.w3.org/2000/svg">
<path d="M13.4953 2.07401L13.7161 1.09868L13.4953 2.07401ZM15.3764 3.26166L14.7006 3.99881V3.99881L15.3764 3.26166ZM14.322 2.39559L14.8184 1.52746L14.322 2.39559ZM5.63803 21.673L5.18404 22.564L5.63803 21.673ZM4.32698 20.362L3.43597 20.816L4.32698 20.362ZM19 14C19 14.5523 19.4477 15 20 15C20.5523 15 21 14.5523 21 14H19ZM13 23C13.5523 23 14 22.5523 14 22C14 21.4477 13.5523 21 13 21V23ZM19.9077 8.0814L18.9385 8.3275L19.9077 8.0814ZM18.4435 6.07319L19.1192 5.33603L18.4435 6.07319ZM19.5091 7.17515L18.6727 7.72333L19.5091 7.17515ZM4.32698 3.63803L3.43597 3.18404L4.32698 3.63803ZM5.63803 2.32698L5.18404 1.43597L5.63803 2.32698ZM19 9.61153V14H21V9.61153H19ZM13 21H8.8V23H13V21ZM5 17.2V6.8H3V17.2H5ZM8.8 3H12.1329V1H8.8V3ZM14.7006 3.99881L17.7678 6.81034L19.1192 5.33603L16.0521 2.52451L14.7006 3.99881ZM12.1329 3C12.8678 3 13.0818 3.00572 13.2746 3.04934L13.7161 1.09868C13.2548 0.994278 12.7786 1 12.1329 1V3ZM16.0521 2.52451C15.5761 2.08819 15.2289 1.76219 14.8184 1.52746L13.8257 3.26373C13.9972 3.3618 14.1589 3.50224 14.7006 3.99881L16.0521 2.52451ZM13.2746 3.04934C13.4679 3.0931 13.6536 3.16535 13.8257 3.26373L14.8184 1.52746C14.4742 1.3307 14.1027 1.18619 13.7161 1.09868L13.2746 3.04934ZM8.8 21C7.94342 21 7.36113 20.9992 6.91104 20.9624C6.47262 20.9266 6.24842 20.8617 6.09202 20.782L5.18404 22.564C5.66937 22.8113 6.18608 22.9099 6.74817 22.9558C7.2986 23.0008 7.97642 23 8.8 23V21ZM3 17.2C3 18.0236 2.99922 18.7014 3.04419 19.2518C3.09012 19.8139 3.18868 20.3306 3.43597 20.816L5.21799 19.908C5.1383 19.7516 5.07337 19.5274 5.03755 19.089C5.00078 18.6389 5 18.0566 5 17.2H3ZM6.09202 20.782C5.7157 20.5903 5.40973 20.2843 5.21799 19.908L3.43597 20.816C3.81947 21.5686 4.43139 22.1805 5.18404 22.564L6.09202 20.782ZM21 9.61153C21 8.88438 21.0072 8.34808 20.877 7.8353L18.9385 8.3275C18.9928 8.5415 19 8.78302 19 9.61153H21ZM17.7678 6.81034C18.3785 7.37019 18.5517 7.53867 18.6727 7.72333L20.3454 6.62696C20.0554 6.18449 19.6552 5.82738 19.1192 5.33603L17.7678 6.81034ZM20.877 7.8353C20.7679 7.40586 20.5883 6.99752 20.3454 6.62696L18.6727 7.72333C18.7942 7.90861 18.884 8.11278 18.9385 8.3275L20.877 7.8353ZM5 6.8C5 5.94342 5.00078 5.36113 5.03755 4.91104C5.07337 4.47262 5.1383 4.24842 5.21799 4.09202L3.43597 3.18404C3.18868 3.66937 3.09012 4.18608 3.04419 4.74817C2.99922 5.2986 3 5.97642 3 6.8H5ZM8.8 1C7.97642 1 7.2986 0.999222 6.74817 1.04419C6.18608 1.09012 5.66937 1.18868 5.18404 1.43597L6.09202 3.21799C6.24842 3.1383 6.47262 3.07337 6.91104 3.03755C7.36113 3.00078 7.94342 3 8.8 3V1ZM5.21799 4.09202C5.40973 3.71569 5.71569 3.40973 6.09202 3.21799L5.18404 1.43597C4.43139 1.81947 3.81947 2.43139 3.43597 3.18404L5.21799 4.09202ZM13 2V6.5H15V2H13ZM15.5 9H20V7H15.5V9ZM13 6.5C13 7.88071 14.1193 9 15.5 9V7C15.2239 7 15 6.77614 15 6.5H13Z" fill="currentColor"/>
<path d="M21.015 22L16.515 17.5M16.515 22L21.015 17.5" stroke="currentColor" stroke-width="2" stroke-linecap="round"/>
</svg>
