<svg width="24" height="24" viewBox="0 0 24 24" fill="none" xmlns="http://www.w3.org/2000/svg">
<path d="M12.75 10V9M11.25 8V7M12.75 6V5M11.25 4V3M20 6.8V17.2C20 18.8802 20 19.7202 19.673 20.362C19.3854 20.9265 18.9265 21.3854 18.362 21.673C17.7202 22 16.8802 22 15.2 22H8.8C7.11984 22 6.27976 22 5.63803 21.673C5.07354 21.3854 4.6146 20.9265 4.32698 20.362C4 19.7202 4 18.8802 4 17.2V6.8C4 5.11984 4 4.27976 4.32698 3.63803C4.6146 3.07354 5.07354 2.6146 5.63803 2.32698C6.27976 2 7.11984 2 8.8 2H15.2C16.8802 2 17.7202 2 18.362 2.32698C18.9265 2.6146 19.3854 3.07354 19.673 3.63803C20 4.27976 20 5.11984 20 6.8ZM13.7018 15.2218C13.2368 15.8248 13.0043 16.1263 12.7433 16.2752C12.2826 16.538 11.7174 16.538 11.2567 16.2752C10.9957 16.1263 10.7632 15.8248 10.2982 15.2218C10.2091 15.1063 10.1646 15.0486 10.1296 14.9867C10.0683 14.8782 10.0277 14.7593 10.0101 14.636C10 14.5655 10 14.4926 10 14.3468L10 12.6C10 12.0399 10 11.7599 10.109 11.546C10.2049 11.3578 10.3578 11.2049 10.546 11.109C10.7599 11 11.0399 11 11.6 11H12.4C12.9601 11 13.2401 11 13.454 11.109C13.6422 11.2049 13.7951 11.3578 13.891 11.546C14 11.7599 14 12.0399 14 12.6L14 14.3468C14 14.4926 14 14.5655 13.9899 14.636C13.9723 14.7593 13.9317 14.8782 13.8704 14.9867C13.8354 15.0486 13.7908 15.1063 13.7018 15.2218Z" stroke="currentColor" stroke-width="2" stroke-linecap="round"/>
</svg>
