<svg width="24" height="24" viewBox="0 0 24 24" fill="none" xmlns="http://www.w3.org/2000/svg">
<path d="M14 11V9C14 7.89543 13.1046 7 12 7C10.8954 7 10 7.89543 10 9V11M20 6.8V17.2C20 18.8802 20 19.7202 19.673 20.362C19.3854 20.9265 18.9265 21.3854 18.362 21.673C17.7202 22 16.8802 22 15.2 22H8.8C7.11984 22 6.27976 22 5.63803 21.673C5.07354 21.3854 4.6146 20.9265 4.32698 20.362C4 19.7202 4 18.8802 4 17.2V6.8C4 5.11984 4 4.27976 4.32698 3.63803C4.6146 3.07354 5.07354 2.6146 5.63803 2.32698C6.27976 2 7.11984 2 8.8 2H15.2C16.8802 2 17.7202 2 18.362 2.32698C18.9265 2.6146 19.3854 3.07354 19.673 3.63803C20 4.27976 20 5.11984 20 6.8ZM9.92 17H14.08C14.7521 17 15.0881 17 15.3448 16.8692C15.5706 16.7542 15.7542 16.5706 15.8692 16.3448C16 16.0881 16 15.7521 16 15.08V12.92C16 12.2479 16 11.9119 15.8692 11.6552C15.7542 11.4294 15.5706 11.2458 15.3448 11.1308C15.0881 11 14.7521 11 14.08 11H9.92C9.24794 11 8.91191 11 8.65521 11.1308C8.42942 11.2458 8.24584 11.4294 8.13079 11.6552C8 11.9119 8 12.2479 8 12.92V15.08C8 15.7521 8 16.0881 8.13079 16.3448C8.24584 16.5706 8.42942 16.7542 8.65521 16.8692C8.91191 17 9.24794 17 9.92 17Z" stroke="currentColor" stroke-width="2" stroke-linecap="round"/>
</svg>
