<svg width="24" height="24" viewBox="0 0 24 24" fill="none" xmlns="http://www.w3.org/2000/svg">
<path d="M14 2.23627V6.5C14 7.32843 14.6716 8 15.5 8H19.8858M12.1329 2H8.8C7.11984 2 6.27976 2 5.63803 2.32698C5.07354 2.6146 4.6146 3.07354 4.32698 3.63803C4 4.27976 4 5.11984 4 6.8V17.2C4 18.8802 4 19.7202 4.32698 20.362C4.6146 20.9265 5.07354 21.3854 5.63803 21.673C6.27976 22 7.11984 22 8.8 22H15.2C16.8802 22 17.7202 22 18.362 21.673C18.9265 21.3854 19.3854 20.9265 19.673 20.362C20 19.7202 20 18.8802 20 17.2V9.61153C20 8.8337 20 8.44479 19.9077 8.0814C19.826 7.75932 19.6912 7.45307 19.5091 7.17515C19.3035 6.86158 19.0169 6.59878 18.4435 6.07319L15.3764 3.26166C14.8675 2.79522 14.6131 2.56199 14.322 2.39559C14.0639 2.24802 13.7853 2.13964 13.4953 2.07401C13.1683 2 12.8232 2 12.1329 2ZM10.3459 18.0255H11.5459C12.3859 18.0255 12.806 18.0255 13.1268 17.862C13.4091 17.7182 13.6386 17.4887 13.7824 17.2065C13.9459 16.8856 13.9459 16.4656 13.9459 15.6255V15.4255C13.9459 14.5854 13.9459 14.1654 13.7824 13.8445C13.6386 13.5623 13.4091 13.3328 13.1268 13.189C12.806 13.0255 12.3859 13.0255 11.5459 13.0255H10.3459C9.50578 13.0255 9.08574 13.0255 8.76487 13.189C8.48263 13.3328 8.25316 13.5623 8.10935 13.8445C7.94586 14.1654 7.94586 14.5854 7.94586 15.4255V15.6255C7.94586 16.4656 7.94586 16.8856 8.10935 17.2065C8.25316 17.4887 8.48263 17.7182 8.76487 17.862C9.08574 18.0255 9.50578 18.0255 10.3459 18.0255ZM14.1803 15.1698L14.7382 14.8111C15.2832 14.4608 16 14.8521 16 15.5C16 16.1479 15.2832 16.5392 14.7382 16.1889L14.1803 15.8302C14.0679 15.7579 14 15.6336 14 15.5C14 15.3664 14.0679 15.2421 14.1803 15.1698Z" stroke="currentColor" stroke-width="2" stroke-linecap="round"/>
</svg>
