<svg width="24" height="24" viewBox="0 0 24 24" fill="none" xmlns="http://www.w3.org/2000/svg">
<path d="M4 6.8C4 5.11984 4 4.27976 4.32698 3.63803C4.6146 3.07354 5.07354 2.6146 5.63803 2.32698C6.27976 2 7.11984 2 8.8 2H15.2C16.8802 2 17.7202 2 18.362 2.32698C18.9265 2.6146 19.3854 3.07354 19.673 3.63803C20 4.27976 20 5.11984 20 6.8V17.2C20 18.8802 20 19.7202 19.673 20.362C19.3854 20.9265 18.9265 21.3854 18.362 21.673C17.7202 22 16.8802 22 15.2 22H8.8C7.11984 22 6.27976 22 5.63803 21.673C5.07354 21.3854 4.6146 20.9265 4.32698 20.362C4 19.7202 4 18.8802 4 17.2V6.8Z" stroke="currentColor" stroke-width="2" stroke-linecap="round"/>
<path d="M9.03174 11.8997V11.7904C9.03174 10.518 9.03174 9.88185 9.29976 9.49597C9.53384 9.15896 9.89576 8.93255 10.3012 8.86949C10.7655 8.79728 11.3375 9.07559 12.4817 9.63219L12.578 9.67906C13.8284 10.2873 14.4535 10.5915 14.6825 11.0271C14.8822 11.4069 14.9097 11.854 14.758 12.2554C14.584 12.7157 14.0007 13.094 12.8341 13.8507L12.7378 13.9132C11.5315 14.6957 10.9283 15.0869 10.4292 15.0527C9.99422 15.0229 9.59377 14.8054 9.33207 14.4567C9.03174 14.0565 9.03174 13.3376 9.03174 11.8997Z" stroke="currentColor" stroke-width="2" stroke-linecap="round"/>
</svg>
