<svg width="24" height="24" viewBox="0 0 24 24" fill="none" xmlns="http://www.w3.org/2000/svg">
<path d="M20 10.5V9.61153C20 8.8337 20 8.44479 19.9077 8.0814C19.9008 8.05415 19.8935 8.02702 19.8858 8M9 22H8.8C7.11984 22 6.27976 22 5.63803 21.673C5.07354 21.3854 4.6146 20.9265 4.32698 20.362C4 19.7202 4 18.8802 4 17.2V6.8C4 5.11984 4 4.27976 4.32698 3.63803C4.6146 3.07354 5.07354 2.6146 5.63803 2.32698C6.27976 2 7.11984 2 8.8 2H12.1329C12.8232 2 13.1683 2 13.4953 2.07401C13.6682 2.11315 13.8371 2.16748 14 2.23627M14 2.23627C14.1103 2.28283 14.2178 2.33602 14.322 2.39559C14.6131 2.56199 14.8675 2.79523 15.3764 3.26166L18.4435 6.07319C19.0169 6.59878 19.3035 6.86158 19.5091 7.17515C19.6758 7.42955 19.8028 7.7077 19.8858 8M14 2.23627V2M14 2.23627V5.6C14 6.44008 14 6.86012 14.1635 7.18099C14.3073 7.46323 14.5368 7.6927 14.819 7.83651C15.1399 8 15.5599 8 16.4 8H19.8858M19.8858 8H20M16.3033 15.1213L17.0104 14.4142C17.3392 14.0854 17.5036 13.921 17.6746 13.8223C18.1387 13.5543 18.7105 13.5543 19.1746 13.8223C19.3456 13.921 19.51 14.0854 19.8388 14.4142C20.1676 14.743 20.332 14.9074 20.4308 15.0784C20.6987 15.5425 20.6987 16.1143 20.4308 16.5784C20.332 16.7494 20.1676 16.9138 19.8388 17.2426L19.1317 17.9497M16.3033 15.1213L13.6351 17.7895C13.4442 17.9805 13.3487 18.076 13.2728 18.1848C13.2054 18.2813 13.1497 18.3855 13.1067 18.4951C13.0583 18.6186 13.0318 18.751 12.9788 19.0159L12.6496 20.6621C12.5709 21.0556 12.5315 21.2523 12.5896 21.3926C12.6403 21.5153 12.7378 21.6127 12.8604 21.6635C13.0008 21.7215 13.1975 21.6822 13.5909 21.6035L15.2372 21.2742C15.502 21.2213 15.6345 21.1948 15.758 21.1463C15.8676 21.1034 15.9717 21.0476 16.0683 20.9803C16.1771 20.9044 16.2726 20.8089 16.4636 20.6179L19.1317 17.9497M16.3033 15.1213L19.1317 17.9497" stroke="currentColor" stroke-width="2" stroke-linecap="round"/>
</svg>
