<svg width="24" height="24" viewBox="0 0 24 24" fill="none" xmlns="http://www.w3.org/2000/svg">
<path d="M12.5 22H8.8C7.11984 22 6.27976 22 5.63803 21.673C5.07354 21.3854 4.6146 20.9265 4.32698 20.362C4 19.7202 4 18.8802 4 17.2V6.8C4 5.11984 4 4.27976 4.32698 3.63803C4.6146 3.07354 5.07354 2.6146 5.63803 2.32698C6.27976 2 7.11984 2 8.8 2H15.2C16.8802 2 17.7202 2 18.362 2.32698C18.9265 2.6146 19.3854 3.07354 19.673 3.63803C20 4.27976 20 5.11984 20 6.8V11M8 7H16M8 11L16 11M8 15H12M17.7756 15.098L16.6533 15.4487C16.229 15.5812 16.0169 15.6475 15.8598 15.7754C15.7211 15.8883 15.6135 16.0347 15.5471 16.2008C15.4719 16.3888 15.4719 16.6111 15.4719 17.0555V17.3635C15.4719 18.1862 15.4719 18.5976 15.5609 18.985C15.6514 19.3793 15.8095 19.7548 16.028 20.0952C16.2429 20.4297 16.537 20.7173 17.1252 21.2925C17.515 21.6736 17.7099 21.8642 17.9314 21.9414C18.1557 22.0196 18.3998 22.0196 18.624 21.9414C18.8456 21.8642 19.0405 21.6736 19.4303 21.2925C20.0185 20.7173 20.3126 20.4297 20.5274 20.0952C20.746 19.7548 20.904 19.3793 20.9945 18.985C21.0835 18.5976 21.0835 18.1862 21.0835 17.3635V17.0555C21.0835 16.6111 21.0835 16.3888 21.0083 16.2008C20.9419 16.0347 20.8343 15.8883 20.6956 15.7754C20.5385 15.6475 20.3264 15.5812 19.9022 15.4487L18.7799 15.098C18.5933 15.0397 18.5001 15.0105 18.4049 14.9989C18.3204 14.9886 18.235 14.9886 18.1506 14.9989C18.0554 15.0105 17.9621 15.0397 17.7756 15.098Z" stroke="currentColor" stroke-width="2" stroke-linecap="round"/>
</svg>
