<svg width="24" height="24" viewBox="0 0 24 24" fill="none" xmlns="http://www.w3.org/2000/svg">
<path d="M5 21L8.52396 15.9098C8.86325 15.4198 9.03289 15.1747 9.25638 15.0603C9.45278 14.9597 9.67692 14.9269 9.89389 14.967C10.1408 15.0126 10.3735 15.1988 10.839 15.5712L11.3821 16.0057C11.5986 16.1789 11.7069 16.2655 11.8235 16.29C11.9261 16.3115 12.0329 16.3002 12.1287 16.2578C12.2377 16.2095 12.3255 16.1022 12.5011 15.8876L15.3804 12.3683C15.7684 11.8942 15.9624 11.6571 16.1997 11.5613C16.4081 11.477 16.6389 11.4655 16.8547 11.5286C17.1004 11.6004 17.317 11.817 17.7502 12.2502L20 14.5M20 6.8V17.2C20 18.8802 20 19.7202 19.673 20.362C19.3854 20.9265 18.9265 21.3854 18.362 21.673C17.7202 22 16.8802 22 15.2 22H8.8C7.11984 22 6.27976 22 5.63803 21.673C5.07354 21.3854 4.6146 20.9265 4.32698 20.362C4 19.7202 4 18.8802 4 17.2V6.8C4 5.11984 4 4.27976 4.32698 3.63803C4.6146 3.07354 5.07354 2.6146 5.63803 2.32698C6.27976 2 7.11984 2 8.8 2H15.2C16.8802 2 17.7202 2 18.362 2.32698C18.9265 2.6146 19.3854 3.07354 19.673 3.63803C20 4.27976 20 5.11984 20 6.8ZM12 8C12 9.10457 11.1046 10 10 10C8.89543 10 8 9.10457 8 8C8 6.89543 8.89543 6 10 6C11.1046 6 12 6.89543 12 8Z" stroke="currentColor" stroke-width="2" stroke-linejoin="round"/>
</svg>
