<svg width="24" height="24" viewBox="0 0 24 24" fill="none" xmlns="http://www.w3.org/2000/svg">
<path d="M13.5 22H8.8C7.11984 22 6.27976 22 5.63803 21.673C5.07354 21.3854 4.6146 20.9265 4.32698 20.362C4 19.7202 4 18.8802 4 17.2V6.8C4 5.11984 4 4.27976 4.32698 3.63803C4.6146 3.07354 5.07354 2.6146 5.63803 2.32698C6.27976 2 7.11984 2 8.8 2H15.2C16.8802 2 17.7202 2 18.362 2.32698C18.9265 2.6146 19.3854 3.07354 19.673 3.63803C20 4.27976 20 5.11984 20 6.8V10M8 7H16M8 11L16 11M8 15H12M15.6796 15.3896C15.8738 14.8375 16.2571 14.372 16.7616 14.0755C17.2661 13.779 17.8593 13.6706 18.4361 13.7696C19.0128 13.8685 19.536 14.1684 19.9129 14.6161C20.2897 15.0638 20.496 15.6304 20.4951 16.2156C20.4951 18.1425 18.0171 18.6936 18.0171 18.6936M18.0492 22H18.0602" stroke="currentColor" stroke-width="2" stroke-linecap="round" stroke-linejoin="round"/>
</svg>
