<svg width="24" height="24" viewBox="0 0 24 24" fill="none" xmlns="http://www.w3.org/2000/svg">
<path d="M12.5 10.75L14.746 10.0013C14.8131 9.97897 14.8466 9.96779 14.8763 9.95572C15.2318 9.81131 15.4734 9.47622 15.4979 9.09329C15.5 9.0613 15.5 9.02596 15.5 8.95527V8.25C15.5 7.42157 14.8284 6.75 14 6.75C13.1716 6.75 12.5 7.42157 12.5 8.25V10.75ZM12.5 10.75V13.75M12.5 13.75V15.25C12.5 16.3546 11.6046 17.25 10.5 17.25H10.25C9.2835 17.25 8.5 16.4665 8.5 15.5C8.5 14.5335 9.2835 13.75 10.25 13.75H12.5ZM20 6.8V17.2C20 18.8802 20 19.7202 19.673 20.362C19.3854 20.9265 18.9265 21.3854 18.362 21.673C17.7202 22 16.8802 22 15.2 22H8.8C7.11984 22 6.27976 22 5.63803 21.673C5.07354 21.3854 4.6146 20.9265 4.32698 20.362C4 19.7202 4 18.8802 4 17.2V6.8C4 5.11984 4 4.27976 4.32698 3.63803C4.6146 3.07354 5.07354 2.6146 5.63803 2.32698C6.27976 2 7.11984 2 8.8 2H15.2C16.8802 2 17.7202 2 18.362 2.32698C18.9265 2.6146 19.3854 3.07354 19.673 3.63803C20 4.27976 20 5.11984 20 6.8Z" stroke="currentColor" stroke-width="2"/>
</svg>
