<svg width="24" height="24" viewBox="0 0 24 24" fill="none" xmlns="http://www.w3.org/2000/svg">
<g clip-path="url(#clip0_217_9112)">
<path d="M2.0599 17.1185L12.0592 16.9996M12.0592 16.9996L22.0585 16.8807M12.0592 16.9996L11.9403 7.00033M1.94099 7.11924L11.9403 7.00033M11.9403 7.00033L21.9396 6.88143M7.10711 21.0588L7.07143 18.059M6.92875 6.05986L6.89307 3.06007M17.1064 20.9399L17.0707 17.9401M16.928 5.94095L16.8924 2.94116M12.1068 20.9993L12.0711 17.9996M11.9284 6.0004L11.8927 3.00062M22.0823 18.8806L21.9158 4.88157C21.8961 3.22483 20.5371 1.89775 18.8803 1.91745L4.88132 2.08392C3.22459 2.10362 1.89751 3.46264 1.91721 5.11938L2.08368 19.1184C2.10338 20.7751 3.4624 22.1022 5.11914 22.0825L19.1181 21.916C20.7749 21.8963 22.102 20.5373 22.0823 18.8806Z" stroke="currentColor" stroke-width="2" stroke-linecap="round" stroke-linejoin="round"/>
</g>
<defs>
<clipPath id="clip0_217_9112">
<rect width="24" height="24" fill="white"/>
</clipPath>
</defs>
</svg>
