<svg width="24" height="24" viewBox="0 0 24 24" fill="none" xmlns="http://www.w3.org/2000/svg">
<path d="M2 6.0519C2 5.07126 2 4.58095 2.16822 4.19714C2.36984 3.73714 2.73714 3.36984 3.19714 3.16822C3.58095 3 4.07126 3 5.0519 3H18.9481C19.9287 3 20.4191 3 20.8029 3.16822C21.2629 3.36984 21.6302 3.73714 21.8318 4.19714C22 4.58095 22 5.07126 22 6.0519V6.0519C22 6.37339 22 6.53414 21.9681 6.68629C21.9298 6.86902 21.8578 7.043 21.7556 7.19928C21.6706 7.32941 21.5569 7.44308 21.3296 7.67041L15.7029 13.2971C15.4435 13.5565 15.3138 13.6862 15.221 13.8376C15.1388 13.9718 15.0782 14.1181 15.0414 14.2712C15 14.4438 15 14.6272 15 14.9941V16.0948C15 17.112 15 17.6205 14.8535 18.072C14.7047 18.5303 14.4478 18.946 14.1045 19.284C13.7662 19.6169 13.3113 19.8444 12.4015 20.2993V20.2993C11.3158 20.8421 10.7729 21.1136 10.3308 21.0634C9.88586 21.0129 9.48675 20.7662 9.24258 20.3908C9 20.0179 9 19.4109 9 18.197V14.9941C9 14.6272 9 14.4438 8.95855 14.2712C8.92181 14.1181 8.8612 13.9718 8.77896 13.8376C8.6862 13.6862 8.55648 13.5565 8.29706 13.2971L2.67041 7.67041C2.44308 7.44308 2.32941 7.32941 2.24437 7.19928C2.14223 7.043 2.07017 6.86902 2.03188 6.68629C2 6.53414 2 6.37339 2 6.0519V6.0519Z" stroke="currentColor" stroke-width="2" stroke-linecap="round" stroke-linejoin="round"/>
</svg>
