<svg width="24" height="24" viewBox="0 0 24 24" fill="none" xmlns="http://www.w3.org/2000/svg">
<path d="M7.14644 17.185C7.15998 17.1616 7.17385 17.1384 7.18806 17.1152C7.49882 16.6083 7.77032 16.0737 7.99815 15.5155M13.1665 19C13.6342 18.042 14.0177 17.0332 14.307 15.9843M14.7857 13.6305C14.8882 12.8605 14.9411 12.0747 14.9411 11.2768C14.9411 9.54348 13.5716 8.13838 11.8823 8.13838C10.1929 8.13838 8.82346 9.54348 8.82346 11.2768C8.82346 11.81 8.78661 12.3339 8.7154 12.8459M17.2427 16.8724C17.7359 15.0943 18 13.2172 18 11.2768C18 10.0878 17.6778 8.97597 17.118 8.02831M5 14.7008C5.48992 13.6661 5.76471 12.5044 5.76471 11.2768C5.76471 10.1335 6.06262 9.0616 6.58314 8.13838M8.82353 5.83972C9.72335 5.30566 10.7681 5 11.8824 5C12.9966 5 14.0413 5.30564 14.9411 5.83968M11.8823 11.2768C11.8823 14.0363 11.1108 16.611 9.77717 18.7863M16.4444 2H17.2C18.8802 2 19.7202 2 20.362 2.32698C20.9265 2.6146 21.3854 3.07354 21.673 3.63803C22 4.27976 22 5.11984 22 6.8V7.55556M7.55556 2H6.8C5.11984 2 4.27976 2 3.63803 2.32698C3.07354 2.6146 2.6146 3.07354 2.32698 3.63803C2 4.27976 2 5.11984 2 6.8V7.55556M2 16.4444V17.2C2 18.8802 2 19.7202 2.32698 20.362C2.6146 20.9265 3.07354 21.3854 3.63803 21.673C4.27976 22 5.11984 22 6.8 22H7.55556M16.4444 22H17.2C18.8802 22 19.7202 22 20.362 21.673C20.9265 21.3854 21.3854 20.9265 21.673 20.362C22 19.7202 22 18.8802 22 17.2V16.4444" stroke="currentColor" stroke-width="2" stroke-linecap="round" stroke-linejoin="round"/>
</svg>
