<svg width="24" height="24" viewBox="0 0 24 24" fill="none" xmlns="http://www.w3.org/2000/svg">
<path d="M5.80688 18.5304C5.82459 18.5005 5.84273 18.4709 5.8613 18.4413C6.26769 17.7953 6.62273 17.1139 6.92066 16.4024M13.6792 20.8436C14.2909 19.6226 14.7924 18.3369 15.1707 17M15.7966 14C15.9307 13.0186 15.9999 12.017 15.9999 11C15.9999 8.79086 14.209 7 11.9999 7C9.79077 7 7.99991 8.79086 7.99991 11C7.99991 11.6797 7.95172 12.3473 7.8586 13M19.0097 18.132C19.6547 15.8657 20 13.4732 20 11C20 9.48457 19.5786 8.06755 18.8467 6.85971M3 15.3641C3.64066 14.0454 4 12.5646 4 11C4 9.54285 4.38958 8.17669 5.07026 7M8 4.07026C9.17669 3.38958 10.5429 3 12 3C13.4571 3 14.8232 3.38956 15.9999 4.0702M11.9999 11C11.9999 14.5172 10.9911 17.7988 9.24707 20.5712" stroke="currentColor" stroke-width="2" stroke-linecap="round" stroke-linejoin="round"/>
</svg>
