<svg width="24" height="24" viewBox="0 0 24 24" fill="none" xmlns="http://www.w3.org/2000/svg">
<path d="M4 21V2.50806M4 4.5V14.5C4 14.5 6 13.5 9 13.5C11.3431 13.5 12.6569 15 15 15C16.755 15 18.0072 14.7486 18.8195 14.4978C19.0859 14.4156 19.2191 14.3745 19.4441 14.1922C19.5974 14.0681 19.8188 13.768 19.8922 13.585C20 13.3162 20 13.116 20 12.7156V5.49481C20 4.95537 20 4.68565 19.9253 4.56478C19.8484 4.44044 19.778 4.38722 19.6375 4.34703C19.5008 4.30796 19.2067 4.39105 18.6184 4.55725C17.8059 4.78678 16.6162 5 15 5C12.6569 5 11.3431 3.5 9 3.5C6 3.5 4 4.5 4 4.5Z" stroke="currentColor" stroke-width="2" stroke-linecap="round" stroke-linejoin="round"/>
</svg>
