<svg width="24" height="24" viewBox="0 0 24 24" fill="none" xmlns="http://www.w3.org/2000/svg">
<path d="M22 12V12.4C22 15.7603 22 17.4405 21.346 18.7239C20.7708 19.8529 19.8529 20.7708 18.7239 21.346C17.4405 22 15.7603 22 12.4 22H12M8 19L12.9633 12.0991C13.7293 11.0341 14.1123 10.5016 14.6012 10.2813C15.0301 10.088 15.5134 10.0521 15.9662 10.18C16.4823 10.3257 16.9397 10.7957 17.8546 11.7359L19 12.913M7.8 19H14.2C15.8802 19 16.7202 19 17.362 18.673C17.9265 18.3854 18.3854 17.9265 18.673 17.362C19 16.7202 19 15.8802 19 14.2V7.8C19 6.11984 19 5.27976 18.673 4.63803C18.3854 4.07354 17.9265 3.6146 17.362 3.32698C16.7202 3 15.8802 3 14.2 3H7.8C6.11984 3 5.27976 3 4.63803 3.32698C4.07354 3.6146 3.6146 4.07354 3.32698 4.63803C3 5.27976 3 6.11984 3 7.8V14.2C3 15.8802 3 16.7202 3.32698 17.362C3.6146 17.9265 4.07354 18.3854 4.63803 18.673C5.27976 19 6.11984 19 7.8 19ZM11 9C11 10.1046 10.1046 11 9 11C7.89543 11 7 10.1046 7 9C7 7.89543 7.89543 7 9 7C10.1046 7 11 7.89543 11 9Z" stroke="currentColor" stroke-width="2" stroke-linecap="round" stroke-linejoin="round"/>
</svg>
