<svg width="24" height="24" viewBox="0 0 24 24" fill="none" xmlns="http://www.w3.org/2000/svg">
<path d="M13 14.5L14.7666 12.2918C15.5396 11.3255 15.9261 10.8424 16.4025 10.6457C16.8209 10.4729 17.2855 10.4472 17.7204 10.5727C18.2156 10.7156 18.6531 11.1531 19.5281 12.0281L21 13.5M3.99999 20L7.84906 14.8679C8.5933 13.8756 8.96542 13.3794 9.43638 13.1679C9.84999 12.9822 10.3144 12.9425 10.7536 13.0554C11.2536 13.1839 11.7045 13.6098 12.6063 14.4615L19 20.5M7.8 21H16.2C17.8802 21 18.7202 21 19.362 20.673C19.9265 20.3854 20.3854 19.9265 20.673 19.362C21 18.7202 21 17.8802 21 16.2V7.8C21 6.11984 21 5.27976 20.673 4.63803C20.3854 4.07354 19.9265 3.6146 19.362 3.32698C18.7202 3 17.8802 3 16.2 3H7.8C6.11984 3 5.27976 3 4.63803 3.32698C4.07354 3.6146 3.6146 4.07354 3.32698 4.63803C3 5.27976 3 6.11984 3 7.8V16.2C3 17.8802 3 18.7202 3.32698 19.362C3.6146 19.9265 4.07354 20.3854 4.63803 20.673C5.27976 21 6.11984 21 7.8 21ZM10.2371 8.27659C10.2371 9.38116 9.34165 10.2766 8.23708 10.2766C7.13251 10.2766 6.23708 9.38116 6.23708 8.27659C6.23708 7.17202 7.13251 6.27659 8.23708 6.27659C9.34165 6.27659 10.2371 7.17202 10.2371 8.27659Z" stroke="currentColor" stroke-width="2" stroke-linecap="round" stroke-linejoin="round"/>
</svg>
