<svg width="24" height="24" viewBox="0 0 24 24" fill="none" xmlns="http://www.w3.org/2000/svg">
<path d="M1.99989 22H21.9999M20.5271 13.1698L6.52114 16.9227C4.92075 17.3515 3.27573 16.4018 2.84691 14.8014L1.75096 10.7112C1.57005 10.0361 1.97071 9.34214 2.64585 9.16123C3.08453 9.04369 3.55256 9.17022 3.87226 9.49278L6.19297 11.8343L10.497 10.681L7.8592 3.88325C7.51899 3.00653 8.01507 2.02854 8.92343 1.78514C9.56296 1.61378 10.2415 1.85925 10.6234 2.40012L15.5198 9.33514L19.233 8.34019C20.5666 7.98284 21.9375 8.7743 22.2948 10.108C22.6522 11.4416 21.8607 12.8125 20.5271 13.1698Z" stroke="currentColor" stroke-width="2" stroke-linecap="round" stroke-linejoin="round"/>
</svg>
