<svg width="24" height="24" viewBox="0 0 24 24" fill="none" xmlns="http://www.w3.org/2000/svg">
<path d="M9.52291 12.9137L9.49991 17.5L6.86068 19.0513C6.59967 19.2048 6.46914 19.2815 6.36674 19.3803C6.20233 19.5389 6.08661 19.7411 6.03319 19.9632C5.99991 20.1016 5.99991 20.253 5.99991 20.5558C5.99991 21.115 5.99991 21.3946 6.08607 21.6095C6.22486 21.9558 6.51677 22.2178 6.87593 22.3185C7.09889 22.381 7.37689 22.3509 7.93285 22.2907L11.9999 21.8503L16.067 22.2907C16.6229 22.3509 16.9009 22.381 17.1239 22.3185C17.4831 22.2178 17.775 21.9558 17.9138 21.6095C17.9999 21.3946 17.9999 21.115 17.9999 20.5558C17.9999 20.253 17.9999 20.1016 17.9666 19.9632C17.9132 19.7411 17.7975 19.5389 17.6331 19.3803C17.5307 19.2815 17.4001 19.2048 17.1391 19.0513L14.4999 17.5L14.5229 12.9137L19.9413 15.0878C20.9269 15.4832 21.9999 14.7575 21.9999 13.6957V12.7617C21.9999 12.2355 21.7242 11.7478 21.2734 11.4765L14.5229 7.41374V4.5C14.5229 3.11929 13.4036 2 12.0229 2C10.6422 2 9.52291 3.11929 9.52291 4.5L9.52291 7.41374L2.77241 11.4765C2.32159 11.7478 2.0459 12.2355 2.0459 12.7617V13.6957C2.0459 14.7575 3.11895 15.4832 4.10446 15.0878L9.52291 12.9137Z" stroke="currentColor" stroke-width="2" stroke-linecap="round" stroke-linejoin="round"/>
</svg>
