<svg width="24" height="24" viewBox="0 0 24 24" fill="none" xmlns="http://www.w3.org/2000/svg">
<path d="M2 22H22M18.7301 17.6534L6.37135 14.7291C4.73634 14.3422 3.91884 14.1487 3.36964 13.6828C2.88655 13.2729 2.54562 12.7206 2.39571 12.1051C2.22528 11.4053 2.41872 10.5878 2.8056 8.95278L3.36616 6.58377C3.52711 5.9036 4.20896 5.48268 4.88913 5.64362C5.33108 5.7482 5.68312 6.08157 5.81159 6.51717L6.74417 9.67921L11.0803 10.7052L11.9821 3.46962C12.0984 2.53644 12.999 1.91071 13.9141 2.12726C14.5584 2.27971 15.0393 2.81764 15.119 3.47492L16.1405 11.9026L19.8814 12.7878C21.225 13.1057 22.0565 14.4526 21.7386 15.7963C21.4206 17.1399 20.0737 17.9713 18.7301 17.6534Z" stroke="currentColor" stroke-width="2" stroke-linecap="round" stroke-linejoin="round"/>
</svg>
