<svg width="24" height="24" viewBox="0 0 24 24" fill="none" xmlns="http://www.w3.org/2000/svg">
<path d="M19.4933 18.6898L20.1537 18.0293C20.5257 17.6573 20.6757 17.1175 20.5487 16.6068L18.6482 8.96073L20.7085 6.90041C21.6849 5.92409 21.6849 4.34118 20.7085 3.36487C19.7322 2.38856 18.1493 2.38856 17.173 3.36487L15.1127 5.4252L7.46656 3.52467C6.95593 3.39775 6.41613 3.54766 6.04407 3.91972L5.38365 4.58014M11.4999 16.0765L12.2691 19.0397C12.3452 19.3327 12.3833 19.4793 12.3858 19.6216C12.3899 19.85 12.3287 20.0748 12.2095 20.2697C12.1352 20.391 12.0281 20.4981 11.814 20.7122C11.4186 21.1076 11.2209 21.3053 11.008 21.3964C10.665 21.543 10.2733 21.5219 9.94815 21.3391C9.74629 21.2257 9.571 21.0078 9.22045 20.5721L6.65602 17.3849L3.46875 14.8204C3.03306 14.4699 2.8152 14.2946 2.70175 14.0927C2.51899 13.7676 2.49785 13.3759 2.64453 13.0329C2.73559 12.82 2.93331 12.6223 3.32874 12.2269C3.54282 12.0128 3.64988 11.9057 3.77124 11.8314C3.96607 11.7122 4.1909 11.651 4.41931 11.6551C4.56158 11.6576 4.70813 11.6957 5.00118 11.7717L7.96436 12.541M16.0788 15.986L14.7591 12.8498M8.123 7.98934L11.2236 9.31428M2 2L22 22" stroke="currentColor" stroke-width="2" stroke-linecap="round" stroke-linejoin="round"/>
</svg>
