<svg width="24" height="24" viewBox="0 0 24 24" fill="none" xmlns="http://www.w3.org/2000/svg">
<path d="M5 6.55556H17.92C19.3481 6.55556 20.0622 6.55556 20.6077 6.8462C21.0875 7.10187 21.4776 7.50982 21.7221 8.01158C22 8.58201 22 9.32875 22 10.8222V14.7333C22 16.2268 22 16.9735 21.7221 17.544C21.4776 18.0457 21.0875 18.4537 20.6077 18.7094C20.0622 19 19.3481 19 17.92 19H9.08C7.65187 19 6.9378 19 6.39232 18.7094C5.91251 18.4537 5.52241 18.0457 5.27793 17.544C5 16.9735 5 16.2268 5 14.7333V6.55556ZM5 6.55556H16.05L15.1235 5.00534C14.686 4.27334 14.4673 3.90734 14.171 3.64183C13.9088 3.40684 13.6037 3.22999 13.2742 3.122C12.9018 3 12.4891 3 11.6637 3H7.72C6.76791 3 6.29187 3 5.92822 3.19377C5.60834 3.36421 5.34827 3.63617 5.18529 3.97068C5 4.35097 5 4.8488 5 5.84444V6.55556ZM2 13V14C2 16.8003 2 18.2004 2.54497 19.27C3.02433 20.2108 3.78924 20.9757 4.73005 21.455C5.79961 22 7.19974 22 10 22H11" stroke="currentColor" stroke-width="2" stroke-linecap="round"/>
</svg>
