<svg width="24" height="24" viewBox="0 0 24 24" fill="none" xmlns="http://www.w3.org/2000/svg">
<path d="M3.63803 20.673L3.18404 21.564L3.63803 20.673ZM2.32698 19.362L1.43597 19.816L2.32698 19.362ZM21.673 19.362L22.564 19.816L21.673 19.362ZM20.362 20.673L20.816 21.564L20.362 20.673ZM20.362 7.32698L20.816 6.43597L20.362 7.32698ZM21.673 8.63803L22.564 8.18404L21.673 8.63803ZM15 7V8C15.3635 8 15.6984 7.80272 15.8746 7.48477C16.0509 7.16681 16.0407 6.77827 15.848 6.47L15 7ZM11.7343 3.13725L11.4353 4.0915L11.7343 3.13725ZM13.91 5.25601L13.062 5.786L13.91 5.25601ZM12.7894 3.72206L12.1387 4.48137L12.7894 3.72206ZM3.09202 3.21799L3.54601 4.10899L3.09202 3.21799ZM2.21799 4.09202L3.10899 4.54601L2.21799 4.09202ZM11.9973 11.4999L11.2465 12.1604C11.4363 12.3762 11.7098 12.4999 11.9973 12.4999C12.2847 12.4999 12.5582 12.3762 12.748 12.1604L11.9973 11.4999ZM11.9973 17.6693L11.3498 18.4314C11.7232 18.7486 12.2713 18.7486 12.6447 18.4314L11.9973 17.6693ZM2 8H17.2V6H2V8ZM21 11.8V16.2H23V11.8H21ZM17.2 20H6.8V22H17.2V20ZM3 16.2V7H1V16.2H3ZM6.8 20C5.94342 20 5.36113 19.9992 4.91104 19.9624C4.47262 19.9266 4.24842 19.8617 4.09202 19.782L3.18404 21.564C3.66937 21.8113 4.18608 21.9099 4.74817 21.9558C5.2986 22.0008 5.97642 22 6.8 22V20ZM1 16.2C1 17.0236 0.999222 17.7014 1.04419 18.2518C1.09012 18.8139 1.18868 19.3306 1.43597 19.816L3.21799 18.908C3.1383 18.7516 3.07337 18.5274 3.03755 18.089C3.00078 17.6389 3 17.0566 3 16.2H1ZM4.09202 19.782C3.7157 19.5903 3.40973 19.2843 3.21799 18.908L1.43597 19.816C1.81947 20.5686 2.43139 21.1805 3.18404 21.564L4.09202 19.782ZM21 16.2C21 17.0566 20.9992 17.6389 20.9624 18.089C20.9266 18.5274 20.8617 18.7516 20.782 18.908L22.564 19.816C22.8113 19.3306 22.9099 18.8139 22.9558 18.2518C23.0008 17.7014 23 17.0236 23 16.2H21ZM17.2 22C18.0236 22 18.7014 22.0008 19.2518 21.9558C19.8139 21.9099 20.3306 21.8113 20.816 21.564L19.908 19.782C19.7516 19.8617 19.5274 19.9266 19.089 19.9624C18.6389 19.9992 18.0566 20 17.2 20V22ZM20.782 18.908C20.5903 19.2843 20.2843 19.5903 19.908 19.782L20.816 21.564C21.5686 21.1805 22.1805 20.5686 22.564 19.816L20.782 18.908ZM17.2 8C18.0566 8 18.6389 8.00078 19.089 8.03755C19.5274 8.07337 19.7516 8.1383 19.908 8.21799L20.816 6.43597C20.3306 6.18868 19.8139 6.09012 19.2518 6.04419C18.7014 5.99922 18.0236 6 17.2 6V8ZM23 11.8C23 10.9764 23.0008 10.2986 22.9558 9.74817C22.9099 9.18608 22.8113 8.66937 22.564 8.18404L20.782 9.09202C20.8617 9.24842 20.9266 9.47262 20.9624 9.91104C20.9992 10.3611 21 10.9434 21 11.8H23ZM19.908 8.21799C20.2843 8.40973 20.5903 8.7157 20.782 9.09202L22.564 8.18404C22.1805 7.43139 21.5686 6.81947 20.816 6.43597L19.908 8.21799ZM5.2 4H9.83961V2H5.2V4ZM13.062 5.786L14.152 7.53L15.848 6.47L14.758 4.72601L13.062 5.786ZM15 6H2V8H15V6ZM3 7V6.2H1V7H3ZM9.83961 4C10.8753 4 11.1778 4.01083 11.4353 4.0915L12.0333 2.183C11.4147 1.98917 10.7461 2 9.83961 2V4ZM14.758 4.72601C14.2776 3.95729 13.9324 3.38457 13.4402 2.96274L12.1387 4.48137C12.3436 4.65694 12.5131 4.90772 13.062 5.786L14.758 4.72601ZM11.4353 4.0915C11.6937 4.17249 11.933 4.30513 12.1387 4.48137L13.4402 2.96274C13.0288 2.61025 12.5502 2.34498 12.0333 2.183L11.4353 4.0915ZM5.2 2C4.65645 2 4.18864 1.99922 3.80497 2.03057C3.40963 2.06287 3.01641 2.13419 2.63803 2.32698L3.54601 4.10899C3.59545 4.0838 3.69617 4.04612 3.96784 4.02393C4.25117 4.00078 4.62345 4 5.2 4V2ZM3 6.2C3 5.62345 3.00078 5.25117 3.02393 4.96784C3.04612 4.69617 3.0838 4.59545 3.10899 4.54601L1.32698 3.63803C1.13419 4.01641 1.06287 4.40963 1.03057 4.80497C0.999222 5.18864 1 5.65645 1 6.2H3ZM2.63803 2.32698C2.07354 2.6146 1.6146 3.07354 1.32698 3.63803L3.10899 4.54601C3.20487 4.35785 3.35785 4.20487 3.54601 4.10899L2.63803 2.32698ZM12.748 10.8393C11.651 9.59244 9.708 9.17586 8.2229 10.4095L9.50086 11.948C10.0198 11.5169 10.744 11.5893 11.2465 12.1604L12.748 10.8393ZM8.2229 10.4095C6.8104 11.5829 6.5904 13.5927 7.72455 15.0116L9.2868 13.7628C8.84718 13.2129 8.90932 12.4393 9.50086 11.948L8.2229 10.4095ZM16.27 15.0116C17.3949 13.6042 17.2151 11.5758 15.7612 10.4009L14.5041 11.9565C15.0887 12.4289 15.1565 13.2014 14.7077 13.7628L16.27 15.0116ZM15.7612 10.4009C14.2692 9.19539 12.3509 9.58404 11.2465 10.8393L12.748 12.1604C13.2431 11.5977 13.9576 11.5149 14.5041 11.9565L15.7612 10.4009ZM7.72455 15.0116C8.17882 15.5799 9.11759 16.4563 9.87739 17.1405C10.2704 17.4944 10.6379 17.8166 10.9068 18.0501C11.0414 18.1669 11.1517 18.2618 11.2285 18.3277C11.2669 18.3606 11.297 18.3863 11.3176 18.4039C11.3279 18.4127 11.3358 18.4195 11.3412 18.4241C11.3439 18.4264 11.346 18.4282 11.3475 18.4294C11.3482 18.43 11.3487 18.4305 11.3491 18.4308C11.3493 18.431 11.3495 18.4311 11.3496 18.4312C11.3497 18.4313 11.3497 18.4313 11.3498 18.4313C11.3498 18.4314 11.3498 18.4314 11.9973 17.6693C12.6447 16.9072 12.6447 16.9072 12.6447 16.9072C12.6447 16.9072 12.6447 16.9072 12.6447 16.9071C12.6446 16.9071 12.6445 16.907 12.6444 16.9069C12.6441 16.9067 12.6437 16.9063 12.6431 16.9058C12.642 16.9049 12.6402 16.9033 12.6377 16.9012C12.6329 16.8971 12.6255 16.8908 12.6158 16.8826C12.5964 16.866 12.5676 16.8414 12.5305 16.8096C12.4564 16.746 12.3491 16.6537 12.2179 16.5397C11.9551 16.3117 11.5972 15.9979 11.2157 15.6543C10.4265 14.9436 9.61943 14.179 9.2868 13.7628L7.72455 15.0116ZM11.9973 17.6693C12.6447 18.4314 12.6447 18.4314 12.6448 18.4313C12.6448 18.4313 12.6449 18.4313 12.6449 18.4312C12.645 18.4311 12.6452 18.431 12.6454 18.4308C12.6458 18.4305 12.6463 18.43 12.6471 18.4294C12.6485 18.4282 12.6506 18.4264 12.6533 18.4241C12.6587 18.4195 12.6667 18.4127 12.677 18.4039C12.6976 18.3863 12.7276 18.3606 12.766 18.3277C12.8428 18.2618 12.9531 18.1669 13.0877 18.0501C13.3567 17.8166 13.7241 17.4944 14.1171 17.1405C14.8769 16.4563 15.8157 15.5799 16.27 15.0116L14.7077 13.7628C14.3751 14.179 13.5681 14.9436 12.7788 15.6543C12.3973 15.9979 12.0394 16.3117 11.7766 16.5397C11.6454 16.6537 11.5382 16.746 11.464 16.8096C11.4269 16.8414 11.3981 16.866 11.3787 16.8826C11.369 16.8908 11.3616 16.8971 11.3568 16.9012C11.3544 16.9033 11.3526 16.9049 11.3514 16.9058C11.3508 16.9063 11.3504 16.9067 11.3501 16.9069C11.35 16.907 11.3499 16.9071 11.3499 16.9071C11.3498 16.9072 11.3498 16.9072 11.3498 16.9072C11.3498 16.9072 11.3498 16.9072 11.9973 17.6693Z" fill="currentColor"/>
</svg>
