<svg width="24" height="24" viewBox="0 0 24 24" fill="none" xmlns="http://www.w3.org/2000/svg">
<path d="M2 7H17.2C18.8802 7 19.7202 7 20.362 7.32698C20.9265 7.6146 21.3854 8.07354 21.673 8.63803C22 9.27976 22 10.1198 22 11.8V16.2C22 17.8802 22 18.7202 21.673 19.362C21.3854 19.9265 20.9265 20.3854 20.362 20.673C19.7202 21 18.8802 21 17.2 21H6.8C5.11984 21 4.27976 21 3.63803 20.673C3.07354 20.3854 2.6146 19.9265 2.32698 19.362C2 18.7202 2 17.8802 2 16.2V7ZM2 7H15L13.91 5.25601C13.3953 4.4325 13.138 4.02075 12.7894 3.72206C12.4809 3.45769 12.122 3.25873 11.7343 3.13725C11.2963 3 10.8107 3 9.83961 3H5.2C4.07989 3 3.51984 3 3.09202 3.21799C2.71569 3.40973 2.40973 3.71569 2.21799 4.09202C2 4.51984 2 5.07989 2 6.2V7ZM11.4979 10.8086L10.3755 11.1593C9.9513 11.2919 9.73919 11.3582 9.5821 11.486C9.44341 11.599 9.33579 11.7453 9.26939 11.9114C9.19419 12.0995 9.19419 12.3217 9.19419 12.7662V13.0742C9.19419 13.8969 9.19419 14.3082 9.28318 14.6957C9.37371 15.0899 9.53175 15.4655 9.75031 15.8058C9.96514 16.1403 10.2592 16.4279 10.8475 17.0031C11.2372 17.3842 11.4321 17.5748 11.6537 17.652C11.8779 17.7302 12.1221 17.7302 12.3463 17.652C12.5679 17.5748 12.7628 17.3842 13.1525 17.0031C13.7408 16.4279 14.0349 16.1403 14.2497 15.8058C14.4682 15.4655 14.6263 15.0899 14.7168 14.6957C14.8058 14.3082 14.8058 13.8969 14.8058 13.0742V12.7662C14.8058 12.3217 14.8058 12.0995 14.7306 11.9114C14.6642 11.7453 14.5566 11.599 14.4179 11.486C14.2608 11.3582 14.0487 11.2919 13.6245 11.1593L12.5021 10.8086C12.3156 10.7503 12.2223 10.7211 12.1272 10.7096C12.0427 10.6993 11.9573 10.6993 11.8728 10.7096C11.7777 10.7211 11.6844 10.7503 11.4979 10.8086Z" stroke="currentColor" stroke-width="2" stroke-linecap="round"/>
</svg>
