<svg width="24" height="24" viewBox="0 0 24 24" fill="none" xmlns="http://www.w3.org/2000/svg">
<path d="M3.63803 20.673L3.18404 21.564L3.63803 20.673ZM2.32698 19.362L1.43597 19.816L2.32698 19.362ZM21.673 19.362L22.564 19.816L21.673 19.362ZM20.362 20.673L20.816 21.564L20.362 20.673ZM20.362 7.32698L20.816 6.43597L20.362 7.32698ZM21.673 8.63803L22.564 8.18404L21.673 8.63803ZM15 7V8C15.3635 8 15.6984 7.80272 15.8746 7.48477C16.0509 7.16681 16.0407 6.77827 15.848 6.47L15 7ZM11.7343 3.13725L11.4353 4.0915L11.7343 3.13725ZM13.91 5.25601L13.062 5.786L13.91 5.25601ZM12.7894 3.72206L12.1387 4.48137L12.7894 3.72206ZM3.09202 3.21799L3.54601 4.10899L3.09202 3.21799ZM2.21799 4.09202L3.10899 4.54601L2.21799 4.09202ZM8.87204 11.407C8.68877 11.928 8.96255 12.4989 9.48353 12.6821C10.0045 12.8654 10.5754 12.5916 10.7587 12.0707L8.87204 11.407ZM14.1846 12.4882L13.1846 12.4868V12.4882H14.1846ZM11.7192 13.7604C11.1801 13.8803 10.8403 14.4145 10.9601 14.9537C11.08 15.4928 11.6143 15.8326 12.1534 15.7127L11.7192 13.7604ZM11.9654 16.7366C11.4131 16.7366 10.9654 17.1843 10.9654 17.7366C10.9654 18.2889 11.4131 18.7366 11.9654 18.7366V16.7366ZM11.9754 18.7366C12.5277 18.7366 12.9754 18.2889 12.9754 17.7366C12.9754 17.1843 12.5277 16.7366 11.9754 16.7366V18.7366ZM2 8H17.2V6H2V8ZM21 11.8V16.2H23V11.8H21ZM17.2 20H6.8V22H17.2V20ZM3 16.2V7H1V16.2H3ZM6.8 20C5.94342 20 5.36113 19.9992 4.91104 19.9624C4.47262 19.9266 4.24842 19.8617 4.09202 19.782L3.18404 21.564C3.66937 21.8113 4.18608 21.9099 4.74817 21.9558C5.2986 22.0008 5.97642 22 6.8 22V20ZM1 16.2C1 17.0236 0.999222 17.7014 1.04419 18.2518C1.09012 18.8139 1.18868 19.3306 1.43597 19.816L3.21799 18.908C3.1383 18.7516 3.07337 18.5274 3.03755 18.089C3.00078 17.6389 3 17.0566 3 16.2H1ZM4.09202 19.782C3.7157 19.5903 3.40973 19.2843 3.21799 18.908L1.43597 19.816C1.81947 20.5686 2.43139 21.1805 3.18404 21.564L4.09202 19.782ZM21 16.2C21 17.0566 20.9992 17.6389 20.9624 18.089C20.9266 18.5274 20.8617 18.7516 20.782 18.908L22.564 19.816C22.8113 19.3306 22.9099 18.8139 22.9558 18.2518C23.0008 17.7014 23 17.0236 23 16.2H21ZM17.2 22C18.0236 22 18.7014 22.0008 19.2518 21.9558C19.8139 21.9099 20.3306 21.8113 20.816 21.564L19.908 19.782C19.7516 19.8617 19.5274 19.9266 19.089 19.9624C18.6389 19.9992 18.0566 20 17.2 20V22ZM20.782 18.908C20.5903 19.2843 20.2843 19.5903 19.908 19.782L20.816 21.564C21.5686 21.1805 22.1805 20.5686 22.564 19.816L20.782 18.908ZM17.2 8C18.0566 8 18.6389 8.00078 19.089 8.03755C19.5274 8.07337 19.7516 8.1383 19.908 8.21799L20.816 6.43597C20.3306 6.18868 19.8139 6.09012 19.2518 6.04419C18.7014 5.99922 18.0236 6 17.2 6V8ZM23 11.8C23 10.9764 23.0008 10.2986 22.9558 9.74817C22.9099 9.18608 22.8113 8.66937 22.564 8.18404L20.782 9.09202C20.8617 9.24842 20.9266 9.47262 20.9624 9.91104C20.9992 10.3611 21 10.9434 21 11.8H23ZM19.908 8.21799C20.2843 8.40973 20.5903 8.7157 20.782 9.09202L22.564 8.18404C22.1805 7.43139 21.5686 6.81947 20.816 6.43597L19.908 8.21799ZM5.2 4H9.83961V2H5.2V4ZM13.062 5.786L14.152 7.53L15.848 6.47L14.758 4.72601L13.062 5.786ZM15 6H2V8H15V6ZM3 7V6.2H1V7H3ZM9.83961 4C10.8753 4 11.1778 4.01083 11.4353 4.0915L12.0333 2.183C11.4147 1.98917 10.7461 2 9.83961 2V4ZM14.758 4.72601C14.2776 3.95729 13.9324 3.38457 13.4402 2.96274L12.1387 4.48137C12.3436 4.65694 12.5131 4.90772 13.062 5.786L14.758 4.72601ZM11.4353 4.0915C11.6937 4.17249 11.933 4.30513 12.1387 4.48137L13.4402 2.96274C13.0288 2.61025 12.5502 2.34498 12.0333 2.183L11.4353 4.0915ZM5.2 2C4.65645 2 4.18864 1.99922 3.80497 2.03057C3.40963 2.06287 3.01641 2.13419 2.63803 2.32698L3.54601 4.10899C3.59545 4.0838 3.69617 4.04612 3.96784 4.02393C4.25117 4.00078 4.62345 4 5.2 4V2ZM3 6.2C3 5.62345 3.00078 5.25117 3.02393 4.96784C3.04612 4.69617 3.0838 4.59545 3.10899 4.54601L1.32698 3.63803C1.13419 4.01641 1.06287 4.40963 1.03057 4.80497C0.999222 5.18864 1 5.65645 1 6.2H3ZM2.63803 2.32698C2.07354 2.6146 1.6146 3.07354 1.32698 3.63803L3.10899 4.54601C3.20487 4.35785 3.35785 4.20487 3.54601 4.10899L2.63803 2.32698ZM10.7587 12.0707C10.8565 11.7926 11.0496 11.5581 11.3038 11.4087L10.2904 9.68442C9.62907 10.0731 9.12661 10.6833 8.87204 11.407L10.7587 12.0707ZM11.3038 11.4087C11.558 11.2593 11.8568 11.2047 12.1473 11.2545L12.4855 9.28333C11.7294 9.15365 10.9518 9.29573 10.2904 9.68442L11.3038 11.4087ZM12.1473 11.2545C12.4379 11.3044 12.7014 11.4554 12.8913 11.681L14.4213 10.393C13.9273 9.80611 13.2415 9.41302 12.4855 9.28333L12.1473 11.2545ZM12.8913 11.681C13.0812 11.9065 13.1851 12.192 13.1846 12.4868L15.1846 12.4897C15.1858 11.7226 14.9154 10.9798 14.4213 10.393L12.8913 11.681ZM13.1846 12.4882C13.1846 12.8591 12.9657 13.154 12.539 13.4148C12.3346 13.5397 12.1219 13.6293 11.9556 13.6879C11.8741 13.7165 11.8079 13.7363 11.7651 13.7482C11.7438 13.7541 11.7286 13.758 11.7206 13.76C11.7165 13.761 11.7143 13.7615 11.714 13.7616C11.7139 13.7616 11.7143 13.7615 11.7151 13.7613C11.7155 13.7612 11.7161 13.7611 11.7168 13.761C11.7171 13.7609 11.7175 13.7608 11.7179 13.7607C11.7181 13.7607 11.7184 13.7606 11.7185 13.7606C11.7189 13.7605 11.7192 13.7604 11.9363 14.7366C12.1534 15.7127 12.1537 15.7126 12.1541 15.7126C12.1542 15.7125 12.1546 15.7124 12.1549 15.7124C12.1554 15.7123 12.156 15.7121 12.1566 15.712C12.1579 15.7117 12.1592 15.7114 12.1607 15.7111C12.1638 15.7104 12.1673 15.7095 12.1714 15.7086C12.1797 15.7066 12.1901 15.7041 12.2025 15.7011C12.2274 15.6949 12.2605 15.6863 12.3007 15.6752C12.3808 15.6529 12.4903 15.6199 12.6196 15.5744C12.8748 15.4846 13.2242 15.3399 13.582 15.1213C14.2794 14.695 15.1846 13.8657 15.1846 12.4882H13.1846ZM11.9654 18.7366H11.9754V16.7366H11.9654V18.7366Z" fill="currentColor"/>
</svg>
