<svg width="24" height="24" viewBox="0 0 24 24" fill="none" xmlns="http://www.w3.org/2000/svg">
<path d="M2 7H17.2C18.8802 7 19.7202 7 20.362 7.32698C20.9265 7.6146 21.3854 8.07354 21.673 8.63803C22 9.27976 22 10.1198 22 11.8V16.2C22 17.8802 22 18.7202 21.673 19.362C21.3854 19.9265 20.9265 20.3854 20.362 20.673C19.7202 21 18.8802 21 17.2 21H6.8C5.11984 21 4.27976 21 3.63803 20.673C3.07354 20.3854 2.6146 19.9265 2.32698 19.362C2 18.7202 2 17.8802 2 16.2V7ZM2 7H15L13.91 5.25601C13.3953 4.4325 13.138 4.02075 12.7894 3.72206C12.4809 3.45769 12.122 3.25873 11.7343 3.13725C11.2963 3 10.8107 3 9.83961 3H5.2C4.07989 3 3.51984 3 3.09202 3.21799C2.71569 3.40973 2.40973 3.71569 2.21799 4.09202C2 4.51984 2 5.07989 2 6.2V7ZM13.6 13.2V11.6C13.6 10.7163 12.8837 10 12 10C11.1163 10 10.4 10.7163 10.4 11.6V13.2M10.336 18H13.664C14.2017 18 14.4705 18 14.6758 17.8954C14.8565 17.8033 15.0033 17.6565 15.0954 17.4758C15.2 17.2705 15.2 17.0017 15.2 16.464V14.736C15.2 14.1983 15.2 13.9295 15.0954 13.7242C15.0033 13.5435 14.8565 13.3967 14.6758 13.3046C14.4705 13.2 14.2017 13.2 13.664 13.2H10.336C9.79835 13.2 9.52952 13.2 9.32417 13.3046C9.14353 13.3967 8.99667 13.5435 8.90463 13.7242C8.8 13.9295 8.8 14.1983 8.8 14.736V16.464C8.8 17.0017 8.8 17.2705 8.90463 17.4758C8.99667 17.6565 9.14353 17.8033 9.32417 17.8954C9.52952 18 9.79835 18 10.336 18Z" stroke="currentColor" stroke-width="2" stroke-linecap="round"/>
</svg>
