<svg width="24" height="24" viewBox="0 0 24 24" fill="none" xmlns="http://www.w3.org/2000/svg">
<path d="M2 7H17.2C18.8802 7 19.7202 7 20.362 7.32698C20.9265 7.6146 21.3854 8.07354 21.673 8.63803C22 9.27976 22 10.1198 22 11.8V16.2C22 17.8802 22 18.7202 21.673 19.362C21.3854 19.9265 20.9265 20.3854 20.362 20.673C19.7202 21 18.8802 21 17.2 21H6.8C5.11984 21 4.27976 21 3.63803 20.673C3.07354 20.3854 2.6146 19.9265 2.32698 19.362C2 18.7202 2 17.8802 2 16.2V7ZM2 7H15L13.91 5.25601C13.3953 4.4325 13.138 4.02075 12.7894 3.72206C12.4809 3.45769 12.122 3.25873 11.7343 3.13725C11.2963 3 10.8107 3 9.83961 3H5.2C4.07989 3 3.51984 3 3.09202 3.21799C2.71569 3.40973 2.40973 3.71569 2.21799 4.09202C2 4.51984 2 5.07989 2 6.2V7ZM9 14L10.6464 15.6464C10.8417 15.8417 11.1583 15.8417 11.3536 15.6464L15 12" stroke="currentColor" stroke-width="2" stroke-linecap="round"/>
</svg>
