<svg width="24" height="24" viewBox="0 0 24 24" fill="none" xmlns="http://www.w3.org/2000/svg">
<path d="M2 7H17.2C18.8802 7 19.7202 7 20.362 7.32698C20.9265 7.6146 21.3854 8.07354 21.673 8.63803C22 9.27976 22 9.31956 22 10.9997M2 7V16.2C2 17.8802 2 18.7202 2.32698 19.362C2.6146 19.9265 3.07354 20.3854 3.63803 20.673C4.27976 21 5.11984 21 6.8 21H10.6098M2 7H15L13.91 5.25601C13.3953 4.4325 13.138 4.02075 12.7894 3.72206C12.4809 3.45769 12.122 3.25873 11.7343 3.13725C11.2963 3 10.8107 3 9.83961 3H5.2C4.07989 3 3.51984 3 3.09202 3.21799C2.71569 3.40973 2.40973 3.71569 2.21799 4.09202C2 4.51984 2 5.07989 2 6.2V7ZM17.7468 15.4552L18.4539 14.7481C18.7827 14.4193 18.9471 14.2549 19.1181 14.1562C19.5822 13.8882 20.154 13.8882 20.6181 14.1562C20.7891 14.2549 20.9535 14.4193 21.2823 14.7481C21.6111 15.0769 21.7755 15.2413 21.8743 15.4123C22.1422 15.8764 22.1422 16.4482 21.8743 16.9123C21.7755 17.0833 21.6111 17.2477 21.2823 17.5765L20.5752 18.2836M17.7468 15.4552L15.0786 18.1234C14.8877 18.3144 14.7922 18.4099 14.7163 18.5187C14.6489 18.6152 14.5932 18.7194 14.5502 18.829C14.5018 18.9525 14.4753 19.0849 14.4223 19.3498L14.0931 20.996C14.0144 21.3895 13.975 21.5862 14.0331 21.7265C14.0838 21.8492 14.1813 21.9466 14.3039 21.9974C14.4443 22.0554 14.641 22.0161 15.0344 21.9374L16.6807 21.6081C16.9455 21.5552 17.078 21.5287 17.2015 21.4802C17.3111 21.4373 17.4152 21.3815 17.5118 21.3142C17.6206 21.2383 17.7161 21.1428 17.9071 20.9518L20.5752 18.2836M17.7468 15.4552L20.5752 18.2836" stroke="currentColor" stroke-width="2" stroke-linecap="round"/>
</svg>
