<svg width="24" height="24" viewBox="0 0 24 24" fill="none" xmlns="http://www.w3.org/2000/svg">
<path d="M5.03451 15.6708H17.8657C18.516 15.6708 18.8412 15.6708 18.983 15.5455C19.1059 15.4369 19.1677 15.2748 19.1484 15.112C19.1261 14.924 18.8836 14.7074 18.3986 14.2742L12.726 9.2075C12.6418 9.13228 12.5997 9.09467 12.5518 9.06786C12.5093 9.04408 12.4636 9.02663 12.4161 9.01606C12.3625 9.00415 12.306 9.00415 12.1931 9.00415H5.83451C5.55449 9.00415 5.41448 9.00415 5.30752 9.05865C5.21344 9.10658 5.13695 9.18307 5.08901 9.27715C5.03451 9.38411 5.03451 9.52412 5.03451 9.80415V15.6708ZM5.03451 15.6708L11.2345 15.6709C11.5145 15.6709 11.6546 15.6709 11.7615 15.7254C11.8556 15.7733 11.9321 15.8498 11.98 15.9439C12.0345 16.0509 12.0345 16.1909 12.0345 16.4709V20.4709C12.0345 21.0592 12.0345 21.3533 11.9171 21.4928C11.8151 21.614 11.6618 21.6797 11.5038 21.67C11.3218 21.6588 11.1088 21.4559 10.6828 21.0502L5.03451 15.6708ZM11.3072 8.80212L5.60718 3.73545C5.1196 3.30205 4.87581 3.08534 4.85319 2.89722C4.83359 2.73419 4.89528 2.57193 5.01824 2.4631C5.16013 2.33752 5.48631 2.33752 6.13867 2.33752H18.2345C18.5145 2.33752 18.6546 2.33752 18.7615 2.39202C18.8556 2.43996 18.9321 2.51645 18.98 2.61053C19.0345 2.71749 19.0345 2.8575 19.0345 3.13752V8.20419C19.0345 8.48422 19.0345 8.62423 18.98 8.73119C18.9321 8.82527 18.8556 8.90176 18.7615 8.94969C18.6546 9.00419 18.5145 9.00419 18.2345 9.00419H11.8387C11.7262 9.00419 11.6699 9.00419 11.6165 8.99236C11.5691 8.98186 11.5235 8.96453 11.4811 8.94089C11.4333 8.91425 11.3913 8.87687 11.3072 8.80212Z" stroke="currentColor" stroke-width="2" stroke-linecap="round" stroke-linejoin="round"/>
</svg>
