<svg width="24" height="24" viewBox="0 0 24 24" fill="none" xmlns="http://www.w3.org/2000/svg">
<path d="M15 6V6.6C15 7.44008 15 7.86012 14.8365 8.18099C14.6927 8.46323 14.4632 8.6927 14.181 8.83651C13.8601 9 13.4401 9 12.6 9H11.4C10.5599 9 10.1399 9 9.81901 8.83651C9.53677 8.6927 9.3073 8.46323 9.16349 8.18099C9 7.86012 9 7.44008 9 6.6V6M11.7474 14.1429C11.4073 14.1429 11.2373 14.1429 11.0777 14.16C10.2958 14.2439 9.5781 14.6314 9.07908 15.2392C8.97726 15.3632 8.884 15.5054 8.69747 15.7898C7.75224 17.2308 7.27962 17.9513 6.96424 18.2245C5.30445 19.6622 2.71312 18.8882 2.11387 16.7756C2 16.3742 2 15.5125 2 13.7892V12.8539C2 11.1302 2 10.2684 2.1758 9.55823C2.71065 7.39763 4.39763 5.71065 6.55823 5.1758C7.2684 5 8.13022 5 9.85386 5H14.1461C15.8698 5 16.7316 5 17.4418 5.1758C19.6024 5.71065 21.2893 7.39763 21.8242 9.55824C22 10.2684 22 11.1302 22 12.8539V13.7892C22 15.5125 22 16.3742 21.8861 16.7756C21.2869 18.8882 18.6955 19.6622 17.0358 18.2245C16.7204 17.9513 16.2478 17.2308 15.3025 15.7898C15.116 15.5054 15.0227 15.3632 14.9209 15.2392C14.4219 14.6314 13.7042 14.2439 12.9223 14.16C12.7627 14.1429 12.5927 14.1429 12.2526 14.1429H11.7474Z" stroke="currentColor" stroke-width="2" stroke-linecap="round" stroke-linejoin="round"/>
</svg>
