<svg width="24" height="24" viewBox="0 0 24 24" fill="none" xmlns="http://www.w3.org/2000/svg">
<path d="M11.9998 21C16.9704 21 20.9998 16.9706 20.9998 12C20.9998 7.02944 16.9704 3 11.9998 3C7.02924 3 2.99981 7.02944 2.99981 12C2.99981 12.7548 3.09273 13.4879 3.26776 14.1885C3.54354 15.2924 3.68143 15.8444 3.7007 16.0975C3.72459 16.4113 3.72281 16.4598 3.67605 16.771C3.63833 17.022 3.53813 17.3265 3.33772 17.9353L3.31487 18.0047C2.88399 19.3138 2.66855 19.9683 2.81958 20.4343C2.95129 20.8408 3.25006 21.1718 3.64093 21.3442C4.08913 21.542 4.76223 21.3945 6.10841 21.0994L7.61266 20.7697C8.05338 20.6731 8.27375 20.6248 8.45569 20.6076C8.67897 20.5866 8.71809 20.5861 8.94185 20.6013C9.12417 20.6138 9.51327 20.6885 10.2915 20.8381C10.8446 20.9444 11.4157 21 11.9998 21Z" stroke="currentColor" stroke-width="2" stroke-linecap="round" stroke-linejoin="round"/>
<path d="M11.4542 8.36578C11.5063 8.18765 11.5323 8.09858 11.5519 8.05902C11.7357 7.68875 12.2639 7.68875 12.4477 8.05902C12.4673 8.09858 12.4934 8.18765 12.5455 8.36578C12.6273 8.64559 12.6682 8.78549 12.7157 8.91431C13.1207 10.0131 13.9868 10.8792 15.0855 11.2841C15.2143 11.3316 15.3542 11.3725 15.634 11.4544C15.8122 11.5065 15.9012 11.5325 15.9408 11.5521C16.3111 11.7359 16.3111 12.2641 15.9408 12.4479C15.9012 12.4675 15.8122 12.4935 15.634 12.5456C15.3542 12.6275 15.2143 12.6684 15.0855 12.7159C13.9868 13.1208 13.1207 13.9869 12.7157 15.0857C12.6682 15.2145 12.6273 15.3544 12.5455 15.6342C12.4934 15.8124 12.4673 15.9014 12.4477 15.941C12.2639 16.3112 11.7357 16.3112 11.5519 15.941C11.5323 15.9014 11.5063 15.8124 11.4542 15.6342C11.3723 15.3544 11.3314 15.2145 11.2839 15.0857C10.879 13.9869 10.0129 13.1208 8.91412 12.7159C8.7853 12.6684 8.6454 12.6275 8.36559 12.5456C8.18746 12.4935 8.09839 12.4675 8.05883 12.4479C7.68856 12.2641 7.68856 11.7359 8.05883 11.5521C8.09839 11.5325 8.18746 11.5065 8.36559 11.4544C8.6454 11.3725 8.7853 11.3316 8.91412 11.2841C10.0129 10.8792 10.879 10.0131 11.2839 8.91431C11.3314 8.78549 11.3723 8.64559 11.4542 8.36578Z" stroke="currentColor" stroke-width="2" stroke-linecap="round" stroke-linejoin="round"/>
</svg>
