<svg width="24" height="24" viewBox="0 0 24 24" fill="none" xmlns="http://www.w3.org/2000/svg">
<path d="M21 14H22C22 13.6552 21.8224 13.3347 21.53 13.152L21 14ZM12 4C12.5523 4 13 3.55228 13 3C13 2.44772 12.5523 2 12 2V4ZM7.27407 20.3123C6.89424 20.7132 6.91135 21.3461 7.31228 21.726C7.71321 22.1058 8.34615 22.0887 8.72598 21.6877L7.27407 20.3123ZM15.2002 13.3998L15.9261 14.0876L15.2002 13.3998ZM19.2192 12.887L19.7492 12.039L19.7492 12.039L19.2192 12.887ZM16.5461 12.2216L16.1557 11.301H16.1557L16.5461 12.2216ZM17.6206 12.0845L17.4738 13.0737L17.6206 12.0845ZM15.9241 4.84187L15.6434 3.88207L15.9241 4.84187ZM16.3485 4.71016L16.0027 3.77187L16.3485 4.71016ZM18.3138 2.45221L17.354 2.17151L18.3138 2.45221ZM18.1821 2.87661L17.2438 2.53077L18.1821 2.87661ZM15.9241 5.68621L15.6434 6.64601L15.9241 5.68621ZM15.6868 5.61056L15.2422 6.50628L15.6868 5.61056ZM15.6868 4.91752L15.2422 4.02179L15.6868 4.91752ZM18.3138 8.07587L17.354 8.35656L18.3138 8.07587ZM18.1821 7.65147L17.2438 7.99731L18.1821 7.65147ZM16.3485 5.81791L16.0027 6.75621L16.3485 5.81791ZM19.1581 8.07587L20.1179 8.35656L19.1581 8.07587ZM19.0825 8.31322L19.9782 8.75782L19.0825 8.31322ZM18.3894 8.31322L17.4937 8.75782L18.3894 8.31322ZM21.5478 5.68621L21.8285 6.64601L21.5478 5.68621ZM21.1234 5.81791L21.4692 6.75621L21.1234 5.81791ZM19.2898 7.65147L20.2281 7.99731L19.2898 7.65147ZM21.5478 4.84187L21.8285 3.88207L21.5478 4.84187ZM21.7851 4.91752L22.2297 4.02179L21.7851 4.91752ZM21.7851 5.61056L22.2297 6.50628L21.7851 5.61056ZM19.1581 2.45221L20.1179 2.17151L19.1581 2.45221ZM19.2898 2.87661L20.2281 2.53077L19.2898 2.87661ZM21.1234 4.71016L21.4692 3.77187L21.1234 4.71016ZM19.0825 2.21486L19.9782 1.77026V1.77026L19.0825 2.21486ZM18.3894 2.21486L17.4937 1.77026V1.77026L18.3894 2.21486ZM18 20H6V22H18V20ZM4 18V6H2V18H4ZM6 20C4.89543 20 4 19.1046 4 18H2C2 20.2091 3.79086 22 6 22V20ZM20 18C20 19.1046 19.1046 20 18 20V22C20.2091 22 22 20.2091 22 18H20ZM6 2C3.79086 2 2 3.79086 2 6H4C4 4.89543 4.89543 4 6 4V2ZM20 14V18H22V14H20ZM6 4H12V2H6V4ZM8.72598 21.6877L15.9261 14.0876L14.4742 12.7121L7.27407 20.3123L8.72598 21.6877ZM18.6892 13.735L20.47 14.848L21.53 13.152L19.7492 12.039L18.6892 13.735ZM15.9261 14.0876C16.2569 13.7385 16.4681 13.5164 16.6427 13.3576C16.8079 13.2072 16.8887 13.1626 16.9366 13.1423L16.1557 11.301C15.8195 11.4436 15.548 11.6496 15.2966 11.8784C15.0544 12.0987 14.7847 12.3843 14.4742 12.7121L15.9261 14.0876ZM19.7492 12.039C19.3664 11.7997 19.0336 11.591 18.7439 11.4385C18.4431 11.2802 18.1285 11.149 17.7673 11.0954L17.4738 13.0737C17.5253 13.0813 17.6147 13.1043 17.8124 13.2083C18.0212 13.3182 18.2814 13.4801 18.6892 13.735L19.7492 12.039ZM16.9366 13.1423C17.1059 13.0704 17.2918 13.0467 17.4738 13.0737L17.7673 11.0954C17.2214 11.0144 16.6638 11.0855 16.1557 11.301L16.9366 13.1423ZM10 9C10 9.55228 9.55228 10 9 10V12C10.6569 12 12 10.6569 12 9H10ZM9 10C8.44772 10 8 9.55228 8 9H6C6 10.6569 7.34315 12 9 12V10ZM8 9C8 8.44772 8.44772 8 9 8V6C7.34315 6 6 7.34315 6 9H8ZM9 8C9.55228 8 10 8.44772 10 9H12C12 7.34315 10.6569 6 9 6V8ZM16.2048 5.80167C16.4077 5.74235 16.5549 5.69987 16.6944 5.64846L16.0027 3.77187C15.9428 3.79393 15.8736 3.81477 15.6434 3.88207L16.2048 5.80167ZM17.354 2.17151C17.2867 2.40165 17.2659 2.47092 17.2438 2.53077L19.1204 3.22245C19.1718 3.08296 19.2143 2.93574 19.2736 2.7329L17.354 2.17151ZM16.6944 5.64846C17.8192 5.23388 18.7058 4.34724 19.1204 3.22245L17.2438 2.53077C17.0317 3.10619 16.5781 3.55978 16.0027 3.77187L16.6944 5.64846ZM16.2048 4.72641C16.1699 4.71619 16.1415 4.7079 16.1172 4.70069C16.0926 4.69342 16.0758 4.68832 16.0638 4.68457C16.051 4.68056 16.0503 4.68014 16.0564 4.68235C16.06 4.68363 16.0681 4.68662 16.0794 4.69125C16.0904 4.69574 16.1086 4.70354 16.1314 4.71483L15.2422 6.50628C15.3379 6.55378 15.4348 6.58337 15.4667 6.59335C15.5161 6.6088 15.5785 6.62703 15.6434 6.64601L16.2048 4.72641ZM15.6434 3.88207C15.5785 3.90105 15.5161 3.91928 15.4667 3.93472C15.4348 3.9447 15.3379 3.9743 15.2422 4.02179L16.1314 5.81325C16.1086 5.82454 16.0904 5.83234 16.0794 5.83682C16.0681 5.84146 16.06 5.84445 16.0564 5.84573C16.0503 5.84793 16.051 5.84752 16.0638 5.8435C16.0758 5.83976 16.0926 5.83466 16.1172 5.82739C16.1415 5.82018 16.1699 5.81189 16.2048 5.80167L15.6434 3.88207ZM16.1314 4.71483C16.5854 4.9402 16.5854 5.58788 16.1314 5.81325L15.2422 4.02179C14.2152 4.53156 14.2152 5.99652 15.2422 6.50628L16.1314 4.71483ZM19.2736 7.79518C19.2143 7.59234 19.1718 7.44512 19.1204 7.30563L17.2438 7.99731C17.2659 8.05716 17.2867 8.12643 17.354 8.35656L19.2736 7.79518ZM15.6434 6.64601C15.8736 6.71331 15.9428 6.73415 16.0027 6.75621L16.6944 4.87962C16.5549 4.8282 16.4077 4.78573 16.2048 4.72641L15.6434 6.64601ZM19.1204 7.30563C18.7058 6.18084 17.8192 5.2942 16.6944 4.87962L16.0027 6.75621C16.5781 6.9683 17.0317 7.42188 17.2438 7.99731L19.1204 7.30563ZM18.1983 7.79518C18.1881 7.83013 18.1798 7.85849 18.1726 7.88284C18.1653 7.90737 18.1602 7.92423 18.1565 7.93619C18.1525 7.94903 18.1521 7.94968 18.1543 7.94356C18.1555 7.94001 18.1585 7.93186 18.1632 7.92056C18.1677 7.90961 18.1755 7.89136 18.1868 7.86862L19.9782 8.75782C20.0257 8.66213 20.0553 8.56521 20.0653 8.53331C20.0807 8.48394 20.099 8.42146 20.1179 8.35656L18.1983 7.79518ZM17.354 8.35656C17.373 8.42146 17.3912 8.48394 17.4066 8.53331C17.4166 8.56521 17.4462 8.66213 17.4937 8.75782L19.2852 7.86862C19.2965 7.89136 19.3043 7.90961 19.3087 7.92056C19.3134 7.93186 19.3164 7.94001 19.3177 7.94356C19.3199 7.94968 19.3194 7.94903 19.3154 7.93619C19.3117 7.92423 19.3066 7.90737 19.2993 7.88284C19.2921 7.85849 19.2838 7.83013 19.2736 7.79518L17.354 8.35656ZM18.1868 7.86862C18.4121 7.41456 19.0598 7.41456 19.2852 7.86862L17.4937 8.75782C18.0035 9.78483 19.4684 9.78483 19.9782 8.75782L18.1868 7.86862ZM21.2671 4.72641C21.0643 4.78573 20.917 4.82821 20.7776 4.87962L21.4692 6.75621C21.5291 6.73415 21.5984 6.71331 21.8285 6.64601L21.2671 4.72641ZM20.1179 8.35656C20.1852 8.12643 20.2061 8.05716 20.2281 7.99731L18.3515 7.30563C18.3001 7.44512 18.2577 7.59234 18.1983 7.79518L20.1179 8.35656ZM20.7776 4.87962C19.6528 5.2942 18.7661 6.18084 18.3515 7.30563L20.2281 7.99731C20.4402 7.42189 20.8938 6.9683 21.4692 6.75621L20.7776 4.87962ZM21.2671 5.80167C21.302 5.81189 21.3304 5.82018 21.3548 5.82739C21.3793 5.83466 21.3962 5.83976 21.4081 5.8435C21.4209 5.84752 21.4216 5.84794 21.4155 5.84573C21.4119 5.84445 21.4038 5.84146 21.3925 5.83682C21.3815 5.83234 21.3633 5.82454 21.3405 5.81325L22.2297 4.02179C22.1341 3.9743 22.0371 3.9447 22.0052 3.93472C21.9559 3.91928 21.8934 3.90105 21.8285 3.88207L21.2671 5.80167ZM21.8285 6.64601C21.8934 6.62703 21.9559 6.6088 22.0052 6.59336C22.0371 6.58337 22.1341 6.55378 22.2297 6.50628L21.3405 4.71483C21.3633 4.70354 21.3815 4.69574 21.3925 4.69125C21.4038 4.68662 21.4119 4.68362 21.4155 4.68235C21.4216 4.68014 21.4209 4.68056 21.4081 4.68457C21.3962 4.68832 21.3793 4.69342 21.3548 4.70068C21.3304 4.7079 21.302 4.71619 21.2671 4.72641L21.8285 6.64601ZM21.3405 5.81325C20.8865 5.58788 20.8865 4.9402 21.3405 4.71483L22.2297 6.50628C23.2568 5.99652 23.2568 4.53156 22.2297 4.02179L21.3405 5.81325ZM18.1983 2.7329C18.2577 2.93574 18.3001 3.08296 18.3515 3.22245L20.2281 2.53077C20.2061 2.47092 20.1852 2.40165 20.1179 2.17151L18.1983 2.7329ZM21.8285 3.88207C21.5984 3.81477 21.5291 3.79393 21.4692 3.77187L20.7776 5.64846C20.917 5.69987 21.0643 5.74234 21.2671 5.80167L21.8285 3.88207ZM18.3515 3.22245C18.7661 4.34724 19.6528 5.23388 20.7776 5.64846L21.4692 3.77187C20.8938 3.55978 20.4402 3.10619 20.2281 2.53077L18.3515 3.22245ZM20.1179 2.17151C20.099 2.10662 20.0807 2.04414 20.0653 1.99477C20.0553 1.96286 20.0257 1.86595 19.9782 1.77026L18.1868 2.65946C18.1755 2.63672 18.1677 2.61847 18.1632 2.60752C18.1585 2.59621 18.1555 2.58806 18.1543 2.58452C18.1521 2.5784 18.1525 2.57905 18.1565 2.59189C18.1602 2.60385 18.1653 2.62071 18.1726 2.64524C18.1798 2.66959 18.1881 2.69795 18.1983 2.7329L20.1179 2.17151ZM19.2736 2.7329C19.2838 2.69795 19.2921 2.66959 19.2993 2.64524C19.3066 2.62071 19.3117 2.60385 19.3154 2.59189C19.3194 2.57905 19.3199 2.5784 19.3177 2.58452C19.3164 2.58806 19.3134 2.59621 19.3087 2.60752C19.3043 2.61847 19.2965 2.63672 19.2852 2.65946L17.4937 1.77026C17.4462 1.86595 17.4166 1.96286 17.4066 1.99477C17.3912 2.04414 17.373 2.10662 17.354 2.17151L19.2736 2.7329ZM19.9782 1.77026C19.4684 0.743248 18.0035 0.743248 17.4937 1.77026L19.2852 2.65946C19.0598 3.11351 18.4121 3.11351 18.1868 2.65946L19.9782 1.77026Z" fill="currentColor"/>
</svg>
