<svg width="24" height="24" viewBox="0 0 24 24" fill="none" xmlns="http://www.w3.org/2000/svg">
<path d="M3.63803 20.673L3.18404 21.564L3.63803 20.673ZM2.32698 19.362L1.43597 19.816L2.32698 19.362ZM21.673 19.362L22.564 19.816L21.673 19.362ZM20.362 20.673L20.816 21.564L20.362 20.673ZM20.362 7.32698L20.816 6.43597L20.362 7.32698ZM21.673 8.63803L22.564 8.18404L21.673 8.63803ZM15 7V8C15.3635 8 15.6984 7.80272 15.8746 7.48477C16.0509 7.16681 16.0407 6.77827 15.848 6.47L15 7ZM11.7343 3.13725L11.4353 4.0915L11.7343 3.13725ZM13.91 5.25601L13.062 5.786L13.91 5.25601ZM12.7894 3.72206L12.1387 4.48137L12.7894 3.72206ZM3.09202 3.21799L3.54601 4.10899L3.09202 3.21799ZM2.21799 4.09202L3.10899 4.54601L2.21799 4.09202ZM9.09384 13.5602L8.81315 12.6004L9.09384 13.5602ZM9.53248 13.4241L9.18664 12.4858L9.53248 13.4241ZM11.5637 11.0904L10.6039 10.8097L11.5637 11.0904ZM11.4275 11.529L10.4893 11.1832L11.4275 11.529ZM9.09384 14.4329L8.81315 15.3927L9.09384 14.4329ZM8.84853 14.3547L8.40393 15.2504L8.84853 14.3547ZM8.84853 13.6384L8.40393 12.7427L8.84853 13.6384ZM11.5637 16.9027L10.6039 17.1834L11.5637 16.9027ZM11.4275 16.4641L10.4893 16.8099L11.4275 16.4641ZM9.53248 14.569L9.18664 15.5073L9.53248 14.569ZM12.4363 16.9027L13.3961 17.1834L12.4363 16.9027ZM12.3581 17.148L13.2539 17.5926L12.3581 17.148ZM11.6419 17.148L10.7461 17.5926L11.6419 17.148ZM14.9062 14.4329L15.1869 15.3927L14.9062 14.4329ZM14.4675 14.569L14.8134 15.5073L14.4675 14.569ZM12.5725 16.4641L13.5107 16.8099L12.5725 16.4641ZM14.9062 13.5602L15.1869 12.6004L14.9062 13.5602ZM15.1515 13.6384L15.5961 12.7427L15.1515 13.6384ZM15.1515 14.3547L15.5961 15.2504L15.1515 14.3547ZM12.4363 11.0904L13.3961 10.8097L12.4363 11.0904ZM12.5725 11.529L13.5107 11.1832L12.5725 11.529ZM14.4675 13.4241L14.8134 12.4858L14.4675 13.4241ZM12.3581 10.8451L13.2539 10.4005L12.3581 10.8451ZM11.6419 10.8451L10.7461 10.4005L11.6419 10.8451ZM2 8H17.2V6H2V8ZM21 11.8V16.2H23V11.8H21ZM17.2 20H6.8V22H17.2V20ZM3 16.2V7H1V16.2H3ZM6.8 20C5.94342 20 5.36113 19.9992 4.91104 19.9624C4.47262 19.9266 4.24842 19.8617 4.09202 19.782L3.18404 21.564C3.66937 21.8113 4.18608 21.9099 4.74817 21.9558C5.2986 22.0008 5.97642 22 6.8 22V20ZM1 16.2C1 17.0236 0.999222 17.7014 1.04419 18.2518C1.09012 18.8139 1.18868 19.3306 1.43597 19.816L3.21799 18.908C3.1383 18.7516 3.07337 18.5274 3.03755 18.089C3.00078 17.6389 3 17.0566 3 16.2H1ZM4.09202 19.782C3.7157 19.5903 3.40973 19.2843 3.21799 18.908L1.43597 19.816C1.81947 20.5686 2.43139 21.1805 3.18404 21.564L4.09202 19.782ZM21 16.2C21 17.0566 20.9992 17.6389 20.9624 18.089C20.9266 18.5274 20.8617 18.7516 20.782 18.908L22.564 19.816C22.8113 19.3306 22.9099 18.8139 22.9558 18.2518C23.0008 17.7014 23 17.0236 23 16.2H21ZM17.2 22C18.0236 22 18.7014 22.0008 19.2518 21.9558C19.8139 21.9099 20.3306 21.8113 20.816 21.564L19.908 19.782C19.7516 19.8617 19.5274 19.9266 19.089 19.9624C18.6389 19.9992 18.0566 20 17.2 20V22ZM20.782 18.908C20.5903 19.2843 20.2843 19.5903 19.908 19.782L20.816 21.564C21.5686 21.1805 22.1805 20.5686 22.564 19.816L20.782 18.908ZM17.2 8C18.0566 8 18.6389 8.00078 19.089 8.03755C19.5274 8.07337 19.7516 8.1383 19.908 8.21799L20.816 6.43597C20.3306 6.18868 19.8139 6.09012 19.2518 6.04419C18.7014 5.99922 18.0236 6 17.2 6V8ZM23 11.8C23 10.9764 23.0008 10.2986 22.9558 9.74817C22.9099 9.18608 22.8113 8.66937 22.564 8.18404L20.782 9.09202C20.8617 9.24842 20.9266 9.47262 20.9624 9.91104C20.9992 10.3611 21 10.9434 21 11.8H23ZM19.908 8.21799C20.2843 8.40973 20.5903 8.7157 20.782 9.09202L22.564 8.18404C22.1805 7.43139 21.5686 6.81947 20.816 6.43597L19.908 8.21799ZM5.2 4H9.83961V2H5.2V4ZM13.062 5.786L14.152 7.53L15.848 6.47L14.758 4.72601L13.062 5.786ZM15 6H2V8H15V6ZM3 7V6.2H1V7H3ZM9.83961 4C10.8753 4 11.1778 4.01083 11.4353 4.0915L12.0333 2.183C11.4147 1.98917 10.7461 2 9.83961 2V4ZM14.758 4.72601C14.2776 3.95729 13.9324 3.38457 13.4402 2.96274L12.1387 4.48137C12.3436 4.65694 12.5131 4.90772 13.062 5.786L14.758 4.72601ZM11.4353 4.0915C11.6937 4.17249 11.933 4.30513 12.1387 4.48137L13.4402 2.96274C13.0288 2.61025 12.5502 2.34498 12.0333 2.183L11.4353 4.0915ZM5.2 2C4.65645 2 4.18864 1.99922 3.80497 2.03057C3.40963 2.06287 3.01641 2.13419 2.63803 2.32698L3.54601 4.10899C3.59545 4.0838 3.69617 4.04612 3.96784 4.02393C4.25117 4.00078 4.62345 4 5.2 4V2ZM3 6.2C3 5.62345 3.00078 5.25117 3.02393 4.96784C3.04612 4.69617 3.0838 4.59545 3.10899 4.54601L1.32698 3.63803C1.13419 4.01641 1.06287 4.40963 1.03057 4.80497C0.999222 5.18864 1 5.65645 1 6.2H3ZM2.63803 2.32698C2.07354 2.6146 1.6146 3.07354 1.32698 3.63803L3.10899 4.54601C3.20487 4.35785 3.35785 4.20487 3.54601 4.10899L2.63803 2.32698ZM9.37453 14.52C9.58463 14.4586 9.73548 14.4151 9.87832 14.3624L9.18664 12.4858C9.12345 12.5091 9.05055 12.531 8.81315 12.6004L9.37453 14.52ZM10.6039 10.8097C10.5344 11.0471 10.5125 11.12 10.4893 11.1832L12.3658 11.8749C12.4185 11.7321 12.462 11.5812 12.5235 11.3711L10.6039 10.8097ZM9.87832 14.3624C11.0316 13.9373 11.9407 13.0282 12.3658 11.8749L10.4893 11.1832C10.2666 11.7872 9.79058 12.2632 9.18664 12.4858L9.87832 14.3624ZM9.37453 13.4731C9.33843 13.4625 9.30906 13.454 9.28383 13.4465C9.25841 13.439 9.24079 13.4336 9.22819 13.4297C9.21471 13.4255 9.21353 13.4249 9.21922 13.4269C9.22255 13.4281 9.2305 13.431 9.24164 13.4356C9.25241 13.44 9.27052 13.4478 9.29313 13.459L8.40393 15.2504C8.50013 15.2982 8.59788 15.3281 8.63107 15.3385C8.68173 15.3543 8.74594 15.373 8.81315 15.3927L9.37453 13.4731ZM8.81315 12.6004C8.74594 12.6201 8.68173 12.6388 8.63107 12.6547C8.59788 12.6651 8.50013 12.6949 8.40393 12.7427L9.29313 14.5342C9.27052 14.5454 9.25241 14.5531 9.24164 14.5575C9.2305 14.5621 9.22255 14.565 9.21922 14.5662C9.21353 14.5683 9.21471 14.5677 9.22819 14.5635C9.24079 14.5595 9.25841 14.5542 9.28383 14.5467C9.30906 14.5392 9.33843 14.5306 9.37453 14.52L8.81315 12.6004ZM9.29313 13.459C9.73758 13.6796 9.73758 14.3136 9.29313 14.5342L8.40393 12.7427C7.36731 13.2572 7.36731 14.7359 8.40393 15.2504L9.29313 13.459ZM12.5235 16.622C12.462 16.4119 12.4185 16.2611 12.3658 16.1182L10.4893 16.8099C10.5125 16.8731 10.5344 16.946 10.6039 17.1834L12.5235 16.622ZM8.81315 15.3927C9.05055 15.4621 9.12345 15.484 9.18664 15.5073L9.87832 13.6307C9.73548 13.5781 9.58463 13.5345 9.37453 13.4731L8.81315 15.3927ZM12.3658 16.1182C11.9407 14.9649 11.0316 14.0558 9.87832 13.6307L9.18664 15.5073C9.79058 15.7299 10.2666 16.206 10.4893 16.8099L12.3658 16.1182ZM11.4765 16.622C11.466 16.6581 11.4574 16.6875 11.4499 16.7127C11.4424 16.7382 11.4371 16.7558 11.4331 16.7684C11.4289 16.7819 11.4283 16.783 11.4304 16.7773C11.4316 16.774 11.4345 16.7661 11.439 16.7549C11.4435 16.7442 11.4512 16.726 11.4624 16.7034L13.2539 17.5926C13.3016 17.4964 13.3315 17.3987 13.3419 17.3655C13.3577 17.3148 13.3765 17.2506 13.3961 17.1834L11.4765 16.622ZM10.6039 17.1834C10.6235 17.2506 10.6423 17.3148 10.6581 17.3655C10.6685 17.3987 10.6984 17.4964 10.7461 17.5926L12.5376 16.7034C12.5488 16.726 12.5565 16.7442 12.561 16.7549C12.5655 16.7661 12.5684 16.774 12.5696 16.7773C12.5717 16.783 12.5711 16.7819 12.5669 16.7684C12.5629 16.7558 12.5576 16.7382 12.5501 16.7127C12.5426 16.6875 12.534 16.6581 12.5235 16.622L10.6039 17.1834ZM11.4624 16.7034C11.683 16.259 12.317 16.259 12.5376 16.7034L10.7461 17.5926C11.2607 18.6293 12.7393 18.6293 13.2539 17.5926L11.4624 16.7034ZM14.6255 13.4731C14.4154 13.5345 14.2645 13.5781 14.1217 13.6307L14.8134 15.5073C14.8765 15.484 14.9495 15.4621 15.1869 15.3927L14.6255 13.4731ZM13.3961 17.1834C13.4656 16.946 13.4875 16.8731 13.5107 16.8099L11.6342 16.1182C11.5815 16.2611 11.538 16.4119 11.4765 16.622L13.3961 17.1834ZM14.1217 13.6307C12.9684 14.0558 12.0593 14.9649 11.6342 16.1182L13.5107 16.8099C13.7334 16.206 14.2094 15.7299 14.8134 15.5073L14.1217 13.6307ZM14.6255 14.52C14.6616 14.5306 14.6909 14.5392 14.7162 14.5467C14.7416 14.5542 14.7592 14.5595 14.7718 14.5635C14.7853 14.5677 14.7865 14.5683 14.7808 14.5662C14.7775 14.565 14.7695 14.5621 14.7584 14.5575C14.7476 14.5531 14.7295 14.5454 14.7069 14.5342L15.5961 12.7427C15.4999 12.6949 15.4021 12.6651 15.3689 12.6547C15.3183 12.6388 15.2541 12.6201 15.1869 12.6004L14.6255 14.52ZM15.1869 15.3927C15.2541 15.373 15.3183 15.3543 15.3689 15.3385C15.4021 15.3281 15.4999 15.2982 15.5961 15.2504L14.7069 13.459C14.7295 13.4478 14.7476 13.44 14.7584 13.4356C14.7695 13.431 14.7775 13.4281 14.7808 13.4269C14.7865 13.4249 14.7853 13.4255 14.7718 13.4297C14.7592 13.4336 14.7416 13.439 14.7162 13.4465C14.6909 13.454 14.6616 13.4625 14.6255 13.4731L15.1869 15.3927ZM14.7069 14.5342C14.2624 14.3136 14.2624 13.6796 14.7069 13.459L15.5961 15.2504C16.6327 14.7359 16.6327 13.2572 15.5961 12.7427L14.7069 14.5342ZM11.4765 11.3711C11.538 11.5812 11.5815 11.7321 11.6342 11.8749L13.5107 11.1832C13.4875 11.12 13.4656 11.0471 13.3961 10.8097L11.4765 11.3711ZM15.1869 12.6004C14.9495 12.531 14.8765 12.5091 14.8134 12.4858L14.1217 14.3624C14.2645 14.4151 14.4154 14.4586 14.6255 14.52L15.1869 12.6004ZM11.6342 11.8749C12.0593 13.0282 12.9684 13.9373 14.1217 14.3624L14.8134 12.4858C14.2094 12.2632 13.7334 11.7872 13.5107 11.1832L11.6342 11.8749ZM13.3961 10.8097C13.3765 10.7425 13.3577 10.6783 13.3419 10.6276C13.3315 10.5945 13.3016 10.4967 13.2539 10.4005L11.4624 11.2897C11.4512 11.2671 11.4435 11.249 11.439 11.2382C11.4345 11.2271 11.4316 11.2191 11.4304 11.2158C11.4283 11.2101 11.4289 11.2113 11.4331 11.2248C11.4371 11.2374 11.4424 11.255 11.4499 11.2804C11.4574 11.3056 11.466 11.335 11.4765 11.3711L13.3961 10.8097ZM12.5235 11.3711C12.534 11.335 12.5426 11.3056 12.5501 11.2804C12.5576 11.255 12.5629 11.2374 12.5669 11.2248C12.5711 11.2113 12.5717 11.2101 12.5696 11.2158C12.5684 11.2191 12.5655 11.2271 12.561 11.2382C12.5565 11.249 12.5488 11.2671 12.5376 11.2897L10.7461 10.4005C10.6984 10.4967 10.6685 10.5945 10.6581 10.6276C10.6423 10.6783 10.6235 10.7425 10.6039 10.8097L12.5235 11.3711ZM13.2539 10.4005C12.7393 9.36388 11.2607 9.36388 10.7461 10.4005L12.5376 11.2897C12.317 11.7341 11.683 11.7341 11.4624 11.2897L13.2539 10.4005Z" fill="currentColor"/>
</svg>
