<svg width="24" height="24" viewBox="0 0 24 24" fill="none" xmlns="http://www.w3.org/2000/svg">
<path d="M11.9998 21C11.4157 21 10.8446 20.9444 10.2915 20.8381C9.51327 20.6885 9.12417 20.6138 8.94185 20.6013C8.71809 20.5861 8.67897 20.5866 8.45569 20.6076C8.27375 20.6248 8.05338 20.6731 7.61266 20.7697L6.10841 21.0994C4.76223 21.3945 4.08913 21.542 3.64093 21.3442C3.25006 21.1718 2.95129 20.8408 2.81958 20.4343C2.66855 19.9683 2.88399 19.3138 3.31487 18.0047L3.33772 17.9353C3.53813 17.3265 3.63833 17.022 3.67605 16.771C3.72281 16.4598 3.72459 16.4113 3.7007 16.0975C3.68143 15.8444 3.54354 15.2924 3.26776 14.1885C3.09273 13.4879 2.99981 12.7548 2.99981 12C2.99981 7.02944 7.02924 3 11.9998 3C16.4593 3 20.1613 6.24343 20.8754 10.5M13.9471 12.943H13.9571M15.7201 16.825C15.9439 16.7595 16.0557 16.7268 16.1588 16.6888C17.0374 16.365 17.73 15.6724 18.0538 14.7938C18.0918 14.6908 18.1245 14.5789 18.1899 14.3551C18.2316 14.2127 18.2524 14.1415 18.2681 14.1098C18.4151 13.8137 18.8374 13.8137 18.9844 14.1098C19.0001 14.1415 19.0209 14.2127 19.0626 14.3551C19.128 14.5789 19.1608 14.6908 19.1987 14.7938C19.5226 15.6724 20.2152 16.365 21.0938 16.6888C21.1968 16.7268 21.3087 16.7595 21.5324 16.825C21.6749 16.8666 21.7461 16.8874 21.7777 16.9031C22.0738 17.0501 22.0738 17.4725 21.7777 17.6194C21.7461 17.6351 21.6749 17.656 21.5324 17.6976C21.3087 17.7631 21.1968 17.7958 21.0938 17.8337C20.2152 18.1576 19.5226 18.8502 19.1987 19.7288C19.1608 19.8318 19.128 19.9437 19.0626 20.1674C19.0209 20.3099 19.0001 20.3811 18.9844 20.4128C18.8374 20.7088 18.4151 20.7088 18.2681 20.4128C18.2524 20.3811 18.2316 20.3099 18.1899 20.1674C18.1245 19.9437 18.0918 19.8318 18.0538 19.7288C17.73 18.8502 17.0374 18.1576 16.1588 17.8337C16.0557 17.7958 15.9439 17.7631 15.7201 17.6976C15.5777 17.656 15.5064 17.6351 15.4748 17.6194C15.1787 17.4725 15.1787 17.0501 15.4748 16.9031C15.5064 16.8874 15.5777 16.8666 15.7201 16.825Z" stroke="currentColor" stroke-width="2" stroke-linecap="round" stroke-linejoin="round"/>
</svg>
