<svg width="24" height="24" viewBox="0 0 24 24" fill="none" xmlns="http://www.w3.org/2000/svg">
<path d="M13.0985 7.1559L15.4327 4.82172C16.0552 4.19924 16.3664 3.888 16.7101 3.73687C17.2231 3.51129 17.8072 3.51129 18.3202 3.73687C18.6639 3.888 18.9751 4.19924 19.5976 4.82172C20.2201 5.44419 20.5313 5.75543 20.6824 6.09911C20.908 6.61212 20.908 7.19623 20.6824 7.70924C20.5313 8.05291 20.2201 8.36415 19.5976 8.98663L17.2634 11.3208M13.0985 7.1559L5.66391 14.5905C5.42903 14.8254 5.31159 14.9428 5.20855 15.0714C5.09911 15.2079 5.00181 15.3538 4.91779 15.5073C4.83869 15.6518 4.77539 15.8054 4.64878 16.1124C3.88176 17.9728 3.49826 18.9029 3.65754 19.493C3.8245 20.1116 4.3077 20.5948 4.92629 20.7618C5.51638 20.9211 6.44655 20.5376 8.30688 19.7705C8.61397 19.6439 8.76751 19.5806 8.91203 19.5015C9.06554 19.4175 9.21141 19.3202 9.34796 19.2108C9.47651 19.1077 9.59395 18.9903 9.82883 18.7554L17.2634 11.3208M13.0985 7.1559L17.2634 11.3208M19.7908 19.7719V19.7901M2.46738 4.9372C2.69113 4.87177 2.803 4.83905 2.90602 4.80108C3.78464 4.47723 4.47723 3.78464 4.80108 2.90602C4.83905 2.803 4.87177 2.69113 4.9372 2.46738C4.97886 2.32493 4.99969 2.2537 5.01539 2.22207C5.16236 1.92598 5.58471 1.92598 5.73168 2.22207C5.74738 2.2537 5.76821 2.32493 5.80987 2.46738C5.8753 2.69113 5.90802 2.803 5.94599 2.90602C6.26984 3.78464 6.96243 4.47723 7.84105 4.80108C7.94407 4.83905 8.05594 4.87177 8.2797 4.9372C8.42214 4.97886 8.49337 4.99969 8.525 5.01539C8.82109 5.16236 8.82109 5.58471 8.525 5.73168C8.49337 5.74738 8.42214 5.76821 8.2797 5.80987C8.05594 5.8753 7.94407 5.90802 7.84105 5.94599C6.96243 6.26984 6.26984 6.96243 5.94599 7.84105C5.90802 7.94407 5.8753 8.05594 5.80987 8.2797C5.76821 8.42214 5.74738 8.49337 5.73168 8.525C5.58471 8.82109 5.16236 8.82109 5.01539 8.525C4.99969 8.49337 4.97886 8.42214 4.9372 8.2797C4.87177 8.05594 4.83905 7.94407 4.80108 7.84105C4.47723 6.96243 3.78464 6.26984 2.90602 5.94599C2.803 5.90802 2.69113 5.8753 2.46738 5.80987C2.32493 5.76821 2.2537 5.74738 2.22207 5.73168C1.92598 5.58471 1.92598 5.16236 2.22207 5.01539C2.2537 4.99969 2.32493 4.97886 2.46738 4.9372ZM17.896 19.5101C18.0422 19.4674 18.1154 19.446 18.1827 19.4212C18.7569 19.2095 19.2095 18.7569 19.4212 18.1827C19.446 18.1154 19.4674 18.0422 19.5101 17.896C19.5374 17.8029 19.551 17.7564 19.5612 17.7357C19.6573 17.5422 19.9333 17.5422 20.0293 17.7357C20.0396 17.7564 20.0532 17.8029 20.0804 17.896C20.1232 18.0422 20.1446 18.1154 20.1694 18.1827C20.381 18.7569 20.8337 19.2095 21.4079 19.4212C21.4752 19.446 21.5483 19.4674 21.6946 19.5101C21.7876 19.5374 21.8342 19.551 21.8549 19.5612C22.0484 19.6573 22.0484 19.9333 21.8549 20.0293C21.8342 20.0396 21.7876 20.0532 21.6946 20.0804C21.5483 20.1232 21.4752 20.1446 21.4079 20.1694C20.8337 20.381 20.381 20.8337 20.1694 21.4079C20.1446 21.4752 20.1232 21.5483 20.0804 21.6946C20.0532 21.7876 20.0396 21.8342 20.0293 21.8549C19.9333 22.0484 19.6573 22.0484 19.5612 21.8549C19.551 21.8342 19.5374 21.7876 19.5101 21.6946C19.4674 21.5483 19.446 21.4752 19.4212 21.4079C19.2095 20.8337 18.7569 20.381 18.1827 20.1694C18.1154 20.1446 18.0422 20.1232 17.896 20.0804C17.8029 20.0532 17.7564 20.0396 17.7357 20.0293C17.5422 19.9333 17.5422 19.6573 17.7357 19.5612C17.7564 19.551 17.8029 19.5374 17.896 19.5101Z" stroke="currentColor" stroke-width="2" stroke-linecap="round" stroke-linejoin="round"/>
</svg>
