<svg width="24" height="24" viewBox="0 0 24 24" fill="none" xmlns="http://www.w3.org/2000/svg">
<path d="M16.2 3H7.8C6.11984 3 5.27976 3 4.63803 3.32698C4.07354 3.6146 3.6146 4.07354 3.32698 4.63803C3 5.27976 3 6.11984 3 7.8V13.2C3 14.8802 3 15.7202 3.32698 16.362C3.6146 16.9265 4.07354 17.3854 4.63803 17.673C4.88393 17.7983 5.15895 17.8756 5.49919 17.9233C5.88516 17.9773 6.07815 18.0044 6.18493 18.0405C6.6349 18.1929 6.89052 18.4869 6.979 18.9536C7 19.0644 7 19.2102 7 19.5019C7 19.9791 7 20.2177 7.04517 20.3777C7.223 21.0074 7.87251 21.3785 8.50529 21.212C8.66602 21.1698 8.87161 21.0486 9.28274 20.8063L12.9174 18.6646C13.3373 18.4172 13.5472 18.2934 13.7709 18.206C13.9694 18.1284 14.1757 18.0721 14.3862 18.0382C14.6232 18 14.8669 18 15.3543 18H16.2C17.8802 18 18.7202 18 19.362 17.673C19.9265 17.3854 20.3854 16.9265 20.673 16.362C21 15.7202 21 14.8802 21 13.2V7.8C21 6.11984 21 5.27976 20.673 4.63803C20.3854 4.07354 19.9265 3.6146 19.362 3.32698C18.7202 3 17.8802 3 16.2 3Z" stroke="currentColor" stroke-width="2" stroke-linecap="round" stroke-linejoin="round"/>
<path d="M11.4543 7.202C11.5064 7.02387 11.5325 6.9348 11.5521 6.89524C11.7359 6.52497 12.2641 6.52497 12.4479 6.89524C12.4675 6.9348 12.4935 7.02387 12.5456 7.202C12.6275 7.48181 12.6684 7.62171 12.7159 7.75053C13.1208 8.84927 13.9869 9.71537 15.0857 10.1203C15.2145 10.1678 15.3544 10.2087 15.6342 10.2906C15.8123 10.3427 15.9014 10.3687 15.941 10.3884C16.3112 10.5721 16.3112 11.1003 15.941 11.2841C15.9014 11.3037 15.8123 11.3298 15.6342 11.3819C15.3544 11.4637 15.2145 11.5046 15.0857 11.5521C13.9869 11.9571 13.1208 12.8232 12.7159 13.9219C12.6684 14.0507 12.6275 14.1906 12.5456 14.4704C12.4935 14.6486 12.4675 14.7376 12.4479 14.7772C12.2641 15.1475 11.7359 15.1475 11.5521 14.7772C11.5325 14.7376 11.5064 14.6486 11.4543 14.4704C11.3725 14.1906 11.3316 14.0507 11.2841 13.9219C10.8791 12.8232 10.013 11.9571 8.9143 11.5521C8.78548 11.5046 8.64558 11.4637 8.36577 11.3819C8.18764 11.3298 8.09857 11.3037 8.05901 11.2841C7.68874 11.1003 7.68874 10.5721 8.05901 10.3884C8.09857 10.3687 8.18764 10.3427 8.36577 10.2906C8.64558 10.2087 8.78548 10.1678 8.9143 10.1203C10.013 9.71537 10.8791 8.84927 11.2841 7.75053C11.3316 7.62171 11.3725 7.48181 11.4543 7.202Z" stroke="currentColor" stroke-width="2" stroke-linecap="round" stroke-linejoin="round"/>
</svg>
