<svg width="24" height="24" viewBox="0 0 24 24" fill="none" xmlns="http://www.w3.org/2000/svg">
<path d="M2 9H16M22 12H22.01M20 6H20.01M11.5 14.6429V19.75C11.5 20.9926 10.4926 22 9.25 22C8.00736 22 7 20.9926 7 19.75V14.7143C7 14.5148 7 14.415 6.97194 14.3349C6.92169 14.1912 6.80876 14.0783 6.66514 14.0281C6.58495 14 6.48521 14 6.28571 14C5.08876 14 4.49028 14 4.00916 13.8316C3.14742 13.5301 2.46989 12.8526 2.16835 11.9908C2 11.5097 2 10.9112 2 9.71429V6.8C2 5.11984 2 4.27976 2.32698 3.63803C2.6146 3.07354 3.07354 2.6146 3.63803 2.32698C4.27976 2 5.11984 2 6.8 2H11.2C12.8802 2 13.7202 2 14.362 2.32698C14.9265 2.6146 15.3854 3.07354 15.673 3.63803C16 4.27976 16 5.11984 16 6.8V10.1429C16 10.9396 16 11.338 15.9248 11.6676C15.6684 12.791 14.791 13.6684 13.6676 13.9248C13.338 14 12.9396 14 12.1429 14C12.0101 14 11.9437 14 11.8887 14.0125C11.7015 14.0553 11.5553 14.2015 11.5125 14.3887C11.5 14.4437 11.5 14.5101 11.5 14.6429ZM15.7203 18.1901C15.9441 18.1247 16.0559 18.092 16.1589 18.054C17.0376 17.7302 17.7302 17.0376 18.054 16.1589C18.092 16.0559 18.1247 15.9441 18.1901 15.7203C18.2318 15.5779 18.2526 15.5066 18.2683 15.475C18.4153 15.1789 18.8376 15.1789 18.9846 15.475C19.0003 15.5066 19.0211 15.5779 19.0628 15.7203C19.1282 15.9441 19.161 16.0559 19.1989 16.1589C19.5228 17.0376 20.2154 17.7302 21.094 18.054C21.197 18.092 21.3089 18.1247 21.5326 18.1901C21.6751 18.2318 21.7463 18.2526 21.7779 18.2683C22.074 18.4153 22.074 18.8376 21.7779 18.9846C21.7463 19.0003 21.6751 19.0211 21.5326 19.0628C21.3089 19.1282 21.197 19.161 21.094 19.1989C20.2154 19.5228 19.5228 20.2154 19.1989 21.094C19.161 21.197 19.1282 21.3089 19.0628 21.5326C19.0211 21.6751 19.0003 21.7463 18.9846 21.7779C18.8376 22.074 18.4153 22.074 18.2683 21.7779C18.2526 21.7463 18.2318 21.6751 18.1901 21.5326C18.1247 21.3089 18.092 21.197 18.054 21.094C17.7302 20.2154 17.0376 19.5228 16.1589 19.1989C16.0559 19.161 15.9441 19.1282 15.7203 19.0628C15.5779 19.0211 15.5066 19.0003 15.475 18.9846C15.1789 18.8376 15.1789 18.4153 15.475 18.2683C15.5066 18.2526 15.5779 18.2318 15.7203 18.1901Z" stroke="currentColor" stroke-width="2" stroke-linecap="round" stroke-linejoin="round"/>
</svg>
