<svg width="24" height="24" viewBox="0 0 24 24" fill="none" xmlns="http://www.w3.org/2000/svg">
<path d="M12 3H7.8C6.11984 3 5.27976 3 4.63803 3.32698C4.07354 3.6146 3.6146 4.07354 3.32698 4.63803C3 5.27976 3 6.11984 3 7.8V13.2C3 14.8802 3 15.7202 3.32698 16.362C3.6146 16.9265 4.07354 17.3854 4.63803 17.673C4.88393 17.7983 5.15895 17.8756 5.49919 17.9233C5.88516 17.9773 6.07815 18.0044 6.18493 18.0405C6.6349 18.1929 6.89052 18.4869 6.979 18.9536C7 19.0644 7 19.2102 7 19.5019C7 19.9791 7 20.2177 7.04517 20.3777C7.223 21.0074 7.87251 21.3785 8.50529 21.212C8.66602 21.1698 8.87161 21.0486 9.28274 20.8063L12.9174 18.6646C13.3373 18.4172 13.5472 18.2934 13.7709 18.206C13.9694 18.1284 14.1757 18.0721 14.3862 18.0382C14.6232 18 14.8669 18 15.3543 18H16.2C17.8802 18 18.7202 18 19.362 17.673C19.9265 17.3854 20.3854 16.9265 20.673 16.362C21 15.7202 21 14.8802 21 13.2V12M7.5 13.3975H11M7.5 9.89749H14M15.7203 4.9372C15.9441 4.87177 16.0559 4.83905 16.1589 4.80108C17.0376 4.47723 17.7302 3.78464 18.054 2.90602C18.092 2.803 18.1247 2.69113 18.1901 2.46738C18.2318 2.32493 18.2526 2.2537 18.2683 2.22207C18.4153 1.92598 18.8376 1.92598 18.9846 2.22207C19.0003 2.2537 19.0211 2.32493 19.0628 2.46738C19.1282 2.69113 19.161 2.803 19.1989 2.90602C19.5228 3.78464 20.2154 4.47723 21.094 4.80108C21.197 4.83905 21.3089 4.87177 21.5326 4.9372C21.6751 4.97886 21.7463 4.99969 21.7779 5.01539C22.074 5.16236 22.074 5.58471 21.7779 5.73168C21.7463 5.74738 21.6751 5.76821 21.5326 5.80987C21.3089 5.8753 21.197 5.90802 21.094 5.94599C20.2154 6.26984 19.5228 6.96243 19.1989 7.84105C19.161 7.94407 19.1282 8.05594 19.0628 8.2797C19.0211 8.42214 19.0003 8.49337 18.9846 8.525C18.8376 8.82109 18.4153 8.82109 18.2683 8.525C18.2526 8.49337 18.2318 8.42214 18.1901 8.2797C18.1247 8.05594 18.092 7.94407 18.054 7.84105C17.7302 6.96243 17.0376 6.26984 16.1589 5.94599C16.0559 5.90802 15.9441 5.8753 15.7203 5.80987C15.5779 5.76821 15.5066 5.74738 15.475 5.73168C15.1789 5.58471 15.1789 5.16236 15.475 5.01539C15.5066 4.99969 15.5779 4.97886 15.7203 4.9372Z" stroke="currentColor" stroke-width="2" stroke-linecap="round" stroke-linejoin="round"/>
</svg>
