<svg width="24" height="24" viewBox="0 0 24 24" fill="none" xmlns="http://www.w3.org/2000/svg">
<path d="M11.7412 5.73653L14.0754 3.40235C14.6979 2.77987 15.0091 2.46863 15.3528 2.3175C15.8658 2.09192 16.4499 2.09192 16.9629 2.3175C17.3066 2.46863 17.6178 2.77987 18.2403 3.40235C18.8628 4.02483 19.174 4.33606 19.3251 4.67974C19.5507 5.19275 19.5507 5.77686 19.3251 6.28987C19.174 6.63355 18.8628 6.94479 18.2403 7.56726L15.9061 9.90144M11.7412 5.73653L4.3066 13.1711C4.07172 13.406 3.95428 13.5234 3.85124 13.652C3.74179 13.7885 3.6445 13.9344 3.56048 14.0879C3.48138 14.2324 3.41807 14.386 3.29146 14.6931C2.52445 16.5534 2.14095 17.4836 2.30022 18.0737C2.46719 18.6923 2.95039 19.1755 3.56897 19.3424C4.15907 19.5017 5.08923 19.1182 6.94956 18.3512C7.25665 18.2246 7.4102 18.1613 7.55472 18.0822C7.70823 17.9981 7.8541 17.9008 7.99065 17.7914C8.1192 17.6884 8.23664 17.5709 8.47151 17.336L15.9061 9.90144M11.7412 5.73653L15.9061 9.90144M15.7201 18.1901C15.9439 18.1247 16.0558 18.0919 16.1588 18.054C17.0374 17.7301 17.73 17.0375 18.0539 16.1589C18.0918 16.0559 18.1245 15.944 18.19 15.7203C18.2316 15.5778 18.2525 15.5066 18.2682 15.4749C18.4151 15.1789 18.8375 15.1789 18.9845 15.4749C19.0002 15.5066 19.021 15.5778 19.0626 15.7203C19.1281 15.944 19.1608 16.0559 19.1988 16.1589C19.5226 17.0375 20.2152 17.7301 21.0938 18.054C21.1968 18.0919 21.3087 18.1247 21.5325 18.1901C21.6749 18.2317 21.7461 18.2526 21.7778 18.2683C22.0739 18.4152 22.0739 18.8376 21.7778 18.9846C21.7461 19.0003 21.6749 19.0211 21.5325 19.0628C21.3087 19.1282 21.1968 19.1609 21.0938 19.1989C20.2152 19.5227 19.5226 20.2153 19.1988 21.0939C19.1608 21.197 19.1281 21.3088 19.0626 21.5326C19.021 21.675 19.0002 21.7463 18.9845 21.7779C18.8375 22.074 18.4151 22.074 18.2682 21.7779C18.2525 21.7463 18.2316 21.675 18.19 21.5326C18.1245 21.3088 18.0918 21.197 18.0539 21.0939C17.73 20.2153 17.0374 19.5227 16.1588 19.1989C16.0558 19.1609 15.9439 19.1282 15.7201 19.0628C15.5777 19.0211 15.5065 19.0003 15.4748 18.9846C15.1788 18.8376 15.1788 18.4152 15.4748 18.2683C15.5065 18.2526 15.5777 18.2317 15.7201 18.1901Z" stroke="currentColor" stroke-width="2" stroke-linecap="round" stroke-linejoin="round"/>
</svg>
