<svg width="24" height="24" viewBox="0 0 24 24" fill="none" xmlns="http://www.w3.org/2000/svg">
<path d="M7.19585 20.4056C6.86757 20.8497 6.9615 21.4758 7.40563 21.8041C7.84977 22.1324 8.47593 22.0385 8.8042 21.5943L7.19585 20.4056ZM15.1909 11.2712L14.3867 10.6768L15.1909 11.2712ZM18.1371 10.9734L17.4682 11.7167C17.4786 11.7261 17.4893 11.7353 17.5002 11.7442L18.1371 10.9734ZM21.8 13.9999L22.78 14.1989C22.8534 13.8371 22.7215 13.4642 22.4369 13.2291L21.8 13.9999ZM12 2.99994C12.5523 2.99994 13 2.55223 13 1.99994C13 1.44766 12.5523 0.999943 12 0.999943V2.99994ZM15.9241 4.11909L15.6434 3.15929L15.9241 4.11909ZM16.3485 3.98739L16.0027 3.04909L16.3485 3.98739ZM18.3138 1.72943L17.354 1.44874L18.3138 1.72943ZM18.1821 2.15383L17.2438 1.80799L18.1821 2.15383ZM15.9241 4.96343L15.6434 5.92323L15.9241 4.96343ZM15.6868 4.88778L15.2422 5.78351L15.6868 4.88778ZM15.6868 4.19474L15.2422 3.29901L15.6868 4.19474ZM18.3138 7.35309L17.354 7.63378L18.3138 7.35309ZM18.1821 6.92869L17.2438 7.27453L18.1821 6.92869ZM16.3485 5.09513L16.0027 6.03343L16.3485 5.09513ZM19.1581 7.35309L20.1179 7.63378L19.1581 7.35309ZM19.0825 7.59044L19.9782 8.03504L19.0825 7.59044ZM18.3894 7.59044L17.4937 8.03504L18.3894 7.59044ZM21.5478 4.96343L21.8285 5.92323L21.5478 4.96343ZM21.1234 5.09513L21.4692 6.03343L21.1234 5.09513ZM19.2898 6.92869L20.2281 7.27453L19.2898 6.92869ZM21.5478 4.11909L21.8285 3.15929L21.5478 4.11909ZM21.7851 4.19474L22.2297 3.29901L21.7851 4.19474ZM21.7851 4.88778L22.2297 5.78351L21.7851 4.88778ZM19.1581 1.72943L20.1179 1.44874L19.1581 1.72943ZM19.2898 2.15383L20.2281 1.80799L19.2898 2.15383ZM21.1234 3.98739L21.4692 3.04909L21.1234 3.98739ZM19.0825 1.49208L19.9782 1.04748V1.04748L19.0825 1.49208ZM18.3894 1.49208L17.4937 1.04748V1.04748L18.3894 1.49208ZM10.1797 9.49994C10.1797 10.0522 9.73201 10.4999 9.17972 10.4999V12.4999C10.8366 12.4999 12.1797 11.1568 12.1797 9.49994H10.1797ZM9.17972 10.4999C8.62744 10.4999 8.17972 10.0522 8.17972 9.49994H6.17972C6.17972 11.1568 7.52287 12.4999 9.17972 12.4999V10.4999ZM8.17972 9.49994C8.17972 8.94766 8.62744 8.49994 9.17972 8.49994V6.49994C7.52287 6.49994 6.17972 7.84309 6.17972 9.49994H8.17972ZM9.17972 8.49994C9.73201 8.49994 10.1797 8.94766 10.1797 9.49994H12.1797C12.1797 7.84309 10.8366 6.49994 9.17972 6.49994V8.49994ZM8.8042 21.5943L15.995 11.8656L14.3867 10.6768L7.19585 20.4056L8.8042 21.5943ZM17.5002 11.7442L21.163 14.7708L22.4369 13.2291L18.7741 10.2025L17.5002 11.7442ZM15.995 11.8656C16.3459 11.3909 17.0294 11.3218 17.4682 11.7167L18.8061 10.2301C17.4899 9.04543 15.4393 9.2527 14.3867 10.6768L15.995 11.8656ZM12 20.9999C7.02944 20.9999 3 16.9705 3 11.9999H1C1 18.0751 5.92487 22.9999 12 22.9999V20.9999ZM3 11.9999C3 7.02938 7.02944 2.99994 12 2.99994V0.999943C5.92487 0.999943 1 5.92481 1 11.9999H3ZM20.82 13.801C19.9861 17.9086 16.353 20.9999 12 20.9999V22.9999C17.3229 22.9999 21.7607 19.2202 22.78 14.1989L20.82 13.801ZM16.2048 5.07889C16.4077 5.01957 16.5549 4.97709 16.6944 4.92568L16.0027 3.04909C15.9428 3.07115 15.8736 3.09199 15.6434 3.15929L16.2048 5.07889ZM17.354 1.44874C17.2867 1.67887 17.2659 1.74814 17.2438 1.80799L19.1204 2.49967C19.1718 2.36018 19.2143 2.21296 19.2736 2.01012L17.354 1.44874ZM16.6944 4.92568C17.8192 4.5111 18.7058 3.62446 19.1204 2.49967L17.2438 1.80799C17.0317 2.38341 16.5781 2.837 16.0027 3.04909L16.6944 4.92568ZM16.2048 4.00363C16.1699 3.99341 16.1415 3.98512 16.1172 3.97791C16.0926 3.97064 16.0758 3.96554 16.0638 3.9618C16.051 3.95778 16.0503 3.95736 16.0564 3.95957C16.06 3.96085 16.0681 3.96384 16.0794 3.96848C16.0904 3.97296 16.1086 3.98076 16.1314 3.99205L15.2422 5.78351C15.3379 5.831 15.4348 5.86059 15.4667 5.87058C15.5161 5.88602 15.5785 5.90425 15.6434 5.92323L16.2048 4.00363ZM15.6434 3.15929C15.5785 3.17827 15.5161 3.1965 15.4667 3.21194C15.4348 3.22192 15.3379 3.25152 15.2422 3.29901L16.1314 5.09047C16.1086 5.10176 16.0904 5.10956 16.0794 5.11404C16.0681 5.11868 16.06 5.12167 16.0564 5.12295C16.0503 5.12516 16.051 5.12474 16.0638 5.12072C16.0758 5.11698 16.0926 5.11188 16.1172 5.10461C16.1415 5.0974 16.1699 5.08911 16.2048 5.07889L15.6434 3.15929ZM16.1314 3.99205C16.5854 4.21742 16.5854 4.8651 16.1314 5.09047L15.2422 3.29901C14.2152 3.80878 14.2152 5.27374 15.2422 5.78351L16.1314 3.99205ZM19.2736 7.0724C19.2143 6.86956 19.1718 6.72234 19.1204 6.58285L17.2438 7.27453C17.2659 7.33438 17.2867 7.40365 17.354 7.63378L19.2736 7.0724ZM15.6434 5.92323C15.8736 5.99053 15.9428 6.01137 16.0027 6.03343L16.6944 4.15684C16.5549 4.10543 16.4077 4.06295 16.2048 4.00363L15.6434 5.92323ZM19.1204 6.58285C18.7058 5.45806 17.8192 4.57142 16.6944 4.15684L16.0027 6.03343C16.5781 6.24552 17.0317 6.69911 17.2438 7.27453L19.1204 6.58285ZM18.1983 7.0724C18.1881 7.10735 18.1798 7.13571 18.1726 7.16006C18.1653 7.18459 18.1602 7.20145 18.1565 7.21341C18.1525 7.22625 18.1521 7.2269 18.1543 7.22078C18.1555 7.21724 18.1585 7.20909 18.1632 7.19778C18.1677 7.18683 18.1755 7.16858 18.1868 7.14584L19.9782 8.03504C20.0257 7.93935 20.0553 7.84244 20.0653 7.81053C20.0807 7.76116 20.099 7.69868 20.1179 7.63378L18.1983 7.0724ZM17.354 7.63378C17.373 7.69868 17.3912 7.76116 17.4066 7.81053C17.4166 7.84244 17.4462 7.93935 17.4937 8.03504L19.2852 7.14584C19.2965 7.16858 19.3043 7.18683 19.3087 7.19778C19.3134 7.20909 19.3164 7.21724 19.3177 7.22078C19.3199 7.2269 19.3194 7.22625 19.3154 7.21341C19.3117 7.20145 19.3066 7.18459 19.2993 7.16006C19.2921 7.13571 19.2838 7.10735 19.2736 7.0724L17.354 7.63378ZM18.1868 7.14584C18.4121 6.69179 19.0598 6.69179 19.2852 7.14584L17.4937 8.03504C18.0035 9.06205 19.4684 9.06205 19.9782 8.03504L18.1868 7.14584ZM21.2671 4.00363C21.0643 4.06295 20.917 4.10543 20.7776 4.15684L21.4692 6.03343C21.5291 6.01137 21.5984 5.99053 21.8285 5.92323L21.2671 4.00363ZM20.1179 7.63378C20.1852 7.40365 20.2061 7.33438 20.2281 7.27453L18.3515 6.58285C18.3001 6.72234 18.2577 6.86956 18.1983 7.0724L20.1179 7.63378ZM20.7776 4.15684C19.6528 4.57142 18.7661 5.45806 18.3515 6.58285L20.2281 7.27453C20.4402 6.69911 20.8938 6.24552 21.4692 6.03343L20.7776 4.15684ZM21.2671 5.07889C21.302 5.08911 21.3304 5.0974 21.3548 5.10461C21.3793 5.11188 21.3962 5.11698 21.4081 5.12072C21.4209 5.12474 21.4216 5.12516 21.4155 5.12295C21.4119 5.12167 21.4038 5.11868 21.3925 5.11405C21.3815 5.10956 21.3633 5.10176 21.3405 5.09047L22.2297 3.29901C22.1341 3.25152 22.0371 3.22192 22.0052 3.21194C21.9559 3.1965 21.8934 3.17827 21.8285 3.15929L21.2671 5.07889ZM21.8285 5.92323C21.8934 5.90425 21.9559 5.88602 22.0052 5.87058C22.0371 5.8606 22.1341 5.831 22.2297 5.78351L21.3405 3.99205C21.3633 3.98076 21.3815 3.97296 21.3925 3.96847C21.4038 3.96384 21.4119 3.96085 21.4155 3.95957C21.4216 3.95736 21.4209 3.95778 21.4081 3.9618C21.3962 3.96554 21.3793 3.97064 21.3548 3.97791C21.3304 3.98512 21.302 3.99341 21.2671 4.00363L21.8285 5.92323ZM21.3405 5.09047C20.8865 4.8651 20.8865 4.21742 21.3405 3.99205L22.2297 5.78351C23.2568 5.27374 23.2568 3.80878 22.2297 3.29901L21.3405 5.09047ZM18.1983 2.01012C18.2577 2.21296 18.3001 2.36018 18.3515 2.49967L20.2281 1.80799C20.2061 1.74814 20.1852 1.67887 20.1179 1.44874L18.1983 2.01012ZM21.8285 3.15929C21.5984 3.09199 21.5291 3.07115 21.4692 3.04909L20.7776 4.92568C20.917 4.97709 21.0643 5.01957 21.2671 5.07889L21.8285 3.15929ZM18.3515 2.49967C18.7661 3.62446 19.6528 4.5111 20.7776 4.92568L21.4692 3.04909C20.8938 2.837 20.4402 2.38341 20.2281 1.80799L18.3515 2.49967ZM20.1179 1.44874C20.099 1.38384 20.0807 1.32136 20.0653 1.27199C20.0553 1.24008 20.0257 1.14317 19.9782 1.04748L18.1868 1.93668C18.1755 1.91394 18.1677 1.89569 18.1632 1.88474C18.1585 1.87344 18.1555 1.86528 18.1543 1.86174C18.1521 1.85562 18.1525 1.85627 18.1565 1.86911C18.1602 1.88107 18.1653 1.89793 18.1726 1.92246C18.1798 1.94681 18.1881 1.97517 18.1983 2.01012L20.1179 1.44874ZM19.2736 2.01012C19.2838 1.97517 19.2921 1.94681 19.2993 1.92246C19.3066 1.89793 19.3117 1.88107 19.3154 1.86911C19.3194 1.85627 19.3199 1.85562 19.3177 1.86174C19.3164 1.86528 19.3134 1.87344 19.3087 1.88474C19.3043 1.89569 19.2965 1.91394 19.2852 1.93668L17.4937 1.04748C17.4462 1.14317 17.4166 1.24008 17.4066 1.27199C17.3912 1.32136 17.373 1.38384 17.354 1.44874L19.2736 2.01012ZM19.9782 1.04748C19.4684 0.0204694 18.0035 0.0204694 17.4937 1.04748L19.2852 1.93668C19.0598 2.39073 18.4121 2.39073 18.1868 1.93668L19.9782 1.04748Z" fill="currentColor"/>
</svg>
