<svg width="24" height="24" viewBox="0 0 24 24" fill="none" xmlns="http://www.w3.org/2000/svg">
<path d="M3.63803 20.673L3.18404 21.564L3.63803 20.673ZM2.32698 19.362L1.43597 19.816L2.32698 19.362ZM21 12.5C21 13.0523 21.4477 13.5 22 13.5C22.5523 13.5 23 13.0523 23 12.5H21ZM11.7343 22C12.2866 22 12.7343 21.5523 12.7343 21C12.7343 20.4477 12.2866 20 11.7343 20V22ZM20.362 7.32698L20.816 6.43597L20.362 7.32698ZM21.673 8.63803L22.564 8.18404L21.673 8.63803ZM15 7V8C15.3635 8 15.6984 7.80272 15.8746 7.48477C16.0509 7.16681 16.0407 6.77827 15.848 6.47L15 7ZM11.7343 3.13725L11.4353 4.0915L11.7343 3.13725ZM13.91 5.25601L13.062 5.786L13.91 5.25601ZM12.7894 3.72206L12.1387 4.48137L12.7894 3.72206ZM3.09202 3.21799L3.54601 4.10899L3.09202 3.21799ZM2.21799 4.09202L3.10899 4.54601L2.21799 4.09202ZM15.7203 18.1901L15.4396 17.2303L15.7203 18.1901ZM16.1589 18.054L15.8131 17.1157L16.1589 18.054ZM18.1901 15.7203L17.2303 15.4396L18.1901 15.7203ZM18.054 16.1589L17.1157 15.8131L18.054 16.1589ZM15.7203 19.0628L15.4396 20.0226L15.7203 19.0628ZM15.475 18.9846L15.0304 19.8803L15.475 18.9846ZM15.475 18.2683L15.0304 17.3726L15.475 18.2683ZM18.1901 21.5326L17.2303 21.8133L18.1901 21.5326ZM18.054 21.094L17.1157 21.4398L18.054 21.094ZM16.1589 19.1989L15.8131 20.1372L16.1589 19.1989ZM19.0628 21.5326L20.0226 21.8133L19.0628 21.5326ZM18.9846 21.7779L19.8803 22.2225L18.9846 21.7779ZM18.2683 21.7779L17.3726 22.2225L18.2683 21.7779ZM21.5326 19.0628L21.8133 20.0226L21.5326 19.0628ZM21.094 19.1989L21.4398 20.1372L21.094 19.1989ZM19.1989 21.094L20.1372 21.4398L19.1989 21.094ZM21.5326 18.1901L21.8133 17.2303L21.5326 18.1901ZM21.7779 18.2683L22.2225 17.3726L21.7779 18.2683ZM21.7779 18.9846L22.2225 19.8803L21.7779 18.9846ZM19.0628 15.7203L20.0226 15.4396L19.0628 15.7203ZM19.1989 16.1589L20.1372 15.8131L19.1989 16.1589ZM21.094 18.054L21.4398 17.1157L21.094 18.054ZM18.9846 15.475L19.8803 15.0304L18.9846 15.475ZM18.2683 15.475L17.3726 15.0304L18.2683 15.475ZM2 8H17.2V6H2V8ZM21 11.8V12.5H23V11.8H21ZM11.7343 20H6.8V22H11.7343V20ZM3 16.2V7H1V16.2H3ZM6.8 20C5.94342 20 5.36113 19.9992 4.91104 19.9624C4.47262 19.9266 4.24842 19.8617 4.09202 19.782L3.18404 21.564C3.66937 21.8113 4.18608 21.9099 4.74817 21.9558C5.2986 22.0008 5.97642 22 6.8 22V20ZM1 16.2C1 17.0236 0.999222 17.7014 1.04419 18.2518C1.09012 18.8139 1.18868 19.3306 1.43597 19.816L3.21799 18.908C3.1383 18.7516 3.07337 18.5274 3.03755 18.089C3.00078 17.6389 3 17.0566 3 16.2H1ZM4.09202 19.782C3.7157 19.5903 3.40973 19.2843 3.21799 18.908L1.43597 19.816C1.81947 20.5686 2.43139 21.1805 3.18404 21.564L4.09202 19.782ZM17.2 8C18.0566 8 18.6389 8.00078 19.089 8.03755C19.5274 8.07337 19.7516 8.1383 19.908 8.21799L20.816 6.43597C20.3306 6.18868 19.8139 6.09012 19.2518 6.04419C18.7014 5.99922 18.0236 6 17.2 6V8ZM23 11.8C23 10.9764 23.0008 10.2986 22.9558 9.74817C22.9099 9.18608 22.8113 8.66937 22.564 8.18404L20.782 9.09202C20.8617 9.24842 20.9266 9.47262 20.9624 9.91104C20.9992 10.3611 21 10.9434 21 11.8H23ZM19.908 8.21799C20.2843 8.40973 20.5903 8.7157 20.782 9.09202L22.564 8.18404C22.1805 7.43139 21.5686 6.81947 20.816 6.43597L19.908 8.21799ZM5.2 4H9.83961V2H5.2V4ZM13.062 5.786L14.152 7.53L15.848 6.47L14.758 4.72601L13.062 5.786ZM15 6H2V8H15V6ZM3 7V6.2H1V7H3ZM9.83961 4C10.8753 4 11.1778 4.01083 11.4353 4.0915L12.0333 2.183C11.4147 1.98917 10.7461 2 9.83961 2V4ZM14.758 4.72601C14.2776 3.95729 13.9324 3.38457 13.4402 2.96274L12.1387 4.48137C12.3436 4.65694 12.5131 4.90772 13.062 5.786L14.758 4.72601ZM11.4353 4.0915C11.6937 4.17249 11.933 4.30513 12.1387 4.48137L13.4402 2.96274C13.0288 2.61025 12.5502 2.34498 12.0333 2.183L11.4353 4.0915ZM5.2 2C4.65645 2 4.18864 1.99922 3.80497 2.03057C3.40963 2.06287 3.01641 2.13419 2.63803 2.32698L3.54601 4.10899C3.59545 4.0838 3.69617 4.04612 3.96784 4.02393C4.25117 4.00078 4.62345 4 5.2 4V2ZM3 6.2C3 5.62345 3.00078 5.25117 3.02393 4.96784C3.04612 4.69617 3.0838 4.59545 3.10899 4.54601L1.32698 3.63803C1.13419 4.01641 1.06287 4.40963 1.03057 4.80497C0.999222 5.18864 1 5.65645 1 6.2H3ZM2.63803 2.32698C2.07354 2.6146 1.6146 3.07354 1.32698 3.63803L3.10899 4.54601C3.20487 4.35785 3.35785 4.20487 3.54601 4.10899L2.63803 2.32698ZM16.001 19.1499C16.2111 19.0885 16.3619 19.045 16.5048 18.9923L15.8131 17.1157C15.7499 17.139 15.677 17.1609 15.4396 17.2303L16.001 19.1499ZM17.2303 15.4396C17.1609 15.677 17.139 15.7499 17.1157 15.8131L18.9923 16.5048C19.0449 16.362 19.0885 16.2111 19.1499 16.001L17.2303 15.4396ZM16.5048 18.9923C17.6581 18.5672 18.5672 17.6581 18.9923 16.5048L17.1157 15.8131C16.8931 16.417 16.417 16.8931 15.8131 17.1157L16.5048 18.9923ZM16.001 18.103C15.9649 18.0924 15.9355 18.0838 15.9103 18.0764C15.8849 18.0689 15.8673 18.0635 15.8547 18.0596C15.8412 18.0554 15.84 18.0548 15.8457 18.0568C15.849 18.058 15.857 18.0609 15.8681 18.0655C15.8789 18.0699 15.897 18.0777 15.9196 18.0889L15.0304 19.8803C15.1266 19.9281 15.2243 19.958 15.2575 19.9684C15.3082 19.9842 15.3724 20.0029 15.4396 20.0226L16.001 18.103ZM15.4396 17.2303C15.3724 17.25 15.3082 17.2687 15.2575 17.2846C15.2243 17.295 15.1266 17.3248 15.0304 17.3726L15.9196 19.1641C15.897 19.1753 15.8789 19.183 15.8681 19.1874C15.857 19.192 15.849 19.1949 15.8457 19.1961C15.84 19.1982 15.8412 19.1976 15.8547 19.1934C15.8673 19.1894 15.8849 19.1841 15.9103 19.1766C15.9355 19.1691 15.9649 19.1605 16.001 19.1499L15.4396 17.2303ZM15.9196 18.0889C16.364 18.3095 16.364 18.9434 15.9196 19.1641L15.0304 17.3726C13.9938 17.8871 13.9938 19.3658 15.0304 19.8803L15.9196 18.0889ZM19.1499 21.2519C19.0885 21.0418 19.0449 20.891 18.9923 20.7481L17.1157 21.4398C17.139 21.503 17.1609 21.5759 17.2303 21.8133L19.1499 21.2519ZM15.4396 20.0226C15.677 20.092 15.7499 20.1139 15.8131 20.1372L16.5048 18.2606C16.362 18.208 16.2111 18.1644 16.001 18.103L15.4396 20.0226ZM18.9923 20.7481C18.5672 19.5948 17.6581 18.6857 16.5048 18.2606L15.8131 20.1372C16.417 20.3598 16.8931 20.8359 17.1157 21.4398L18.9923 20.7481ZM18.103 21.2519C18.0924 21.288 18.0839 21.3174 18.0764 21.3426C18.0689 21.3681 18.0635 21.3857 18.0596 21.3983C18.0554 21.4117 18.0548 21.4129 18.0568 21.4072C18.058 21.4039 18.0609 21.396 18.0655 21.3848C18.0699 21.374 18.0777 21.3559 18.0889 21.3333L19.8803 22.2225C19.9281 22.1263 19.958 22.0286 19.9684 21.9954C19.9842 21.9447 20.0029 21.8805 20.0226 21.8133L18.103 21.2519ZM17.2303 21.8133C17.25 21.8805 17.2687 21.9447 17.2846 21.9954C17.2949 22.0286 17.3248 22.1263 17.3726 22.2225L19.1641 21.3333C19.1753 21.3559 19.183 21.3741 19.1874 21.3848C19.192 21.396 19.1949 21.4039 19.1961 21.4072C19.1982 21.4129 19.1976 21.4118 19.1934 21.3983C19.1894 21.3857 19.1841 21.3681 19.1766 21.3426C19.1691 21.3174 19.1605 21.288 19.1499 21.2519L17.2303 21.8133ZM18.0889 21.3333C18.3095 20.8889 18.9434 20.8889 19.1641 21.3333L17.3726 22.2225C17.8871 23.2592 19.3658 23.2592 19.8803 22.2225L18.0889 21.3333ZM21.2519 18.103C21.0418 18.1644 20.891 18.208 20.7481 18.2606L21.4398 20.1372C21.503 20.1139 21.5759 20.092 21.8133 20.0226L21.2519 18.103ZM20.0226 21.8133C20.092 21.5759 20.1139 21.503 20.1372 21.4398L18.2606 20.7481C18.208 20.891 18.1644 21.0418 18.103 21.2519L20.0226 21.8133ZM20.7481 18.2606C19.5948 18.6857 18.6857 19.5948 18.2606 20.7481L20.1372 21.4398C20.3598 20.8359 20.8359 20.3598 21.4398 20.1372L20.7481 18.2606ZM21.2519 19.1499C21.288 19.1605 21.3174 19.1691 21.3426 19.1766C21.3681 19.1841 21.3857 19.1894 21.3983 19.1934C21.4117 19.1976 21.4129 19.1982 21.4072 19.1961C21.4039 19.1949 21.396 19.192 21.3848 19.1874C21.374 19.183 21.3559 19.1753 21.3333 19.1641L22.2225 17.3726C22.1263 17.3248 22.0286 17.295 21.9954 17.2846C21.9447 17.2687 21.8805 17.25 21.8133 17.2303L21.2519 19.1499ZM21.8133 20.0226C21.8805 20.0029 21.9447 19.9842 21.9954 19.9684C22.0286 19.958 22.1263 19.9281 22.2225 19.8803L21.3333 18.0889C21.3559 18.0777 21.374 18.0699 21.3848 18.0655C21.396 18.0609 21.4039 18.058 21.4072 18.0568C21.4129 18.0548 21.4117 18.0554 21.3983 18.0596C21.3857 18.0635 21.3681 18.0689 21.3426 18.0764C21.3174 18.0838 21.288 18.0924 21.2519 18.103L21.8133 20.0226ZM21.3333 19.1641C20.8889 18.9434 20.8889 18.3095 21.3333 18.0889L22.2225 19.8803C23.2592 19.3658 23.2592 17.8871 22.2225 17.3726L21.3333 19.1641ZM18.103 16.001C18.1644 16.2111 18.208 16.362 18.2606 16.5048L20.1372 15.8131C20.1139 15.7499 20.092 15.677 20.0226 15.4396L18.103 16.001ZM21.8133 17.2303C21.5759 17.1609 21.503 17.139 21.4398 17.1157L20.7481 18.9923C20.891 19.045 21.0418 19.0885 21.2519 19.1499L21.8133 17.2303ZM18.2606 16.5048C18.6857 17.6581 19.5948 18.5672 20.7481 18.9923L21.4398 17.1157C20.8359 16.8931 20.3598 16.417 20.1372 15.8131L18.2606 16.5048ZM20.0226 15.4396C20.0029 15.3724 19.9842 15.3082 19.9684 15.2575C19.958 15.2243 19.9281 15.1266 19.8803 15.0304L18.0889 15.9196C18.0777 15.897 18.0699 15.8789 18.0655 15.8681C18.0609 15.857 18.058 15.849 18.0568 15.8457C18.0548 15.84 18.0554 15.8412 18.0596 15.8547C18.0635 15.8673 18.0689 15.8849 18.0764 15.9103C18.0839 15.9355 18.0924 15.9649 18.103 16.001L20.0226 15.4396ZM19.1499 16.001C19.1605 15.9649 19.1691 15.9355 19.1766 15.9103C19.1841 15.8849 19.1894 15.8673 19.1934 15.8547C19.1976 15.8412 19.1982 15.84 19.1961 15.8457C19.1949 15.849 19.192 15.857 19.1874 15.8681C19.183 15.8789 19.1753 15.897 19.1641 15.9196L17.3726 15.0304C17.3248 15.1266 17.2949 15.2244 17.2846 15.2575C17.2687 15.3082 17.25 15.3724 17.2303 15.4396L19.1499 16.001ZM19.8803 15.0304C19.3658 13.9938 17.8871 13.9938 17.3726 15.0304L19.1641 15.9196C18.9434 16.364 18.3095 16.364 18.0889 15.9196L19.8803 15.0304Z" fill="currentColor"/>
</svg>
