<svg width="24" height="24" viewBox="0 0 24 24" fill="none" xmlns="http://www.w3.org/2000/svg">
<path d="M20 12V9.61153C20 8.8337 20 8.44479 19.9077 8.0814C19.9008 8.05415 19.8935 8.02702 19.8858 8M13 22H8.8C7.11984 22 6.27976 22 5.63803 21.673C5.07354 21.3854 4.6146 20.9265 4.32698 20.362C4 19.7202 4 18.8802 4 17.2V6.8C4 5.11984 4 4.27976 4.32698 3.63803C4.6146 3.07354 5.07354 2.6146 5.63803 2.32698C6.27976 2 7.11984 2 8.8 2H12.1329C12.8232 2 13.1683 2 13.4953 2.07401C13.6682 2.11315 13.8371 2.16748 14 2.23627M14 2.23627C14.1103 2.28283 14.2178 2.33602 14.322 2.39559C14.6131 2.56199 14.8675 2.79523 15.3764 3.26166L18.4435 6.07319C19.0169 6.59878 19.3035 6.86158 19.5091 7.17515C19.6758 7.42955 19.8028 7.7077 19.8858 8M14 2.23627V2.5M14 2.23627V6.5C14 7.32843 14.6716 8 15.5 8H19.8858M19.8858 8H19.5M8 12H16M8 15.4513H12M15.7203 18.1901C15.9441 18.1247 16.0559 18.092 16.1589 18.054C17.0376 17.7302 17.7302 17.0376 18.054 16.1589C18.092 16.0559 18.1247 15.9441 18.1901 15.7203C18.2318 15.5779 18.2526 15.5066 18.2683 15.475C18.4153 15.1789 18.8376 15.1789 18.9846 15.475C19.0003 15.5066 19.0211 15.5779 19.0628 15.7203C19.1282 15.9441 19.161 16.0559 19.1989 16.1589C19.5228 17.0376 20.2154 17.7302 21.094 18.054C21.197 18.092 21.3089 18.1247 21.5326 18.1901C21.6751 18.2318 21.7463 18.2526 21.7779 18.2683C22.074 18.4153 22.074 18.8376 21.7779 18.9846C21.7463 19.0003 21.6751 19.0211 21.5326 19.0628C21.3089 19.1282 21.197 19.161 21.094 19.1989C20.2154 19.5228 19.5228 20.2154 19.1989 21.094C19.161 21.197 19.1282 21.3089 19.0628 21.5326C19.0211 21.6751 19.0003 21.7463 18.9846 21.7779C18.8376 22.074 18.4153 22.074 18.2683 21.7779C18.2526 21.7463 18.2318 21.6751 18.1901 21.5326C18.1247 21.3089 18.092 21.197 18.054 21.094C17.7302 20.2154 17.0376 19.5228 16.1589 19.1989C16.0559 19.161 15.9441 19.1282 15.7203 19.0628C15.5779 19.0211 15.5066 19.0003 15.475 18.9846C15.1789 18.8376 15.1789 18.4153 15.475 18.2683C15.5066 18.2526 15.5779 18.2318 15.7203 18.1901Z" stroke="currentColor" stroke-width="2" stroke-linecap="round"/>
</svg>
