<svg width="24" height="24" viewBox="0 0 24 24" fill="none" xmlns="http://www.w3.org/2000/svg">
<path d="M5 4V21M5 21H3M5 21H9M9 21V4M9 21H11M3 3H11M20.2002 4.18136V4.19947M13.5845 12.673C13.8643 12.5912 14.0042 12.5503 14.133 12.5028C15.2317 12.0978 16.0978 11.2317 16.5028 10.133C16.5503 10.0042 16.5912 9.86427 16.673 9.58446C16.7251 9.40633 16.7512 9.31726 16.7708 9.2777C16.9546 8.90743 17.4828 8.90743 17.6665 9.2777C17.6862 9.31726 17.7122 9.40633 17.7643 9.58446C17.8462 9.86427 17.8871 10.0042 17.9345 10.133C18.3395 11.2317 19.2056 12.0978 20.3044 12.5028C20.4332 12.5503 20.5731 12.5912 20.8529 12.673C21.031 12.7251 21.1201 12.7512 21.1597 12.7708C21.5299 12.9546 21.5299 13.4828 21.1597 13.6665C21.1201 13.6862 21.031 13.7122 20.8529 13.7643C20.5731 13.8462 20.4332 13.8871 20.3044 13.9345C19.2056 14.3395 18.3395 15.2056 17.9345 16.3044C17.8871 16.4332 17.8462 16.5731 17.7643 16.8529C17.7122 17.031 17.6862 17.1201 17.6665 17.1597C17.4828 17.5299 16.9546 17.5299 16.7708 17.1597C16.7512 17.1201 16.7251 17.031 16.673 16.8529C16.5912 16.5731 16.5503 16.4332 16.5028 16.3044C16.0978 15.2056 15.2317 14.3395 14.133 13.9345C14.0042 13.8871 13.8643 13.8462 13.5845 13.7643C13.4063 13.7122 13.3173 13.6862 13.2777 13.6665C12.9074 13.4828 12.9074 12.9546 13.2777 12.7708C13.3173 12.7512 13.4063 12.7251 13.5845 12.673ZM18.3054 3.91955C18.4517 3.87679 18.5248 3.85541 18.5921 3.83059C19.1663 3.61895 19.619 3.16632 19.8306 2.59211C19.8554 2.52479 19.8768 2.45167 19.9196 2.30544C19.9468 2.21235 19.9604 2.1658 19.9707 2.14513C20.0667 1.95162 20.3427 1.95162 20.4388 2.14513C20.449 2.1658 20.4626 2.21235 20.4899 2.30544C20.5326 2.45167 20.554 2.52479 20.5788 2.59211C20.7905 3.16632 21.2431 3.61895 21.8173 3.83059C21.8846 3.85541 21.9578 3.87679 22.104 3.91955C22.1971 3.94678 22.2436 3.96039 22.2643 3.97065C22.4578 4.0667 22.4578 4.34272 22.2643 4.43877C22.2436 4.44903 22.1971 4.46264 22.104 4.48987C21.9578 4.53263 21.8846 4.55402 21.8173 4.57883C21.2431 4.79047 20.7905 5.2431 20.5788 5.81731C20.554 5.88464 20.5326 5.95775 20.4899 6.10398C20.4626 6.19707 20.449 6.24362 20.4388 6.2643C20.3427 6.4578 20.0667 6.4578 19.9707 6.2643C19.9604 6.24362 19.9468 6.19707 19.9196 6.10398C19.8768 5.95775 19.8554 5.88464 19.8306 5.81731C19.619 5.2431 19.1663 4.79047 18.5921 4.57883C18.5248 4.55402 18.4517 4.53263 18.3054 4.48987C18.2124 4.46264 18.1658 4.44903 18.1451 4.43877C17.9516 4.34272 17.9516 4.0667 18.1451 3.97065C18.1658 3.96039 18.2124 3.94678 18.3054 3.91955Z" stroke="currentColor" stroke-width="2" stroke-linecap="round" stroke-linejoin="round"/>
</svg>
