<svg width="24" height="24" viewBox="0 0 24 24" fill="none" xmlns="http://www.w3.org/2000/svg">
<path d="M12 7H15.5C16.8807 7 18 5.88071 18 4.5C18 3.11929 16.8807 2 15.5 2H15.4286C13.535 2 12 3.53502 12 5.42857M12 7V5.42857M12 7H8.5C7.11929 7 6 5.88071 6 4.5C6 3.11929 7.11929 2 8.5 2H8.57143C10.465 2 12 3.53502 12 5.42857M12 7V22M4 12H20V17.2C20 18.8802 20 19.7202 19.673 20.362C19.3854 20.9265 18.9265 21.3854 18.362 21.673C17.7202 22 16.8802 22 15.2 22H8.8C7.11984 22 6.27976 22 5.63803 21.673C5.07354 21.3854 4.6146 20.9265 4.32698 20.362C4 19.7202 4 18.8802 4 17.2V12ZM4.4 12H19.6C20.4401 12 20.8601 12 21.181 11.8365C21.4632 11.6927 21.6927 11.4632 21.8365 11.181C22 10.8601 22 10.4401 22 9.6V9.4C22 8.55992 22 8.13988 21.8365 7.81901C21.6927 7.53677 21.4632 7.3073 21.181 7.16349C20.8601 7 20.4401 7 19.6 7H4.4C3.55992 7 3.13988 7 2.81901 7.16349C2.53677 7.3073 2.3073 7.53677 2.16349 7.81901C2 8.13988 2 8.55992 2 9.4V9.6C2 10.4401 2 10.8601 2.16349 11.181C2.3073 11.4632 2.53677 11.6927 2.81901 11.8365C3.13988 12 3.55992 12 4.4 12Z" stroke="currentColor" stroke-width="2" stroke-linecap="round" stroke-linejoin="round"/>
</svg>
