<svg width="24" height="24" viewBox="0 0 24 24" fill="none" xmlns="http://www.w3.org/2000/svg">
<path d="M15.5 5.5H14.8C13.1198 5.5 12.2798 5.5 11.638 5.82698C11.0735 6.1146 10.6146 6.57354 10.327 7.13803C10 7.77976 10 8.61984 10 10.3V11.5M15.5 5.5C15.5 7.15685 16.8431 8.5 18.5 8.5C20.1569 8.5 21.5 7.15685 21.5 5.5C21.5 3.84315 20.1569 2.5 18.5 2.5C16.8431 2.5 15.5 3.84315 15.5 5.5ZM15.5 17.5H14.8C13.1198 17.5 12.2798 17.5 11.638 17.173C11.0735 16.8854 10.6146 16.4265 10.327 15.862C10 15.2202 10 14.3802 10 12.7V11.5M15.5 17.5C15.5 19.1569 16.8431 20.5 18.5 20.5C20.1569 20.5 21.5 19.1569 21.5 17.5C21.5 15.8431 20.1569 14.5 18.5 14.5C16.8431 14.5 15.5 15.8431 15.5 17.5ZM10 11.5L2.5 11.5" stroke="currentColor" stroke-width="2" stroke-linecap="round" stroke-linejoin="round"/>
</svg>
