<svg width="24" height="24" viewBox="0 0 24 24" fill="none" xmlns="http://www.w3.org/2000/svg">
<path d="M6 8V8.7C6 10.3802 6 11.2202 6.32698 11.862C6.6146 12.4265 7.07354 12.8854 7.63803 13.173C8.27976 13.5 9.11984 13.5 10.8 13.5H12M6 8C7.65685 8 9 6.65685 9 5C9 3.34315 7.65685 2 6 2C4.34315 2 3 3.34315 3 5C3 6.65685 4.34315 8 6 8ZM18 8V8.7C18 10.3802 18 11.2202 17.673 11.862C17.3854 12.4265 16.9265 12.8854 16.362 13.173C15.7202 13.5 14.8802 13.5 13.2 13.5H12M18 8C19.6569 8 21 6.65685 21 5C21 3.34315 19.6569 2 18 2C16.3431 2 15 3.34315 15 5C15 6.65685 16.3431 8 18 8ZM12 13.5V21" stroke="currentColor" stroke-width="2" stroke-linecap="round" stroke-linejoin="round"/>
</svg>
