<svg width="24" height="24" viewBox="0 0 24 24" fill="none" xmlns="http://www.w3.org/2000/svg">
<path d="M13.0315 4.48728L14.0315 4.4873V4.48728L13.0315 4.48728ZM13 3.48728C12.4477 3.48728 12 3.93499 12 4.48728C12 5.03956 12.4477 5.48728 13 5.48728V3.48728ZM14.9477 7.90348C15.3342 8.29794 15.9674 8.30434 16.3618 7.91778C16.7563 7.53123 16.7627 6.8981 16.3761 6.50364L14.9477 7.90348ZM13.0538 4.54216L12.3396 5.24207L12.3396 5.24207L13.0538 4.54216ZM13.0538 4.4324L12.3396 3.73248L12.3396 3.73248L13.0538 4.4324ZM16.3761 2.47092C16.7627 2.07646 16.7563 1.44333 16.3618 1.05677C15.9674 0.670219 15.3342 0.676623 14.9477 1.07108L16.3761 2.47092ZM10.9685 18.5L9.9685 18.5V18.5H10.9685ZM11 19.5C11.5523 19.5 12 19.0523 12 18.5C12 17.9478 11.5523 17.5 11 17.5V19.5ZM9.05234 15.0838C8.66578 14.6894 8.03265 14.683 7.6382 15.0695C7.24374 15.4561 7.23734 16.0892 7.62389 16.4837L9.05234 15.0838ZM10.9462 18.4452L11.6604 17.7453L11.6604 17.7453L10.9462 18.4452ZM10.9462 18.5549L11.6604 19.2548H11.6604L10.9462 18.5549ZM7.62389 20.5164C7.23734 20.9109 7.24374 21.544 7.6382 21.9306C8.03265 22.3171 8.66578 22.3107 9.05234 21.9163L7.62389 20.5164ZM5 16.1H4H5ZM7.4 18.5V19.5V18.5ZM5.16349 17.681L6.0545 17.227H6.0545L5.16349 17.681ZM5.81901 18.3365L5.36502 19.2275H5.36502L5.81901 18.3365ZM7 5.00002C7 6.10459 6.10457 7.00002 5 7.00002V9.00002C7.20914 9.00002 9 7.20916 9 5.00002H7ZM5 7.00002C3.89543 7.00002 3 6.10459 3 5.00002H1C1 7.20916 2.79086 9.00002 5 9.00002V7.00002ZM3 5.00002C3 3.89545 3.89543 3.00002 5 3.00002V1.00002C2.79086 1.00002 1 2.79089 1 5.00002H3ZM5 3.00002C6.10457 3.00002 7 3.89545 7 5.00002H9C9 2.79089 7.20914 1.00002 5 1.00002V3.00002ZM21 17.9873C21 19.0919 20.1046 19.9873 19 19.9873V21.9873C21.2091 21.9873 23 20.1964 23 17.9873H21ZM19 19.9873C17.8954 19.9873 17 19.0919 17 17.9873H15C15 20.1964 16.7909 21.9873 19 21.9873V19.9873ZM17 17.9873C17 16.8827 17.8954 15.9873 19 15.9873V13.9873C16.7909 13.9873 15 15.7782 15 17.9873H17ZM19 15.9873C20.1046 15.9873 21 16.8827 21 17.9873H23C23 15.7782 21.2091 13.9873 19 13.9873V15.9873ZM13.0315 3.48728H13V5.48728H13.0315V3.48728ZM16.3761 6.50364L13.768 3.84224L12.3396 5.24207L14.9477 7.90348L16.3761 6.50364ZM13.768 5.13232L16.3761 2.47092L14.9477 1.07108L12.3396 3.73248L13.768 5.13232ZM13.768 3.84224C13.9457 4.02353 14.0315 4.25908 14.0315 4.4873L12.0315 4.48725C12.0315 4.75521 12.1322 5.03048 12.3396 5.24207L13.768 3.84224ZM14.0315 4.48728C14.0315 4.71547 13.9457 4.95102 13.768 5.13232L12.3396 3.73248C12.1322 3.94409 12.0315 4.21936 12.0315 4.48728L14.0315 4.48728ZM10.9685 19.5H11V17.5H10.9685V19.5ZM7.62389 16.4837L10.232 19.1451L11.6604 17.7453L9.05234 15.0838L7.62389 16.4837ZM10.232 17.855L7.62389 20.5164L9.05234 21.9163L11.6604 19.2548L10.232 17.855ZM10.232 19.1451C10.0543 18.9638 9.96849 18.7282 9.9685 18.5L11.9685 18.5001C11.9685 18.2321 11.8678 17.9569 11.6604 17.7453L10.232 19.1451ZM9.9685 18.5C9.9685 18.2718 10.0543 18.0363 10.232 17.855L11.6604 19.2548C11.8678 19.0432 11.9685 18.768 11.9685 18.5H9.9685ZM20 14.9873V5.9873H18V14.9873H20ZM17.5 3.4873H14V5.4873H17.5V3.4873ZM20 5.9873C20 4.60659 18.8807 3.4873 17.5 3.4873V5.4873C17.7761 5.4873 18 5.71116 18 5.9873H20ZM4 8.00002L4 16.1H6L6 8.00002H4ZM7.4 19.5H10V17.5H7.4V19.5ZM4 16.1C4 16.5036 3.99922 16.8664 4.02376 17.1667C4.04924 17.4786 4.10694 17.8101 4.27248 18.135L6.0545 17.227C6.05429 17.2266 6.05318 17.2244 6.05132 17.2192C6.04939 17.2138 6.04618 17.2038 6.04234 17.1875C6.03428 17.1533 6.02472 17.0969 6.01711 17.0038C6.00078 16.8038 6 16.5366 6 16.1H4ZM7.4 17.5C6.96346 17.5 6.69619 17.4992 6.49623 17.4829C6.40308 17.4753 6.34672 17.4657 6.3125 17.4577C6.29622 17.4538 6.2862 17.4506 6.28079 17.4487C6.27559 17.4468 6.27341 17.4457 6.273 17.4455L5.36502 19.2275C5.68992 19.3931 6.0214 19.4508 6.33337 19.4763C6.63366 19.5008 6.99646 19.5 7.4 19.5V17.5ZM4.27248 18.135C4.51216 18.6054 4.89462 18.9879 5.36502 19.2275L6.273 17.4455C6.17892 17.3976 6.10243 17.3211 6.0545 17.227L4.27248 18.135Z" fill="currentColor"/>
</svg>
