<svg width="25" height="24" viewBox="0 0 25 24" fill="none" xmlns="http://www.w3.org/2000/svg">
<path d="M12.9999 16.4509V22.0146M12.9999 16.4509C9.11591 16.4509 6.07124 13.1159 6.42288 9.24787L6.72906 5.87996M12.9999 16.4509C14.2936 16.4509 15.4953 16.0809 16.5084 15.4444M12.9999 22.0146H16.8945M12.9999 22.0146H9.10534M19.1209 4.21086L19.5788 9.24786C19.6665 10.2129 19.5428 11.1448 19.2473 12M19.1209 4.21086C19.1209 2.98177 16.3808 1.98539 13.0008 1.98539C11.9988 1.98539 11.0529 2.07297 10.2181 2.22822M19.1209 4.21086C19.1209 5.27516 17.0663 6.16497 14.3208 6.38444M3 1.69653L23 21.6965" stroke="currentColor" stroke-width="2" stroke-linecap="round" stroke-linejoin="round"/>
</svg>
