<svg width="25" height="24" viewBox="0 0 25 24" fill="none" xmlns="http://www.w3.org/2000/svg">
<path d="M19.1265 4.2028C19.1265 5.43316 16.3841 6.43057 13.0006 6.43057C9.61708 6.43057 6.87377 5.43316 6.87377 4.2028C6.87377 2.97244 9.61708 1.97504 13.0006 1.97504C16.3841 1.97504 19.1265 2.97244 19.1265 4.2028Z" fill="#D9D9D9"/>
<path d="M19.1265 4.2028L19.5849 9.24501C19.6406 9.85871 19.6685 10.1656 19.67 10.4199C19.6886 13.5504 17.2972 16.1691 14.1779 16.434C13.9245 16.4555 13.6163 16.4555 13.0001 16.4555M19.1265 4.2028C19.1265 5.43316 16.3841 6.43057 13.0006 6.43057C9.61708 6.43057 6.87377 5.43316 6.87377 4.2028M19.1265 4.2028C19.1265 2.97244 16.3841 1.97504 13.0006 1.97504C9.61708 1.97504 6.87377 2.97244 6.87377 4.2028M6.87377 4.2028L6.41538 9.24501C6.35959 9.85871 6.3317 10.1656 6.33019 10.4199C6.31159 13.5504 8.70301 16.1691 11.8224 16.434C12.0758 16.4555 12.3839 16.4555 13.0001 16.4555M13.0001 16.4555L13.0005 22.0249M13.0005 22.0249H16.8991M13.0005 22.0249H9.10191M6.87422 10.5721C6.87422 10.5721 8.91634 8.68389 13.0006 10.5721C17.0848 12.4604 19.1269 10.5721 19.1269 10.5721" stroke="currentColor" stroke-width="2" stroke-linecap="round" stroke-linejoin="round"/>
</svg>
