<svg width="25" height="24" viewBox="0 0 25 24" fill="none" xmlns="http://www.w3.org/2000/svg">
<path d="M19.1132 4.21966L19.5706 9.25098C19.6251 9.85037 19.6524 10.1501 19.6543 10.3984C19.6792 13.538 17.2794 16.1659 14.1504 16.4254C13.9029 16.4459 13.602 16.4459 13.0001 16.4459M19.1132 4.21966C19.1132 5.44737 16.3763 6.44262 13.0001 6.44262C9.62393 6.44262 6.88699 5.44737 6.88699 4.21966M19.1132 4.21966C19.1132 2.99196 16.3763 1.9967 13.0001 1.9967C9.62393 1.9967 6.88699 2.99196 6.88699 4.21966M6.88699 4.21966L6.42959 9.25099C6.37511 9.85037 6.34786 10.1501 6.34589 10.3984C6.32104 13.538 8.72085 16.1659 11.8498 16.4254C12.0973 16.4459 12.3983 16.4459 13.0001 16.4459M13.0001 16.4459L13.0001 22.0033M13.0001 22.0033H16.8903M13.0001 22.0033H9.10995" stroke="currentColor" stroke-width="2" stroke-linecap="round" stroke-linejoin="round"/>
</svg>
