<svg width="24" height="24" viewBox="0 0 24 24" fill="none" xmlns="http://www.w3.org/2000/svg">
<path d="M7.5 3.5L7.88933 6.22533C7.92995 6.50962 7.95025 6.65177 8.0056 6.77744C8.05462 6.88876 8.12354 6.9902 8.20897 7.07678C8.30542 7.17453 8.43009 7.24577 8.67943 7.38825L11.1646 8.80836C11.2878 8.87872 11.3493 8.9139 11.4151 8.93065C11.4734 8.94548 11.5339 8.94968 11.5937 8.94304C11.6611 8.93555 11.727 8.90921 11.8586 8.85654L12.8979 8.44084C13.2934 8.28263 13.4912 8.20353 13.685 8.20401C13.8562 8.20443 14.0243 8.24876 14.1734 8.33277C14.3423 8.42793 14.4754 8.59425 14.7415 8.92689L15.4416 9.80205C15.6349 10.0436 15.7315 10.1644 15.8506 10.2136C15.9552 10.2568 16.0714 10.2632 16.1801 10.2318C16.3039 10.1961 16.4133 10.0867 16.632 9.86798L19.5 7M16.1175 20.6772C16.1826 20.3797 15.8253 19.3848 15.6261 18.6885L15.1034 16.8612C14.8247 15.8869 14.6853 15.3997 14.3949 15.1609C14.1413 14.9523 13.8136 14.8561 13.4875 14.8945C13.1141 14.9384 12.7335 15.2729 11.9722 15.9419L10.0709 17.6129C9.81054 17.8417 9.68036 17.9561 9.58998 18.095C9.50992 18.218 9.45297 18.3546 9.42195 18.4981C9.38692 18.6601 9.3973 18.833 9.41807 19.179L9.45675 19.8234C9.50276 20.59 9.52576 20.9733 9.69786 21.2395M22 12C22 17.5228 17.5228 22 12 22C6.47715 22 2 17.5228 2 12C2 6.47715 6.47715 2 12 2C17.5228 2 22 6.47715 22 12Z" stroke="currentColor" stroke-width="2" stroke-linecap="round" stroke-linejoin="round"/>
</svg>
