<svg width="24" height="24" viewBox="0 0 24 24" fill="none" xmlns="http://www.w3.org/2000/svg">
<path d="M13 21.9506C12.6711 21.9833 12.3375 22 12 22C6.47715 22 2 17.5228 2 12C2 6.47715 6.47715 2 12 2C16.8379 2 20.8734 5.43552 21.8 10M7.5 3.5L7.88933 6.22533C7.92995 6.50962 7.95025 6.65177 8.0056 6.77744C8.05462 6.88876 8.12354 6.9902 8.20897 7.07678C8.30542 7.17453 8.43009 7.24577 8.67943 7.38825L11.1646 8.80836C11.2878 8.87872 11.3493 8.9139 11.4151 8.93065C11.4734 8.94548 11.5339 8.94968 11.5937 8.94304C11.6611 8.93555 11.727 8.90921 11.8586 8.85654L12.8979 8.44084C13.2934 8.28263 13.4912 8.20353 13.685 8.20401C13.8562 8.20443 14.0243 8.24876 14.1734 8.33277C14.3423 8.42793 14.4754 8.59425 14.7415 8.92689L15.4416 9.80205C15.6349 10.0436 15.7315 10.1644 15.8506 10.2136C15.9552 10.2568 16.0714 10.2632 16.1801 10.2318C16.3039 10.1961 16.4133 10.0867 16.632 9.86798L19.5 7M7.25762 12.2475L6.75015 12.4166C6.14646 12.6178 5.84461 12.7185 5.6684 12.9133C5.51371 13.0843 5.42289 13.3036 5.41133 13.5339C5.39815 13.7963 5.54045 14.0809 5.82503 14.6501L6.7273 16.4546C6.9957 16.9914 7.12989 17.2598 7.33627 17.4049C7.51761 17.5324 7.73617 17.5961 7.95762 17.5858C8.20965 17.5742 8.46696 17.4198 8.98158 17.1111L10.332 16.3008C11.0521 15.8688 11.4121 15.6527 11.5409 15.3691C11.6535 15.1214 11.6602 14.8385 11.5596 14.5857C11.4444 14.2963 11.095 14.0633 10.3963 13.5975L8.65111 12.4341C8.41217 12.2748 8.29269 12.1951 8.16213 12.1526C8.04648 12.1149 7.92493 12.0986 7.80344 12.1045C7.66629 12.1112 7.53006 12.1566 7.25762 12.2475ZM19.3478 18.6379L18.6176 20.0982C18.3292 20.675 18.185 20.9634 18.0031 21.041C17.8453 21.1083 17.6648 21.0963 17.5172 21.0087C17.3472 20.9078 17.2424 20.6029 17.0327 19.993L15.4818 15.4811C15.2978 14.946 15.2059 14.6785 15.2681 14.5018C15.3223 14.3481 15.4432 14.2272 15.5969 14.173C15.7736 14.1107 16.0412 14.2027 16.5763 14.3866L21.0882 15.9376C21.698 16.1472 22.0029 16.252 22.1039 16.4221C22.1915 16.5697 22.2034 16.7501 22.1361 16.908C22.0586 17.0899 21.7702 17.2341 21.1934 17.5225L19.733 18.2527C19.6377 18.3003 19.5901 18.3241 19.5488 18.356C19.5122 18.3842 19.4793 18.417 19.4511 18.4537C19.4193 18.4949 19.3954 18.5426 19.3478 18.6379Z" stroke="currentColor" stroke-width="2" stroke-linecap="round" stroke-linejoin="round"/>
</svg>
