<svg width="24" height="24" viewBox="0 0 24 24" fill="none" xmlns="http://www.w3.org/2000/svg">
<path d="M5.33333 20.3333L11.0122 10.8686C11.3713 10.27 11.5509 9.97067 11.6211 9.65116C11.6831 9.36854 11.6831 9.07582 11.6211 8.7932C11.5509 8.4737 11.3713 8.1744 11.0122 7.5758L8.66667 3.66663M5.33333 20.3333L2.98783 16.4241C2.62867 15.8255 2.44909 15.5262 2.37893 15.2067C2.31687 14.9241 2.31687 14.6314 2.37893 14.3488C2.44909 14.0293 2.62867 13.73 2.98783 13.1314L8.66667 3.66663M5.33333 20.3333H16.8549C17.5155 20.3333 17.8459 20.3333 18.1427 20.2385C18.4054 20.1546 18.6479 20.0173 18.855 19.8352C19.089 19.6295 19.2589 19.3462 19.5988 18.7797L22 14.7777M8.66667 3.66663L14.4012 13.2241C14.7411 13.7907 14.911 14.0739 15.145 14.2797C15.3521 14.4618 15.5946 14.5991 15.8573 14.6829C16.1541 14.7777 16.4845 14.7777 17.1451 14.7777H22M8.66667 3.66663H13.5215C14.1822 3.66663 14.5126 3.66663 14.8094 3.76142C15.0721 3.8453 15.3145 3.9826 15.5216 4.16468C15.7556 4.37044 15.9256 4.65371 16.2655 5.22024L22 14.7777M8.66667 14.7777H22" stroke="currentColor" stroke-width="2" stroke-linecap="round" stroke-linejoin="round"/>
</svg>
