<svg width="24" height="24" viewBox="0 0 24 24" fill="none" xmlns="http://www.w3.org/2000/svg">
<path d="M2.83789 12H21.1621M12 4.70071L12 19.2992M4.95586 18.7556L18.4801 20.3559C19.4076 20.4657 19.8714 20.5206 20.2307 20.3734C20.5462 20.2442 20.8083 20.0113 20.9737 19.7131C21.1621 19.3736 21.1621 18.9066 21.1621 17.9726V6.02742C21.1621 5.09339 21.1621 4.62638 20.9737 4.28687C20.8083 3.98873 20.5462 3.75584 20.2307 3.62659C19.8714 3.47941 19.4076 3.53429 18.4801 3.64405L4.95586 5.24439C4.20643 5.33307 3.83172 5.37741 3.54915 5.55209C3.30021 5.70599 3.10173 5.92934 2.97816 6.19464C2.83789 6.49578 2.83789 6.8731 2.83789 7.62776V16.3722C2.83789 17.1269 2.83789 17.5042 2.97816 17.8054C3.10173 18.0707 3.30021 18.294 3.54915 18.4479C3.83172 18.6226 4.20643 18.6669 4.95586 18.7556Z" stroke="currentColor" stroke-width="2" stroke-linecap="round" stroke-linejoin="round"/>
</svg>
