<svg width="24" height="24" viewBox="0 0 24 24" fill="none" xmlns="http://www.w3.org/2000/svg">
<path d="M9.75021 16.0865L5.59445 21.9559M13.9057 16.0865L15.4096 18.2105M7.11682 20.0702H14.7283M7.30482 2V3.76081M12.0003 2V3.76081M16.6958 2V3.76081M10.3569 15.7321H13.6437C14.1765 15.7321 14.4428 15.7321 14.6676 15.7152C17.6262 15.4926 19.9779 13.1409 20.2005 10.1823C20.2174 9.95751 20.2174 9.69115 20.2174 9.15842C20.2174 9.02524 20.2174 8.95865 20.2132 8.90246C20.1576 8.1628 19.5696 7.57488 18.83 7.51923C18.7738 7.515 18.7072 7.515 18.574 7.515H5.42663C5.29345 7.515 5.22685 7.515 5.17066 7.51923C4.431 7.57488 3.84308 8.1628 3.78743 8.90246C3.7832 8.95865 3.7832 9.02524 3.7832 9.15842C3.7832 9.69115 3.7832 9.95751 3.80011 10.1823C4.02272 13.1409 6.3744 15.4926 9.33305 15.7152C9.55781 15.7321 9.82417 15.7321 10.3569 15.7321ZM18.773 20.2317C18.773 21.3485 17.8677 22.2539 16.7508 22.2539C15.634 22.2539 14.7287 21.3485 14.7287 20.2317C14.7287 19.1149 15.634 18.2095 16.7508 18.2095C17.8677 18.2095 18.773 19.1149 18.773 20.2317Z" stroke="currentColor" stroke-width="2" stroke-linecap="round" stroke-linejoin="round"/>
</svg>
