<svg width="24" height="24" viewBox="0 0 24 24" fill="none" xmlns="http://www.w3.org/2000/svg">
<path d="M5.63572 10.586L13.4139 18.3641M10.5855 5.6362L18.3636 13.4144M8.1106 8.11108L15.8888 15.8893M14.3332 17.4449L17.4444 14.3336C18.6325 13.1455 19.2265 12.5515 19.4491 11.8665C19.6448 11.264 19.6448 10.615 19.4491 10.0124C19.2265 9.32745 18.6325 8.73342 17.4444 7.54537L16.4545 6.55542C15.2664 5.36737 14.6724 4.77335 13.9874 4.55078C13.3849 4.35501 12.7358 4.35501 12.1333 4.55078C11.4483 4.77335 10.8543 5.36737 9.66625 6.55542L6.55498 9.66669C5.36693 10.8547 4.77291 11.4488 4.55034 12.1338C4.35457 12.7363 4.35457 13.3853 4.55034 13.9879C4.77291 14.6728 5.36693 15.2669 6.55498 16.4549L7.54493 17.4449C8.73298 18.6329 9.32701 19.2269 10.012 19.4495C10.6145 19.6453 11.2636 19.6453 11.8661 19.4495C12.5511 19.2269 13.1451 18.6329 14.3332 17.4449ZM16.7111 6.46548L15.8629 4.38337C15.2454 2.86783 17.1555 1.59959 18.3127 2.75677L21.243 5.68714C22.4002 6.84432 21.132 8.75439 19.6164 8.13694L17.5343 7.28868C17.1603 7.13629 16.8635 6.83951 16.7111 6.46548ZM6.46512 16.7115L4.383 15.8632C2.86746 15.2458 1.59923 17.1559 2.7564 18.313L5.68678 21.2434C6.84395 22.4006 8.75402 21.1323 8.13658 19.6168L7.28831 17.5347C7.13593 17.1607 6.83915 16.8639 6.46512 16.7115Z" stroke="currentColor" stroke-width="2" stroke-linecap="round" stroke-linejoin="round"/>
</svg>
