<svg width="24" height="24" viewBox="0 0 24 24" fill="none" xmlns="http://www.w3.org/2000/svg">
<path d="M12 5.76235V8.26902M12 8.26902V13.2824M12 8.26902H14.5066M12 8.26902H9.49329M5.30884 9.54418L7.02827 18.1414C7.30317 19.5159 7.44062 20.2031 7.79946 20.7172C8.1159 21.1705 8.55145 21.5276 9.05803 21.7489C9.63249 22 10.3333 22 11.7351 22H12.2649C13.6667 22 14.3675 22 14.942 21.7489C15.4485 21.5276 15.8841 21.1705 16.2005 20.7172C16.5594 20.2031 16.6968 19.5159 16.9717 18.1414L18.6912 9.54418C18.8058 8.97106 18.8631 8.6845 18.8652 8.39833C18.867 8.14439 18.8366 7.89124 18.7746 7.64496C18.7048 7.36744 18.5812 7.10262 18.3341 6.57298L17.4927 4.77015C17.0243 3.76627 16.79 3.26434 16.4287 2.89683C16.1093 2.57192 15.7201 2.32404 15.2906 2.17199C14.8048 2 14.2509 2 13.1431 2H10.8569C9.74914 2 9.19523 2 8.70942 2.17199C8.27992 2.32404 7.89069 2.57192 7.57127 2.89683C7.20998 3.26434 6.97574 3.76627 6.50727 4.77015L5.66595 6.57298C5.41878 7.10262 5.2952 7.36744 5.22539 7.64496C5.16344 7.89124 5.13302 8.14439 5.13484 8.39833C5.1369 8.6845 5.19421 8.97106 5.30884 9.54418Z" stroke="currentColor" stroke-width="2" stroke-linecap="round" stroke-linejoin="round"/>
</svg>
