<svg width="24" height="24" viewBox="0 0 24 24" fill="none" xmlns="http://www.w3.org/2000/svg">
<path d="M19.5 12.5V22H4C2.89543 22 2 21.1046 2 20C2 18.8954 2.89543 18 4 18H5C5 13.0294 8.58172 9 13 9M15 22V16.5M11 22L10 15.5M14 3L13.1548 7.64833C13.0945 7.98015 13.0644 8.14605 13.0418 8.34315C13.0255 8.48612 13.0087 8.72668 13.005 8.87053C12.9999 9.06884 13.004 9.16768 13.012 9.36535C13.083 11.1194 13.5763 13 17 13C20.4237 13 20.917 11.1194 20.988 9.36535C20.996 9.16768 21.0001 9.06884 20.995 8.87053C20.9913 8.72668 20.9745 8.48612 20.9582 8.34315C20.9356 8.14605 20.9055 7.98015 20.8451 7.64833L20 3L17.5 6H16.5L14 3Z" stroke="currentColor" stroke-width="2" stroke-linecap="round" stroke-linejoin="round"/>
</svg>
