<svg width="24" height="24" viewBox="0 0 24 24" fill="none" xmlns="http://www.w3.org/2000/svg">
<path d="M12.0006 22V12M12.0006 12V1.99997M12.0006 12L21.0006 17M12.0006 12L3.00061 6.99997M12.0006 12L3.00061 17M12.0006 12L21.0006 6.99997M13.5547 21.4954L19.6775 18.0938C20.2766 17.761 20.5761 17.5946 20.7942 17.3579C20.9872 17.1485 21.1332 16.9003 21.2225 16.63C21.3235 16.3244 21.3235 15.9817 21.3235 15.2965V8.70349C21.3235 8.0182 21.3235 7.67556 21.2225 7.36996C21.1332 7.09961 20.9872 6.85144 20.7942 6.64206C20.5761 6.40539 20.2766 6.23899 19.6775 5.90618L13.5547 2.50459C12.9875 2.18947 12.7039 2.03191 12.4035 1.97014C12.1377 1.91547 11.8635 1.91547 11.5977 1.97014C11.2974 2.03191 11.0138 2.18947 10.4466 2.50459L4.32368 5.90618C3.72463 6.23899 3.42511 6.40539 3.207 6.64206C3.01405 6.85144 2.86803 7.09961 2.7787 7.36996C2.67773 7.67556 2.67773 8.0182 2.67773 8.70348V15.2965C2.67773 15.9817 2.67773 16.3244 2.7787 16.63C2.86803 16.9003 3.01405 17.1485 3.207 17.3579C3.42511 17.5946 3.72463 17.761 4.32368 18.0938L10.4466 21.4954C11.0138 21.8105 11.2974 21.968 11.5977 22.0298C11.8635 22.0845 12.1377 22.0845 12.4035 22.0298C12.7039 21.968 12.9875 21.8105 13.5547 21.4954ZM6.72766 9.07056V14.9294L12.0006 17.8588L17.2736 14.9294V9.07056L12.0006 6.14114L6.72766 9.07056Z" stroke="currentColor" stroke-width="2" stroke-linecap="round" stroke-linejoin="round"/>
</svg>
