<svg width="24" height="24" viewBox="0 0 24 24" fill="none" xmlns="http://www.w3.org/2000/svg">
<path d="M14 7.5V5C14 3.89543 13.1046 3 12 3C10.8954 3 10 3.89543 10 5V7.5M16.5 10L19.2577 6.84831C19.7362 6.30143 20 5.59946 20 4.87279V2M17 12.5L19.525 13.4469C20.4485 13.7932 21.1428 14.5714 21.3821 15.5283L22 18M16.5 18.5L17.7 19.4C18.2036 19.7777 18.5 20.3705 18.5 21M7.5 10L4.74227 6.84831C4.26375 6.30143 4 5.59946 4 4.87279V2M7 12.5L4.47499 13.4469C3.55145 13.7932 2.85716 14.5714 2.61794 15.5283L2 18M7.5 18.5L6.3 19.4C5.79639 19.7777 5.5 20.3705 5.5 21M12 11.5V13.5M12 13.5V17.5M12 13.5H14M12 13.5H10M12 21C9.23858 21 7 18.7614 7 16V12C7 9.79086 8.79086 8 11 8H13C15.2091 8 17 9.79086 17 12V16C17 18.7614 14.7614 21 12 21Z" stroke="currentColor" stroke-width="2" stroke-linecap="round" stroke-linejoin="round"/>
</svg>
