<svg width="24" height="24" viewBox="0 0 24 24" fill="none" xmlns="http://www.w3.org/2000/svg">
<path d="M16.5 10L19.9781 6.83811C20.8539 6.04191 20.5057 4.59249 19.3638 4.28105L12.9977 2.54484C11.7952 2.21689 10.5152 2.66662 9.78211 3.67462L7.39511 6.95674C7.13493 7.3145 6.95708 7.72537 6.8743 8.15992L5 18H4C2.89543 18 2 18.8955 2 20C2 21.1046 2.89543 22 4 22H20C21.1046 22 22 21.1046 22 20C22 18.8955 21.1046 18 20 18H18.8401L16.5 10ZM16.5 10L15.4201 7.19243M13.9132 16.0868C13.9132 17.1435 13.0566 18 12 18C10.9434 18 10.0868 17.1435 10.0868 16.0868M13.9132 16.0868C13.9132 15.0302 13.0566 14.1736 12 14.1736C10.9434 14.1736 10.0868 15.0302 10.0868 16.0868M13.9132 16.0868H18.1569M10.0868 16.0868H5.4123" stroke="currentColor" stroke-width="2" stroke-linecap="round" stroke-linejoin="round"/>
</svg>
