<svg width="24" height="24" viewBox="0 0 24 24" fill="none" xmlns="http://www.w3.org/2000/svg">
<path d="M16.9489 19.3882L15.983 19.1294L16.9489 19.3882ZM15.8882 20.4489L15.6294 19.483L15.8882 20.4489ZM8.11177 20.4489L8.37059 19.483L8.11177 20.4489ZM7.05111 19.3882L8.01704 19.1294L7.05111 19.3882ZM10.1095 14.2137C9.6752 14.5549 9.59976 15.1836 9.94098 15.6178C10.2822 16.0521 10.9109 16.1275 11.3451 15.7863L10.1095 14.2137ZM12 14L12.6178 13.2137C12.2552 12.9288 11.7448 12.9288 11.3822 13.2137L12 14ZM12.6549 15.7863C13.0891 16.1275 13.7178 16.0521 14.059 15.6178C14.4002 15.1836 14.3248 14.5549 13.8905 14.2137L12.6549 15.7863ZM21 12V14.0833H23V12H21ZM3 14.0833V12H1V14.0833H3ZM5.63636 15.5H4.41667V17.5H5.63636V15.5ZM19.5833 15.5H18.3636V17.5H19.5833V15.5ZM8 18.5V17.8636H6V18.5H8ZM16 17.8636V18.5H18V17.8636H16ZM16 18.5C16 18.7416 15.9998 18.8894 15.9946 19.0014C15.9898 19.108 15.982 19.1331 15.983 19.1294L17.9148 19.647C18.0086 19.2971 18 18.9006 18 18.5H16ZM15 21.5C15.4006 21.5 15.7971 21.5086 16.147 21.4148L15.6294 19.483C15.6331 19.482 15.608 19.4898 15.5014 19.4946C15.3894 19.4998 15.2416 19.5 15 19.5V21.5ZM15.983 19.1294C15.9367 19.302 15.802 19.4367 15.6294 19.483L16.147 21.4148C17.0098 21.1836 17.6836 20.5098 17.9148 19.647L15.983 19.1294ZM9 19.5C8.75844 19.5 8.61063 19.4998 8.49861 19.4946C8.39195 19.4898 8.36685 19.482 8.37059 19.483L7.85295 21.4148C8.20292 21.5086 8.5994 21.5 9 21.5V19.5ZM6 18.5C6 18.9006 5.99141 19.2971 6.08519 19.647L8.01704 19.1294C8.01804 19.1331 8.01021 19.108 8.00535 19.0014C8.00024 18.8894 8 18.7416 8 18.5H6ZM8.37059 19.483C8.19804 19.4367 8.06327 19.302 8.01704 19.1294L6.08519 19.647C6.31635 20.5098 6.99022 21.1836 7.85295 21.4148L8.37059 19.483ZM18.3636 15.5C17.0582 15.5 16 16.5582 16 17.8636H18C18 17.6628 18.1628 17.5 18.3636 17.5V15.5ZM1 14.0833C1 15.9703 2.52969 17.5 4.41667 17.5V15.5C3.63426 15.5 3 14.8657 3 14.0833H1ZM21 14.0833C21 14.8657 20.3657 15.5 19.5833 15.5V17.5C21.4703 17.5 23 15.9703 23 14.0833H21ZM12 3C16.9706 3 21 7.02944 21 12H23C23 5.92487 18.0751 1 12 1V3ZM5.63636 17.5C5.83719 17.5 6 17.6628 6 17.8636H8C8 16.5582 6.94176 15.5 5.63636 15.5V17.5ZM12 1C5.92487 1 1 5.92487 1 12H3C3 7.02944 7.02944 3 12 3V1ZM16.7066 9.5C16.7066 10.0044 16.2977 10.4132 15.7934 10.4132V12.4132C17.4023 12.4132 18.7066 11.1089 18.7066 9.5H16.7066ZM15.7934 10.4132C15.289 10.4132 14.8802 10.0044 14.8802 9.5H12.8802C12.8802 11.1089 14.1845 12.4132 15.7934 12.4132V10.4132ZM14.8802 9.5C14.8802 8.99565 15.289 8.58679 15.7934 8.58679V6.58679C14.1845 6.58679 12.8802 7.89108 12.8802 9.5H14.8802ZM15.7934 8.58679C16.2977 8.58679 16.7066 8.99565 16.7066 9.5H18.7066C18.7066 7.89108 17.4023 6.58679 15.7934 6.58679V8.58679ZM9.11981 9.5C9.11981 10.0044 8.71095 10.4132 8.2066 10.4132V12.4132C9.81552 12.4132 11.1198 11.1089 11.1198 9.5H9.11981ZM8.2066 10.4132C7.70225 10.4132 7.2934 10.0044 7.2934 9.5H5.2934C5.2934 11.1089 6.59768 12.4132 8.2066 12.4132V10.4132ZM7.2934 9.5C7.2934 8.99565 7.70225 8.58679 8.2066 8.58679V6.58679C6.59768 6.58679 5.2934 7.89108 5.2934 9.5H7.2934ZM8.2066 8.58679C8.71095 8.58679 9.11981 8.99565 9.11981 9.5H11.1198C11.1198 7.89108 9.81552 6.58679 8.2066 6.58679V8.58679ZM11.3451 15.7863L12.6178 14.7863L11.3822 13.2137L10.1095 14.2137L11.3451 15.7863ZM11.3822 14.7863L12.6549 15.7863L13.8905 14.2137L12.6178 13.2137L11.3822 14.7863ZM15 19.5H9V21.5H15V19.5Z" fill="currentColor"/>
</svg>
