<svg width="24" height="24" viewBox="0 0 24 24" fill="none" xmlns="http://www.w3.org/2000/svg">
<path d="M4 9.49999L6 13.5L8 8.99999M20 9.49999L18 13.5L16 8.99999M17 12C17 12 13.9624 12.5 12 12.5C10.0376 12.5 7 12 7 12M12 9.49999C10.554 9.49999 8.8261 9.16477 7.21667 8.73984C4.68194 8.0706 2 9.88124 2 12.5028C2 14.655 3.83819 16.3501 5.98656 16.2214C7.90396 16.1066 10.1762 16 12 16C13.8238 16 16.096 16.1066 18.0134 16.2214C20.1618 16.3501 22 14.655 22 12.5028C22 9.88124 19.3181 8.0706 16.7833 8.73984C15.1739 9.16477 13.446 9.49999 12 9.49999Z" stroke="currentColor" stroke-width="2" stroke-linecap="round" stroke-linejoin="round"/>
</svg>
