<svg width="24" height="24" viewBox="0 0 24 24" fill="none" xmlns="http://www.w3.org/2000/svg">
<path d="M21 22L19 19M3 22L5 19M11.0048 3.75257L11.004 3.7426M13.5008 6.00991L13.5 5.99994M17 7L18 5L20.5 4L22 2M21 11.6667C21 16.8213 16.9706 21 12 21C7.02944 21 3 16.8213 3 11.6667C3 10.1122 3 9.33492 3.28108 8.73215C3.57915 8.09292 4.09292 7.57915 4.73215 7.28108C5.33492 7 6.11217 7 7.66667 7H16.3333C17.8878 7 18.6651 7 19.2679 7.28108C19.9071 7.57915 20.4208 8.09292 20.7189 8.73215C21 9.33492 21 10.1122 21 11.6667ZM7.82642 3.91321C7.82642 4.96984 6.96984 5.82642 5.91321 5.82642C4.85657 5.82642 4 4.96984 4 3.91321C4 2.85657 4.85657 2 5.91321 2C6.96984 2 7.82642 2.85657 7.82642 3.91321Z" stroke="currentColor" stroke-width="2" stroke-linecap="round" stroke-linejoin="round"/>
</svg>
