<svg width="24" height="24" viewBox="0 0 24 24" fill="none" xmlns="http://www.w3.org/2000/svg">
<path d="M11 15V20C11 21.1046 10.1046 22 9 22C7.89543 22 7 21.1046 7 20M7 20V18.5M7 20V17.5C7 15.5 8.79086 14 11 14C13.2091 14 15 15.7909 15 18V20C15 21.1046 15.8954 22 17 22C18.1046 22 19 21.1046 19 20V13.5M7 20C7 21.1046 6.10457 22 5 22C3.89543 22 3 21.1046 3 20V11C3 6.58172 6.80558 3 11.5 3C12.7477 3 13.9326 3.25302 15 3.70752M3 11.5L3 4C3 2.89543 3.89543 2 5 2C6.10457 2 7 2.89543 7 4M15 3L14.1548 7.64833C14.0945 7.98015 14.0644 8.14606 14.0418 8.34316C14.0255 8.48612 14.0087 8.72668 14.005 8.87053C13.9999 9.06885 14.004 9.16768 14.012 9.36535C14.083 11.1194 14.5763 13 18 13C21.4237 13 21.917 11.1194 21.988 9.36535C21.996 9.16768 22.0001 9.06885 21.995 8.87053C21.9913 8.72668 21.9745 8.48612 21.9582 8.34316C21.9356 8.14606 21.9055 7.98015 21.8451 7.64833L21 3L18.5 6H17.5L15 3Z" stroke="currentColor" stroke-width="2" stroke-linecap="round" stroke-linejoin="round"/>
</svg>
