<svg width="24" height="24" viewBox="0 0 24 24" fill="none" xmlns="http://www.w3.org/2000/svg">
<path d="M16.5 5.5C16.5 4.67157 15.8284 4 15 4H9C8.17157 4 7.5 4.67157 7.5 5.5M16.5 5.5C16.5 6.32843 17.1716 7 18 7C19.6569 7 21 8.34315 21 10V16.5C21 16.9643 21 17.1965 20.9807 17.3921C20.7937 19.2912 19.2912 20.7937 17.3921 20.9807C17.1965 21 16.9643 21 16.5 21H7.5C7.03566 21 6.80349 21 6.60793 20.9807C4.70882 20.7937 3.20631 19.2912 3.01926 17.3921C3 17.1965 3 16.9643 3 16.5V10C3 8.34315 4.34315 7 6 7C6.82843 7 7.5 6.32843 7.5 5.5M16.5 5.5V9M7.5 5.5V9M12 3V2M16.5 19.1367V20.5M7.5 19.1367V20.5M7.75 12.5693L8.75 11.5693L10.25 13.0693M16.25 12.5693L15.25 11.5693L13.75 13.0693M15 16.3111L13.5 17.3111L12 16.3111L10.5 17.3111L9 16.3111" stroke="currentColor" stroke-width="2" stroke-linecap="round" stroke-linejoin="round"/>
</svg>
