<svg width="24" height="24" viewBox="0 0 24 24" fill="none" xmlns="http://www.w3.org/2000/svg">
<path d="M15 9V9.02482M16.9443 20.4721C16.3498 20.1749 15.6502 20.1749 15.0557 20.4721L14 21C13.3567 21.3216 13.0351 21.4825 12.7018 21.5627C12.2405 21.6736 11.7595 21.6736 11.2982 21.5627C10.9649 21.4825 10.6433 21.3216 10 21L8.94427 20.4721C8.34984 20.1749 7.65016 20.1749 7.05573 20.4721C5.65182 21.1741 4 20.1532 4 18.5836V10C4 5.58172 7.58172 2 12 2C16.4183 2 20 5.58172 20 10V18.5836C20 20.1532 18.3482 21.1741 16.9443 20.4721ZM15.9935 9C15.9935 9.54871 15.5487 9.99353 15 9.99353C14.4513 9.99353 14.0065 9.54871 14.0065 9C14.0065 8.45129 14.4513 8.00647 15 8.00647C15.5487 8.00647 15.9935 8.45129 15.9935 9ZM9.98706 9C9.98706 9.54871 9.54224 9.99353 8.99353 9.99353C8.44482 9.99353 8 9.54871 8 9C8 8.45129 8.44482 8.00647 8.99353 8.00647C9.54224 8.00647 9.98706 8.45129 9.98706 9Z" stroke="currentColor" stroke-width="2" stroke-linecap="round" stroke-linejoin="round"/>
</svg>
