<svg width="24" height="24" viewBox="0 0 24 24" fill="none" xmlns="http://www.w3.org/2000/svg">
<path d="M14.0908 17.8408L12.5 16.25M12.5 16.25L10.9092 14.6592M12.5 16.25L10.9092 17.8408M12.5 16.25L14.0908 14.6592M11 6H14C15.1046 6 16 5.10457 16 4C16 2.89543 15.1046 2 14 2H11C9.89543 2 9 2.89543 9 4C9 5.10457 9.89543 6 11 6ZM19 15V16.5C19 19.5376 16.5376 22 13.5 22H11.5C8.46243 22 6 19.5376 6 16.5V15C6 13.6289 6.68983 12.419 7.74134 11.6983C8.93333 10.8813 9.52932 10.4728 9.66734 10.3017C9.86627 10.0552 9.84607 10.0936 9.93694 9.79011C10 9.57956 10 9.25303 10 8.6L10 6H15L15 8.6C15 9.25304 15 9.57955 15.0631 9.7901C15.1539 10.0936 15.1337 10.0552 15.3327 10.3017C15.4707 10.4728 16.0667 10.8813 17.2587 11.6983C18.3102 12.419 19 13.6289 19 15Z" stroke="currentColor" stroke-width="2" stroke-linecap="round"/>
</svg>
