<svg width="24" height="24" viewBox="0 0 24 24" fill="none" xmlns="http://www.w3.org/2000/svg">
<path d="M15.5215 9.55359L15.8332 8.8454M12 6.96448L12.3869 7.63458M8.88086 8.9491L8.19752 9.3121M20 12.5V11.5C20 7.08172 16.4183 3.5 12 3.5C7.58172 3.5 4 7.08172 4 11.5V12.5H20ZM5 16.5H19C19.465 16.5 19.6975 16.5 19.8882 16.4489C20.4059 16.3102 20.8102 15.9059 20.9489 15.3882C21 15.1975 21 14.965 21 14.5C21 14.035 21 13.8025 20.9489 13.6118C20.8102 13.0941 20.4059 12.6898 19.8882 12.5511C19.6975 12.5 19.465 12.5 19 12.5H5C4.53501 12.5 4.30252 12.5 4.11177 12.5511C3.59413 12.6898 3.18981 13.0941 3.05111 13.6118C3 13.8025 3 14.035 3 14.5C3 14.965 3 15.1975 3.05111 15.3882C3.18981 15.9059 3.59413 16.3102 4.11177 16.4489C4.30252 16.5 4.53501 16.5 5 16.5ZM4 16.5H20V18.1C20 18.9401 20 19.3601 19.8365 19.681C19.6927 19.9632 19.4632 20.1927 19.181 20.3365C18.8601 20.5 18.4401 20.5 17.6 20.5H6.4C5.55992 20.5 5.13988 20.5 4.81901 20.3365C4.53677 20.1927 4.3073 19.9632 4.16349 19.681C4 19.3601 4 18.9401 4 18.1V16.5Z" stroke="currentColor" stroke-width="2" stroke-linecap="round" stroke-linejoin="round"/>
</svg>
