<svg width="24" height="24" viewBox="0 0 24 24" fill="none" xmlns="http://www.w3.org/2000/svg">
<path d="M13.6481 3H9.18708C8.03496 3 7.4589 3 6.95849 3.18362C6.51626 3.34589 6.11845 3.61002 5.79728 3.95463C5.43386 4.34457 5.21032 4.87549 4.76323 5.93733L2.37615 11.6066C2.23566 11.9403 2.16542 12.1071 2.11598 12.2797C2.07206 12.4331 2.04044 12.5897 2.02142 12.748C2 12.9263 2 13.1073 2 13.4693V16.2C2 17.8802 2 18.7202 2.32698 19.362C2.6146 19.9265 3.07354 20.3854 3.63803 20.673C4.27976 21 5.11984 21 6.8 21H17.2C18.8802 21 19.7202 21 20.362 20.673C20.9265 20.3854 21.3854 19.9265 21.673 19.362C22 18.7202 22 17.8802 22 16.2V13.4693C22 13.1073 22 12.9263 21.9786 12.748C21.9596 12.5897 21.9279 12.4331 21.884 12.2797C21.8346 12.1071 21.7643 11.9403 21.6238 11.6066L20.9528 10.013M2.5 12.5H21.5M6 16.5H9.3501M15.6106 5.71673L17.3639 7.56129C17.5719 7.78004 17.909 7.78004 18.1169 7.56128L22 3.47608" stroke="currentColor" stroke-width="2" stroke-linecap="round"/>
</svg>
