<svg width="24" height="24" viewBox="0 0 24 24" fill="none" xmlns="http://www.w3.org/2000/svg">
<path d="M15.5707 15.9418C16.4548 15.0399 17 13.8045 17 12.4418C17 9.68035 14.7614 7.44177 12 7.44177C9.23858 7.44177 7 9.68035 7 12.4418C7 13.6743 7.44593 14.8026 8.18526 15.6742M11.9998 12.4418L8.28535 15.7707M18 5H18.0076M18 19H18.0076M6 5H6.00761M6 19H6.00761M7.8 22H16.2C17.8802 22 18.7202 22 19.362 21.673C19.9265 21.3854 20.3854 20.9265 20.673 20.362C21 19.7202 21 18.8802 21 17.2V6.8C21 5.11984 21 4.27976 20.673 3.63803C20.3854 3.07354 19.9265 2.6146 19.362 2.32698C18.7202 2 17.8802 2 16.2 2H7.8C6.11984 2 5.27976 2 4.63803 2.32698C4.07354 2.6146 3.6146 3.07354 3.32698 3.63803C3 4.27976 3 5.11984 3 6.8V17.2C3 18.8802 3 19.7202 3.32698 20.362C3.6146 20.9265 4.07354 21.3854 4.63803 21.673C5.27976 22 6.11984 22 7.8 22Z" stroke="currentColor" stroke-width="2" stroke-linecap="round" stroke-linejoin="round"/>
</svg>
