<svg width="24" height="24" viewBox="0 0 24 24" fill="none" xmlns="http://www.w3.org/2000/svg">
<path d="M21 18V12C21 7.02944 16.9706 3 12 3C7.02944 3 3 7.02944 3 12V18M5.5 21C4.11929 21 3 19.8807 3 18.5V15.5C3 14.1193 4.11929 13 5.5 13C6.88071 13 8 14.1193 8 15.5V18.5C8 19.8807 6.88071 21 5.5 21ZM18.5 21C17.1193 21 16 19.8807 16 18.5V15.5C16 14.1193 17.1193 13 18.5 13C19.8807 13 21 14.1193 21 15.5V18.5C21 19.8807 19.8807 21 18.5 21Z" stroke="currentColor" stroke-width="2" stroke-linecap="round" stroke-linejoin="round"/>
</svg>
