<svg width="24" height="24" viewBox="0 0 24 24" fill="none" xmlns="http://www.w3.org/2000/svg">
<path fill-rule="evenodd" clip-rule="evenodd" d="M12.1345 5.08988C12.0895 5.141 12.067 5.16656 12.0425 5.17523C12.0202 5.1831 11.9981 5.18311 11.9758 5.17524C11.9513 5.16657 11.9288 5.14102 11.8838 5.08992C9.87593 2.80966 6.63276 2.23459 4.18342 4.38805C1.68244 6.58692 1.33034 10.2633 3.29437 12.8639C4.65195 14.6615 8.29652 18.1165 10.4178 20.0788C10.9669 20.5867 11.2414 20.8406 11.5679 20.9411C11.8499 21.0279 12.1684 21.0279 12.4504 20.9411C12.7769 20.8406 13.0514 20.5867 13.6005 20.0788C15.7218 18.1165 19.3664 14.6615 20.7239 12.8639C22.688 10.2633 22.3788 6.56379 19.8349 4.38805C17.3435 2.25726 14.1407 2.81059 12.1345 5.08988Z" stroke="currentColor" stroke-width="2" stroke-linecap="round"/>
</svg>
