<svg width="24" height="24" viewBox="0 0 24 24" fill="none" xmlns="http://www.w3.org/2000/svg">
<path d="M22 12C22 17.5228 17.5228 22 12 22C6.47715 22 2 17.5228 2 12C2 6.47715 6.47715 2 12 2C17.5228 2 22 6.47715 22 12Z" stroke="currentColor" stroke-width="2" stroke-linecap="round"/>
<path fill-rule="evenodd" clip-rule="evenodd" d="M12.1232 8.77198C12.0761 8.82295 12.0526 8.84844 12.0287 8.85663C12.0063 8.86429 11.9863 8.86429 11.9639 8.85664C11.94 8.84846 11.9164 8.82297 11.8693 8.77201C10.774 7.58688 9.04971 7.30568 7.74177 8.45562C6.3821 9.65105 6.19067 11.6497 7.25843 13.0636C7.85847 13.8581 9.28031 15.2482 10.4108 16.3136C10.9498 16.8216 11.2194 17.0755 11.5497 17.1786C11.8314 17.2664 12.1612 17.2664 12.4429 17.1786C12.7732 17.0755 13.0427 16.8216 13.5817 16.3136C14.7123 15.2482 16.1341 13.8581 16.7341 13.0636C17.8019 11.6497 17.6338 9.63848 16.2508 8.45562C14.9204 7.3178 13.2169 7.58779 12.1232 8.77198Z" stroke="currentColor" stroke-width="2" stroke-linecap="round"/>
</svg>
