<svg width="24" height="24" viewBox="0 0 24 24" fill="none" xmlns="http://www.w3.org/2000/svg">
<path d="M3 8.88289C3 8.1976 3 7.85496 3.10097 7.54936C3.19029 7.27901 3.33632 7.03085 3.52927 6.82147C3.74737 6.58479 4.04689 6.41839 4.64594 6.08559L10.4459 2.86337C11.0132 2.54825 11.2968 2.39069 11.5971 2.32892C11.8629 2.27425 12.1371 2.27425 12.4029 2.32892C12.7032 2.39069 12.9868 2.54825 13.5541 2.86337L19.3541 6.08559C19.9531 6.41839 20.2526 6.58479 20.4707 6.82147C20.6637 7.03085 20.8097 7.27901 20.899 7.54936C21 7.85496 21 8.1976 21 8.88289V15.1171C21 15.8024 21 16.145 20.899 16.4506C20.8097 16.721 20.6637 16.9692 20.4707 17.1785C20.2526 17.4152 19.9531 17.5816 19.3541 17.9144L13.5541 21.1366C12.9868 21.4518 12.7032 21.6093 12.4029 21.6711C12.1371 21.7257 11.8629 21.7257 11.5971 21.6711C11.2968 21.6093 11.0132 21.4518 10.4459 21.1366L4.64594 17.9144C4.0469 17.5816 3.74737 17.4152 3.52927 17.1785C3.33632 16.9692 3.19029 16.721 3.10097 16.4506C3 16.145 3 15.8024 3 15.1171V8.88289Z" stroke="currentColor" stroke-width="2" stroke-linecap="round" stroke-linejoin="round"/>
</svg>
