<svg width="24" height="24" viewBox="0 0 24 24" fill="none" xmlns="http://www.w3.org/2000/svg">
<path d="M8.88208 21C8.1968 21 7.85415 21 7.54856 20.899C7.2782 20.8097 7.03004 20.6637 6.82066 20.4707C6.58399 20.2526 6.41758 19.9531 6.08478 19.3541L2.86256 13.5541C2.54744 12.9868 2.38988 12.7032 2.32811 12.4029C2.27344 12.1371 2.27344 11.8629 2.32811 11.5971C2.38988 11.2968 2.54744 11.0132 2.86256 10.4459L6.08478 4.64594C6.41758 4.0469 6.58399 3.74737 6.82066 3.52927C7.03004 3.33632 7.2782 3.19029 7.54856 3.10097C7.85415 3 8.1968 3 8.88208 3L15.1163 3C15.8016 3 16.1442 3 16.4498 3.10097C16.7202 3.19029 16.9683 3.33632 17.1777 3.52927C17.4144 3.74737 17.5808 4.04689 17.9136 4.64594L21.1358 10.4459C21.4509 11.0132 21.6085 11.2968 21.6703 11.5971C21.7249 11.8629 21.7249 12.1371 21.6703 12.4029C21.6085 12.7032 21.4509 12.9868 21.1358 13.5541L17.9136 19.3541C17.5808 19.9531 17.4144 20.2526 17.1777 20.4707C16.9683 20.6637 16.7202 20.8097 16.4498 20.899C16.1442 21 15.8016 21 15.1163 21H8.88208Z" stroke="currentColor" stroke-width="2" stroke-linecap="round" stroke-linejoin="round"/>
</svg>
