<svg width="24" height="24" viewBox="0 0 24 24" fill="none" xmlns="http://www.w3.org/2000/svg">
<path d="M9.5 22H6.8C5.11984 22 4.27976 22 3.63803 21.673C3.07354 21.3854 2.6146 20.9265 2.32698 20.362C2 19.7202 2 18.8802 2 17.2V11.4C2 10.52 2 10.08 2.11534 9.67616C2.21749 9.31847 2.38527 8.98291 2.61013 8.68657C2.864 8.352 3.216 8.088 3.92 7.56L9.12 3.66C10.1528 2.88542 10.6692 2.49813 11.2363 2.34883C11.7369 2.21706 12.2631 2.21706 12.7637 2.34883C13.3308 2.49813 13.8472 2.88542 14.88 3.66L20 7.5M16.2841 12.1523L14.6841 12.6527C14.0794 12.8419 13.777 12.9364 13.553 13.1189C13.3553 13.28 13.2019 13.4888 13.1072 13.7258C13 13.9941 13 14.3112 13 14.9453V15.3848C13 16.5586 13 17.1455 13.1269 17.6983C13.2559 18.2608 13.4812 18.7966 13.7928 19.2822C14.0991 19.7595 14.5184 20.1698 15.3569 20.9905C15.9126 21.5343 16.1904 21.8062 16.5063 21.9163C16.826 22.0279 17.174 22.0279 17.4937 21.9163C17.8096 21.8062 18.0874 21.5343 18.6431 20.9905C19.4816 20.1698 19.9009 19.7595 20.2072 19.2822C20.5188 18.7966 20.7441 18.2608 20.8731 17.6983C21 17.1455 21 16.5586 21 15.3848V14.9453C21 14.3112 21 13.9941 20.8928 13.7258C20.7981 13.4888 20.6447 13.28 20.447 13.1189C20.223 12.9364 19.9206 12.8419 19.3159 12.6527L17.7159 12.1523C17.4499 12.0691 17.317 12.0275 17.1813 12.011C17.0609 11.9963 16.9391 11.9963 16.8187 12.011C16.683 12.0275 16.5501 12.0691 16.2841 12.1523Z" stroke="currentColor" stroke-width="2" stroke-linecap="round" stroke-linejoin="round"/>
</svg>
