<svg width="24" height="24" viewBox="0 0 24 24" fill="none" xmlns="http://www.w3.org/2000/svg">
<path d="M8.85938 12.8163H11.9997M11.9997 12.8163H15.1401M11.9997 12.8163V9.67599M11.9997 12.8163V15.9567M3 12.3006L3 16.2C3 17.8802 3 18.7202 3.32698 19.362C3.6146 19.9265 4.07354 20.3854 4.63803 20.673C5.27976 21 6.11984 21 7.8 21H16.2C17.8802 21 18.7202 21 19.362 20.673C19.9265 20.3854 20.3854 19.9265 20.673 19.362C21 18.7202 21 17.8802 21 16.2V12.3006C21 11.2688 21 10.7529 20.8781 10.2705C20.7701 9.84296 20.5921 9.43623 20.3514 9.06676C20.0798 8.64992 19.7009 8.29983 18.943 7.59966L15.2572 4.19452C14.1086 3.13336 13.5343 2.60278 12.8818 2.40211C12.3072 2.22542 11.6928 2.22542 11.1182 2.40211C10.4657 2.60278 9.89136 3.13336 8.74275 4.19452L5.057 7.59966C4.29913 8.29983 3.9202 8.64992 3.6486 9.06676C3.40788 9.43623 3.2299 9.84296 3.12187 10.2705C3 10.7529 3 11.2688 3 12.3006Z" stroke="currentColor" stroke-width="2" stroke-linecap="round"/>
</svg>
