<svg width="24" height="24" viewBox="0 0 24 24" fill="none" xmlns="http://www.w3.org/2000/svg">
<path d="M18.943 7.59964L15.2572 4.1945C14.1086 3.13334 13.5343 2.60276 12.8818 2.40209C12.3072 2.2254 11.6928 2.2254 11.1182 2.40209C10.4657 2.60276 9.89136 3.13334 8.74275 4.1945L5.057 7.59964C4.29913 8.29981 3.9202 8.6499 3.6486 9.06674C3.40788 9.43621 3.2299 9.84294 3.12187 10.2705C3 10.7528 3 11.2687 3 12.3005V18.6C3 19.4401 3 19.8601 3.16349 20.181C3.3073 20.4632 3.53677 20.6927 3.81901 20.8365C4.13988 21 4.55992 21 5.4 21H6.6C7.44008 21 7.86012 21 8.18099 20.8365C8.46323 20.6927 8.6927 20.4632 8.83651 20.181C9 19.8601 9 19.4401 9 18.6V15.4C9 14.5599 9 14.1399 9.16349 13.819C9.3073 13.5368 9.53677 13.3073 9.81901 13.1635C10.1399 13 10.5599 13 11.4 13H12.6C13.4401 13 13.8601 13 14.181 13.1635C14.4632 13.3073 14.6927 13.5368 14.8365 13.819C15 14.1399 15 14.5599 15 15.4V18.6C15 19.4401 15 19.8601 15.1635 20.181C15.3073 20.4632 15.5368 20.6927 15.819 20.8365C16.1399 21 16.5599 21 17.4 21H18.6C19.4401 21 19.8601 21 20.181 20.8365C20.4632 20.6927 20.6927 20.4632 20.8365 20.181C21 19.8601 21 19.4401 21 18.6V12.3005C21 11.2687 21 10.7528 20.8781 10.2705C20.7701 9.84294 20.5921 9.43621 20.3514 9.06674C20.0798 8.6499 19.7009 8.29981 18.943 7.59964Z" stroke="currentColor" stroke-width="2" stroke-linecap="round" stroke-linejoin="round"/>
</svg>
