<svg width="24" height="24" viewBox="0 0 24 24" fill="none" xmlns="http://www.w3.org/2000/svg">
<path d="M7 15.9293C7 15.9293 8.5 16.9293 12 16.9293C15.5 16.9293 17 15.9293 17 15.9293M3 12.3006L3 16.2001C3 17.8802 3 18.7203 3.32698 19.362C3.6146 19.9265 4.07354 20.3855 4.63803 20.6731C5.27976 21.0001 6.11984 21.0001 7.8 21.0001H16.2C17.8802 21.0001 18.7202 21.0001 19.362 20.6731C19.9265 20.3855 20.3854 19.9265 20.673 19.362C21 18.7203 21 17.8802 21 16.2001V12.3006C21 11.2688 21 10.7529 20.8781 10.2706C20.7701 9.84302 20.5921 9.43629 20.3514 9.06682C20.0798 8.64998 19.7009 8.29989 18.943 7.59972L15.2572 4.19458C14.1086 3.13342 13.5343 2.60284 12.8818 2.40217C12.3072 2.22548 11.6928 2.22548 11.1182 2.40217C10.4657 2.60284 9.89136 3.13342 8.74275 4.19458L5.057 7.59972C4.29913 8.29989 3.9202 8.64998 3.6486 9.06682C3.40788 9.43629 3.2299 9.84302 3.12187 10.2706C3 10.7529 3 11.2688 3 12.3006Z" stroke="currentColor" stroke-width="2" stroke-linecap="round" stroke-linejoin="round"/>
</svg>
