<svg width="24" height="24" viewBox="0 0 24 24" fill="none" xmlns="http://www.w3.org/2000/svg">
<path d="M11.5406 21H7.8C6.11984 21 5.27976 21 4.63803 20.673C4.07354 20.3854 3.6146 19.9265 3.32698 19.362C3 18.7202 3 17.8802 3 16.2V12.3006C3 11.2688 3 10.7529 3.12187 10.2705C3.2299 9.84296 3.40788 9.43623 3.6486 9.06676C3.9202 8.64992 4.29913 8.29983 5.057 7.59966L8.74275 4.19452C9.89136 3.13336 10.4657 2.60278 11.1182 2.40211C11.6928 2.22542 12.3072 2.22542 12.8818 2.40211C13.5343 2.60278 14.1086 3.13336 15.2572 4.19452L18.943 7.59966C19.7009 8.29983 20.0798 8.64992 20.3514 9.06676C20.4663 9.24316 20.567 9.42807 20.6525 9.61967M20.1944 16.7334V14.9778C20.1944 14.0083 19.4084 13.2223 18.4388 13.2223C17.4693 13.2223 16.6833 14.0083 16.6833 14.9778V16.7334M16.6131 22H20.2646C20.8545 22 21.1495 22 21.3748 21.8852C21.573 21.7842 21.7341 21.6231 21.8351 21.4249C21.9499 21.1996 21.9499 20.9046 21.9499 20.3147V18.4187C21.9499 17.8288 21.9499 17.5338 21.8351 17.3085C21.7341 17.1103 21.573 16.9492 21.3748 16.8482C21.1495 16.7334 20.8545 16.7334 20.2646 16.7334H16.6131C16.0232 16.7334 15.7282 16.7334 15.5029 16.8482C15.3047 16.9492 15.1436 17.1103 15.0426 17.3085C14.9278 17.5338 14.9278 17.8288 14.9278 18.4187V20.3147C14.9278 20.9046 14.9278 21.1996 15.0426 21.4249C15.1436 21.6231 15.3047 21.7842 15.5029 21.8852C15.7282 22 16.0232 22 16.6131 22Z" stroke="currentColor" stroke-width="2" stroke-linecap="round"/>
</svg>
