<svg width="24" height="24" viewBox="0 0 24 24" fill="none" xmlns="http://www.w3.org/2000/svg">
<path d="M22 11.2563L15.3049 4.90008C14.1423 3.79642 13.5611 3.24459 12.8974 3.03653C12.3131 2.85338 11.6869 2.85338 11.1026 3.03653C10.4389 3.24459 9.85765 3.79642 8.69514 4.90008L2 11.2563M19.9258 9.44721V17.8C19.9258 18.9201 19.9258 19.4801 19.7078 19.9079C19.516 20.2843 19.2101 20.5902 18.8338 20.782C18.4059 21 17.8459 21 16.7258 21H7.27422C6.15411 21 5.59406 21 5.16624 20.782C4.78991 20.5902 4.48395 20.2843 4.29221 19.9079C4.07422 19.4801 4.07422 18.9201 4.07422 17.8V9.44721M15 20.9999V15.9999C15 15.0681 15 14.6021 14.8478 14.2346C14.6448 13.7445 14.2554 13.3552 13.7654 13.1522C13.3978 12.9999 12.9319 12.9999 12 12.9999C11.0681 12.9999 10.6022 12.9999 10.2346 13.1522C9.74458 13.3552 9.35523 13.7445 9.15224 14.2346C9 14.6021 9 15.0681 9 15.9999V20.9999H15Z" stroke="currentColor" stroke-width="2" stroke-linecap="round" stroke-linejoin="round"/>
</svg>
