<svg width="24" height="24" viewBox="0 0 24 24" fill="none" xmlns="http://www.w3.org/2000/svg">
<path d="M8.74275 4.19458C9.89136 3.13342 10.4657 2.60284 11.1182 2.40217C11.6928 2.22548 12.3072 2.22548 12.8818 2.40217C13.5343 2.60284 14.1086 3.13342 15.2572 4.19458L18.943 7.59972C19.7009 8.29989 20.0798 8.64998 20.3514 9.06682C20.5921 9.43629 20.7701 9.84302 20.8781 10.2706C21 10.7529 21 11.2688 21 12.3006V16.2001C21 17.8802 21 18.7203 20.673 19.362C20.3854 19.9265 19.9265 20.3855 19.362 20.6731C18.7202 21.0001 17.8802 21.0001 16.2 21.0001H7.8C6.11984 21.0001 5.27976 21.0001 4.63803 20.6731C4.07354 20.3855 3.6146 19.9265 3.32698 19.362C3 18.7203 3 17.8802 3 16.2001L3 12.3006C3 11.2688 3 10.7529 3.12187 10.2706C3.2299 9.84302 3.40788 9.43629 3.6486 9.06682C3.9202 8.64998 4.29913 8.29989 5.057 7.59972L8.74275 4.19458Z" stroke="currentColor" stroke-width="2" stroke-linecap="round" stroke-linejoin="round"/>
<path d="M9 16.0001C9 15.0682 9 14.6022 9.15224 14.2347C9.35523 13.7446 9.74458 13.3553 10.2346 13.1523C10.6022 13.0001 11.0681 13.0001 12 13.0001C12.9319 13.0001 13.3978 13.0001 13.7654 13.1523C14.2554 13.3553 14.6448 13.7446 14.8478 14.2347C15 14.6022 15 15.0682 15 16.0001V21.0001H9V16.0001Z" stroke="currentColor" stroke-width="2" stroke-linecap="round" stroke-linejoin="round"/>
</svg>
