<svg width="24" height="24" viewBox="0 0 24 24" fill="none" xmlns="http://www.w3.org/2000/svg">
<path d="M3 14.5H11V17.1C11 17.9401 11 18.3601 10.8365 18.681C10.6927 18.9632 10.4632 19.1927 10.181 19.3365C9.86012 19.5 9.44008 19.5 8.6 19.5H3L3 14.5ZM3 14.5L3 9.5M3 14.5H13.6C14.4401 14.5 14.8601 14.5 15.181 14.3365C15.4632 14.1927 15.6927 13.9632 15.8365 13.681C16 13.3601 16 12.9401 16 12.1V9.5L3 9.5M3 9.5V4.5L18.6 4.5C19.4401 4.5 19.8601 4.5 20.181 4.66349C20.4632 4.8073 20.6927 5.03677 20.8365 5.31902C21 5.63988 21 6.05992 21 6.9V7.1C21 7.94008 21 8.36012 20.8365 8.68099C20.6927 8.96323 20.4632 9.1927 20.181 9.33651C19.8601 9.5 19.4401 9.5 18.6 9.5H3ZM3 3V21" stroke="currentColor" stroke-width="2" stroke-linecap="round" stroke-linejoin="round"/>
</svg>
