<svg width="24" height="24" viewBox="0 0 24 24" fill="none" xmlns="http://www.w3.org/2000/svg">
<path d="M6.12945 7.2662L7.0863 6.97562L6.12945 7.2662ZM8.13744 9.42496L8.69214 8.59291L8.13744 9.42496ZM6.68236 8.29933L7.45491 7.66437L6.68236 8.29933ZM17.8705 7.2662L16.9137 6.97562L17.8705 7.2662ZM15.8626 9.42496L16.4173 10.257L15.8626 9.42496ZM17.3176 8.29933L16.5451 7.66437L17.3176 8.29933ZM16.908 2.21799L16.454 3.10899L16.908 2.21799ZM17.782 3.09202L16.891 3.54601L17.782 3.09202ZM7.09202 2.21799L7.54601 3.10899L7.09202 2.21799ZM6.21799 3.09202L7.10899 3.54601L6.21799 3.09202ZM15.3079 15.4071C15.7674 15.7134 16.3883 15.5893 16.6946 15.1297C17.001 14.6702 16.8768 14.0493 16.4173 13.743L15.3079 15.4071ZM6 18.5689H5H6ZM6.12945 16.7338L7.0863 17.0244L6.12945 16.7338ZM8.13744 14.575L8.69214 15.4071H8.69214L8.13744 14.575ZM6.68236 15.7007L7.45491 16.3356L6.68236 15.7007ZM9.2 22V23V22ZM7.09202 21.782L7.54601 20.891H7.54601L7.09202 21.782ZM6 18.8H7H6ZM6.21799 20.908L7.10899 20.454L6.21799 20.908ZM4 1C3.44772 1 3 1.44772 3 2C3 2.55228 3.44772 3 4 3V1ZM20 3C20.5523 3 21 2.55228 21 2C21 1.44772 20.5523 1 20 1V3ZM4 21C3.44772 21 3 21.4477 3 22C3 22.5523 3.44772 23 4 23V21ZM20.0757 16.1515C20.0757 15.5992 19.628 15.1515 19.0757 15.1515C18.5235 15.1515 18.0757 15.5992 18.0757 16.1515H20.0757ZM18.0757 22C18.0757 22.5523 18.5235 23 19.0757 23C19.628 23 20.0757 22.5523 20.0757 22H18.0757ZM22 20.0757C22.5523 20.0757 23 19.628 23 19.0757C23 18.5235 22.5523 18.0757 22 18.0757V20.0757ZM16.1515 18.0757C15.5992 18.0757 15.1515 18.5235 15.1515 19.0757C15.1515 19.628 15.5992 20.0757 16.1515 20.0757V18.0757ZM9.2 3H14.8V1H9.2V3ZM17 5.2V5.43112H19V5.2H17ZM7 5.43112V5.2H5V5.43112H7ZM15.3079 8.59291L11.4453 11.1679L12.5547 12.8321L16.4173 10.257L15.3079 8.59291ZM12.5547 11.1679L8.69214 8.59291L7.58274 10.257L11.4453 12.8321L12.5547 11.1679ZM5 5.43112C5 6.30807 4.98981 6.95489 5.1726 7.55679L7.0863 6.97562C7.01019 6.72499 7 6.4326 7 5.43112H5ZM8.69214 8.59291C7.85886 8.03739 7.62123 7.86672 7.45491 7.66437L5.90982 8.93429C6.30923 9.42025 6.85307 9.77057 7.58274 10.257L8.69214 8.59291ZM5.1726 7.55679C5.32541 8.05995 5.57592 8.52804 5.90982 8.93429L7.45491 7.66437C7.28796 7.46125 7.1627 7.2272 7.0863 6.97562L5.1726 7.55679ZM17 5.43112C17 6.4326 16.9898 6.72499 16.9137 6.97562L18.8274 7.55679C19.0102 6.95489 19 6.30806 19 5.43112H17ZM16.4173 10.257C17.1469 9.77057 17.6908 9.42025 18.0902 8.93429L16.5451 7.66437C16.3788 7.86672 16.1411 8.03739 15.3079 8.59291L16.4173 10.257ZM16.9137 6.97562C16.8373 7.2272 16.712 7.46125 16.5451 7.66437L18.0902 8.93429C18.4241 8.52804 18.6746 8.05995 18.8274 7.55679L16.9137 6.97562ZM14.8 3C15.3766 3 15.7488 3.00078 16.0322 3.02393C16.3038 3.04612 16.4045 3.0838 16.454 3.10899L17.362 1.32698C16.9836 1.13419 16.5904 1.06287 16.195 1.03057C15.8114 0.999222 15.3436 1 14.8 1V3ZM19 5.2C19 4.65645 19.0008 4.18864 18.9694 3.80497C18.9371 3.40963 18.8658 3.01641 18.673 2.63803L16.891 3.54601C16.9162 3.59545 16.9539 3.69617 16.9761 3.96784C16.9992 4.25117 17 4.62345 17 5.2H19ZM16.454 3.10899C16.6422 3.20487 16.7951 3.35785 16.891 3.54601L18.673 2.63803C18.3854 2.07354 17.9265 1.6146 17.362 1.32698L16.454 3.10899ZM9.2 1C8.65645 1 8.18864 0.999222 7.80497 1.03057C7.40963 1.06287 7.01641 1.13419 6.63803 1.32698L7.54601 3.10899C7.59545 3.0838 7.69617 3.04612 7.96784 3.02393C8.25117 3.00078 8.62345 3 9.2 3V1ZM7 5.2C7 4.62345 7.00078 4.25117 7.02393 3.96784C7.04612 3.69617 7.0838 3.59545 7.10899 3.54601L5.32698 2.63803C5.13419 3.01641 5.06287 3.40963 5.03057 3.80497C4.99922 4.18864 5 4.65645 5 5.2H7ZM6.63803 1.32698C6.07354 1.6146 5.6146 2.07354 5.32698 2.63803L7.10899 3.54601C7.20487 3.35785 7.35785 3.20487 7.54601 3.10899L6.63803 1.32698ZM13.5 21H9.2V23H13.5V21ZM7 18.8V18.5689H5V18.8H7ZM8.69214 15.4071L12.5547 12.8321L11.4453 11.1679L7.58274 13.743L8.69214 15.4071ZM11.4453 12.8321L15.3079 15.4071L16.4173 13.743L12.5547 11.1679L11.4453 12.8321ZM7 18.5689C7 17.5674 7.01019 17.275 7.0863 17.0244L5.1726 16.4432C4.98981 17.0451 5 17.6919 5 18.5689H7ZM7.58274 13.743C6.85308 14.2294 6.30923 14.5798 5.90982 15.0657L7.45491 16.3356C7.62123 16.1333 7.85886 15.9626 8.69214 15.4071L7.58274 13.743ZM7.0863 17.0244C7.1627 16.7728 7.28796 16.5388 7.45491 16.3356L5.90982 15.0657C5.57592 15.472 5.32541 15.9401 5.1726 16.4432L7.0863 17.0244ZM9.2 21C8.62345 21 8.25117 20.9992 7.96784 20.9761C7.69617 20.9539 7.59545 20.9162 7.54601 20.891L6.63803 22.673C7.01641 22.8658 7.40962 22.9371 7.80497 22.9694C8.18864 23.0008 8.65645 23 9.2 23V21ZM5 18.8C5 19.3436 4.99922 19.8114 5.03057 20.195C5.06287 20.5904 5.13419 20.9836 5.32698 21.362L7.10899 20.454C7.0838 20.4045 7.04612 20.3038 7.02393 20.0322C7.00078 19.7488 7 19.3766 7 18.8H5ZM7.54601 20.891C7.35785 20.7951 7.20487 20.6422 7.10899 20.454L5.32698 21.362C5.6146 21.9265 6.07354 22.3854 6.63803 22.673L7.54601 20.891ZM4 3H20V1H4V3ZM4 23H13.5V21H4V23ZM18.0757 16.1515V19.0757H20.0757V16.1515H18.0757ZM18.0757 19.0757V22H20.0757V19.0757H18.0757ZM22 18.0757H19.0757V20.0757H22V18.0757ZM19.0757 18.0757H16.1515V20.0757H19.0757V18.0757Z" fill="currentColor"/>
</svg>
