<svg width="24" height="24" viewBox="0 0 24 24" fill="none" xmlns="http://www.w3.org/2000/svg">
<path d="M12 12L15.8626 9.42496C16.644 8.90398 17.0348 8.64349 17.3176 8.29933C17.5681 7.99464 17.7559 7.64357 17.8705 7.2662C18 6.83994 18 6.37033 18 5.43112V5.2C18 4.0799 18 3.51984 17.782 3.09202C17.5903 2.71569 17.2843 2.40973 16.908 2.21799C16.4802 2 15.9201 2 14.8 2H9.2C8.0799 2 7.51984 2 7.09202 2.21799C6.71569 2.40973 6.40973 2.71569 6.21799 3.09202C6 3.51984 6 4.0799 6 5.2V5.43112C6 6.37033 6 6.83994 6.12945 7.2662C6.24406 7.64357 6.43194 7.99464 6.68236 8.29933C6.96523 8.64349 7.35597 8.90398 8.13744 9.42496L12 12ZM12 12L8.13744 14.575C7.35597 15.096 6.96523 15.3565 6.68236 15.7007C6.43194 16.0054 6.24406 16.3564 6.12945 16.7338C6 17.1601 6 17.6297 6 18.5689V18.8C6 19.9201 6 20.4802 6.21799 20.908C6.40973 21.2843 6.71569 21.5903 7.09202 21.782C7.51984 22 8.07989 22 9.2 22H14.8C15.9201 22 16.4802 22 16.908 21.782C17.2843 21.5903 17.5903 21.2843 17.782 20.908C18 20.4802 18 19.9201 18 18.8V18.5689C18 17.6297 18 17.1601 17.8705 16.7338C17.7559 16.3564 17.5681 16.0054 17.3176 15.7007C17.0348 15.3565 16.644 15.096 15.8626 14.575L12 12ZM4 2H20M4 22H20M9 19H15" stroke="currentColor" stroke-width="2" stroke-linecap="round" stroke-linejoin="round"/>
</svg>
