<svg width="24" height="24" viewBox="0 0 24 24" fill="none" xmlns="http://www.w3.org/2000/svg">
<path d="M14.8 2H9.2C8.0799 2 7.51984 2 7.09202 2.21799C6.71569 2.40973 6.40973 2.71569 6.21799 3.09202C6 3.51984 6 4.0799 6 5.2V5.43112M14.8 2C15.9201 2 16.4802 2 16.908 2.21799C17.2843 2.40973 17.5903 2.71569 17.782 3.09202C18 3.51984 18 4.0799 18 5.2V5.43112C18 6.37032 18 6.83994 17.8705 7.2662C17.7559 7.64357 17.5681 7.99464 17.3176 8.29933C17.0348 8.64349 16.644 8.90398 15.8626 9.42496L12.75 11.5M14.8 2H20M9.2 22C8.07989 22 7.51984 22 7.09202 21.782C6.71569 21.5903 6.40973 21.2843 6.21799 20.908C6 20.4802 6 19.9201 6 18.8V18.5689C6 17.6297 6 17.1601 6.12945 16.7338C6.24406 16.3564 6.43194 16.0054 6.68236 15.7007C6.96523 15.3565 7.35598 15.096 8.13744 14.575L9.10308 13.9313M9.2 22H4M9.2 22H17M2 2L22 22" stroke="currentColor" stroke-width="2" stroke-linecap="round" stroke-linejoin="round"/>
</svg>
