<svg width="24" height="25" viewBox="0 0 24 25" fill="none" xmlns="http://www.w3.org/2000/svg">
<path d="M12 12.0396L15.8626 9.46451C16.644 8.94353 17.0348 8.68304 17.3176 8.33888C17.5681 8.03419 17.7559 7.68312 17.8705 7.30575C18 6.87949 18 6.40988 18 5.47067V5.23955C18 4.11945 18 3.55939 17.782 3.13157C17.5903 2.75525 17.2843 2.44928 16.908 2.25754C16.4802 2.03955 15.9201 2.03955 14.8 2.03955H9.2C8.0799 2.03955 7.51984 2.03955 7.09202 2.25754C6.71569 2.44928 6.40973 2.75525 6.21799 3.13157C6 3.55939 6 4.11945 6 5.23955V5.47067C6 6.40988 6 6.87949 6.12945 7.30575C6.24406 7.68312 6.43194 8.03419 6.68236 8.33888C6.96523 8.68304 7.35597 8.94353 8.13744 9.46451L12 12.0396ZM12 12.0396L8.13744 14.6146C7.35597 15.1356 6.96523 15.3961 6.68236 15.7402C6.43194 16.0449 6.24406 16.396 6.12945 16.7733C6 17.1996 6 17.6692 6 18.6084V18.8396C6 19.9597 6 20.5197 6.21799 20.9475C6.40973 21.3239 6.71569 21.6298 7.09202 21.8216C7.51984 22.0395 8.07989 22.0396 9.2 22.0396H14.8C15.9201 22.0396 16.4802 22.0396 16.908 21.8216C17.2843 21.6298 17.5903 21.3239 17.782 20.9475C18 20.5197 18 19.9597 18 18.8396V18.6084C18 17.6692 18 17.1996 17.8705 16.7733C17.7559 16.396 17.5681 16.0449 17.3176 15.7402C17.0348 15.3961 16.644 15.1356 15.8626 14.6146L12 12.0396ZM4 2.03955H20M4 22.0396H20" stroke="currentColor" stroke-width="2" stroke-linecap="round" stroke-linejoin="round"/>
</svg>
