<svg width="24" height="24" viewBox="0 0 24 24" fill="none" xmlns="http://www.w3.org/2000/svg">
<path d="M8.25952 17.208C8.25952 17.208 8.67513 14.4891 12 14.4891C15.3249 14.4891 15.7405 17.208 15.7405 17.208M15 4C15 2.89543 14.1046 2 13 2H11C9.89543 2 9 2.89543 9 4M8.8 22H15.2C16.8802 22 17.7202 22 18.362 21.673C18.9265 21.3854 19.3854 20.9265 19.673 20.362C20 19.7202 20 18.8802 20 17.2V8.8C20 7.11984 20 6.27976 19.673 5.63803C19.3854 5.07354 18.9265 4.6146 18.362 4.32698C17.7202 4 16.8802 4 15.2 4H8.8C7.11984 4 6.27976 4 5.63803 4.32698C5.07354 4.6146 4.6146 5.07354 4.32698 5.63803C4 6.27976 4 7.11984 4 8.8V17.2C4 18.8802 4 19.7202 4.32698 20.362C4.6146 20.9265 5.07354 21.3854 5.63803 21.673C6.27976 22 7.11984 22 8.8 22ZM14.104 10.896C14.104 12.058 13.162 13 12 13C10.838 13 9.89598 12.058 9.89598 10.896C9.89598 9.73396 10.838 8.79196 12 8.79196C13.162 8.79196 14.104 9.73396 14.104 10.896Z" stroke="currentColor" stroke-width="2" stroke-linecap="round" stroke-linejoin="round"/>
</svg>
