<svg width="24" height="24" viewBox="0 0 24 24" fill="none" xmlns="http://www.w3.org/2000/svg">
<path d="M8.00002 21L14.2914 12.4882C15.0526 11.4582 15.4333 10.9433 15.9154 10.7289C16.3386 10.5407 16.814 10.5053 17.2605 10.6286C17.7691 10.7691 18.2219 11.2219 19.1275 12.1275L21 14M11.1797 9.5C11.1797 10.6046 10.2843 11.5 9.17972 11.5C8.07515 11.5 7.17972 10.6046 7.17972 9.5C7.17972 8.39543 8.07515 7.5 9.17972 7.5C10.2843 7.5 11.1797 8.39543 11.1797 9.5ZM22 12C22 17.5228 17.5228 22 12 22C6.47715 22 2 17.5228 2 12C2 6.47715 6.47715 2 12 2C17.5228 2 22 6.47715 22 12Z" stroke="currentColor" stroke-width="2" stroke-linecap="round" stroke-linejoin="round"/>
</svg>
