<svg width="24" height="24" viewBox="0 0 24 24" fill="none" xmlns="http://www.w3.org/2000/svg">
<path d="M21 14H22C22 13.6552 21.8224 13.3348 21.53 13.152L21 14ZM12 4.00002C12.5523 4.00002 13 3.5523 13 3.00002C13 2.44773 12.5523 2.00002 12 2.00002V4.00002ZM7.27407 20.3123C6.89424 20.7132 6.91135 21.3461 7.31228 21.726C7.71321 22.1058 8.34615 22.0887 8.72598 21.6878L7.27407 20.3123ZM15.2002 13.3998L15.9261 14.0876V14.0876L15.2002 13.3998ZM19.2192 12.887L19.7492 12.039L19.7492 12.039L19.2192 12.887ZM16.5461 12.2216L16.1557 11.301H16.1557L16.5461 12.2216ZM17.6206 12.0846L17.4738 13.0737L17.6206 12.0846ZM16.2959 4.08738C15.7437 4.08738 15.2959 4.5351 15.2959 5.08738C15.2959 5.63967 15.7437 6.08738 16.2959 6.08738V4.08738ZM22 6.08738C22.5523 6.08738 23 5.63967 23 5.08738C23 4.5351 22.5523 4.08738 22 4.08738V6.08738ZM18.6239 7.10375C18.2373 7.49821 18.2437 8.13134 18.6382 8.51789C19.0326 8.90445 19.6658 8.89804 20.0523 8.50359L18.6239 7.10375ZM21.9462 5.14226L22.6604 5.84218V5.84218L21.9462 5.14226ZM21.9462 5.03251L22.6604 4.33259V4.33259L21.9462 5.03251ZM20.0523 1.67118C19.6658 1.27672 19.0326 1.27032 18.6382 1.65687C18.2437 2.04343 18.2373 2.67656 18.6239 3.07101L20.0523 1.67118ZM18 20H6V22H18V20ZM4 18V6.00002H2V18H4ZM6 20C4.89543 20 4 19.1046 4 18H2C2 20.2092 3.79086 22 6 22V20ZM20 18C20 19.1046 19.1046 20 18 20V22C20.2091 22 22 20.2092 22 18H20ZM6 2.00002C3.79086 2.00002 2 3.79088 2 6.00002H4C4 4.89545 4.89543 4.00002 6 4.00002V2.00002ZM20 14V18H22V14H20ZM6 4.00002H12V2.00002H6V4.00002ZM8.72598 21.6878L15.9261 14.0876L14.4742 12.7121L7.27407 20.3123L8.72598 21.6878ZM18.6892 13.735L20.47 14.848L21.53 13.152L19.7492 12.039L18.6892 13.735ZM15.9261 14.0876C16.2569 13.7385 16.4681 13.5164 16.6427 13.3576C16.8079 13.2072 16.8887 13.1626 16.9366 13.1423L16.1557 11.301C15.8195 11.4436 15.548 11.6496 15.2966 11.8784C15.0544 12.0987 14.7847 12.3843 14.4742 12.7121L15.9261 14.0876ZM19.7492 12.039C19.3664 11.7997 19.0336 11.591 18.7439 11.4385C18.4431 11.2802 18.1285 11.149 17.7673 11.0954L17.4738 13.0737C17.5253 13.0814 17.6147 13.1043 17.8124 13.2083C18.0212 13.3183 18.2814 13.4801 18.6892 13.735L19.7492 12.039ZM16.9366 13.1423C17.1059 13.0704 17.2918 13.0467 17.4738 13.0737L17.7673 11.0954C17.2214 11.0144 16.6638 11.0855 16.1557 11.301L16.9366 13.1423ZM10 9.00002C10 9.5523 9.55228 10 9 10V12C10.6569 12 12 10.6569 12 9.00002H10ZM9 10C8.44772 10 8 9.5523 8 9.00002H6C6 10.6569 7.34315 12 9 12V10ZM8 9.00002C8 8.44773 8.44772 8.00002 9 8.00002V6.00002C7.34315 6.00002 6 7.34316 6 9.00002H8ZM9 8.00002C9.55228 8.00002 10 8.44773 10 9.00002H12C12 7.34316 10.6569 6.00002 9 6.00002V8.00002ZM16.2959 6.08738L21.9685 6.08738V4.08738L16.2959 4.08738V6.08738ZM21.9685 6.08738H22V4.08738H21.9685V6.08738ZM20.0523 8.50359L22.6604 5.84218L21.232 4.44234L18.6239 7.10375L20.0523 8.50359ZM22.6604 4.33259L20.0523 1.67118L18.6239 3.07101L21.232 5.73242L22.6604 4.33259ZM22.6604 5.84218C22.8678 5.63062 22.9685 5.35537 22.9685 5.08736L20.9685 5.08741C20.9685 4.85911 21.0544 4.62359 21.232 4.44234L22.6604 5.84218ZM22.9685 5.08738C22.9685 4.8194 22.8678 4.54415 22.6604 4.33259L21.232 5.73242C21.0544 5.55116 20.9685 5.31564 20.9685 5.08738H22.9685Z" fill="currentColor"/>
</svg>
