<svg width="24" height="24" viewBox="0 0 24 24" fill="none" xmlns="http://www.w3.org/2000/svg">
<path d="M7.19585 20.4056C6.86757 20.8497 6.9615 21.4759 7.40563 21.8042C7.84977 22.1325 8.47593 22.0385 8.8042 21.5944L7.19585 20.4056ZM15.1909 11.2712L14.3867 10.6768L15.1909 11.2712ZM18.1371 10.9734L17.4682 11.7167L17.4839 11.7308L17.5002 11.7443L18.1371 10.9734ZM21.8 14L22.78 14.1989C22.8534 13.8371 22.7215 13.4643 22.4369 13.2291L21.8 14ZM12 3C12.5523 3 13 2.55228 13 2C13 1.44772 12.5523 1 12 1V3ZM16.2959 4.08738C15.7437 4.08738 15.2959 4.5351 15.2959 5.08738C15.2959 5.63967 15.7437 6.08738 16.2959 6.08738V4.08738ZM22 6.08738C22.5523 6.08738 23 5.63967 23 5.08738C23 4.5351 22.5523 4.08738 22 4.08738V6.08738ZM18.6239 7.10375C18.2373 7.49821 18.2437 8.13134 18.6382 8.51789C19.0326 8.90445 19.6658 8.89804 20.0523 8.50359L18.6239 7.10375ZM21.9462 5.14226L22.6604 5.84218V5.84218L21.9462 5.14226ZM21.9462 5.03251L22.6604 4.33259V4.33259L21.9462 5.03251ZM20.0523 1.67118C19.6658 1.27672 19.0326 1.27032 18.6382 1.65687C18.2437 2.04343 18.2373 2.67656 18.6239 3.07101L20.0523 1.67118ZM10.1797 9.5C10.1797 10.0523 9.73201 10.5 9.17972 10.5V12.5C10.8366 12.5 12.1797 11.1569 12.1797 9.5H10.1797ZM9.17972 10.5C8.62744 10.5 8.17972 10.0523 8.17972 9.5H6.17972C6.17972 11.1569 7.52287 12.5 9.17972 12.5V10.5ZM8.17972 9.5C8.17972 8.94772 8.62744 8.5 9.17972 8.5V6.5C7.52287 6.5 6.17972 7.84315 6.17972 9.5H8.17972ZM9.17972 8.5C9.73201 8.5 10.1797 8.94772 10.1797 9.5H12.1797C12.1797 7.84315 10.8366 6.5 9.17972 6.5V8.5ZM8.8042 21.5944L15.995 11.8656L14.3867 10.6768L7.19585 20.4056L8.8042 21.5944ZM17.5002 11.7443L21.163 14.7709L22.4369 13.2291L18.7741 10.2025L17.5002 11.7443ZM15.995 11.8656C16.3459 11.3909 17.0294 11.3218 17.4682 11.7167L18.8061 10.2301C17.4899 9.04549 15.4393 9.25276 14.3867 10.6768L15.995 11.8656ZM12 21C7.02944 21 3 16.9706 3 12H1C1 18.0751 5.92487 23 12 23V21ZM3 12C3 7.02944 7.02944 3 12 3V1C5.92487 1 1 5.92487 1 12H3ZM20.82 13.8011C19.9861 17.9087 16.353 21 12 21V23C17.3229 23 21.7607 19.2203 22.78 14.1989L20.82 13.8011ZM16.2959 6.08738L21.9685 6.08738V4.08738L16.2959 4.08738V6.08738ZM21.9685 6.08738H22V4.08738H21.9685V6.08738ZM20.0523 8.50359L22.6604 5.84218L21.232 4.44234L18.6239 7.10375L20.0523 8.50359ZM22.6604 4.33259L20.0523 1.67118L18.6239 3.07101L21.232 5.73242L22.6604 4.33259ZM22.6604 5.84218C22.8678 5.63062 22.9685 5.35537 22.9685 5.08736L20.9685 5.08741C20.9685 4.85911 21.0544 4.62359 21.232 4.44234L22.6604 5.84218ZM22.9685 5.08738C22.9685 4.8194 22.8678 4.54415 22.6604 4.33259L21.232 5.73242C21.0544 5.55116 20.9685 5.31564 20.9685 5.08738H22.9685Z" fill="currentColor"/>
</svg>
