<svg width="24" height="24" viewBox="0 0 24 24" fill="none" xmlns="http://www.w3.org/2000/svg">
<path d="M7.19585 20.4056C6.86757 20.8497 6.9615 21.4759 7.40563 21.8042C7.84977 22.1325 8.47593 22.0385 8.8042 21.5944L7.19585 20.4056ZM15.1909 11.2712L14.3867 10.6768L15.1909 11.2712ZM18.1371 10.9734L17.4682 11.7167L17.4839 11.7308L17.5002 11.7443L18.1371 10.9734ZM21.8 14L22.78 14.1989C22.8534 13.8371 22.7215 13.4643 22.4369 13.2291L21.8 14ZM12 3C12.5523 3 13 2.55228 13 2C13 1.44772 12.5523 1 12 1V3ZM22 6.08738C22.5523 6.08738 23 5.63967 23 5.08738C23 4.5351 22.5523 4.08738 22 4.08738V6.08738ZM16.2959 4.08738C15.7437 4.08738 15.2959 4.5351 15.2959 5.08738C15.2959 5.63967 15.7437 6.08738 16.2959 6.08738V4.08738ZM18.2436 8.50359C18.6302 8.89804 19.2633 8.90445 19.6578 8.51789C20.0522 8.13134 20.0586 7.4982 19.6721 7.10375L18.2436 8.50359ZM16.3497 5.14226L15.6355 5.84218L15.6355 5.84218L16.3497 5.14226ZM16.3497 5.03251L15.6355 4.33259V4.33259L16.3497 5.03251ZM19.6721 3.07101C20.0586 2.67656 20.0522 2.04343 19.6578 1.65687C19.2633 1.27032 18.6302 1.27672 18.2436 1.67117L19.6721 3.07101ZM10.1797 9.5C10.1797 10.0523 9.73201 10.5 9.17972 10.5V12.5C10.8366 12.5 12.1797 11.1569 12.1797 9.5H10.1797ZM9.17972 10.5C8.62744 10.5 8.17972 10.0523 8.17972 9.5H6.17972C6.17972 11.1569 7.52287 12.5 9.17972 12.5V10.5ZM8.17972 9.5C8.17972 8.94772 8.62744 8.5 9.17972 8.5V6.5C7.52287 6.5 6.17972 7.84315 6.17972 9.5H8.17972ZM9.17972 8.5C9.73201 8.5 10.1797 8.94772 10.1797 9.5H12.1797C12.1797 7.84315 10.8366 6.5 9.17972 6.5V8.5ZM8.8042 21.5944L15.995 11.8656L14.3867 10.6768L7.19585 20.4056L8.8042 21.5944ZM17.5002 11.7443L21.163 14.7709L22.4369 13.2291L18.7741 10.2025L17.5002 11.7443ZM15.995 11.8656C16.3459 11.3909 17.0294 11.3218 17.4682 11.7167L18.8061 10.2301C17.4899 9.04549 15.4393 9.25276 14.3867 10.6768L15.995 11.8656ZM12 21C7.02944 21 3 16.9706 3 12H1C1 18.0751 5.92487 23 12 23V21ZM3 12C3 7.02944 7.02944 3 12 3V1C5.92487 1 1 5.92487 1 12H3ZM20.82 13.8011C19.9861 17.9087 16.353 21 12 21V23C17.3229 23 21.7607 19.2203 22.78 14.1989L20.82 13.8011ZM22 4.08738L16.3274 4.08738V6.08738L22 6.08738V4.08738ZM16.3274 4.08738H16.2959V6.08738H16.3274V4.08738ZM19.6721 7.10375L17.0639 4.44234L15.6355 5.84218L18.2436 8.50359L19.6721 7.10375ZM17.0639 5.73242L19.6721 3.07101L18.2436 1.67117L15.6355 4.33259L17.0639 5.73242ZM17.0639 4.44234C17.2416 4.62363 17.3275 4.85918 17.3274 5.08741L15.3274 5.08736C15.3274 5.35531 15.4281 5.63058 15.6355 5.84218L17.0639 4.44234ZM17.3274 5.08738C17.3274 5.31557 17.2416 5.55112 17.0639 5.73242L15.6355 4.33259C15.4281 4.5442 15.3274 4.81947 15.3274 5.08738H17.3274Z" fill="currentColor"/>
</svg>
