<svg width="24" height="24" viewBox="0 0 24 24" fill="none" xmlns="http://www.w3.org/2000/svg">
<path d="M21 14H22C22 13.6552 21.8224 13.3347 21.53 13.152L21 14ZM12 4C12.5523 4 13 3.55228 13 3C13 2.44772 12.5523 2 12 2V4ZM7.27407 20.3123C6.89424 20.7132 6.91135 21.3461 7.31228 21.726C7.71321 22.1058 8.34615 22.0887 8.72598 21.6877L7.27407 20.3123ZM15.2002 13.3998L15.9261 14.0876L15.2002 13.3998ZM19.2192 12.887L19.7492 12.039L19.7492 12.039L19.2192 12.887ZM16.5461 12.2216L16.1557 11.301H16.1557L16.5461 12.2216ZM17.6206 12.0845L17.4738 13.0737L17.6206 12.0845ZM18.2837 7.70405C18.2837 8.25634 18.7314 8.70405 19.2837 8.70405C19.836 8.70405 20.2837 8.25634 20.2837 7.70405H18.2837ZM20.2837 2C20.2837 1.44772 19.836 1 19.2837 1C18.7314 1 18.2837 1.44772 18.2837 2H20.2837ZM15.8675 3.94767C15.4731 4.33422 15.4667 4.96736 15.8532 5.36181C16.2398 5.75626 16.8729 5.76267 17.2674 5.37611L15.8675 3.94767ZM19.2289 2.05378L18.5289 1.33956V1.33956L19.2289 2.05378ZM19.3386 2.05378L20.0385 1.33956V1.33956L19.3386 2.05378ZM21.3001 5.37611C21.6946 5.76267 22.3277 5.75626 22.7142 5.36181C23.1008 4.96736 23.0944 4.33422 22.6999 3.94767L21.3001 5.37611ZM18 20H6V22H18V20ZM4 18V6H2V18H4ZM6 20C4.89543 20 4 19.1046 4 18H2C2 20.2091 3.79086 22 6 22V20ZM20 18C20 19.1046 19.1046 20 18 20V22C20.2091 22 22 20.2091 22 18H20ZM6 2C3.79086 2 2 3.79086 2 6H4C4 4.89543 4.89543 4 6 4V2ZM20 14V18H22V14H20ZM6 4H12V2H6V4ZM8.72598 21.6877L15.9261 14.0876L14.4742 12.7121L7.27407 20.3123L8.72598 21.6877ZM18.6892 13.735L20.47 14.848L21.53 13.152L19.7492 12.039L18.6892 13.735ZM15.9261 14.0876C16.2569 13.7385 16.4681 13.5164 16.6427 13.3576C16.8079 13.2072 16.8887 13.1626 16.9366 13.1423L16.1557 11.301C15.8195 11.4436 15.548 11.6496 15.2966 11.8784C15.0544 12.0987 14.7847 12.3843 14.4742 12.7121L15.9261 14.0876ZM19.7492 12.039C19.3664 11.7997 19.0336 11.591 18.7439 11.4385C18.4431 11.2802 18.1285 11.149 17.7673 11.0954L17.4738 13.0737C17.5253 13.0813 17.6147 13.1043 17.8124 13.2083C18.0212 13.3182 18.2814 13.4801 18.6892 13.735L19.7492 12.039ZM16.9366 13.1423C17.1059 13.0704 17.2918 13.0467 17.4738 13.0737L17.7673 11.0954C17.2214 11.0144 16.6638 11.0855 16.1557 11.301L16.9366 13.1423ZM10 9C10 9.55228 9.55228 10 9 10V12C10.6569 12 12 10.6569 12 9H10ZM9 10C8.44772 10 8 9.55228 8 9H6C6 10.6569 7.34315 12 9 12V10ZM8 9C8 8.44772 8.44772 8 9 8V6C7.34315 6 6 7.34315 6 9H8ZM9 8C9.55228 8 10 8.44772 10 9H12C12 7.34315 10.6569 6 9 6V8ZM20.2837 7.70405V2.0315H18.2837V7.70405H20.2837ZM20.2837 2.0315V2H18.2837V2.0315H20.2837ZM17.2674 5.37611L19.9288 2.768L18.5289 1.33956L15.8675 3.94767L17.2674 5.37611ZM18.6387 2.768L21.3001 5.37611L22.6999 3.94767L20.0385 1.33956L18.6387 2.768ZM19.9288 2.768C19.7475 2.94565 19.5119 3.03151 19.2837 3.0315L19.2838 1.0315C19.0158 1.0315 18.7405 1.1322 18.5289 1.33956L19.9288 2.768ZM19.2837 3.0315C19.0556 3.0315 18.82 2.94568 18.6387 2.768L20.0385 1.33956C19.8269 1.13217 19.5516 1.0315 19.2837 1.0315V3.0315Z" fill="currentColor"/>
</svg>
