<svg width="24" height="24" viewBox="0 0 24 24" fill="none" xmlns="http://www.w3.org/2000/svg">
<path d="M21 13.9999H22C22 13.6552 21.8224 13.3347 21.53 13.1519L21 13.9999ZM12 3.99994C12.5523 3.99994 13 3.55223 13 2.99994C13 2.44766 12.5523 1.99994 12 1.99994V3.99994ZM7.27407 20.3122C6.89424 20.7131 6.91135 21.3461 7.31228 21.7259C7.71321 22.1057 8.34615 22.0886 8.72598 21.6877L7.27407 20.3122ZM15.2002 13.3998L15.9261 14.0875L15.2002 13.3998ZM19.2192 12.8869L19.7492 12.039L19.7492 12.039L19.2192 12.8869ZM16.5461 12.2216L16.1557 11.3009H16.1557L16.5461 12.2216ZM17.6206 12.0845L17.4738 13.0736L17.6206 12.0845ZM16.1991 6.48178C15.8086 6.8723 15.8086 7.50547 16.1991 7.89599C16.5897 8.28652 17.2228 8.28652 17.6134 7.89599L16.1991 6.48178ZM22.3425 3.16682C22.733 2.7763 22.733 2.14313 22.3425 1.75261C21.952 1.36209 21.3188 1.36209 20.9283 1.75261L22.3425 3.16682ZM17.6134 1.75261C17.2228 1.36209 16.5897 1.36209 16.1991 1.75261C15.8086 2.14313 15.8086 2.7763 16.1991 3.16682L17.6134 1.75261ZM20.9283 7.89599C21.3188 8.28652 21.952 8.28652 22.3425 7.89599C22.733 7.50547 22.733 6.87231 22.3425 6.48178L20.9283 7.89599ZM18 19.9999H6V21.9999H18V19.9999ZM4 17.9999V5.99994H2V17.9999H4ZM6 19.9999C4.89543 19.9999 4 19.1045 4 17.9999H2C2 20.2091 3.79086 21.9999 6 21.9999V19.9999ZM20 17.9999C20 19.1045 19.1046 19.9999 18 19.9999V21.9999C20.2091 21.9999 22 20.2091 22 17.9999H20ZM6 1.99994C3.79086 1.99994 2 3.7908 2 5.99994H4C4 4.89537 4.89543 3.99994 6 3.99994V1.99994ZM20 13.9999V17.9999H22V13.9999H20ZM6 3.99994H12V1.99994H6V3.99994ZM8.72598 21.6877L15.9261 14.0875L14.4742 12.712L7.27407 20.3122L8.72598 21.6877ZM18.6892 13.7349L20.47 14.8479L21.53 13.1519L19.7492 12.039L18.6892 13.7349ZM15.9261 14.0875C16.2569 13.7384 16.4681 13.5164 16.6427 13.3575C16.8079 13.2072 16.8887 13.1625 16.9366 13.1422L16.1557 11.3009C15.8195 11.4435 15.548 11.6495 15.2966 11.8783C15.0544 12.0986 14.7847 12.3843 14.4742 12.712L15.9261 14.0875ZM19.7492 12.039C19.3664 11.7997 19.0336 11.5909 18.7439 11.4385C18.4431 11.2801 18.1285 11.1489 17.7673 11.0953L17.4738 13.0736C17.5253 13.0813 17.6147 13.1042 17.8124 13.2083C18.0212 13.3182 18.2814 13.4801 18.6892 13.7349L19.7492 12.039ZM16.9366 13.1422C17.1059 13.0704 17.2918 13.0466 17.4738 13.0736L17.7673 11.0953C17.2214 11.0143 16.6638 11.0855 16.1557 11.3009L16.9366 13.1422ZM10 8.99994C10 9.55223 9.55228 9.99994 9 9.99994V11.9999C10.6569 11.9999 12 10.6568 12 8.99994H10ZM9 9.99994C8.44772 9.99994 8 9.55223 8 8.99994H6C6 10.6568 7.34315 11.9999 9 11.9999V9.99994ZM8 8.99994C8 8.44766 8.44772 7.99994 9 7.99994V5.99994C7.34315 5.99994 6 7.34309 6 8.99994H8ZM9 7.99994C9.55228 7.99994 10 8.44766 10 8.99994H12C12 7.34309 10.6569 5.99994 9 5.99994V7.99994ZM17.6134 7.89599L19.9779 5.53141L18.5637 4.1172L16.1991 6.48178L17.6134 7.89599ZM19.9779 5.53141L22.3425 3.16682L20.9283 1.75261L18.5637 4.1172L19.9779 5.53141ZM16.1991 3.16682L18.5637 5.53141L19.9779 4.1172L17.6134 1.75261L16.1991 3.16682ZM18.5637 5.53141L20.9283 7.89599L22.3425 6.48178L19.9779 4.1172L18.5637 5.53141Z" fill="currentColor"/>
</svg>
