<svg width="24" height="24" viewBox="0 0 24 24" fill="none" xmlns="http://www.w3.org/2000/svg">
<path d="M7.19585 20.4056C6.86757 20.8497 6.9615 21.4759 7.40563 21.8042C7.84977 22.1325 8.47593 22.0385 8.8042 21.5944L7.19585 20.4056ZM15.1909 11.2712L14.3867 10.6768L15.1909 11.2712ZM18.1371 10.9734L17.4682 11.7167L17.4839 11.7308L17.5002 11.7443L18.1371 10.9734ZM21.8 14L22.78 14.1989C22.8534 13.8371 22.7215 13.4643 22.4369 13.2291L21.8 14ZM12 3C12.5523 3 13 2.55228 13 2C13 1.44772 12.5523 1 12 1V3ZM18.2837 7.70405C18.2837 8.25634 18.7314 8.70405 19.2837 8.70405C19.836 8.70405 20.2837 8.25634 20.2837 7.70405H18.2837ZM20.2837 2C20.2837 1.44772 19.836 1 19.2837 1C18.7314 1 18.2837 1.44772 18.2837 2H20.2837ZM15.8675 3.94767C15.4731 4.33422 15.4667 4.96736 15.8532 5.36181C16.2398 5.75626 16.8729 5.76267 17.2674 5.37611L15.8675 3.94767ZM19.2289 2.05378L18.5289 1.33956V1.33956L19.2289 2.05378ZM19.3386 2.05378L20.0385 1.33956V1.33956L19.3386 2.05378ZM21.3001 5.37611C21.6946 5.76267 22.3277 5.75626 22.7142 5.36181C23.1008 4.96736 23.0944 4.33422 22.6999 3.94767L21.3001 5.37611ZM10.1797 9.5C10.1797 10.0523 9.73201 10.5 9.17972 10.5V12.5C10.8366 12.5 12.1797 11.1569 12.1797 9.5H10.1797ZM9.17972 10.5C8.62744 10.5 8.17972 10.0523 8.17972 9.5H6.17972C6.17972 11.1569 7.52287 12.5 9.17972 12.5V10.5ZM8.17972 9.5C8.17972 8.94772 8.62744 8.5 9.17972 8.5V6.5C7.52287 6.5 6.17972 7.84315 6.17972 9.5H8.17972ZM9.17972 8.5C9.73201 8.5 10.1797 8.94772 10.1797 9.5H12.1797C12.1797 7.84315 10.8366 6.5 9.17972 6.5V8.5ZM8.8042 21.5944L15.995 11.8656L14.3867 10.6768L7.19585 20.4056L8.8042 21.5944ZM17.5002 11.7443L21.163 14.7709L22.4369 13.2291L18.7741 10.2025L17.5002 11.7443ZM15.995 11.8656C16.3459 11.3909 17.0294 11.3218 17.4682 11.7167L18.8061 10.2301C17.4899 9.04549 15.4393 9.25276 14.3867 10.6768L15.995 11.8656ZM12 21C7.02944 21 3 16.9706 3 12H1C1 18.0751 5.92487 23 12 23V21ZM3 12C3 7.02944 7.02944 3 12 3V1C5.92487 1 1 5.92487 1 12H3ZM20.82 13.8011C19.9861 17.9087 16.353 21 12 21V23C17.3229 23 21.7607 19.2203 22.78 14.1989L20.82 13.8011ZM20.2837 7.70405V2.0315H18.2837V7.70405H20.2837ZM20.2837 2.0315V2H18.2837V2.0315H20.2837ZM17.2674 5.37611L19.9288 2.768L18.5289 1.33956L15.8675 3.94767L17.2674 5.37611ZM18.6387 2.768L21.3001 5.37611L22.6999 3.94767L20.0385 1.33956L18.6387 2.768ZM19.9288 2.768C19.7475 2.94565 19.5119 3.03151 19.2837 3.0315L19.2838 1.0315C19.0158 1.0315 18.7405 1.1322 18.5289 1.33956L19.9288 2.768ZM19.2837 3.0315C19.0555 3.0315 18.82 2.94566 18.6387 2.768L20.0385 1.33956C19.8269 1.13219 19.5517 1.0315 19.2837 1.0315V3.0315Z" fill="currentColor"/>
</svg>
