<svg width="24" height="24" viewBox="0 0 24 24" fill="none" xmlns="http://www.w3.org/2000/svg">
<path d="M21 14H22C22 13.6552 21.8224 13.3347 21.53 13.152L21 14ZM12 4C12.5523 4 13 3.55228 13 3C13 2.44772 12.5523 2 12 2V4ZM7.27407 20.3123C6.89424 20.7132 6.91135 21.3461 7.31228 21.726C7.71321 22.1058 8.34615 22.0887 8.72598 21.6877L7.27407 20.3123ZM15.8751 12.6874L15.1492 11.9996H15.1492L15.8751 12.6874ZM18.387 12.3669L18.917 11.5189L18.917 11.5189L18.387 12.3669ZM20.2837 2C20.2837 1.44772 19.836 1 19.2837 1C18.7314 1 18.2837 1.44771 18.2837 2L20.2837 2ZM18.2837 7.70405C18.2837 8.25634 18.7314 8.70405 19.2837 8.70405C19.836 8.70405 20.2837 8.25634 20.2837 7.70405H18.2837ZM17.2673 4.32794C16.8729 3.94138 16.2398 3.94779 15.8532 4.34224C15.4666 4.7367 15.4731 5.36983 15.8675 5.75638L17.2673 4.32794ZM19.2288 7.65027L18.5289 8.3645V8.3645L19.2288 7.65027ZM19.3386 7.65027L20.0385 8.3645V8.3645L19.3386 7.65027ZM22.6999 5.75638C23.0944 5.36983 23.1008 4.7367 22.7142 4.34224C22.3277 3.94779 21.6945 3.94138 21.3001 4.32794L22.6999 5.75638ZM18 20H6V22H18V20ZM4 18V6H2V18H4ZM6 20C4.89543 20 4 19.1046 4 18H2C2 20.2091 3.79086 22 6 22V20ZM20 18C20 19.1046 19.1046 20 18 20V22C20.2091 22 22 20.2091 22 18H20ZM6 2C3.79086 2 2 3.79086 2 6H4C4 4.89543 4.89543 4 6 4V2ZM20 14V18H22V14H20ZM6 4H12V2H6V4ZM8.72598 21.6877L16.6011 13.3751L15.1492 11.9996L7.27407 20.3123L8.72598 21.6877ZM17.857 13.2149L20.47 14.848L21.53 13.152L18.917 11.5189L17.857 13.2149ZM16.6011 13.3751C16.9283 13.0297 17.4536 12.9627 17.857 13.2149L18.917 11.5189C17.7066 10.7624 16.1308 10.9635 15.1492 11.9996L16.6011 13.3751ZM10 9C10 9.55228 9.55228 10 9 10V12C10.6569 12 12 10.6569 12 9H10ZM9 10C8.44772 10 8 9.55228 8 9H6C6 10.6569 7.34315 12 9 12V10ZM8 9C8 8.44772 8.44772 8 9 8V6C7.34315 6 6 7.34315 6 9H8ZM9 8C9.55228 8 10 8.44772 10 9H12C12 7.34315 10.6569 6 9 6V8ZM18.2837 2L18.2837 7.67255L20.2837 7.67255L20.2837 2L18.2837 2ZM18.2837 7.67255V7.70405H20.2837V7.67255H18.2837ZM15.8675 5.75638L18.5289 8.3645L19.9288 6.93605L17.2673 4.32794L15.8675 5.75638ZM20.0385 8.3645L22.6999 5.75638L21.3001 4.32794L18.6387 6.93605L20.0385 8.3645ZM18.5289 8.3645C18.7405 8.57185 19.0158 8.67256 19.2837 8.67255L19.2837 6.67255C19.5119 6.67254 19.7475 6.7584 19.9288 6.93605L18.5289 8.3645ZM19.2837 8.67255C19.5516 8.67255 19.8269 8.57188 20.0385 8.3645L18.6387 6.93605C18.82 6.75837 19.0555 6.67255 19.2837 6.67255V8.67255Z" fill="currentColor"/>
</svg>
