<svg width="24" height="24" viewBox="0 0 24 24" fill="none" xmlns="http://www.w3.org/2000/svg">
<path d="M7.19585 20.4056C6.86757 20.8497 6.9615 21.4759 7.40563 21.8042C7.84977 22.1325 8.47593 22.0385 8.8042 21.5944L7.19585 20.4056ZM15.1909 11.2712L14.3867 10.6768L15.1909 11.2712ZM18.1371 10.9734L17.4682 11.7167L17.4839 11.7308L17.5002 11.7443L18.1371 10.9734ZM21.8 14L22.78 14.1989C22.8534 13.8371 22.7215 13.4643 22.4369 13.2291L21.8 14ZM12 3C12.5523 3 13 2.55228 13 2C13 1.44772 12.5523 1 12 1V3ZM20.2837 2C20.2837 1.44772 19.836 1 19.2837 1C18.7314 1 18.2837 1.44771 18.2837 2L20.2837 2ZM18.2837 7.70405C18.2837 8.25634 18.7314 8.70405 19.2837 8.70405C19.836 8.70405 20.2837 8.25634 20.2837 7.70405H18.2837ZM17.2673 4.32794C16.8729 3.94138 16.2398 3.94779 15.8532 4.34224C15.4666 4.7367 15.4731 5.36983 15.8675 5.75638L17.2673 4.32794ZM19.2288 7.65027L18.5289 8.3645V8.3645L19.2288 7.65027ZM19.3386 7.65027L20.0385 8.3645V8.3645L19.3386 7.65027ZM22.6999 5.75638C23.0944 5.36983 23.1008 4.7367 22.7142 4.34224C22.3277 3.94779 21.6945 3.94138 21.3001 4.32794L22.6999 5.75638ZM10.1797 9.5C10.1797 10.0523 9.73201 10.5 9.17972 10.5V12.5C10.8366 12.5 12.1797 11.1569 12.1797 9.5H10.1797ZM9.17972 10.5C8.62744 10.5 8.17972 10.0523 8.17972 9.5H6.17972C6.17972 11.1569 7.52287 12.5 9.17972 12.5V10.5ZM8.17972 9.5C8.17972 8.94772 8.62744 8.5 9.17972 8.5V6.5C7.52287 6.5 6.17972 7.84315 6.17972 9.5H8.17972ZM9.17972 8.5C9.73201 8.5 10.1797 8.94772 10.1797 9.5H12.1797C12.1797 7.84315 10.8366 6.5 9.17972 6.5V8.5ZM8.8042 21.5944L15.995 11.8656L14.3867 10.6768L7.19585 20.4056L8.8042 21.5944ZM17.5002 11.7443L21.163 14.7709L22.4369 13.2291L18.7741 10.2025L17.5002 11.7443ZM15.995 11.8656C16.3459 11.3909 17.0294 11.3218 17.4682 11.7167L18.8061 10.2301C17.4899 9.04549 15.4393 9.25276 14.3867 10.6768L15.995 11.8656ZM12 21C7.02944 21 3 16.9706 3 12H1C1 18.0751 5.92487 23 12 23V21ZM3 12C3 7.02944 7.02944 3 12 3V1C5.92487 1 1 5.92487 1 12H3ZM20.82 13.8011C19.9861 17.9087 16.353 21 12 21V23C17.3229 23 21.7607 19.2203 22.78 14.1989L20.82 13.8011ZM18.2837 2L18.2837 7.67255L20.2837 7.67255L20.2837 2L18.2837 2ZM18.2837 7.67255V7.70405H20.2837V7.67255H18.2837ZM15.8675 5.75638L18.5289 8.3645L19.9288 6.93605L17.2673 4.32794L15.8675 5.75638ZM20.0385 8.3645L22.6999 5.75638L21.3001 4.32794L18.6387 6.93605L20.0385 8.3645ZM18.5289 8.3645C18.7405 8.57185 19.0158 8.67256 19.2837 8.67255L19.2837 6.67255C19.5119 6.67254 19.7475 6.7584 19.9288 6.93605L18.5289 8.3645ZM19.2837 8.67255C19.5516 8.67255 19.8269 8.57188 20.0385 8.3645L18.6387 6.93605C18.82 6.75837 19.0555 6.67255 19.2837 6.67255V8.67255Z" fill="currentColor"/>
</svg>
