<svg width="24" height="24" viewBox="0 0 24 24" fill="none" xmlns="http://www.w3.org/2000/svg">
<path d="M2.5 12.5H5.98445C6.59781 12.5 7.14937 12.8734 7.37717 13.4429L7.62283 14.0571C7.85063 14.6266 8.40219 15 9.01555 15H14.9845C15.5978 15 16.1494 14.6266 16.3772 14.0571L16.6228 13.4429C16.8506 12.8734 17.4022 12.5 18.0155 12.5H21.5M2 13.1058V18C2 19.6569 3.34315 21 5 21H19C20.6569 21 22 19.6569 22 18V13.1058C22 12.706 21.9201 12.3102 21.7649 11.9417L18.773 4.83583C18.3046 3.72339 17.2151 3 16.0081 3H7.99193C6.7849 3 5.69542 3.72339 5.22702 4.83583L2.23509 11.9417C2.07993 12.3102 2 12.706 2 13.1058Z" stroke="currentColor" stroke-width="2" stroke-linecap="round" stroke-linejoin="round"/>
</svg>
