<svg width="24" height="24" viewBox="0 0 24 24" fill="none" xmlns="http://www.w3.org/2000/svg">
<path d="M17 3.16861C17.7858 3.44404 18.4381 4.04051 18.773 4.83583L21.7649 11.9417C21.9201 12.3102 22 12.706 22 13.1058V18C22 19.6569 20.6569 21 19 21H5C3.34315 21 2 19.6569 2 18V13.1058C2 12.706 2.07993 12.3102 2.23509 11.9417L5.22702 4.83583C5.56189 4.0405 6.21422 3.44404 7 3.16861M2.5 12.5H5.98445C6.59781 12.5 7.14937 12.8734 7.37717 13.4429L7.62283 14.0571C7.85063 14.6266 8.40219 15 9.01555 15H14.9845C15.5978 15 16.1494 14.6266 16.3772 14.0571L16.6228 13.4429C16.8506 12.8734 17.4022 12.5 18.0155 12.5H21.5M12 2V7.96686M12 7.96686V8M12 7.96686C11.9817 7.96686 11.9634 7.95905 11.9495 7.94343L9.5 5.2M12 7.96686C12.0183 7.96686 12.0366 7.95905 12.0505 7.94343L14.5 5.2" stroke="currentColor" stroke-width="2" stroke-linecap="round"/>
</svg>
