<svg width="24" height="24" viewBox="0 0 24 24" fill="none" xmlns="http://www.w3.org/2000/svg">
<path d="M12.9995 7.33893H20.5M20.5 7.33893L21.5851 11.9953C21.8975 13.3362 22.0538 14.0066 21.8844 14.5335C21.736 14.9954 21.4247 15.3876 21.0085 15.637M20.5 7.33893L20.0765 5.52136C19.8706 4.63796 19.7677 4.19627 19.5268 3.86689C19.3142 3.57632 19.0272 3.34851 18.696 3.20747C18.3206 3.0476 17.867 3.0476 16.96 3.0476H9M15.4995 15.9215H4.91468C2.69095 15.9215 1.42651 13.3777 2.76907 11.605C3.99883 9.98126 5.64526 8.76218 7.49952 8.05159M12 22V19.3707M6.85657 21.0142L8.5 19.3707M2 2L22 22" stroke="currentColor" stroke-width="2" stroke-linecap="round" stroke-linejoin="round"/>
</svg>
