<svg width="24" height="24" viewBox="0 0 24 24" fill="none" xmlns="http://www.w3.org/2000/svg">
<path d="M20.5007 9.5H12.4515C8.4281 9.5 4.67774 11.5353 2.48501 14.9087C1.19998 16.8857 2.61875 19.5 4.97664 19.5H18.5973C19.9353 19.5 20.6043 19.5 21.0729 19.2252C21.4839 18.9841 21.7954 18.6042 21.9511 18.1539C22.1288 17.6405 21.9976 16.9845 21.7351 15.6724L20.5007 9.5ZM20.5007 9.5L20.0151 7.07243C19.8319 6.1561 19.7402 5.69793 19.501 5.35522C19.2901 5.05301 18.9997 4.81497 18.662 4.66737C18.279 4.5 17.8118 4.5 16.8773 4.5H7.00066M9.14489 14.5H9.14933M13.0941 14.5H13.0986M17.0433 14.5H17.0478M9.36723 14.5C9.36723 14.3772 9.26769 14.2777 9.14489 14.2777C9.02208 14.2777 8.92254 14.3772 8.92254 14.5C8.92254 14.6228 9.02208 14.7223 9.14489 14.7223C9.26769 14.7223 9.36723 14.6228 9.36723 14.5ZM13.3165 14.5C13.3165 14.3772 13.2169 14.2777 13.0941 14.2777C12.9713 14.2777 12.8718 14.3772 12.8718 14.5C12.8718 14.6228 12.9713 14.7223 13.0941 14.7223C13.2169 14.7223 13.3165 14.6228 13.3165 14.5ZM17.2657 14.5C17.2657 14.3772 17.1661 14.2777 17.0433 14.2777C16.9205 14.2777 16.821 14.3772 16.821 14.5C16.821 14.6228 16.9205 14.7223 17.0433 14.7223C17.1661 14.7223 17.2657 14.6228 17.2657 14.5Z" stroke="currentColor" stroke-width="2" stroke-linecap="round" stroke-linejoin="round"/>
</svg>
