<svg width="24" height="24" viewBox="0 0 24 24" fill="none" xmlns="http://www.w3.org/2000/svg">
<path d="M17.3926 8.80064C17.43 8.2503 17.2402 7.68971 16.8221 7.27167C16.4041 6.85363 15.8435 6.66374 15.2931 6.70114M11.5811 4.65913C13.7498 2.49041 17.266 2.49041 19.4347 4.65913C21.6035 6.82785 21.6035 10.344 19.4347 12.5128C18.1502 13.7973 16.3923 14.3209 14.7223 14.0838L11.4856 17.3205L9.65879 17.16L9.29578 19.5103C8.76849 20.0376 8.50485 20.3012 8.19997 20.4962C7.90404 20.6855 7.58006 20.8267 7.24001 20.9148C6.88966 21.0055 6.51706 21.0193 5.77187 21.0469C4.81165 21.0825 4.33154 21.1003 3.96595 20.9288C3.61365 20.7636 3.3303 20.4802 3.16506 20.1279C2.99359 19.7623 3.01137 19.2822 3.04694 18.322C3.07453 17.5768 3.08834 17.2042 3.17907 16.8539C3.26713 16.5138 3.40841 16.1898 3.59768 15.8939C3.79267 15.589 4.05632 15.3254 4.58361 14.7981L10.0101 9.37159C9.77297 7.7016 10.2966 5.94367 11.5811 4.65913Z" stroke="currentColor" stroke-width="2" stroke-linecap="round" stroke-linejoin="round"/>
</svg>
