<svg width="24" height="24" viewBox="0 0 24 24" fill="none" xmlns="http://www.w3.org/2000/svg">
<path d="M16.0828 10.9199C15.1081 11.8534 13.561 11.82 12.6275 10.8453C11.6939 9.87049 11.7273 8.32346 12.702 7.38988C13.6768 6.4563 15.2238 6.4897 16.1574 7.46447C17.091 8.43925 17.0576 9.98628 16.0828 10.9199Z" stroke="currentColor" stroke-width="2" stroke-linecap="round" stroke-linejoin="round"/>
<path d="M18.9814 4.76013C16.5541 2.22571 12.5318 2.13888 9.99741 4.56619C8.08843 6.39449 7.56808 9.12768 8.46477 11.4484L4.1984 15.5344C3.59169 16.1155 3.28834 16.406 3.16969 16.746C3.06532 17.0451 3.05832 17.3696 3.14968 17.6729C3.25355 18.0177 3.54408 18.321 4.12515 18.9278L5.8459 20.7244C6.40605 21.3093 7.33427 21.3293 7.91913 20.7692L10.3901 18.4026L9.37588 17.3436L11.8456 14.9783C14.1254 15.9743 16.8785 15.5724 18.7875 13.7441C21.3219 11.3168 21.4087 7.29455 18.9814 4.76013Z" stroke="currentColor" stroke-width="2" stroke-linecap="round" stroke-linejoin="round"/>
</svg>
