<svg width="24" height="24" viewBox="0 0 24 24" fill="none" xmlns="http://www.w3.org/2000/svg">
<path d="M17.3768 8.88093C17.4143 8.32787 17.2235 7.76451 16.8034 7.3444C16.3833 6.92429 15.8199 6.73346 15.2669 6.77105M11.5365 4.71893C13.7159 2.53949 17.2495 2.53949 19.429 4.71893C21.6084 6.89837 21.6084 10.4319 19.429 12.6114C18.1381 13.9023 16.3714 14.4285 14.6932 14.1902L9.23987 19.6435C8.70998 20.1734 8.44503 20.4383 8.13864 20.6343C7.84125 20.8245 7.51567 20.9665 7.17394 21.055C6.82185 21.1461 6.44741 21.16 5.69854 21.1877C4.73358 21.2235 4.25109 21.2414 3.88369 21.069C3.52965 20.903 3.2449 20.6182 3.07885 20.2642C2.90653 19.8968 2.9244 19.4143 2.96014 18.4493C2.98787 17.7005 3.00174 17.326 3.09292 16.9739C3.18142 16.6322 3.3234 16.3066 3.5136 16.0092C3.70956 15.7029 3.97451 15.4379 4.50441 14.908L9.95773 9.45469C9.71942 7.77644 10.2456 6.00982 11.5365 4.71893Z" stroke="currentColor" stroke-width="2" stroke-linecap="round" stroke-linejoin="round"/>
</svg>
