<svg width="24" height="24" viewBox="0 0 24 24" fill="none" xmlns="http://www.w3.org/2000/svg">
<path d="M22 12C22 17.5228 17.5228 22 12 22C6.47715 22 2 17.5228 2 12C2 6.47715 6.47715 2 12 2C17.5228 2 22 6.47715 22 12Z" stroke="currentColor" stroke-width="2" stroke-linecap="round" stroke-linejoin="round"/>
<path d="M12 7C10.3431 7 9 8.34315 9 10C9 10.8885 9.38625 11.6868 10 12.2361V15C10 16.1046 10.8954 17 12 17C13.1046 17 14 16.1046 14 15V12.2361C14.6137 11.6868 15 10.8885 15 10C15 8.34315 13.6569 7 12 7Z" stroke="currentColor" stroke-width="2" stroke-linecap="round" stroke-linejoin="round"/>
</svg>
