<svg width="24" height="24" viewBox="0 0 24 24" fill="none" xmlns="http://www.w3.org/2000/svg">
<path d="M20.6667 16C21.403 16 22 16.597 22 17.3333C22 18.6591 21.0325 19.759 19.7649 19.9652M20.6667 16H16M20.6667 16H21V7.2C21 6.0799 21 5.51984 20.782 5.09202C20.5903 4.71569 20.2843 4.40973 19.908 4.21799C19.4802 4 18.9201 4 17.8 4H6.2C5.0799 4 4.51984 4 4.09202 4.21799M3.33333 16C2.59695 16 2 16.597 2 17.3333C2 18.8061 3.19391 20 4.66667 20H14.5M3.33333 16H10.5M3.33333 16H3V8.5M1.75 2L21.75 22" stroke="currentColor" stroke-width="2" stroke-linecap="round" stroke-linejoin="round"/>
</svg>
