<svg width="24" height="24" viewBox="0 0 24 24" fill="none" xmlns="http://www.w3.org/2000/svg">
<path d="M2 17.3333C2 16.597 2.59695 16 3.33333 16H20.6667C21.403 16 22 16.597 22 17.3333C22 18.8061 20.8061 20 19.3333 20H4.66667C3.19391 20 2 18.8061 2 17.3333Z" stroke="currentColor" stroke-width="2" stroke-linecap="round" stroke-linejoin="round"/>
<path d="M3 16H21V12.5L17.5745 9.50269C17.3628 9.31743 17.2569 9.2248 17.1361 9.16293C17.029 9.10809 16.9136 9.07119 16.7946 9.0537C16.6603 9.03397 16.5203 9.04797 16.2404 9.07596L13.9351 9.30649C13.2646 9.37354 12.9293 9.40707 12.6701 9.29705C12.4425 9.20041 12.2541 9.02988 12.1353 8.81298C12 8.56606 12 8.22911 12 7.55522V5.76C12 5.14394 12 4.83591 11.8801 4.60061C11.7746 4.39363 11.6064 4.22535 11.3994 4.11989C11.1641 4 10.8561 4 10.24 4H6.2C5.07989 4 4.51984 4 4.09202 4.21799C3.71569 4.40973 3.40973 4.71569 3.21799 5.09202C3 5.51984 3 6.0799 3 7.2V16Z" stroke="currentColor" stroke-width="2" stroke-linecap="round" stroke-linejoin="round"/>
<path d="M22.5 8.5L23 3L16 2.5L15.5 6L20 6.5L22.5 8.5Z" stroke="currentColor" stroke-width="2" stroke-linecap="round" stroke-linejoin="round"/>
</svg>
