<svg width="24" height="24" viewBox="0 0 24 24" fill="none" xmlns="http://www.w3.org/2000/svg">
<path d="M9 4.5V6.5L7.5 12.5L9.83504 7.05157C10.0755 6.49045 10.1958 6.20988 10.3894 6.00393C10.5606 5.82191 10.772 5.6825 11.0067 5.59688C11.2723 5.5 11.5776 5.5 12.1881 5.5H13L17 4M4.66667 20H19.3333C20.8061 20 22 18.8061 22 17.3333C22 16.597 21.403 16 20.6667 16H3.33333C2.59695 16 2 16.597 2 17.3333C2 18.8061 3.19391 20 4.66667 20ZM21 16V7.2C21 6.0799 21 5.51984 20.782 5.09202C20.5903 4.71569 20.2843 4.40973 19.908 4.21799C19.4802 4 18.9201 4 17.8 4H6.2C5.0799 4 4.51984 4 4.09202 4.21799C3.71569 4.40973 3.40973 4.71569 3.21799 5.09202C3 5.51984 3 6.07989 3 7.2V16H21Z" stroke="currentColor" stroke-width="2" stroke-linecap="round" stroke-linejoin="round"/>
</svg>
