<svg width="24" height="24" viewBox="0 0 24 24" fill="none" xmlns="http://www.w3.org/2000/svg">
<path d="M5.51812 14.1605C4.08687 13.4683 3.37124 13.1222 3.1442 12.6499C2.94673 12.2391 2.94673 11.7608 3.1442 11.3501C3.37124 10.8778 4.08686 10.5317 5.51811 9.83943L9.91032 7.71506C10.6776 7.34393 11.0613 7.15837 11.4626 7.08526C11.8181 7.02049 12.1825 7.02049 12.538 7.08526C12.9393 7.15837 13.323 7.34393 14.0903 7.71506L18.4825 9.83942C19.9137 10.5317 20.6294 10.8778 20.8564 11.3501C21.0539 11.7608 21.0539 12.2391 20.8564 12.6499C20.6294 13.1222 19.9137 13.4683 18.4825 14.1605L14.0903 16.2849C13.323 16.656 12.9393 16.8416 12.538 16.9147C12.1825 16.9795 11.8181 16.9795 11.4626 16.9147C11.0613 16.8416 10.6776 16.656 9.91032 16.2849L5.51812 14.1605Z" stroke="currentColor" stroke-width="2" stroke-linecap="round" stroke-linejoin="round"/>
</svg>
