<svg width="24" height="24" viewBox="0 0 24 24" fill="none" xmlns="http://www.w3.org/2000/svg">
<path d="M20.9997 13L13.9506 16.1356C13.2322 16.4551 12.873 16.6149 12.4996 16.678C12.1687 16.734 11.8307 16.734 11.4998 16.678C11.1264 16.6149 10.7672 16.4551 10.0488 16.1356L2.99969 13M20.9998 18L13.9167 21.0855C13.2103 21.3932 12.8571 21.5471 12.4905 21.6079C12.1655 21.6618 11.8339 21.6618 11.5089 21.6079C11.1423 21.5471 10.7891 21.3932 10.0827 21.0855L2.99983 18M13.9868 11.3016L18.3287 9.32701C19.8549 8.63291 20.618 8.28586 20.8548 7.80501C21.0606 7.38718 21.0606 6.89748 20.8548 6.47965C20.618 5.99879 19.8549 5.65174 18.3287 4.95764L13.9868 2.98303C13.2556 2.6505 12.89 2.48424 12.5094 2.41862C12.1721 2.36046 11.8273 2.36046 11.49 2.41862C11.1094 2.48424 10.7438 2.65051 10.0126 2.98303L5.67069 4.95764C4.14446 5.65174 3.38135 5.99879 3.14455 6.47965C2.93879 6.89748 2.93879 7.38718 3.14455 7.80501C3.38135 8.28586 4.14447 8.63291 5.6707 9.32702L10.0126 11.3016C10.7438 11.6342 11.1094 11.8004 11.49 11.866C11.8273 11.9242 12.1721 11.9242 12.5094 11.866C12.89 11.8004 13.2556 11.6342 13.9868 11.3016Z" stroke="currentColor" stroke-width="2" stroke-linecap="round" stroke-linejoin="round"/>
</svg>
