<svg width="24" height="24" viewBox="0 0 24 24" fill="none" xmlns="http://www.w3.org/2000/svg">
<path d="M17.754 12.0035L18.4825 11.6512C19.9137 10.9589 20.6294 10.6128 20.8564 10.1406C21.0539 9.72978 21.0539 9.25151 20.8564 8.84073C20.6294 8.36846 19.9137 8.02233 18.4825 7.33009L14.0903 5.20572C13.323 4.83459 12.9393 4.64903 12.538 4.57592C12.1825 4.51115 11.8181 4.51115 11.4626 4.57592C11.0613 4.64903 10.6776 4.83459 9.91032 5.20572L5.51811 7.33009C4.08686 8.02233 3.37124 8.36846 3.1442 8.84073C2.94673 9.25151 2.94673 9.72978 3.1442 10.1406C3.37124 10.6128 4.08687 10.959 5.51812 11.6512L6.20668 11.9842M17.754 12.0035L14.0903 13.7756C13.323 14.1467 12.9393 14.3323 12.538 14.4054C12.1825 14.4701 11.8181 14.4701 11.4626 14.4054C11.0613 14.3323 10.6776 14.1467 9.91032 13.7756L6.20668 11.9842M17.754 12.0035L17.8678 12.0516L18.4825 12.3489C19.9137 13.0411 20.6294 13.3872 20.8564 13.8595C21.0539 14.2703 21.0539 14.7486 20.8564 15.1593C20.6294 15.6316 19.9137 15.9777 18.4825 16.67L14.0903 18.7943C13.323 19.1655 12.9393 19.351 12.538 19.4241C12.1825 19.4889 11.8181 19.4889 11.4626 19.4241C11.0613 19.351 10.6776 19.1655 9.91032 18.7943L5.51811 16.67C4.08686 15.9777 3.37124 15.6316 3.1442 15.1593C2.94673 14.7486 2.94673 14.2703 3.1442 13.8595C3.37124 13.3872 4.08686 13.0411 5.51811 12.3489L5.92986 12.1497L6.20668 11.9842" stroke="currentColor" stroke-width="2" stroke-linecap="round" stroke-linejoin="round"/>
</svg>
