<svg width="24" height="24" viewBox="0 0 24 24" fill="none" xmlns="http://www.w3.org/2000/svg">
<path d="M17.8653 9.53775L18.3287 9.32701C19.8549 8.63291 20.618 8.28586 20.8548 7.80501C21.0606 7.38718 21.0606 6.89748 20.8548 6.47965C20.618 5.99879 19.8549 5.65174 18.3287 4.95764L13.9868 2.98303C13.2556 2.6505 12.89 2.48424 12.5094 2.41862C12.1721 2.36046 11.8273 2.36046 11.49 2.41862C11.1094 2.48424 10.7438 2.65051 10.0126 2.98303L5.67069 4.95764C4.14447 5.65174 3.38135 5.99879 3.14455 6.47965C2.93879 6.89748 2.93879 7.38718 3.14455 7.80501C3.38135 8.28586 4.14447 8.63291 5.6707 9.32702L6.1442 9.54236M17.8653 9.53775L13.9868 11.3016C13.2556 11.6342 12.89 11.8004 12.5094 11.866C12.1721 11.9242 11.8273 11.9242 11.49 11.866C11.1094 11.8004 10.7438 11.6342 10.0126 11.3016L6.1442 9.54236M17.8653 9.53775L17.9656 9.59056L18.3287 9.7557C19.8549 10.4498 20.618 10.7969 20.8548 11.2777C21.0606 11.6955 21.0606 12.1852 20.8548 12.6031C20.618 13.0839 19.8549 13.431 18.3287 14.1251L17.7328 14.3961M6.1442 9.54236L5.82747 9.6844L5.67069 9.7557C4.14446 10.4498 3.38135 10.7969 3.14455 11.2777C2.93879 11.6955 2.93879 12.1852 3.14455 12.6031C3.38135 13.0839 4.14447 13.431 5.6707 14.1251L6.27757 14.4011M6.27757 14.4011L10.0126 16.0997C10.7438 16.4322 11.1094 16.5985 11.49 16.6641C11.8273 16.7223 12.1721 16.7223 12.5094 16.6641C12.89 16.5985 13.2556 16.4322 13.9868 16.0997L17.7328 14.3961M6.27757 14.4011L5.82747 14.6016L5.67069 14.6729C4.14446 15.367 3.38135 15.7141 3.14455 16.1949C2.93879 16.6128 2.93879 17.1025 3.14455 17.5203C3.38135 18.0012 4.14447 18.3482 5.6707 19.0423L10.0126 21.0169C10.7438 21.3494 11.1094 21.5157 11.49 21.5813C11.8273 21.6395 12.1721 21.6395 12.5094 21.5813C12.89 21.5157 13.2556 21.3494 13.9868 21.0169L18.3287 19.0423C19.8549 18.3482 20.618 18.0012 20.8548 17.5203C21.0606 17.1025 21.0606 16.6128 20.8548 16.1949C20.618 15.7141 19.8549 15.367 18.3287 14.6729L17.9656 14.5078L17.7328 14.3961" stroke="currentColor" stroke-width="2" stroke-linecap="round" stroke-linejoin="round"/>
</svg>
