<svg width="24" height="24" viewBox="0 0 24 24" fill="none" xmlns="http://www.w3.org/2000/svg">
<path d="M17.0003 16L19.0003 18M19.0003 18L21.0003 20M19.0003 18L21.0003 16M19.0003 18L17.0003 20M14.0903 13.5807L18.4825 11.4564C19.9137 10.7641 20.6294 10.418 20.8564 9.94573C21.0539 9.53495 21.0539 9.05668 20.8564 8.64591C20.6294 8.17363 19.9137 7.82751 18.4825 7.13526L14.0903 5.0109C13.323 4.63977 12.9393 4.45421 12.538 4.3811C12.1825 4.31633 11.8181 4.31633 11.4626 4.3811C11.0613 4.45421 10.6776 4.63977 9.91032 5.0109L5.51811 7.13526C4.08686 7.82751 3.37124 8.17363 3.1442 8.64591C2.94673 9.05668 2.94673 9.53495 3.1442 9.94573C3.37124 10.418 4.08687 10.7641 5.51812 11.4564L9.91032 13.5807C10.6776 13.9519 11.0613 14.1374 11.4626 14.2105C11.8181 14.2753 12.1825 14.2753 12.538 14.2105C12.9393 14.1374 13.323 13.9519 14.0903 13.5807Z" stroke="currentColor" stroke-width="2" stroke-linecap="round"/>
</svg>
