<svg width="24" height="24" viewBox="0 0 24 24" fill="none" xmlns="http://www.w3.org/2000/svg">
<path d="M21.0003 15.5L14.0716 18.8144C13.3108 19.1783 12.9304 19.3603 12.5329 19.432C12.1807 19.4955 11.8199 19.4955 11.4677 19.432C11.0702 19.3603 10.6898 19.1783 9.92899 18.8144L3.0003 15.5M14.0903 13.7756L18.4825 11.6512C19.9137 10.9589 20.6294 10.6128 20.8564 10.1406C21.0539 9.72978 21.0539 9.25151 20.8564 8.84073C20.6294 8.36846 19.9137 8.02233 18.4825 7.33009L14.0903 5.20572C13.323 4.83459 12.9393 4.64903 12.538 4.57592C12.1825 4.51115 11.8181 4.51115 11.4626 4.57592C11.0613 4.64903 10.6776 4.83459 9.91032 5.20572L5.51811 7.33009C4.08686 8.02233 3.37124 8.36846 3.1442 8.84073C2.94673 9.25151 2.94673 9.72978 3.1442 10.1406C3.37124 10.6128 4.08687 10.959 5.51812 11.6512L9.91032 13.7756C10.6776 14.1467 11.0613 14.3323 11.4626 14.4054C11.8181 14.4701 12.1825 14.4701 12.538 14.4054C12.9393 14.3323 13.323 14.1467 14.0903 13.7756Z" stroke="currentColor" stroke-width="2" stroke-linecap="round" stroke-linejoin="round"/>
</svg>
