<svg width="24" height="24" viewBox="0 0 24 24" fill="none" xmlns="http://www.w3.org/2000/svg">
<path d="M11.9993 12L3 14.3711M11.9993 12L9.58682 3M11.9993 12L14.4323 21M3 14.3711V16.2C3 17.8802 3 18.7202 3.32698 19.362C3.6146 19.9265 4.07354 20.3854 4.63803 20.673C5.27976 21 6.11984 21 7.8 21H14.4323M3 14.3711V7.80001C3 6.11985 3 5.27977 3.32698 4.63804C3.6146 4.07355 4.07354 3.61461 4.63803 3.32699C5.27976 3.00001 6.11984 3.00001 7.8 3.00001L9.58682 3M9.58682 3L16.2 3.00001C17.8802 3.00001 18.7202 3.00001 19.362 3.32699C19.9265 3.61461 20.3854 4.07355 20.673 4.63804C21 5.27977 21 6.11985 21 7.80001V16.2C21 17.8802 21 18.7202 20.673 19.362C20.3854 19.9265 19.9265 20.3854 19.362 20.673C18.7202 21 17.8802 21 16.2 21H14.4323" stroke="currentColor" stroke-width="2" stroke-linecap="round" stroke-linejoin="round"/>
</svg>
