<svg width="24" height="24" viewBox="0 0 24 24" fill="none" xmlns="http://www.w3.org/2000/svg">
<path d="M12.0007 9V15M12.0007 9H21.0007M12.0007 9H3.00062M12.0007 15H21.0007M12.0007 15H3M12.0007 15V21M12.0007 21H16.2007C17.8809 21 18.721 21 19.3627 20.673C19.9272 20.3854 20.3861 19.9265 20.6738 19.362C21.0007 18.7202 21.0007 17.8802 21.0007 16.2V15M12.0007 21H7.80074C6.12059 21 5.28051 21 4.63877 20.673C4.07429 20.3854 3.61535 19.9265 3.32772 19.362C3.00074 18.7202 3.00074 17.8802 3.00074 16.2L3 15M21.0007 15V9M3 15L3.00062 9M21.0007 9V7.8C21.0007 6.11984 21.0007 5.27976 20.6738 4.63803C20.3861 4.07354 19.9272 3.6146 19.3627 3.32698C18.721 3 17.8809 3 16.2007 3H7.80074C6.12059 3 5.28051 3 4.63877 3.32698C4.07429 3.6146 3.61535 4.07354 3.32772 4.63803C3.00074 5.27976 3.00074 6.11984 3.00074 7.8L3.00062 9" stroke="currentColor" stroke-width="2" stroke-linecap="round" stroke-linejoin="round"/>
</svg>
