<svg width="24" height="24" viewBox="0 0 24 24" fill="none" xmlns="http://www.w3.org/2000/svg">
<path d="M12.0001 10L12.0002 21M12.0001 10H21.0002M12.0001 10H3M12.0002 21H16.2002C17.8803 21 18.7204 21 19.3622 20.673C19.9266 20.3854 20.3856 19.9265 20.6732 19.362C21.0002 18.7202 21.0002 17.8802 21.0002 16.2V10M12.0002 21H7.80018C6.12003 21 5.27995 21 4.63821 20.673C4.07373 20.3854 3.61479 19.9265 3.32717 19.362C3.00018 18.7202 3.00018 17.8802 3.00018 16.2L3 10M21.0002 10V7.8C21.0002 6.11984 21.0002 5.27976 20.6732 4.63803C20.3856 4.07354 19.9266 3.6146 19.3622 3.32698C18.7204 3 17.8803 3 16.2002 3H7.80018C6.12003 3 5.27995 3 4.63821 3.32698C4.07373 3.6146 3.61479 4.07354 3.32717 4.63803C3.00018 5.27976 3.00018 6.11984 3.00018 7.8L3 10" stroke="currentColor" stroke-width="2" stroke-linecap="round" stroke-linejoin="round"/>
</svg>
