<svg width="24" height="24" viewBox="0 0 24 24" fill="none" xmlns="http://www.w3.org/2000/svg">
<path d="M3 9H21.0008M3 9L3.00083 16.2C3.00083 17.8802 3.00083 18.7202 3.32781 19.362C3.61543 19.9265 4.07437 20.3854 4.63886 20.673C5.2806 21 6.12067 21 7.80083 21H16.2008C17.881 21 18.7211 21 19.3628 20.673C19.9273 20.3854 20.3862 19.9265 20.6739 19.362C21.0008 18.7202 21.0008 17.8802 21.0008 16.2V9M3 9L3.00083 7.8C3.00083 6.11984 3.00083 5.27976 3.32781 4.63803C3.61543 4.07354 4.07437 3.6146 4.63886 3.32698C5.2806 3 6.12068 3 7.80083 3H16.2008C17.881 3 18.7211 3 19.3628 3.32698C19.9273 3.6146 20.3862 4.07354 20.6739 4.63803C21.0008 5.27976 21.0008 6.11984 21.0008 7.8V9M7.00083 13H17.0008M7.00083 17H17.0008" stroke="currentColor" stroke-width="2" stroke-linecap="round" stroke-linejoin="round"/>
</svg>
