<svg width="24" height="24" viewBox="0 0 24 24" fill="none" xmlns="http://www.w3.org/2000/svg">
<path d="M13.0007 5.24995L20.0007 5.24995M13.0066 9.74995L20.0066 9.74995M3.99487 14.25L20.0066 14.25M3.99487 18.75L20.0066 18.75M3.99414 8.04972V6.95018C3.99414 5.75672 3.99414 5.15999 4.24209 4.83684C4.45799 4.55544 4.78733 4.38396 5.14168 4.36846C5.54861 4.35065 6.03747 4.69285 7.01519 5.37726L7.80057 5.92703C8.55649 6.45617 8.93446 6.72075 9.06765 7.05036C9.18419 7.33876 9.18419 7.66114 9.06765 7.94954C8.93446 8.27916 8.55649 8.54373 7.80057 9.07288L7.01519 9.62264C6.03747 10.307 5.54861 10.6493 5.14168 10.6314C4.78733 10.6159 4.45799 10.4445 4.24209 10.1631C3.99414 9.83991 3.99414 9.24318 3.99414 8.04972Z" stroke="currentColor" stroke-width="2" stroke-linecap="round" stroke-linejoin="round"/>
</svg>
