<svg width="24" height="24" viewBox="0 0 24 24" fill="none" xmlns="http://www.w3.org/2000/svg">
<path d="M13.0066 14.25L20.0066 14.25M4.00073 5.25L20.0125 5.25M13.0125 9.75L20.0125 9.75M3.99487 18.75L20.0066 18.75M3.99414 12.5498V11.4502C3.99414 10.2568 3.99414 9.66004 4.24209 9.33689C4.45799 9.05548 4.78733 8.88401 5.14168 8.86851C5.54861 8.8507 6.03747 9.1929 7.01519 9.87731L7.80057 10.4271C8.55649 10.9562 8.93446 11.2208 9.06765 11.5504C9.18419 11.8388 9.18419 12.1612 9.06765 12.4496C8.93446 12.7792 8.55649 13.0438 7.80057 13.5729L7.01519 14.1227C6.03747 14.8071 5.54861 15.1493 5.14168 15.1315C4.78733 15.116 4.45799 14.9445 4.24209 14.6631C3.99414 14.34 3.99414 13.7432 3.99414 12.5498Z" stroke="currentColor" stroke-width="2" stroke-linecap="round" stroke-linejoin="round"/>
</svg>
