<svg width="24" height="24" viewBox="0 0 24 24" fill="none" xmlns="http://www.w3.org/2000/svg">
<path d="M20.0117 14.25H14.0117M20.0059 5.25L3.99414 5.25M20.0059 9.75L14.0059 9.75M20.0117 18.75L4 18.75M8.08 15H5.92C5.24794 15 4.91191 15 4.65521 14.8692C4.42942 14.7542 4.24584 14.5706 4.13079 14.3448C4 14.0881 4 13.7521 4 13.08V10.92C4 10.2479 4 9.91191 4.13079 9.65521C4.24584 9.42942 4.42942 9.24584 4.65521 9.13079C4.91191 9 5.24794 9 5.92 9H8.08C8.75206 9 9.08809 9 9.34479 9.13079C9.57058 9.24584 9.75416 9.42942 9.86921 9.65521C10 9.91191 10 10.2479 10 10.92V13.08C10 13.7521 10 14.0881 9.86921 14.3448C9.75416 14.5706 9.57058 14.7542 9.34479 14.8692C9.08809 15 8.75206 15 8.08 15Z" stroke="currentColor" stroke-width="2" stroke-linecap="round" stroke-linejoin="round"/>
</svg>
