<svg width="24" height="24" viewBox="0 0 24 24" fill="none" xmlns="http://www.w3.org/2000/svg">
<path d="M20.0059 5.24995L14.005 5.24995M20 9.74995L13.9992 9.74995M20.0059 14.2499L3.99414 14.25M20.0059 18.7499L3.99414 18.75M8.07414 10.4951H5.91414C5.24208 10.4951 4.90605 10.4951 4.64935 10.3643C4.42356 10.2493 4.23998 10.0657 4.12493 9.83991C3.99414 9.58321 3.99414 9.24718 3.99414 8.57512V6.41512C3.99414 5.74305 3.99414 5.40702 4.12493 5.15033C4.23998 4.92453 4.42356 4.74096 4.64935 4.62591C4.90605 4.49512 5.24208 4.49512 5.91414 4.49512H8.07414C8.7462 4.49512 9.08224 4.49512 9.33893 4.62591C9.56472 4.74096 9.7483 4.92453 9.86335 5.15033C9.99414 5.40702 9.99414 5.74305 9.99414 6.41512V8.57512C9.99414 9.24718 9.99414 9.58321 9.86335 9.83991C9.7483 10.0657 9.56472 10.2493 9.33893 10.3643C9.08224 10.4951 8.7462 10.4951 8.07414 10.4951Z" stroke="currentColor" stroke-width="2" stroke-linecap="round" stroke-linejoin="round"/>
</svg>
