<svg width="24" height="24" viewBox="0 0 24 24" fill="none" xmlns="http://www.w3.org/2000/svg">
<g clip-path="url(#clip0_639_5349)">
<path d="M17.2832 3.69673L17.0627 3.9172C13.7439 2.12396 9.20405 2.89165 6.04745 6.04826C2.89084 9.20486 2.12315 13.7447 3.91639 17.0635L3.69592 17.284C2.86214 18.1177 2.86214 19.4696 3.69592 20.3033C4.5297 21.1371 5.88153 21.1371 6.71531 20.3033L6.93578 20.0829C10.2545 21.8761 14.7944 21.1084 17.951 17.9518C21.1076 14.7952 21.8753 10.2554 20.0821 6.93659L20.3025 6.71612C21.1363 5.88234 21.1363 4.53051 20.3025 3.69673C19.4688 2.86295 18.1169 2.86295 17.2832 3.69673Z" stroke="currentColor" stroke-width="2" stroke-linecap="round" stroke-linejoin="round"/>
</g>
<defs>
<clipPath id="clip0_639_5349">
<rect width="24" height="24" fill="white"/>
</clipPath>
</defs>
</svg>
