<svg width="24" height="24" viewBox="0 0 24 24" fill="none" xmlns="http://www.w3.org/2000/svg">
<path d="M15.3674 4.51999C16.7421 5.89682 17.5921 7.79761 17.5921 9.89693C17.5921 14.0999 14.1849 17.5071 9.98189 17.5071C7.8714 17.5071 5.96155 16.648 4.58301 15.2604M9.98314 17.5071L9.98314 14.6969C9.98314 13.0167 9.98314 12.1767 10.3101 11.5349C10.5977 10.9704 11.0567 10.5115 11.6212 10.2239C12.2629 9.89691 13.103 9.89691 14.7831 9.89691L17.5933 9.89691M10.1218 10.0383L14.8931 14.8096M22.0012 9.89141C22.0012 16.5784 16.5803 21.9992 9.89336 21.9992C7.41142 21.9992 5.1039 21.2524 3.18324 19.9713C2.62336 19.5979 2.34343 19.4112 2.16543 19.0447C2.02704 18.7598 1.9833 18.3175 2.0632 18.011C2.16597 17.6167 2.4532 17.3295 3.02766 16.755L16.757 3.02571C17.3315 2.45125 17.6187 2.16401 18.0129 2.06125C18.3194 1.98135 18.7618 2.02509 19.0467 2.16348C19.4131 2.34147 19.5998 2.62141 19.9733 3.18128C21.2544 5.10195 22.0012 7.40947 22.0012 9.89141Z" stroke="currentColor" stroke-width="2" stroke-linecap="round" stroke-linejoin="round"/>
</svg>
