<svg width="24" height="24" viewBox="0 0 24 24" fill="none" xmlns="http://www.w3.org/2000/svg">
<path d="M12.0002 2V3.5M1.16992 12H2.66992M21.2513 12H22.7513M4.48776 4.70386L5.60665 5.82275M19.6283 4.70386L18.5094 5.82275M6.00017 12.7143C6.00017 9.55837 8.68646 7 12.0002 7C15.3139 7 18.0002 9.55837 18.0002 12.7143C18.0002 14.5456 17.0956 16.1758 15.6888 17.2215C15.0202 17.7185 14.686 17.9669 14.558 18.1346C14.4113 18.3268 14.375 18.3988 14.3084 18.6311C14.2502 18.8339 14.2502 19.1093 14.2502 19.6601V20.08C14.2502 20.7521 14.2502 21.0881 14.1194 21.3448C14.0043 21.5706 13.8208 21.7542 13.595 21.8692C13.3383 22 13.0022 22 12.3302 22H11.6702C10.9981 22 10.6621 22 10.4054 21.8692C10.1796 21.7542 9.99601 21.5706 9.88096 21.3448C9.75017 21.0881 9.75017 20.7521 9.75017 20.08V19.6601C9.75017 19.1093 9.75017 18.8339 9.69197 18.6311C9.62529 18.3988 9.58909 18.3268 9.44239 18.1346C9.31436 17.9669 8.98009 17.7185 8.31157 17.2215C6.90474 16.1758 6.00017 14.5456 6.00017 12.7143Z" stroke="currentColor" stroke-width="2" stroke-linecap="round" stroke-linejoin="round"/>
</svg>
