<svg width="24" height="24" viewBox="0 0 24 24" fill="none" xmlns="http://www.w3.org/2000/svg">
<path d="M14.857 16.6843V19.1429C14.857 19.9408 14.857 20.3398 14.7448 20.6606C14.5438 21.2351 14.0921 21.6867 13.5176 21.8878C13.1969 22 12.7979 22 11.9999 22C11.2019 22 10.803 22 10.4822 21.8878C9.90771 21.6867 9.45602 21.2351 9.255 20.6606C9.14276 20.3398 9.14276 19.9408 9.14276 19.1429L9.14276 16.6843M14.857 16.6843C17.6493 15.554 19.619 12.8166 19.619 9.61905C19.619 5.41116 16.2078 2 11.9999 2C7.79202 2 4.38086 5.41116 4.38086 9.61905C4.38086 12.8166 6.35054 15.554 9.14276 16.6843M14.857 16.6843H9.14276M12 13.2687V10.7313M12 10.7313H14.8571M12 10.7313H9.14285" stroke="currentColor" stroke-width="2" stroke-linecap="round" stroke-linejoin="round"/>
</svg>
