<svg width="24" height="24" viewBox="0 0 24 24" fill="none" xmlns="http://www.w3.org/2000/svg">
<path d="M12 13.901V11.3635M12 11.3635H14.8571M12 11.3635H9.14285M4.38086 9.61905C4.38086 5.41116 7.79202 2 11.9999 2C16.2078 2 19.619 5.41116 19.619 9.61905C19.619 11.861 18.6506 13.8768 17.1093 15.271C16.1663 16.124 15.6949 16.5505 15.5647 16.7047C15.0385 17.328 14.9934 17.4297 14.8841 18.2381C14.857 18.4381 14.857 18.7443 14.857 19.3567C14.857 19.9549 14.857 20.254 14.7936 20.4999C14.6117 21.2044 14.0615 21.7547 13.3569 21.9365C13.111 22 12.8119 22 12.2138 22H11.786C11.1879 22 10.8888 22 10.6429 21.9365C9.93831 21.7547 9.38811 21.2044 9.20624 20.4999C9.14276 20.254 9.14276 19.9549 9.14276 19.3567C9.14276 18.7443 9.14276 18.4381 9.11573 18.2381C9.00646 17.4297 8.96132 17.328 8.43515 16.7047C8.30496 16.5505 7.83343 16.124 6.89049 15.271C5.34922 13.8768 4.38086 11.861 4.38086 9.61905Z" stroke="currentColor" stroke-width="2" stroke-linecap="round" stroke-linejoin="round"/>
</svg>
