<svg width="24" height="24" viewBox="0 0 24 24" fill="none" xmlns="http://www.w3.org/2000/svg">
<path d="M6.05132 14.0179C5.66079 14.4085 5.66079 15.0416 6.05132 15.4321C6.44184 15.8227 7.07501 15.8227 7.46553 15.4321L6.05132 14.0179ZM10.294 11.1895L11.0011 10.4824C10.6105 10.0919 9.97737 10.0919 9.58685 10.4824L10.294 11.1895ZM12.4153 13.3108L11.7082 14.0179C11.8957 14.2055 12.1501 14.3108 12.4153 14.3108C12.6805 14.3108 12.9348 14.2055 13.1224 14.0179L12.4153 13.3108ZM16.6579 10.4824C17.0484 10.0919 17.0484 9.45871 16.6579 9.06818C16.2674 8.67766 15.6342 8.67766 15.2437 9.06818L16.6579 10.4824ZM16.1626 8.14937C15.772 8.53989 15.772 9.17306 16.1626 9.56358C16.5531 9.9541 17.1862 9.9541 17.5768 9.56358L16.1626 8.14937ZM17.599 9.5413C17.9896 9.15078 17.9896 8.51762 17.599 8.12709C17.2085 7.73657 16.5754 7.73657 16.1848 8.12709L17.599 9.5413ZM15.6919 12.3405C15.6607 12.8919 16.0824 13.3642 16.6338 13.3954C17.1852 13.4266 17.6575 13.0049 17.6887 12.4535L15.6919 12.3405ZM17.8863 8.96269C17.9175 8.41129 17.4958 7.93899 16.9444 7.90778C16.393 7.87656 15.9207 8.29826 15.8895 8.84966L17.8863 8.96269ZM16.8765 9.83667C17.4279 9.80546 17.8496 9.33316 17.8184 8.78176C17.7871 8.23036 17.3148 7.80866 16.7634 7.83987L16.8765 9.83667ZM13.2726 8.03747C12.7212 8.06868 12.2995 8.54098 12.3307 9.09238C12.3619 9.64378 12.8342 10.0655 13.3856 10.0343L13.2726 8.03747ZM21 12C21 16.9706 16.9706 21 12 21V23C18.0751 23 23 18.0751 23 12H21ZM12 21C7.02944 21 3 16.9706 3 12H1C1 18.0751 5.92487 23 12 23V21ZM3 12C3 7.02944 7.02944 3 12 3V1C5.92487 1 1 5.92487 1 12H3ZM12 3C16.9706 3 21 7.02944 21 12H23C23 5.92487 18.0751 1 12 1V3ZM7.46553 15.4321L11.0011 11.8966L9.58685 10.4824L6.05132 14.0179L7.46553 15.4321ZM9.58685 11.8966L11.7082 14.0179L13.1224 12.6037L11.0011 10.4824L9.58685 11.8966ZM13.1224 14.0179L16.6579 10.4824L15.2437 9.06818L11.7082 12.6037L13.1224 14.0179ZM17.5768 9.56358L17.599 9.5413L16.1848 8.12709L16.1626 8.14937L17.5768 9.56358ZM17.6887 12.4535L17.8863 8.96269L15.8895 8.84966L15.6919 12.3405L17.6887 12.4535ZM16.7634 7.83987L13.2726 8.03747L13.3856 10.0343L16.8765 9.83667L16.7634 7.83987Z" fill="currentColor"/>
</svg>
