<svg width="24" height="24" viewBox="0 0 24 24" fill="none" xmlns="http://www.w3.org/2000/svg">
<path d="M21 21H7.8C6.11984 21 5.27976 21 4.63803 20.673C4.07354 20.3854 3.6146 19.9265 3.32698 19.362C3 18.7202 3 17.8802 3 16.2V3M3 10H11.5L19.5 15.5M13 10.2381C13 11.0666 12.3284 11.7381 11.5 11.7381C10.6716 11.7381 10 11.0666 10 10.2381C10 9.40971 10.6716 8.73814 11.5 8.73814C12.3284 8.73814 13 9.40971 13 10.2381ZM21 15.5C21 16.3284 20.3284 17 19.5 17C18.6716 17 18 16.3284 18 15.5C18 14.6716 18.6716 14 19.5 14C20.3284 14 21 14.6716 21 15.5Z" stroke="currentColor" stroke-width="2" stroke-linecap="round" stroke-linejoin="round"/>
</svg>
