<svg width="24" height="24" viewBox="0 0 24 24" fill="none" xmlns="http://www.w3.org/2000/svg">
<path d="M17 10V7C17 4.23858 14.7614 2 12 2C9.23858 2 7 4.23858 7 7V10M12 15V17M9.8 22H14.2C15.8802 22 16.7202 22 17.362 21.673C17.9265 21.3854 18.3854 20.9265 18.673 20.362C19 19.7202 19 18.8802 19 17.2V14.8C19 13.1198 19 12.2798 18.673 11.638C18.3854 11.0735 17.9265 10.6146 17.362 10.327C16.7202 10 15.8802 10 14.2 10H9.8C8.11984 10 7.27976 10 6.63803 10.327C6.07354 10.6146 5.6146 11.0735 5.32698 11.638C5 12.2798 5 13.1198 5 14.8V17.2C5 18.8802 5 19.7202 5.32698 20.362C5.6146 20.9265 6.07354 21.3854 6.63803 21.673C7.27976 22 8.11984 22 9.8 22Z" stroke="currentColor" stroke-width="2" stroke-linecap="round" stroke-linejoin="round"/>
</svg>
