<svg width="24" height="24" viewBox="0 0 24 24" fill="none" xmlns="http://www.w3.org/2000/svg">
<path d="M18.0215 8V7.8C18.0215 6.11984 18.0215 5.27976 17.6945 4.63803C17.4069 4.07354 16.948 3.6146 16.3835 3.32698C15.7417 3 14.9017 3 13.2215 3H7.8188C6.13864 3 5.29856 3 4.65683 3.32698C4.09234 3.6146 3.6334 4.07354 3.34578 4.63803C3.0188 5.27976 3.0188 6.11984 3.0188 7.8V16.2C3.0188 17.8802 3.0188 18.7202 3.34578 19.362C3.6334 19.9265 4.09234 20.3854 4.65683 20.673C5.29856 21 6.13864 21 7.8188 21H13.2215C14.9017 21 15.7417 21 16.3835 20.673C16.948 20.3854 17.4069 19.9265 17.6945 19.362C18.0215 18.7202 18.0215 17.8802 18.0215 16.2V16M8.52359 12L12.7927 16.2691M8.52359 12L12.7927 7.73089M8.52359 12L21.0007 12" stroke="currentColor" stroke-width="2" stroke-linecap="round" stroke-linejoin="round"/>
</svg>
