<svg width="24" height="24" viewBox="0 0 24 24" fill="none" xmlns="http://www.w3.org/2000/svg">
<path d="M5.99926 8.00001V7.84398C5.99926 6.30934 5.99926 5.54202 6.28672 4.93354C6.53991 4.3976 6.94619 3.94867 7.45428 3.64341C8.03114 3.29684 8.79465 3.22049 10.3217 3.0678L15.7224 2.52775C17.5512 2.34488 18.4655 2.25345 19.1723 2.5535C19.7932 2.81707 20.3071 3.28215 20.6311 3.87369C21 4.54712 21 5.46605 21 7.30393V16.6962C21 18.534 21 19.4529 20.6311 20.1264C20.3071 20.7179 19.7932 21.183 19.1724 21.4466C18.4656 21.7466 17.5512 21.6552 15.7225 21.4724L10.3217 20.9324C8.79402 20.7796 8.03019 20.7033 7.45319 20.3565C6.94498 20.0511 6.53867 19.6019 6.28556 19.0658C5.9982 18.457 5.99853 17.6894 5.9992 16.1541L5.99926 16M15.4967 12L11.2276 16.2691M15.4967 12L11.2276 7.73091M15.4967 12L3.01953 12" stroke="currentColor" stroke-width="2" stroke-linecap="round" stroke-linejoin="round"/>
</svg>
