<svg width="24" height="24" viewBox="0 0 24 24" fill="none" xmlns="http://www.w3.org/2000/svg">
<path d="M5.99731 8V7.8C5.99731 6.11984 5.99731 5.27976 6.32429 4.63803C6.61191 4.07354 7.07085 3.6146 7.63534 3.32698C8.27707 3 9.11715 3 10.7973 3H16.2C17.8802 3 18.7202 3 19.362 3.32698C19.9265 3.6146 20.3854 4.07354 20.673 4.63803C21 5.27976 21 6.11984 21 7.8V16.2C21 17.8802 21 18.7202 20.673 19.362C20.3854 19.9265 19.9265 20.3854 19.362 20.673C18.7202 21 17.8802 21 16.2 21H10.7973C9.11716 21 8.27707 21 7.63534 20.673C7.07085 20.3854 6.61191 19.9265 6.32429 19.362C5.99731 18.7202 5.99731 17.8802 5.99731 16.2V16M15.4967 12L11.2276 16.2691M15.4967 12L11.2276 7.73089M15.4967 12L3.01953 12" stroke="currentColor" stroke-width="2" stroke-linecap="round" stroke-linejoin="round"/>
</svg>
