<svg width="24" height="24" viewBox="0 0 24 24" fill="none" xmlns="http://www.w3.org/2000/svg">
<path d="M18.0195 8.00001V7.84398C18.0195 6.30934 18.0195 5.54202 17.7321 4.93354C17.4789 4.3976 17.0726 3.94867 16.5645 3.64341C15.9877 3.29684 15.2242 3.22049 13.6971 3.0678L8.29639 2.52775C6.46764 2.34488 5.55326 2.25345 4.84647 2.5535C4.22563 2.81707 3.71172 3.28215 3.38769 3.87369C3.0188 4.54712 3.0188 5.46605 3.0188 7.30393V16.6962C3.0188 18.534 3.0188 19.4529 3.38768 20.1264C3.71171 20.7179 4.22561 21.183 4.84645 21.4466C5.55323 21.7466 6.4676 21.6552 8.29633 21.4724L13.6972 20.9324C15.2248 20.7796 15.9886 20.7033 16.5656 20.3565C17.0738 20.0511 17.4801 19.6019 17.7332 19.0658C18.0206 18.457 18.0203 17.6894 18.0196 16.1541L18.0195 16M8.52359 12L12.7927 16.2691M8.52359 12L12.7927 7.73091M8.52359 12L21.0007 12" stroke="currentColor" stroke-width="2" stroke-linecap="round" stroke-linejoin="round"/>
</svg>
