<svg width="24" height="24" viewBox="0 0 24 24" fill="none" xmlns="http://www.w3.org/2000/svg">
<path d="M11 7.99996V7.93501C11 6.5333 11 5.83244 11.2511 5.25798C11.4725 4.75141 11.8295 4.31586 12.2828 3.99942C12.7969 3.64058 13.4842 3.50313 14.8587 3.22823L15.2587 3.14823C17.2267 2.75462 18.2107 2.55781 18.9808 2.82423C19.6563 3.05791 20.2261 3.52506 20.5877 4.14158C21 4.84448 21 5.84799 21 7.85501V16.1449C21 18.1519 21 19.1554 20.5877 19.8583C20.2261 20.4748 19.6563 20.942 18.9808 21.1757C18.2107 21.4421 17.2267 21.2453 15.2587 20.8517L14.8587 20.7717C13.4842 20.4968 12.7969 20.3593 12.2828 20.0005C11.8295 19.6841 11.4725 19.2485 11.2511 18.7419C11 18.1675 11 17.4666 11 16.0649V16M3.01978 12L7.28889 16.7986M3.01978 12L7.28889 7.20137M3.01978 12H13.6406" stroke="currentColor" stroke-width="2" stroke-linecap="round" stroke-linejoin="round"/>
</svg>
