<svg width="24" height="24" viewBox="0 0 24 24" fill="none" xmlns="http://www.w3.org/2000/svg">
<path d="M13.0198 7.99996V7.93501C13.0198 6.5333 13.0198 5.83244 12.7687 5.25798C12.5473 4.75141 12.1903 4.31586 11.7369 3.99942C11.2229 3.64058 10.5356 3.50313 9.16113 3.22823L8.76113 3.14823C6.79309 2.75462 5.80906 2.55781 5.03896 2.82423C4.3635 3.05791 3.79366 3.52506 3.43205 4.14158C3.01978 4.84448 3.01978 5.84799 3.01978 7.85501V16.1449C3.01978 18.1519 3.01978 19.1554 3.43205 19.8583C3.79366 20.4748 4.3635 20.942 5.03896 21.1757C5.80906 21.4421 6.79309 21.2453 8.76113 20.8517L9.16113 20.7717C10.5356 20.4968 11.2229 20.3593 11.7369 20.0005C12.1903 19.6841 12.5473 19.2485 12.7687 18.7419C13.0198 18.1675 13.0198 17.4666 13.0198 16.0649V16M21 12L16.7309 16.7986M21 12L16.7309 7.20137M21 12H10.3792" stroke="currentColor" stroke-width="2" stroke-linecap="round" stroke-linejoin="round"/>
</svg>
