<svg width="24" height="24" viewBox="0 0 24 24" fill="none" xmlns="http://www.w3.org/2000/svg">
<path d="M11 8V7.8C11 6.11984 11 5.27976 11.327 4.63803C11.6146 4.07354 12.0736 3.6146 12.638 3.32698C13.2798 3 14.1199 3 15.8 3H16.2C17.8802 3 18.7203 3 19.362 3.32698C19.9265 3.6146 20.3854 4.07354 20.673 4.63803C21 5.27976 21 6.11984 21 7.8V16.2C21 17.8802 21 18.7202 20.673 19.362C20.3854 19.9265 19.9265 20.3854 19.362 20.673C18.7203 21 17.8802 21 16.2 21H15.8C14.1199 21 13.2798 21 12.638 20.673C12.0736 20.3854 11.6146 19.9265 11.327 19.362C11 18.7202 11 17.8802 11 16.2V16M3.01953 12L7.28864 16.2691M3.01953 12L7.28864 7.7309M3.01953 12H13.6404" stroke="currentColor" stroke-width="2" stroke-linecap="round" stroke-linejoin="round"/>
</svg>
