<svg width="24" height="24" viewBox="0 0 24 24" fill="none" xmlns="http://www.w3.org/2000/svg">
<path d="M2 11.8C2 10.1198 2 9.27976 2.32698 8.63803C2.6146 8.07354 3.07354 7.6146 3.63803 7.32698C4.27976 7 5.11984 7 6.8 7H17.2C18.8802 7 19.7202 7 20.362 7.32698C20.9265 7.6146 21.3854 8.07354 21.673 8.63803C22 9.27976 22 10.1198 22 11.8V16.2C22 17.8802 22 18.7202 21.673 19.362C21.3854 19.9265 20.9265 20.3854 20.362 20.673C19.7202 21 18.8802 21 17.2 21H6.8C5.11984 21 4.27976 21 3.63803 20.673C3.07354 20.3854 2.6146 19.9265 2.32698 19.362C2 18.7202 2 17.8802 2 16.2V11.8Z" stroke="currentColor" stroke-width="2" stroke-linecap="round" stroke-linejoin="round"/>
<path d="M8 7C8 6.07003 8 5.60504 8.10222 5.22354C8.37962 4.18827 9.18827 3.37962 10.2235 3.10222C10.605 3 11.07 3 12 3C12.93 3 13.395 3 13.7765 3.10222C14.8117 3.37962 15.6204 4.18827 15.8978 5.22354C16 5.60504 16 6.07003 16 7H8Z" stroke="currentColor" stroke-width="2" stroke-linecap="round" stroke-linejoin="round"/>
<path d="M13 14.8C13 14.52 13 14.38 13.0545 14.273C13.1024 14.1789 13.1789 14.1024 13.273 14.0545C13.38 14 13.52 14 13.8 14H18.2C18.48 14 18.62 14 18.727 14.0545C18.8211 14.1024 18.8976 14.1789 18.9455 14.273C19 14.38 19 14.52 19 14.8V17.2C19 17.48 19 17.62 18.9455 17.727C18.8976 17.8211 18.8211 17.8976 18.727 17.9455C18.62 18 18.48 18 18.2 18H13.8C13.52 18 13.38 18 13.273 17.9455C13.1789 17.8976 13.1024 17.8211 13.0545 17.727C13 17.62 13 17.48 13 17.2V14.8Z" stroke="currentColor" stroke-width="2" stroke-linecap="round" stroke-linejoin="round"/>
</svg>
