<svg width="24" height="24" viewBox="0 0 24 24" fill="none" xmlns="http://www.w3.org/2000/svg">
<path d="M8 8V21M16 8V14M16 18V21M6.8 21H17.2C18.8802 21 19.7202 21 20.362 20.673C20.9265 20.3854 21.3854 19.9265 21.673 19.362C22 18.7202 22 17.8802 22 16.2V11.8C22 10.1198 22 9.27976 21.673 8.63803C21.3854 8.07354 20.9265 7.6146 20.362 7.32698C19.7202 7 18.8802 7 17.2 7H6.8C5.11984 7 4.27976 7 3.63803 7.32698C3.07354 7.6146 2.6146 8.07354 2.32698 8.63803C2 9.27976 2 10.1198 2 11.8V16.2C2 17.8802 2 18.7202 2.32698 19.362C2.6146 19.9265 3.07354 20.3854 3.63803 20.673C4.27976 21 5.11984 21 6.8 21ZM16 7H8C8 6.07003 8 5.60504 8.10222 5.22354C8.37962 4.18827 9.18827 3.37962 10.2235 3.10222C10.605 3 11.07 3 12 3C12.93 3 13.395 3 13.7765 3.10222C14.8117 3.37962 15.6204 4.18827 15.8978 5.22354C16 5.60504 16 6.07003 16 7ZM13.8 18H18.2C18.48 18 18.62 18 18.727 17.9455C18.8211 17.8976 18.8976 17.8211 18.9455 17.727C19 17.62 19 17.48 19 17.2V14.8C19 14.52 19 14.38 18.9455 14.273C18.8976 14.1789 18.8211 14.1024 18.727 14.0545C18.62 14 18.48 14 18.2 14H13.8C13.52 14 13.38 14 13.273 14.0545C13.1789 14.1024 13.1024 14.1789 13.0545 14.273C13 14.38 13 14.52 13 14.8V17.2C13 17.48 13 17.62 13.0545 17.727C13.1024 17.8211 13.1789 17.8976 13.273 17.9455C13.38 18 13.52 18 13.8 18Z" stroke="currentColor" stroke-width="2" stroke-linecap="round" stroke-linejoin="round"/>
</svg>
