<svg width="24" height="24" viewBox="0 0 24 24" fill="none" xmlns="http://www.w3.org/2000/svg">
<path d="M19.673 18.362C20 17.7202 20 16.8802 20 15.2V6.8C20 5.11984 20 4.27976 19.673 3.63803C19.3854 3.07354 18.9265 2.6146 18.362 2.32698C17.7202 2 16.8802 2 15.2 2H8.8C7.11984 2 6.27976 2 5.63803 2.32698C5.07354 2.6146 4.6146 3.07354 4.32698 3.63803M15.2 20H8.8C7.11984 20 6.27976 20 5.63803 19.673C5.07354 19.3854 4.6146 18.9265 4.32698 18.362C4 17.7202 4 16.8802 4 15.2V9M9.48859 13.5V15M9.48859 7V9.5M14.5377 7V14M2 2L22 22M9 21C9 21.5523 8.55228 22 8 22C7.44772 22 7 21.5523 7 21C7 20.4477 7.44772 20 8 20C8.55228 20 9 20.4477 9 21Z" stroke="currentColor" stroke-width="2" stroke-linecap="round" stroke-linejoin="round"/>
</svg>
