<svg width="24" height="24" viewBox="0 0 24 24" fill="none" xmlns="http://www.w3.org/2000/svg">
<path d="M7 7H17.2C18.8802 7 19.7202 7 20.362 7.32698C20.9265 7.6146 21.3854 8.07354 21.673 8.63803C22 9.27976 22 10.1198 22 11.8V16.2C22 17.8802 22 18.7202 21.673 19.362C21.4512 19.7973 21.1275 20.1699 20.732 20.4495M16 21H6.8C5.11984 21 4.27976 21 3.63803 20.673C3.07354 20.3854 2.6146 19.9265 2.32698 19.362C2 18.7202 2 17.8802 2 16.2V11.8C2 10.1198 2 9.27976 2.32698 8.63803C2.44521 8.406 2.59238 8.1918 2.76393 8M8 13V21M16 8V16M2 2L22 22M16 7H8C8 6.07003 8 5.60504 8.10222 5.22354C8.37962 4.18827 9.18827 3.37962 10.2235 3.10222C10.605 3 11.07 3 12 3C12.93 3 13.395 3 13.7765 3.10222C14.8117 3.37962 15.6204 4.18827 15.8978 5.22354C16 5.60504 16 6.07003 16 7Z" stroke="currentColor" stroke-width="2" stroke-linecap="round" stroke-linejoin="round"/>
</svg>
