<svg width="24" height="24" viewBox="0 0 24 24" fill="none" xmlns="http://www.w3.org/2000/svg">
<path d="M10.6568 10.5304L3.61899 17.5682C2.83794 18.3493 2.83794 19.6156 3.61899 20.3966C4.40004 21.1777 5.66637 21.1777 6.44742 20.3966L13.4852 13.3588M10.6568 10.5304L12.071 9.11618C12.3998 8.78739 12.5642 8.62299 12.7352 8.52425C13.1993 8.2563 13.7711 8.2563 14.2352 8.52425C14.4063 8.62299 14.5707 8.78739 14.8994 9.11618C15.2282 9.44498 15.3926 9.60937 15.4914 9.7804C15.7593 10.2445 15.7593 10.8163 15.4914 11.2804C15.3926 11.4514 15.2282 11.6158 14.8994 11.9446L13.4852 13.3588M10.6568 10.5304L13.4852 13.3588M10.6317 5.67664L9.154 4.19898M19.7957 14.8381L18.3181 13.3605M19.7957 4.19898L18.3181 5.67664M21.9996 9.51832H19.9099M14.4763 1.99585V4.08558" stroke="currentColor" stroke-width="2" stroke-linecap="round"/>
</svg>
