<svg width="24" height="24" viewBox="0 0 24 24" fill="none" xmlns="http://www.w3.org/2000/svg">
<path d="M14.121 6.63802L17.0619 3.69706C17.656 3.10303 17.953 2.80602 18.2955 2.69474C18.5967 2.59685 18.9212 2.59685 19.2225 2.69474C19.565 2.80602 19.862 3.10303 20.456 3.69706L20.563 3.80404C21.1571 4.39807 21.4541 4.69508 21.5654 5.03757C21.6632 5.33884 21.6632 5.66336 21.5654 5.96462C21.4541 6.30712 21.1571 6.60413 20.563 7.19815L17.6221 10.1391M14.121 6.63802L3.49046 17.2685C2.52366 18.2353 2.52366 19.8028 3.49046 20.7696C4.45726 21.7364 6.02476 21.7364 6.99156 20.7696L17.6221 10.1391M14.121 6.63802L17.6221 10.1391M19.7908 19.7719V19.7901M2.46738 4.9372C2.69113 4.87177 2.803 4.83905 2.90602 4.80108C3.78464 4.47723 4.47723 3.78464 4.80108 2.90602C4.83905 2.803 4.87177 2.69113 4.9372 2.46738C4.97886 2.32493 4.99969 2.2537 5.01539 2.22207C5.16236 1.92598 5.58471 1.92598 5.73168 2.22207C5.74738 2.2537 5.76821 2.32493 5.80987 2.46738C5.8753 2.69113 5.90802 2.803 5.94599 2.90602C6.26984 3.78464 6.96243 4.47723 7.84105 4.80108C7.94407 4.83905 8.05594 4.87177 8.2797 4.9372C8.42214 4.97886 8.49337 4.99969 8.525 5.01539C8.82109 5.16236 8.82109 5.58471 8.525 5.73168C8.49337 5.74738 8.42214 5.76821 8.2797 5.80987C8.05594 5.8753 7.94407 5.90802 7.84105 5.94599C6.96243 6.26984 6.26984 6.96243 5.94599 7.84105C5.90802 7.94407 5.8753 8.05594 5.80987 8.2797C5.76821 8.42214 5.74738 8.49337 5.73168 8.525C5.58471 8.82109 5.16236 8.82109 5.01539 8.525C4.99969 8.49337 4.97886 8.42214 4.9372 8.2797C4.87177 8.05594 4.83905 7.94407 4.80108 7.84105C4.47723 6.96243 3.78464 6.26984 2.90602 5.94599C2.803 5.90802 2.69113 5.8753 2.46738 5.80987C2.32493 5.76821 2.2537 5.74738 2.22207 5.73168C1.92598 5.58471 1.92598 5.16236 2.22207 5.01539C2.2537 4.99969 2.32493 4.97886 2.46738 4.9372ZM17.896 19.5101C18.0422 19.4674 18.1154 19.446 18.1827 19.4212C18.7569 19.2095 19.2095 18.7569 19.4212 18.1827C19.446 18.1154 19.4674 18.0422 19.5101 17.896C19.5374 17.8029 19.551 17.7564 19.5612 17.7357C19.6573 17.5422 19.9333 17.5422 20.0293 17.7357C20.0396 17.7564 20.0532 17.8029 20.0804 17.896C20.1232 18.0422 20.1446 18.1154 20.1694 18.1827C20.381 18.7569 20.8337 19.2095 21.4079 19.4212C21.4752 19.446 21.5483 19.4674 21.6946 19.5101C21.7876 19.5374 21.8342 19.551 21.8549 19.5612C22.0484 19.6573 22.0484 19.9333 21.8549 20.0293C21.8342 20.0396 21.7876 20.0532 21.6946 20.0804C21.5483 20.1232 21.4752 20.1446 21.4079 20.1694C20.8337 20.381 20.381 20.8337 20.1694 21.4079C20.1446 21.4752 20.1232 21.5483 20.0804 21.6946C20.0532 21.7876 20.0396 21.8342 20.0293 21.8549C19.9333 22.0484 19.6573 22.0484 19.5612 21.8549C19.551 21.8342 19.5374 21.7876 19.5101 21.6946C19.4674 21.5483 19.446 21.4752 19.4212 21.4079C19.2095 20.8337 18.7569 20.381 18.1827 20.1694C18.1154 20.1446 18.0422 20.1232 17.896 20.0804C17.8029 20.0532 17.7564 20.0396 17.7357 20.0293C17.5422 19.9333 17.5422 19.6573 17.7357 19.5612C17.7564 19.551 17.8029 19.5374 17.896 19.5101Z" stroke="currentColor" stroke-width="2" stroke-linecap="round" stroke-linejoin="round"/>
</svg>
