<svg width="24" height="24" viewBox="0 0 24 24" fill="none" xmlns="http://www.w3.org/2000/svg">
<path d="M13.0246 9.27289L15.1785 7.11899C15.9706 6.32696 16.3666 5.93094 16.8232 5.78256C17.2249 5.65205 17.6576 5.65205 18.0593 5.78256C18.516 5.93094 18.912 6.32696 19.704 7.11899L20.4264 7.84134C21.2184 8.63338 21.6144 9.02939 21.7628 9.48605C21.8933 9.88774 21.8933 10.3204 21.7628 10.7221C21.6144 11.1788 21.2184 11.5748 20.4264 12.3668L18.2725 14.5207M13.0246 9.27289L7.19321 15.1043C6.40117 15.8964 6.00516 16.2924 5.85678 16.749C5.72626 17.1507 5.72626 17.5834 5.85678 17.9851C6.00516 18.4418 6.40117 18.8378 7.19321 19.6298L8.48124 20.9178C9.07527 21.5119 9.37228 21.8089 9.71477 21.9202C10.016 22.0181 10.3406 22.0181 10.6418 21.9202C10.9843 21.8089 11.2813 21.5119 11.8754 20.9178L18.2725 14.5207M13.0246 9.27289L18.2725 14.5207M10.065 22H22M2.55417 5.48264C2.81947 5.40505 2.95212 5.36626 3.07426 5.32124C4.11605 4.93726 4.93726 4.11605 5.32124 3.07426C5.36626 2.95212 5.40505 2.81947 5.48264 2.55417C5.53203 2.38527 5.55673 2.30082 5.57535 2.2633C5.74961 1.91223 6.25039 1.91223 6.42465 2.2633C6.44327 2.30082 6.46797 2.38527 6.51736 2.55417C6.59495 2.81947 6.63374 2.95212 6.67876 3.07426C7.06274 4.11605 7.88395 4.93726 8.92574 5.32124C9.04788 5.36626 9.18053 5.40505 9.44583 5.48264C9.61473 5.53203 9.69918 5.55673 9.7367 5.57535C10.0878 5.74961 10.0878 6.25039 9.7367 6.42465C9.69918 6.44327 9.61473 6.46797 9.44583 6.51736C9.18053 6.59495 9.04788 6.63374 8.92574 6.67876C7.88395 7.06274 7.06274 7.88395 6.67876 8.92574C6.63374 9.04788 6.59495 9.18053 6.51736 9.44583C6.46797 9.61473 6.44327 9.69918 6.42465 9.7367C6.25039 10.0878 5.74961 10.0878 5.57535 9.7367C5.55673 9.69918 5.53203 9.61473 5.48264 9.44583C5.40505 9.18053 5.36626 9.04788 5.32124 8.92574C4.93726 7.88395 4.11605 7.06274 3.07426 6.67876C2.95212 6.63374 2.81947 6.59495 2.55417 6.51736C2.38527 6.46797 2.30082 6.44327 2.2633 6.42465C1.91223 6.25039 1.91223 5.74961 2.2633 5.57535C2.30082 5.55673 2.38527 5.53203 2.55417 5.48264Z" stroke="currentColor" stroke-width="2" stroke-linecap="round" stroke-linejoin="round"/>
</svg>
