<svg width="24" height="24" viewBox="0 0 24 24" fill="none" xmlns="http://www.w3.org/2000/svg">
<path d="M5.24241 9.05064L12.3135 16.1217M5.24241 9.05064L2.69683 11.5962C2.1028 12.1902 1.80579 12.4873 1.69451 12.8298C1.59662 13.131 1.59662 13.4555 1.69451 13.7568C1.80579 14.0993 2.1028 14.3963 2.69683 14.9903L6.37379 18.6673C6.96781 19.2613 7.26482 19.5583 7.60732 19.6696C7.90858 19.7675 8.2331 19.7675 8.53437 19.6696C8.87686 19.5583 9.17387 19.2613 9.7679 18.6673L12.3135 16.1217M5.24241 9.05064L7.07133 5.89146C7.82586 4.58818 8.20313 3.93653 8.72227 3.44198C9.18199 3.00404 9.72091 2.65767 10.3102 2.42138C10.9757 2.15454 11.7252 2.08201 13.2241 1.93695L14.2902 1.83379C16.2798 1.64124 17.2747 1.54497 18.0125 1.88573C18.6597 2.18463 19.1794 2.70425 19.4783 3.35147C19.819 4.08932 19.7228 5.08415 19.5302 7.07383L19.427 8.13985C19.282 9.63879 19.2095 10.3883 18.9426 11.0538C18.7063 11.6431 18.3599 12.182 17.922 12.6417C17.4275 13.1609 16.7758 13.5381 15.4725 14.2927L12.3135 16.1217M18.6774 2.68662L13.0206 8.34348M19.7906 19.7171L19.7906 19.7352M13.7501 20.3642H13.7601M13.7277 9.05062C13.3371 9.44114 12.704 9.44114 12.3134 9.05062C11.9229 8.66009 11.9229 8.02693 12.3134 7.6364C12.704 7.24588 13.3371 7.24588 13.7277 7.6364C14.1182 8.02693 14.1182 8.66009 13.7277 9.05062ZM17.8958 19.4553C18.042 19.4125 18.1152 19.3911 18.1825 19.3663C18.7567 19.1547 19.2093 18.702 19.421 18.1278C19.4458 18.0605 19.4672 17.9874 19.5099 17.8412C19.5372 17.7481 19.5508 17.7015 19.561 17.6808C19.6571 17.4873 19.9331 17.4873 20.0291 17.6808C20.0394 17.7015 20.053 17.7481 20.0802 17.8412C20.123 17.9874 20.1444 18.0605 20.1692 18.1278C20.3808 18.702 20.8335 19.1547 21.4077 19.3663C21.475 19.3911 21.5481 19.4125 21.6944 19.4553C21.7874 19.4825 21.834 19.4961 21.8547 19.5064C22.0482 19.6024 22.0482 19.8784 21.8547 19.9745C21.834 19.9847 21.7874 19.9984 21.6944 20.0256C21.5481 20.0683 21.475 20.0897 21.4077 20.1145C20.8335 20.3262 20.3808 20.7788 20.1692 21.353C20.1444 21.4203 20.123 21.4935 20.0802 21.6397C20.053 21.7328 20.0394 21.7793 20.0291 21.8C19.9331 21.9935 19.6571 21.9935 19.561 21.8C19.5508 21.7793 19.5372 21.7328 19.5099 21.6397C19.4672 21.4935 19.4458 21.4203 19.421 21.353C19.2093 20.7788 18.7567 20.3262 18.1825 20.1145C18.1152 20.0897 18.042 20.0683 17.8958 20.0256C17.8027 19.9984 17.7562 19.9847 17.7355 19.9745C17.542 19.8784 17.542 19.6024 17.7355 19.5064C17.7562 19.4961 17.8027 19.4825 17.8958 19.4553Z" stroke="currentColor" stroke-width="2" stroke-linecap="round" stroke-linejoin="round"/>
</svg>
