<svg width="24" height="24" viewBox="0 0 24 24" fill="none" xmlns="http://www.w3.org/2000/svg">
<path d="M14.1212 6.63804L17.0622 3.69707C17.6562 3.10305 17.9532 2.80604 18.2957 2.69475C18.597 2.59687 18.9215 2.59687 19.2228 2.69475C19.5653 2.80604 19.8623 3.10305 20.4563 3.69707L20.5633 3.80406C21.1573 4.39809 21.4543 4.6951 21.5656 5.03759C21.6635 5.33886 21.6635 5.66338 21.5656 5.96464C21.4543 6.30713 21.1573 6.60415 20.5633 7.19817L17.6223 10.1391M14.1212 6.63804L3.49073 17.2685C2.52392 18.2353 2.52393 19.8028 3.49073 20.7696C4.45753 21.7364 6.02502 21.7364 6.99182 20.7696L17.6223 10.1391M14.1212 6.63804L17.6223 10.1391M15.7205 18.1901C15.9443 18.1247 16.0562 18.092 16.1592 18.054C17.0378 17.7302 17.7304 17.0376 18.0543 16.1589C18.0922 16.0559 18.1249 15.9441 18.1904 15.7203C18.232 15.5779 18.2529 15.5066 18.2686 15.475C18.4155 15.1789 18.8379 15.1789 18.9848 15.475C19.0006 15.5066 19.0214 15.5779 19.063 15.7203C19.1285 15.9441 19.1612 16.0559 19.1992 16.1589C19.523 17.0376 20.2156 17.7302 21.0942 18.054C21.1972 18.092 21.3091 18.1247 21.5329 18.1901C21.6753 18.2318 21.7465 18.2526 21.7782 18.2683C22.0743 18.4153 22.0743 18.8376 21.7782 18.9846C21.7465 19.0003 21.6753 19.0211 21.5329 19.0628C21.3091 19.1282 21.1972 19.161 21.0942 19.1989C20.2156 19.5228 19.523 20.2154 19.1992 21.094C19.1612 21.197 19.1285 21.3089 19.063 21.5326C19.0214 21.6751 19.0006 21.7463 18.9848 21.7779C18.8379 22.074 18.4155 22.074 18.2686 21.7779C18.2529 21.7463 18.232 21.6751 18.1904 21.5326C18.1249 21.3089 18.0922 21.197 18.0543 21.094C17.7304 20.2154 17.0378 19.5228 16.1592 19.1989C16.0562 19.161 15.9443 19.1282 15.7205 19.0628C15.5781 19.0211 15.5069 19.0003 15.4752 18.9846C15.1792 18.8376 15.1792 18.4153 15.4752 18.2683C15.5069 18.2526 15.5781 18.2318 15.7205 18.1901Z" stroke="currentColor" stroke-width="2.06294" stroke-linecap="round"/>
</svg>
