<svg width="24" height="24" viewBox="0 0 24 24" fill="none" xmlns="http://www.w3.org/2000/svg">
<path d="M3 8.5L9.70955 12.973C10.1882 13.2921 10.8118 13.2921 11.2904 12.973L18 8.5M19.5 17.5C20.8807 17.5 22 16.3807 22 15V8.5C22 5.73858 19.7614 3.5 17 3.5H8C6.61929 3.5 5.5 4.61929 5.5 6M4.85 20.5H16.15C17.724 20.5 19 19.224 19 17.65V9.35C19 7.77599 17.724 6.5 16.15 6.5H4.85C3.27599 6.5 2 7.77599 2 9.35V17.65C2 19.224 3.27599 20.5 4.85 20.5Z" stroke="currentColor" stroke-width="2" stroke-linecap="round" stroke-linejoin="round"/>
</svg>
