<svg width="24" height="24" viewBox="0 0 24 24" fill="none" xmlns="http://www.w3.org/2000/svg">
<path d="M22 11V7C22 5.34315 20.6569 4 19 4H5C3.34315 4 2 5.34315 2 7V17C2 18.6569 3.34315 20 5 20H12M3.5 5.5854L11.0076 12.2097C11.5746 12.71 12.4254 12.71 12.9924 12.2097L20.5 5.5854M20.4 17.2V15.6C20.4 14.7163 19.6837 14 18.8 14C17.9163 14 17.2 14.7163 17.2 15.6V17.2M17.136 22H20.464C21.0017 22 21.2705 22 21.4758 21.8954C21.6565 21.8033 21.8033 21.6565 21.8954 21.4758C22 21.2705 22 21.0017 22 20.464V18.736C22 18.1983 22 17.9295 21.8954 17.7242C21.8033 17.5435 21.6565 17.3967 21.4758 17.3046C21.2705 17.2 21.0017 17.2 20.464 17.2H17.136C16.5984 17.2 16.3295 17.2 16.1242 17.3046C15.9435 17.3967 15.7967 17.5435 15.7046 17.7242C15.6 17.9295 15.6 18.1983 15.6 18.736V20.464C15.6 21.0017 15.6 21.2705 15.7046 21.4758C15.7967 21.6565 15.9435 21.8033 16.1242 21.8954C16.3295 22 16.5984 22 17.136 22Z" stroke="currentColor" stroke-width="2" stroke-linecap="round"/>
</svg>
