<svg width="24" height="24" viewBox="0 0 24 24" fill="none" xmlns="http://www.w3.org/2000/svg">
<path d="M22 13V7C22 5.34315 20.6569 4 19 4H5C3.34315 4 2 5.34315 2 7V17C2 18.6569 3.34315 20 5 20H11M3.5 5.5854L11.0076 12.2097C11.5746 12.71 12.4254 12.71 12.9924 12.2097L20.5 5.5854M16.7935 16.8346L14.6075 17.5522C14.5432 17.5733 14.518 17.6509 14.5576 17.7058L15.9043 19.5712C15.9165 19.5882 15.9232 19.6086 15.9232 19.6295L15.9302 21.9303C15.9304 21.9979 15.9964 22.0459 16.0608 22.0252L18.2511 21.3208C18.271 21.3144 18.2925 21.3144 18.3124 21.3208L20.5027 22.0252C20.5671 22.0459 20.6331 21.9979 20.6333 21.9303L20.6403 19.6295C20.6403 19.6086 20.6469 19.5882 20.6592 19.5712L22.0059 17.7058C22.0455 17.6509 22.0203 17.5733 21.956 17.5522L19.77 16.8346C19.7501 16.8281 19.7328 16.8155 19.7205 16.7986L18.3625 14.9414C18.3225 14.8867 18.241 14.8867 18.201 14.9414L16.843 16.7986C16.8307 16.8155 16.8134 16.8281 16.7935 16.8346Z" stroke="currentColor" stroke-width="2" stroke-linecap="round" stroke-linejoin="round"/>
</svg>
