<svg width="24" height="24" viewBox="0 0 24 24" fill="none" xmlns="http://www.w3.org/2000/svg">
<path d="M22 11.5V7C22 5.34315 20.6569 4 19 4H5C3.34315 4 2 5.34315 2 7V17C2 18.6569 3.34315 20 5 20H10.5M3.5 5.5854L11.0076 12.2097C11.5746 12.71 12.4254 12.71 12.9924 12.2097L20.5 5.5854M17.9973 15.8306C17.1975 14.9216 15.8639 14.6771 14.8619 15.5094C13.8599 16.3418 13.7188 17.7335 14.5057 18.7179C15.2926 19.7024 17.9973 22 17.9973 22C17.9973 22 20.7019 19.7024 21.4888 18.7179C22.2757 17.7335 22.1519 16.3331 21.1326 15.5094C20.1134 14.6858 18.797 14.9216 17.9973 15.8306Z" stroke="currentColor" stroke-width="2" stroke-linecap="round" stroke-linejoin="round"/>
</svg>
