<svg width="24" height="24" viewBox="0 0 24 24" fill="none" xmlns="http://www.w3.org/2000/svg">
<path d="M22 11.8563V7C22 5.34315 20.6569 4 19 4H5C3.34315 4 2 5.34315 2 7V17C2 18.6569 3.34315 20 5 20H11M3.5 5.5854L11.0076 12.2097C11.5746 12.71 12.4254 12.71 12.9924 12.2097L20.5 5.5854M16.1667 16.1667L20.8333 20.8333M22 18.5C22 20.433 20.433 22 18.5 22C16.567 22 15 20.433 15 18.5C15 16.567 16.567 15 18.5 15C20.433 15 22 16.567 22 18.5Z" stroke="currentColor" stroke-width="2" stroke-linecap="round"/>
</svg>
