<svg width="24" height="24" viewBox="0 0 24 24" fill="none" xmlns="http://www.w3.org/2000/svg">
<path d="M22 11V7C22 5.34315 20.6569 4 19 4H5C3.34315 4 2 5.34315 2 7V17C2 18.6569 3.34315 20 5 20H10.5M3.5 5.5854L11.0076 12.2097C11.5746 12.71 12.4254 12.71 12.9924 12.2097L20.5 5.5854M17.6895 15.4309L18.3966 14.7238C18.7254 14.395 18.8898 14.2306 19.0608 14.1318C19.5249 13.8639 20.0967 13.8639 20.5608 14.1318C20.7319 14.2306 20.8963 14.395 21.225 14.7238C21.5538 15.0526 21.7182 15.217 21.817 15.388C22.0849 15.8521 22.0849 16.4239 21.817 16.888C21.7182 17.059 21.5538 17.2234 21.225 17.5522L20.5179 18.2593M17.6895 15.4309L15.0214 18.099C14.8304 18.29 14.7349 18.3855 14.659 18.4943C14.5917 18.5909 14.5359 18.695 14.4929 18.8047C14.4445 18.9281 14.418 19.0606 14.365 19.3254L14.0358 20.9717C13.9571 21.3651 13.9177 21.5619 13.9758 21.7022C14.0265 21.8248 14.124 21.9223 14.2467 21.973C14.387 22.0311 14.5837 21.9917 14.9771 21.9131L16.6234 21.5838C16.8883 21.5308 17.0207 21.5043 17.1442 21.4559C17.2538 21.4129 17.3579 21.3572 17.4545 21.2898C17.5633 21.2139 17.6588 21.1184 17.8498 20.9275L20.5179 18.2593M17.6895 15.4309L20.5179 18.2593" stroke="currentColor" stroke-width="2" stroke-linecap="round"/>
</svg>
