<svg width="24" height="24" viewBox="0 0 24 24" fill="none" xmlns="http://www.w3.org/2000/svg">
<path d="M9 4.00006V19.0001M16 6.00006V20.0001M4.64105 4.45304L8.29563 3.23485C8.55734 3.14761 8.6882 3.10399 8.82222 3.08487C8.94117 3.06789 9.06172 3.06527 9.1813 3.07706C9.31602 3.09035 9.44865 3.12824 9.71391 3.20403L15.2861 4.79608C15.5513 4.87187 15.684 4.90976 15.8187 4.92305C15.9383 4.93484 16.0588 4.93222 16.1778 4.91524C16.3118 4.89612 16.4427 4.8525 16.7044 4.76526L18.8411 4.05304C19.9076 3.69753 20.4408 3.51977 20.8653 3.62636C21.2369 3.71966 21.5586 3.95158 21.7647 4.27457C22 4.64355 22 5.20566 22 6.32988V17.2702C22 17.8923 22 18.2033 21.8959 18.4679C21.804 18.7016 21.6549 18.9085 21.4623 19.0696C21.2441 19.252 20.9491 19.3504 20.3589 19.5471L16.9392 20.687C16.5902 20.8033 16.4157 20.8615 16.237 20.887C16.0784 20.9096 15.9177 20.9131 15.7583 20.8974C15.5786 20.8797 15.4018 20.8291 15.0481 20.7281L9.95187 19.272C9.5982 19.171 9.42136 19.1204 9.24173 19.1027C9.0823 19.087 8.92156 19.0905 8.76296 19.1131C8.58426 19.1386 8.40979 19.1968 8.06084 19.3131L6.15895 19.9471C5.09242 20.3026 4.55916 20.4803 4.13469 20.3738C3.76313 20.2805 3.44135 20.0485 3.23534 19.7255C3 19.3566 3 18.7945 3 17.6702V6.72988C3 6.10784 3 5.79682 3.10408 5.53218C3.19599 5.29849 3.3451 5.09161 3.53774 4.93052C3.75588 4.74809 4.05094 4.64974 4.64105 4.45304Z" stroke="currentColor" stroke-width="2" stroke-linecap="round" stroke-linejoin="round"/>
</svg>
