<svg width="24" height="24" viewBox="0 0 24 24" fill="none" xmlns="http://www.w3.org/2000/svg">
<path d="M9.59955 8.86743L12 11.2679M12 11.2679L14.4004 13.6683M12 11.2679L14.4004 8.86743M12 11.2679L9.59955 13.6683M20 11C20 15.9603 15.3412 19.7558 13.134 21.2757C12.7945 21.5095 12.6247 21.6264 12.3583 21.6919C12.1586 21.7411 11.8414 21.7411 11.6417 21.6919C11.3753 21.6264 11.2055 21.5095 10.866 21.2757C8.6588 19.7558 4 15.9603 4 11C4 6.58172 7.58172 3 12 3C16.4183 3 20 6.58172 20 11Z" stroke="currentColor" stroke-width="2" stroke-linecap="round"/>
</svg>
