<svg width="24" height="24" viewBox="0 0 24 24" fill="none" xmlns="http://www.w3.org/2000/svg">
<path d="M20 11C20 15.9603 15.3412 19.7558 13.134 21.2757C12.7945 21.5095 12.6247 21.6264 12.3583 21.6919C12.1586 21.7411 11.8414 21.7411 11.6417 21.6919C11.3753 21.6264 11.2055 21.5095 10.866 21.2757C8.6588 19.7558 4 15.9603 4 11C4 6.58172 7.58172 3 12 3C16.4183 3 20 6.58172 20 11Z" stroke="currentColor" stroke-width="2" stroke-linecap="round" stroke-linejoin="round"/>
<path d="M14.5984 11.0001C14.5984 12.4351 13.4351 13.5985 12 13.5985C10.5649 13.5985 9.40155 12.4351 9.40155 11.0001C9.40155 9.56498 10.5649 8.40161 12 8.40161C13.4351 8.40161 14.5984 9.56498 14.5984 11.0001Z" stroke="currentColor" stroke-width="2" stroke-linecap="round" stroke-linejoin="round"/>
</svg>
