<svg width="24" height="24" viewBox="0 0 24 24" fill="none" xmlns="http://www.w3.org/2000/svg">
<path d="M6.28506 17.5982C4.87152 16.1553 4 14.1794 4 12C4 7.58172 7.58172 4 12 4C14.1304 4 16.0663 4.83275 17.5 6.1905M9.57889 19.6271C10.3427 19.8693 11.1561 20 12 20C16.4183 20 20 16.4183 20 12C20 11.1703 19.8737 10.3701 19.6393 9.6176M14.9421 12.5897C14.7085 13.7614 13.7924 14.6871 12.6258 14.9346M14 9.76389C13.4692 9.28885 12.7684 9 12 9C10.3431 9 9 10.3431 9 12C9 12.8144 9.3245 13.553 9.85125 14.0935M20.5 12H22M2 12H3.5M12 3.5V2M12 22V20.5M2.5 21.5L21.5 2.5" stroke="currentColor" stroke-width="2" stroke-linecap="round" stroke-linejoin="round"/>
</svg>
