<svg width="24" height="24" viewBox="0 0 24 24" fill="none" xmlns="http://www.w3.org/2000/svg">
<path d="M18 5.70835C16.5341 4.04751 14.3894 3 12 3C7.58172 3 4 6.58172 4 11C4 13.4194 5.10837 15.5617 6.5 17.2981M19.9381 10C19.979 10.3276 20 10.6613 20 11C20 15.9603 15.3412 19.7558 13.134 21.2757C12.7945 21.5095 12.6247 21.6265 12.3582 21.692C12.1585 21.7411 11.8412 21.7411 11.6415 21.6919C11.375 21.6264 11.2043 21.5088 10.8629 21.2736C10.6049 21.0959 10.3135 20.8871 10 20.6491M14.2312 9.66745C13.7773 8.90922 12.9479 8.40161 12 8.40161C10.5649 8.40161 9.40155 9.56498 9.40155 11.0001C9.40155 11.9861 9.95073 12.8438 10.7599 13.2841M2.5 21.5L21.5 2.5" stroke="currentColor" stroke-width="2" stroke-linecap="round" stroke-linejoin="round"/>
</svg>
