<svg width="24" height="24" viewBox="0 0 24 24" fill="none" xmlns="http://www.w3.org/2000/svg">
<path d="M14.9699 9.01451L20.453 3.53149M9.04786 14.9843L3.56483 20.4673M20.9846 8.31646V3H15.6681M3.0332 15.6821V20.9985H8.34966M3.0332 8.31793V7.80147C3.0332 6.12131 3.0332 5.28123 3.36018 4.63949C3.6478 4.07501 4.10675 3.61607 4.67123 3.32845C5.31297 3.00146 6.15305 3.00146 7.8332 3.00146H8.34966M20.9846 15.6808V16.1972C20.9846 17.8774 20.9846 18.7175 20.6576 19.3592C20.37 19.9237 19.9111 20.3826 19.3466 20.6702C18.7048 20.9972 17.8647 20.9972 16.1846 20.9972H15.6681" stroke="currentColor" stroke-width="2" stroke-linecap="round" stroke-linejoin="round"/>
</svg>
