<svg width="24" height="24" viewBox="0 0 24 24" fill="none" xmlns="http://www.w3.org/2000/svg">
<path d="M3.22489 12.3053L5.56437 9.96582C7.96389 7.56629 11.8543 7.56629 14.2538 9.96582C16.6534 12.3654 16.6534 16.2558 14.2538 18.6553L11.9144 20.9948M3.22489 12.3053C2.11742 13.4128 3.16424 16.2557 5.56377 18.6553C7.9633 21.0548 10.8069 22.1022 11.9144 20.9948M3.22489 12.3053C4.33237 11.1978 7.17476 12.2452 9.57429 14.6448C11.9738 17.0443 13.0218 19.8873 11.9144 20.9948M13.2338 8.61148L14.9719 6.87341C14.0468 5.84991 14.0775 4.26949 15.064 3.28296C16.0822 2.26473 17.7331 2.26473 18.7513 3.28296C19.1603 3.69199 19.4051 4.20311 19.4855 4.73429C20.0167 4.8147 20.5278 5.05942 20.9368 5.46845C21.955 6.48668 21.955 8.13755 20.9368 9.15577C19.9503 10.1423 18.3699 10.173 17.3464 9.24789L15.6083 10.986M7.23466 16.3158L7.90308 16.9842" stroke="currentColor" stroke-width="2" stroke-linecap="round" stroke-linejoin="round"/>
</svg>
