<svg width="24" height="24" viewBox="0 0 24 24" fill="none" xmlns="http://www.w3.org/2000/svg">
<path d="M3.32698 16.362L4.21799 15.908L4.21799 15.908L3.32698 16.362ZM4.63803 17.673L4.18404 18.564L4.18404 18.564L4.63803 17.673ZM20.673 16.362L21.564 16.816L20.673 16.362ZM19.362 17.673L19.816 18.564L19.362 17.673ZM19.362 3.32698L19.816 2.43597V2.43597L19.362 3.32698ZM20.673 4.63803L21.564 4.18404V4.18404L20.673 4.63803ZM4.63803 3.32698L4.18404 2.43597L4.63803 3.32698ZM3.32698 4.63803L2.43597 4.18404L3.32698 4.63803ZM9.28274 20.8063L9.79041 21.6679L9.79041 21.6679L9.28274 20.8063ZM12.9174 18.6646L12.4097 17.803L12.4097 17.803L12.9174 18.6646ZM5.49919 17.9233L5.63794 16.9329H5.63794L5.49919 17.9233ZM13.7709 18.206L13.4067 17.2747H13.4067L13.7709 18.206ZM14.3862 18.0382L14.2271 17.0509H14.2271L14.3862 18.0382ZM7.04517 20.3777L6.08281 20.6494L6.08281 20.6494L7.04517 20.3777ZM8.50529 21.212L8.25088 20.2449H8.25088L8.50529 21.212ZM6.979 18.9536L7.9615 18.7674V18.7674L6.979 18.9536ZM6.18493 18.0405L6.5057 17.0934L6.50569 17.0934L6.18493 18.0405ZM9.32416 14.4187L8.87017 15.3097L9.32416 14.4187ZM8.90462 13.9992L8.01362 14.4532L8.90462 13.9992ZM15.0954 13.9992L15.9864 14.4532L15.0954 13.9992ZM14.6758 14.4187L15.1298 15.3097L14.6758 14.4187ZM14.6758 9.82799L15.1298 8.93698L14.6758 9.82799ZM15.0954 10.2475L15.9864 9.79353L15.0954 10.2475ZM9.32416 9.82799L8.87017 8.93698L9.32416 9.82799ZM8.90462 10.2475L8.01362 9.79353L8.90462 10.2475ZM12.6 9.72336C12.6 10.2756 13.0477 10.7234 13.6 10.7234C14.1523 10.7234 14.6 10.2756 14.6 9.72336H12.6ZM9.39999 9.72336C9.39999 10.2756 9.8477 10.7234 10.4 10.7234C10.9523 10.7234 11.4 10.2756 11.4 9.72336H9.39999ZM7.8 4H16.2V2H7.8V4ZM20 7.8V13.2H22V7.8H20ZM4 13.2V7.8H2V13.2H4ZM2 13.2C2 14.0236 1.99922 14.7014 2.04419 15.2518C2.09012 15.8139 2.18868 16.3306 2.43597 16.816L4.21799 15.908C4.1383 15.7516 4.07337 15.5274 4.03755 15.089C4.00078 14.6389 4 14.0566 4 13.2H2ZM5.09202 16.782C4.71569 16.5903 4.40973 16.2843 4.21799 15.908L2.43597 16.816C2.81947 17.5686 3.43139 18.1805 4.18404 18.564L5.09202 16.782ZM20 13.2C20 14.0566 19.9992 14.6389 19.9624 15.089C19.9266 15.5274 19.8617 15.7516 19.782 15.908L21.564 16.816C21.8113 16.3306 21.9099 15.8139 21.9558 15.2518C22.0008 14.7014 22 14.0236 22 13.2H20ZM16.2 19C17.0236 19 17.7014 19.0008 18.2518 18.9558C18.8139 18.9099 19.3306 18.8113 19.816 18.564L18.908 16.782C18.7516 16.8617 18.5274 16.9266 18.089 16.9624C17.6389 16.9992 17.0566 17 16.2 17V19ZM19.782 15.908C19.5903 16.2843 19.2843 16.5903 18.908 16.782L19.816 18.564C20.5686 18.1805 21.1805 17.5686 21.564 16.816L19.782 15.908ZM16.2 4C17.0566 4 17.6389 4.00078 18.089 4.03755C18.5274 4.07337 18.7516 4.1383 18.908 4.21799L19.816 2.43597C19.3306 2.18868 18.8139 2.09012 18.2518 2.04419C17.7014 1.99922 17.0236 2 16.2 2V4ZM22 7.8C22 6.97642 22.0008 6.2986 21.9558 5.74817C21.9099 5.18608 21.8113 4.66937 21.564 4.18404L19.782 5.09202C19.8617 5.24842 19.9266 5.47262 19.9624 5.91104C19.9992 6.36113 20 6.94342 20 7.8H22ZM18.908 4.21799C19.2843 4.40973 19.5903 4.7157 19.782 5.09202L21.564 4.18404C21.1805 3.43139 20.5686 2.81947 19.816 2.43597L18.908 4.21799ZM7.8 2C6.97642 2 6.2986 1.99922 5.74817 2.04419C5.18608 2.09012 4.66937 2.18868 4.18404 2.43597L5.09202 4.21799C5.24842 4.1383 5.47262 4.07337 5.91104 4.03755C6.36113 4.00078 6.94342 4 7.8 4V2ZM4 7.8C4 6.94342 4.00078 6.36113 4.03755 5.91104C4.07337 5.47262 4.1383 5.24842 4.21799 5.09202L2.43597 4.18404C2.18868 4.66937 2.09012 5.18608 2.04419 5.74817C1.99922 6.2986 2 6.97642 2 7.8H4ZM4.18404 2.43597C3.43139 2.81947 2.81947 3.43139 2.43597 4.18404L4.21799 5.09202C4.40973 4.71569 4.71569 4.40973 5.09202 4.21799L4.18404 2.43597ZM9.79041 21.6679L13.4251 19.5261L12.4097 17.803L8.77506 19.9448L9.79041 21.6679ZM5.63794 16.9329C5.37227 16.8957 5.21166 16.843 5.09202 16.782L4.18404 18.564C4.55619 18.7536 4.94562 18.8555 5.36044 18.9136L5.63794 16.9329ZM16.2 17H15.3543V19H16.2V17ZM13.4251 19.5261C13.8716 19.263 14.003 19.1889 14.135 19.1373L13.4067 17.2747C13.0914 17.398 12.803 17.5713 12.4097 17.803L13.4251 19.5261ZM15.3543 17C14.8978 17 14.5613 16.9971 14.2271 17.0509L14.5452 19.0255C14.6852 19.0029 14.836 19 15.3543 19V17ZM14.135 19.1373C14.2674 19.0856 14.4049 19.0481 14.5452 19.0255L14.2271 17.0509C13.9465 17.0961 13.6714 17.1711 13.4067 17.2747L14.135 19.1373ZM6 19.5019C6 19.732 5.9998 19.9349 6.00647 20.0993C6.01295 20.2593 6.02754 20.4537 6.08281 20.6494L8.00753 20.1059C8.01763 20.1416 8.00963 20.1368 8.00483 20.0183C8.0002 19.904 8 19.749 8 19.5019H6ZM8.77506 19.9448C8.56219 20.0702 8.42853 20.1488 8.32775 20.2028C8.22318 20.2588 8.21494 20.2544 8.25088 20.2449L8.75971 22.1791C8.95637 22.1274 9.1313 22.0413 9.27248 21.9656C9.41746 21.8879 9.59216 21.7847 9.79041 21.6679L8.77506 19.9448ZM6.08281 20.6494C6.40884 21.8039 7.59959 22.4843 8.75971 22.1791L8.25088 20.2449C8.14542 20.2727 8.03717 20.2108 8.00753 20.1059L6.08281 20.6494ZM8 19.5019C8 19.2613 8.00461 18.9948 7.9615 18.7674L5.9965 19.1399C5.99259 19.1192 5.9958 19.1228 5.99783 19.1902C5.99989 19.2583 6 19.3499 6 19.5019H8ZM5.36044 18.9136C5.55849 18.9413 5.68929 18.9597 5.78469 18.9754C5.89048 18.9928 5.89487 18.9981 5.86416 18.9877L6.50569 17.0934C6.28404 17.0183 5.95826 16.9778 5.63794 16.9329L5.36044 18.9136ZM7.9615 18.7674C7.89099 18.3954 7.74118 18.0324 7.47209 17.723C7.203 17.4136 6.8643 17.2148 6.5057 17.0934L5.86415 18.9877C5.91154 19.0037 5.93786 19.0181 5.95032 19.026C5.95655 19.03 5.95993 19.0327 5.96135 19.0339C5.9621 19.0346 5.96253 19.035 5.96271 19.0352C5.96289 19.0353 5.96295 19.0354 5.96295 19.0354C5.96296 19.0354 5.96302 19.0355 5.96318 19.0357C5.96333 19.0359 5.96368 19.0364 5.96421 19.0372C5.96521 19.0388 5.96744 19.0425 5.97049 19.0492C5.9766 19.0627 5.98718 19.0907 5.9965 19.1399L7.9615 18.7674ZM10.336 10.7234H13.664V8.72336H10.336V10.7234ZM14.2 11.2594V12.9874H16.2V11.2594H14.2ZM13.664 13.5234H10.336V15.5234H13.664V13.5234ZM9.79999 12.9874V11.2594H7.79999V12.9874H9.79999ZM10.336 13.5234C10.0507 13.5234 9.89681 13.5226 9.78689 13.5136C9.68865 13.5056 9.71636 13.4962 9.77815 13.5277L8.87017 15.3097C9.13731 15.4458 9.40211 15.4888 9.62403 15.507C9.83428 15.5241 10.0837 15.5234 10.336 15.5234V13.5234ZM7.79999 12.9874C7.79999 13.2397 7.79921 13.4891 7.81639 13.6993C7.83452 13.9212 7.8775 14.186 8.01362 14.4532L9.79563 13.5452C9.82711 13.607 9.81777 13.6347 9.80975 13.5365C9.80077 13.4265 9.79999 13.2727 9.79999 12.9874H7.79999ZM9.77815 13.5277C9.78568 13.5316 9.79179 13.5377 9.79563 13.5452L8.01362 14.4532C8.20153 14.822 8.50137 15.1218 8.87017 15.3097L9.77815 13.5277ZM14.2 12.9874C14.2 13.2727 14.1992 13.4265 14.1902 13.5365C14.1822 13.6347 14.1729 13.607 14.2043 13.5452L15.9864 14.4532C16.1225 14.186 16.1655 13.9212 16.1836 13.6993C16.2008 13.4891 16.2 13.2397 16.2 12.9874H14.2ZM13.664 15.5234C13.9163 15.5234 14.1657 15.5241 14.3759 15.507C14.5979 15.4888 14.8627 15.4458 15.1298 15.3097L14.2218 13.5277C14.2836 13.4962 14.3113 13.5056 14.2131 13.5136C14.1032 13.5226 13.9493 13.5234 13.664 13.5234V15.5234ZM14.2043 13.5452C14.2082 13.5377 14.2143 13.5316 14.2218 13.5277L15.1298 15.3097C15.4986 15.1218 15.7984 14.822 15.9864 14.4532L14.2043 13.5452ZM13.664 10.7234C13.9493 10.7234 14.1032 10.7241 14.2131 10.7331C14.3113 10.7411 14.2836 10.7505 14.2218 10.719L15.1298 8.93698C14.8627 8.80087 14.5979 8.75789 14.3759 8.73976C14.1657 8.72258 13.9163 8.72336 13.664 8.72336V10.7234ZM16.2 11.2594C16.2 11.007 16.2008 10.7576 16.1836 10.5474C16.1655 10.3255 16.1225 10.0607 15.9864 9.79353L14.2043 10.7015C14.1729 10.6397 14.1822 10.612 14.1902 10.7103C14.1992 10.8202 14.2 10.974 14.2 11.2594H16.2ZM14.2218 10.719C14.2143 10.7152 14.2082 10.709 14.2043 10.7015L15.9864 9.79353C15.7984 9.42474 15.4986 9.1249 15.1298 8.93698L14.2218 10.719ZM10.336 8.72336C10.0837 8.72336 9.83428 8.72258 9.62403 8.73976C9.40211 8.75789 9.13731 8.80087 8.87017 8.93698L9.77815 10.719C9.71636 10.7505 9.68865 10.7411 9.78689 10.7331C9.89681 10.7241 10.0507 10.7234 10.336 10.7234V8.72336ZM9.79999 11.2594C9.79999 10.974 9.80077 10.8202 9.80975 10.7103C9.81777 10.612 9.82711 10.6397 9.79563 10.7015L8.01362 9.79353C7.8775 10.0607 7.83452 10.3255 7.81639 10.5474C7.79921 10.7576 7.79999 11.007 7.79999 11.2594H9.79999ZM8.87017 8.93698C8.50137 9.1249 8.20153 9.42474 8.01362 9.79353L9.79563 10.7015C9.79179 10.709 9.78568 10.7152 9.77815 10.719L8.87017 8.93698ZM12.6 8.12336V9.72336H14.6V8.12336H12.6ZM11.4 9.72336V8.12336H9.39999V9.72336H11.4ZM12 7.52336C12.3314 7.52336 12.6 7.79199 12.6 8.12336H14.6C14.6 6.68742 13.4359 5.52336 12 5.52336V7.52336ZM12 5.52336C10.564 5.52336 9.39999 6.68742 9.39999 8.12336H11.4C11.4 7.79199 11.6686 7.52336 12 7.52336V5.52336Z" fill="currentColor"/>
</svg>
