<svg width="24" height="24" viewBox="0 0 24 24" fill="none" xmlns="http://www.w3.org/2000/svg">
<path d="M12 21C11.2362 21 10.4946 20.9048 9.78639 20.7257C9.2398 20.5875 8.66929 20.5382 8.11857 20.6589L4.56789 21.4371C3.43334 21.6858 2.45879 20.6062 2.82193 19.5029L3.57095 17.2274C3.81962 16.4719 3.73499 15.6561 3.47856 14.9032C3.16832 13.9924 3.00002 13.0158 3.00002 12C3.00002 7.02944 7.02945 3 12 3C16.4595 3 20.1615 6.24343 20.8756 10.5M17.9973 15.1214C17.1975 14.2124 15.8639 13.9679 14.8619 14.8002C13.8599 15.6326 13.7188 17.0243 14.5057 18.0087C15.2926 18.9932 17.9973 21.2908 17.9973 21.2908C17.9973 21.2908 20.702 18.9932 21.4889 18.0087C22.2758 17.0243 22.1519 15.6238 21.1327 14.8002C20.1134 13.9766 18.797 14.2124 17.9973 15.1214Z" stroke="currentColor" stroke-width="2" stroke-linecap="round" stroke-linejoin="round"/>
</svg>
