<svg width="24" height="24" viewBox="0 0 24 24" fill="none" xmlns="http://www.w3.org/2000/svg">
<path d="M12.5 3H7.8C6.11984 3 5.27976 3 4.63803 3.32698C4.07354 3.6146 3.6146 4.07354 3.32698 4.63803C3 5.27976 3 6.11984 3 7.8V13.2C3 14.8802 3 15.7202 3.32698 16.362C3.6146 16.9265 4.07354 17.3854 4.63803 17.673C4.88393 17.7983 5.15895 17.8756 5.49919 17.9233C5.88516 17.9773 6.07815 18.0044 6.18493 18.0405C6.6349 18.1929 6.89052 18.4869 6.979 18.9536C7 19.0644 7 19.2102 7 19.5019C7 19.9791 7 20.2177 7.04517 20.3777C7.223 21.0074 7.87251 21.3785 8.50529 21.212C8.66602 21.1698 8.87161 21.0486 9.28274 20.8063L12.9174 18.6646C13.3373 18.4172 13.5472 18.2934 13.7709 18.206C13.9694 18.1284 14.1757 18.0721 14.3862 18.0382C14.6232 18 14.8669 18 15.3543 18H16.2C17.8802 18 18.7202 18 19.362 17.673C19.9265 17.3854 20.3854 16.9265 20.673 16.362C21 15.7202 21 14.8802 21 13.2V11.5M7.5 12.5757H11M7.5 9.07574H14M22 5C22 6.65685 20.6569 8 19 8C17.3431 8 16 6.65685 16 5C16 3.34315 17.3431 2 19 2C20.6569 2 22 3.34315 22 5Z" stroke="currentColor" stroke-width="2" stroke-linecap="round" stroke-linejoin="round"/>
</svg>
