<svg width="24" height="24" viewBox="0 0 24 24" fill="none" xmlns="http://www.w3.org/2000/svg">
<path d="M13.6 11.2V9.6C13.6 8.71634 12.8837 8 12 8C11.1164 8 10.4 8.71634 10.4 9.6V11.2M21 12C21 16.9706 16.9706 21 12 21C11.2362 21 10.4946 20.9048 9.78639 20.7257C9.2398 20.5875 8.66929 20.5382 8.11857 20.6589L4.56789 21.4371C3.43334 21.6858 2.45879 20.6062 2.82193 19.5029L3.57095 17.2274C3.81962 16.4719 3.73499 15.6561 3.47856 14.9032C3.16832 13.9924 3.00002 13.0158 3.00002 12C3.00002 7.02944 7.02945 3 12 3C16.9706 3 21 7.02944 21 12ZM10.336 16H13.664C14.2017 16 14.4705 16 14.6758 15.8954C14.8565 15.8033 15.0033 15.6565 15.0954 15.4758C15.2 15.2705 15.2 15.0017 15.2 14.464V12.736C15.2 12.1983 15.2 11.9295 15.0954 11.7242C15.0033 11.5435 14.8565 11.3967 14.6758 11.3046C14.4705 11.2 14.2017 11.2 13.664 11.2H10.336C9.79837 11.2 9.52954 11.2 9.32419 11.3046C9.14355 11.3967 8.99669 11.5435 8.90465 11.7242C8.80002 11.9295 8.80002 12.1983 8.80002 12.736V14.464C8.80002 15.0017 8.80002 15.2705 8.90465 15.4758C8.99669 15.6565 9.14355 15.8033 9.32419 15.8954C9.52954 16 9.79837 16 10.336 16Z" stroke="currentColor" stroke-width="2" stroke-linecap="round"/>
</svg>
