<svg width="24" height="24" viewBox="0 0 24 24" fill="none" xmlns="http://www.w3.org/2000/svg">
<path d="M11.8787 8.06951L12.5858 7.3624C12.9146 7.03361 13.079 6.86921 13.25 6.77047C13.7141 6.50252 14.2859 6.50252 14.75 6.77047C14.921 6.86921 15.0854 7.0336 15.4142 7.3624C15.743 7.69119 15.9074 7.85559 16.0061 8.02661C16.2741 8.49071 16.2741 9.06251 16.0061 9.52661C15.9074 9.69763 15.743 9.86203 15.4142 10.1908L14.7071 10.8979M11.8787 8.06951L9.21053 10.7377C9.01954 10.9286 8.92405 11.0241 8.84817 11.1329C8.78082 11.2295 8.72507 11.3337 8.68208 11.4433C8.63364 11.5668 8.60716 11.6992 8.55419 11.964L8.22493 13.6103C8.14624 14.0038 8.1069 14.2005 8.16495 14.3408C8.2157 14.4635 8.31315 14.5609 8.43582 14.6117C8.57613 14.6697 8.77285 14.6304 9.16629 14.5517L10.8126 14.2224C11.0774 14.1695 11.2099 14.143 11.3333 14.0945C11.4429 14.0515 11.5471 13.9958 11.6437 13.9284C11.7525 13.8526 11.848 13.7571 12.039 13.5661L14.7071 10.8979M11.8787 8.06951L14.7071 10.8979M7.8 3H17.2C18.8802 3 18.8583 3 19.5 3.32698C20.0645 3.6146 20.5234 4.07354 20.811 4.63803C21.138 5.27976 21.138 6.11984 21.138 7.8V13.2C21.138 14.8802 21.138 15.7202 20.811 16.362C20.5234 16.9265 20.0645 17.3854 19.5 17.673C18.8583 18 18.8802 18 17.2 18H16.8284C16.298 18 15.7893 18.2107 15.4142 18.5858L13.4142 20.5858C12.6332 21.3668 11.3668 21.3668 10.5858 20.5858L8.14142 18.1414C8.05087 18.0509 7.92806 18 7.8 18C6.11984 18 5.27976 18 4.63803 17.673C4.07354 17.3854 3.6146 16.9265 3.32698 16.362C3 15.7202 3 14.8802 3 13.2V7.8C3 6.11984 3 5.27976 3.32698 4.63803C3.6146 4.07354 4.07354 3.6146 4.63803 3.32698C5.27976 3 6.11984 3 7.8 3Z" stroke="currentColor" stroke-width="2" stroke-linecap="round" stroke-linejoin="round"/>
</svg>
