<svg width="24" height="24" viewBox="0 0 24 24" fill="none" xmlns="http://www.w3.org/2000/svg">
<path d="M21 11.5V7.8C21 6.11984 21 5.27976 20.673 4.63803C20.3854 4.07354 19.9265 3.6146 19.362 3.32698C18.7202 3 17.8802 3 16.2 3H7.8C6.11984 3 5.27976 3 4.63803 3.32698C4.07354 3.6146 3.6146 4.07354 3.32698 4.63803C3 5.27976 3 6.11984 3 7.8V13.2C3 14.8802 3 15.7202 3.32698 16.362C3.6146 16.9265 4.07354 17.3854 4.63803 17.673C4.86081 17.7865 5.10749 17.8606 5.40492 17.909C5.89227 17.9883 6.13596 18.0279 6.26956 18.0847C6.65713 18.2495 6.86494 18.4939 6.96538 18.9029C7 19.0439 7 19.2283 7 19.5972C7 20.17 7 20.4564 7.07052 20.653C7.25679 21.172 7.77287 21.4973 8.32152 21.4415C8.52924 21.4203 8.78766 21.2968 9.30447 21.0497L11.5 20M14.6106 17.7152L16.3639 19.5597C16.5719 19.7785 16.909 19.7785 17.1169 19.5597L21 15.4745" stroke="currentColor" stroke-width="2" stroke-linecap="round" stroke-linejoin="round"/>
</svg>
