<svg width="24" height="24" viewBox="0 0 24 24" fill="none" xmlns="http://www.w3.org/2000/svg">
<path d="M20.7726 9.9809C19.8561 5.98252 16.2764 3 12 3C7.02945 3 3.00002 7.02944 3.00002 12C3.00002 13.0158 3.16832 13.9924 3.47856 14.9032C3.73499 15.6561 3.81962 16.4719 3.57095 17.2274L2.82193 19.5029C2.45879 20.6062 3.43334 21.6858 4.56789 21.4371L8.11857 20.6589C8.66929 20.5382 9.2398 20.5875 9.78639 20.7257C10.0091 20.7821 10.2351 20.8301 10.464 20.8694M17.6857 15.46L18.3928 14.7529C18.7216 14.4241 18.886 14.2597 19.057 14.161C19.5211 13.893 20.0929 13.893 20.557 14.161C20.728 14.2597 20.8924 14.4241 21.2212 14.7529C21.55 15.0817 21.7144 15.2461 21.8132 15.4171C22.0811 15.8812 22.0811 16.453 21.8132 16.9171C21.7144 17.0881 21.55 17.2525 21.2212 17.5813L20.5141 18.2884M17.6857 15.46L15.0175 18.1282C14.8266 18.3192 14.7311 18.4146 14.6552 18.5234C14.5878 18.62 14.5321 18.7242 14.4891 18.8338C14.4407 18.9573 14.4142 19.0897 14.3612 19.3545L14.0319 21.0008C13.9533 21.3943 13.9139 21.591 13.972 21.7313C14.0227 21.854 14.1202 21.9514 14.2428 22.0022C14.3831 22.0602 14.5799 22.0209 14.9733 21.9422L16.6196 21.6129C16.8844 21.56 17.0169 21.5335 17.1404 21.485C17.25 21.4421 17.3541 21.3863 17.4507 21.319C17.5595 21.2431 17.655 21.1476 17.846 20.9566L20.5141 18.2884M17.6857 15.46L20.5141 18.2884" stroke="currentColor" stroke-width="2" stroke-linecap="round"/>
</svg>
