<svg width="24" height="24" viewBox="0 0 24 24" fill="none" xmlns="http://www.w3.org/2000/svg">
<path d="M3.32698 16.362L4.21799 15.908L4.21799 15.908L3.32698 16.362ZM4.63803 17.673L4.18404 18.564L4.18404 18.564L4.63803 17.673ZM20.673 16.362L21.564 16.816L20.673 16.362ZM19.362 17.673L19.816 18.564L19.362 17.673ZM19.362 3.32698L19.816 2.43597V2.43597L19.362 3.32698ZM20.673 4.63803L21.564 4.18404V4.18404L20.673 4.63803ZM4.63803 3.32698L4.18404 2.43597L4.63803 3.32698ZM3.32698 4.63803L2.43597 4.18404L3.32698 4.63803ZM9.28274 20.8063L9.79041 21.6679L9.79041 21.6679L9.28274 20.8063ZM12.9174 18.6646L12.4097 17.803L12.4097 17.803L12.9174 18.6646ZM5.49919 17.9233L5.63794 16.9329H5.63794L5.49919 17.9233ZM13.7709 18.206L13.4067 17.2747H13.4067L13.7709 18.206ZM14.3862 18.0382L14.2271 17.0509H14.2271L14.3862 18.0382ZM7.04517 20.3777L6.08281 20.6494L6.08281 20.6494L7.04517 20.3777ZM8.50529 21.212L8.25088 20.2449H8.25088L8.50529 21.212ZM6.979 18.9536L7.9615 18.7674V18.7674L6.979 18.9536ZM6.18493 18.0405L6.5057 17.0934L6.50569 17.0934L6.18493 18.0405ZM14.7685 11.4267C14.378 11.0361 13.7449 11.0361 13.3543 11.4266C12.9638 11.8171 12.9638 12.4503 13.3543 12.8408L14.7685 11.4267ZM15.1928 14.6795C15.5833 15.07 16.2164 15.07 16.607 14.6795C16.9975 14.289 16.9975 13.6558 16.607 13.2653L15.1928 14.6795ZM7.8 4H16.2V2H7.8V4ZM20 7.8V13.2H22V7.8H20ZM4 13.2V7.8H2V13.2H4ZM2 13.2C2 14.0236 1.99922 14.7014 2.04419 15.2518C2.09012 15.8139 2.18868 16.3306 2.43597 16.816L4.21799 15.908C4.1383 15.7516 4.07337 15.5274 4.03755 15.089C4.00078 14.6389 4 14.0566 4 13.2H2ZM5.09202 16.782C4.71569 16.5903 4.40973 16.2843 4.21799 15.908L2.43597 16.816C2.81947 17.5686 3.43139 18.1805 4.18404 18.564L5.09202 16.782ZM20 13.2C20 14.0566 19.9992 14.6389 19.9624 15.089C19.9266 15.5274 19.8617 15.7516 19.782 15.908L21.564 16.816C21.8113 16.3306 21.9099 15.8139 21.9558 15.2518C22.0008 14.7014 22 14.0236 22 13.2H20ZM16.2 19C17.0236 19 17.7014 19.0008 18.2518 18.9558C18.8139 18.9099 19.3306 18.8113 19.816 18.564L18.908 16.782C18.7516 16.8617 18.5274 16.9266 18.089 16.9624C17.6389 16.9992 17.0566 17 16.2 17V19ZM19.782 15.908C19.5903 16.2843 19.2843 16.5903 18.908 16.782L19.816 18.564C20.5686 18.1805 21.1805 17.5686 21.564 16.816L19.782 15.908ZM16.2 4C17.0566 4 17.6389 4.00078 18.089 4.03755C18.5274 4.07337 18.7516 4.1383 18.908 4.21799L19.816 2.43597C19.3306 2.18868 18.8139 2.09012 18.2518 2.04419C17.7014 1.99922 17.0236 2 16.2 2V4ZM22 7.8C22 6.97642 22.0008 6.2986 21.9558 5.74817C21.9099 5.18608 21.8113 4.66937 21.564 4.18404L19.782 5.09202C19.8617 5.24842 19.9266 5.47262 19.9624 5.91104C19.9992 6.36113 20 6.94342 20 7.8H22ZM18.908 4.21799C19.2843 4.40973 19.5903 4.7157 19.782 5.09202L21.564 4.18404C21.1805 3.43139 20.5686 2.81947 19.816 2.43597L18.908 4.21799ZM7.8 2C6.97642 2 6.2986 1.99922 5.74817 2.04419C5.18608 2.09012 4.66937 2.18868 4.18404 2.43597L5.09202 4.21799C5.24842 4.1383 5.47262 4.07337 5.91104 4.03755C6.36113 4.00078 6.94342 4 7.8 4V2ZM4 7.8C4 6.94342 4.00078 6.36113 4.03755 5.91104C4.07337 5.47262 4.1383 5.24842 4.21799 5.09202L2.43597 4.18404C2.18868 4.66937 2.09012 5.18608 2.04419 5.74817C1.99922 6.2986 2 6.97642 2 7.8H4ZM4.18404 2.43597C3.43139 2.81947 2.81947 3.43139 2.43597 4.18404L4.21799 5.09202C4.40973 4.71569 4.71569 4.40973 5.09202 4.21799L4.18404 2.43597ZM9.79041 21.6679L13.4251 19.5261L12.4097 17.803L8.77506 19.9448L9.79041 21.6679ZM5.63794 16.9329C5.37227 16.8957 5.21166 16.843 5.09202 16.782L4.18404 18.564C4.55619 18.7536 4.94562 18.8555 5.36044 18.9136L5.63794 16.9329ZM16.2 17H15.3543V19H16.2V17ZM13.4251 19.5261C13.8716 19.263 14.003 19.1889 14.135 19.1373L13.4067 17.2747C13.0914 17.398 12.803 17.5713 12.4097 17.803L13.4251 19.5261ZM15.3543 17C14.8978 17 14.5613 16.9971 14.2271 17.0509L14.5452 19.0255C14.6852 19.0029 14.836 19 15.3543 19V17ZM14.135 19.1373C14.2674 19.0856 14.4049 19.0481 14.5452 19.0255L14.2271 17.0509C13.9465 17.0961 13.6714 17.1711 13.4067 17.2747L14.135 19.1373ZM6 19.5019C6 19.732 5.9998 19.9349 6.00647 20.0993C6.01295 20.2593 6.02754 20.4537 6.08281 20.6494L8.00753 20.1059C8.01763 20.1416 8.00963 20.1368 8.00483 20.0183C8.0002 19.904 8 19.749 8 19.5019H6ZM8.77506 19.9448C8.56219 20.0702 8.42853 20.1488 8.32775 20.2028C8.22318 20.2588 8.21494 20.2544 8.25088 20.2449L8.75971 22.1791C8.95637 22.1274 9.1313 22.0413 9.27248 21.9656C9.41746 21.8879 9.59216 21.7847 9.79041 21.6679L8.77506 19.9448ZM6.08281 20.6494C6.40884 21.8039 7.59959 22.4843 8.75971 22.1791L8.25088 20.2449C8.14542 20.2727 8.03717 20.2108 8.00753 20.1059L6.08281 20.6494ZM8 19.5019C8 19.2613 8.00461 18.9948 7.9615 18.7674L5.9965 19.1399C5.99259 19.1192 5.9958 19.1228 5.99783 19.1902C5.99989 19.2583 6 19.3499 6 19.5019H8ZM5.36044 18.9136C5.55849 18.9413 5.68929 18.9597 5.78469 18.9754C5.89048 18.9928 5.89487 18.9981 5.86416 18.9877L6.50569 17.0934C6.28404 17.0183 5.95826 16.9778 5.63794 16.9329L5.36044 18.9136ZM7.9615 18.7674C7.89099 18.3954 7.74118 18.0324 7.47209 17.723C7.203 17.4136 6.8643 17.2148 6.5057 17.0934L5.86415 18.9877C5.91154 19.0037 5.93786 19.0181 5.95032 19.026C5.95655 19.03 5.95993 19.0327 5.96135 19.0339C5.9621 19.0346 5.96253 19.035 5.96271 19.0352C5.96289 19.0353 5.96295 19.0354 5.96295 19.0354C5.96296 19.0354 5.96302 19.0355 5.96318 19.0357C5.96333 19.0359 5.96368 19.0364 5.96421 19.0372C5.96521 19.0388 5.96744 19.0425 5.97049 19.0492C5.9766 19.0627 5.98718 19.0907 5.9965 19.1399L7.9615 18.7674ZM13.8999 9.97239C13.8999 11.077 13.0045 11.9724 11.8999 11.9724V13.9724C14.109 13.9724 15.8999 12.1815 15.8999 9.97239H13.8999ZM11.8999 11.9724C10.7953 11.9724 9.8999 11.077 9.8999 9.97239H7.8999C7.8999 12.1815 9.69076 13.9724 11.8999 13.9724V11.9724ZM9.8999 9.97239C9.8999 8.86782 10.7953 7.97239 11.8999 7.97239V5.97239C9.69076 5.97239 7.8999 7.76325 7.8999 9.97239H9.8999ZM11.8999 7.97239C13.0045 7.97239 13.8999 8.86782 13.8999 9.97239H15.8999C15.8999 7.76325 14.109 5.97239 11.8999 5.97239V7.97239ZM13.3543 12.8408L15.1928 14.6795L16.607 13.2653L14.7685 11.4267L13.3543 12.8408Z" fill="currentColor"/>
</svg>
