<svg width="24" height="24" viewBox="0 0 24 24" fill="none" xmlns="http://www.w3.org/2000/svg">
<path d="M4.63803 17.673L4.18404 18.564H4.18404L4.63803 17.673ZM3.32698 16.362L4.21799 15.908L4.21799 15.908L3.32698 16.362ZM20.811 16.362L21.7021 16.816L20.811 16.362ZM19.5 17.673L19.954 18.564L19.5 17.673ZM19.5 3.32698L19.954 2.43597V2.43597L19.5 3.32698ZM20.811 4.63803L21.7021 4.18404V4.18404L20.811 4.63803ZM4.63803 3.32698L4.18404 2.43597L4.63803 3.32698ZM3.32698 4.63803L2.43597 4.18404L3.32698 4.63803ZM10.5858 20.5858L9.87868 21.2929H9.87868L10.5858 20.5858ZM8.14142 18.1414L8.84853 17.4343L8.84852 17.4343L8.14142 18.1414ZM13.4142 20.5858L14.1213 21.2929L13.4142 20.5858ZM15.4142 18.5858L14.7071 17.8787L15.4142 18.5858ZM9.32416 14.6286L8.87017 15.5197L9.32416 14.6286ZM8.90462 14.2091L8.01362 14.6631L8.90462 14.2091ZM15.0954 14.2091L15.9864 14.6631L15.0954 14.2091ZM14.6758 14.6286L15.1298 15.5197L14.6758 14.6286ZM14.6758 10.0379L15.1298 9.14691L14.6758 10.0379ZM15.0954 10.4575L15.9864 10.0035L15.0954 10.4575ZM9.32416 10.0379L8.87017 9.14691L9.32416 10.0379ZM8.90462 10.4575L8.01362 10.0035L8.90462 10.4575ZM12.6 9.93328C12.6 10.4856 13.0477 10.9333 13.6 10.9333C14.1523 10.9333 14.6 10.4856 14.6 9.93328H12.6ZM9.39999 9.93328C9.39999 10.4856 9.8477 10.9333 10.4 10.9333C10.9523 10.9333 11.4 10.4856 11.4 9.93328H9.39999ZM7.8 4H17.2V2H7.8V4ZM20.138 7.8V13.2H22.138V7.8H20.138ZM4 13.2V7.8H2V13.2H4ZM7.8 17C6.94342 17 6.36113 16.9992 5.91104 16.9624C5.47262 16.9266 5.24842 16.8617 5.09202 16.782L4.18404 18.564C4.66937 18.8113 5.18608 18.9099 5.74817 18.9558C6.2986 19.0008 6.97642 19 7.8 19V17ZM2 13.2C2 14.0236 1.99922 14.7014 2.04419 15.2518C2.09012 15.8139 2.18868 16.3306 2.43597 16.816L4.21799 15.908C4.1383 15.7516 4.07337 15.5274 4.03755 15.089C4.00078 14.6389 4 14.0566 4 13.2H2ZM5.09202 16.782C4.71569 16.5903 4.40973 16.2843 4.21799 15.908L2.43597 16.816C2.81947 17.5686 3.43139 18.1805 4.18404 18.564L5.09202 16.782ZM20.138 13.2C20.138 14.0566 20.1373 14.6389 20.1005 15.089C20.0647 15.5274 19.9997 15.7516 19.92 15.908L21.7021 16.816C21.9493 16.3306 22.0479 15.8139 22.0938 15.2518C22.1388 14.7014 22.138 14.0236 22.138 13.2H20.138ZM17.2 19C17.9966 19 18.5065 19.0028 18.8815 18.949C19.3526 18.8814 19.6462 18.7209 19.954 18.564L19.046 16.782C18.7121 16.9522 18.6957 16.9551 18.5973 16.9693C18.4027 16.9972 18.0836 17 17.2 17V19ZM19.92 15.908C19.7283 16.2843 19.4223 16.5903 19.046 16.782L19.954 18.564C20.7066 18.1805 21.3186 17.5686 21.7021 16.816L19.92 15.908ZM17.2 4C18.0836 4 18.4027 4.0028 18.5973 4.03073C18.6957 4.04485 18.7121 4.04784 19.046 4.21799L19.954 2.43597C19.6462 2.27914 19.3526 2.11864 18.8815 2.05102C18.5065 1.9972 17.9966 2 17.2 2V4ZM22.138 7.8C22.138 6.97642 22.1388 6.2986 22.0938 5.74817C22.0479 5.18608 21.9493 4.66937 21.7021 4.18404L19.92 5.09202C19.9997 5.24842 20.0647 5.47262 20.1005 5.91104C20.1373 6.36113 20.138 6.94342 20.138 7.8H22.138ZM19.046 4.21799C19.4223 4.40973 19.7283 4.7157 19.92 5.09202L21.7021 4.18404C21.3186 3.43139 20.7066 2.81947 19.954 2.43597L19.046 4.21799ZM7.8 2C6.97642 2 6.2986 1.99922 5.74817 2.04419C5.18608 2.09012 4.66937 2.18868 4.18404 2.43597L5.09202 4.21799C5.24842 4.1383 5.47262 4.07337 5.91104 4.03755C6.36113 4.00078 6.94342 4 7.8 4V2ZM4 7.8C4 6.94342 4.00078 6.36113 4.03755 5.91104C4.07337 5.47262 4.1383 5.24842 4.21799 5.09202L2.43597 4.18404C2.18868 4.66937 2.09012 5.18608 2.04419 5.74817C1.99922 6.2986 2 6.97642 2 7.8H4ZM4.18404 2.43597C3.43139 2.81947 2.81947 3.43139 2.43597 4.18404L4.21799 5.09202C4.40973 4.71569 4.71569 4.40973 5.09202 4.21799L4.18404 2.43597ZM11.2929 19.8787L8.84853 17.4343L7.43431 18.8485L9.87868 21.2929L11.2929 19.8787ZM14.1213 21.2929L16.1213 19.2929L14.7071 17.8787L12.7071 19.8787L14.1213 21.2929ZM17.2 17H16.8284V19H17.2V17ZM16.1213 19.2929C16.3089 19.1054 16.5632 19 16.8284 19V17C16.0328 17 15.2697 17.3161 14.7071 17.8787L16.1213 19.2929ZM8.84852 17.4343C8.57044 17.1562 8.19328 17 7.8 17V19C7.66284 19 7.5313 18.9455 7.43432 18.8485L8.84852 17.4343ZM9.87868 21.2929C11.0503 22.4645 12.9497 22.4645 14.1213 21.2929L12.7071 19.8787C12.3166 20.2692 11.6834 20.2692 11.2929 19.8787L9.87868 21.2929ZM10.336 10.9333H13.664V8.93328H10.336V10.9333ZM14.2 11.4693V13.1973H16.2V11.4693H14.2ZM13.664 13.7333H10.336V15.7333H13.664V13.7333ZM9.79999 13.1973V11.4693H7.79999V13.1973H9.79999ZM10.336 13.7333C10.0507 13.7333 9.89681 13.7325 9.78689 13.7235C9.68865 13.7155 9.71636 13.7062 9.77815 13.7376L8.87017 15.5197C9.13731 15.6558 9.40211 15.6988 9.62403 15.7169C9.83428 15.7341 10.0837 15.7333 10.336 15.7333V13.7333ZM7.79999 13.1973C7.79999 13.4496 7.79921 13.699 7.81639 13.9092C7.83452 14.1312 7.8775 14.396 8.01362 14.6631L9.79563 13.7551C9.82711 13.8169 9.81777 13.8446 9.80975 13.7464C9.80077 13.6365 9.79999 13.4826 9.79999 13.1973H7.79999ZM9.77815 13.7376C9.78567 13.7415 9.79179 13.7476 9.79563 13.7551L8.01362 14.6631C8.20153 15.0319 8.50137 15.3317 8.87017 15.5197L9.77815 13.7376ZM14.2 13.1973C14.2 13.4826 14.1992 13.6365 14.1902 13.7464C14.1822 13.8446 14.1729 13.8169 14.2043 13.7551L15.9864 14.6631C16.1225 14.396 16.1655 14.1312 16.1836 13.9092C16.2008 13.699 16.2 13.4496 16.2 13.1973H14.2ZM13.664 15.7333C13.9163 15.7333 14.1657 15.7341 14.3759 15.7169C14.5979 15.6988 14.8627 15.6558 15.1298 15.5197L14.2218 13.7376C14.2836 13.7062 14.3113 13.7155 14.2131 13.7235C14.1032 13.7325 13.9493 13.7333 13.664 13.7333V15.7333ZM14.2043 13.7551C14.2082 13.7476 14.2143 13.7415 14.2218 13.7376L15.1298 15.5197C15.4986 15.3317 15.7984 15.0319 15.9864 14.6631L14.2043 13.7551ZM13.664 10.9333C13.9493 10.9333 14.1032 10.9341 14.2131 10.943C14.3113 10.9511 14.2836 10.9604 14.2218 10.9289L15.1298 9.14691C14.8627 9.01079 14.5979 8.96782 14.3759 8.94968C14.1657 8.93251 13.9163 8.93328 13.664 8.93328V10.9333ZM16.2 11.4693C16.2 11.217 16.2008 10.9676 16.1836 10.7573C16.1655 10.5354 16.1225 10.2706 15.9864 10.0035L14.2043 10.9114C14.1729 10.8497 14.1822 10.8219 14.1902 10.9202C14.1992 11.0301 14.2 11.184 14.2 11.4693H16.2ZM14.2218 10.9289C14.2143 10.9251 14.2082 10.919 14.2043 10.9114L15.9864 10.0035C15.7984 9.63467 15.4986 9.33482 15.1298 9.14691L14.2218 10.9289ZM10.336 8.93328C10.0837 8.93328 9.83428 8.93251 9.62403 8.94968C9.40211 8.96782 9.13731 9.01079 8.87017 9.14691L9.77815 10.9289C9.71636 10.9604 9.68865 10.9511 9.78689 10.943C9.89681 10.9341 10.0507 10.9333 10.336 10.9333V8.93328ZM9.79999 11.4693C9.79999 11.184 9.80077 11.0301 9.80975 10.9202C9.81777 10.8219 9.82711 10.8497 9.79563 10.9114L8.01362 10.0035C7.8775 10.2706 7.83452 10.5354 7.81639 10.7573C7.79921 10.9676 7.79999 11.217 7.79999 11.4693H9.79999ZM8.87017 9.14691C8.50137 9.33482 8.20153 9.63467 8.01362 10.0035L9.79563 10.9114C9.79179 10.919 9.78568 10.9251 9.77815 10.9289L8.87017 9.14691ZM12.6 8.33328V9.93328H14.6V8.33328H12.6ZM11.4 9.93328V8.33328H9.39999V9.93328H11.4ZM12 7.73328C12.3314 7.73328 12.6 8.00191 12.6 8.33328H14.6C14.6 6.89734 13.4359 5.73328 12 5.73328V7.73328ZM12 5.73328C10.564 5.73328 9.39999 6.89734 9.39999 8.33328H11.4C11.4 8.00191 11.6686 7.73328 12 7.73328V5.73328Z" fill="currentColor"/>
</svg>
