<svg width="24" height="24" viewBox="0 0 24 24" fill="none" xmlns="http://www.w3.org/2000/svg">
<path d="M9.52051 9.52049L14.4795 14.4795M21 12C21 16.9706 16.9706 21 12 21C11.2362 21 10.4946 20.9048 9.78639 20.7257C9.2398 20.5875 8.66929 20.5382 8.11857 20.6589L4.56789 21.4371C3.43334 21.6858 2.45879 20.6062 2.82193 19.5029L3.57095 17.2274C3.81962 16.4719 3.73499 15.6561 3.47856 14.9032C3.16832 13.9924 3.00002 13.0158 3.00002 12C3.00002 7.02944 7.02945 3 12 3C16.9706 3 21 7.02944 21 12ZM15.7193 12C15.7193 14.0541 14.0541 15.7193 12 15.7193C9.94593 15.7193 8.28076 14.0541 8.28076 12C8.28076 9.94591 9.94593 8.28074 12 8.28074C14.0541 8.28074 15.7193 9.94591 15.7193 12Z" stroke="currentColor" stroke-width="2" stroke-linecap="round"/>
</svg>
