<svg width="24" height="24" viewBox="0 0 24 24" fill="none" xmlns="http://www.w3.org/2000/svg">
<path d="M17.2 3H7.8C6.11984 3 5.27976 3 4.63803 3.32698C4.07354 3.6146 3.6146 4.07354 3.32698 4.63803C3 5.27976 3 6.11984 3 7.8V13.2C3 14.8802 3 15.7202 3.32698 16.362C3.6146 16.9265 4.07354 17.3854 4.63803 17.673C5.27976 18 6.11984 18 7.8 18C7.92806 18 8.05087 18.0509 8.14142 18.1414L9.73726 19.7373C10.5293 20.5293 10.9253 20.9253 11.382 21.0737C11.7837 21.2042 12.2163 21.2042 12.618 21.0737C13.0747 20.9253 13.4707 20.5293 14.2627 19.7373L15.1515 18.8485C15.4099 18.5901 15.5391 18.4609 15.6839 18.3599C15.9216 18.194 16.1926 18.0817 16.478 18.0309C16.6518 18 16.8346 18 17.2 18C18.8802 18 18.8583 18 19.5 17.673C20.0645 17.3854 20.5234 16.9265 20.811 16.362C21.138 15.7202 21.138 14.8802 21.138 13.2V7.8C21.138 6.11984 21.138 5.27976 20.811 4.63803C20.5234 4.07354 20.0645 3.6146 19.5 3.32698C18.8583 3 18.8802 3 17.2 3Z" stroke="currentColor" stroke-width="2" stroke-linecap="round" stroke-linejoin="round"/>
</svg>
