<svg width="24" height="24" viewBox="0 0 24 24" fill="none" xmlns="http://www.w3.org/2000/svg">
<path d="M9.44133 9.86737C9.6477 9.28073 10.055 8.78606 10.5912 8.47096C11.1273 8.15587 11.7577 8.04069 12.3706 8.14582C12.9835 8.25095 13.5395 8.56961 13.9399 9.04537C14.3404 9.52112 14.5596 10.1233 14.5587 10.7451C14.5587 12.7928 11.9254 13.3784 11.9254 13.3784M11.9595 16.8921H11.9712M21 12C21 16.9706 16.9706 21 12 21C11.2362 21 10.4946 20.9048 9.78639 20.7257C9.2398 20.5875 8.66929 20.5382 8.11857 20.6589L4.56789 21.4371C3.43334 21.6858 2.45879 20.6062 2.82193 19.5029L3.57095 17.2274C3.81962 16.4719 3.73499 15.6561 3.47856 14.9032C3.16832 13.9924 3.00002 13.0158 3.00002 12C3.00002 7.02944 7.02945 3 12 3C16.9706 3 21 7.02944 21 12Z" stroke="currentColor" stroke-width="2" stroke-linecap="round" stroke-linejoin="round"/>
</svg>
