<svg width="24" height="24" viewBox="0 0 24 24" fill="none" xmlns="http://www.w3.org/2000/svg">
<path d="M20.9451 11C20.9814 11.3283 21.0001 11.662 21.0001 12C21.0001 16.9706 16.9706 21 12.0001 21C11.4159 21 10.8448 20.9444 10.2917 20.8381C9.51351 20.6885 9.12442 20.6138 8.94209 20.6013C8.71833 20.5861 8.67922 20.5866 8.45593 20.6076C8.27399 20.6248 8.05363 20.6731 7.6129 20.7697L6.10865 21.0994C4.76247 21.3945 4.08938 21.542 3.64117 21.3442C3.2503 21.1718 2.95153 20.8408 2.81982 20.4343C2.66879 19.9683 2.88424 19.3138 3.31512 18.0047L3.33797 17.9353C3.53837 17.3265 3.63857 17.022 3.6763 16.771C3.72306 16.4598 3.72483 16.4113 3.70095 16.0975C3.68168 15.8444 3.54379 15.2924 3.26801 14.1885C3.09297 13.4879 3.00005 12.7548 3.00005 12C3.00005 7.02944 7.02949 3 12.0001 3C12.3381 3 12.6717 3.01863 13.0001 3.05493M7.50005 14.25H12.5001M7.50005 10.75H16.5001M22.0001 5C22.0001 6.65685 20.6569 8 19.0001 8C17.3432 8 16.0001 6.65685 16.0001 5C16.0001 3.34315 17.3432 2 19.0001 2C20.6569 2 22.0001 3.34315 22.0001 5Z" stroke="currentColor" stroke-width="2" stroke-linecap="round" stroke-linejoin="round"/>
</svg>
