<svg width="24" height="24" viewBox="0 0 24 24" fill="none" xmlns="http://www.w3.org/2000/svg">
<path d="M21 10.3759V7.8C21 6.11984 21 5.27976 20.673 4.63803C20.3854 4.07354 19.9265 3.6146 19.362 3.32698C18.7202 3 17.8802 3 16.2 3H7.8C6.11984 3 5.27976 3 4.63803 3.32698C4.07354 3.6146 3.6146 4.07354 3.32698 4.63803C3 5.27976 3 6.11984 3 7.8V13.2C3 14.8802 3 15.7202 3.32698 16.362C3.6146 16.9265 4.07354 17.3854 4.63803 17.673C4.85942 17.7858 5.10442 17.8597 5.39937 17.9081C5.89273 17.9891 6.13943 18.0295 6.27451 18.0877C6.65843 18.253 6.86355 18.4945 6.96448 18.9001C7 19.0428 7 19.2295 7 19.6028C7 20.1808 7 20.4697 7.0721 20.6682C7.25841 21.1811 7.76733 21.5038 8.3107 21.4534C8.52099 21.4339 8.78234 21.3106 9.30504 21.0641L10.4993 20.5007M18.4917 18.5486L15.3222 15.3791C14.7411 14.798 14.7411 13.856 15.3222 13.275C15.9032 12.694 16.8452 12.694 17.4262 13.275L20.5841 16.4329C21.7557 17.6044 21.7557 19.5039 20.5841 20.6755C19.4126 21.8471 17.5131 21.8471 16.3415 20.6755L14.2202 18.5542" stroke="currentColor" stroke-width="2" stroke-linecap="round" stroke-linejoin="round"/>
</svg>
