<svg width="24" height="24" viewBox="0 0 24 24" fill="none" xmlns="http://www.w3.org/2000/svg">
<path d="M16.2 3H7.8C6.11984 3 5.27976 3 4.63803 3.32698C4.07354 3.6146 3.6146 4.07354 3.32698 4.63803C3 5.27976 3 6.11984 3 7.8V13.2C3 14.8802 3 15.7202 3.32698 16.362C3.6146 16.9265 4.07354 17.3854 4.63803 17.673C4.88393 17.7983 5.15895 17.8756 5.49919 17.9233C5.88516 17.9773 6.07815 18.0044 6.18493 18.0405C6.6349 18.1929 6.89052 18.4869 6.979 18.9536C7 19.0644 7 19.2102 7 19.5019C7 19.9791 7 20.2177 7.04517 20.3777C7.223 21.0074 7.87251 21.3785 8.50529 21.212C8.66602 21.1698 8.87161 21.0486 9.28274 20.8063L12.9174 18.6646C13.3373 18.4172 13.5472 18.2934 13.7709 18.206C13.9694 18.1284 14.1757 18.0721 14.3862 18.0382C14.6232 18 14.8669 18 15.3543 18H16.2C17.8802 18 18.7202 18 19.362 17.673C19.9265 17.3854 20.3854 16.9265 20.673 16.362C21 15.7202 21 14.8802 21 13.2V7.8C21 6.11984 21 5.27976 20.673 4.63803C20.3854 4.07354 19.9265 3.6146 19.362 3.32698C18.7202 3 17.8802 3 16.2 3Z" stroke="currentColor" stroke-width="2" stroke-linecap="round" stroke-linejoin="round"/>
<path fill-rule="evenodd" clip-rule="evenodd" d="M11.9973 8.32706C11.1975 7.41807 9.8639 7.17355 8.86188 8.00592C7.85986 8.83828 7.71879 10.23 8.50568 11.2144C9.29257 12.1988 11.9973 14.4965 11.9973 14.4965C11.9973 14.4965 14.7019 12.1988 15.4888 11.2144C16.2757 10.23 16.1519 8.82953 15.1326 8.00592C14.1134 7.1823 12.797 7.41807 11.9973 8.32706Z" stroke="currentColor" stroke-width="2" stroke-linecap="round" stroke-linejoin="round"/>
</svg>
