<svg width="24" height="24" viewBox="0 0 24 24" fill="none" xmlns="http://www.w3.org/2000/svg">
<path d="M11.8787 9.12132L12.5858 8.41421C12.9146 8.08542 13.079 7.92102 13.25 7.82228C13.7141 7.55433 14.2859 7.55433 14.75 7.82228C14.921 7.92102 15.0854 8.08542 15.4142 8.41421C15.743 8.74301 15.9074 8.90741 16.0062 9.07843C16.2741 9.54253 16.2741 10.1143 16.0062 10.5784C15.9074 10.7494 15.743 10.9138 15.4142 11.2426L14.7071 11.9497M11.8787 9.12132L9.21054 11.7895C9.01956 11.9805 8.92407 12.076 8.84819 12.1848C8.78084 12.2813 8.72509 12.3855 8.6821 12.4951C8.63366 12.6186 8.60718 12.751 8.55421 13.0159L8.22495 14.6621C8.14626 15.0556 8.10692 15.2523 8.16497 15.3926C8.21572 15.5153 8.31317 15.6127 8.43584 15.6635C8.57615 15.7215 8.77287 15.6822 9.16631 15.6035L10.8126 15.2742C11.0774 15.2213 11.2099 15.1948 11.3334 15.1463C11.443 15.1034 11.5471 15.0476 11.6437 14.9803C11.7525 14.9044 11.848 14.8089 12.039 14.6179L14.7071 11.9497M11.8787 9.12132L14.7071 11.9497M21 12C21 16.9706 16.9706 21 12 21C11.2362 21 10.4946 20.9048 9.78639 20.7257C9.2398 20.5875 8.66929 20.5382 8.11857 20.6589L4.56789 21.4371C3.43334 21.6858 2.45879 20.6062 2.82193 19.5029L3.57095 17.2274C3.81962 16.4719 3.73499 15.6561 3.47856 14.9032C3.16832 13.9924 3.00002 13.0158 3.00002 12C3.00002 7.02944 7.02945 3 12 3C16.9706 3 21 7.02944 21 12Z" stroke="currentColor" stroke-width="2" stroke-linecap="round"/>
</svg>
