<svg width="24" height="24" viewBox="0 0 24 24" fill="none" xmlns="http://www.w3.org/2000/svg">
<path d="M14.0614 13.7018L15.8999 15.5404M21 12C21 16.9706 16.9706 21 12 21C11.2362 21 10.4946 20.9048 9.78639 20.7257C9.2398 20.5875 8.66929 20.5382 8.11857 20.6589L4.56789 21.4371C3.43334 21.6858 2.45879 20.6062 2.82193 19.5029L3.57095 17.2274C3.81962 16.4719 3.73499 15.6561 3.47856 14.9032C3.16832 13.9924 3.00002 13.0158 3.00002 12C3.00002 7.02944 7.02945 3 12 3C16.9706 3 21 7.02944 21 12ZM14.8999 11.5404C14.8999 13.1973 13.5568 14.5404 11.8999 14.5404C10.2431 14.5404 8.89992 13.1973 8.89992 11.5404C8.89992 9.88355 10.2431 8.54041 11.8999 8.54041C13.5568 8.54041 14.8999 9.88355 14.8999 11.5404Z" stroke="currentColor" stroke-width="2" stroke-linecap="round"/>
</svg>
