<svg width="24" height="24" viewBox="0 0 24 24" fill="none" xmlns="http://www.w3.org/2000/svg">
<path d="M12 21C11.2362 21 10.4946 20.9048 9.78639 20.7257C9.2398 20.5875 8.66929 20.5382 8.11857 20.6589L4.56789 21.4371C3.43334 21.6858 2.45879 20.6062 2.82193 19.5029L3.57095 17.2274C3.81962 16.4719 3.73499 15.6561 3.47856 14.9032C3.16832 13.9924 3.00002 13.0158 3.00002 12C3.00002 7.02944 7.02945 3 12 3C16.4595 3 20.1615 6.24343 20.8756 10.5M20.4 17.2V15.6C20.4 14.7163 19.6837 14 18.8 14C17.9164 14 17.2 14.7163 17.2 15.6V17.2M17.136 22H20.464C21.0017 22 21.2705 22 21.4758 21.8954C21.6565 21.8033 21.8033 21.6565 21.8954 21.4758C22 21.2705 22 21.0017 22 20.464V18.736C22 18.1983 22 17.9295 21.8954 17.7242C21.8033 17.5435 21.6565 17.3967 21.4758 17.3046C21.2705 17.2 21.0017 17.2 20.464 17.2H17.136C16.5984 17.2 16.3295 17.2 16.1242 17.3046C15.9436 17.3967 15.7967 17.5435 15.7047 17.7242C15.6 17.9295 15.6 18.1983 15.6 18.736V20.464C15.6 21.0017 15.6 21.2705 15.7047 21.4758C15.7967 21.6565 15.9436 21.8033 16.1242 21.8954C16.3295 22 16.5984 22 17.136 22Z" stroke="currentColor" stroke-width="2" stroke-linecap="round"/>
</svg>
