<svg width="24" height="24" viewBox="0 0 24 24" fill="none" xmlns="http://www.w3.org/2000/svg">
<path d="M12 21C16.9706 21 21 16.9706 21 12C21 7.02944 16.9706 3 12 3C7.02944 3 3 7.02944 3 12C3 12.7548 3.09292 13.4879 3.26796 14.1885L3.26796 14.1886C3.54374 15.2924 3.68163 15.8444 3.7009 16.0975C3.72478 16.4113 3.72301 16.4598 3.67625 16.771C3.63852 17.022 3.53832 17.3265 3.33792 17.9353L3.31507 18.0047C2.88418 19.3138 2.66874 19.9683 2.81977 20.4343C2.95148 20.8408 3.25025 21.1718 3.64112 21.3442C4.08933 21.542 4.76242 21.3945 6.1086 21.0994L7.61285 20.7697C8.05358 20.6731 8.27394 20.6248 8.45588 20.6076C8.67917 20.5866 8.71828 20.5861 8.94204 20.6013C9.12437 20.6138 9.51346 20.6885 10.2917 20.8381C10.8448 20.9444 11.4159 21 12 21Z" stroke="currentColor" stroke-width="2" stroke-linecap="round" stroke-linejoin="round"/>
</svg>
