<svg width="24" height="24" viewBox="0 0 24 24" fill="none" xmlns="http://www.w3.org/2000/svg">
<path d="M4.63803 17.673L4.18404 18.564H4.18404L4.63803 17.673ZM3.32698 16.362L4.21799 15.908L4.21799 15.908L3.32698 16.362ZM20.811 16.362L21.7021 16.816L20.811 16.362ZM19.5 17.673L19.954 18.564L19.5 17.673ZM19.5 3.32698L19.954 2.43597V2.43597L19.5 3.32698ZM20.811 4.63803L21.7021 4.18404V4.18404L20.811 4.63803ZM4.63803 3.32698L4.18404 2.43597L4.63803 3.32698ZM3.32698 4.63803L2.43597 4.18404L3.32698 4.63803ZM10.5858 20.5858L9.87868 21.2929H9.87868L10.5858 20.5858ZM8.14142 18.1414L8.84853 17.4343L8.84852 17.4343L8.14142 18.1414ZM13.4142 20.5858L14.1213 21.2929L13.4142 20.5858ZM15.4142 18.5858L14.7071 17.8787L15.4142 18.5858ZM10.3067 7.7426C9.91613 7.35208 9.28297 7.35208 8.89244 7.7426C8.50192 8.13313 8.50192 8.76629 8.89244 9.15681L10.3067 7.7426ZM13.6933 13.9577C14.0838 14.3482 14.717 14.3482 15.1075 13.9577C15.498 13.5671 15.498 12.934 15.1075 12.5435L13.6933 13.9577ZM15.1075 9.15682C15.498 8.76629 15.498 8.13313 15.1075 7.7426C14.717 7.35208 14.0838 7.35208 13.6933 7.7426L15.1075 9.15682ZM8.89244 12.5435C8.50192 12.934 8.50192 13.5671 8.89244 13.9577C9.28297 14.3482 9.91613 14.3482 10.3067 13.9577L8.89244 12.5435ZM7.8 4H17.2V2H7.8V4ZM20.138 7.8V13.2H22.138V7.8H20.138ZM4 13.2V7.8H2V13.2H4ZM7.8 17C6.94342 17 6.36113 16.9992 5.91104 16.9624C5.47262 16.9266 5.24842 16.8617 5.09202 16.782L4.18404 18.564C4.66937 18.8113 5.18608 18.9099 5.74817 18.9558C6.2986 19.0008 6.97642 19 7.8 19V17ZM2 13.2C2 14.0236 1.99922 14.7014 2.04419 15.2518C2.09012 15.8139 2.18868 16.3306 2.43597 16.816L4.21799 15.908C4.1383 15.7516 4.07337 15.5274 4.03755 15.089C4.00078 14.6389 4 14.0566 4 13.2H2ZM5.09202 16.782C4.71569 16.5903 4.40973 16.2843 4.21799 15.908L2.43597 16.816C2.81947 17.5686 3.43139 18.1805 4.18404 18.564L5.09202 16.782ZM20.138 13.2C20.138 14.0566 20.1373 14.6389 20.1005 15.089C20.0647 15.5274 19.9997 15.7516 19.92 15.908L21.7021 16.816C21.9493 16.3306 22.0479 15.8139 22.0938 15.2518C22.1388 14.7014 22.138 14.0236 22.138 13.2H20.138ZM17.2 19C17.9966 19 18.5065 19.0028 18.8815 18.949C19.3526 18.8814 19.6462 18.7209 19.954 18.564L19.046 16.782C18.7121 16.9522 18.6957 16.9551 18.5973 16.9693C18.4027 16.9972 18.0836 17 17.2 17V19ZM19.92 15.908C19.7283 16.2843 19.4223 16.5903 19.046 16.782L19.954 18.564C20.7066 18.1805 21.3186 17.5686 21.7021 16.816L19.92 15.908ZM17.2 4C18.0836 4 18.4027 4.0028 18.5973 4.03073C18.6957 4.04485 18.7121 4.04784 19.046 4.21799L19.954 2.43597C19.6462 2.27914 19.3526 2.11864 18.8815 2.05102C18.5065 1.9972 17.9966 2 17.2 2V4ZM22.138 7.8C22.138 6.97642 22.1388 6.2986 22.0938 5.74817C22.0479 5.18608 21.9493 4.66937 21.7021 4.18404L19.92 5.09202C19.9997 5.24842 20.0647 5.47262 20.1005 5.91104C20.1373 6.36113 20.138 6.94342 20.138 7.8H22.138ZM19.046 4.21799C19.4223 4.40973 19.7283 4.7157 19.92 5.09202L21.7021 4.18404C21.3186 3.43139 20.7066 2.81947 19.954 2.43597L19.046 4.21799ZM7.8 2C6.97642 2 6.2986 1.99922 5.74817 2.04419C5.18608 2.09012 4.66937 2.18868 4.18404 2.43597L5.09202 4.21799C5.24842 4.1383 5.47262 4.07337 5.91104 4.03755C6.36113 4.00078 6.94342 4 7.8 4V2ZM4 7.8C4 6.94342 4.00078 6.36113 4.03755 5.91104C4.07337 5.47262 4.1383 5.24842 4.21799 5.09202L2.43597 4.18404C2.18868 4.66937 2.09012 5.18608 2.04419 5.74817C1.99922 6.2986 2 6.97642 2 7.8H4ZM4.18404 2.43597C3.43139 2.81947 2.81947 3.43139 2.43597 4.18404L4.21799 5.09202C4.40973 4.71569 4.71569 4.40973 5.09202 4.21799L4.18404 2.43597ZM11.2929 19.8787L8.84853 17.4343L7.43431 18.8485L9.87868 21.2929L11.2929 19.8787ZM14.1213 21.2929L16.1213 19.2929L14.7071 17.8787L12.7071 19.8787L14.1213 21.2929ZM17.2 17H16.8284V19H17.2V17ZM16.1213 19.2929C16.3089 19.1054 16.5632 19 16.8284 19V17C16.0328 17 15.2697 17.3161 14.7071 17.8787L16.1213 19.2929ZM8.84852 17.4343C8.57044 17.1562 8.19328 17 7.8 17V19C7.66284 19 7.5313 18.9455 7.43432 18.8485L8.84852 17.4343ZM9.87868 21.2929C11.0503 22.4645 12.9497 22.4645 14.1213 21.2929L12.7071 19.8787C12.3166 20.2692 11.6834 20.2692 11.2929 19.8787L9.87868 21.2929ZM8.89244 9.15681L11.2929 11.5572L12.7071 10.143L10.3067 7.7426L8.89244 9.15681ZM11.2929 11.5572L13.6933 13.9577L15.1075 12.5435L12.7071 10.143L11.2929 11.5572ZM13.6933 7.7426L11.2929 10.143L12.7071 11.5572L15.1075 9.15682L13.6933 7.7426ZM11.2929 10.143L8.89244 12.5435L10.3067 13.9577L12.7071 11.5572L11.2929 10.143Z" fill="currentColor"/>
</svg>
