<svg width="24" height="24" viewBox="0 0 24 24" fill="none" xmlns="http://www.w3.org/2000/svg">
<path d="M12 21C11.2362 21 10.4946 20.9048 9.78639 20.7257C9.2398 20.5875 8.66929 20.5382 8.11857 20.6589L4.56789 21.4371C3.43334 21.6858 2.45879 20.6062 2.82193 19.5029L3.57095 17.2274C3.81962 16.4719 3.73499 15.6561 3.47856 14.9032C3.16832 13.9924 3.00002 13.0158 3.00002 12C3.00002 7.02944 7.02945 3 12 3C16.4595 3 20.1615 6.24343 20.8756 10.5M19.0921 18.8257L15.9225 15.6561C15.3415 15.0751 15.3415 14.1331 15.9225 13.552C16.5036 12.971 17.4456 12.971 18.0266 13.552L21.1845 16.7099C22.3561 17.8815 22.3561 19.781 21.1845 20.9526C20.0129 22.1241 18.1134 22.1241 16.9419 20.9526L14.8205 18.8312" stroke="currentColor" stroke-width="2" stroke-linecap="round"/>
</svg>
