<svg width="24" height="24" viewBox="0 0 24 24" fill="none" xmlns="http://www.w3.org/2000/svg">
<path d="M12 21C16.9706 21 21 16.9706 21 12C21 7.02944 16.9706 3 12 3C7.02945 3 3.00002 7.02944 3.00002 12C3.00002 13.0158 3.16832 13.9924 3.47856 14.9032C3.73499 15.6561 3.81962 16.4719 3.57095 17.2274L2.82193 19.5029C2.45879 20.6062 3.43334 21.6858 4.56789 21.4371L8.11857 20.6589C8.66929 20.5382 9.2398 20.5875 9.78639 20.7257C10.4946 20.9048 11.2362 21 12 21Z" stroke="currentColor" stroke-width="2" stroke-linecap="round" stroke-linejoin="round"/>
<path fill-rule="evenodd" clip-rule="evenodd" d="M11.9973 9.83059C11.1975 8.9216 9.86392 8.67708 8.8619 9.50945C7.85988 10.3418 7.7188 11.7335 8.5057 12.7179C9.29259 13.7024 11.9973 16 11.9973 16C11.9973 16 14.702 13.7024 15.4889 12.7179C16.2758 11.7335 16.1519 10.3331 15.1327 9.50945C14.1134 8.68584 12.797 8.9216 11.9973 9.83059Z" stroke="currentColor" stroke-width="2" stroke-linecap="round" stroke-linejoin="round"/>
</svg>
