<svg width="24" height="24" viewBox="0 0 24 24" fill="none" xmlns="http://www.w3.org/2000/svg">
<path d="M11.8787 8.51812L12.5858 7.81101C12.9146 7.48222 13.079 7.31782 13.25 7.21908C13.7141 6.95113 14.2859 6.95113 14.75 7.21908C14.921 7.31782 15.0854 7.48222 15.4142 7.81101C15.743 8.1398 15.9074 8.3042 16.0061 8.47522C16.2741 8.93933 16.2741 9.51112 16.0061 9.97522C15.9074 10.1462 15.743 10.3106 15.4142 10.6394L14.7071 11.3465M11.8787 8.51812L9.21053 11.1863C9.01954 11.3773 8.92405 11.4727 8.84817 11.5815C8.78082 11.6781 8.72507 11.7823 8.68208 11.8919C8.63364 12.0154 8.60716 12.1478 8.55419 12.4126L8.22493 14.0589C8.14624 14.4524 8.1069 14.6491 8.16495 14.7894C8.2157 14.9121 8.31315 15.0095 8.43582 15.0603C8.57613 15.1183 8.77285 15.079 9.16629 15.0003L10.8126 14.671C11.0774 14.6181 11.2099 14.5916 11.3333 14.5431C11.4429 14.5002 11.5471 14.4444 11.6437 14.3771C11.7525 14.3012 11.848 14.2057 12.039 14.0147L14.7071 11.3465M11.8787 8.51812L14.7071 11.3465M7.8 3H16.2C17.8802 3 18.7202 3 19.362 3.32698C19.9265 3.6146 20.3854 4.07354 20.673 4.63803C21 5.27976 21 6.11984 21 7.8V13.2C21 14.8802 21 15.7202 20.673 16.362C20.3854 16.9265 19.9265 17.3854 19.362 17.673C18.7202 18 17.8802 18 16.2 18H15.3543C14.8669 18 14.6232 18 14.3862 18.0382C14.1757 18.0721 13.9694 18.1284 13.7709 18.206C13.5472 18.2934 13.3373 18.4172 12.9174 18.6646L9.28274 20.8063C8.87161 21.0486 8.66602 21.1698 8.50529 21.212C7.87251 21.3785 7.223 21.0074 7.04517 20.3777C7 20.2177 7 19.9791 7 19.5019C7 19.2102 7 19.0644 6.979 18.9536C6.89052 18.4869 6.6349 18.1929 6.18493 18.0405C6.07815 18.0044 5.88516 17.9773 5.49919 17.9233C5.15895 17.8756 4.88393 17.7983 4.63803 17.673C4.07354 17.3854 3.6146 16.9265 3.32698 16.362C3 15.7202 3 14.8802 3 13.2V7.8C3 6.11984 3 5.27976 3.32698 4.63803C3.6146 4.07354 4.07354 3.6146 4.63803 3.32698C5.27976 3 6.11984 3 7.8 3Z" stroke="currentColor" stroke-width="2" stroke-linecap="round" stroke-linejoin="round"/>
</svg>
