<svg width="24" height="24" viewBox="0 0 24 24" fill="none" xmlns="http://www.w3.org/2000/svg">
<path d="M20.9451 11C20.9814 11.3283 21 11.662 21 12C21 16.9706 16.9706 21 12 21C11.2362 21 10.4946 20.9048 9.78639 20.7257C9.2398 20.5875 8.66929 20.5382 8.11857 20.6589L4.56789 21.4371C3.43334 21.6858 2.45879 20.6062 2.82193 19.5029L3.57095 17.2274C3.81962 16.4719 3.73499 15.6561 3.47856 14.9032C3.16832 13.9924 3.00002 13.0158 3.00002 12C3.00002 7.02944 7.02945 3 12 3C12.338 3 12.6717 3.01863 13 3.05493M8.99502 12.5H9.00502M11.995 12.5H12.005M14.995 12.5H15.005M22 5C22 6.65685 20.6569 8 19 8C17.3432 8 16 6.65685 16 5C16 3.34315 17.3432 2 19 2C20.6569 2 22 3.34315 22 5Z" stroke="currentColor" stroke-width="2" stroke-linecap="round" stroke-linejoin="round"/>
</svg>
