<svg width="24" height="24" viewBox="0 0 24 24" fill="none" xmlns="http://www.w3.org/2000/svg">
<path d="M9.44131 9.12022C9.64768 8.53358 10.055 8.03891 10.5911 7.72381C11.1273 7.40872 11.7576 7.29354 12.3706 7.39867C12.9835 7.5038 13.5394 7.82246 13.9399 8.29822C14.3404 8.77397 14.5596 9.37611 14.5587 9.99799C14.5587 12.0457 11.9254 12.6313 11.9254 12.6313M11.9595 16.145H11.9712M7.8 3H17.2C18.8802 3 18.8583 3 19.5 3.32698C20.0645 3.6146 20.5234 4.07354 20.811 4.63803C21.138 5.27976 21.138 6.11984 21.138 7.8V13.2C21.138 14.8802 21.138 15.7202 20.811 16.362C20.5234 16.9265 20.0645 17.3854 19.5 17.673C18.8583 18 18.8802 18 17.2 18H16.8284C16.298 18 15.7893 18.2107 15.4142 18.5858L13.4142 20.5858C12.6332 21.3668 11.3668 21.3668 10.5858 20.5858L8.14142 18.1414C8.05087 18.0509 7.92806 18 7.8 18C6.11984 18 5.27976 18 4.63803 17.673C4.07354 17.3854 3.6146 16.9265 3.32698 16.362C3 15.7202 3 14.8802 3 13.2V7.8C3 6.11984 3 5.27976 3.32698 4.63803C3.6146 4.07354 4.07354 3.6146 4.63803 3.32698C5.27976 3 6.11984 3 7.8 3Z" stroke="currentColor" stroke-width="2" stroke-linecap="round" stroke-linejoin="round"/>
</svg>
