<svg width="24" height="24" viewBox="0 0 24 24" fill="none" xmlns="http://www.w3.org/2000/svg">
<path d="M21 10.3759V7.8C21 6.11984 21 5.27976 20.673 4.63803C20.3854 4.07354 19.9265 3.6146 19.362 3.32698C18.7202 3 17.8802 3 16.2 3H7.8C6.11984 3 5.27976 3 4.63803 3.32698C4.07354 3.6146 3.6146 4.07354 3.32698 4.63803C3 5.27976 3 6.11984 3 7.8V13.2C3 14.8802 3 15.7202 3.32698 16.362C3.6146 16.9265 4.07354 17.3854 4.63803 17.673C4.85942 17.7858 5.10442 17.8597 5.39937 17.9081C5.89273 17.9891 6.13943 18.0295 6.27451 18.0877C6.65843 18.253 6.86355 18.4945 6.96448 18.9001C7 19.0428 7 19.2295 7 19.6028C7 20.1808 7 20.4697 7.0721 20.6682C7.25841 21.1811 7.76733 21.5038 8.3107 21.4534C8.52099 21.4339 8.78234 21.3106 9.30504 21.0641L10.4993 20.5007M17.6504 15.4658L18.3575 14.7586C18.6863 14.4299 18.8507 14.2655 19.0217 14.1667C19.4858 13.8988 20.0576 13.8988 20.5217 14.1667C20.6927 14.2655 20.8571 14.4299 21.1859 14.7586C21.5147 15.0874 21.6791 15.2518 21.7778 15.4229C22.0458 15.887 22.0458 16.4588 21.7778 16.9229C21.6791 17.0939 21.5147 17.2583 21.1859 17.5871L20.4788 18.2942M17.6504 15.4658L14.9822 18.1339C14.7912 18.3249 14.6957 18.4204 14.6198 18.5292C14.5525 18.6258 14.4967 18.7299 14.4538 18.8395C14.4053 18.963 14.3788 19.0954 14.3259 19.3603L13.9966 21.0066C13.9179 21.4 13.8786 21.5967 13.9366 21.737C13.9874 21.8597 14.0848 21.9572 14.2075 22.0079C14.3478 22.066 14.5445 22.0266 14.938 21.9479L16.5842 21.6187C16.8491 21.5657 16.9815 21.5392 17.105 21.4908C17.2146 21.4478 17.3188 21.392 17.4153 21.3247C17.5241 21.2488 17.6196 21.1533 17.8106 20.9623L20.4788 18.2942M17.6504 15.4658L20.4788 18.2942" stroke="currentColor" stroke-width="2" stroke-linecap="round" stroke-linejoin="round"/>
</svg>
