<svg width="24" height="24" viewBox="0 0 24 24" fill="none" xmlns="http://www.w3.org/2000/svg">
<path d="M20 11.5C20 12.0523 20.4477 12.5 21 12.5C21.5523 12.5 22 12.0523 22 11.5H20ZM3.32698 16.362L4.21799 15.908L4.21799 15.908L3.32698 16.362ZM4.63803 17.673L5.09202 16.782H5.09202L4.63803 17.673ZM19.362 3.32698L19.816 2.43597V2.43597L19.362 3.32698ZM20.673 4.63803L21.564 4.18404V4.18404L20.673 4.63803ZM4.63803 3.32698L4.18404 2.43597L4.63803 3.32698ZM3.32698 4.63803L2.43597 4.18404L3.32698 4.63803ZM5.40492 17.909L5.24437 18.896L5.24437 18.896L5.40492 17.909ZM9.30447 21.0497L8.87313 20.1475L8.87312 20.1475L9.30447 21.0497ZM11.9313 20.9022C12.4296 20.664 12.6404 20.0669 12.4022 19.5687C12.164 19.0704 11.5669 18.8596 11.0687 19.0978L11.9313 20.9022ZM7.07052 20.653L8.01175 20.3152L7.07052 20.653ZM8.32152 21.4415L8.22026 20.4466H8.22025L8.32152 21.4415ZM6.96538 18.9029L7.93652 18.6644V18.6644L6.96538 18.9029ZM6.26956 18.0847L5.87826 19.005L5.87826 19.005L6.26956 18.0847ZM17.0898 15.6756C16.6993 15.2851 16.0661 15.2851 15.6756 15.6756C15.285 16.0662 15.285 16.6993 15.6756 17.0898L17.0898 15.6756ZM20.1694 21.5837C20.56 21.9742 21.1931 21.9742 21.5836 21.5837C21.9742 21.1932 21.9742 20.56 21.5836 20.1695L20.1694 21.5837ZM7.8 4H16.2V2H7.8V4ZM20 7.8V11.5H22V7.8H20ZM4 13.2V7.8H2V13.2H4ZM2 13.2C2 14.0236 1.99922 14.7014 2.04419 15.2518C2.09012 15.8139 2.18868 16.3306 2.43597 16.816L4.21799 15.908C4.1383 15.7516 4.07337 15.5274 4.03755 15.089C4.00078 14.6389 4 14.0566 4 13.2H2ZM5.09202 16.782C4.71569 16.5903 4.40973 16.2843 4.21799 15.908L2.43597 16.816C2.81947 17.5686 3.43139 18.1805 4.18404 18.564L5.09202 16.782ZM16.2 4C17.0566 4 17.6389 4.00078 18.089 4.03755C18.5274 4.07337 18.7516 4.1383 18.908 4.21799L19.816 2.43597C19.3306 2.18868 18.8139 2.09012 18.2518 2.04419C17.7014 1.99922 17.0236 2 16.2 2V4ZM22 7.8C22 6.97642 22.0008 6.2986 21.9558 5.74817C21.9099 5.18608 21.8113 4.66937 21.564 4.18404L19.782 5.09202C19.8617 5.24842 19.9266 5.47262 19.9624 5.91104C19.9992 6.36113 20 6.94342 20 7.8H22ZM18.908 4.21799C19.2843 4.40973 19.5903 4.7157 19.782 5.09202L21.564 4.18404C21.1805 3.43139 20.5686 2.81947 19.816 2.43597L18.908 4.21799ZM7.8 2C6.97642 2 6.2986 1.99922 5.74817 2.04419C5.18608 2.09012 4.66937 2.18868 4.18404 2.43597L5.09202 4.21799C5.24842 4.1383 5.47262 4.07337 5.91104 4.03755C6.36113 4.00078 6.94342 4 7.8 4V2ZM4 7.8C4 6.94342 4.00078 6.36113 4.03755 5.91104C4.07337 5.47262 4.1383 5.24842 4.21799 5.09202L2.43597 4.18404C2.18868 4.66937 2.09012 5.18608 2.04419 5.74817C1.99922 6.2986 2 6.97642 2 7.8H4ZM4.18404 2.43597C3.43139 2.81947 2.81947 3.43139 2.43597 4.18404L4.21799 5.09202C4.40973 4.71569 4.71569 4.40973 5.09202 4.21799L4.18404 2.43597ZM5.56548 16.922C5.34288 16.8858 5.20073 16.8374 5.09202 16.782L4.18404 18.564C4.52088 18.7357 4.8721 18.8355 5.24437 18.896L5.56548 16.922ZM9.73581 21.9519L11.9313 20.9022L11.0687 19.0978L8.87313 20.1475L9.73581 21.9519ZM6 19.5972C6 19.8727 5.99967 20.1184 6.01019 20.3187C6.0206 20.5167 6.04424 20.7537 6.12929 20.9907L8.01175 20.3152C8.02628 20.3557 8.01466 20.3512 8.00744 20.2137C8.00033 20.0784 8 19.8945 8 19.5972H6ZM8.87312 20.1475C8.60486 20.2758 8.43885 20.3548 8.31368 20.4067C8.18653 20.4595 8.17747 20.451 8.22026 20.4466L8.42278 22.4363C8.67329 22.4108 8.8973 22.33 9.0805 22.2539C9.26566 22.177 9.48727 22.0707 9.73582 21.9519L8.87312 20.1475ZM6.12929 20.9907C6.47079 21.9424 7.41693 22.5387 8.42279 22.4363L8.22025 20.4466C8.12881 20.4559 8.0428 20.4017 8.01175 20.3152L6.12929 20.9907ZM8 19.5972C8 19.293 8.00755 18.9536 7.93652 18.6644L5.99423 19.1414C5.98803 19.1161 5.99315 19.1202 5.99645 19.2039C5.99982 19.2895 6 19.4047 6 19.5972H8ZM5.24437 18.896C5.4946 18.9367 5.6593 18.9637 5.77916 18.9869C5.91145 19.0126 5.91594 19.021 5.87826 19.005L6.66087 17.1645C6.48959 17.0916 6.30543 17.0518 6.16064 17.0237C6.00341 16.9931 5.80259 16.9606 5.56547 16.922L5.24437 18.896ZM7.93652 18.6644C7.85858 18.347 7.7231 18.0321 7.4869 17.7544C7.2507 17.4766 6.96163 17.2924 6.66087 17.1645L5.87826 19.005C5.96507 19.0419 5.97368 19.0622 5.96339 19.0501C5.95309 19.038 5.97173 19.0497 5.99423 19.1414L7.93652 18.6644ZM21 18.6297C21 19.9388 19.9387 21.0001 18.6296 21.0001V23.0001C21.0433 23.0001 23 21.0434 23 18.6297H21ZM18.6296 21.0001C17.3205 21.0001 16.2592 19.9388 16.2592 18.6297H14.2592C14.2592 21.0434 16.2159 23.0001 18.6296 23.0001V21.0001ZM16.2592 18.6297C16.2592 17.3205 17.3205 16.2593 18.6296 16.2593V14.2593C16.2159 14.2593 14.2592 16.216 14.2592 18.6297H16.2592ZM18.6296 16.2593C19.9387 16.2593 21 17.3205 21 18.6297H23C23 16.216 21.0433 14.2593 18.6296 14.2593V16.2593ZM15.6756 17.0898L20.1694 21.5837L21.5836 20.1695L17.0898 15.6756L15.6756 17.0898Z" fill="currentColor"/>
</svg>
