<svg width="24" height="24" viewBox="0 0 24 24" fill="none" xmlns="http://www.w3.org/2000/svg">
<path d="M20 11.5C20 12.0523 20.4477 12.5 21 12.5C21.5523 12.5 22 12.0523 22 11.5H20ZM3.32698 16.362L4.21799 15.908L4.21799 15.908L3.32698 16.362ZM4.63803 17.673L5.09202 16.782H5.09202L4.63803 17.673ZM19.362 3.32698L19.816 2.43597V2.43597L19.362 3.32698ZM20.673 4.63803L21.564 4.18404V4.18404L20.673 4.63803ZM4.63803 3.32698L4.18404 2.43597L4.63803 3.32698ZM3.32698 4.63803L2.43597 4.18404L3.32698 4.63803ZM5.40492 17.909L5.24437 18.896L5.24437 18.896L5.40492 17.909ZM9.30447 21.0497L8.87313 20.1475L8.87312 20.1475L9.30447 21.0497ZM11.9313 20.9022C12.4296 20.664 12.6404 20.0669 12.4022 19.5687C12.164 19.0704 11.5669 18.8596 11.0687 19.0978L11.9313 20.9022ZM7.07052 20.653L8.01175 20.3152L7.07052 20.653ZM8.32152 21.4415L8.22026 20.4466H8.22025L8.32152 21.4415ZM6.96538 18.9029L7.93652 18.6644V18.6644L6.96538 18.9029ZM6.26956 18.0847L5.87826 19.005L5.87826 19.005L6.26956 18.0847ZM15.1242 21.8954L14.6702 22.7864L15.1242 21.8954ZM14.7046 21.4758L13.8136 21.9298L14.7046 21.4758ZM20.8954 21.4758L21.7864 21.9298L20.8954 21.4758ZM20.4758 21.8954L20.9298 22.7864L20.4758 21.8954ZM20.4758 17.3046L20.9298 16.4136L20.4758 17.3046ZM20.8954 17.7242L21.7864 17.2702L20.8954 17.7242ZM15.1242 17.3046L14.6702 16.4136L15.1242 17.3046ZM14.7046 17.7242L13.8136 17.2702L14.7046 17.7242ZM18.4 17.2C18.4 17.7523 18.8477 18.2 19.4 18.2C19.9523 18.2 20.4 17.7523 20.4 17.2H18.4ZM15.2 17.2C15.2 17.7523 15.6477 18.2 16.2 18.2C16.7523 18.2 17.2 17.7523 17.2 17.2H15.2ZM7.8 4H16.2V2H7.8V4ZM20 7.8V11.5H22V7.8H20ZM4 13.2V7.8H2V13.2H4ZM2 13.2C2 14.0236 1.99922 14.7014 2.04419 15.2518C2.09012 15.8139 2.18868 16.3306 2.43597 16.816L4.21799 15.908C4.1383 15.7516 4.07337 15.5274 4.03755 15.089C4.00078 14.6389 4 14.0566 4 13.2H2ZM5.09202 16.782C4.71569 16.5903 4.40973 16.2843 4.21799 15.908L2.43597 16.816C2.81947 17.5686 3.43139 18.1805 4.18404 18.564L5.09202 16.782ZM16.2 4C17.0566 4 17.6389 4.00078 18.089 4.03755C18.5274 4.07337 18.7516 4.1383 18.908 4.21799L19.816 2.43597C19.3306 2.18868 18.8139 2.09012 18.2518 2.04419C17.7014 1.99922 17.0236 2 16.2 2V4ZM22 7.8C22 6.97642 22.0008 6.2986 21.9558 5.74817C21.9099 5.18608 21.8113 4.66937 21.564 4.18404L19.782 5.09202C19.8617 5.24842 19.9266 5.47262 19.9624 5.91104C19.9992 6.36113 20 6.94342 20 7.8H22ZM18.908 4.21799C19.2843 4.40973 19.5903 4.7157 19.782 5.09202L21.564 4.18404C21.1805 3.43139 20.5686 2.81947 19.816 2.43597L18.908 4.21799ZM7.8 2C6.97642 2 6.2986 1.99922 5.74817 2.04419C5.18608 2.09012 4.66937 2.18868 4.18404 2.43597L5.09202 4.21799C5.24842 4.1383 5.47262 4.07337 5.91104 4.03755C6.36113 4.00078 6.94342 4 7.8 4V2ZM4 7.8C4 6.94342 4.00078 6.36113 4.03755 5.91104C4.07337 5.47262 4.1383 5.24842 4.21799 5.09202L2.43597 4.18404C2.18868 4.66937 2.09012 5.18608 2.04419 5.74817C1.99922 6.2986 2 6.97642 2 7.8H4ZM4.18404 2.43597C3.43139 2.81947 2.81947 3.43139 2.43597 4.18404L4.21799 5.09202C4.40973 4.71569 4.71569 4.40973 5.09202 4.21799L4.18404 2.43597ZM5.56548 16.922C5.34288 16.8858 5.20073 16.8374 5.09202 16.782L4.18404 18.564C4.52088 18.7357 4.8721 18.8355 5.24437 18.896L5.56548 16.922ZM9.73581 21.9519L11.9313 20.9022L11.0687 19.0978L8.87313 20.1475L9.73581 21.9519ZM6 19.5972C6 19.8727 5.99967 20.1184 6.01019 20.3187C6.0206 20.5167 6.04424 20.7537 6.12929 20.9907L8.01175 20.3152C8.02628 20.3557 8.01466 20.3512 8.00744 20.2137C8.00033 20.0784 8 19.8945 8 19.5972H6ZM8.87312 20.1475C8.60486 20.2758 8.43885 20.3548 8.31368 20.4067C8.18653 20.4595 8.17747 20.451 8.22026 20.4466L8.42278 22.4363C8.67329 22.4108 8.8973 22.33 9.0805 22.2539C9.26566 22.177 9.48727 22.0707 9.73582 21.9519L8.87312 20.1475ZM6.12929 20.9907C6.47079 21.9424 7.41693 22.5387 8.42279 22.4363L8.22025 20.4466C8.12881 20.4559 8.0428 20.4017 8.01175 20.3152L6.12929 20.9907ZM8 19.5972C8 19.293 8.00755 18.9536 7.93652 18.6644L5.99423 19.1414C5.98803 19.1161 5.99315 19.1202 5.99645 19.2039C5.99982 19.2895 6 19.4047 6 19.5972H8ZM5.24437 18.896C5.4946 18.9367 5.6593 18.9637 5.77916 18.9869C5.91145 19.0126 5.91594 19.021 5.87826 19.005L6.66087 17.1645C6.48959 17.0916 6.30543 17.0518 6.16064 17.0237C6.00341 16.9931 5.80259 16.9606 5.56547 16.922L5.24437 18.896ZM7.93652 18.6644C7.85858 18.347 7.7231 18.0321 7.4869 17.7544C7.2507 17.4766 6.96163 17.2924 6.66087 17.1645L5.87826 19.005C5.96507 19.0419 5.97368 19.0622 5.96339 19.0501C5.95309 19.038 5.97173 19.0497 5.99423 19.1414L7.93652 18.6644ZM16.136 18.2H19.464V16.2H16.136V18.2ZM20 18.736V20.464H22V18.736H20ZM19.464 21H16.136V23H19.464V21ZM15.6 20.464V18.736H13.6V20.464H15.6ZM16.136 21C15.8507 21 15.6968 20.9992 15.5869 20.9902C15.4887 20.9822 15.5164 20.9729 15.5782 21.0044L14.6702 22.7864C14.9373 22.9225 15.2021 22.9655 15.424 22.9836C15.6343 23.0008 15.8837 23 16.136 23V21ZM13.6 20.464C13.6 20.7163 13.5992 20.9657 13.6164 21.176C13.6345 21.3979 13.6775 21.6627 13.8136 21.9298L15.5956 21.0218C15.6271 21.0836 15.6178 21.1113 15.6098 21.0131C15.6008 20.9032 15.6 20.7493 15.6 20.464H13.6ZM15.5782 21.0044C15.5857 21.0082 15.5918 21.0143 15.5956 21.0218L13.8136 21.9298C14.0015 22.2986 14.3014 22.5985 14.6702 22.7864L15.5782 21.0044ZM20 20.464C20 20.7493 19.9992 20.9032 19.9902 21.0131C19.9822 21.1113 19.9729 21.0836 20.0044 21.0218L21.7864 21.9298C21.9225 21.6627 21.9655 21.3979 21.9836 21.176C22.0008 20.9657 22 20.7163 22 20.464H20ZM19.464 23C19.7163 23 19.9657 23.0008 20.176 22.9836C20.3979 22.9655 20.6627 22.9225 20.9298 22.7864L20.0218 21.0044C20.0836 20.9729 20.1113 20.9822 20.0131 20.9902C19.9032 20.9992 19.7493 21 19.464 21V23ZM20.0044 21.0218C20.0082 21.0143 20.0143 21.0082 20.0218 21.0044L20.9298 22.7864C21.2986 22.5985 21.5985 22.2986 21.7864 21.9298L20.0044 21.0218ZM19.464 18.2C19.7493 18.2 19.9032 18.2008 20.0131 18.2098C20.1113 18.2178 20.0836 18.2271 20.0218 18.1956L20.9298 16.4136C20.6627 16.2775 20.3979 16.2345 20.176 16.2164C19.9657 16.1992 19.7163 16.2 19.464 16.2V18.2ZM22 18.736C22 18.4837 22.0008 18.2343 21.9836 18.024C21.9655 17.8021 21.9225 17.5373 21.7864 17.2702L20.0044 18.1782C19.9729 18.1164 19.9822 18.0887 19.9902 18.1869C19.9992 18.2968 20 18.4507 20 18.736H22ZM20.0218 18.1956C20.0143 18.1918 20.0082 18.1857 20.0044 18.1782L21.7864 17.2702C21.5985 16.9014 21.2986 16.6015 20.9298 16.4136L20.0218 18.1956ZM16.136 16.2C15.8837 16.2 15.6343 16.1992 15.424 16.2164C15.2021 16.2345 14.9373 16.2775 14.6702 16.4136L15.5782 18.1956C15.5164 18.2271 15.4887 18.2178 15.5869 18.2098C15.6968 18.2008 15.8507 18.2 16.136 18.2V16.2ZM15.6 18.736C15.6 18.4507 15.6008 18.2968 15.6098 18.1869C15.6178 18.0887 15.6271 18.1164 15.5956 18.1782L13.8136 17.2702C13.6775 17.5373 13.6345 17.8021 13.6164 18.024C13.5992 18.2343 13.6 18.4837 13.6 18.736H15.6ZM14.6702 16.4136C14.3014 16.6015 14.0015 16.9014 13.8136 17.2702L15.5956 18.1782C15.5918 18.1857 15.5857 18.1918 15.5782 18.1956L14.6702 16.4136ZM18.4 15.6V17.2H20.4V15.6H18.4ZM17.2 17.2V15.6H15.2V17.2H17.2ZM17.8 15C18.1314 15 18.4 15.2686 18.4 15.6H20.4C20.4 14.1641 19.2359 13 17.8 13V15ZM17.8 13C16.3641 13 15.2 14.1641 15.2 15.6H17.2C17.2 15.2686 17.4686 15 17.8 15V13Z" fill="currentColor"/>
</svg>
