<svg width="24" height="24" viewBox="0 0 24 24" fill="none" xmlns="http://www.w3.org/2000/svg">
<path d="M9.89364 9.98157L7.82041 12.0548C7.57453 12.3007 7.57453 12.6993 7.82041 12.9452L9.89364 15.0184M14.1064 9.98157L16.1796 12.0548C16.4255 12.3007 16.4255 12.6993 16.1796 12.9452L14.1064 15.0184M21 12C21 16.9706 16.9706 21 12 21C11.2362 21 10.4946 20.9048 9.78639 20.7257C9.2398 20.5875 8.66929 20.5382 8.11857 20.6589L4.56789 21.4371C3.43334 21.6858 2.45879 20.6062 2.82193 19.5029L3.57095 17.2274C3.81962 16.4719 3.73499 15.6561 3.47856 14.9032C3.16832 13.9924 3.00002 13.0158 3.00002 12C3.00002 7.02944 7.02945 3 12 3C16.9706 3 21 7.02944 21 12Z" stroke="currentColor" stroke-width="2" stroke-linecap="round"/>
</svg>
