<svg width="24" height="24" viewBox="0 0 24 24" fill="none" xmlns="http://www.w3.org/2000/svg">
<path d="M21 12C21 7.02944 16.9706 3 12 3C7.02945 3 3.00002 7.02944 3.00002 12C3.00002 13.0158 3.16832 13.9924 3.47856 14.9032C3.73499 15.6561 3.81962 16.4719 3.57095 17.2274L2.82193 19.5029C2.45879 20.6062 3.43334 21.6858 4.56789 21.4371L8.11857 20.6589C8.66929 20.5382 9.2398 20.5875 9.78639 20.7257C10.4946 20.9048 11.2362 21 12 21M14.6107 17.9504L16.3639 19.795C16.5719 20.0138 16.909 20.0138 17.1169 19.795L21 15.7098" stroke="currentColor" stroke-width="2" stroke-linecap="round"/>
</svg>
