<svg width="24" height="24" viewBox="0 0 24 24" fill="none" xmlns="http://www.w3.org/2000/svg">
<path d="M17.2 3H7.8C6.11984 3 5.27976 3 4.63803 3.32698C4.07354 3.6146 3.6146 4.07354 3.32698 4.63803C3 5.27976 3 6.11984 3 7.8V13.2C3 14.8802 3 15.7202 3.32698 16.362C3.6146 16.9265 4.07354 17.3854 4.63803 17.673C5.27976 18 6.11984 18 7.8 18C7.92806 18 8.05087 18.0509 8.14142 18.1414L10.5858 20.5858C11.3668 21.3668 12.6332 21.3668 13.4142 20.5858L15.4142 18.5858C15.7893 18.2107 16.298 18 16.8284 18H17.2C18.8802 18 18.8583 18 19.5 17.673C20.0645 17.3854 20.5234 16.9265 20.811 16.362C21.138 15.7202 21.138 14.8802 21.138 13.2V7.8C21.138 6.11984 21.138 5.27976 20.811 4.63803C20.5234 4.07354 20.0645 3.6146 19.5 3.32698C18.8583 3 18.8802 3 17.2 3Z" stroke="currentColor" stroke-width="2" stroke-linecap="round" stroke-linejoin="round"/>
<path fill-rule="evenodd" clip-rule="evenodd" d="M11.9973 8.89867C11.1975 7.98968 9.8639 7.74516 8.86188 8.57753C7.85986 9.40989 7.71879 10.8016 8.50568 11.786C9.29257 12.7705 11.9973 15.0681 11.9973 15.0681C11.9973 15.0681 14.7019 12.7705 15.4888 11.786C16.2757 10.8016 16.1519 9.40114 15.1326 8.57753C14.1134 7.75391 12.797 7.98968 11.9973 8.89867Z" stroke="currentColor" stroke-width="2" stroke-linecap="round" stroke-linejoin="round"/>
</svg>
