<svg width="24" height="24" viewBox="0 0 24 24" fill="none" xmlns="http://www.w3.org/2000/svg">
<path d="M12 10.1681C13.7717 7.37499 15.3258 5.98047 16.6631 5.98047C18.6696 5.98047 19.9368 8.20067 20.6762 11.2145C21.3824 14.0928 21.1778 18.0195 18.6696 18.0195C17.552 18.0195 16.013 16.4494 14.5081 14.3556C13.5506 13.0363 12.7113 11.635 12 10.1681ZM12 10.1681C10.2283 7.37499 8.67383 5.98047 7.3365 5.98047C5.32999 5.98047 4.06287 8.20067 3.32347 11.2145C2.61718 14.0928 2.82185 18.0195 5.32998 18.0195C6.44761 18.0195 7.9866 16.4494 9.49149 14.3556C10.4947 12.9601 11.3308 11.5636 12 10.1681Z" stroke="currentColor" stroke-width="2" stroke-linecap="round" stroke-linejoin="round"/>
</svg>
