<svg width="24" height="24" viewBox="0 0 24 24" fill="none" xmlns="http://www.w3.org/2000/svg">
<path d="M11.6371 17.6109L12.059 19.0661C12.1122 19.2496 12.1388 19.3413 12.2205 19.5259C12.2627 19.6213 12.4222 19.9092 12.4807 19.9955C12.594 20.1626 12.5981 20.1672 12.6063 20.1763C14.5538 22.3521 18.4438 20.5583 17.7263 17.4466L17.311 15.6453L19.1593 15.6134C22.5718 15.5543 23.2523 10.7514 19.9905 9.74671L18.2121 9.19899L19.1235 7.5499C20.7736 4.56429 16.9543 1.579 14.4556 3.90125L13.0754 5.18394L12.1144 3.59052C10.3518 0.667898 5.85531 2.48817 6.62216 5.81391L7.03751 7.61523L5.1892 7.6472C1.99638 7.70243 1.19516 11.9105 3.77679 13.2749C3.7877 13.2806 3.79316 13.2835 3.98267 13.3531C4.08052 13.389 4.39844 13.4743 4.50113 13.4923C4.70001 13.5269 4.79547 13.5306 4.98641 13.5379L6.5004 13.5958M11.2931 12.2755C9.20174 15.942 5.83703 19.1945 1.95117 22" stroke="currentColor" stroke-width="2" stroke-linecap="round" stroke-linejoin="round"/>
</svg>
