<svg width="24" height="24" viewBox="0 0 24 24" fill="none" xmlns="http://www.w3.org/2000/svg">
<path d="M15.3333 5.33337H5.2C4.07989 5.33337 3.51984 5.33337 3.09202 5.55136C2.71569 5.74311 2.40973 6.04907 2.21799 6.42539C2 6.85322 2 7.41327 2 8.53337V15.4667C2 16.5868 2 17.1469 2.21799 17.5747C2.40973 17.951 2.71569 18.257 3.09202 18.4487C3.51984 18.6667 4.07989 18.6667 5.2 18.6667H15.3333M15.3333 5.33337H18.8C19.9201 5.33337 20.4802 5.33337 20.908 5.55136C21.2843 5.74311 21.5903 6.04907 21.782 6.42539C22 6.85322 22 7.41327 22 8.53337V15.4667C22 16.5868 22 17.1469 21.782 17.5747C21.5903 17.951 21.2843 18.257 20.908 18.4487C20.4802 18.6667 19.9201 18.6667 18.8 18.6667H15.3333M15.3333 5.33337V18.6667M18.666 8.66667V9.77778M18.666 13.1111H18.6771M5.94141 10.1671C5.94141 10.1671 7.48249 10.8333 8.71918 10.1671C9.95588 9.50094 11.497 10.1671 11.497 10.1671M5.94141 13.833C5.94141 13.833 7.48249 14.4992 8.71918 13.833C9.95588 13.1668 11.497 13.833 11.497 13.833" stroke="currentColor" stroke-width="2" stroke-linecap="round" stroke-linejoin="round"/>
</svg>
