<svg width="24" height="24" viewBox="0 0 24 24" fill="none" xmlns="http://www.w3.org/2000/svg">
<path d="M15.1738 4.54279L19.4165 8.78543M14.5 22.0902C18.6421 22.0902 22 18.7323 22 14.5902C22 12.369 21.0344 10.3732 19.5 8.99995M14.5 22.0902H2M14.5 22.0902H22M5 21.9999V19.9999M7.97852 11.7849L16.4638 3.29958C17.6354 2.12801 19.5349 2.12801 20.7064 3.29958C21.878 4.47115 21.878 6.37065 20.7064 7.54222L12.2212 16.0275L7.97852 11.7849ZM11.724 16.8533C11.4458 17.3171 11.3066 17.549 11.1611 17.7044C10.5002 18.4103 9.42879 18.5422 8.61635 18.0176C8.4375 17.9022 8.24628 17.711 7.86385 17.3285L6.67582 16.1405C6.29338 15.7581 6.10217 15.5668 5.98669 15.388C5.46214 14.5755 5.59403 13.5042 6.29997 12.8432C6.45537 12.6977 6.68726 12.5586 7.15103 12.2803C7.29965 12.1911 7.37396 12.1465 7.44585 12.1174C7.76661 11.9872 8.13189 12.0321 8.41151 12.2362C8.47417 12.282 8.53545 12.3433 8.658 12.4658L11.5385 15.3463C11.6611 15.4689 11.7223 15.5302 11.7681 15.5928C11.9722 15.8724 12.0172 16.2377 11.887 16.5585C11.8578 16.6304 11.8132 16.7047 11.724 16.8533Z" stroke="currentColor" stroke-width="2" stroke-linecap="round" stroke-linejoin="round"/>
</svg>
