<svg width="24" height="24" viewBox="0 0 24 24" fill="none" xmlns="http://www.w3.org/2000/svg">
<path d="M7.01074 5.9073H16.9893L17.9314 8.33513C18.2008 9.02939 18.3355 9.37653 18.4303 9.73394C18.5144 10.0515 18.575 10.3748 18.6114 10.7012C18.6523 11.0687 18.6523 11.4411 18.6523 12.1858V18.4306C18.6523 19.6725 18.6523 20.2934 18.4107 20.7678C18.1981 21.185 17.8588 21.5242 17.4416 21.7368C16.9673 21.9785 16.3463 21.9785 15.1044 21.9785H8.89557C7.65369 21.9785 7.03274 21.9785 6.5584 21.7368C6.14116 21.5242 5.80194 21.185 5.58934 20.7678C5.34766 20.2934 5.34766 19.6725 5.34766 18.4306V12.1858C5.34766 11.4411 5.34766 11.0687 5.38863 10.7012C5.42504 10.3748 5.48557 10.0515 5.56974 9.73394C5.66448 9.37653 5.79919 9.02939 6.0686 8.33513L7.01074 5.9073Z" stroke="currentColor" stroke-width="2" stroke-linecap="round" stroke-linejoin="round"/>
<path d="M7.05189 4.68242C7.05189 3.75101 7.05189 3.2853 7.23315 2.92955C7.3926 2.61662 7.64702 2.3622 7.95995 2.20275C8.3157 2.02148 8.78141 2.02148 9.71282 2.02148H14.2872C15.2186 2.02148 15.6843 2.02148 16.0401 2.20275C16.353 2.3622 16.6074 2.61662 16.7668 2.92955C16.9481 3.2853 16.9481 3.75101 16.9481 4.68242V5.9073H7.05189V4.68242Z" stroke="currentColor" stroke-width="2" stroke-linecap="round" stroke-linejoin="round"/>
<path d="M14.4115 13.9429C14.4115 15.2756 13.3312 16.3559 11.9985 16.3559C10.6658 16.3559 9.58549 15.2756 9.58549 13.9429C9.58549 12.6102 10.6658 11.5299 11.9985 11.5299C13.3312 11.5299 14.4115 12.6102 14.4115 13.9429Z" stroke="currentColor" stroke-width="2" stroke-linecap="round" stroke-linejoin="round"/>
</svg>
