<svg width="24" height="24" viewBox="0 0 24 24" fill="none" xmlns="http://www.w3.org/2000/svg">
<path d="M17.5006 13.4452L16.3487 20.0145C16.225 20.7204 16.1631 21.0733 15.9848 21.338C15.8277 21.5712 15.6081 21.7557 15.3512 21.8701C15.0598 22 14.7014 22 13.9848 22H10.0164C9.29973 22 8.9414 22 8.64996 21.8701C8.39304 21.7557 8.17348 21.5712 8.01634 21.338C7.8381 21.0733 7.77622 20.7204 7.65245 20.0145L6.50059 13.4452M18.3845 10.0264C18.3845 6.65947 15.6551 3.93005 12.2882 3.93005H11.7141C8.34719 3.93005 5.61778 6.65947 5.61778 10.0264M12.0006 3V2M6.78162 13.4452H17.2196C17.3691 13.4452 17.4439 13.4452 17.511 13.4391C18.0766 13.3882 18.5649 13.0223 18.7726 12.4937C18.7972 12.431 18.8182 12.3592 18.8602 12.2157C18.9307 11.9746 18.966 11.8541 18.981 11.758C19.1112 10.9247 18.5291 10.1479 17.6927 10.0389C17.5963 10.0264 17.4707 10.0264 17.2196 10.0264H6.78162C6.53049 10.0264 6.40492 10.0264 6.30846 10.0389C5.4721 10.1479 4.88993 10.9247 5.02018 11.758C5.0352 11.8541 5.07045 11.9746 5.14096 12.2157C5.18294 12.3592 5.20393 12.431 5.22857 12.4937C5.43623 13.0223 5.92458 13.3882 6.49019 13.4391C6.55731 13.4452 6.63208 13.4452 6.78162 13.4452Z" stroke="currentColor" stroke-width="2" stroke-linecap="round" stroke-linejoin="round"/>
</svg>
