<svg width="24" height="24" viewBox="0 0 24 24" fill="none" xmlns="http://www.w3.org/2000/svg">
<path d="M12 11.5V16M17 5C17 5 18.5 6.5 18.5 9C18.5 11.5 17 13 17 13M7 5C7 5 5.5 6.5 5.5 9C5.5 11.5 7 13 7 13M20 2C20 2 22 4.625 22 9C22 13.375 20 16 20 16M4 2C4 2 2 4.625 2 9C2 13.375 4 16 4 16M16.5 19H19M3.92 22H20.08C20.7521 22 21.0881 22 21.3448 21.8692C21.5706 21.7542 21.7542 21.5706 21.8692 21.3448C22 21.0881 22 20.7521 22 20.08V17.92C22 17.2479 22 16.9119 21.8692 16.6552C21.7542 16.4294 21.5706 16.2458 21.3448 16.1308C21.0881 16 20.7521 16 20.08 16H3.92C3.24794 16 2.91191 16 2.65521 16.1308C2.42942 16.2458 2.24584 16.4294 2.13079 16.6552C2 16.9119 2 17.2479 2 17.92V20.08C2 20.7521 2 21.0881 2.13079 21.3448C2.24584 21.5706 2.42942 21.7542 2.65521 21.8692C2.91191 22 3.24794 22 3.92 22ZM14 9C14 7.89543 13.1046 7 12 7C10.8954 7 10 7.89543 10 9C10 10.1046 10.8954 11 12 11C13.1046 11 14 10.1046 14 9Z" stroke="currentColor" stroke-width="2" stroke-linecap="round" stroke-linejoin="round"/>
</svg>
