<svg width="24" height="24" viewBox="0 0 24 24" fill="none" xmlns="http://www.w3.org/2000/svg">
<path d="M12 10V14.5M18 12V14M6 12V14M8 7C8 7 9.5 5.5 12 5.5C14.5 5.5 16 7 16 7M5 4C5 4 7.625 2 12 2C16.375 2 19 4 19 4M6 21V20M10 21V20M19 18H19.0076M3.92 22H20.08C20.7521 22 21.0881 22 21.3448 21.8692C21.5706 21.7542 21.7542 21.5706 21.8692 21.3448C22 21.0881 22 20.7521 22 20.08V16.92C22 16.2479 22 15.9119 21.8692 15.6552C21.7542 15.4294 21.5706 15.2458 21.3448 15.1308C21.0881 15 20.7521 15 20.08 15H3.92C3.24794 15 2.91191 15 2.65521 15.1308C2.42942 15.2458 2.24584 15.4294 2.13079 15.6552C2 15.9119 2 16.2479 2 16.92V20.08C2 20.7521 2 21.0881 2.13079 21.3448C2.24584 21.5706 2.42942 21.7542 2.65521 21.8692C2.91191 22 3.24794 22 3.92 22Z" stroke="currentColor" stroke-width="2" stroke-linecap="round" stroke-linejoin="round"/>
</svg>
