<svg width="24" height="24" viewBox="0 0 24 24" fill="none" xmlns="http://www.w3.org/2000/svg">
<path d="M2 7.8C2 6.11984 2 5.27976 2.32698 4.63803C2.6146 4.07354 3.07354 3.6146 3.63803 3.32698C4.27976 3 5.11984 3 6.8 3H17.2C18.8802 3 19.7202 3 20.362 3.32698C20.9265 3.6146 21.3854 4.07354 21.673 4.63803C22 5.27976 22 6.11984 22 7.8V12.2C22 13.8802 22 14.7202 21.673 15.362C21.3854 15.9265 20.9265 16.3854 20.362 16.673C19.7202 17 18.8802 17 17.2 17H6.8C5.11984 17 4.27976 17 3.63803 16.673C3.07354 16.3854 2.6146 15.9265 2.32698 15.362C2 14.7202 2 13.8802 2 12.2V7.8Z" stroke="currentColor" stroke-width="2" stroke-linecap="round" stroke-linejoin="round"/>
<path d="M9.70652 17.3166C9.79552 17.2525 9.84002 17.2205 9.88574 17.1928C10.063 17.0852 10.2599 17.0208 10.4627 17.0043C10.515 17 10.5685 17 10.6754 17H13.3246C13.4315 17 13.485 17 13.5373 17.0043C13.7401 17.0208 13.937 17.0852 14.1143 17.1928C14.16 17.2205 14.2045 17.2525 14.2935 17.3166C15.1265 17.9158 15.543 18.2154 15.6923 18.4251C16.3111 19.2942 15.9553 20.5622 14.9937 20.9149C14.7616 21 14.2611 21 13.26 21H10.74C9.73892 21 9.23836 21 9.00632 20.9149C8.04466 20.5622 7.68887 19.2942 8.30772 18.4251C8.45705 18.2154 8.87354 17.9158 9.70652 17.3166Z" stroke="currentColor" stroke-width="2" stroke-linecap="round" stroke-linejoin="round"/>
</svg>
