<svg width="24" height="24" viewBox="0 0 24 24" fill="none" xmlns="http://www.w3.org/2000/svg">
<path d="M15 12.1429V19C15 19.9319 15 20.3978 14.8478 20.7654C14.6448 21.2554 14.2554 21.6448 13.7654 21.8478C13.3978 22 12.9319 22 12 22C11.0681 22 10.6022 22 10.2346 21.8478C9.74458 21.6448 9.35523 21.2554 9.15224 20.7654C9 20.3978 9 19.9319 9 19V12.1429M12 2C16.9706 2 21 6.02944 21 11V11.7726C21 11.8102 20.9634 11.8368 20.9276 11.8252C19.6243 11.4015 17.8084 11.4015 16.5051 11.8252C15.2017 12.2489 13.3858 12.2489 12.0825 11.8252L12.0086 11.8012C10.7488 11.3916 8.99351 11.3916 7.7337 11.8012C6.40631 12.2327 4.54084 12.2071 3.28276 11.74C3.11315 11.677 3.00054 11.5153 3.00035 11.3344L3 11C3 6.02944 7.02944 2 12 2Z" stroke="currentColor" stroke-width="2" stroke-linecap="round" stroke-linejoin="round"/>
</svg>
