<svg width="24" height="24" viewBox="0 0 24 24" fill="none" xmlns="http://www.w3.org/2000/svg">
<path d="M9 18C9 19.6568 7.65685 21 6 21C4.34315 21 3 19.6568 3 18C3 16.3431 4.34315 15 6 15C7.65685 15 9 16.3431 9 18ZM9 18V8.83154C9 7.50351 9 6.83949 9.23093 6.28548C9.4347 5.79662 9.76426 5.37041 10.1861 5.05018C10.6642 4.68728 11.3068 4.52018 12.5921 4.186L14.9921 3.56198C17.0377 3.03013 18.0605 2.7642 18.867 3.00767C19.5738 3.22103 20.1771 3.68752 20.5614 4.31787C21 5.03718 21 6.09396 21 8.20752V15.4999M9.0558 9.51594L20.761 6.39825M21 16C21 17.6568 19.6569 19 18 19C16.3431 19 15 17.6568 15 16C15 14.3431 16.3431 13 18 13C19.6569 13 21 14.3431 21 16Z" stroke="currentColor" stroke-width="2" stroke-linecap="round" stroke-linejoin="round"/>
</svg>
