<svg width="24" height="24" viewBox="0 0 24 24" fill="none" xmlns="http://www.w3.org/2000/svg">
<path d="M11.5 7.99999V5.58692C11.5 4.66441 11.5 4.20315 11.6641 3.82343C11.8088 3.48853 12.0424 3.19959 12.3396 2.9879C12.6765 2.74789 13.1275 2.65124 14.0295 2.45795L15.5971 2.12203C16.5906 1.90914 17.0873 1.8027 17.4768 1.93326C17.8183 2.04775 18.1072 2.28132 18.2907 2.59126C18.5 2.94471 18.5 3.45273 18.5 4.46876V4.55979C18.5 5.25167 18.5 5.59761 18.3769 5.8824C18.2684 6.13358 18.0932 6.35028 17.8703 6.50905C17.6177 6.68906 17.2794 6.76154 16.6029 6.90651L11.5 7.99999ZM11.5 7.99999V18.5M11.5 18C11.5 19.6568 10.1569 21 8.5 21C6.84315 21 5.5 19.6568 5.5 18C5.5 16.3431 6.84315 15 8.5 15C10.1569 15 11.5 16.3431 11.5 18Z" stroke="currentColor" stroke-width="2" stroke-linecap="round" stroke-linejoin="round"/>
</svg>
