<svg width="24" height="24" viewBox="0 0 24 24" fill="none" xmlns="http://www.w3.org/2000/svg">
<path d="M4.68502 8.8991C3.6648 6.56719 3.1547 5.40123 3.38122 4.68489C3.57761 4.06386 4.06411 3.57736 4.68513 3.38098C5.40147 3.15445 6.56743 3.66456 8.89934 4.68477L16.5492 8.03156C17.8765 8.6123 18.5402 8.90266 18.7864 9.34034C19.0008 9.72167 19.0381 10.1776 18.8885 10.5887C18.7167 11.0606 18.109 11.4549 16.8936 12.2436L16.2178 12.6822L18.1972 14.3347C18.7715 14.8142 19.0587 15.054 19.2255 15.3159C19.6083 15.9169 19.6424 16.6762 19.315 17.3091C19.1724 17.5849 18.9078 17.8494 18.3788 18.3785C17.8495 18.9077 17.5849 19.1723 17.3091 19.315C16.6762 19.6423 15.9171 19.6082 15.3161 19.2255C15.0541 19.0587 14.8143 18.7714 14.3347 18.1969L12.6823 16.2177L12.2438 16.8933C11.4552 18.1087 11.0608 18.7164 10.589 18.8882C10.1779 19.0379 9.72191 19.0006 9.34057 18.7861C8.9029 18.54 8.61253 17.8763 8.03179 16.5489L4.68502 8.8991Z" stroke="currentColor" stroke-width="2" stroke-linecap="round" stroke-linejoin="round"/>
</svg>
