<svg width="24" height="24" viewBox="0 0 24 24" fill="none" xmlns="http://www.w3.org/2000/svg">
<path d="M10.0434 13.6816C9.938 13.6003 9.81632 13.5394 9.57296 13.4178L5.84287 11.5527C4.36961 10.8161 3.63299 10.4478 3.43487 9.98318C3.26293 9.57999 3.29353 9.11898 3.51724 8.74205C3.77503 8.30772 4.55388 8.03999 6.11155 7.50454L17.6359 3.54304C19.0026 3.07323 19.686 2.83832 20.1373 2.99738M11.8559 16.9999L12.4219 18.1317C13.1585 19.6049 13.5268 20.3416 13.9914 20.5397C14.3946 20.7116 14.8556 20.681 15.2325 20.4573C15.6668 20.1995 15.9346 19.4207 16.47 17.863L19.5167 9M2.5 21.5L21.5 2.5" stroke="currentColor" stroke-width="2" stroke-linecap="round" stroke-linejoin="round"/>
</svg>
