<svg width="24" height="24" viewBox="0 0 24 24" fill="none" xmlns="http://www.w3.org/2000/svg">
<path d="M12.9399 12.9437L18.9997 19M12.9399 12.9437C12.9628 12.9207 12.9881 12.8999 13.0153 12.8816C13.0762 12.8407 13.15 12.8179 13.2977 12.7723L15.6255 12.0534C17.5318 11.4646 18.4849 11.1702 18.7803 10.6801C19.0361 10.2555 19.0657 9.73195 18.8593 9.28125C18.621 8.761 17.7071 8.36116 15.8792 7.56147L8.57903 4.36763C6.24712 3.34742 5.08116 2.83732 4.36482 3.06384C3.74379 3.26023 3.2573 3.74672 3.06091 4.36775C2.83439 5.08409 3.34449 6.25005 4.3647 8.58196L7.55854 15.8822C8.35823 17.71 8.75807 18.6239 9.27832 18.8622C9.72902 19.0687 10.2526 19.0391 10.6772 18.7832C11.1673 18.4879 11.4617 17.5347 12.0504 15.6284L12.7694 13.3006C12.815 13.153 12.8378 13.0791 12.8787 13.0182C12.8967 12.9914 12.9172 12.9665 12.9399 12.9437Z" stroke="currentColor" stroke-width="2" stroke-linecap="round" stroke-linejoin="round"/>
</svg>
