<svg width="24" height="24" viewBox="0 0 24 24" fill="none" xmlns="http://www.w3.org/2000/svg">
<path d="M9 2V4M2 9H4M4.05078 4.05029L5.46499 5.46451M4.05078 13.9497L5.46499 12.5355M12.5352 5.46448L13.9494 4.05026M16.805 16.2748L17.6331 16.0191C19.5394 15.4303 20.4925 15.1359 20.7879 14.6458C21.0437 14.2212 21.0733 13.6976 20.8669 13.2469C20.6286 12.7267 19.7147 12.3269 17.8868 11.5272L14.0763 9.86008C11.7444 8.83987 10.5785 8.32977 9.86212 8.55629C9.24109 8.75268 8.7546 9.23917 8.55821 9.8602C8.33169 10.5765 8.84179 11.7425 9.862 14.0744L11.5291 17.8849C12.3288 19.7127 12.7286 20.6267 13.2489 20.865C13.6996 21.0714 14.2231 21.0418 14.6477 20.7859C15.1378 20.4906 15.4322 19.5374 16.021 17.6312L16.2767 16.8031C16.3223 16.6554 16.3451 16.5816 16.386 16.5207C16.4223 16.4667 16.4686 16.4203 16.5226 16.3841C16.5835 16.3432 16.6574 16.3204 16.805 16.2748Z" stroke="currentColor" stroke-width="2" stroke-linecap="round" stroke-linejoin="round"/>
</svg>
