<svg width="24" height="24" viewBox="0 0 24 24" fill="none" xmlns="http://www.w3.org/2000/svg">
<path d="M5.04113 11.7563C3.43391 10.9527 2.63031 10.5509 2.41417 10.0441C2.2266 9.60425 2.25998 9.10132 2.50404 8.69011C2.78526 8.21629 3.63493 7.92422 5.33425 7.34008L17.9065 3.01836C19.3975 2.50583 20.143 2.24956 20.6354 2.42308C21.0638 2.57403 21.4007 2.91093 21.5516 3.33928C21.7251 3.8317 21.4689 4.5772 20.9563 6.0682L16.6346 18.6404C16.0505 20.3398 15.7584 21.1894 15.2846 21.4707C14.8734 21.7147 14.3705 21.7481 13.9306 21.5605C13.4238 21.3444 13.022 20.5408 12.2184 18.9336L10.1837 14.8643C10.051 14.5988 9.9846 14.4661 9.89593 14.351C9.81725 14.249 9.72575 14.1575 9.62367 14.0788C9.50864 13.9901 9.3759 13.9237 9.11041 13.791L5.04113 11.7563Z" stroke="currentColor" stroke-width="2" stroke-linecap="round" stroke-linejoin="round"/>
</svg>
