<svg width="24" height="24" viewBox="0 0 24 24" fill="none" xmlns="http://www.w3.org/2000/svg">
<path d="M9 2V4M2 9H4M4.05078 4.05029L5.46499 5.46451M4.05078 13.9497L5.46499 12.5355M12.5352 5.46448L13.9494 4.05026M14.4724 10.3981L18.5888 12.1991C19.6691 12.6717 20.2093 12.908 20.4542 13.2858C20.6684 13.6161 20.7442 14.0175 20.6651 14.4032C20.5746 14.8442 20.1577 15.2611 19.3239 16.0949L19.1253 16.2935L19.5915 16.7597C19.9203 17.0885 20.0847 17.2529 20.1834 17.424C20.4514 17.8881 20.4514 18.4599 20.1834 18.924C20.0847 19.095 19.9203 19.2594 19.5915 19.5882C19.2627 19.917 19.0983 20.0814 18.9273 20.1801C18.4632 20.4481 17.8914 20.4481 17.4273 20.1801C17.2562 20.0814 17.0919 19.917 16.7631 19.5882L16.2968 19.1219L15.9548 19.464C15.121 20.2978 14.7041 20.7147 14.2631 20.8051C13.8774 20.8842 13.4761 20.8085 13.1457 20.5943C12.768 20.3494 12.5316 19.8092 12.059 18.7289L10.2581 14.6125C9.23786 12.2806 8.72776 11.1146 8.95428 10.3983C9.15067 9.77723 9.63716 9.29073 10.2582 9.09435C10.9745 8.86782 12.1405 9.37793 14.4724 10.3981Z" stroke="currentColor" stroke-width="2" stroke-linecap="round" stroke-linejoin="round"/>
</svg>
