<svg width="24" height="24" viewBox="0 0 24 24" fill="none" xmlns="http://www.w3.org/2000/svg">
<path d="M6.92519 20.6918C5.22048 21.26 4.36813 21.5441 3.85691 21.3386C3.41325 21.1602 3.08123 20.7809 2.96304 20.3176C2.82686 19.7837 3.22113 18.9764 4.00968 17.3617L9.84368 5.4159C10.5356 3.99918 10.8815 3.29082 11.3524 3.06533C11.762 2.86917 12.2385 2.86917 12.6481 3.06533C13.119 3.29082 13.4649 3.99918 14.1568 5.41589L19.9908 17.3617C20.7794 18.9764 21.1737 19.7837 21.0375 20.3176C20.9193 20.7809 20.5873 21.1602 20.1436 21.3386C19.6324 21.5441 18.78 21.26 17.0753 20.6918L12.7592 19.2531C12.4776 19.1592 12.3368 19.1123 12.1928 19.0936C12.065 19.0771 11.9356 19.0771 11.8077 19.0936C11.6637 19.1123 11.5229 19.1592 11.2413 19.2531L6.92519 20.6918Z" stroke="currentColor" stroke-width="2" stroke-linecap="round" stroke-linejoin="round"/>
</svg>
