<svg width="24" height="24" viewBox="0 0 24 24" fill="none" xmlns="http://www.w3.org/2000/svg">
<path d="M7 7H17.5C18.8807 7 20 5.88071 20 4.5C20 3.11929 18.8807 2 17.5 2H6C4.89543 2 4 2.89543 4 4M7.5 7H18V17.5M16.5 22H8.4C7.55992 22 7.13988 22 6.81901 21.8365C6.53677 21.6927 6.3073 21.4632 6.16349 21.181C6 20.8601 6 20.4401 6 19.6V11M18 14H19.6C20.4401 14 20.8601 14 21.181 14.1635C21.4632 14.3073 21.6927 14.5368 21.8365 14.819C22 15.1399 22 15.5599 22 16.4V16.4C22 18.4665 19.5015 19.5015 18.0402 18.0402L2 2M8 22H6.8C5.11984 22 4.27976 22 3.63803 21.673C3.07354 21.3854 2.6146 20.9265 2.32698 20.362C2 19.7202 2 18.8802 2 17.2V16.4C2 15.5599 2 15.1399 2.16349 14.819C2.3073 14.5368 2.53677 14.3073 2.81901 14.1635C3.13988 14 3.55992 14 4.4 14H5.13108C5.40047 14 5.53517 14 5.60988 14.0075C5.74836 14.0214 5.67162 14.0085 5.80702 14.0407C5.88006 14.058 6.1808 14.1622 6.78227 14.3705C7.44516 14.6001 8.59942 14.8688 10.5 14.9642M10 16V17.5M9 2.5V6.5M15 2.5V6.5" stroke="currentColor" stroke-width="2" stroke-linecap="round" stroke-linejoin="round"/>
</svg>
