<svg width="24" height="24" viewBox="0 0 24 24" fill="none" xmlns="http://www.w3.org/2000/svg">
<path d="M7.06274 2.93726C7.40864 2.59136 7.5816 2.4184 7.78343 2.29472C7.96237 2.18506 8.15746 2.10425 8.36154 2.05526C8.59171 2 8.8363 2 9.32548 2H12H14.6745C15.1637 2 15.4083 2 15.6385 2.05526C15.8425 2.10425 16.0376 2.18506 16.2166 2.29472C16.4184 2.4184 16.5914 2.59135 16.9373 2.93726L21.0627 7.06274C21.4086 7.40864 21.5816 7.5816 21.7053 7.78343C21.8149 7.96237 21.8957 8.15746 21.9447 8.36154C22 8.59171 22 8.8363 22 9.32548V11V13.6745C22 14.1637 22 14.4083 21.9447 14.6385C21.8957 14.8425 21.8149 15.0376 21.7053 15.2166C21.5816 15.4184 21.4086 15.5914 21.0627 15.9373L16.9373 20.0627C16.5914 20.4086 16.4184 20.5816 16.2166 20.7053C16.0376 20.8149 15.8425 20.8957 15.6385 20.9447C15.4083 21 15.1637 21 14.6745 21H12H9.32548C8.8363 21 8.59171 21 8.36154 20.9447C8.15746 20.8957 7.96237 20.8149 7.78343 20.7053C7.5816 20.5816 7.40865 20.4086 7.06274 20.0627L2.93726 15.9373C2.59136 15.5914 2.4184 15.4184 2.29472 15.2166C2.18506 15.0376 2.10425 14.8425 2.05526 14.6385C2 14.4083 2 14.1637 2 13.6745V11V9.32548C2 8.8363 2 8.59171 2.05526 8.36154C2.10425 8.15746 2.18506 7.96237 2.29472 7.78343C2.4184 7.5816 2.59135 7.40865 2.93726 7.06274L7.06274 2.93726Z" stroke="currentColor" stroke-width="2" stroke-linecap="round" stroke-linejoin="round"/>
</svg>
