<svg width="25" height="24" viewBox="0 0 25 24" fill="none" xmlns="http://www.w3.org/2000/svg">
<path d="M21.2159 7.14927C21.1458 7.03223 21.0637 6.92234 20.9707 6.82145C20.7526 6.58478 20.4531 6.41838 19.8541 6.08557L14.0541 2.86335C13.4868 2.54823 13.2032 2.39068 12.9029 2.32891C12.6371 2.27424 12.3629 2.27424 12.0971 2.32891C11.7968 2.39068 11.5132 2.54823 10.9459 2.86335L5.14594 6.08557C4.54689 6.41838 4.24737 6.58478 4.02927 6.82145C3.92942 6.9298 3.84214 7.04853 3.76878 7.17535M21.2159 7.14927C21.2912 7.27514 21.3527 7.40926 21.399 7.54935C21.5 7.85495 21.5 8.19759 21.5 8.88288V12.5534M21.2159 7.14927L12.5 12M3.76878 7.17535C3.70038 7.29361 3.64407 7.4189 3.60097 7.54935C3.5 7.85495 3.5 8.19759 3.5 8.88288V15.1171C3.5 15.8024 3.5 16.145 3.60097 16.4506C3.69029 16.721 3.83632 16.9691 4.02927 17.1785C4.24737 17.4152 4.5469 17.5816 5.14594 17.9144L10.9459 21.1366C11.5132 21.4517 11.7968 21.6093 12.0971 21.6711C12.3166 21.7162 12.5 21.5304 12.5 21.3064L12.5 12M3.76878 7.17535L12.5 12M17 9.49999L8 4.49999M22.5 18.7167H15.8261M15.8261 18.7167H15.7891M15.8261 18.7167C15.8261 18.7407 15.8349 18.7647 15.8523 18.783L18.9208 22M15.8261 18.7167C15.8261 18.6927 15.8349 18.6686 15.8523 18.6503L18.9208 15.4333" stroke="currentColor" stroke-width="2" stroke-linecap="round"/>
</svg>
