<svg width="25" height="24" viewBox="0 0 25 24" fill="none" xmlns="http://www.w3.org/2000/svg">
<path d="M12.5 12L12.5 21M12.5 12L4 7.49999M12.5 12L21 7.49998M17 9.49999L8 4.49999M14.0541 21.1366L19.8541 17.9144C20.4531 17.5816 20.7526 17.4152 20.9707 17.1785C21.1637 16.9691 21.3097 16.721 21.399 16.4506C21.5 16.145 21.5 15.8024 21.5 15.1171V8.88288C21.5 8.19759 21.5 7.85495 21.399 7.54935C21.3097 7.279 21.1637 7.03083 20.9707 6.82145C20.7526 6.58478 20.4531 6.41838 19.8541 6.08557L14.0541 2.86335C13.4868 2.54823 13.2032 2.39068 12.9029 2.32891C12.6371 2.27424 12.3629 2.27424 12.0971 2.32891C11.7968 2.39068 11.5132 2.54823 10.9459 2.86335L5.14594 6.08557C4.54689 6.41838 4.24737 6.58478 4.02927 6.82145C3.83632 7.03083 3.69029 7.279 3.60097 7.54935C3.5 7.85495 3.5 8.19759 3.5 8.88288V15.1171C3.5 15.8024 3.5 16.145 3.60097 16.4506C3.69029 16.721 3.83632 16.9691 4.02927 17.1785C4.24737 17.4152 4.5469 17.5816 5.14594 17.9144L10.9459 21.1366C11.5132 21.4517 11.7968 21.6093 12.0971 21.6711C12.3629 21.7257 12.6371 21.7257 12.9029 21.6711C13.2032 21.6093 13.4868 21.4517 14.0541 21.1366Z" stroke="currentColor" stroke-width="2" stroke-linecap="round"/>
</svg>
