<svg width="25" height="24" viewBox="0 0 25 24" fill="none" xmlns="http://www.w3.org/2000/svg">
<path d="M9.49594 3.66892L10.9459 2.86337C11.5132 2.54825 11.7968 2.39069 12.0971 2.32892C12.3629 2.27425 12.6371 2.27425 12.9029 2.32892C13.2032 2.39069 13.4868 2.54825 14.0541 2.86337L19.8541 6.08559C20.4531 6.41839 20.7526 6.58479 20.9707 6.82147C21.1637 7.03085 21.3097 7.27901 21.399 7.54937C21.5 7.85496 21.5 8.1976 21.5 8.88289V15.1171C21.5 15.3374 21.5 15.5223 21.4966 15.682M6.08002 5.56666L5.14594 6.08559C4.5469 6.41839 4.24737 6.58479 4.02927 6.82147C3.83632 7.03085 3.69029 7.27901 3.60097 7.54937C3.5 7.85496 3.5 8.1976 3.5 8.88289V15.1171C3.5 15.8024 3.5 16.145 3.60097 16.4506C3.69029 16.721 3.83632 16.9692 4.02927 17.1785C4.24737 17.4152 4.5469 17.5816 5.14594 17.9144L10.9459 21.1366C11.5132 21.4517 11.7968 21.6093 12.0971 21.6711C12.3629 21.7257 12.6371 21.7257 12.9029 21.6711C13.2032 21.6093 13.4868 21.4518 14.0541 21.1366L18.9909 18.394M12.5 21L12.5 12L4 7.5M21 7.5L16.2188 10.0312M17 9.5L12.5 7M2.75 2L22.75 22" stroke="currentColor" stroke-width="2" stroke-linecap="round" stroke-linejoin="round"/>
</svg>
