<svg width="24" height="24" viewBox="0 0 24 24" fill="none" xmlns="http://www.w3.org/2000/svg">
<path d="M4 6.4C4 5.55992 4 5.13988 4.16349 4.81901C4.3073 4.53677 4.53677 4.3073 4.81901 4.16349C5.13988 4 5.55992 4 6.4 4H7.6C8.44008 4 8.86012 4 9.18099 4.16349C9.46323 4.3073 9.6927 4.53677 9.83651 4.81901C10 5.13988 10 5.55992 10 6.4V17.6C10 18.4401 10 18.8601 9.83651 19.181C9.6927 19.4632 9.46323 19.6927 9.18099 19.8365C8.86012 20 8.44008 20 7.6 20H6.4C5.55992 20 5.13988 20 4.81901 19.8365C4.53677 19.6927 4.3073 19.4632 4.16349 19.181C4 18.8601 4 18.4401 4 17.6V6.4Z" stroke="currentColor" stroke-width="2" stroke-linecap="round" stroke-linejoin="round"/>
<path d="M14 6.4C14 5.55992 14 5.13988 14.1635 4.81901C14.3073 4.53677 14.5368 4.3073 14.819 4.16349C15.1399 4 15.5599 4 16.4 4H17.6C18.4401 4 18.8601 4 19.181 4.16349C19.4632 4.3073 19.6927 4.53677 19.8365 4.81901C20 5.13988 20 5.55992 20 6.4V17.6C20 18.4401 20 18.8601 19.8365 19.181C19.6927 19.4632 19.4632 19.6927 19.181 19.8365C18.8601 20 18.4401 20 17.6 20H16.4C15.5599 20 15.1399 20 14.819 19.8365C14.5368 19.6927 14.3073 19.4632 14.1635 19.181C14 18.8601 14 18.4401 14 17.6V6.4Z" stroke="currentColor" stroke-width="2" stroke-linecap="round" stroke-linejoin="round"/>
</svg>
