<svg width="24" height="24" viewBox="0 0 24 24" fill="none" xmlns="http://www.w3.org/2000/svg">
<path d="M19.1719 11.3873V14.6574C19.1719 15.2795 19.1719 15.5905 19.0678 15.8551C18.9759 16.0888 18.8268 16.2957 18.6341 16.4568C18.416 16.6392 18.1209 16.7376 17.5308 16.9343L8.72555 19.8694C7.25991 20.3579 6.52709 20.6022 6.03976 20.4284C5.82606 20.3522 5.6353 20.2297 5.47928 20.0726M19.1719 11.3873L14.1287 6.34411M19.1719 11.3873L22.0003 8.55884L16.9571 3.51569L14.1287 6.34411M14.1287 6.34411L10.9017 6.38726C10.2797 6.38726 9.96864 6.38726 9.704 6.49135C9.47031 6.58326 9.26343 6.73236 9.10234 6.925C8.91991 7.14314 8.82156 7.4382 8.62486 8.02832L5.68977 16.8336C5.20122 18.2992 4.95695 19.032 5.13073 19.5194C5.20575 19.7298 5.32568 19.9179 5.47928 20.0726M5.47928 20.0726L11.0948 14.4648M11.0948 14.4648C11.4568 14.8272 11.9571 15.0513 12.5098 15.0513C13.6143 15.0513 14.5098 14.1559 14.5098 13.0513C14.5098 11.9468 13.6143 11.0513 12.5098 11.0513C11.4052 11.0513 10.5098 11.9468 10.5098 13.0513C10.5098 13.6032 10.7333 14.1029 11.0948 14.4648ZM2 3.51569H8" stroke="currentColor" stroke-width="2" stroke-linecap="round" stroke-linejoin="round"/>
</svg>
