<svg width="24" height="24" viewBox="0 0 24 24" fill="none" xmlns="http://www.w3.org/2000/svg">
<path d="M19.1719 12.8862V16.1564C19.1719 16.7784 19.1719 17.0895 19.0678 17.3541C18.9759 17.5878 18.8268 17.7947 18.6341 17.9558C18.416 18.1382 18.1209 18.2365 17.5308 18.4332L8.72555 21.3683C7.25991 21.8569 6.52709 22.1012 6.03976 21.9274C5.82695 21.8515 5.63689 21.7296 5.48123 21.5735M19.1719 12.8862L14.1287 7.84307M19.1719 12.8862L22.0003 10.0578L16.9571 5.01464L14.1287 7.84307M14.1287 7.84307L10.9017 7.88622C10.2797 7.88622 9.96864 7.88622 9.704 7.9903C9.47031 8.08221 9.26343 8.23132 9.10234 8.42396C8.91991 8.6421 8.82156 8.93716 8.62486 9.52728L5.68977 18.3325C5.20122 19.7982 4.95695 20.531 5.13073 21.0183C5.20606 21.2296 5.3267 21.4185 5.48123 21.5735M5.48123 21.5735L11.0968 15.9657M11.0968 15.9657C11.4586 16.3269 11.9581 16.5503 12.5098 16.5503C13.6143 16.5503 14.5098 15.6549 14.5098 14.5503C14.5098 13.4457 13.6143 12.5503 12.5098 12.5503C11.4052 12.5503 10.5098 13.4457 10.5098 14.5503C10.5098 15.1032 10.7341 15.6037 11.0968 15.9657ZM2 5H5M5 5H8M5 5V2M5 5V8" stroke="currentColor" stroke-width="2" stroke-linecap="round" stroke-linejoin="round"/>
</svg>
