<svg width="24" height="24" viewBox="0 0 24 24" fill="none" xmlns="http://www.w3.org/2000/svg">
<path d="M8.46468 18L6.15193 15.6877C5.71209 15.2479 5.49217 15.0279 5.37863 14.7672C5.27838 14.537 5.23753 14.2853 5.25983 14.0351C5.28509 13.7519 5.42418 13.4737 5.70237 12.9173L9.85321 4.61566C10.5441 3.23384 10.8896 2.54293 11.357 2.32122C11.5605 2.22475 11.7801 2.17651 11.9998 2.17651M8.46468 18H15.5968M8.46468 18V22H15.5968V18M15.5968 18L17.8477 15.6877C18.2876 15.2479 18.5075 15.0279 18.621 14.7672C18.7213 14.537 18.7621 14.2853 18.7398 14.0351C18.7146 13.7519 18.5755 13.4737 18.2973 12.9173L14.1465 4.61566C13.4555 3.23384 13.1101 2.54293 12.6426 2.32122C12.4392 2.22475 12.2195 2.17651 11.9998 2.17651M11.9998 2.17651V10.1119M11.9998 10.1119C11.488 10.1119 10.9761 10.3072 10.5856 10.6977C9.80457 11.4787 9.80457 12.7451 10.5856 13.5261C11.3667 14.3072 12.633 14.3072 13.414 13.5261C14.1951 12.7451 14.1951 11.4787 13.414 10.6977C13.0235 10.3072 12.5117 10.1119 11.9998 10.1119Z" stroke="currentColor" stroke-width="2" stroke-linecap="round" stroke-linejoin="round"/>
</svg>
