<svg width="24" height="24" viewBox="0 0 24 24" fill="none" xmlns="http://www.w3.org/2000/svg">
<path d="M17.7552 11.3191V14.5893C17.7552 15.2113 17.7552 15.5223 17.6511 15.787C17.5592 16.0206 17.4101 16.2275 17.2175 16.3886C16.9993 16.571 16.7043 16.6694 16.1141 16.8661L7.30888 19.8012C5.84324 20.2897 5.11042 20.534 4.62309 20.3602C4.41103 20.2846 4.22157 20.1634 4.06621 20.008M17.7552 11.3191L12.712 6.27594M17.7552 11.3191L20.5836 8.49066L15.5405 3.44751L12.712 6.27594M12.712 6.27594L9.48502 6.31909C8.86299 6.31909 8.55197 6.31909 8.28733 6.42317C8.05364 6.51508 7.84676 6.66419 7.68567 6.85682C7.50324 7.07497 7.40489 7.37003 7.20818 7.96014L4.27309 16.7654C3.78455 18.2311 3.54027 18.9639 3.71405 19.4512C3.78966 19.6632 3.91089 19.8527 4.06621 20.008M4.06621 20.008L9.67484 14.3933M9.67484 14.3933C10.0371 14.7576 10.5387 14.9832 11.0931 14.9832C12.1977 14.9832 13.0931 14.0877 13.0931 12.9832C13.0931 11.8786 12.1977 10.9832 11.0931 10.9832C9.98852 10.9832 9.09309 11.8786 9.09309 12.9832C9.09309 13.5334 9.31529 14.0317 9.67484 14.3933Z" stroke="currentColor" stroke-width="2" stroke-linecap="round" stroke-linejoin="round"/>
</svg>
