<svg width="24" height="24" viewBox="0 0 24 24" fill="none" xmlns="http://www.w3.org/2000/svg">
<path d="M12.6634 17.663H9.39323C8.77119 17.663 8.46017 17.663 8.19553 17.559C7.96184 17.467 7.75496 17.3179 7.59387 17.1253C7.41144 16.9072 7.31309 16.6121 7.11639 16.022L4.1813 7.21672C3.69275 5.75107 3.44848 5.01825 3.62226 4.53093C3.69784 4.31897 3.81901 4.12958 3.97427 3.97427M12.6634 17.663L17.7066 12.6199M12.6634 17.663L15.4918 20.4915L20.535 15.4483L17.7066 12.6199M17.7066 12.6199L17.6634 9.39286C17.6634 8.77082 17.6634 8.45981 17.5593 8.19517C17.4674 7.96148 17.3183 7.7546 17.1257 7.5935C16.9075 7.41108 16.6125 7.31273 16.0224 7.11602L7.21708 4.18093C5.75144 3.69238 5.01862 3.44811 4.53129 3.62189C4.31917 3.69753 4.12965 3.81884 3.97427 3.97427M3.97427 3.97427L9.58859 9.58229M9.58859 9.58229C9.22463 9.94449 8.99934 10.4459 8.99934 11C8.99934 12.1045 9.89477 13 10.9993 13C12.1039 13 12.9993 12.1045 12.9993 11C12.9993 9.89538 12.1039 8.99995 10.9993 8.99995C10.4488 8.99995 9.95024 9.22239 9.58859 9.58229Z" stroke="currentColor" stroke-width="2" stroke-linecap="round" stroke-linejoin="round"/>
</svg>
