<svg width="24" height="24" viewBox="0 0 24 24" fill="none" xmlns="http://www.w3.org/2000/svg">
<path d="M4.03027 14.6769L16.0256 2.68157C16.9543 1.75287 18.46 1.75287 19.3887 2.68157C20.3174 3.61026 20.3174 5.11597 19.3887 6.04466L7.39337 18.04M4.03027 14.6769L7.39337 18.04M4.03027 14.6769C3.6319 15.0753 3.31551 15.5479 3.09899 16.068L2.34917 17.8692C2.18183 18.2712 2.09816 18.4722 2.075 18.5982C1.92314 19.4246 2.64572 20.1472 3.47212 19.9953C3.59814 19.9721 3.79913 19.8885 4.20111 19.7211L6.00227 18.9713C6.52238 18.7548 6.995 18.4384 7.39337 18.04M17.6299 16.0023C17.8061 15.5014 18.1539 15.079 18.6117 14.81C19.0694 14.541 19.6076 14.4426 20.131 14.5324C20.6543 14.6221 21.1289 14.8942 21.4709 15.3004C21.8128 15.7066 22 16.2207 21.9992 16.7517C21.9992 18.5 19.7509 19 19.7509 19M19.78 22H19.79" stroke="currentColor" stroke-width="2" stroke-linecap="round" stroke-linejoin="round"/>
</svg>
