<svg width="24" height="24" viewBox="0 0 24 24" fill="none" xmlns="http://www.w3.org/2000/svg">
<path d="M4.20111 19.7211L4.58543 20.6443H4.58543L4.20111 19.7211ZM3.47212 19.9953L3.29139 19.0118L3.47212 19.9953ZM2.34917 17.8692L1.42597 17.4849L2.34917 17.8692ZM2.075 18.5982L3.05854 18.7789L2.075 18.5982ZM6.00227 18.9713L5.61795 18.0481H5.61795L6.00227 18.9713ZM16.0256 2.68157L15.3185 1.97446L16.0256 2.68157ZM3.09899 16.068L2.17579 15.6837L3.09899 16.068ZM16.873 15.5709C16.4824 15.1804 15.8493 15.1804 15.4587 15.5709C15.0682 15.9614 15.0682 16.5946 15.4587 16.9851L16.873 15.5709ZM20.1254 21.6518C20.5159 22.0423 21.1491 22.0423 21.5396 21.6518C21.9301 21.2613 21.9301 20.6281 21.5396 20.2376L20.1254 21.6518ZM5.61795 18.0481L3.81679 18.7979L4.58543 20.6443L6.38659 19.8945L5.61795 18.0481ZM3.27237 18.2535L4.02218 16.4524L2.17579 15.6837L1.42597 17.4849L3.27237 18.2535ZM4.73738 15.384L16.7328 3.38867L15.3185 1.97446L3.32317 13.9698L4.73738 15.384ZM18.6816 5.33756L6.68626 17.3329L8.10048 18.7471L20.0958 6.75177L18.6816 5.33756ZM3.32317 15.384L6.68626 18.7471L8.10048 17.3329L4.73738 13.9698L3.32317 15.384ZM3.81679 18.7979C3.61037 18.8839 3.47454 18.9403 3.37402 18.979C3.26311 19.0217 3.25586 19.0183 3.29139 19.0118L3.65285 20.9788C3.8144 20.9492 3.97066 20.8924 4.09224 20.8456C4.22422 20.7948 4.38986 20.7257 4.58543 20.6443L3.81679 18.7979ZM1.42597 17.4849C1.34456 17.6804 1.27551 17.8461 1.22473 17.9781C1.17794 18.0996 1.12116 18.2559 1.09147 18.4175L3.05854 18.7789C3.05201 18.8144 3.04864 18.8072 3.09131 18.6963C3.12999 18.5958 3.18644 18.4599 3.27237 18.2535L1.42597 17.4849ZM3.29139 19.0118C3.15365 19.0371 3.03323 18.9167 3.05854 18.7789L1.09147 18.4175C0.813063 19.9325 2.13778 21.2572 3.65285 20.9788L3.29139 19.0118ZM6.38659 19.8945C7.02739 19.6278 7.60967 19.2379 8.10048 18.7471L6.68626 17.3329C6.38033 17.6389 6.01738 17.8818 5.61795 18.0481L6.38659 19.8945ZM18.6816 3.38867C19.2198 3.92684 19.2198 4.79939 18.6816 5.33756L20.0958 6.75177C21.4151 5.43255 21.4151 3.29368 20.0958 1.97446L18.6816 3.38867ZM20.0958 1.97446C18.7766 0.655244 16.6378 0.65524 15.3185 1.97446L16.7328 3.38867C17.2709 2.8505 18.1435 2.8505 18.6816 3.38867L20.0958 1.97446ZM4.02218 16.4524C4.18846 16.0529 4.43145 15.69 4.73738 15.384L3.32317 13.9698C2.83236 14.4606 2.44255 15.0429 2.17579 15.6837L4.02218 16.4524ZM20.9992 18.6113C20.9992 19.9921 19.8799 21.1113 18.4992 21.1113V23.1113C20.9845 23.1113 22.9992 21.0966 22.9992 18.6113H20.9992ZM18.4992 21.1113C17.1185 21.1113 15.9992 19.9921 15.9992 18.6113H13.9992C13.9992 21.0966 16.0139 23.1113 18.4992 23.1113V21.1113ZM15.9992 18.6113C15.9992 17.2306 17.1185 16.1113 18.4992 16.1113V14.1113C16.0139 14.1113 13.9992 16.1261 13.9992 18.6113H15.9992ZM18.4992 16.1113C19.8799 16.1113 20.9992 17.2306 20.9992 18.6113H22.9992C22.9992 16.1261 20.9845 14.1113 18.4992 14.1113V16.1113ZM15.4587 16.9851L20.1254 21.6518L21.5396 20.2376L16.873 15.5709L15.4587 16.9851Z" fill="currentColor"/>
</svg>
