<svg width="24" height="24" viewBox="0 0 24 24" fill="none" xmlns="http://www.w3.org/2000/svg">
<path d="M4.03027 14.6769L16.0256 2.68157C16.9543 1.75287 18.46 1.75287 19.3887 2.68157C20.3174 3.61026 20.3174 5.11597 19.3887 6.04466L7.39337 18.04M4.03027 14.6769L7.39337 18.04M4.03027 14.6769C3.6319 15.0753 3.31551 15.5479 3.09899 16.068L2.34917 17.8692C2.18183 18.2712 2.09816 18.4722 2.075 18.5982C1.92314 19.4246 2.64572 20.1472 3.47212 19.9953C3.59814 19.9721 3.79913 19.8885 4.20111 19.7211L6.00227 18.9713C6.52238 18.7548 6.995 18.4384 7.39337 18.04M17.9964 15.9419C17.1967 15.0329 15.8631 14.7884 14.8611 15.6208C13.859 16.4532 13.718 17.8448 14.5049 18.8293C15.2918 19.8137 17.9964 22.1113 17.9964 22.1113C17.9964 22.1113 20.7011 19.8137 21.488 18.8293C22.2749 17.8448 22.1511 16.4444 21.1318 15.6208C20.1126 14.7972 18.7962 15.0329 17.9964 15.9419Z" stroke="currentColor" stroke-width="2" stroke-linecap="round" stroke-linejoin="round"/>
</svg>
