<svg width="24" height="24" viewBox="0 0 24 24" fill="none" xmlns="http://www.w3.org/2000/svg">
<path d="M10.08 3.44C10.7685 2.92361 11.1128 2.66542 11.4909 2.56589C11.8246 2.47804 12.1754 2.47804 12.5091 2.56589C12.8872 2.66542 13.2315 2.92361 13.92 3.44L20.2813 8.21101C20.9022 8.67666 21.2126 8.90948 21.4069 9.21082C21.5785 9.4771 21.6844 9.78035 21.7159 10.0956C21.7516 10.4523 21.6536 10.8278 21.4577 11.5788L19.6241 18.6077C19.4008 19.4638 19.2891 19.8918 19.0471 20.2102C18.8336 20.4911 18.5496 20.7106 18.2238 20.8462C17.8547 21 17.4124 21 16.5277 21H12H7.47231C6.58764 21 6.1453 21 5.77616 20.8462C5.45042 20.7106 5.16638 20.4911 4.95286 20.2102C4.7109 19.8918 4.59924 19.4638 4.37593 18.6077L2.54228 11.5788C2.34638 10.8278 2.24843 10.4523 2.28407 10.0956C2.31556 9.78035 2.42148 9.4771 2.59312 9.21082C2.78735 8.90948 3.09779 8.67666 3.71866 8.21101L10.08 3.44Z" stroke="currentColor" stroke-width="2" stroke-linecap="round" stroke-linejoin="round"/>
</svg>
