<svg width="25" height="24" viewBox="0 0 25 24" fill="none" xmlns="http://www.w3.org/2000/svg">
<path d="M15.5483 9.57412C15.0546 7.24071 16.7946 6.52766 18.6899 6.26946C19.965 6.0958 20.9884 5.98095 21.7256 7.16002C22.9855 9.17532 22.867 12.0949 21.6969 14.7227M14.7139 13.9567C12.4752 17.0865 6.89219 17.6051 3.47912 12.4864C3.2045 12.0745 2.55442 12.21 2.56859 12.7049C3.13169 18.8974 9.43571 22.5453 15.7358 20.4168C16.9909 19.9928 18.106 19.2966 19.0542 18.4268M21.9052 3.25257C19.5913 2.28809 17.5407 3.87933 18.2887 6.07359M2.5 1.69653L22.5 21.6965" stroke="currentColor" stroke-width="2" stroke-linecap="round" stroke-linejoin="round"/>
</svg>
