<svg width="24" height="24" viewBox="0 0 24 24" fill="none" xmlns="http://www.w3.org/2000/svg">
<path d="M3.00586 7.77119C3.00586 5.78969 3.00586 4.79895 3.4117 4.10022C3.76775 3.48722 4.32937 3.02012 4.99698 2.78172C5.75795 2.50998 6.73212 2.6905 8.68044 3.05153L17.0687 4.60593C18.4654 4.86474 19.1637 4.99415 19.6868 5.35163C20.148 5.66682 20.5121 6.10452 20.738 6.61543C20.9941 7.19491 20.9941 7.90513 20.9941 9.32558V14.6744C20.9941 16.0949 20.9941 16.8051 20.738 17.3846C20.5121 17.8955 20.148 18.3332 19.6868 18.6484C19.1637 19.0059 18.4654 19.1353 17.0687 19.3941L8.68044 20.9485C6.73212 21.3095 5.75795 21.49 4.99698 21.2183C4.32937 20.9799 3.76775 20.5128 3.4117 19.8998C3.00586 19.2011 3.00586 18.2103 3.00586 16.2288V7.77119Z" stroke="currentColor" stroke-width="2" stroke-linecap="round" stroke-linejoin="round"/>
</svg>
