<svg width="24" height="24" viewBox="0 0 24 24" fill="none" xmlns="http://www.w3.org/2000/svg">
<path d="M10.3478 12H16.3478M10.3478 12L10.3478 20.6395M10.3478 12V3.36047M10.3478 12H3.00001M16.3478 12H20.9941M16.3478 12V19.5276M16.3478 12V4.47231M20.9941 12V9.32555C20.9941 7.9051 20.9941 7.19487 20.7379 6.6154C20.5121 6.10449 20.148 5.66679 19.6868 5.3516C19.1637 4.99411 18.4654 4.86471 17.0687 4.6059L16.3478 4.47231M20.9941 12V14.6744C20.9941 16.0948 20.9941 16.8051 20.7379 17.3845C20.5121 17.8954 20.148 18.3331 19.6868 18.6483C19.1637 19.0058 18.4654 19.1352 17.0687 19.394L16.3478 19.5276M16.3478 19.5276V4.47231M16.3478 19.5276L10.3478 20.6395M16.3478 4.47231L10.3478 3.36047M10.3478 20.6395L8.68044 20.9484C6.73212 21.3095 5.75795 21.49 4.99698 21.2182C4.32937 20.9799 3.76775 20.5127 3.4117 19.8997C3.00586 19.201 3.00586 18.2103 3.00586 16.2288L3 12.0058L3.00586 7.77115C3.00586 5.78966 3.00586 4.79892 3.4117 4.10019C3.76775 3.48719 4.32937 3.02008 4.99698 2.78169C5.75795 2.50995 6.73212 2.69046 8.68044 3.0515L10.3478 3.36047" stroke="currentColor" stroke-width="2" stroke-linecap="round" stroke-linejoin="round"/>
</svg>
