<svg width="24" height="24" viewBox="0 0 24 24" fill="none" xmlns="http://www.w3.org/2000/svg">
<path d="M8.68044 3.05153L17.0687 4.60593C18.4654 4.86474 19.1637 4.99415 19.6868 5.35163C20.148 5.66682 20.5121 6.10452 20.738 6.61543C20.9941 7.19491 20.9941 7.90513 20.9941 9.32558V14.6744M3.4117 4.10022C3.00586 4.79895 3.00586 5.78969 3.00586 7.77118V16.2288C3.00586 18.2103 3.00586 19.2011 3.4117 19.8998C3.76775 20.5128 4.32937 20.9799 4.99697 21.2183C5.75795 21.49 6.73212 21.3095 8.68044 20.9485L17.0687 19.3941C17.7541 19.2671 18.2713 19.1712 18.6821 19.0643M1.75 2L21.75 22" stroke="currentColor" stroke-width="2" stroke-linecap="round" stroke-linejoin="round"/>
</svg>
