<svg width="24" height="24" viewBox="0 0 24 24" fill="none" xmlns="http://www.w3.org/2000/svg">
<path d="M20 8C21.1046 8 22 7.10457 22 6C22 4.89543 21.1046 4 20 4C18.8954 4 18 4.89543 18 6M20 8C18.8954 8 18 7.10457 18 6M20 8V16M18 6L6 4M6 4C6 5.10457 5.10457 6 4 6M6 4C6 2.89543 5.10457 2 4 2C2.89543 2 2 2.89543 2 4C2 5.10457 2.89543 6 4 6M4 6V18M6 20C6 21.1046 5.10457 22 4 22C2.89543 22 2 21.1046 2 20C2 18.8954 2.89543 18 4 18M6 20C6 18.8954 5.10457 18 4 18M6 20L18 18M18 18C18 19.1046 18.8954 20 20 20C21.1046 20 22 19.1046 22 18C22 16.8954 21.1046 16 20 16M18 18C18 16.8954 18.8954 16 20 16" stroke="currentColor" stroke-width="2" stroke-linecap="round" stroke-linejoin="round"/>
</svg>
