<svg width="24" height="24" viewBox="0 0 24 24" fill="none" xmlns="http://www.w3.org/2000/svg">
<path d="M18.7996 19.0496C18.38 19.1626 17.7853 19.2613 17.0687 19.3941L16.3478 19.5277M18.7996 19.0496L16.3478 16.5978M18.7996 19.0496L21.75 22M20.989 15.6895C20.9941 15.3961 20.9941 15.0616 20.9941 14.6744V12V9.32558C20.9941 7.90513 20.9941 7.19491 20.738 6.61543C20.5121 6.10452 20.148 5.66682 19.6868 5.35163C19.1637 4.99415 18.4654 4.86474 17.0687 4.60593L16.3478 4.47234M7.62046 2.85843C7.93875 2.91409 8.29004 2.97919 8.68044 3.05153L10.3478 3.36051M16.3478 19.5277V16.5978M16.3478 19.5277L10.3478 20.6395M16.3478 16.5978L11.75 12M10.3478 6.37881L10.3478 3.36051M10.3478 3.36051L16.3478 4.47234M10.3478 12H11.75M10.3478 12V20.6395M10.3478 12V10.5978M10.3478 12H3.00586M11.75 12L10.3478 10.5978M16.3478 4.47234V12H20.989M10.3478 20.6395L8.68044 20.9485C6.73212 21.3095 5.75795 21.49 4.99697 21.2183C4.32937 20.9799 3.76775 20.5128 3.4117 19.8998C3.00586 19.2011 3.00586 18.2103 3.00586 16.2288V12M10.3478 10.5978L3.62695 3.87695M1.75 2L3.62695 3.87695M3.62695 3.87695V3.87695C3.48398 4.02526 3.35281 4.1877 3.27698 4.37923C3.00586 5.06395 3.00586 6.03901 3.00586 7.77118V12" stroke="currentColor" stroke-width="2" stroke-linecap="round" stroke-linejoin="round"/>
</svg>
