<svg width="24" height="24" viewBox="0 0 24 24" fill="none" xmlns="http://www.w3.org/2000/svg">
<path d="M5.84601 6.36401C9.36073 2.84929 15.0592 2.84929 18.5739 6.36401M9.38154 8.48533C10.9436 6.92323 13.4763 6.92323 15.0384 8.48533M11.8246 12.0066C8.52366 12.0066 5.80999 12.9091 4.05986 13.7042C3.47814 13.9684 3.18727 14.1006 2.81379 14.4625C2.54035 14.7275 2.20486 15.2484 2.07668 15.607C1.90161 16.0967 1.90161 16.5162 1.90161 17.3551V18.1779C1.90161 18.9431 1.90161 19.3257 2.00493 19.6345C2.20416 20.23 2.67155 20.6974 3.2671 20.8967C3.57595 21 3.95853 21 4.7237 21C5.14861 21 5.36106 21 5.54817 20.9509C5.90772 20.8566 6.21945 20.6322 6.42293 20.3211C6.52882 20.1592 6.5962 19.9577 6.73098 19.5547L7.01851 18.695C7.09612 18.4629 7.13493 18.3469 7.22485 18.2127C7.28906 18.1169 7.42731 17.974 7.52095 17.9066C7.65207 17.8123 7.73705 17.7807 7.90702 17.7175C8.62533 17.4503 9.92105 17.0968 11.7476 17.0968C13.5742 17.0968 14.8699 17.4503 15.5882 17.7175C15.7582 17.7807 15.8432 17.8123 15.9743 17.9066C16.0679 17.974 16.2062 18.1169 16.2704 18.2127C16.3603 18.3469 16.3991 18.463 16.4767 18.695L16.7471 19.5035C16.8984 19.9557 16.974 20.1818 17.0985 20.3598C17.2932 20.638 17.5764 20.842 17.902 20.9383C18.1103 21 18.3487 21 18.8255 21C19.6843 21 20.1137 21 20.4561 20.8703C20.9919 20.6673 21.415 20.2443 21.6179 19.7085C21.7476 19.3661 21.7476 18.9367 21.7476 18.0779V17.3551C21.7476 16.5162 21.7476 16.0967 21.5726 15.607C21.4444 15.2484 21.1089 14.7275 20.8354 14.4625C20.462 14.1006 20.1711 13.9684 19.5894 13.7042C17.8392 12.9091 15.1256 12.0066 11.8246 12.0066Z" stroke="currentColor" stroke-width="2" stroke-linecap="round"/>
</svg>
