<svg width="24" height="24" viewBox="0 0 24 24" fill="none" xmlns="http://www.w3.org/2000/svg">
<path d="M6.54355 16.0125C4.93724 14.2278 3.86699 12.3757 3.16511 10.8232C3.12511 10.7347 3.10511 10.6905 2.97561 10.187C2.6346 8.86115 3.09024 6.3629 3.87736 5.24279C4.17625 4.81744 4.35926 4.63443 4.72528 4.26841C5.10088 3.89281 5.28868 3.70501 5.47949 3.58512C6.12999 3.17638 6.95712 3.17638 7.60762 3.58512C7.79842 3.70501 7.98622 3.89281 8.36183 4.26841L8.74302 4.6496C9.15436 5.06095 9.36004 5.26662 9.47189 5.50701C9.5909 5.76278 9.63537 6.04693 9.6002 6.32683C9.56714 6.58989 9.43414 6.84857 9.16814 7.36592L8.54003 8.58758C8.4256 8.81013 8.36839 8.92141 8.33522 9.08089C8.31133 9.19575 8.30633 9.39427 8.32441 9.51018C8.34952 9.67113 8.38822 9.75674 8.46561 9.92794C8.73244 10.5182 9.23917 11.4404 10.1432 12.5001M13.2839 15.2293C13.6671 15.4648 14.0027 15.6379 14.2735 15.7626C14.4579 15.8475 14.5501 15.89 14.7213 15.915C14.845 15.9331 15.0546 15.9235 15.1762 15.8942C15.3444 15.8536 15.4605 15.7867 15.6926 15.6528L16.7935 15.0179C17.2449 14.7576 17.4707 14.6274 17.7005 14.5779C18.0395 14.5049 18.3933 14.5516 18.7018 14.71C18.9108 14.8174 19.0951 15.0017 19.4636 15.3702L19.7315 15.6381C20.1071 16.0136 20.2949 16.2015 20.4148 16.3923C20.8235 17.0428 20.8235 17.8699 20.4148 18.5204C20.2949 18.7112 20.1071 18.899 19.7315 19.2746C19.3655 19.6406 19.1825 19.8236 18.7571 20.1225C17.637 20.9097 15.1386 21.3653 13.8128 21.0243C13.3093 20.8948 13.265 20.8747 13.1763 20.8346C12.2464 20.4142 11.2091 19.8617 10.1432 19.1409M2.9015 21L20.4015 3.50003" stroke="currentColor" stroke-width="2" stroke-linecap="round" stroke-linejoin="round"/>
</svg>
