<svg width="24" height="24" viewBox="0 0 24 24" fill="none" xmlns="http://www.w3.org/2000/svg">
<path d="M15.789 2.99432L18.4213 5.62655M18.4213 5.62655L21.0535 8.25877M18.4213 5.62655L21.0535 2.99432M18.4213 5.62655L15.789 8.25877M7.24647 16.7534C9.25046 18.7574 11.4081 20.0352 13.1769 20.8348C13.2653 20.8748 13.3095 20.8948 13.8129 21.0243C15.1388 21.3653 17.637 20.9096 18.7571 20.1225C19.1825 19.8236 19.3655 19.6406 19.7315 19.2746C20.1071 18.899 20.2949 18.7112 20.4148 18.5204C20.8235 17.8699 20.8235 17.0427 20.4148 16.3922C20.2949 16.2014 20.1071 16.0136 19.7315 15.638L19.4636 15.3701C19.0951 15.0016 18.9109 14.8174 18.7018 14.71C18.3933 14.5515 18.0395 14.5048 17.7005 14.5779C17.4707 14.6274 17.245 14.7576 16.7935 15.0179L15.6926 15.6528C15.4605 15.7866 15.3445 15.8535 15.1763 15.8941C15.0547 15.9234 14.8451 15.933 14.7213 15.915C14.5502 15.8899 14.4581 15.8476 14.274 15.7628C13.5272 15.419 12.2876 14.7069 10.9157 13.335C9.51352 11.9328 8.8006 10.6688 8.46566 9.92798C8.38824 9.75672 8.34953 9.6711 8.32442 9.51014C8.30634 9.39423 8.31134 9.19571 8.33523 9.08085C8.36839 8.92136 8.42561 8.81008 8.54004 8.58753L9.16815 7.36587C9.43415 6.84852 9.56715 6.58984 9.60021 6.32678C9.63538 6.04688 9.59091 5.76273 9.4719 5.50696C9.36005 5.26657 9.15438 5.0609 8.74303 4.64955L8.36184 4.26836C7.98624 3.89276 7.79843 3.70496 7.60763 3.58506C6.95713 3.17633 6.13 3.17633 5.4795 3.58506C5.28869 3.70496 5.10089 3.89276 4.72529 4.26836C4.35927 4.63438 4.17626 4.81739 3.87737 5.24273C3.09025 6.36285 2.63461 8.86104 2.97561 10.1869C3.10509 10.6904 3.12507 10.7346 3.16502 10.823C3.96467 12.5917 5.24248 14.7494 7.24647 16.7534Z" stroke="currentColor" stroke-width="2" stroke-linecap="round"/>
</svg>
