<svg width="24" height="24" viewBox="0 0 24 24" fill="none" xmlns="http://www.w3.org/2000/svg">
<path d="M9.62663 4V4.08C9.62663 4.75206 9.62663 5.08809 9.75742 5.34479C9.87247 5.57058 10.056 5.75416 10.2818 5.86921C10.5385 6 10.8746 6 11.5466 6H12.4534C13.1254 6 13.4615 6 13.7182 5.86921C13.944 5.75416 14.1275 5.57058 14.2426 5.34479C14.3734 5.08809 14.3734 4.75206 14.3734 4.08V4M10.8 21H13.2C14.8802 21 15.7202 21 16.362 20.673C16.9265 20.3854 17.3854 19.9265 17.673 19.362C18 18.7202 18 17.8802 18 16.2V7.8C18 6.11984 18 5.27976 17.673 4.63803C17.3854 4.07354 16.9265 3.6146 16.362 3.32698C15.7202 3 14.8802 3 13.2 3H10.8C9.11984 3 8.27976 3 7.63803 3.32698C7.07354 3.6146 6.6146 4.07354 6.32698 4.63803C6 5.27976 6 6.11984 6 7.8V16.2C6 17.8802 6 18.7202 6.32698 19.362C6.6146 19.9265 7.07354 20.3854 7.63803 20.673C8.27976 21 9.11984 21 10.8 21Z" stroke="currentColor" stroke-width="2" stroke-linecap="round" stroke-linejoin="round"/>
</svg>
