<svg width="24" height="24" viewBox="0 0 24 24" fill="none" xmlns="http://www.w3.org/2000/svg">
<path d="M19.7315 19.2746C19.3655 19.6406 19.1825 19.8236 18.7571 20.1225C17.637 20.9096 15.1388 21.3653 13.8129 21.0243C13.3095 20.8948 13.2653 20.8748 13.1769 20.8349C11.4081 20.0352 9.25046 18.7574 7.24647 16.7534C5.24248 14.7494 3.96467 12.5918 3.16502 10.823C3.12507 10.7346 3.10509 10.6904 2.97561 10.1869C2.63461 8.86107 3.09025 6.36287 3.87737 5.24275C4.17626 4.81741 4.35927 4.6344 4.72529 4.26839C5.10089 3.89278 5.28869 3.70498 5.4795 3.58509C6.13 3.17636 6.95713 3.17636 7.60763 3.58509C7.79843 3.70498 7.98624 3.89278 8.36184 4.26839L8.74303 4.64958C9.15438 5.06092 9.36005 5.2666 9.4719 5.50698C9.59091 5.76275 9.63538 6.0469 9.60021 6.3268C9.56715 6.58987 9.43415 6.84854 9.16815 7.3659L8.54004 8.58755C8.42561 8.81011 8.36839 8.92139 8.33523 9.08087C8.31134 9.19573 8.30634 9.39425 8.32442 9.51017C8.34953 9.67112 8.38824 9.75675 8.46566 9.928C8.8006 10.6689 9.51352 11.9329 10.9157 13.335C12.2876 14.7069 13.5272 15.419 14.274 15.7628C14.4581 15.8476 14.5502 15.89 14.7213 15.915C14.8451 15.9331 15.0547 15.9235 15.1763 15.8941C15.3445 15.8536 15.4605 15.7866 15.6926 15.6528L16.7935 15.0179C17.245 14.7576 17.4707 14.6274 17.7005 14.5779C18.0395 14.5049 18.3933 14.5516 18.7018 14.71C18.9109 14.8174 19.0951 15.0016 19.4636 15.3701L19.7315 15.638C20.1071 16.0137 20.2949 16.2015 20.4148 16.3923C20.8235 17.0428 20.8235 17.8699 20.4148 18.5204C20.2949 18.7112 20.1071 18.899 19.7315 19.2746Z" stroke="currentColor" stroke-width="2" stroke-linecap="round" stroke-linejoin="round"/>
<path fill-rule="evenodd" clip-rule="evenodd" d="M17.8988 2.83059C17.099 1.9216 15.7654 1.67708 14.7634 2.50945C13.7614 3.34182 13.6203 4.73349 14.4072 5.71793C15.1941 6.70238 17.8988 9 17.8988 9C17.8988 9 20.6035 6.70238 21.3904 5.71793C22.1772 4.73349 22.0534 3.33306 21.0342 2.50945C20.0149 1.68584 18.6985 1.9216 17.8988 2.83059Z" stroke="currentColor" stroke-width="2" stroke-linecap="round" stroke-linejoin="round"/>
</svg>
