<svg width="24" height="24" viewBox="0 0 24 24" fill="none" xmlns="http://www.w3.org/2000/svg">
<path d="M17.7635 3.53113L18.4706 2.82402C18.7994 2.49523 18.9638 2.33083 19.1348 2.23209C19.5989 1.96414 20.1707 1.96414 20.6348 2.23209C20.8059 2.33083 20.9703 2.49523 21.2991 2.82402C21.6279 3.15282 21.7923 3.31721 21.891 3.48823C22.1589 3.95234 22.1589 4.52413 21.891 4.98823C21.7923 5.15926 21.6279 5.32365 21.2991 5.65245L20.592 6.35955M17.7635 3.53113L15.0954 6.19928C14.9044 6.39027 14.8089 6.48576 14.733 6.59456C14.6657 6.69113 14.6099 6.79529 14.5669 6.9049C14.5185 7.02838 14.492 7.16081 14.439 7.42566L14.1098 9.07195C14.0311 9.46538 13.9917 9.6621 14.0498 9.80241C14.1005 9.92508 14.198 10.0225 14.3207 10.0733C14.461 10.1313 14.6577 10.092 15.0511 10.0133L16.6974 9.68405C16.9623 9.63108 17.0947 9.60459 17.2182 9.55615C17.3278 9.51316 17.432 9.45742 17.5285 9.39007C17.6373 9.31419 17.7328 9.21869 17.9238 9.02771L20.592 6.35955M17.7635 3.53113L20.592 6.35955M7.24647 16.7535C9.25046 18.7575 11.4081 20.0353 13.1769 20.8349C13.2653 20.8749 13.3095 20.8948 13.8129 21.0243C15.1388 21.3653 17.637 20.9097 18.7571 20.1226C19.1825 19.8237 19.3655 19.6407 19.7315 19.2746C20.1071 18.899 20.2949 18.7112 20.4148 18.5204C20.8235 17.8699 20.8235 17.0428 20.4148 16.3923C20.2949 16.2015 20.1071 16.0137 19.7315 15.6381L19.4636 15.3702C19.0951 15.0017 18.9109 14.8174 18.7018 14.71C18.3933 14.5516 18.0395 14.5049 17.7005 14.578C17.4707 14.6275 17.245 14.7576 16.7935 15.018L15.6926 15.6528C15.4605 15.7867 15.3445 15.8536 15.1763 15.8942C15.0547 15.9235 14.8451 15.9331 14.7213 15.915C14.5502 15.89 14.4581 15.8476 14.274 15.7629C13.5272 15.419 12.2876 14.707 10.9157 13.3351C9.51352 11.9329 8.8006 10.6689 8.46566 9.92804C8.38824 9.75679 8.34953 9.67116 8.32442 9.51021C8.30634 9.39429 8.31134 9.19578 8.33523 9.08091C8.36839 8.92143 8.42561 8.81015 8.54004 8.58759L9.16815 7.36594C9.43415 6.84859 9.56715 6.58991 9.60021 6.32684C9.63538 6.04694 9.59091 5.76279 9.4719 5.50702C9.36005 5.26664 9.15438 5.06096 8.74303 4.64962L8.36184 4.26843C7.98624 3.89282 7.79843 3.70502 7.60763 3.58513C6.95713 3.1764 6.13 3.1764 5.4795 3.58513C5.28869 3.70502 5.10089 3.89282 4.72529 4.26843C4.35927 4.63444 4.17626 4.81745 3.87737 5.2428C3.09025 6.36291 2.63461 8.86111 2.97561 10.187C3.10509 10.6905 3.12507 10.7346 3.16502 10.823C3.96467 12.5918 5.24248 14.7495 7.24647 16.7535Z" stroke="currentColor" stroke-width="2" stroke-linecap="round"/>
</svg>
