<svg width="24" height="24" viewBox="0 0 24 24" fill="none" xmlns="http://www.w3.org/2000/svg">
<path d="M12.9015 2C17.8721 2 21.9015 6.02944 21.9015 11M13.9015 6C16.1107 6 17.9015 7.79086 17.9015 10M7.24647 16.7534C9.25046 18.7574 11.4081 20.0352 13.1769 20.8349C13.2653 20.8748 13.3095 20.8948 13.8129 21.0243C15.1388 21.3653 17.637 20.9096 18.7571 20.1225C19.1825 19.8236 19.3655 19.6406 19.7315 19.2746C20.1071 18.899 20.2949 18.7112 20.4148 18.5204C20.8235 17.8699 20.8235 17.0428 20.4148 16.3923C20.2949 16.2015 20.1071 16.0137 19.7315 15.638L19.4636 15.3701C19.0951 15.0016 18.9109 14.8174 18.7018 14.71C18.3933 14.5516 18.0395 14.5049 17.7005 14.5779C17.4707 14.6274 17.245 14.7576 16.7935 15.0179L15.6926 15.6528C15.4605 15.7866 15.3445 15.8536 15.1763 15.8941C15.0547 15.9235 14.8451 15.9331 14.7213 15.915C14.5502 15.89 14.4581 15.8476 14.274 15.7628C13.5272 15.419 12.2876 14.7069 10.9157 13.335C9.51352 11.9329 8.8006 10.6689 8.46566 9.928C8.38824 9.75675 8.34953 9.67112 8.32442 9.51017C8.30634 9.39425 8.31134 9.19573 8.33523 9.08087C8.36839 8.92139 8.42561 8.81011 8.54004 8.58755L9.16815 7.3659C9.43415 6.84854 9.56715 6.58987 9.60021 6.3268C9.63538 6.0469 9.59091 5.76275 9.4719 5.50698C9.36005 5.2666 9.15438 5.06092 8.74303 4.64958L8.36184 4.26839C7.98624 3.89278 7.79843 3.70498 7.60763 3.58509C6.95713 3.17636 6.13 3.17636 5.4795 3.58509C5.28869 3.70498 5.10089 3.89278 4.72529 4.26839C4.35927 4.6344 4.17626 4.81741 3.87737 5.24275C3.09025 6.36287 2.63461 8.86107 2.97561 10.1869C3.10509 10.6904 3.12507 10.7346 3.16502 10.823C3.96467 12.5918 5.24248 14.7494 7.24647 16.7534Z" stroke="currentColor" stroke-width="2" stroke-linecap="round"/>
</svg>
