<svg width="24" height="24" viewBox="0 0 24 24" fill="none" xmlns="http://www.w3.org/2000/svg">
<path d="M22 12C22 17.5228 17.5228 22 12 22M22 12C22 6.47715 17.5228 2 12 2C6.47715 2 2 6.47715 2 12C2 17.5228 6.47715 22 12 22M22 12C22 13.3132 21.7413 14.6136 21.2388 15.8268C20.7362 17.0401 19.9997 18.1425 19.0711 19.0711C18.1425 19.9997 17.0401 20.7362 15.8268 21.2388C14.6136 21.7413 13.3132 22 12 22M22 12H12M22 12C22 10.3664 21.5998 8.75764 20.8343 7.31444C20.0689 5.87125 18.9615 4.63755 17.6091 3.72124C16.2567 2.80492 14.7003 2.23389 13.0762 2.05808C11.4521 1.88227 9.80961 2.10703 8.29242 2.71271L12 12M12 22V12" stroke="currentColor" stroke-width="2" stroke-linecap="round" stroke-linejoin="round"/>
</svg>
