<svg width="24" height="24" viewBox="0 0 24 24" fill="none" xmlns="http://www.w3.org/2000/svg">
<path d="M4.42081 17.5C6.096 20.2011 9.08797 22 12.5001 22C17.7468 22 22.0001 17.7467 22.0001 12.5C22.0001 9.08785 20.2012 6.09587 17.5001 4.42069M9.17326 3.76118C9.64482 3.56585 10.1295 3.40737 10.6231 3.2866C11.2406 3.13548 11.5493 3.05992 11.948 3.18467C12.2503 3.27926 12.6204 3.5697 12.7842 3.84086C13.0001 4.19848 13.0001 4.59898 13.0001 5.39997V10.6C13.0001 11.4401 13.0001 11.8601 12.8366 12.181C12.6928 12.4632 12.4633 12.6927 12.1811 12.8365C11.8602 13 11.4402 13 10.6001 13L5.40009 13C4.5991 13 4.1986 13 3.84099 12.784C3.56982 12.6203 3.27938 12.2502 3.18479 11.9479C3.06004 11.5492 3.1356 11.2404 3.28672 10.6229C3.40749 10.1294 3.56597 9.6447 3.7613 9.17314C4.26385 7.95988 5.00044 6.85749 5.92903 5.9289C6.85761 5.00032 7.96 4.26372 9.17326 3.76118Z" stroke="currentColor" stroke-width="2" stroke-linecap="round" stroke-linejoin="round"/>
</svg>
