<svg width="24" height="24" viewBox="0 0 24 24" fill="none" xmlns="http://www.w3.org/2000/svg">
<path d="M2 12C2 17.5228 6.47715 22 12 22M2 12C2 6.47715 6.47715 2 12 2C17.5228 2 22 6.47715 22 12C22 17.5228 17.5228 22 12 22M2 12C2 13.3132 2.25866 14.6136 2.7612 15.8268C3.26375 17.0401 4.00035 18.1425 4.92893 19.0711C5.85752 19.9997 6.95991 20.7362 8.17317 21.2388C9.38642 21.7413 10.6868 22 12 22M2 12H12M2 12C2 10.3664 2.40022 8.75764 3.16566 7.31444C3.9311 5.87125 5.03846 4.63755 6.39089 3.72124C7.74333 2.80492 9.29965 2.23389 10.9238 2.05808C12.5479 1.88227 14.1904 2.10703 15.7076 2.71271L12 12M12 22V12" stroke="currentColor" stroke-width="2" stroke-linecap="round" stroke-linejoin="round"/>
</svg>
