<svg width="24" height="24" viewBox="0 0 24 24" fill="none" xmlns="http://www.w3.org/2000/svg">
<path d="M7.40031 13.4999C6.61264 13.4999 6.21881 13.4999 5.85523 13.7258C5.58617 13.893 5.28823 14.2897 5.20264 14.5947C5.08699 15.0068 5.17029 15.2939 5.3369 15.8682C5.57819 16.6999 5.94646 17.4944 6.43282 18.2223C7.36681 19.6201 8.69433 20.7096 10.2475 21.3529C11.8007 21.9963 13.5097 22.1646 15.1586 21.8366C16.8074 21.5086 18.322 20.6991 19.5107 19.5104C20.6995 18.3216 21.509 16.8071 21.837 15.1582C22.165 13.5094 21.9966 11.8003 21.3533 10.2471C20.7099 8.69397 19.6205 7.36645 18.2227 6.43246C17.4948 5.9461 16.7003 5.57783 15.8686 5.33654C15.2943 5.16993 15.0072 5.08663 14.595 5.20228C14.29 5.28787 13.8934 5.5858 13.7262 5.85487C13.5003 6.21845 13.5003 6.61228 13.5003 7.39995L13.5003 11.0999C13.5003 11.94 13.5003 12.3601 13.3368 12.6809C13.193 12.9632 12.9635 13.1926 12.6813 13.3365C12.3604 13.4999 11.9404 13.4999 11.1003 13.4999L7.40031 13.4999Z" stroke="currentColor" stroke-width="2" stroke-linecap="round" stroke-linejoin="round"/>
<path d="M10.0003 4.39995C10.0003 3.61847 10.0003 3.22773 9.77021 2.86171C9.60161 2.59353 9.19375 2.29277 8.88773 2.21096C8.47006 2.09929 8.19209 2.18528 7.63614 2.35726C7.40035 2.43019 7.16766 2.51413 6.93884 2.60891C5.96824 3.01095 5.08633 3.60022 4.34346 4.34309C3.60059 5.08596 3.01131 5.96787 2.60928 6.93848C2.5145 7.1673 2.43056 7.39999 2.35762 7.63577C2.18565 8.19172 2.09966 8.46969 2.21132 8.88736C2.29314 9.19338 2.5939 9.60124 2.86208 9.76984C3.22809 9.99995 3.61883 9.99995 4.40031 9.99995L7.60031 9.99995C8.44039 9.99995 8.86043 9.99995 9.1813 9.83646C9.46354 9.69265 9.69301 9.46318 9.83682 9.18093C10.0003 8.86006 10.0003 8.44003 10.0003 7.59995L10.0003 4.39995Z" stroke="currentColor" stroke-width="2" stroke-linecap="round" stroke-linejoin="round"/>
</svg>
