<svg width="24" height="24" viewBox="0 0 24 24" fill="none" xmlns="http://www.w3.org/2000/svg">
<path d="M12.9998 4.06183C16.9461 4.55393 19.9998 7.92032 19.9998 11.9999C19.9998 16.4182 16.4181 19.9999 11.9998 19.9999C7.9202 19.9999 4.55381 16.9463 4.06171 12.9999M8.7903 2.83727C9.38327 2.59165 9.99516 2.39899 10.6188 2.26072C11.2581 2.11897 11.5778 2.0481 11.9695 2.17726C12.2704 2.27646 12.627 2.56264 12.7889 2.83487C12.9998 3.18935 12.9998 3.59288 12.9998 4.39994V10.5999C12.9998 11.44 12.9998 11.8601 12.8363 12.1809C12.6925 12.4632 12.463 12.6926 12.1808 12.8365C11.8599 12.9999 11.4399 12.9999 10.5998 12.9999L4.39982 12.9999C3.59276 12.9999 3.18923 12.9999 2.83475 12.789C2.56252 12.6271 2.27634 12.2705 2.17714 11.9697C2.04798 11.5779 2.11885 11.2583 2.2606 10.6189C2.39887 9.99528 2.59153 9.3834 2.83714 8.79042C3.38995 7.45584 4.2002 6.24321 5.22164 5.22177C6.24309 4.20032 7.45572 3.39007 8.7903 2.83727Z" stroke="currentColor" stroke-width="2" stroke-linecap="round" stroke-linejoin="round"/>
</svg>
