<svg width="24" height="24" viewBox="0 0 24 24" fill="none" xmlns="http://www.w3.org/2000/svg">
<path d="M14 6.5C14 4.567 12.433 3 10.5 3C8.567 3 7 4.567 7 6.5C7 6.93293 7.0786 7.3475 7.22232 7.73022M5 14H4.12026C2.94927 14 2 13.0507 2 11.8797C2 11.4385 2.13768 11.0082 2.39386 10.6489L2.5 10.5M11.2222 6.5668H14.9289C15.2007 6.5668 15.4683 6.50423 15.7081 6.38462L16.1609 6.15874C17.1102 5.6852 18.2571 6.32805 18.2571 7.33368C18.2571 7.7646 18.4976 8.14219 18.8947 8.36124C19.4601 8.67316 20.1576 9.18175 20.331 10.2148C20.3774 10.4916 20.6145 10.7203 20.9143 10.7203C21.5139 10.7203 22 11.1745 22 11.7349V14.1992C22 14.8011 21.4779 15.2891 20.8338 15.2891C20.5629 15.2891 20.332 15.4649 20.2369 15.7018C19.9933 16.3083 19.9656 16.9396 19.5532 17.4154C18.967 18.0916 18.674 18.4297 18.6224 18.524C18.5383 18.6781 18.5602 18.6193 18.5229 18.7908C18.5 18.8959 18.5 19.0097 18.5 19.2373V21H15V18.1965H12V21H8.5V19.7965C8.5 19.3351 8.5 19.1045 8.44913 18.9511C8.38264 18.7507 8.37699 18.7411 8.23344 18.5863C8.12363 18.4678 7.73581 18.2544 6.96018 17.8276C5.57981 17.068 5 15.2181 5 13.0566V12.3816C5 9.17019 7.78578 6.5668 11.2222 6.5668Z" stroke="currentColor" stroke-width="2" stroke-linecap="round" stroke-linejoin="round"/>
</svg>
