<svg width="24" height="24" viewBox="0 0 24 24" fill="none" xmlns="http://www.w3.org/2000/svg">
<path d="M12 16V22M10.0411 15.5H14.1827C15.2073 15.5 15.7196 15.5 16.0935 15.402C17.5253 15.0268 18.4695 13.6634 18.3171 12.1911C18.2773 11.8066 18.0971 11.3271 17.7367 10.368C17.6687 10.187 17.6347 10.0965 17.6069 10.0052C17.5041 9.66777 17.4616 9.31483 17.4813 8.96261C17.4867 8.86732 17.4982 8.77134 17.5213 8.57939L17.6663 7.37301C17.8897 5.51517 18.0014 4.58625 17.7077 3.86644C17.4497 3.23435 16.9839 2.70916 16.3871 2.37758C15.7075 2 14.7719 2 12.9007 2H12.0011C10.1299 2 9.19424 2 8.51465 2.37758C7.91788 2.70916 7.45205 3.23435 7.19409 3.86644C6.90033 4.58625 7.01202 5.51517 7.2354 7.37301L7.36301 8.43435C7.37942 8.57083 7.38763 8.63908 7.39266 8.70622C7.43128 9.22178 7.33602 9.73859 7.11609 10.2065C7.08745 10.2674 7.05545 10.3283 6.99145 10.4499C6.69107 11.021 6.54088 11.3065 6.46617 11.5235C5.85732 13.2921 6.99773 15.1806 8.84644 15.4651C9.07328 15.5 9.39589 15.5 10.0411 15.5Z" stroke="currentColor" stroke-width="2" stroke-linecap="round" stroke-linejoin="round"/>
</svg>
