<svg width="24" height="24" viewBox="0 0 24 24" fill="none" xmlns="http://www.w3.org/2000/svg">
<path d="M7.63283 16.2329L3.34973 20.765M6.55809 14.5025L9.58564 17.3637C10.4787 18.2077 10.9252 18.6297 11.3439 18.8318C12.5699 19.4234 14.0405 19.1155 14.9261 18.0817C15.2286 17.7286 15.4683 17.1629 15.9477 16.0316C16.0376 15.8195 16.0825 15.7135 16.1347 15.6124C16.2834 15.3245 16.4777 15.0626 16.7101 14.8368C16.7917 14.7576 16.8802 14.6838 17.057 14.5363L18.1985 13.5844C19.6342 12.3872 20.352 11.7886 20.6322 11.064C20.8782 10.4276 20.9 9.72645 20.6939 9.07606C20.4593 8.33544 19.78 7.69344 18.4213 6.40944L17.5064 5.54478C16.1478 4.26078 15.4685 3.61878 14.7158 3.4263C14.0548 3.25727 13.356 3.31858 12.7345 3.60012C12.0269 3.92073 11.4697 4.67121 10.3554 6.17217L9.55972 7.24401C9.45183 7.38934 9.39789 7.462 9.34091 7.52996C9.03054 7.90016 8.63536 8.18993 8.18897 8.37464C8.10702 8.40854 8.0215 8.43814 7.85046 8.49734C7.04353 8.77664 6.64007 8.91628 6.37808 9.07177C4.87649 9.96296 4.45031 11.9432 5.45237 13.3732C5.6272 13.6227 5.9375 13.916 6.55809 14.5025Z" stroke="currentColor" stroke-width="2" stroke-linecap="round" stroke-linejoin="round"/>
</svg>
