<svg width="24" height="24" viewBox="0 0 24 24" fill="none" xmlns="http://www.w3.org/2000/svg">
<path d="M11.5 16.5889C12.0523 16.5889 12.5 16.1412 12.5 15.5889C12.5 15.0366 12.0523 14.5889 11.5 14.5889V16.5889ZM4.85195 15.3606L5.23463 14.4367L4.85195 15.3606ZM3.22836 13.737L4.15224 13.3543L3.22836 13.737ZM19.1481 6.81729L19.5307 5.89341V5.89341L19.1481 6.81729ZM20 11.0889C20 11.6412 20.4477 12.0889 21 12.0889C21.5523 12.0889 22 11.6412 22 11.0889H20ZM20.7716 8.44088L19.8478 8.82356L20.7716 8.44088ZM4.85195 6.81729L4.46927 5.89341L4.85195 6.81729ZM3.22836 8.44088L2.30448 8.05819L3.22836 8.44088ZM7.48499 10.0889C6.9327 10.0889 6.48499 10.5366 6.48499 11.0889C6.48499 11.6412 6.9327 12.0889 7.48499 12.0889V10.0889ZM7.49499 12.0889C8.04727 12.0889 8.49499 11.6412 8.49499 11.0889C8.49499 10.5366 8.04727 10.0889 7.49499 10.0889V12.0889ZM11.995 10.0889C11.4427 10.0889 10.995 10.5366 10.995 11.0889C10.995 11.6412 11.4427 12.0889 11.995 12.0889V10.0889ZM12.005 12.0889C12.5573 12.0889 13.005 11.6412 13.005 11.0889C13.005 10.5366 12.5573 10.0889 12.005 10.0889V12.0889ZM16.505 10.0889C15.9527 10.0889 15.505 10.5366 15.505 11.0889C15.505 11.6412 15.9527 12.0889 16.505 12.0889V10.0889ZM16.515 12.0889C17.0673 12.0889 17.515 11.6412 17.515 11.0889C17.515 10.5366 17.0673 10.0889 16.515 10.0889V12.0889ZM16.7071 14.2929C16.3166 13.9023 15.6834 13.9023 15.2929 14.2929C14.9024 14.6834 14.9024 15.3166 15.2929 15.7071L16.7071 14.2929ZM20.0221 20.4363C20.4126 20.8268 21.0458 20.8268 21.4363 20.4363C21.8268 20.0457 21.8268 19.4126 21.4363 19.022L20.0221 20.4363ZM21.4363 15.7071C21.8268 15.3166 21.8268 14.6834 21.4363 14.2929C21.0458 13.9023 20.4126 13.9023 20.0221 14.2929L21.4363 15.7071ZM15.2929 19.022C14.9024 19.4126 14.9024 20.0457 15.2929 20.4363C15.6834 20.8268 16.3166 20.8268 16.7071 20.4363L15.2929 19.022ZM7.5 7.58893H16.5V5.58893H7.5V7.58893ZM11.5 14.5889H7.5V16.5889H11.5V14.5889ZM7.5 14.5889C6.78741 14.5889 6.30304 14.5884 5.9266 14.5627C5.55915 14.5376 5.36813 14.492 5.23463 14.4367L4.46927 16.2844C4.88708 16.4575 5.32118 16.526 5.79046 16.5581C6.25077 16.5895 6.81477 16.5889 7.5 16.5889V14.5889ZM2 11.0889C2 11.7742 1.99946 12.3382 2.03086 12.7985C2.06288 13.2678 2.13142 13.7018 2.30448 14.1197L4.15224 13.3543C4.09694 13.2208 4.0513 13.0298 4.02623 12.6623C4.00054 12.2859 4 11.8015 4 11.0889H2ZM5.23463 14.4367C4.74458 14.2337 4.35523 13.8444 4.15224 13.3543L2.30448 14.1197C2.71046 15.0998 3.48915 15.8785 4.46927 16.2844L5.23463 14.4367ZM16.5 7.58893C17.2126 7.58893 17.697 7.58947 18.0734 7.61515C18.4409 7.64023 18.6319 7.68587 18.7654 7.74117L19.5307 5.89341C19.1129 5.72035 18.6788 5.65181 18.2095 5.61979C17.7492 5.58839 17.1852 5.58893 16.5 5.58893V7.58893ZM22 11.0889C22 10.4037 22.0005 9.83969 21.9691 9.37939C21.9371 8.9101 21.8686 8.47601 21.6955 8.0582L19.8478 8.82356C19.9031 8.95706 19.9487 9.14808 19.9738 9.51553C19.9995 9.89197 20 10.3763 20 11.0889H22ZM18.7654 7.74117C19.2554 7.94416 19.6448 8.33351 19.8478 8.82356L21.6955 8.0582C21.2895 7.07808 20.5108 6.29939 19.5307 5.89341L18.7654 7.74117ZM7.5 5.58893C6.81477 5.58893 6.25077 5.58839 5.79046 5.61979C5.32118 5.65181 4.88708 5.72035 4.46927 5.89341L5.23463 7.74117C5.36813 7.68587 5.55915 7.64023 5.9266 7.61515C6.30304 7.58947 6.78741 7.58893 7.5 7.58893V5.58893ZM4 11.0889C4 10.3763 4.00054 9.89197 4.02623 9.51553C4.0513 9.14808 4.09694 8.95706 4.15224 8.82356L2.30448 8.05819C2.13142 8.47601 2.06288 8.9101 2.03086 9.37939C1.99946 9.83969 2 10.4037 2 11.0889H4ZM4.46927 5.89341C3.48915 6.29939 2.71046 7.07808 2.30448 8.05819L4.15224 8.82356C4.35523 8.33351 4.74458 7.94416 5.23463 7.74117L4.46927 5.89341ZM7.48499 12.0889H7.49499V10.0889H7.48499V12.0889ZM11.995 12.0889H12.005V10.0889H11.995V12.0889ZM16.505 12.0889H16.515V10.0889H16.505V12.0889ZM15.2929 15.7071L17.6575 18.0717L19.0717 16.6575L16.7071 14.2929L15.2929 15.7071ZM17.6575 18.0717L20.0221 20.4363L21.4363 19.022L19.0717 16.6575L17.6575 18.0717ZM20.0221 14.2929L17.6575 16.6575L19.0717 18.0717L21.4363 15.7071L20.0221 14.2929ZM17.6575 16.6575L15.2929 19.022L16.7071 20.4363L19.0717 18.0717L17.6575 16.6575Z" fill="currentColor"/>
</svg>
