<svg width="24" height="24" viewBox="0 0 24 24" fill="none" xmlns="http://www.w3.org/2000/svg">
<path d="M12 15C12.5523 15 13 14.5523 13 14C13 13.4477 12.5523 13 12 13V15ZM4.85195 13.7716L5.23463 12.8478L4.85195 13.7716ZM3.22836 12.1481L4.15224 11.7654L3.22836 12.1481ZM19.1481 5.22836L19.5307 4.30448V4.30448L19.1481 5.22836ZM20 9.5C20 10.0523 20.4477 10.5 21 10.5C21.5523 10.5 22 10.0523 22 9.5H20ZM20.7716 6.85195L19.8478 7.23463L20.7716 6.85195ZM4.85195 5.22836L4.46927 4.30448L4.85195 5.22836ZM3.22836 6.85195L2.30448 6.46927L3.22836 6.85195ZM7.48499 8.5C6.9327 8.5 6.48499 8.94772 6.48499 9.5C6.48499 10.0523 6.9327 10.5 7.48499 10.5V8.5ZM7.49499 10.5C8.04727 10.5 8.49499 10.0523 8.49499 9.5C8.49499 8.94772 8.04727 8.5 7.49499 8.5V10.5ZM11.995 8.5C11.4427 8.5 10.995 8.94772 10.995 9.5C10.995 10.0523 11.4427 10.5 11.995 10.5V8.5ZM12.005 10.5C12.5573 10.5 13.005 10.0523 13.005 9.5C13.005 8.94772 12.5573 8.5 12.005 8.5V10.5ZM16.505 8.5C15.9527 8.5 15.505 8.94772 15.505 9.5C15.505 10.0523 15.9527 10.5 16.505 10.5V8.5ZM16.515 10.5C17.0673 10.5 17.515 10.0523 17.515 9.5C17.515 8.94772 17.0673 8.5 16.515 8.5V10.5ZM15.5751 21.6629L15.1211 22.5539L15.5751 21.6629ZM15.1148 21.2026L14.2238 21.6566L15.1148 21.2026ZM21.9074 21.2026L22.7984 21.6566L21.9074 21.2026ZM21.4471 21.6629L21.901 22.5539L21.4471 21.6629ZM21.4471 16.6259L21.901 15.7349L21.4471 16.6259ZM21.9074 17.0862L22.7984 16.6322L21.9074 17.0862ZM15.5751 16.6259L15.1211 15.7349L15.5751 16.6259ZM15.1148 17.0862L14.2238 16.6322L15.1148 17.0862ZM19.2666 16.5111C19.2666 17.0634 19.7144 17.5111 20.2666 17.5111C20.8189 17.5111 21.2666 17.0634 21.2666 16.5111H19.2666ZM15.7555 16.5111C15.7555 17.0634 16.2033 17.5111 16.7555 17.5111C17.3078 17.5111 17.7555 17.0634 17.7555 16.5111H15.7555ZM7.5 6H16.5V4H7.5V6ZM12 13H7.5V15H12V13ZM7.5 13C6.78741 13 6.30304 12.9995 5.9266 12.9738C5.55915 12.9487 5.36813 12.9031 5.23463 12.8478L4.46927 14.6955C4.88708 14.8686 5.32118 14.9371 5.79046 14.9691C6.25077 15.0005 6.81477 15 7.5 15V13ZM2 9.5C2 10.1852 1.99946 10.7492 2.03086 11.2095C2.06288 11.6788 2.13142 12.1129 2.30448 12.5307L4.15224 11.7654C4.09694 11.6319 4.0513 11.4409 4.02623 11.0734C4.00054 10.697 4 10.2126 4 9.5H2ZM5.23463 12.8478C4.74458 12.6448 4.35523 12.2554 4.15224 11.7654L2.30448 12.5307C2.71046 13.5108 3.48915 14.2895 4.46927 14.6955L5.23463 12.8478ZM16.5 6C17.2126 6 17.697 6.00054 18.0734 6.02623C18.4409 6.0513 18.6319 6.09694 18.7654 6.15224L19.5307 4.30448C19.1129 4.13142 18.6788 4.06288 18.2095 4.03086C17.7492 3.99946 17.1852 4 16.5 4V6ZM22 9.5C22 8.81477 22.0005 8.25077 21.9691 7.79046C21.9371 7.32118 21.8686 6.88708 21.6955 6.46927L19.8478 7.23463C19.9031 7.36813 19.9487 7.55915 19.9738 7.9266C19.9995 8.30304 20 8.78741 20 9.5H22ZM18.7654 6.15224C19.2554 6.35523 19.6448 6.74458 19.8478 7.23463L21.6955 6.46927C21.2895 5.48915 20.5108 4.71046 19.5307 4.30448L18.7654 6.15224ZM7.5 4C6.81477 4 6.25077 3.99946 5.79046 4.03086C5.32118 4.06288 4.88708 4.13142 4.46927 4.30448L5.23463 6.15224C5.36813 6.09694 5.55915 6.0513 5.9266 6.02623C6.30304 6.00054 6.78741 6 7.5 6V4ZM4 9.5C4 8.78741 4.00054 8.30304 4.02623 7.9266C4.0513 7.55915 4.09694 7.36813 4.15224 7.23463L2.30448 6.46927C2.13142 6.88708 2.06288 7.32118 2.03086 7.79046C1.99946 8.25077 2 8.81477 2 9.5H4ZM4.46927 4.30448C3.48915 4.71046 2.71046 5.48915 2.30448 6.46927L4.15224 7.23463C4.35523 6.74458 4.74458 6.35523 5.23463 6.15224L4.46927 4.30448ZM7.48499 10.5H7.49499V8.5H7.48499V10.5ZM11.995 10.5H12.005V8.5H11.995V10.5ZM16.505 10.5H16.515V8.5H16.505V10.5ZM16.6853 17.5111H20.3369V15.5111H16.6853V17.5111ZM21.0222 18.1964V20.0924H23.0222V18.1964H21.0222ZM20.3369 20.7777H16.6853V22.7777H20.3369V20.7777ZM16 20.0924V18.1964H14V20.0924H16ZM16.6853 20.7777C16.3739 20.7777 16.2004 20.7769 16.0749 20.7667C15.9611 20.7574 15.9773 20.7455 16.0291 20.7719L15.1211 22.5539C15.3983 22.6951 15.6746 22.7406 15.9121 22.7601C16.1379 22.7785 16.4069 22.7777 16.6853 22.7777V20.7777ZM14 20.0924C14 20.3709 13.9992 20.6398 14.0177 20.8657C14.0371 21.1031 14.0826 21.3795 14.2238 21.6566L16.0058 20.7486C16.0322 20.8004 16.0203 20.8166 16.011 20.7028C16.0008 20.5773 16 20.4039 16 20.0924H14ZM16.0291 20.7719C16.0191 20.7668 16.0109 20.7586 16.0058 20.7486L14.2238 21.6566C14.4207 22.0429 14.7348 22.3571 15.1211 22.5539L16.0291 20.7719ZM21.0222 20.0924C21.0222 20.4039 21.0214 20.5773 21.0112 20.7028C21.0019 20.8166 20.99 20.8004 21.0164 20.7486L22.7984 21.6566C22.9396 21.3795 22.9851 21.1031 23.0045 20.8657C23.023 20.6398 23.0222 20.3709 23.0222 20.0924H21.0222ZM20.3369 22.7777C20.6153 22.7777 20.8843 22.7785 21.1101 22.7601C21.3476 22.7406 21.6239 22.6951 21.901 22.5539L20.9931 20.7719C21.0449 20.7455 21.0611 20.7574 20.9472 20.7667C20.8218 20.7769 20.6483 20.7777 20.3369 20.7777V22.7777ZM21.0164 20.7486C21.0113 20.7586 21.0031 20.7668 20.9931 20.7719L21.901 22.5539C22.2874 22.3571 22.6015 22.0429 22.7984 21.6566L21.0164 20.7486ZM20.3369 17.5111C20.6483 17.5111 20.8218 17.5119 20.9472 17.5221C21.0611 17.5314 21.0449 17.5433 20.9931 17.5169L21.901 15.7349C21.6239 15.5937 21.3476 15.5482 21.1101 15.5288C20.8843 15.5103 20.6153 15.5111 20.3369 15.5111V17.5111ZM23.0222 18.1964C23.0222 17.918 23.023 17.649 23.0045 17.4232C22.9851 17.1857 22.9396 16.9094 22.7984 16.6322L21.0164 17.5402C20.99 17.4884 21.0019 17.4722 21.0112 17.586C21.0214 17.7115 21.0222 17.885 21.0222 18.1964H23.0222ZM20.9931 17.5169C21.0031 17.522 21.0113 17.5302 21.0164 17.5402L22.7984 16.6322C22.6015 16.2459 22.2874 15.9318 21.901 15.7349L20.9931 17.5169ZM16.6853 15.5111C16.4069 15.5111 16.1379 15.5103 15.9121 15.5288C15.6746 15.5482 15.3983 15.5937 15.1211 15.7349L16.0291 17.5169C15.9773 17.5433 15.9611 17.5314 16.0749 17.5221C16.2004 17.5119 16.3739 17.5111 16.6853 17.5111V15.5111ZM16 18.1964C16 17.885 16.0008 17.7115 16.011 17.586C16.0203 17.4722 16.0322 17.4884 16.0058 17.5402L14.2238 16.6322C14.0826 16.9094 14.0371 17.1857 14.0177 17.4232C13.9992 17.649 14 17.918 14 18.1964H16ZM15.1211 15.7349C14.7348 15.9317 14.4207 16.2459 14.2238 16.6322L16.0058 17.5402C16.0109 17.5302 16.0191 17.522 16.0291 17.5169L15.1211 15.7349ZM19.2666 14.7555V16.5111H21.2666V14.7555H19.2666ZM17.7555 16.5111V14.7555H15.7555V16.5111H17.7555ZM18.5111 14C18.9284 14 19.2666 14.3383 19.2666 14.7555H21.2666C21.2666 13.2337 20.0329 12 18.5111 12V14ZM18.5111 12C16.9892 12 15.7555 13.2337 15.7555 14.7555H17.7555C17.7555 14.3383 18.0938 14 18.5111 14V12Z" fill="currentColor"/>
</svg>
