<svg width="24" height="24" viewBox="0 0 24 24" fill="none" xmlns="http://www.w3.org/2000/svg">
<path d="M11.5 15.589H7.5C6.10218 15.589 5.40326 15.589 4.85195 15.3606C4.11687 15.0561 3.53284 14.4721 3.22836 13.737C3 13.1857 3 12.4868 3 11.089C3 9.69116 3 8.99225 3.22836 8.44094C3.53284 7.70585 4.11687 7.12183 4.85195 6.81735C5.40326 6.58899 6.10218 6.58899 7.5 6.58899H16.5C17.8978 6.58899 18.5967 6.58899 19.1481 6.81735C19.8831 7.12183 20.4672 7.70585 20.7716 8.44094C21 8.99225 21 9.69116 21 11.089M7.48499 11.089H7.49499M11.995 11.089H12.005M16.505 11.089H16.515M14.6206 16.9666L16.3712 18.9446C16.5788 19.1792 16.9154 19.1792 17.123 18.9446L21 14.5638" stroke="currentColor" stroke-width="2" stroke-linecap="round" stroke-linejoin="round"/>
</svg>
