<svg width="24" height="24" viewBox="0 0 24 24" fill="none" xmlns="http://www.w3.org/2000/svg">
<path d="M7.48499 12H7.49499M11.995 12H12.005M16.505 12H16.515M7.5 16.5H16.5C17.8978 16.5 18.5967 16.5 19.1481 16.2716C19.8831 15.9672 20.4672 15.3831 20.7716 14.6481C21 14.0967 21 13.3978 21 12C21 10.6022 21 9.90326 20.7716 9.35195C20.4672 8.61687 19.8831 8.03284 19.1481 7.72836C18.5967 7.5 17.8978 7.5 16.5 7.5H7.5C6.10218 7.5 5.40326 7.5 4.85195 7.72836C4.11687 8.03284 3.53284 8.61687 3.22836 9.35195C3 9.90326 3 10.6022 3 12C3 13.3978 3 14.0967 3.22836 14.6481C3.53284 15.3831 4.11687 15.9672 4.85195 16.2716C5.40326 16.5 6.10218 16.5 7.5 16.5Z" stroke="currentColor" stroke-width="2" stroke-linecap="round" stroke-linejoin="round"/>
</svg>
