<svg width="24" height="24" viewBox="0 0 24 24" fill="none" xmlns="http://www.w3.org/2000/svg">
<path d="M7.79578 6.11178C9.39039 6.6122 11.5971 8.09273 13.6966 10.1922C15.9013 12.3969 17.4235 14.72 17.8448 16.3281M11.339 15.2119L11.3325 15.2184M7.08311 16.9602L7.07667 16.9667M9.3253 10.9803L9.31886 10.9867M3.05115 17.9187L7.82034 4.71153C8.18152 3.71131 8.36211 3.2112 8.77276 2.86546C9.09385 2.59511 9.64008 2.39561 10.0598 2.39539C10.5966 2.3951 10.9858 2.61996 11.7642 3.06965C13.4929 4.06845 15.2711 5.4309 16.9424 7.10218C18.6127 8.77248 19.9745 10.5496 20.9731 12.2774C21.4231 13.0558 21.6481 13.4451 21.6478 13.9819C21.6477 14.4017 21.4482 14.948 21.1778 15.2692C20.8321 15.6799 20.3319 15.8605 19.3314 16.2218L6.12361 20.9911C4.58909 21.5453 3.82183 21.8223 3.32098 21.6493C2.88556 21.4989 2.5434 21.1567 2.39298 20.7213C2.21996 20.2205 2.49702 19.4532 3.05115 17.9187ZM11.0169 15.534C11.1948 15.7118 11.4831 15.7118 11.661 15.534C11.8388 15.3561 11.8388 15.0678 11.661 14.8899C11.4831 14.7121 11.1948 14.7121 11.0169 14.8899C10.8391 15.0678 10.8391 15.3561 11.0169 15.534ZM6.76109 17.2823C6.93894 17.4601 7.22729 17.4601 7.40513 17.2823C7.58298 17.1044 7.58298 16.8161 7.40513 16.6382C7.22729 16.4604 6.93894 16.4604 6.76109 16.6382C6.58324 16.8161 6.58324 17.1044 6.76109 17.2823ZM9.00328 11.3023C9.18112 11.4801 9.46947 11.4801 9.64732 11.3023C9.82517 11.1244 9.82517 10.8361 9.64732 10.6582C9.46947 10.4804 9.18112 10.4804 9.00328 10.6582C8.82543 10.8361 8.82543 11.1244 9.00328 11.3023Z" stroke="currentColor" stroke-width="2" stroke-linecap="round" stroke-linejoin="round"/>
</svg>
