<svg width="24" height="24" viewBox="0 0 24 24" fill="none" xmlns="http://www.w3.org/2000/svg">
<path d="M19.1655 16.2334C17.6841 17.0071 15.0768 17.5206 12.1077 17.5206C8.98978 17.5206 6.2708 16.9544 4.8357 16.1151M10.226 12.3034V12.2943M11.9994 8.05752V8.04841M14.642 13.8719V13.8628M14.1725 4.52896L20.1391 17.2402C20.5909 18.2028 20.8169 18.6841 20.771 19.219C20.7351 19.6372 20.4899 20.1645 20.1933 20.4615C19.8139 20.8413 19.3797 20.9575 18.5113 21.1898C16.5827 21.706 14.3619 22 11.9984 22C9.63621 22 7.41662 21.7063 5.48877 21.1907C4.62014 20.9584 4.18583 20.8423 3.80636 20.4625C3.50964 20.1655 3.26441 19.6382 3.2285 19.2199C3.18258 18.685 3.40856 18.2036 3.86052 17.2408L9.82739 4.52896C10.5206 3.05206 10.8673 2.31361 11.3438 2.08181C11.758 1.88028 12.2419 1.88028 12.6562 2.08181C13.1327 2.31362 13.4793 3.05207 14.1725 4.52896ZM10.226 11.848C9.97448 11.848 9.77059 12.0519 9.77059 12.3034C9.77059 12.5549 9.97448 12.7588 10.226 12.7588C10.4775 12.7588 10.6814 12.5549 10.6814 12.3034C10.6814 12.0519 10.4775 11.848 10.226 11.848ZM11.9994 7.60211C11.7479 7.60211 11.544 7.80601 11.544 8.05752C11.544 8.30904 11.7479 8.51293 11.9994 8.51293C12.2509 8.51293 12.4548 8.30904 12.4548 8.05752C12.4548 7.80601 12.2509 7.60211 11.9994 7.60211ZM14.642 13.4165C14.3905 13.4165 14.1866 13.6204 14.1866 13.8719C14.1866 14.1234 14.3905 14.3273 14.642 14.3273C14.8935 14.3273 15.0974 14.1234 15.0974 13.8719C15.0974 13.6204 14.8935 13.4165 14.642 13.4165Z" stroke="currentColor" stroke-width="2" stroke-linecap="round" stroke-linejoin="round"/>
</svg>
