<svg width="24" height="24" viewBox="0 0 24 24" fill="none" xmlns="http://www.w3.org/2000/svg">
<path d="M3 7.8C3 6.11984 3 5.27976 3.32698 4.63803C3.6146 4.07354 4.07354 3.6146 4.63803 3.32698C5.27976 3 6.11984 3 7.8 3H16.2C17.8802 3 18.7202 3 19.362 3.32698C19.9265 3.6146 20.3854 4.07354 20.673 4.63803C21 5.27976 21 6.11984 21 7.8V16.2C21 17.8802 21 18.7202 20.673 19.362C20.3854 19.9265 19.9265 20.3854 19.362 20.673C18.7202 21 17.8802 21 16.2 21H7.8C6.11984 21 5.27976 21 4.63803 20.673C4.07354 20.3854 3.6146 19.9265 3.32698 19.362C3 18.7202 3 17.8802 3 16.2V7.8Z" stroke="currentColor" stroke-width="2" stroke-linecap="round" stroke-linejoin="round"/>
<path d="M8.95034 10.7928C8.95034 9.41012 8.95034 8.71876 9.23801 8.34186C9.48855 8.0136 9.87101 7.81242 10.2834 7.79193C10.757 7.76841 11.3267 8.16008 12.4661 8.94343L14.2219 10.1505C15.1248 10.7713 15.5763 11.0817 15.7348 11.47C15.8734 11.8097 15.8734 12.1902 15.7348 12.5299C15.5763 12.9182 15.1248 13.2286 14.2219 13.8494L12.4661 15.0565C11.3267 15.8398 10.757 16.2315 10.2834 16.208C9.87101 16.1875 9.48855 15.9863 9.23801 15.658C8.95034 15.2811 8.95034 14.5898 8.95034 13.2071V10.7928Z" stroke="currentColor" stroke-width="2" stroke-linecap="round" stroke-linejoin="round"/>
</svg>
