<svg width="24" height="24" viewBox="0 0 24 24" fill="none" xmlns="http://www.w3.org/2000/svg">
<path d="M3 12C3 7.02944 7.02944 3 12 3C16.9706 3 21 7.02944 21 12C21 16.9706 16.9706 21 12 21C7.02944 21 3 16.9706 3 12Z" stroke="currentColor" stroke-width="2" stroke-linecap="round" stroke-linejoin="round"/>
<path d="M8.95034 10.7928C8.95034 9.41012 8.95034 8.71876 9.23801 8.34186C9.48855 8.0136 9.87101 7.81242 10.2834 7.79193C10.757 7.76841 11.3267 8.16008 12.4661 8.94343L14.2219 10.1505C15.1248 10.7713 15.5763 11.0817 15.7348 11.47C15.8734 11.8097 15.8734 12.1902 15.7348 12.5299C15.5763 12.9182 15.1248 13.2286 14.2219 13.8494L12.4661 15.0565C11.3267 15.8398 10.757 16.2315 10.2834 16.208C9.87101 16.1875 9.48855 15.9863 9.23801 15.658C8.95034 15.2811 8.95034 14.5898 8.95034 13.2071V10.7928Z" stroke="currentColor" stroke-width="2" stroke-linecap="round" stroke-linejoin="round"/>
</svg>
