<svg width="24" height="24" viewBox="0 0 24 24" fill="none" xmlns="http://www.w3.org/2000/svg">
<path d="M8.46251 14.5336C7.55884 13.6289 7 12.3797 7 11C7 8.23858 9.23858 6 12 6C14.7614 6 17 8.23858 17 11C17 12.3556 16.4606 13.5851 15.5846 14.4858M6.34267 18C4.30367 16.35 3 13.8273 3 11C3 6.02944 7.02944 2 12 2C16.9706 2 21 6.02944 21 11C21 13.3051 20.1334 15.4077 18.7083 17C18.3855 17.3607 18.0339 17.6952 17.6573 18M13 11C13 11.5523 12.5523 12 12 12C11.4477 12 11 11.5523 11 11C11 10.4477 11.4477 10 12 10C12.5523 10 13 10.4477 13 11ZM12 22C10.8954 22 10 21.1046 10 20V18C10 16.8954 10.8954 16 12 16C13.1046 16 14 16.8954 14 18V20C14 21.1046 13.1046 22 12 22Z" stroke="currentColor" stroke-width="2" stroke-linecap="round" stroke-linejoin="round"/>
</svg>
