<svg width="24" height="24" viewBox="0 0 24 24" fill="none" xmlns="http://www.w3.org/2000/svg">
<path d="M6 18C5.07003 18 4.60504 18 4.22354 17.8978C3.18827 17.6204 2.37962 16.8117 2.10222 15.7765C2 15.395 2 14.93 2 14V10.8C2 9.11984 2 8.27976 2.32698 7.63803C2.6146 7.07354 3.07354 6.6146 3.63803 6.32698C4.27976 6 5.11984 6 6.8 6H17.2C18.8802 6 19.7202 6 20.362 6.32698C20.9265 6.6146 21.3854 7.07354 21.673 7.63803C22 8.27976 22 9.11984 22 10.8V14C22 14.93 22 15.395 21.8978 15.7765C21.6204 16.8117 20.8117 17.6204 19.7765 17.8978C19.395 18 18.93 18 18 18M18.6606 9.27448H17.1601M9.2 22H14.8C15.9201 22 16.4802 22 16.908 21.782C17.2843 21.5903 17.5903 21.2843 17.782 20.908C18 20.4802 18 19.9201 18 18.8V15.2C18 14.0799 18 13.5198 17.782 13.092C17.5903 12.7157 17.2843 12.4097 16.908 12.218C16.4802 12 15.9201 12 14.8 12H9.2C8.0799 12 7.51984 12 7.09202 12.218C6.71569 12.4097 6.40973 12.7157 6.21799 13.092C6 13.5198 6 14.0799 6 15.2V18.8C6 19.9201 6 20.4802 6.21799 20.908C6.40973 21.2843 6.71569 21.5903 7.09202 21.782C7.51984 22 8.07989 22 9.2 22ZM19 6V5.2C19 4.0799 19 3.51984 18.782 3.09202C18.5903 2.71569 18.2843 2.40973 17.908 2.21799C17.4802 2 16.9201 2 15.8 2H8.2C7.07989 2 6.51984 2 6.09202 2.21799C5.71569 2.40973 5.40973 2.71569 5.21799 3.09202C5 3.51984 5 4.0799 5 5.2V6H19Z" stroke="currentColor" stroke-width="2" stroke-linecap="round" stroke-linejoin="round"/>
</svg>
