<svg width="24" height="24" viewBox="0 0 24 24" fill="none" xmlns="http://www.w3.org/2000/svg">
<path d="M18 10H19M5 10H6M16.5 7L13.5 4M13.5 4H10L7 7M13.5 4L17 2H19M10.5 4L7 2H5M15 18.5H9M12 18V15M19 22C18.0681 22 17.6022 22 17.2346 21.8478C16.7446 21.6448 16.3552 21.2554 16.1522 20.7654C16 20.3978 16 19.9319 16 19V18C16 17.0681 16 16.6022 16.1522 16.2346C16.3552 15.7446 16.7446 15.3552 17.2346 15.1522C17.6022 15 18.0681 15 19 15C19.9319 15 20.3978 15 20.7654 15.1522C21.2554 15.3552 21.6448 15.7446 21.8478 16.2346C22 16.6022 22 17.0681 22 18V19C22 19.9319 22 20.3978 21.8478 20.7654C21.6448 21.2554 21.2554 21.6448 20.7654 21.8478C20.3978 22 19.9319 22 19 22ZM5 22C4.06812 22 3.60218 22 3.23463 21.8478C2.74458 21.6448 2.35523 21.2554 2.15224 20.7654C2 20.3978 2 19.9319 2 19V18C2 17.0681 2 16.6022 2.15224 16.2346C2.35523 15.7446 2.74458 15.3552 3.23463 15.1522C3.60218 15 4.06812 15 5 15C5.93188 15 6.39782 15 6.76537 15.1522C7.25542 15.3552 7.64477 15.7446 7.84776 16.2346C8 16.6022 8 17.0681 8 18V19C8 19.9319 8 20.3978 7.84776 20.7654C7.64477 21.2554 7.25542 21.6448 6.76537 21.8478C6.39782 22 5.93188 22 5 22ZM3.875 12.5H6.34315C6.95462 12.5 7.26036 12.5 7.54808 12.5691C7.80317 12.6303 8.04703 12.7313 8.27071 12.8684C8.523 13.023 8.73919 13.2392 9.17157 13.6716L10 14.5H14L14.8284 13.6716C15.2608 13.2392 15.477 13.023 15.7293 12.8684C15.953 12.7313 16.1968 12.6303 16.4519 12.5691C16.7396 12.5 17.0454 12.5 17.6569 12.5H20.125C20.4735 12.5 20.6477 12.5 20.7926 12.4712C21.3877 12.3528 21.8528 11.8877 21.9712 11.2926C22 11.1477 22 10.9735 22 10.625C22 10.0442 22 9.75377 21.952 9.51227C21.7547 8.52055 20.9795 7.7453 19.9877 7.54804C19.7462 7.5 19.4558 7.5 18.875 7.5H5.125C4.54418 7.5 4.25377 7.5 4.01227 7.54804C3.02055 7.7453 2.2453 8.52055 2.04804 9.51227C2 9.75377 2 10.0442 2 10.625C2 10.9735 2 11.1477 2.02882 11.2926C2.14718 11.8877 2.61233 12.3528 3.20736 12.4712C3.35226 12.5 3.52651 12.5 3.875 12.5Z" stroke="currentColor" stroke-width="2" stroke-linecap="round" stroke-linejoin="round"/>
</svg>
