<svg width="24" height="24" viewBox="0 0 24 24" fill="none" xmlns="http://www.w3.org/2000/svg">
<g clip-path="url(#clip0_50_5854)">
<path d="M9.81537 9.75226C9.90621 9.49402 10.0427 9.25666 10.2163 9.05042C10.3794 8.85663 10.5753 8.69032 10.7971 8.55999C11.2549 8.29096 11.7931 8.19262 12.3164 8.28239C12.8397 8.37215 13.3144 8.64422 13.6563 9.05042C13.9983 9.45662 14.1854 9.97073 14.1846 10.5017C14.1846 12.0006 11.9363 12.75 11.9363 12.75V12.9571M11.9654 15.75H11.9754M14.64 20.36L20.36 14.64C21.2841 13.7159 21.7461 13.2539 21.9192 12.7211C22.0715 12.2524 22.0715 11.7476 21.9192 11.2789C21.7461 10.7461 21.2841 10.2841 20.36 9.36001L14.64 3.64001C13.7159 2.71592 13.2539 2.25388 12.7211 2.08076C12.2524 1.92848 11.7476 1.92848 11.2789 2.08076C10.7461 2.25388 10.2841 2.71592 9.35998 3.64001L3.63998 9.36001C2.71589 10.2841 2.25385 10.7461 2.08073 11.2789C1.92845 11.7476 1.92845 12.2524 2.08073 12.7211C2.25385 13.2539 2.71589 13.7159 3.63998 14.64L9.35998 20.36C10.2841 21.2841 10.7461 21.7462 11.2789 21.9193C11.7476 22.0716 12.2524 22.0716 12.7211 21.9193C13.2539 21.7462 13.7159 21.2841 14.64 20.36Z" stroke="currentColor" stroke-width="2" stroke-linecap="round" stroke-linejoin="round"/>
</g>
<defs>
<clipPath id="clip0_50_5854">
<rect width="24" height="24" fill="white"/>
</clipPath>
</defs>
</svg>
