<svg width="24" height="24" viewBox="0 0 24 24" fill="none" xmlns="http://www.w3.org/2000/svg">
<path d="M9.81537 9.75224C9.90621 9.494 10.0427 9.25664 10.2163 9.05041C10.3794 8.85662 10.5753 8.6903 10.7971 8.55998C11.2549 8.29095 11.7931 8.1926 12.3164 8.28237C12.8397 8.37213 13.3144 8.64421 13.6563 9.05041C13.9983 9.45661 14.1854 9.97072 14.1846 10.5017C14.1846 12.0006 11.9363 12.75 11.9363 12.75V12.957M11.9654 15.75H11.9754M22 12C22 17.5228 17.5228 22 12 22C6.47715 22 2 17.5228 2 12C2 6.47715 6.47715 2 12 2C17.5228 2 22 6.47715 22 12Z" stroke="currentColor" stroke-width="2" stroke-linecap="round" stroke-linejoin="round"/>
</svg>
