<svg width="24" height="24" viewBox="0 0 24 24" fill="none" xmlns="http://www.w3.org/2000/svg">
<path d="M9.81537 9.75224C9.90621 9.494 10.0427 9.25664 10.2163 9.05041C10.3794 8.85662 10.5753 8.6903 10.7971 8.55998C11.2549 8.29095 11.7931 8.1926 12.3164 8.28237C12.8397 8.37213 13.3144 8.64421 13.6563 9.05041C13.9983 9.45661 14.1854 9.97072 14.1846 10.5017C14.1846 12.0006 11.9363 12.75 11.9363 12.75V12.957M11.9654 15.75H11.9754M16.5858 21.4142L21.4142 16.5858C21.7893 16.2107 22 15.702 22 15.1716V8.82843C22 8.29799 21.7893 7.78929 21.4142 7.41421L16.5858 2.58579C16.2107 2.21071 15.702 2 15.1716 2H8.82843C8.29799 2 7.78929 2.21071 7.41421 2.58579L2.58579 7.41421C2.21071 7.78929 2 8.29799 2 8.82843L2 15.1716C2 15.702 2.21071 16.2107 2.58579 16.5858L7.41421 21.4142C7.78929 21.7893 8.29799 22 8.82843 22H15.1716C15.702 22 16.2107 21.7893 16.5858 21.4142Z" stroke="currentColor" stroke-width="2" stroke-linecap="round" stroke-linejoin="round"/>
</svg>
