<svg width="24" height="24" viewBox="0 0 24 24" fill="none" xmlns="http://www.w3.org/2000/svg">
<path d="M9.81537 12.6341C9.90621 12.3759 10.0427 12.1385 10.2163 11.9323C10.3794 11.7385 10.5753 11.5722 10.7971 11.4418C11.2549 11.1728 11.7931 11.0745 12.3164 11.1642C12.8397 11.254 13.3144 11.5261 13.6563 11.9323C13.9983 12.3385 14.1854 12.8526 14.1846 13.3835C14.1846 14.8824 11.9363 15.6319 11.9363 15.6319V15.8389M11.9654 18.6319H11.9754M4.11477 22.0003L19.8996 22C21.4239 21.9999 22.3879 20.3629 21.6485 19.0299L13.3419 4.05419C12.5612 2.64679 10.5226 2.69094 9.80359 4.13082L2.32541 19.1068C1.6614 20.4366 2.62845 22.0003 4.11477 22.0003Z" stroke="currentColor" stroke-width="2" stroke-linecap="round" stroke-linejoin="round"/>
</svg>
