<svg width="24" height="24" viewBox="0 0 24 24" fill="none" xmlns="http://www.w3.org/2000/svg">
<path d="M21.0002 8.49992L13.0002 11.9999M17.2609 9.46244C16.6176 8.38326 15.5696 7.54395 14.2602 7.19311C11.5929 6.4784 8.85119 8.06131 8.13648 10.7286C7.42177 13.396 9.00468 16.1377 11.672 16.8524C12.1159 16.9713 12.5618 17.0266 13.0002 17.0239M21.1918 8.36985C20.9949 7.9272 20.7628 7.50107 20.4979 7.09586C19.3287 5.30719 17.522 3.92594 15.2955 3.32935C10.4943 2.04287 5.55925 4.89211 4.27277 9.69331C2.98629 14.4945 5.83553 19.4295 10.6367 20.716C11.4265 20.9276 12.22 21.0274 13.0002 21.0249M13.2249 11.0566C13.7584 11.1996 14.075 11.7479 13.932 12.2814C13.7891 12.8148 13.2408 13.1314 12.7073 12.9885C12.1738 12.8455 11.8572 12.2972 12.0002 11.7637C12.1431 11.2303 12.6915 10.9137 13.2249 11.0566Z" stroke="currentColor" stroke-width="2" stroke-linecap="round" stroke-linejoin="round"/>
</svg>
