<svg width="24" height="24" viewBox="0 0 24 24" fill="none" xmlns="http://www.w3.org/2000/svg">
<path d="M8.54492 7L12 11.5M12 11.5L15.4551 7M12 11.5V15.9259M9 11.7091H15M17.5531 20.2567C17.1157 19.3193 15.7966 19.2661 15.2942 20.1704L15.195 20.3491C14.7163 21.2106 13.4522 21.1305 13.0862 20.2154C12.694 19.2349 11.306 19.2349 10.9138 20.2154C10.5478 21.1305 9.28365 21.2106 8.80504 20.3491L8.70577 20.1704C8.20337 19.2661 6.88435 19.3193 6.44687 20.2567C5.86781 21.4975 4 21.1006 4 19.7313L4 7.8C4 6.11984 4 5.27976 4.32698 4.63803C4.6146 4.07354 5.07354 3.6146 5.63803 3.32698C6.27976 3 7.11984 3 8.8 3H15.2C16.8802 3 17.7202 3 18.362 3.32698C18.9265 3.6146 19.3854 4.07354 19.673 4.63803C20 5.27976 20 6.11984 20 7.8V19.7313C20 21.1006 18.1322 21.4975 17.5531 20.2567Z" stroke="currentColor" stroke-width="2" stroke-linecap="round" stroke-linejoin="round"/>
</svg>
