<svg width="24" height="24" viewBox="0 0 24 24" fill="none" xmlns="http://www.w3.org/2000/svg">
<path d="M8.64844 7.21948H13.2832C14.4255 7.21948 15.3516 8.14552 15.3516 9.28784C15.3516 10.4302 14.4255 11.3562 13.2832 11.3562M13.2832 11.3562H9.90527M13.2832 11.3562C14.4255 11.3562 15.3516 12.2822 15.3516 13.4246C15.3516 14.5669 14.4255 15.4929 13.2832 15.4929H8.64844M9.83008 6.10205L9.83008 16.378M13.3633 15.4929V16.378M13.3633 6.10205V7.21948M17.5531 20.2567C17.1157 19.3193 15.7966 19.2661 15.2942 20.1704L15.195 20.3491C14.7163 21.2106 13.4522 21.1305 13.0862 20.2154C12.694 19.2349 11.306 19.2349 10.9138 20.2154C10.5478 21.1305 9.28365 21.2106 8.80504 20.3491L8.70577 20.1704C8.20337 19.2661 6.88435 19.3193 6.44687 20.2567C5.86781 21.4975 4 21.1006 4 19.7313L4 7.8C4 6.11984 4 5.27976 4.32698 4.63803C4.6146 4.07354 5.07354 3.6146 5.63803 3.32698C6.27976 3 7.11984 3 8.8 3H15.2C16.8802 3 17.7202 3 18.362 3.32698C18.9265 3.6146 19.3854 4.07354 19.673 4.63803C20 5.27976 20 6.11984 20 7.8V19.7313C20 21.1006 18.1322 21.4975 17.5531 20.2567Z" stroke="currentColor" stroke-width="2" stroke-linecap="round" stroke-linejoin="round"/>
</svg>
