<svg width="24" height="24" viewBox="0 0 24 24" fill="none" xmlns="http://www.w3.org/2000/svg">
<path d="M12.0003 11.5497H11.039C10.0067 11.5497 9.16992 10.7129 9.16992 9.68066C9.16992 8.6484 10.0067 7.81159 11.039 7.81159H12.0003M12.0003 11.5497H12.9616C13.9939 11.5497 14.8307 12.3865 14.8307 13.4188C14.8307 14.451 13.9939 15.2878 12.9616 15.2878H12.0003M12.0003 11.5497V7.81159M12.0003 11.5497V15.2878M12.0003 7.81159V6.56555M12.0003 7.81159H13.5609C13.8819 7.81159 14.1987 7.8844 14.4875 8.02452M12.0003 15.2878V16.5339M12.0003 15.2878H10.5783C10.4684 15.2878 10.4134 15.2878 10.3588 15.2858C10.1294 15.2775 9.90172 15.2428 9.68025 15.1825C9.62749 15.1682 9.57503 15.1518 9.4701 15.1191M17.5531 20.2567C17.1157 19.3193 15.7966 19.2661 15.2942 20.1704L15.195 20.3491C14.7163 21.2106 13.4522 21.1305 13.0862 20.2154C12.694 19.2349 11.306 19.2349 10.9138 20.2154C10.5478 21.1305 9.28365 21.2106 8.80504 20.3491L8.70577 20.1704C8.20337 19.2661 6.88435 19.3193 6.44687 20.2567C5.86781 21.4975 4 21.1006 4 19.7313L4 7.8C4 6.11984 4 5.27976 4.32698 4.63803C4.6146 4.07354 5.07354 3.6146 5.63803 3.32698C6.27976 3 7.11984 3 8.8 3H15.2C16.8802 3 17.7202 3 18.362 3.32698C18.9265 3.6146 19.3854 4.07354 19.673 4.63803C20 5.27976 20 6.11984 20 7.8V19.7313C20 21.1006 18.1322 21.4975 17.5531 20.2567Z" stroke="currentColor" stroke-width="2" stroke-linecap="round" stroke-linejoin="round"/>
</svg>
