<svg width="24" height="24" viewBox="0 0 24 24" fill="none" xmlns="http://www.w3.org/2000/svg">
<path d="M14.9455 14.4062C14.3431 15.2363 13.5002 15.7521 12.5672 15.7521C10.7364 15.7521 9.25219 13.766 9.25219 11.3161C9.25219 8.86618 10.7364 6.88013 12.5672 6.88013C13.5002 6.88013 14.3431 7.39589 14.9455 8.22596M7.7268 11.3188L12.1114 11.316M17.5531 20.2567C17.1157 19.3193 15.7966 19.2661 15.2942 20.1704L15.195 20.3491C14.7163 21.2106 13.4522 21.1305 13.0862 20.2154C12.694 19.2349 11.306 19.2349 10.9138 20.2154C10.5478 21.1305 9.28365 21.2106 8.80504 20.3491L8.70577 20.1704C8.20337 19.2661 6.88435 19.3193 6.44687 20.2567C5.86781 21.4975 4 21.1006 4 19.7313L4 7.8C4 6.11984 4 5.27976 4.32698 4.63803C4.6146 4.07354 5.07354 3.6146 5.63803 3.32698C6.27976 3 7.11984 3 8.8 3H15.2C16.8802 3 17.7202 3 18.362 3.32698C18.9265 3.6146 19.3854 4.07354 19.673 4.63803C20 5.27976 20 6.11984 20 7.8V19.7313C20 21.1006 18.1322 21.4975 17.5531 20.2567Z" stroke="currentColor" stroke-width="2" stroke-linecap="round" stroke-linejoin="round"/>
</svg>
