<svg width="24" height="24" viewBox="0 0 24 24" fill="none" xmlns="http://www.w3.org/2000/svg">
<path d="M12 3V4.5M12 7.5V10.5M12 13.5V16.5M12 19.5V21M2 13.2691V10.7309C2 9.52537 2 8.9226 2.25004 8.59864C2.46773 8.31659 2.79949 8.14585 3.15553 8.13265C3.56448 8.11749 4.05498 8.46784 5.03598 9.16856L6.81268 10.4376C7.55035 10.9645 7.91919 11.228 8.04974 11.5547C8.16401 11.8406 8.16401 12.1594 8.04974 12.4453C7.91919 12.772 7.55035 13.0355 6.81268 13.5624L5.03598 14.8314C4.05498 15.5322 3.56448 15.8825 3.15553 15.8673C2.79949 15.8541 2.46773 15.6834 2.25004 15.4014C2 15.0774 2 14.4746 2 13.2691ZM22 13.2691V10.7309C22 9.52537 22 8.9226 21.75 8.59864C21.5323 8.31659 21.2005 8.14585 20.8445 8.13265C20.4355 8.11749 19.945 8.46784 18.964 9.16856L17.1873 10.4376C16.4496 10.9645 16.0808 11.228 15.9503 11.5547C15.836 11.8406 15.836 12.1594 15.9503 12.4453C16.0808 12.772 16.4496 13.0355 17.1873 13.5624L18.964 14.8314C19.945 15.5322 20.4355 15.8825 20.8445 15.8673C21.2005 15.8541 21.5323 15.6834 21.75 15.4014C22 15.0774 22 14.4746 22 13.2691Z" stroke="currentColor" stroke-width="2" stroke-linecap="round" stroke-linejoin="round"/>
</svg>
