<svg width="24" height="24" viewBox="0 0 24 24" fill="none" xmlns="http://www.w3.org/2000/svg">
<path d="M3.85202 12.0124C3.85202 7.33629 7.64278 3.54553 12.3189 3.54553C14.9927 3.54553 17.3771 4.78495 18.9288 6.72062M6.16257 11.6705L3.80093 13.7927L1.67871 11.4311M20.1585 12.0315C20.1585 16.6833 16.3875 20.4544 11.7357 20.4544C9.40953 20.4544 7.30362 19.5114 5.77935 17.9869M17.8562 12.9747L20.3143 10.9913L22.2978 13.4494M9.09386 11.5637C9.31762 11.4983 9.42949 11.4655 9.53251 11.4276C10.4111 11.1037 11.1037 10.4111 11.4276 9.5325C11.4655 9.42949 11.4983 9.31761 11.5637 9.09386C11.6053 8.95141 11.6262 8.88019 11.6419 8.84855C11.7888 8.55246 12.2112 8.55246 12.3582 8.84855C12.3739 8.88019 12.3947 8.95141 12.4364 9.09386C12.5018 9.31761 12.5345 9.42949 12.5725 9.5325C12.8963 10.4111 13.5889 11.1037 14.4675 11.4276C14.5706 11.4655 14.6824 11.4983 14.9062 11.5637C15.0486 11.6053 15.1199 11.6262 15.1515 11.6419C15.4476 11.7888 15.4476 12.2112 15.1515 12.3582C15.1199 12.3739 15.0486 12.3947 14.9062 12.4364C14.6824 12.5018 14.5706 12.5345 14.4675 12.5725C13.5889 12.8963 12.8963 13.5889 12.5725 14.4675C12.5345 14.5706 12.5018 14.6824 12.4364 14.9062C12.3947 15.0486 12.3739 15.1199 12.3582 15.1515C12.2112 15.4476 11.7888 15.4476 11.6419 15.1515C11.6262 15.1199 11.6053 15.0486 11.5637 14.9062C11.4983 14.6824 11.4655 14.5706 11.4276 14.4675C11.1037 13.5889 10.4111 12.8963 9.53251 12.5725C9.42949 12.5345 9.31762 12.5018 9.09386 12.4364C8.95142 12.3947 8.88019 12.3739 8.84856 12.3582C8.55247 12.2112 8.55247 11.7888 8.84856 11.6419C8.88019 11.6262 8.95142 11.6053 9.09386 11.5637Z" stroke="currentColor" stroke-width="2" stroke-linecap="round" stroke-linejoin="round"/>
</svg>
