<svg width="24" height="24" viewBox="0 0 24 24" fill="none" xmlns="http://www.w3.org/2000/svg">
<path d="M14 2V5.6C14 6.44008 14 6.86012 14.1635 7.18099C14.3073 7.46323 14.5368 7.6927 14.819 7.83651C15.1399 8 15.5599 8 16.4 8H20M9.09384 14.0971C9.31759 14.0317 9.42947 13.999 9.53248 13.961C10.4111 13.6372 11.1037 12.9446 11.4275 12.066C11.4655 11.9629 11.4982 11.8511 11.5637 11.6273C11.6053 11.4849 11.6262 11.4136 11.6419 11.382C11.7888 11.0859 12.2112 11.0859 12.3581 11.382C12.3738 11.4136 12.3947 11.4849 12.4363 11.6273C12.5018 11.8511 12.5345 11.9629 12.5725 12.066C12.8963 12.9446 13.5889 13.6372 14.4675 13.961C14.5705 13.999 14.6824 14.0317 14.9062 14.0971C15.0486 14.1388 15.1198 14.1596 15.1515 14.1753C15.4476 14.3223 15.4476 14.7447 15.1515 14.8916C15.1198 14.9073 15.0486 14.9281 14.9062 14.9698C14.6824 15.0352 14.5705 15.068 14.4675 15.1059C13.5889 15.4298 12.8963 16.1224 12.5725 17.001C12.5345 17.104 12.5018 17.2159 12.4363 17.4396C12.3947 17.5821 12.3738 17.6533 12.3581 17.6849C12.2112 17.981 11.7888 17.981 11.6419 17.6849C11.6262 17.6533 11.6053 17.5821 11.5637 17.4396C11.4982 17.2159 11.4655 17.104 11.4275 17.001C11.1037 16.1224 10.4111 15.4298 9.53248 15.1059C9.42947 15.068 9.31759 15.0352 9.09384 14.9698C8.95139 14.9281 8.88017 14.9073 8.84853 14.8916C8.55244 14.7447 8.55244 14.3223 8.84853 14.1753C8.88017 14.1596 8.95139 14.1388 9.09384 14.0971ZM12.1329 2H8.8C7.11984 2 6.27976 2 5.63803 2.32698C5.07354 2.6146 4.6146 3.07354 4.32698 3.63803C4 4.27976 4 5.11984 4 6.8V17.2C4 18.8802 4 19.7202 4.32698 20.362C4.6146 20.9265 5.07354 21.3854 5.63803 21.673C6.27976 22 7.11984 22 8.8 22H15.2C16.8802 22 17.7202 22 18.362 21.673C18.9265 21.3854 19.3854 20.9265 19.673 20.362C20 19.7202 20 18.8802 20 17.2V9.61153C20 8.8337 20 8.44479 19.9077 8.0814C19.826 7.75932 19.6912 7.45307 19.5091 7.17515C19.3035 6.86158 19.0169 6.59878 18.4435 6.07319L15.3764 3.26166C14.8675 2.79522 14.6131 2.56199 14.322 2.39559C14.0639 2.24802 13.7853 2.13964 13.4953 2.07401C13.1683 2 12.8232 2 12.1329 2Z" stroke="currentColor" stroke-width="2"/>
</svg>
