<svg width="24" height="24" viewBox="0 0 24 24" fill="none" xmlns="http://www.w3.org/2000/svg">
<path d="M20.1245 12.0124C20.1245 7.33629 16.3337 3.54553 11.6576 3.54553C8.98374 3.54553 6.59939 4.78495 5.04771 6.72062M17.8139 11.6705L20.1756 13.7927L22.2978 11.4311M3.81799 12.0315C3.81799 16.6833 7.58901 20.4544 12.2408 20.4544C14.567 20.4544 16.6729 19.5114 18.1971 17.9869M6.12029 12.9747L3.66216 10.9913L1.67871 13.4494M9.09386 11.5637C9.31761 11.4983 9.42949 11.4655 9.5325 11.4276C10.4111 11.1037 11.1037 10.4111 11.4276 9.5325C11.4655 9.42949 11.4983 9.31761 11.5637 9.09386C11.6053 8.95141 11.6262 8.88019 11.6419 8.84855C11.7888 8.55246 12.2112 8.55246 12.3582 8.84855C12.3739 8.88019 12.3947 8.95141 12.4364 9.09386C12.5018 9.31761 12.5345 9.42949 12.5725 9.5325C12.8963 10.4111 13.5889 11.1037 14.4675 11.4276C14.5706 11.4655 14.6824 11.4983 14.9062 11.5637C15.0486 11.6053 15.1199 11.6262 15.1515 11.6419C15.4476 11.7888 15.4476 12.2112 15.1515 12.3582C15.1199 12.3739 15.0486 12.3947 14.9062 12.4364C14.6824 12.5018 14.5706 12.5345 14.4675 12.5725C13.5889 12.8963 12.8963 13.5889 12.5725 14.4675C12.5345 14.5706 12.5018 14.6824 12.4364 14.9062C12.3947 15.0486 12.3739 15.1199 12.3582 15.1515C12.2112 15.4476 11.7888 15.4476 11.6419 15.1515C11.6262 15.1199 11.6053 15.0486 11.5637 14.9062C11.4983 14.6824 11.4655 14.5706 11.4276 14.4675C11.1037 13.5889 10.4111 12.8963 9.5325 12.5725C9.42949 12.5345 9.31761 12.5018 9.09386 12.4364C8.95141 12.3947 8.88019 12.3739 8.84855 12.3582C8.55247 12.2112 8.55247 11.7888 8.84855 11.6419C8.88019 11.6262 8.95141 11.6053 9.09386 11.5637Z" stroke="currentColor" stroke-width="2" stroke-linecap="round" stroke-linejoin="round"/>
</svg>
