<svg width="24" height="24" viewBox="0 0 24 24" fill="none" xmlns="http://www.w3.org/2000/svg">
<path d="M9 2L12.5039 5.50387L9 9.00774M13.0039 22.5078L9.50001 19.0039L13.0039 15.5M12.5 5.49997H5C3.34315 5.49997 2 6.84312 2 8.49997V16C2 17.6568 3.34315 19 5 19M11.5 19L17.2 19C18.8802 19 19.7202 19 20.362 18.673C20.9265 18.3854 21.3854 17.9264 21.673 17.3619C22 16.7202 22 15.8801 22 14.2V10.3C22 8.61981 22 7.77973 21.673 7.138C21.3854 6.57351 20.9265 6.11457 20.362 5.82695C19.7202 5.49997 18.8802 5.49997 17.2 5.49997H17" stroke="currentColor" stroke-width="2" stroke-linecap="round" stroke-linejoin="round"/>
</svg>
