<svg width="24" height="24" viewBox="0 0 24 24" fill="none" xmlns="http://www.w3.org/2000/svg">
<path d="M3.99414 5.25001L10.9941 5.25001M4 9.75001L11 9.75001M3.99414 14.25L20.0059 14.25M3.99414 18.75L20.0059 18.75M20.0066 8.04978V6.95024C20.0066 5.75679 20.0066 5.16006 19.7586 4.8369C19.5427 4.5555 19.2134 4.38403 18.8591 4.36852C18.4521 4.35071 17.9633 4.69292 16.9855 5.37732L16.2002 5.92709C15.4442 6.45623 15.0663 6.72081 14.9331 7.05042C14.8165 7.33882 14.8165 7.6612 14.9331 7.9496C15.0663 8.27922 15.4442 8.54379 16.2002 9.07294L16.9855 9.62271C17.9633 10.3071 18.4521 10.6493 18.8591 10.6315C19.2134 10.616 19.5427 10.4445 19.7586 10.1631C20.0066 9.83997 20.0066 9.24324 20.0066 8.04978Z" stroke="currentColor" stroke-width="2" stroke-linecap="round" stroke-linejoin="round"/>
</svg>
