<svg width="24" height="24" viewBox="0 0 24 24" fill="none" xmlns="http://www.w3.org/2000/svg">
<path d="M3.99414 5.24995L9.99498 5.24995M4 9.74995L10.0008 9.74995M3.99414 14.2499L20.0059 14.25M3.99414 18.7499L20.0059 18.75M15.9259 10.4951H18.0859C18.7579 10.4951 19.094 10.4951 19.3506 10.3643C19.5764 10.2493 19.76 10.0657 19.8751 9.83991C20.0059 9.58321 20.0059 9.24718 20.0059 8.57512V6.41512C20.0059 5.74305 20.0059 5.40702 19.8751 5.15033C19.76 4.92453 19.5764 4.74096 19.3506 4.62591C19.094 4.49512 18.7579 4.49512 18.0859 4.49512H15.9259C15.2538 4.49512 14.9178 4.49512 14.6611 4.62591C14.4353 4.74096 14.2517 4.92453 14.1367 5.15033C14.0059 5.40702 14.0059 5.74305 14.0059 6.41512V8.57512C14.0059 9.24718 14.0059 9.58321 14.1367 9.83991C14.2517 10.0657 14.4353 10.2493 14.6611 10.3643C14.9178 10.4951 15.2538 10.4951 15.9259 10.4951Z" stroke="currentColor" stroke-width="2" stroke-linecap="round" stroke-linejoin="round"/>
</svg>
