<svg width="24" height="24" viewBox="0 0 24 24" fill="none" xmlns="http://www.w3.org/2000/svg">
<path d="M3.99414 14.25H9.99414M4 5.25L20.0117 5.25M4 9.75L10 9.75M3.99414 18.75L20.0059 18.75M15.9259 15H18.0859C18.7579 15 19.094 15 19.3506 14.8692C19.5764 14.7542 19.76 14.5706 19.8751 14.3448C20.0059 14.0881 20.0059 13.7521 20.0059 13.08V10.92C20.0059 10.2479 20.0059 9.91191 19.8751 9.65521C19.76 9.42942 19.5764 9.24584 19.3506 9.13079C19.094 9 18.7579 9 18.0859 9H15.9259C15.2538 9 14.9178 9 14.6611 9.13079C14.4353 9.24584 14.2517 9.42942 14.1367 9.65521C14.0059 9.91191 14.0059 10.2479 14.0059 10.92V13.08C14.0059 13.7521 14.0059 14.0881 14.1367 14.3448C14.2517 14.5706 14.4353 14.7542 14.6611 14.8692C14.9178 15 15.2538 15 15.9259 15Z" stroke="currentColor" stroke-width="2" stroke-linecap="round" stroke-linejoin="round"/>
</svg>
