<svg width="24" height="24" viewBox="0 0 24 24" fill="none" xmlns="http://www.w3.org/2000/svg">
<path d="M3.99414 14.25L10.9941 14.25M4 5.25L20.0117 5.25M4 9.75L11 9.75M3.99414 18.75L20.0059 18.75M20.0066 12.5498V11.4502C20.0066 10.2568 20.0066 9.66004 19.7586 9.33689C19.5427 9.05548 19.2134 8.88401 18.8591 8.86851C18.4521 8.8507 17.9633 9.1929 16.9855 9.87731L16.2002 10.4271C15.4442 10.9562 15.0663 11.2208 14.9331 11.5504C14.8165 11.8388 14.8165 12.1612 14.9331 12.4496C15.0663 12.7792 15.4442 13.0438 16.2002 13.5729L16.9855 14.1227C17.9633 14.8071 18.4521 15.1493 18.8591 15.1315C19.2134 15.116 19.5427 14.9445 19.7586 14.6631C20.0066 14.34 20.0066 13.7432 20.0066 12.5498Z" stroke="currentColor" stroke-width="2" stroke-linecap="round" stroke-linejoin="round"/>
</svg>
