<svg width="24" height="24" viewBox="0 0 24 24" fill="none" xmlns="http://www.w3.org/2000/svg">
<path d="M12 5H19C20.7956 5 21.6219 7.13214 20.4782 8.35174C20.4762 8.35387 20.4752 8.35494 20.3768 8.4362C20.3269 8.47737 20.1536 8.59721 20.0975 8.62934C19.9868 8.69278 19.9333 8.71494 19.8262 8.75925L4.17375 15.2408C4.06675 15.2851 4.01325 15.3072 3.90247 15.3707C3.84636 15.4028 3.67307 15.5226 3.6232 15.5638C3.52475 15.6451 3.52376 15.6461 3.52176 15.6483C2.37814 16.8679 3.20441 19 5 19H12M22 19C22 20.6569 20.6569 22 19 22C17.3431 22 16 20.6569 16 19C16 17.3431 17.3431 16 19 16C20.6569 16 22 17.3431 22 19ZM8 5C8 6.65685 6.65685 8 5 8C3.34315 8 2 6.65685 2 5C2 3.34315 3.34315 2 5 2C6.65685 2 8 3.34315 8 5Z" stroke="currentColor" stroke-width="2" stroke-linecap="round" stroke-linejoin="round"/>
</svg>
