<svg width="24" height="24" viewBox="0 0 24 24" fill="none" xmlns="http://www.w3.org/2000/svg">
<path d="M6.66091 10.1162L5.99804 9.36743L6.66091 10.1162ZM5.92872 10.578L5.64291 9.61971H5.64291L5.92872 10.578ZM4.33909 10.1162L3.67622 10.8649L4.33909 10.1162ZM5.07128 10.578L5.35709 9.61971L5.07128 10.578ZM5.5 4.3044C4.94772 4.3044 4.5 4.75211 4.5 5.3044C4.5 5.85668 4.94772 6.3044 5.5 6.3044V4.3044ZM5.505 6.3044C6.05728 6.3044 6.505 5.85668 6.505 5.3044C6.505 4.75211 6.05728 4.3044 5.505 4.3044V6.3044ZM12 4C11.4477 4 11 4.44772 11 5C11 5.55228 11.4477 6 12 6V4ZM17.1006 8.61011L16.5074 7.80506V7.80506L17.1006 8.61011ZM7.89944 15.3899L8.49264 16.1949H8.49264L7.89944 15.3899ZM12 20C12.5523 20 13 19.5523 13 19C13 18.4477 12.5523 18 12 18V20ZM16.7071 15.2929C16.3166 14.9024 15.6834 14.9024 15.2929 15.2929C14.9024 15.6834 14.9024 16.3166 15.2929 16.7071L16.7071 15.2929ZM21.2929 22.7071C21.6834 23.0976 22.3166 23.0976 22.7071 22.7071C23.0976 22.3166 23.0976 21.6834 22.7071 21.2929L21.2929 22.7071ZM22.7071 16.7071C23.0976 16.3166 23.0976 15.6834 22.7071 15.2929C22.3166 14.9024 21.6834 14.9024 21.2929 15.2929L22.7071 16.7071ZM15.2929 21.2929C14.9024 21.6834 14.9024 22.3166 15.2929 22.7071C15.6834 23.0976 16.3166 23.0976 16.7071 22.7071L15.2929 21.2929ZM8 5.78947C8 7.22683 6.97207 8.50511 5.99804 9.36743L7.32378 10.8649C8.3873 9.92335 10 8.13425 10 5.78947H8ZM5.00196 9.36743C4.02793 8.50511 3 7.22683 3 5.78947H1C1 8.13425 2.6127 9.92335 3.67622 10.8649L5.00196 9.36743ZM3 5.78947C3 4.17258 4.19262 3 5.5 3V1C2.94138 1 1 3.22063 1 5.78947H3ZM5.5 3C6.80738 3 8 4.17258 8 5.78947H10C10 3.22063 8.05862 1 5.5 1V3ZM5.99804 9.36743C5.84547 9.5025 5.79493 9.54483 5.75292 9.57303C5.73601 9.58438 5.71539 9.59809 5.64291 9.61971L6.21454 11.5363C6.76026 11.3735 7.04029 11.1159 7.32378 10.8649L5.99804 9.36743ZM3.67622 10.8649C3.95971 11.1159 4.23974 11.3735 4.78546 11.5363L5.35709 9.61971C5.28461 9.59809 5.26399 9.58438 5.24708 9.57303C5.20507 9.54483 5.15453 9.5025 5.00196 9.36743L3.67622 10.8649ZM5.64291 9.61971C5.6706 9.61145 5.66997 9.61464 5.62979 9.61892C5.59548 9.62257 5.55023 9.62508 5.5 9.62508C5.44977 9.62508 5.40452 9.62257 5.37021 9.61892C5.33003 9.61464 5.3294 9.61145 5.35709 9.61971L4.78546 11.5363C5.02708 11.6083 5.30101 11.6251 5.5 11.6251C5.69899 11.6251 5.97292 11.6083 6.21454 11.5363L5.64291 9.61971ZM5.5 6.3044H5.505V4.3044H5.5V6.3044ZM4.75 5.3044C4.75 4.89018 5.08579 4.5544 5.5 4.5544V6.5544C6.19036 6.5544 6.75 5.99475 6.75 5.3044H4.75ZM5.5 4.5544C5.91421 4.5544 6.25 4.89018 6.25 5.3044H4.25C4.25 5.99475 4.80964 6.5544 5.5 6.5544V4.5544ZM6.25 5.3044C6.25 5.71861 5.91421 6.0544 5.5 6.0544V4.0544C4.80964 4.0544 4.25 4.61404 4.25 5.3044H6.25ZM5.5 6.0544C5.08579 6.0544 4.75 5.71861 4.75 5.3044H6.75C6.75 4.61404 6.19036 4.0544 5.5 4.0544V6.0544ZM12 6H15.9142V4H12V6ZM16.5074 7.80506L7.30624 14.5848L8.49264 16.1949L17.6938 9.41517L16.5074 7.80506ZM9.08584 20H12V18H9.08584V20ZM7.30624 14.5848C4.97485 16.3027 6.1899 20 9.08584 20V18C8.12053 18 7.71551 16.7676 8.49264 16.1949L7.30624 14.5848ZM15.9142 6C16.8795 6 17.2845 7.23243 16.5074 7.80506L17.6938 9.41517C20.0252 7.6973 18.8101 4 15.9142 4V6ZM15.2929 16.7071L18.2929 19.7071L19.7071 18.2929L16.7071 15.2929L15.2929 16.7071ZM18.2929 19.7071L21.2929 22.7071L22.7071 21.2929L19.7071 18.2929L18.2929 19.7071ZM21.2929 15.2929L18.2929 18.2929L19.7071 19.7071L22.7071 16.7071L21.2929 15.2929ZM18.2929 18.2929L15.2929 21.2929L16.7071 22.7071L19.7071 19.7071L18.2929 18.2929Z" fill="currentColor"/>
</svg>
