<svg width="24" height="24" viewBox="0 0 24 24" fill="none" xmlns="http://www.w3.org/2000/svg">
<path d="M15.3557 8.64664L8.64883 15.3535M9.14883 9.14664H9.15883M14.8557 14.8535H14.8657M8.17097 3.81163C8.62386 3.88765 8.85031 3.92565 9.0664 3.89916C9.25775 3.87571 9.44278 3.81559 9.61136 3.7221C9.80176 3.61651 9.96262 3.45266 10.2843 3.12495C10.8846 2.51351 11.1847 2.20779 11.531 2.09387C11.8355 1.99369 12.1641 1.99369 12.4686 2.09387C12.8148 2.20779 13.115 2.51351 13.7152 3.12495C14.0369 3.45266 14.1978 3.61651 14.3882 3.7221C14.5568 3.81559 14.7418 3.87571 14.9332 3.89916C15.1493 3.92565 15.3757 3.88765 15.8286 3.81163C16.6736 3.66979 17.0961 3.59888 17.4432 3.71024C17.7484 3.80817 18.0143 4.0013 18.2017 4.26132C18.4149 4.557 18.478 4.98075 18.6042 5.82825C18.6719 6.28247 18.7057 6.50958 18.7977 6.70692C18.8791 6.88165 18.9935 7.03904 19.1345 7.17049C19.2938 7.31894 19.4993 7.42129 19.9104 7.626C20.6774 8.00794 21.0609 8.19892 21.2762 8.49302C21.4656 8.75165 21.5671 9.06415 21.566 9.3847C21.5646 9.7492 21.3666 10.1291 20.9706 10.889C20.7583 11.2962 20.6522 11.4998 20.6106 11.7135C20.5738 11.9028 20.5738 12.0973 20.6106 12.2865C20.6522 12.5002 20.7583 12.7039 20.9706 13.1111C21.3666 13.8709 21.5646 14.2509 21.566 14.6154C21.5671 14.9359 21.4656 15.2484 21.2762 15.507C21.0609 15.8011 20.6774 15.9921 19.9104 16.3741C19.4993 16.5788 19.2938 16.6811 19.1345 16.8296C18.9935 16.961 18.8791 17.1184 18.7977 17.2931C18.7057 17.4905 18.6719 17.7176 18.6042 18.1718C18.478 19.0193 18.4149 19.4431 18.2017 19.7387C18.0143 19.9988 17.7484 20.1919 17.4432 20.2898C17.0961 20.4012 16.6736 20.3303 15.8286 20.1884C15.3757 20.1124 15.1493 20.0744 14.9332 20.1009C14.7418 20.1244 14.5568 20.1845 14.3882 20.278C14.1978 20.3836 14.0369 20.5474 13.7152 20.8751C13.115 21.4865 12.8148 21.7923 12.4686 21.9062C12.1641 22.0064 11.8355 22.0064 11.531 21.9062C11.1847 21.7923 10.8846 21.4865 10.2843 20.8751C9.96262 20.5474 9.80176 20.3836 9.61136 20.278C9.44278 20.1845 9.25775 20.1244 9.0664 20.1009C8.85031 20.0744 8.62386 20.1124 8.17097 20.1884C7.32594 20.3303 6.90342 20.4012 6.55634 20.2898C6.25112 20.1919 5.98529 19.9988 5.79784 19.7387C5.58467 19.4431 5.52155 19.0193 5.39532 18.1718C5.32766 17.7176 5.29383 17.4905 5.20186 17.2931C5.12043 17.1184 5.00607 16.961 4.86506 16.8296C4.7058 16.6811 4.50026 16.5788 4.08918 16.3741C3.32217 15.9921 2.93867 15.8011 2.72333 15.507C2.53396 15.2484 2.43242 14.9359 2.4336 14.6154C2.43495 14.2509 2.63296 13.8709 3.02898 13.1111C3.24123 12.7039 3.34735 12.5002 3.38894 12.2865C3.42576 12.0973 3.42576 11.9028 3.38894 11.7135C3.34735 11.4998 3.24123 11.2962 3.02898 10.889C2.63296 10.1291 2.43495 9.7492 2.4336 9.3847C2.43242 9.06415 2.53396 8.75165 2.72333 8.49302C2.93866 8.19892 3.32217 8.00794 4.08918 7.626C4.50026 7.42129 4.7058 7.31894 4.86506 7.17049C5.00607 7.03904 5.12043 6.88165 5.20186 6.70692C5.29383 6.50958 5.32766 6.28247 5.39532 5.82825C5.52155 4.98075 5.58467 4.557 5.79784 4.26132C5.98529 4.0013 6.25112 3.80817 6.55634 3.71024C6.90342 3.59888 7.32594 3.66979 8.17097 3.81163ZM9.64883 9.14664C9.64883 9.42278 9.42497 9.64664 9.14883 9.64664C8.87269 9.64664 8.64883 9.42278 8.64883 9.14664C8.64883 8.87049 8.87269 8.64664 9.14883 8.64664C9.42497 8.64664 9.64883 8.87049 9.64883 9.14664ZM15.3557 14.8535C15.3557 15.1297 15.1319 15.3535 14.8557 15.3535C14.5796 15.3535 14.3557 15.1297 14.3557 14.8535C14.3557 14.5774 14.5796 14.3535 14.8557 14.3535C15.1319 14.3535 15.3557 14.5774 15.3557 14.8535Z" stroke="currentColor" stroke-width="2" stroke-linecap="round" stroke-linejoin="round"/>
</svg>
