<svg width="24" height="24" viewBox="0 0 24 24" fill="none" xmlns="http://www.w3.org/2000/svg">
<path d="M12 15.6421V18M12 18H9.57192M12 18H14.4281M8.8435 15.0351H15.1565C16.1764 15.0351 16.6863 15.0351 17.0759 14.8366C17.4185 14.662 17.6971 14.3834 17.8717 14.0408C18.0702 13.6512 18.0702 13.1413 18.0702 12.1214V9.45052C18.0702 8.43063 18.0702 7.92069 17.8717 7.53114C17.6971 7.18849 17.4185 6.9099 17.0759 6.73531C16.6863 6.53683 16.1764 6.53683 15.1565 6.53683H8.8435C7.82361 6.53683 7.31367 6.53683 6.92412 6.73531C6.58147 6.9099 6.30288 7.18849 6.12829 7.53114C5.92981 7.92069 5.92981 8.43063 5.92981 9.45052V12.1214C5.92981 13.1413 5.92981 13.6512 6.12829 14.0408C6.30288 14.3834 6.58147 14.662 6.92412 14.8366C7.31367 15.0351 7.82361 15.0351 8.8435 15.0351ZM6.8 22H17.2C18.8802 22 19.7202 22 20.362 21.673C20.9265 21.3854 21.3854 20.9265 21.673 20.362C22 19.7202 22 18.8802 22 17.2V6.8C22 5.11984 22 4.27976 21.673 3.63803C21.3854 3.07354 20.9265 2.6146 20.362 2.32698C19.7202 2 18.8802 2 17.2 2H6.8C5.11984 2 4.27976 2 3.63803 2.32698C3.07354 2.6146 2.6146 3.07354 2.32698 3.63803C2 4.27976 2 5.11984 2 6.8V17.2C2 18.8802 2 19.7202 2.32698 20.362C2.6146 20.9265 3.07354 21.3854 3.63803 21.673C4.27976 22 5.11984 22 6.8 22Z" stroke="currentColor" stroke-width="2" stroke-linecap="round" stroke-linejoin="round"/>
</svg>
