<svg width="24" height="24" viewBox="0 0 24 24" fill="none" xmlns="http://www.w3.org/2000/svg">
<path d="M17 20V16.2C17 15.0799 17 14.5198 16.782 14.092C16.5903 13.7157 16.2843 13.4097 15.908 13.218C15.4802 13 14.9201 13 13.8 13H10.2C9.0799 13 8.51984 13 8.09202 13.218C7.71569 13.4097 7.40973 13.7157 7.21799 14.092C7 14.5198 7 15.0799 7 16.2V20M7 4V4.8C7 5.9201 7 6.48016 7.21799 6.90798C7.40973 7.2843 7.71569 7.59027 8.09202 7.78201C8.51984 8 9.0799 8 10.2 8H13.8C14.9201 8 15.4802 8 15.908 7.78201C16.2843 7.59027 16.5903 7.28431 16.782 6.90798C17 6.48016 17 5.92011 17 4.8V4M15.0118 3H7.8C6.11984 3 5.27976 3 4.63803 3.32698C4.07354 3.6146 3.6146 4.07354 3.32698 4.63803C3 5.27976 3 6.11984 3 7.8V16.2C3 17.8802 3 18.7202 3.32698 19.362C3.6146 19.9265 4.07354 20.3854 4.63803 20.673C5.27976 21 6.11984 21 7.8 21H16.2C17.8802 21 18.7202 21 19.362 20.673C19.9265 20.3854 20.3854 19.9265 20.673 19.362C21 18.7202 21 17.8802 21 16.2V8.98822C21 8.25445 21 7.88757 20.9171 7.5423C20.8436 7.2362 20.7224 6.94356 20.5579 6.67514C20.3724 6.3724 20.113 6.11297 19.5941 5.59411L18.4059 4.40589C17.887 3.88703 17.6276 3.6276 17.3249 3.44208C17.0564 3.27759 16.7638 3.15638 16.4577 3.08289C16.1124 3 15.7455 3 15.0118 3Z" stroke="currentColor" stroke-width="2" stroke-linecap="round" stroke-linejoin="round"/>
</svg>
