<svg width="24" height="24" viewBox="0 0 24 24" fill="none" xmlns="http://www.w3.org/2000/svg">
<path d="M2.00024 15.3333V11.6003C2.00024 8.23999 2.00024 6.55983 2.65421 5.27636C3.22945 4.14739 4.14733 3.22951 5.2763 2.65427C6.55977 2.00031 8.23993 2.00031 11.6002 2.00031H12.0002M18.4636 21.1155V17.6001C18.4636 16.6641 18.4636 16.1961 18.2814 15.8386C18.1212 15.5242 17.8655 15.2685 17.5511 15.1083C17.1936 14.9261 16.7256 14.9261 15.7896 14.9261H12.2955C11.3595 14.9261 10.8916 14.9261 10.5341 15.1083C10.2196 15.2685 9.96393 15.5242 9.80371 15.8386C9.62156 16.1961 9.62156 16.6641 9.62156 17.6001V21.1155M9.62043 6.9683L9.62043 7.83116C9.62043 8.76713 9.62043 9.23512 9.80258 9.59261C9.96281 9.90707 10.2185 10.1627 10.5329 10.323C10.8904 10.5051 11.3584 10.5051 12.2944 10.5051H15.7885C16.7245 10.5051 17.1925 10.5051 17.55 10.323C17.8644 10.1627 18.1201 9.90707 18.2803 9.59261C18.4625 9.23512 18.4625 8.76713 18.4625 7.83116V6.9683M16.8018 6.0841H10.0953C8.6913 6.0841 7.98932 6.0841 7.45308 6.35732C6.98139 6.59766 6.5979 6.98116 6.35756 7.45285C6.08433 7.98909 6.08433 8.69106 6.08433 10.095V17.9888C6.08433 19.3928 6.08433 20.0947 6.35756 20.631C6.5979 21.1027 6.98139 21.4862 7.45308 21.7265C7.98932 21.9997 8.6913 21.9997 10.0953 21.9997H17.9891C19.393 21.9997 20.095 21.9997 20.6312 21.7265C21.1029 21.4862 21.4864 21.1027 21.7267 20.631C22 20.0947 22 19.3928 22 17.9888V11.2823C22 10.6691 22 10.3626 21.9307 10.0741C21.8693 9.81827 21.768 9.57375 21.6306 9.34945C21.4755 9.09647 21.2588 8.87969 20.8252 8.44613L19.6379 7.25887C19.2044 6.82531 18.9876 6.60853 18.7346 6.4535C18.5103 6.31605 18.2658 6.21477 18.01 6.15336C17.7215 6.0841 17.4149 6.0841 16.8018 6.0841Z" stroke="currentColor" stroke-width="2" stroke-linecap="round" stroke-linejoin="round"/>
</svg>
