<svg width="24" height="24" viewBox="0 0 24 24" fill="none" xmlns="http://www.w3.org/2000/svg">
<path d="M3 8L3 7.8C3 6.11984 3 5.27976 3.32698 4.63803C3.6146 4.07354 4.07354 3.6146 4.63803 3.32698C5.27977 3 6.11984 3 7.8 3L16.2 3C17.8802 3 18.7202 3 19.362 3.32698C19.9265 3.6146 20.3854 4.07354 20.673 4.63803C21 5.27976 21 6.11984 21 7.8V16.2C21 17.8802 21 18.7202 20.673 19.362C20.3854 19.9265 19.9265 20.3854 19.362 20.673C18.7202 21 17.8802 21 16.2 21H16M12.3789 7.31653H16.7459M16.7459 7.31653L16.7458 11.6835M16.7459 7.31653L16.5007 7.5L11.9063 12.2294L11.6245 12.5073M11.6245 12.5073C11.5004 12.3666 11.3501 12.2497 11.181 12.1635C10.8601 12 10.4401 12 9.6 12H5.4C4.55992 12 4.13988 12 3.81901 12.1635C3.53677 12.3073 3.3073 12.5368 3.16349 12.819C3 13.1399 3 13.5599 3 14.4L3 16.2C3 17.8802 3 18.7202 3.32698 19.362C3.6146 19.9265 4.07354 20.3854 4.63803 20.673C5.27976 21 6.11984 21 7.8 21H9.6C10.4401 21 10.8601 21 11.181 20.8365C11.4632 20.6927 11.6927 20.4632 11.8365 20.181C12 19.8601 12 19.4401 12 18.6V14.4C12 13.5599 12 13.1399 11.8365 12.819C11.7789 12.7059 11.7075 12.6013 11.6245 12.5073Z" stroke="currentColor" stroke-width="2" stroke-linecap="round" stroke-linejoin="round"/>
</svg>
