<svg width="24" height="24" viewBox="0 0 24 24" fill="none" xmlns="http://www.w3.org/2000/svg">
<path d="M9.75 3L14.25 3M21 9.75V14.25M21 6.375V5.25C21 4.00736 19.9926 3 18.75 3L17.625 3M21 17.625V18.75C21 19.9926 19.9926 21 18.75 21H17.25M6.375 3L5.25 3C4.00736 3 3 4.00736 3 5.25L3 6.75M9.6 12H5.4C4.55992 12 4.13988 12 3.81901 12.1635C3.53677 12.3073 3.3073 12.5368 3.16349 12.819C3 13.1399 3 13.5599 3 14.4L3 16.2C3 17.8802 3 18.7202 3.32698 19.362C3.6146 19.9265 4.07354 20.3854 4.63803 20.673C5.27976 21 6.11984 21 7.8 21H9.6C10.4401 21 10.8601 21 11.181 20.8365C11.4632 20.6927 11.6927 20.4632 11.8365 20.181C12 19.8601 12 19.4401 12 18.6V14.4C12 13.5599 12 13.1399 11.8365 12.819C11.6927 12.5368 11.4632 12.3073 11.181 12.1635C10.8601 12 10.4401 12 9.6 12Z" stroke="currentColor" stroke-width="2" stroke-linecap="round" stroke-linejoin="round"/>
</svg>
