<svg width="24" height="24" viewBox="0 0 24 24" fill="none" xmlns="http://www.w3.org/2000/svg">
<path d="M21 16V16.2C21 17.8802 21 18.7202 20.673 19.362C20.3854 19.9265 19.9265 20.3854 19.362 20.673C18.7202 21 17.8802 21 16.2 21H7.8C6.11984 21 5.27976 21 4.63803 20.673C4.07354 20.3854 3.6146 19.9265 3.32698 19.362C3 18.7202 3 17.8802 3 16.2V7.8C3 6.11984 3 5.27976 3.32698 4.63803C3.6146 4.07354 4.07354 3.6146 4.63803 3.32698C5.27976 3 6.11984 3 7.8 3H8M11.621 16.6835H7.25403M7.25403 16.6835V12.3165M7.25403 16.6835L7.5 16.5L12.0944 11.7706L12.3777 11.4952M12.3777 11.4952C12.5014 11.6347 12.6509 11.7508 12.819 11.8365C13.1399 12 13.5599 12 14.4 12H18.6C19.4401 12 19.8601 12 20.181 11.8365C20.4632 11.6927 20.6927 11.4632 20.8365 11.181C21 10.8601 21 10.4401 21 9.6V7.8C21 6.11984 21 5.27976 20.673 4.63803C20.3854 4.07354 19.9265 3.6146 19.362 3.32698C18.7202 3 17.8802 3 16.2 3H14.4C13.5599 3 13.1399 3 12.819 3.16349C12.5368 3.3073 12.3073 3.53677 12.1635 3.81901C12 4.13988 12 4.55992 12 5.4V9.6C12 10.4401 12 10.8601 12.1635 11.181C12.2216 11.2951 12.2937 11.4005 12.3777 11.4952Z" stroke="currentColor" stroke-width="2" stroke-linecap="round" stroke-linejoin="round"/>
</svg>
