<svg width="24" height="24" viewBox="0 0 24 24" fill="none" xmlns="http://www.w3.org/2000/svg">
<path d="M19 11C19 10.4477 18.5523 10 18 10C17.4477 10 17 10.4477 17 11H19ZM18 22V23H19V22H18ZM7 22H6V23H7V22ZM8 11C8 10.4477 7.55228 10 7 10C6.44772 10 6 10.4477 6 11H8ZM7 15C7.55228 15 8 14.5523 8 14C8 13.4477 7.55228 13 7 13V15ZM18 13C17.4477 13 17 13.4477 17 14C17 14.5523 17.4477 15 18 15V13ZM17.25 21C16.6977 21 16.25 21.4477 16.25 22C16.25 22.5523 16.6977 23 17.25 23V21ZM7.75 23C8.30228 23 8.75 22.5523 8.75 22C8.75 21.4477 8.30228 21 7.75 21V23ZM3.10899 21.454L4 21H4L3.10899 21.454ZM3.54601 21.891L4 21H4L3.54601 21.891ZM21.891 21.454L21 21L21 21L21.891 21.454ZM21.454 21.891L21.908 22.782L21.908 22.782L21.454 21.891ZM21.891 14.546L21 15L21 15L21.891 14.546ZM21.454 14.109L21.908 13.218L21.908 13.218L21.454 14.109ZM3.10899 14.546L2.21799 14.092H2.21799L3.10899 14.546ZM3.54601 14.109L3.09202 13.218H3.09202L3.54601 14.109ZM18.4759 11.8517C18.9463 12.1411 19.5622 11.9945 19.8517 11.5241C20.1411 11.0537 19.9945 10.4378 19.5241 10.1483L18.4759 11.8517ZM5.4759 10.1483C5.00554 10.4378 4.85889 11.0537 5.14834 11.5241C5.43779 11.9945 6.05374 12.1411 6.5241 11.8517L5.4759 10.1483ZM12.5 2L12.8939 1.08085C12.585 0.948442 12.2301 0.980115 11.9495 1.16516C11.6689 1.3502 11.5 1.66386 11.5 2L12.5 2ZM16 3.5L16.2747 4.46152C16.6816 4.34528 16.9712 3.98554 16.998 3.56325C17.0248 3.14096 16.7828 2.74754 16.3939 2.58085L16 3.5ZM14.4824 22V23H15.4824V22H14.4824ZM10.5176 22H9.51758V23H10.5176V22ZM14.2094 16.2844L13.7554 17.1754L14.2094 16.2844ZM14.4279 16.5029L13.5369 16.9569L14.4279 16.5029ZM10.7906 16.2844L11.2446 17.1754L10.7906 16.2844ZM10.5721 16.5029L11.4631 16.9569L10.5721 16.5029ZM17 11V22H19V11H17ZM18 21H7V23H18V21ZM8 22V11H6V22H8ZM21 15.6V20.4H23V15.6H21ZM4 20.4V15.6H2V20.4H4ZM4.6 15H7V13H4.6V15ZM18 15H20.4V13H18V15ZM20.4 21H17.25V23H20.4V21ZM7.75 21H4.6V23H7.75V21ZM2 20.4C2 20.6635 1.99922 20.9213 2.01695 21.1382C2.03562 21.3668 2.07969 21.6366 2.21799 21.908L4 21C4.0293 21.0575 4.01887 21.0803 4.0103 20.9754C4.00078 20.8588 4 20.6965 4 20.4H2ZM4.6 21C4.30347 21 4.14122 20.9992 4.02463 20.9897C3.91972 20.9811 3.94249 20.9707 4 21L3.09202 22.782C3.36344 22.9203 3.63318 22.9644 3.86177 22.9831C4.07869 23.0008 4.33647 23 4.6 23V21ZM2.21799 21.908C2.40973 22.2843 2.7157 22.5903 3.09202 22.782L4 21H4L2.21799 21.908ZM21 20.4C21 20.6965 20.9992 20.8588 20.9897 20.9754C20.9811 21.0803 20.9707 21.0575 21 21L22.782 21.908C22.9203 21.6366 22.9644 21.3668 22.9831 21.1382C23.0008 20.9213 23 20.6635 23 20.4H21ZM20.4 23C20.6635 23 20.9213 23.0008 21.1382 22.9831C21.3668 22.9644 21.6366 22.9203 21.908 22.782L21 21C21.0575 20.9707 21.0803 20.9811 20.9754 20.9897C20.8588 20.9992 20.6965 21 20.4 21V23ZM21 21L21 21L21.908 22.782C22.2843 22.5903 22.5903 22.2843 22.782 21.908L21 21ZM23 15.6C23 15.3365 23.0008 15.0787 22.9831 14.8618C22.9644 14.6332 22.9203 14.3634 22.782 14.092L21 15C20.9707 14.9425 20.9811 14.9197 20.9897 15.0246C20.9992 15.1412 21 15.3035 21 15.6H23ZM20.4 15C20.6965 15 20.8588 15.0008 20.9754 15.0103C21.0803 15.0189 21.0575 15.0293 21 15L21.908 13.218C21.6366 13.0797 21.3668 13.0356 21.1382 13.0169C20.9213 12.9992 20.6635 13 20.4 13V15ZM22.782 14.092C22.5903 13.7157 22.2843 13.4097 21.908 13.218L21 15L21 15L22.782 14.092ZM4 15.6C4 15.3035 4.00078 15.1412 4.0103 15.0246C4.01887 14.9197 4.0293 14.9425 4 15L2.21799 14.092C2.07969 14.3634 2.03562 14.6332 2.01695 14.8618C1.99922 15.0787 2 15.3365 2 15.6H4ZM4.6 13C4.33647 13 4.07869 12.9992 3.86177 13.0169C3.63318 13.0356 3.36344 13.0797 3.09202 13.218L4 15C3.94249 15.0293 3.91972 15.0189 4.02463 15.0103C4.14122 15.0008 4.30347 15 4.6 15V13ZM4 15L3.09202 13.218C2.7157 13.4097 2.40973 13.7157 2.21799 14.092L4 15ZM11.9759 7.85166L18.4759 11.8517L19.5241 10.1483L13.0241 6.14834L11.9759 7.85166ZM6.5241 11.8517L13.0241 7.85166L11.9759 6.14834L5.4759 10.1483L6.5241 11.8517ZM12.1061 2.91915L15.6061 4.41915L16.3939 2.58085L12.8939 1.08085L12.1061 2.91915ZM11.5 2V4.5H13.5V2H11.5ZM11.5 4.5V7H13.5V4.5H11.5ZM15.7253 2.53848L12.2253 3.53848L12.7747 5.46152L16.2747 4.46152L15.7253 2.53848ZM11.3176 17.2299H13.6824V15.2299H11.3176V17.2299ZM13.4824 17.0299V22H15.4824V17.0299H13.4824ZM14.4824 21H10.5176V23H14.4824V21ZM11.5176 22V17.0299H9.51758V22H11.5176ZM13.6824 17.2299C13.7547 17.2299 13.8074 17.2299 13.8521 17.2306C13.8969 17.2313 13.9192 17.2325 13.9294 17.2333C13.9392 17.2341 13.923 17.2335 13.8921 17.2262C13.8581 17.2182 13.8098 17.203 13.7554 17.1754L14.6634 15.3933C14.4455 15.2823 14.2375 15.2519 14.0923 15.24C13.9587 15.2291 13.8059 15.2299 13.6824 15.2299V17.2299ZM15.4824 17.0299C15.4824 16.9063 15.4832 16.7536 15.4723 16.62C15.4604 16.4748 15.43 16.2668 15.3189 16.0489L13.5369 16.9569C13.5092 16.9025 13.4941 16.8542 13.4861 16.8202C13.4788 16.7893 13.4781 16.7731 13.4789 16.7829C13.4798 16.7931 13.481 16.8154 13.4817 16.8601C13.4824 16.9048 13.4824 16.9576 13.4824 17.0299H15.4824ZM13.7554 17.1754C13.6613 17.1274 13.5849 17.0509 13.5369 16.9569L15.3189 16.0489C15.1751 15.7666 14.9457 15.5372 14.6634 15.3933L13.7554 17.1754ZM11.3176 15.2299C11.1941 15.2299 11.0413 15.2291 10.9077 15.24C10.7625 15.2519 10.5545 15.2823 10.3366 15.3933L11.2446 17.1754C11.1902 17.203 11.1419 17.2182 11.1079 17.2262C11.077 17.2335 11.0608 17.2341 11.0706 17.2333C11.0808 17.2325 11.1031 17.2313 11.1479 17.2306C11.1926 17.2299 11.2453 17.2299 11.3176 17.2299V15.2299ZM11.5176 17.0299C11.5176 16.9576 11.5176 16.9048 11.5183 16.8601C11.519 16.8154 11.5202 16.7931 11.5211 16.7829C11.5219 16.7731 11.5212 16.7893 11.5139 16.8202C11.5059 16.8542 11.4908 16.9025 11.4631 16.9569L9.68107 16.0489C9.57002 16.2668 9.53958 16.4748 9.52771 16.62C9.5168 16.7536 9.51758 16.9063 9.51758 17.0299H11.5176ZM10.3366 15.3933C10.0543 15.5372 9.82488 15.7666 9.68107 16.0489L11.4631 16.9569C11.4151 17.0509 11.3387 17.1274 11.2446 17.1754L10.3366 15.3933Z" fill="currentColor"/>
</svg>
