<svg width="24" height="24" viewBox="0 0 24 24" fill="none" xmlns="http://www.w3.org/2000/svg">
<path d="M18 12L18.0088 12.0048M22 12L22.0088 12.0048M3.63097 8.84482C3.90164 8.94517 4.19442 9 4.5 9C5.88071 9 7 7.88071 7 6.5C7 5.11929 5.88071 4 4.5 4C3.11929 4 2 5.11929 2 6.5C2 7.57513 2.67867 8.49175 3.63097 8.84482ZM3.63097 8.84482L9.96654 12.0025M22.0001 18L9.96654 12.0025M3.68456 15.136C2.70423 15.4741 2 16.4048 2 17.5C2 18.8807 3.11929 20 4.5 20C5.88071 20 7 18.8807 7 17.5C7 16.1193 5.88071 15 4.5 15C4.21448 15 3.94014 15.0479 3.68456 15.136ZM3.68456 15.136L9.96654 12.0025M22 6L9.96654 12.0025" stroke="currentColor" stroke-width="2" stroke-linecap="round" stroke-linejoin="round"/>
</svg>
