<svg width="24" height="24" viewBox="0 0 24 24" fill="none" xmlns="http://www.w3.org/2000/svg">
<path d="M4 15H4.38462C6.93362 15 9 17.0664 9 19.6154C9 19.8278 9.1722 20 9.38462 20H14.6154C14.8278 20 15 19.8278 15 19.6154C15 17.0664 17.0664 15 19.6154 15H21L17.5 2H15M8.5 17H15.5M6 20C6 21.1046 5.10457 22 4 22C2.89543 22 2 21.1046 2 20C2 18.8954 2.89543 18 4 18C5.10457 18 6 18.8954 6 20ZM22 20C22 21.1046 21.1046 22 20 22C18.8954 22 18 21.1046 18 20C18 18.8954 18.8954 18 20 18C21.1046 18 22 18.8954 22 20Z" stroke="currentColor" stroke-width="2" stroke-linecap="round" stroke-linejoin="round"/>
</svg>
