<svg width="24" height="24" viewBox="0 0 24 24" fill="none" xmlns="http://www.w3.org/2000/svg">
<path d="M16 6V8M12 6V8M12 2H15.2C16.8802 2 17.7202 2 18.362 2.32698C18.9265 2.6146 19.3854 3.07354 19.673 3.63803C20 4.27976 20 5.11984 20 6.8V17.2C20 18.8802 20 19.7202 19.673 20.362C19.3854 20.9265 18.9265 21.3854 18.362 21.673C17.7202 22 16.8802 22 15.2 22H8.8C7.11984 22 6.27976 22 5.63803 21.673C5.07354 21.3854 4.6146 20.9265 4.32698 20.362C4 19.7202 4 18.8802 4 17.2V11.1837C4 10.5597 4 10.2477 4.06125 9.94921C4.1156 9.68443 4.20548 9.4282 4.32845 9.18749C4.46706 8.91617 4.66199 8.67252 5.05183 8.18521L8.75061 3.56174C9.09166 3.13543 9.26218 2.92227 9.45779 2.7498C9.87234 2.38427 10.3798 2.14037 10.9242 2.045C11.1811 2 11.4541 2 12 2ZM8.8 18H15.2C15.48 18 15.62 18 15.727 17.9455C15.8211 17.8976 15.8976 17.8211 15.9455 17.727C16 17.62 16 17.48 16 17.2V13.8C16 13.52 16 13.38 15.9455 13.273C15.8976 13.1789 15.8211 13.1024 15.727 13.0545C15.62 13 15.48 13 15.2 13H8.8C8.51997 13 8.37996 13 8.273 13.0545C8.17892 13.1024 8.10243 13.1789 8.0545 13.273C8 13.38 8 13.52 8 13.8V17.2C8 17.48 8 17.62 8.0545 17.727C8.10243 17.8211 8.17892 17.8976 8.273 17.9455C8.37996 18 8.51997 18 8.8 18Z" stroke="currentColor" stroke-width="2" stroke-linecap="round" stroke-linejoin="round"/>
</svg>
