<svg width="24" height="24" viewBox="0 0 24 24" fill="none" xmlns="http://www.w3.org/2000/svg">
<path d="M21 21L17 17M8.81538 8.75224C8.90622 8.494 9.04266 8.25664 9.21628 8.05041C9.37941 7.85662 9.57535 7.6903 9.79711 7.55998C10.2549 7.29095 10.7931 7.1926 11.3164 7.28237C11.8397 7.37213 12.3144 7.64421 12.6563 8.05041C12.9983 8.45661 13.1854 8.97072 13.1846 9.50168C13.1846 11.0006 10.9363 11.75 10.9363 11.75V11.957M10.9654 14.75H10.9754M19 11C19 15.4183 15.4183 19 11 19C6.58172 19 3 15.4183 3 11C3 6.58172 6.58172 3 11 3C15.4183 3 19 6.58172 19 11Z" stroke="currentColor" stroke-width="2" stroke-linecap="round" stroke-linejoin="round"/>
</svg>
