<svg width="24" height="24" viewBox="0 0 24 24" fill="none" xmlns="http://www.w3.org/2000/svg">
<path d="M21 16.7461V18.873M21 18.873V21M21 18.873H18.5C17.6716 18.873 17 18.2015 17 17.373V13.5M8.42445 13.9369L8.58452 14.2248C8.7839 14.5834 8.88359 14.7626 8.9857 14.9022C9.72397 15.9114 11.0264 16.2738 12.1517 15.7831C12.3074 15.7153 12.48 15.6118 12.8254 15.4047L18.2723 12.1392C19.5698 11.3613 20.2186 10.9723 20.5684 10.413C20.8761 9.92102 21.0259 9.3405 20.9963 8.75466C20.9627 8.08866 20.5882 7.41498 19.839 6.06763L19.7082 5.83241C18.9591 4.48507 18.5846 3.81139 18.0459 3.44816C17.5721 3.12866 17.0131 2.97311 16.4489 3.00381C15.8075 3.03871 15.1587 3.42766 13.8612 4.20555L3.94666 10.1495C3.75635 10.2636 3.66119 10.3207 3.64491 10.3311C2.28657 11.2001 3.27036 13.3643 4.77981 12.8277C4.7979 12.8213 4.9008 12.7812 5.10659 12.7012C5.14505 12.6862 5.16427 12.6787 5.18127 12.6724C6.38634 12.2228 7.72924 12.7229 8.38441 13.8653C8.39365 13.8815 8.40391 13.8999 8.42445 13.9369Z" stroke="currentColor" stroke-width="2" stroke-linecap="round" stroke-linejoin="round"/>
</svg>
