<svg width="24" height="24" viewBox="0 0 24 24" fill="none" xmlns="http://www.w3.org/2000/svg">
<path d="M2.5 8.66667H21.5M2.5 15.3333H21.5M5.48679 18.6687H9.12376M18.4887 18.6687H18.4995M6 22H18C19.4001 22 20.1002 22 20.635 21.7275C21.1054 21.4878 21.4878 21.1054 21.7275 20.635C22 20.1002 22 19.4001 22 18V6C22 4.59987 22 3.8998 21.7275 3.36502C21.4878 2.89462 21.1054 2.51217 20.635 2.27248C20.1002 2 19.4001 2 18 2H6C4.59987 2 3.8998 2 3.36502 2.27248C2.89462 2.51217 2.51217 2.89462 2.27248 3.36502C2 3.8998 2 4.59987 2 6V18C2 19.4001 2 20.1002 2.27248 20.635C2.51217 21.1054 2.89462 21.4878 3.36502 21.7275C3.8998 22 4.59987 22 6 22Z" stroke="currentColor" stroke-width="2" stroke-linecap="round" stroke-linejoin="round"/>
</svg>
