<svg width="24" height="24" viewBox="0 0 24 24" fill="none" xmlns="http://www.w3.org/2000/svg">
<path d="M2.5 8H21.5M2.5 15H21.5M5.48679 18.4297H9.12376M18.4887 18.4297H18.4995M5.48679 11.591H9.12376M18.4887 11.591H18.4995M2 9.10378V17.2C2 18.8802 2 19.7202 2.32698 20.362C2.6146 20.9265 3.07354 21.3854 3.63803 21.673C4.27976 22 5.11984 22 6.8 22H17.2C18.8802 22 19.7202 22 20.362 21.673C20.9265 21.3854 21.3854 20.9265 21.673 20.362C22 19.7202 22 18.8802 22 17.2V9.10378C22 8.52897 22 8.24156 21.9476 7.96485C21.9011 7.71928 21.824 7.48049 21.7183 7.25403C21.5992 6.99884 21.4312 6.7656 21.0954 6.29912L19.4366 3.99534C18.9104 3.26444 18.6473 2.89899 18.3091 2.63507C18.0097 2.40136 17.6686 2.22664 17.304 2.1202C16.8922 2 16.4419 2 15.5413 2H8.45872C7.55808 2 7.10777 2 6.69602 2.1202C6.33139 2.22664 5.9903 2.40136 5.69086 2.63507C5.35273 2.89899 5.0896 3.26444 4.56336 3.99534L2.90464 6.29912C2.56877 6.7656 2.40084 6.99884 2.28169 7.25403C2.17595 7.48049 2.09893 7.71928 2.05242 7.96485C2 8.24156 2 8.52897 2 9.10378Z" stroke="currentColor" stroke-width="2" stroke-linecap="round" stroke-linejoin="round"/>
</svg>
