<svg width="24" height="24" viewBox="0 0 24 24" fill="none" xmlns="http://www.w3.org/2000/svg">
<path d="M14.8652 4.05042H5.5C4.11929 4.05042 3 5.1697 3 6.55042C3 7.93113 4.11929 9.05042 5.5 9.05042H14.8652M9.24707 15.038H18.5449C19.9256 15.038 21.0449 16.1573 21.0449 17.538C21.0449 18.9187 19.9256 20.038 18.5449 20.038H9.24707M21.0449 6.52942C21.0449 8.46242 19.4779 10.0294 17.5449 10.0294C15.6119 10.0294 14.0449 8.46242 14.0449 6.52942C14.0449 4.59642 15.6119 3.02942 17.5449 3.02942C19.4779 3.02942 21.0449 4.59642 21.0449 6.52942ZM3 17.517C3 19.45 4.567 21.017 6.5 21.017C8.433 21.017 10 19.45 10 17.517C10 15.584 8.433 14.017 6.5 14.017C4.567 14.017 3 15.584 3 17.517Z" stroke="currentColor" stroke-width="2" stroke-linecap="round" stroke-linejoin="round"/>
</svg>
