<svg width="24" height="24" viewBox="0 0 24 24" fill="none" xmlns="http://www.w3.org/2000/svg">
<path d="M9.34573 19.5106L9.94123 20.8499C10.1183 21.2486 10.4072 21.5873 10.7729 21.825C11.1386 22.0628 11.5655 22.1893 12.0017 22.1892C12.4379 22.1893 12.8648 22.0628 13.2305 21.825C13.5963 21.5873 13.8852 21.2486 14.0622 20.8499L14.6577 19.5106C14.8697 19.0353 15.2262 18.6391 15.6766 18.3784C16.1298 18.117 16.6541 18.0057 17.1744 18.0603L18.6315 18.2154C19.0652 18.2613 19.5029 18.1804 19.8915 17.9824C20.2802 17.7845 20.6031 17.478 20.821 17.1003C21.0392 16.7227 21.1432 16.2899 21.1203 15.8545C21.0974 15.419 20.9486 14.9995 20.6919 14.6469L19.8293 13.4616C19.5221 13.0364 19.3579 12.5246 19.3606 12C19.3605 11.4769 19.5261 10.9672 19.8338 10.5441L20.6965 9.35876C20.9531 9.00619 21.1019 8.58672 21.1248 8.15124C21.1477 7.71576 21.0438 7.28299 20.8255 6.90544C20.6076 6.52766 20.2847 6.22122 19.8961 6.02329C19.5074 5.82535 19.0697 5.74441 18.636 5.79029L17.1789 5.94539C16.6586 6.00004 16.1343 5.88868 15.6811 5.62726C15.2299 5.36509 14.8732 4.9668 14.6622 4.48947L14.0622 3.15016C13.8852 2.75149 13.5963 2.41274 13.2305 2.17501C12.8648 1.93728 12.4379 1.81078 12.0017 1.81085C11.5655 1.81078 11.1386 1.93728 10.7729 2.17501C10.4072 2.41274 10.1183 2.75149 9.94123 3.15016L9.34573 4.48947C9.13474 4.9668 8.77807 5.36509 8.32682 5.62726C7.87362 5.88868 7.34934 6.00004 6.82901 5.94539L5.36743 5.79029C4.93371 5.74441 4.49599 5.82535 4.10735 6.02329C3.71871 6.22122 3.39584 6.52766 3.17789 6.90544C2.95966 7.28299 2.85569 7.71576 2.8786 8.15124C2.90151 8.58672 3.05031 9.00619 3.30695 9.35876L4.16963 10.5441C4.47729 10.9672 4.64296 11.4769 4.64287 12C4.64296 12.5231 4.47729 13.0328 4.16963 13.4559L3.30695 14.6413C3.05031 14.9939 2.90151 15.4133 2.8786 15.8488C2.85569 16.2843 2.95966 16.7171 3.17789 17.0946C3.39606 17.4722 3.71896 17.7785 4.10755 17.9764C4.49613 18.1743 4.93374 18.2553 5.36743 18.2098L6.82448 18.0547C7.34481 18 7.86909 18.1114 8.32229 18.3728C8.77523 18.6342 9.13356 19.0326 9.34573 19.5106Z" stroke="currentColor" stroke-width="2" stroke-linecap="round" stroke-linejoin="round"/>
<path d="M15.0439 12C15.0439 13.6806 13.6816 15.043 12.001 15.043C10.3204 15.043 8.95801 13.6806 8.95801 12C8.95801 10.3194 10.3204 8.95705 12.001 8.95705C13.6816 8.95705 15.0439 10.3194 15.0439 12Z" stroke="currentColor" stroke-width="2" stroke-linecap="round" stroke-linejoin="round"/>
</svg>
