<svg width="24" height="24" viewBox="0 0 24 24" fill="none" xmlns="http://www.w3.org/2000/svg">
<path d="M16.7275 17C15.3884 17.937 13.7584 18.4867 12 18.4867C7.44041 18.4867 3.74414 14.7904 3.74414 10.2308C3.74414 8.47099 4.29478 6.83974 5.23316 5.5M19.3472 14C19.928 12.8701 20.2559 11.5887 20.2559 10.2308C20.2559 5.67125 16.5596 1.97498 12 1.97498C10.7488 1.97498 9.56263 2.2533 8.5 2.75142M19.0771 19.6661C17.1057 21.1472 14.6551 22.0249 11.9995 22.0249C9.34386 22.0249 6.89324 21.1472 4.92188 19.6661M1.75 1.99995L21.75 21.9999" stroke="currentColor" stroke-width="2" stroke-linecap="round" stroke-linejoin="round"/>
</svg>
