<svg width="24" height="24" viewBox="0 0 24 24" fill="none" xmlns="http://www.w3.org/2000/svg">
<path d="M6.99988 10.9901H6.20964C5.08954 10.9901 4.52949 10.9901 4.10166 11.2081C3.72534 11.3999 3.41938 11.7058 3.22763 12.0821C3.00964 12.51 3.00964 13.07 3.00964 14.1901L3.00964 16.1901C3.00964 17.8703 3.00964 18.7104 3.33662 19.3521C3.62424 19.9166 4.08319 20.3755 4.64767 20.6631C5.28941 20.9901 6.12949 20.9901 7.80964 20.9901H16.2096C17.8898 20.9901 18.7299 20.9901 19.3716 20.6631C19.9361 20.3755 20.395 19.9166 20.6827 19.3521C21.0096 18.7104 21.0096 17.8703 21.0096 16.1901V14.1901C21.0096 13.07 21.0096 12.51 20.7917 12.0821C20.5999 11.7058 20.2939 11.3999 19.9176 11.2081C19.4898 10.9901 18.9297 10.9901 17.8096 10.9901H16.9999M12.0097 3.00989L16.2788 7.279M12.0097 3.00989L7.74054 7.279M12.0097 3.00989L12.0097 13.6307" stroke="currentColor" stroke-width="2" stroke-linecap="round" stroke-linejoin="round"/>
</svg>
