<svg width="24" height="24" viewBox="0 0 24 24" fill="none" xmlns="http://www.w3.org/2000/svg">
<path d="M20 13.4444V16.2C20 17.8801 20 18.7202 19.673 19.362C19.3854 19.9264 18.9265 20.3854 18.362 20.673C17.7202 21 16.8802 21 15.2 21H7.8C6.11984 21 5.27976 21 4.63803 20.673C4.07354 20.3854 3.6146 19.9264 3.32698 19.362C3 18.7202 3 17.8801 3 16.2V8.79998C3 7.11983 3 6.27975 3.32698 5.63801C3.6146 5.07353 4.07354 4.61459 4.63803 4.32697C5.27976 3.99999 6.11984 3.99999 7.8 3.99999H10.5556M21.0907 2.99707L15.7049 2.99707M21.0907 2.99707L21.0902 8.46513M21.0907 2.99707L12.5885 11.5" stroke="currentColor" stroke-width="2" stroke-linecap="round" stroke-linejoin="round"/>
</svg>
