<svg width="24" height="24" viewBox="0 0 24 24" fill="none" xmlns="http://www.w3.org/2000/svg">
<path d="M10.7073 6.09973C10.7073 4.97344 10.7073 4.4103 10.8177 4.09188C11.207 2.96954 12.4831 2.43196 13.5582 2.93737C13.8632 3.08076 14.2661 3.47413 15.0721 4.26088L20.6543 9.71015C21.4734 10.5098 21.8829 10.9096 22.0359 11.3728C22.1704 11.7801 22.1704 12.2199 22.0359 12.6272C21.8829 13.0904 21.4734 13.4902 20.6543 14.2898L15.0721 19.7391C14.2661 20.5258 13.8632 20.9192 13.5582 21.0626C12.4831 21.568 11.207 21.0304 10.8177 19.9081C10.7073 19.5897 10.7073 19.0265 10.7073 17.9003C10.7073 17.62 10.7073 17.4798 10.6835 17.3727C10.6001 16.9973 10.3319 16.719 9.95981 16.6219C9.85368 16.5942 9.71016 16.5889 9.42312 16.5784C7.64331 16.5128 5.77288 16.5354 3.52827 18.4846C2.9776 18.9628 2.70226 19.2018 2.51856 19.2038C2.35243 19.2056 2.21245 19.1365 2.11289 19.0035C2.00278 18.8565 2.02323 18.5249 2.06412 17.8617C2.4917 10.9279 5.04496 7.91666 9.42295 7.44992C9.75256 7.41478 9.91737 7.39721 10.0169 7.36479C10.3826 7.2457 10.6059 6.99731 10.6856 6.62104C10.7073 6.51863 10.7073 6.379 10.7073 6.09973Z" stroke="currentColor" stroke-width="2" stroke-linecap="round" stroke-linejoin="round"/>
</svg>
