<svg width="24" height="24" viewBox="0 0 24 24" fill="none" xmlns="http://www.w3.org/2000/svg">
<path d="M15.2932 6.29523L8.7045 10.7001M15.2932 6.29523C15.7767 7.30365 16.807 8 18 8C19.6569 8 21 6.65685 21 5C21 3.34315 19.6569 2 18 2C16.3431 2 15 3.34315 15 5C15 5.46386 15.1053 5.90314 15.2932 6.29523ZM8.7045 10.7001C8.22013 9.69419 7.19114 9 6 9C4.34315 9 3 10.3431 3 12C3 13.6569 4.34315 15 6 15C7.04349 15 7.96254 14.4672 8.5 13.6589M8.7045 10.7001C8.89388 11.0933 9 11.5343 9 12C9 12.6134 8.81592 13.1837 8.5 13.6589M15.3017 17.6873L8.5 13.6589M15.3017 17.6873C15.1084 18.0838 15 18.5293 15 19C15 20.6569 16.3431 22 18 22C19.6569 22 21 20.6569 21 19C21 17.3431 19.6569 16 18 16C16.8139 16 15.7886 16.6883 15.3017 17.6873Z" stroke="currentColor" stroke-width="2" stroke-linecap="round" stroke-linejoin="round"/>
</svg>
