<svg width="24" height="24" viewBox="0 0 24 24" fill="none" xmlns="http://www.w3.org/2000/svg">
<path d="M14 8.64285H12M12 8.64285H11.5C10.6716 8.64285 10 9.31442 10 10.1428V10.1905C10 11.0189 10.6716 11.6905 11.5 11.6905H12.5C13.3284 11.6905 14 12.362 14 13.1905V13.2381C14 14.0665 13.3284 14.7381 12.5 14.7381H12M12 8.64285V6.99999M12 14.7381H10M12 14.7381V16M10.5683 2.32393L7.36828 3.32393C6.15871 3.70192 5.55392 3.89092 5.10603 4.25553C4.71059 4.57744 4.40373 4.99484 4.21442 5.46829C4 6.00455 4 6.63818 4 7.90544V8.78363C4 11.1293 4 12.3021 4.25373 13.4069C4.51186 14.5309 4.96247 15.6018 5.58563 16.5721C6.19816 17.5259 7.03672 18.3459 8.71384 19.9859C9.8252 21.0726 10.3809 21.6159 11.0126 21.8361C11.652 22.059 12.348 22.059 12.9874 21.8361C13.6191 21.6159 14.1748 21.0726 15.2862 19.9859C16.9633 18.3459 17.8018 17.5259 18.4144 16.5721C19.0375 15.6018 19.4881 14.5309 19.7463 13.4069C20 12.3021 20 11.1293 20 8.78363V7.90544C20 6.63818 20 6.00455 19.7856 5.46829C19.5963 4.99484 19.2894 4.57744 18.894 4.25553C18.4461 3.89092 17.8413 3.70192 16.6317 3.32393L13.4317 2.32393C12.8999 2.15772 12.6339 2.07462 12.3626 2.04158C12.1217 2.01226 11.8783 2.01226 11.6374 2.04158C11.3661 2.07462 11.1001 2.15772 10.5683 2.32393Z" stroke="currentColor" stroke-width="2" stroke-linecap="round" stroke-linejoin="round"/>
</svg>
