<svg width="24" height="24" viewBox="0 0 24 24" fill="none" xmlns="http://www.w3.org/2000/svg">
<path d="M4 7.9055C4 6.63825 4 6.00462 4.21442 5.46836C4.40373 4.9949 4.71059 4.57751 5.10603 4.2556C5.55392 3.89099 6.15871 3.70199 7.36828 3.324L10.5683 2.324C11.1001 2.15779 11.3661 2.07469 11.6374 2.04165C11.8783 2.01233 12.1217 2.01233 12.3626 2.04165C12.6339 2.07469 12.8999 2.15779 13.4317 2.324L16.6317 3.324C17.8413 3.70199 18.4461 3.89099 18.894 4.2556C19.2894 4.57751 19.5963 4.9949 19.7856 5.46836C20 6.00462 20 6.63825 20 7.9055V8.7837C20 11.1294 20 12.3022 19.7463 13.407C19.4881 14.531 19.0375 15.6018 18.4144 16.5722C17.8018 17.526 16.9633 18.346 15.2862 19.9859V19.9859C14.1748 21.0726 13.6191 21.616 12.9874 21.8362C12.348 22.0591 11.652 22.0591 11.0126 21.8362C10.3809 21.616 9.8252 21.0726 8.71384 19.9859V19.9859C7.03672 18.346 6.19816 17.526 5.58563 16.5722C4.96247 15.6018 4.51186 14.531 4.25373 13.407C4 12.3022 4 11.1294 4 8.7837L4 7.9055Z" stroke="currentColor" stroke-width="2" stroke-linecap="round" stroke-linejoin="round"/>
</svg>
