<svg width="24" height="24" viewBox="0 0 24 24" fill="none" xmlns="http://www.w3.org/2000/svg">
<path d="M12 2V22M10.5683 2.32394L7.36828 3.32394C6.15871 3.70193 5.55392 3.89093 5.10603 4.25554C4.71059 4.57745 4.40373 4.99484 4.21442 5.4683C4 6.00456 4 6.63819 4 7.90544V8.78364C4 11.1293 4 12.3021 4.25373 13.4069C4.51186 14.5309 4.96247 15.6018 5.58563 16.5721C6.19816 17.526 7.03672 18.3459 8.71384 19.9859C9.8252 21.0726 10.3809 21.6159 11.0126 21.8361C11.652 22.059 12.348 22.059 12.9874 21.8361C13.6191 21.6159 14.1748 21.0726 15.2862 19.9859C16.9633 18.3459 17.8018 17.526 18.4144 16.5721C19.0375 15.6018 19.4881 14.5309 19.7463 13.4069C20 12.3021 20 11.1293 20 8.78364V7.90544C20 6.63819 20 6.00456 19.7856 5.4683C19.5963 4.99484 19.2894 4.57745 18.894 4.25554C18.4461 3.89093 17.8413 3.70193 16.6317 3.32394L13.4317 2.32394C12.8999 2.15773 12.6339 2.07463 12.3626 2.04159C12.1217 2.01227 11.8783 2.01227 11.6374 2.04159C11.3661 2.07463 11.1001 2.15773 10.5683 2.32394Z" stroke="currentColor" stroke-width="2" stroke-linecap="round" stroke-linejoin="round"/>
</svg>
