<svg width="24" height="24" viewBox="0 0 24 24" fill="none" xmlns="http://www.w3.org/2000/svg">
<path d="M13.7555 9.80679V8.05125C13.7555 7.08168 12.9695 6.2957 12 6.2957C11.0304 6.2957 10.2444 7.08168 10.2444 8.05125V9.80679M10.5683 2.32393L7.36828 3.32393C6.15871 3.70192 5.55392 3.89092 5.10603 4.25553C4.71059 4.57744 4.40373 4.99484 4.21442 5.46829C4 6.00455 4 6.63818 4 7.90544V8.78363C4 11.1293 4 12.3021 4.25373 13.4069C4.51186 14.5309 4.96247 15.6018 5.58563 16.5721C6.19816 17.5259 7.03672 18.3459 8.71384 19.9859C9.8252 21.0726 10.3809 21.6159 11.0126 21.8361C11.652 22.059 12.348 22.059 12.9874 21.8361C13.6191 21.6159 14.1748 21.0726 15.2862 19.9859C16.9633 18.3459 17.8018 17.5259 18.4144 16.5721C19.0375 15.6018 19.4881 14.5309 19.7463 13.4069C20 12.3021 20 11.1293 20 8.78363V7.90544C20 6.63818 20 6.00455 19.7856 5.46829C19.5963 4.99484 19.2894 4.57744 18.894 4.25553C18.4461 3.89092 17.8413 3.70192 16.6317 3.32393L13.4317 2.32393C12.8999 2.15772 12.6339 2.07462 12.3626 2.04158C12.1217 2.01226 11.8783 2.01226 11.6374 2.04158C11.3661 2.07462 11.1001 2.15772 10.5683 2.32393ZM10.1742 15.0734H13.8258C14.4157 15.0734 14.7106 15.0734 14.936 14.9586C15.1341 14.8576 15.2953 14.6965 15.3963 14.4983C15.5111 14.273 15.5111 13.978 15.5111 13.3881V11.4921C15.5111 10.9022 15.5111 10.6072 15.3963 10.3819C15.2953 10.1837 15.1341 10.0226 14.936 9.9216C14.7106 9.80679 14.4157 9.80679 13.8258 9.80679H10.1742C9.5843 9.80679 9.28934 9.80679 9.06402 9.9216C8.86583 10.0226 8.70469 10.1837 8.6037 10.3819C8.4889 10.6072 8.4889 10.9022 8.4889 11.4921V13.3881C8.4889 13.978 8.4889 14.273 8.6037 14.4983C8.70469 14.6965 8.86583 14.8576 9.06402 14.9586C9.28934 15.0734 9.5843 15.0734 10.1742 15.0734Z" stroke="currentColor" stroke-width="2" stroke-linecap="round"/>
</svg>
