<svg width="24" height="24" viewBox="0 0 24 24" fill="none" xmlns="http://www.w3.org/2000/svg">
<path d="M8.8103 11.6245L10.5609 13.6025C10.7685 13.8371 11.1051 13.8371 11.3127 13.6025L15.1897 9.2217M10.5683 2.32399L7.36828 3.32399C6.15871 3.70198 5.55392 3.89098 5.10603 4.25559C4.71059 4.57751 4.40373 4.9949 4.21442 5.46835C4 6.00461 4 6.63824 4 7.9055V8.78369C4 11.1294 4 12.3022 4.25373 13.407C4.51186 14.531 4.96247 15.6018 5.58563 16.5722C6.19816 17.526 7.03672 18.346 8.71384 19.9859C9.8252 21.0726 10.3809 21.616 11.0126 21.8362C11.652 22.0591 12.348 22.0591 12.9874 21.8362C13.6191 21.616 14.1748 21.0726 15.2862 19.9859C16.9633 18.346 17.8018 17.526 18.4144 16.5722C19.0375 15.6018 19.4881 14.531 19.7463 13.407C20 12.3022 20 11.1294 20 8.78369V7.9055C20 6.63824 20 6.00461 19.7856 5.46835C19.5963 4.9949 19.2894 4.57751 18.894 4.25559C18.4461 3.89098 17.8413 3.70198 16.6317 3.32399L13.4317 2.32399C12.8999 2.15778 12.6339 2.07468 12.3626 2.04164C12.1217 2.01232 11.8783 2.01232 11.6374 2.04164C11.3661 2.07468 11.1001 2.15778 10.5683 2.32399Z" stroke="currentColor" stroke-width="2" stroke-linecap="round"/>
</svg>
