<svg width="24" height="24" viewBox="0 0 24 24" fill="none" xmlns="http://www.w3.org/2000/svg">
<path d="M15 17.4183L17.7859 15.6368C18.5946 15.1197 18.9989 14.8611 19.292 14.5141C19.5514 14.2069 19.7465 13.8506 19.8655 13.4666C20 13.0327 20 12.5528 20 11.5929V10.6209C20 9.78087 20 9.36083 19.8365 9.03996C19.6927 8.75772 19.4632 8.52825 19.181 8.38444C18.8601 8.22095 18.4401 8.22095 17.6 8.22095H6.4C5.55992 8.22095 5.13988 8.22095 4.81901 8.38444C4.53677 8.52825 4.3073 8.75772 4.16349 9.03996C4 9.36083 4 9.78087 4 10.6209V11.5929C4 12.5528 4 13.0327 4.13449 13.4666C4.25353 13.8506 4.44856 14.2069 4.70799 14.5141C5.00109 14.8611 5.40541 15.1197 6.21406 15.6368L9 17.4183M3 18.2209C3 18.2209 5.69977 17.2209 7.5 17.2209C9.30023 17.2209 10.1998 18.2209 12 18.2209C13.8002 18.2209 14.6998 17.2209 16.5 17.2209C18.3002 17.2209 21 18.2209 21 18.2209M3 22C3 22 5.69977 21 7.5 21C9.30023 21 10.1998 22 12 22C13.8002 22 14.6998 21 16.5 21C18.3002 21 21 22 21 22M17 8.22095V4.62095C17 3.78087 17 3.36083 16.8365 3.03996C16.6927 2.75772 16.4632 2.52825 16.181 2.38444C15.8601 2.22095 15.4401 2.22095 14.6 2.22095H9.4C8.55992 2.22095 8.13988 2.22095 7.81901 2.38444C7.53677 2.52825 7.3073 2.75772 7.16349 3.03996C7 3.36083 7 3.78087 7 4.62095V8.22095H17Z" stroke="currentColor" stroke-width="2" stroke-linecap="round" stroke-linejoin="round"/>
</svg>
