<svg width="24" height="24" viewBox="0 0 24 24" fill="none" xmlns="http://www.w3.org/2000/svg">
<path d="M4.84375 5.36389L6.52401 14.3859C6.69724 15.3161 6.78386 15.7812 7.02224 16.1295C7.23243 16.4367 7.52413 16.6791 7.86456 16.8295C8.25066 17 8.72375 17 9.66992 17H16.4579M10.5102 5.95184L17.5686 5.89068C18.8829 5.8793 19.5401 5.8736 20.0071 6.13846C20.4169 6.37083 20.7314 6.74039 20.8954 7.182C21.0823 7.68533 20.9718 8.33315 20.7507 9.62881L19.9471 14.3383C19.9041 14.5904 19.8668 14.8089 19.8308 15.0005M1.75 2L21.75 22M18.3184 21C18.3184 21.5523 17.8706 22 17.3184 22C16.7661 22 16.3184 21.5523 16.3184 21C16.3184 20.4477 16.7661 20 17.3184 20C17.8706 20 18.3184 20.4477 18.3184 21ZM10.3184 21C10.3184 21.5523 9.87064 22 9.31836 22C8.76607 22 8.31836 21.5523 8.31836 21C8.31836 20.4477 8.76607 20 9.31836 20C9.87064 20 10.3184 20.4477 10.3184 21Z" stroke="currentColor" stroke-width="2" stroke-linecap="round" stroke-linejoin="round"/>
</svg>
