<svg width="24" height="24" viewBox="0 0 24 24" fill="none" xmlns="http://www.w3.org/2000/svg">
<path d="M4.94608 6L17.5686 5.89064C18.883 5.87925 19.5401 5.87355 20.0072 6.13841C20.4169 6.37078 20.7315 6.74034 20.8955 7.18195C21.0824 7.68527 20.9718 8.3331 20.7508 9.62876L19.9472 14.3382C19.7858 15.2842 19.7051 15.7572 19.4678 16.112C19.2585 16.4247 18.9654 16.6721 18.6219 16.8257C18.2322 17 17.7524 17 16.7928 17H9.66614C8.72124 17 8.24878 17 7.86301 16.8298C7.52288 16.6797 7.23131 16.4378 7.02104 16.1311C6.78256 15.7834 6.6954 15.3191 6.52107 14.3904L4.94608 6ZM4.94608 6L4.27766 2L2.8457 2M18.3184 21C18.3184 21.5523 17.8706 22 17.3184 22C16.7661 22 16.3184 21.5523 16.3184 21C16.3184 20.4477 16.7661 20 17.3184 20C17.8706 20 18.3184 20.4477 18.3184 21ZM10.3184 21C10.3184 21.5523 9.87064 22 9.31836 22C8.76607 22 8.31836 21.5523 8.31836 21C8.31836 20.4477 8.76607 20 9.31836 20C9.87064 20 10.3184 20.4477 10.3184 21Z" stroke="currentColor" stroke-width="2" stroke-linecap="round" stroke-linejoin="round"/>
</svg>
