<svg width="24" height="24" viewBox="0 0 24 24" fill="none" xmlns="http://www.w3.org/2000/svg">
<path d="M6.74928 7.43433C5.24555 7.43433 4.49369 7.43433 3.93292 7.67177C3.03937 8.05013 2.384 8.83731 2.17386 9.78463C2.04198 10.3792 2.17824 11.1186 2.45077 12.5974L3.27501 17.0699C3.53269 18.4681 3.66152 19.1673 4.01891 19.691C4.33401 20.1527 4.77185 20.5173 5.28306 20.7435C5.86289 21 6.57377 21 7.99552 21H16.5508C17.4505 21 17.9004 21 18.2854 20.8958C18.8518 20.7425 19.3544 20.4285 19.7377 20M11.9993 7.43433H17.2493C18.753 7.43433 19.5049 7.43433 20.0656 7.67177C20.9592 8.05013 21.6146 8.83731 21.8247 9.78463C21.9566 10.3792 21.8203 11.1186 21.5478 12.5974L20.8286 16.5M17.2133 9.51929L15.7089 5.0812C15.2961 3.86356 14.1534 3.04431 12.8677 3.04431H11.1332C10.2232 3.04431 9.3848 3.45473 8.82617 4.12633M11.5 11.7672C10.3589 11.9988 9.5 13.0077 9.5 14.2172C9.5 15.5979 10.6193 16.7172 12 16.7172C13.1634 16.7172 14.1412 15.9225 14.4202 14.8463M1.75 2L21.75 22" stroke="currentColor" stroke-width="2" stroke-linecap="round" stroke-linejoin="round"/>
</svg>
