<svg width="24" height="24" viewBox="0 0 24 24" fill="none" xmlns="http://www.w3.org/2000/svg">
<path d="M2 21L22 21M21 8C21 9.65685 19.6569 11 18 11C16.3431 11 15 9.65685 15 8C15 9.65685 13.6569 11 12 11C10.3431 11 9 9.65685 9 8C9 9.65685 7.65685 11 6 11C4.34315 11 3 9.65685 3 8M21 21L21 7.8C21 6.11984 21 5.27976 20.673 4.63803C20.3854 4.07354 19.9265 3.6146 19.362 3.32698C18.7202 3 17.8802 3 16.2 3L7.8 3C6.11984 3 5.27977 3 4.63803 3.32698C4.07354 3.6146 3.6146 4.07354 3.32698 4.63803C3 5.27976 3 6.11984 3 7.8L3 21H21ZM14.4004 21V17.1889C14.4004 16.3489 14.4004 15.9288 14.2369 15.608C14.0931 15.3257 13.8636 15.0962 13.5814 14.9524C13.2605 14.7889 12.8403 14.7889 12 14.7889C11.1597 14.7889 10.7395 14.7889 10.4186 14.9524C10.1364 15.0962 9.90691 15.3257 9.7631 15.608C9.59961 15.9288 9.59961 16.3489 9.59961 17.1889L9.59961 21H14.4004Z" stroke="currentColor" stroke-width="2" stroke-linecap="round" stroke-linejoin="round"/>
</svg>
