<svg width="24" height="24" viewBox="0 0 24 24" fill="none" xmlns="http://www.w3.org/2000/svg">
<path d="M16.0006 9.40417V6C16.0006 3.79086 14.2097 2 12.0006 2C9.79145 2 8.00059 3.79086 8.00059 6V9.40417M7.00059 15.9292C7.00059 15.9292 8.50059 16.9292 12.0006 16.9292C15.5006 16.9292 17.0006 15.9292 17.0006 15.9292M7.96785 22H16.0333C17.9217 22 18.8659 22 19.5485 21.618C20.148 21.2826 20.6141 20.7516 20.8691 20.1138C21.1596 19.3874 21.0374 18.4512 20.793 16.5787L20.046 10.8566C19.8528 9.37643 19.7562 8.63636 19.4052 8.07897C19.0958 7.58785 18.6506 7.19702 18.1236 6.95384C17.5255 6.67786 16.7791 6.67786 15.2864 6.67786H8.71477C7.22206 6.67786 6.47571 6.67786 5.87757 6.95384C5.35054 7.19702 4.90538 7.58785 4.59603 8.07897C4.24495 8.63636 4.14835 9.37643 3.95514 10.8566L3.20823 16.5787C2.96382 18.4512 2.84161 19.3874 3.13206 20.1138C3.38708 20.7516 3.85323 21.2826 4.45263 21.618C5.13532 22 6.0795 22 7.96785 22Z" stroke="currentColor" stroke-width="2" stroke-linecap="round" stroke-linejoin="round"/>
</svg>
