<svg width="24" height="24" viewBox="0 0 24 24" fill="none" xmlns="http://www.w3.org/2000/svg">
<path d="M16 9.40417V6C16 3.79086 14.2091 2 12 2C9.79086 2 8 3.79086 8 6V9.40417M20.046 10.8566C19.8528 9.37643 19.7562 8.63636 19.4052 8.07897C19.0958 7.58785 18.6506 7.19702 18.1236 6.95384C17.5255 6.67786 16.7791 6.67786 15.2864 6.67786H8.71477C7.22206 6.67786 6.47571 6.67786 5.87757 6.95384C5.35054 7.19702 4.90538 7.58785 4.59603 8.07897C4.24495 8.63636 4.14835 9.37643 3.95514 10.8566L3.20823 16.5787C2.96382 18.4512 2.84161 19.3874 3.13206 20.1138C3.38708 20.7516 3.85323 21.2826 4.45263 21.618C5.13532 22 6.0795 22 7.96785 22H12.0006M17.9973 15.8306C17.1975 14.9216 15.8639 14.6771 14.8619 15.5094C13.8599 16.3418 13.7188 17.7335 14.5057 18.7179C15.2926 19.7024 17.9973 22 17.9973 22C17.9973 22 20.7019 19.7024 21.4888 18.7179C22.2757 17.7335 22.1519 16.3331 21.1326 15.5094C20.1134 14.6858 18.797 14.9216 17.9973 15.8306Z" stroke="currentColor" stroke-width="2" stroke-linecap="round" stroke-linejoin="round"/>
</svg>
