<svg width="24" height="24" viewBox="0 0 24 24" fill="none" xmlns="http://www.w3.org/2000/svg">
<path d="M16 6C16 3.79086 14.2091 2 12 2C9.79086 2 8 3.79086 8 6M8.39844 12.3838V12.6924C8.39844 14.6815 10.0109 16.294 12 16.294C13.9891 16.294 15.6016 14.6815 15.6016 12.6924V12.3839M12 22C9.20435 22 7.80653 22 6.7039 21.5433C5.23373 20.9343 4.06569 19.7663 3.45672 18.2961C3 17.1935 3 15.7956 3 13V11.4779C3 9.7977 3 8.95762 3.32698 8.31589C3.6146 7.7514 4.07354 7.29246 4.63803 7.00484C5.27976 6.67786 6.11984 6.67786 7.8 6.67786H16.2C17.8802 6.67786 18.7202 6.67786 19.362 7.00484C19.9265 7.29246 20.3854 7.7514 20.673 8.31589C21 8.95762 21 9.7977 21 11.4779V13C21 15.7956 21 17.1935 20.5433 18.2961C19.9343 19.7663 18.7663 20.9343 17.2961 21.5433C16.1935 22 14.7956 22 12 22Z" stroke="currentColor" stroke-width="2" stroke-linecap="round" stroke-linejoin="round"/>
</svg>
