<svg width="24" height="24" viewBox="0 0 24 24" fill="none" xmlns="http://www.w3.org/2000/svg">
<path d="M4 7H20M8 11.0258V11.854C8 14.0631 9.79086 15.854 12 15.854C14.2091 15.854 16 14.0631 16 11.854V11.0258M15.7502 2C16.9236 2 17.5103 2 18.0175 2.18924C18.4657 2.35646 18.8675 2.62843 19.1892 2.98247C19.5533 3.38315 19.7712 3.92788 20.2069 5.01733L20.6567 6.14172C20.785 6.46239 20.8491 6.62273 20.8942 6.7881C20.9343 6.93501 20.9631 7.08475 20.9805 7.23603C21 7.40633 21 7.57902 21 7.9244V17.2C21 18.8802 21 19.7202 20.673 20.362C20.3854 20.9265 19.9265 21.3854 19.362 21.673C18.7202 22 17.8802 22 16.2 22H7.8C6.11984 22 5.27976 22 4.63803 21.673C4.07354 21.3854 3.6146 20.9265 3.32698 20.362C3 19.7202 3 18.8802 3 17.2V7.9244C3 7.57902 3 7.40633 3.01952 7.23603C3.03687 7.08475 3.06571 6.93501 3.10579 6.7881C3.15091 6.62273 3.21504 6.46239 3.34331 6.14172L3.79307 5.01733C4.22885 3.92788 4.44674 3.38315 4.81083 2.98247C5.13254 2.62843 5.53426 2.35646 5.98246 2.18924C6.4897 2 7.07639 2 8.24976 2H15.7502Z" stroke="currentColor" stroke-width="2" stroke-linecap="round" stroke-linejoin="round"/>
</svg>
