<svg width="24" height="24" viewBox="0 0 24 24" fill="none" xmlns="http://www.w3.org/2000/svg">
<path d="M19.1582 11.5V21H4.8418L4.8418 11.5M3 21L21 21M14.4004 21V17.1889C14.4004 16.3489 14.4004 15.9288 14.2369 15.608C14.0931 15.3257 13.8636 15.0962 13.5814 14.9524C13.2605 14.7889 12.8403 14.7889 12 14.7889C11.1597 14.7889 10.7395 14.7889 10.4186 14.9524C10.1364 15.0962 9.90691 15.3257 9.7631 15.608C9.59961 15.9288 9.59961 16.3489 9.59961 17.1889L9.59961 21H14.4004ZM15 8C15 9.65685 13.6569 11 12 11C10.3431 11 9 9.65685 9 8C9 9.65685 7.65685 11 6 11C4.34315 11 3 9.65685 3 8C3 7.35534 3.23399 6.73258 3.6585 6.24742L6.5 3H18L20.4 6.2C20.7895 6.71929 21 7.35089 21 8C21 9.65685 19.6569 11 18 11C16.3431 11 15 9.65685 15 8Z" stroke="currentColor" stroke-width="2" stroke-linecap="round" stroke-linejoin="round"/>
</svg>
