<svg width="24" height="24" viewBox="0 0 24 24" fill="none" xmlns="http://www.w3.org/2000/svg">
<path d="M19.9319 10.0028C19.7999 9.06817 19.6811 8.51713 19.4052 8.07897C19.0958 7.58785 18.6506 7.19702 18.1236 6.95384C17.5255 6.67786 16.7791 6.67786 15.2864 6.67786H8.71477C7.22206 6.67786 6.47571 6.67786 5.87757 6.95384C5.35054 7.19702 4.90538 7.58785 4.59603 8.07897C4.24495 8.63636 4.14835 9.37643 3.95514 10.8566L3.20823 16.5787C2.96382 18.4512 2.84161 19.3874 3.13206 20.1138C3.38708 20.7516 3.85323 21.2826 4.45263 21.618C5.13532 22 6.0795 22 7.96785 22H9.9987M16 9.40417V6C16 3.79086 14.2091 2 12 2C9.79086 2 8 3.79086 8 6V9.40417M17.6892 15.4309L18.3963 14.7238C18.7251 14.395 18.8895 14.2306 19.0605 14.1319C19.5246 13.8639 20.0964 13.8639 20.5605 14.1319C20.7316 14.2306 20.896 14.395 21.2248 14.7238C21.5536 15.0526 21.718 15.217 21.8167 15.388C22.0846 15.8521 22.0846 16.4239 21.8167 16.888C21.718 17.059 21.5536 17.2234 21.2248 17.5522L20.5177 18.2593M17.6892 15.4309L15.0211 18.099C14.8301 18.29 14.7346 18.3855 14.6587 18.4943C14.5914 18.5909 14.5356 18.6951 14.4926 18.8047C14.4442 18.9281 14.4177 19.0606 14.3647 19.3254L14.0355 20.9717C13.9568 21.3651 13.9174 21.5619 13.9755 21.7022C14.0262 21.8248 14.1237 21.9223 14.2464 21.973C14.3867 22.0311 14.5834 21.9918 14.9768 21.9131L16.6231 21.5838C16.888 21.5308 17.0204 21.5044 17.1439 21.4559C17.2535 21.4129 17.3577 21.3572 17.4542 21.2898C17.563 21.214 17.6585 21.1185 17.8495 20.9275L20.5177 18.2593M17.6892 15.4309L20.5177 18.2593" stroke="currentColor" stroke-width="2" stroke-linecap="round"/>
</svg>
