<svg width="24" height="24" viewBox="0 0 24 24" fill="none" xmlns="http://www.w3.org/2000/svg">
<path d="M17.2123 9.51929L15.9862 5.90255C15.7197 5.11619 15.5864 4.72302 15.3799 4.40618C14.9698 3.77703 14.3387 3.32456 13.6112 3.13818C13.2448 3.04431 12.8297 3.04431 11.9994 3.04431C11.1691 3.04431 10.7539 3.04431 10.3875 3.13818C9.66004 3.32456 9.02891 3.77703 8.61883 4.40618C8.41232 4.72302 8.27904 5.11619 8.01248 5.90255L6.78647 9.51929M7.9956 21H16.0031C17.4249 21 18.1358 21 18.7156 20.7435C19.2268 20.5173 19.6646 20.1527 19.9797 19.691C20.3371 19.1673 20.466 18.4681 20.7236 17.0699L21.4545 13.1043C21.8133 11.1573 21.9927 10.1838 21.7206 9.4235C21.4818 8.75644 21.0147 8.19539 20.402 7.83973C19.7035 7.43433 18.7137 7.43433 16.7339 7.43433H7.26477C5.28504 7.43433 4.29518 7.43433 3.59674 7.83973C2.98399 8.19539 2.51689 8.75644 2.27817 9.4235C2.00606 10.1838 2.18546 11.1573 2.54427 13.1043L3.27509 17.0699C3.53277 18.4681 3.66161 19.1673 4.01899 19.691C4.33409 20.1527 4.77193 20.5173 5.28314 20.7435C5.86297 21 6.57385 21 7.9956 21ZM14.4994 14.2172C14.4994 15.5979 13.3801 16.7172 11.9994 16.7172C10.6186 16.7172 9.49936 15.5979 9.49936 14.2172C9.49936 12.8365 10.6186 11.7172 11.9994 11.7172C13.3801 11.7172 14.4994 12.8365 14.4994 14.2172Z" stroke="currentColor" stroke-width="2" stroke-linecap="round" stroke-linejoin="round"/>
</svg>
