<svg width="24" height="24" viewBox="0 0 24 24" fill="none" xmlns="http://www.w3.org/2000/svg">
<path d="M16 9.40417V6C16 3.79086 14.2091 2 12 2C9.79086 2 8 3.79086 8 6V9.40417M21.9903 17.1991L17.1895 22M21.9902 22H22.0002M17.1797 17.1991H17.1897M13 22H7.96785C6.0795 22 5.13532 22 4.45263 21.618C3.85323 21.2826 3.38708 20.7516 3.13206 20.1138C2.84161 19.3874 2.96382 18.4512 3.20823 16.5787L3.95514 10.8566C4.14835 9.37643 4.24495 8.63636 4.59603 8.07897C4.90538 7.58785 5.35054 7.19702 5.87757 6.95384C6.47571 6.67786 7.22206 6.67786 8.71477 6.67786H15.2864C16.7791 6.67786 17.5255 6.67786 18.1236 6.95384C18.6506 7.19702 19.0958 7.58785 19.4052 8.07897C19.7562 8.63636 19.8528 9.37643 20.046 10.8566L20.3264 13.0046" stroke="currentColor" stroke-width="2" stroke-linecap="round" stroke-linejoin="round"/>
</svg>
