<svg width="24" height="24" viewBox="0 0 24 24" fill="none" xmlns="http://www.w3.org/2000/svg">
<path d="M18.4961 2L22 5.50387L18.4961 9.00774M18.4961 15.0059L22 18.5097L18.4961 22.0136M22 5.49997H21.1424C18.917 5.49997 17.8044 5.49997 16.8295 5.84648C15.9677 6.15282 15.1873 6.65214 14.548 7.30629C13.8248 8.04622 13.3585 9.05649 12.426 11.077L11.574 12.9229C10.6415 14.9435 10.1752 15.9537 9.45205 16.6937C8.81274 17.3478 8.03235 17.8471 7.1705 18.1535C6.19563 18.5 5.08296 18.5 2.85761 18.5H2M2 5.49997H6.24657C7.05108 5.49997 7.45334 5.49997 7.81483 5.59123C8.4445 5.7502 9.00559 6.1092 9.4138 6.6143C9.64814 6.90428 9.81671 7.26951 10.1538 7.99997M22 18.5H17.7534C16.9489 18.5 16.5467 18.5 16.1852 18.4087C15.5555 18.2497 14.9944 17.8907 14.5862 17.3856C14.3519 17.0957 14.1833 16.7304 13.8462 16" stroke="currentColor" stroke-width="2" stroke-linecap="round" stroke-linejoin="round"/>
</svg>
