<svg width="24" height="24" viewBox="0 0 24 24" fill="none" xmlns="http://www.w3.org/2000/svg">
<path d="M7 8C7 8 6 9.3125 6 11.5C6 13.6875 7 15 7 15M17 8C17 8 18 9.3125 18 11.5C18 13.6875 17 15 17 15M4 5C4 5 2 7.4375 2 11.5C2 15.5625 4 18 4 18M20 5C20 5 22 7.4375 22 11.5C22 15.5625 20 18 20 18M14 12C14 10.8954 13.1046 10 12 10C10.8954 10 10 10.8954 10 12C10 13.1046 10.8954 14 12 14C13.1046 14 14 13.1046 14 12Z" stroke="currentColor" stroke-width="2" stroke-linecap="round" stroke-linejoin="round"/>
</svg>
