<svg width="24" height="24" viewBox="0 0 24 24" fill="none" xmlns="http://www.w3.org/2000/svg">
<path d="M12 20V13M12 4V2M9 21H15M20.6456 6.93146L18.8322 4.83146C18.5681 4.52559 18.4361 4.37265 18.2759 4.26281C18.1339 4.16549 17.9762 4.09332 17.8098 4.04948C17.6219 4 17.4199 4 17.0157 4H7.4C6.55992 4 6.13988 4 5.81901 4.16349C5.53677 4.3073 5.3073 4.53677 5.16349 4.81901C5 5.13988 5 5.55992 5 6.4V10.6C5 11.4401 5 11.8601 5.16349 12.181C5.3073 12.4632 5.53677 12.6927 5.81901 12.8365C6.13988 13 6.55992 13 7.4 13H17.0157C17.4199 13 17.6219 13 17.8098 12.9505C17.9762 12.9067 18.1339 12.8345 18.2759 12.7372C18.4361 12.6274 18.5681 12.4744 18.8322 12.1685L20.6456 10.0685C21.126 9.51216 21.3662 9.23398 21.4577 8.92161C21.5383 8.64632 21.5383 8.35368 21.4577 8.07839C21.3662 7.76602 21.126 7.48784 20.6456 6.93146Z" stroke="currentColor" stroke-width="2" stroke-linecap="round" stroke-linejoin="round"/>
</svg>
