<svg width="24" height="24" viewBox="0 0 24 24" fill="none" xmlns="http://www.w3.org/2000/svg">
<path d="M12.0001 20V13M12.0001 4V2M9.00011 21H15.0001M4.35453 6.93146L6.16786 4.83146C6.43198 4.52559 6.56404 4.37265 6.72425 4.26281C6.86622 4.16549 7.02388 4.09332 7.19033 4.04948C7.37817 4 7.58023 4 7.98436 4H17.6001C18.4402 4 18.8602 4 19.1811 4.16349C19.4633 4.3073 19.6928 4.53677 19.8366 4.81901C20.0001 5.13988 20.0001 5.55992 20.0001 6.4V10.6C20.0001 11.4401 20.0001 11.8601 19.8366 12.181C19.6928 12.4632 19.4633 12.6927 19.1811 12.8365C18.8602 13 18.4402 13 17.6001 13H7.98436C7.58023 13 7.37817 13 7.19033 12.9505C7.02388 12.9067 6.86622 12.8345 6.72425 12.7372C6.56404 12.6274 6.43198 12.4744 6.16786 12.1685L4.35453 10.0685C3.8741 9.51216 3.63389 9.23398 3.5424 8.92161C3.46178 8.64632 3.46178 8.35368 3.5424 8.07839C3.63389 7.76602 3.8741 7.48784 4.35453 6.93146Z" stroke="currentColor" stroke-width="2" stroke-linecap="round" stroke-linejoin="round"/>
</svg>
