<svg width="24" height="24" viewBox="0 0 24 24" fill="none" xmlns="http://www.w3.org/2000/svg">
<path d="M12 12.5V22M7 6C7 6 6 7.3125 6 9.5C6 11.6875 7 13 7 13M17 6C17 6 18 7.3125 18 9.5C18 11.6875 17 13 17 13M4 3C4 3 2 5.4375 2 9.5C2 13.5625 4 16 4 16M20 3C20 3 22 5.4375 22 9.5C22 13.5625 20 16 20 16M14 10C14 8.89543 13.1046 8 12 8C10.8954 8 10 8.89543 10 10C10 11.1046 10.8954 12 12 12C13.1046 12 14 11.1046 14 10Z" stroke="currentColor" stroke-width="2" stroke-linecap="round" stroke-linejoin="round"/>
</svg>
