<svg width="24" height="24" viewBox="0 0 24 24" fill="none" xmlns="http://www.w3.org/2000/svg">
<path d="M20 11.1837C20 10.5597 20 10.2477 19.9387 9.94921C19.8844 9.68443 19.7945 9.4282 19.6715 9.18749C19.5329 8.91617 19.338 8.67252 18.9482 8.18521L15.2494 3.56174C14.9083 3.13543 14.7378 2.92227 14.5422 2.7498C14.1277 2.38427 13.6202 2.14037 13.0758 2.045C12.8189 2 12.5459 2 12 2H8.8C7.11984 2 6.27976 2 5.63803 2.32698C5.07354 2.6146 4.6146 3.07354 4.32698 3.63803C4 4.27976 4 5.11984 4 6.8V17.2C4 18.8802 4 19.7202 4.32698 20.362C4.6146 20.9265 5.07354 21.3854 5.63803 21.673C6.27976 22 7.11984 22 8.8 22H15.2C16.8802 22 17.7202 22 18.362 21.673C18.9265 21.3854 19.3854 20.9265 19.673 20.362C20 19.7202 20 18.8802 20 17.2V11.1837Z" stroke="currentColor" stroke-width="2" stroke-linecap="round" stroke-linejoin="round"/>
<path d="M8 13.8C8 13.52 8 13.38 8.0545 13.273C8.10243 13.1789 8.17892 13.1024 8.273 13.0545C8.37996 13 8.51997 13 8.8 13H15.2C15.48 13 15.62 13 15.727 13.0545C15.8211 13.1024 15.8976 13.1789 15.9455 13.273C16 13.38 16 13.52 16 13.8V17.2C16 17.48 16 17.62 15.9455 17.727C15.8976 17.8211 15.8211 17.8976 15.727 17.9455C15.62 18 15.48 18 15.2 18H8.8C8.51997 18 8.37996 18 8.273 17.9455C8.17892 17.8976 8.10243 17.8211 8.0545 17.727C8 17.62 8 17.48 8 17.2V13.8Z" stroke="currentColor" stroke-width="2" stroke-linecap="round" stroke-linejoin="round"/>
</svg>
