<svg width="24" height="24" viewBox="0 0 24 24" fill="none" xmlns="http://www.w3.org/2000/svg">
<path d="M6 7C5.53501 7 5.30252 7 5.11177 6.94889C4.59413 6.81019 4.18981 6.40587 4.05111 5.88823C4 5.69748 4 5.46499 4 5C4 4.53501 4 4.30252 4.05111 4.11177C4.18981 3.59413 4.59413 3.18981 5.11177 3.05111C5.30252 3 5.53501 3 6 3C6.46499 3 6.69748 3 6.88823 3.05111C7.40587 3.18981 7.81019 3.59413 7.94889 4.11177C8 4.30252 8 4.53501 8 5M6 7C6.46499 7 6.69748 7 6.88823 6.94889C7.40587 6.81019 7.81019 6.40587 7.94889 5.88823C8 5.69748 8 5.46499 8 5M6 7L4 17M8 5L17 5M20 7C19.535 7 19.3025 7 19.1118 6.94889C18.5941 6.81019 18.1898 6.40587 18.0511 5.88823C18 5.69748 18 5.46499 18 5C18 4.53501 18 4.30252 18.0511 4.11177C18.1898 3.59413 18.5941 3.18981 19.1118 3.05111C19.3025 3 19.535 3 20 3C20.465 3 20.6975 3 20.8882 3.05111C21.4059 3.18981 21.8102 3.59413 21.9489 4.11177C22 4.30252 22 4.53501 22 5C22 5.46499 22 5.69748 21.9489 5.88823C21.8102 6.40587 21.4059 6.81019 20.8882 6.94889C20.6975 7 20.465 7 20 7ZM20 7L18 17M16 19C16 19.465 16 19.6975 16.0511 19.8882C16.1898 20.4059 16.5941 20.8102 17.1118 20.9489C17.3025 21 17.535 21 18 21C18.465 21 18.6975 21 18.8882 20.9489C19.4059 20.8102 19.8102 20.4059 19.9489 19.8882C20 19.6975 20 19.465 20 19C20 18.535 20 18.3025 19.9489 18.1118C19.8102 17.5941 19.4059 17.1898 18.8882 17.0511C18.6975 17 18.465 17 18 17M16 19C16 18.535 16 18.3025 16.0511 18.1118C16.1898 17.5941 16.5941 17.1898 17.1118 17.0511C17.3025 17 17.535 17 18 17M16 19H7M4 17C4.46499 17 4.69748 17 4.88823 17.0511C5.40587 17.1898 5.81019 17.5941 5.94889 18.1118C6 18.3025 6 18.535 6 19C6 19.465 6 19.6975 5.94889 19.8882C5.81019 20.4059 5.40587 20.8102 4.88823 20.9489C4.69748 21 4.46499 21 4 21C3.53501 21 3.30252 21 3.11177 20.9489C2.59413 20.8102 2.18981 20.4059 2.05111 19.8882C2 19.6975 2 19.465 2 19C2 18.535 2 18.3025 2.05111 18.1118C2.18981 17.5941 2.59413 17.1898 3.11177 17.0511C3.30252 17 3.53501 17 4 17Z" stroke="currentColor" stroke-width="2" stroke-linecap="round" stroke-linejoin="round"/>
</svg>
