<svg width="24" height="24" viewBox="0 0 24 24" fill="none" xmlns="http://www.w3.org/2000/svg">
<path d="M3.15527 4.48022V19.5198M13.7191 17.4607L10.5822 15.3041C8.96904 14.1951 8.16246 13.6406 7.87937 12.9467C7.63175 12.3399 7.63175 11.6601 7.87937 11.0533C8.16246 10.3594 8.96904 9.80492 10.5822 8.69587L13.7191 6.53927C15.7548 5.13974 16.7726 4.43998 17.6186 4.48201C18.3555 4.51862 19.0388 4.87805 19.4864 5.46451C20.0003 6.13787 20.0003 7.37305 20.0003 9.8434V14.1566C20.0003 16.627 20.0003 17.8621 19.4864 18.5355C19.0388 19.122 18.3555 19.4814 17.6186 19.518C16.7726 19.56 15.7548 18.8603 13.7191 17.4607Z" stroke="currentColor" stroke-width="2" stroke-linecap="round" stroke-linejoin="round"/>
</svg>
