<svg width="24" height="24" viewBox="0 0 24 24" fill="none" xmlns="http://www.w3.org/2000/svg">
<path d="M20.0003 4.48022V19.5198M9.43652 17.4607L12.5734 15.3041C14.1866 14.1951 14.9931 13.6406 15.2762 12.9467C15.5239 12.3399 15.5239 11.6601 15.2762 11.0533C14.9931 10.3594 14.1866 9.80492 12.5734 8.69587L9.43652 6.53927C7.40085 5.13974 6.38302 4.43998 5.53697 4.48201C4.80012 4.51862 4.11683 4.87805 3.66922 5.46451C3.15527 6.13787 3.15527 7.37305 3.15527 9.8434V14.1566C3.15527 16.627 3.15527 17.8621 3.66922 18.5355C4.11683 19.122 4.80012 19.4814 5.53697 19.518C6.38302 19.56 7.40085 18.8603 9.43652 17.4607Z" stroke="currentColor" stroke-width="2" stroke-linecap="round" stroke-linejoin="round"/>
</svg>
