<svg width="24" height="24" viewBox="0 0 24 24" fill="none" xmlns="http://www.w3.org/2000/svg">
<path d="M9 19H3M21 19H17M17 19C17 17.8954 16.1046 17 15 17C13.8954 17 13 17.8954 13 19C13 20.1046 13.8954 21 15 21C16.1046 21 17 20.1046 17 19ZM8 12H3M8 12C8 13.1046 8.89543 14 10 14C11.1046 14 12 13.1046 12 12C12 10.8954 11.1046 10 10 10C8.89543 10 8 10.8954 8 12ZM21 12H16M10 5L3 5M21 5L18 5M18 5C18 3.89543 17.1046 3 16 3C14.8954 3 14 3.89543 14 5C14 6.10457 14.8954 7 16 7C17.1046 7 18 6.10457 18 5Z" stroke="currentColor" stroke-width="2" stroke-linecap="round" stroke-linejoin="round"/>
</svg>
