<svg width="24" height="24" viewBox="0 0 24 24" fill="none" xmlns="http://www.w3.org/2000/svg">
<path d="M8.5 5.99995V19M5.5 7.99995V19M2.5 12.843L2.5 17.1569M17.0379 10.4393H17.2204C19.5843 10.4393 21.5007 12.3556 21.5007 14.7196C21.5007 17.0836 19.5843 19 17.2204 19H13.3146C12.6425 19 12.3065 19 12.0498 18.8692C11.824 18.7541 11.6404 18.5705 11.5254 18.3447C11.3946 18.088 11.3946 17.752 11.3946 17.0799L11.395 6.91988C11.395 6.30981 11.395 6.00478 11.5875 5.70727C11.7252 5.49452 12.0739 5.24896 12.3205 5.191C12.6655 5.10995 12.8694 5.18289 13.2772 5.32876C15.3984 6.08751 17.0007 8.07506 17.0007 10.402C17.0007 10.4226 17.0174 10.4393 17.0379 10.4393Z" stroke="currentColor" stroke-width="2" stroke-linecap="round" stroke-linejoin="round"/>
</svg>
