<svg width="24" height="24" viewBox="0 0 24 24" fill="none" xmlns="http://www.w3.org/2000/svg">
<g clip-path="url(#clip0_220_10633)">
<path d="M19.8174 5.76336C20.0245 6.02255 20.2189 6.29226 20.3998 6.57157M16.9348 3.30044C15.4788 2.47272 13.7946 2 12 2C6.47715 2 2 6.47715 2 12C2 17.5228 6.47715 22 12 22C17.5228 22 22 17.5228 22 12C22 11.282 21.9243 10.5817 21.7805 9.90662M8.44535 10.5282C8.75865 10.4365 8.9153 10.3907 9.05639 10.3295C9.62672 10.0818 10.0817 9.62675 10.3294 9.05642C10.3907 8.91533 10.4365 8.75868 10.5281 8.44538C10.7616 7.64701 10.8784 7.24782 10.9917 7.08429C11.4796 6.38039 12.5203 6.38039 13.0082 7.08429C13.1216 7.24782 13.2383 7.64701 13.4718 8.44538C13.5634 8.75868 13.6092 8.91533 13.6705 9.05642C13.9182 9.62675 14.3732 10.0818 14.9436 10.3295C15.0846 10.3907 15.2413 10.4365 15.5546 10.5282C16.353 10.7617 16.7521 10.8784 16.9157 10.9917C17.6196 11.4796 17.6196 12.5204 16.9157 13.0083C16.7521 13.1216 16.353 13.2383 15.5546 13.4718C15.2413 13.5635 15.0846 13.6093 14.9436 13.6705C14.3732 13.9182 13.9182 14.3733 13.6705 14.9436C13.6092 15.0847 13.5634 15.2413 13.4718 15.5546C13.2383 16.353 13.1216 16.7522 13.0082 16.9157C12.5203 17.6196 11.4796 17.6196 10.9917 16.9157C10.8784 16.7522 10.7616 16.353 10.5281 15.5546C10.4365 15.2413 10.3907 15.0847 10.3294 14.9436C10.0817 14.3733 9.62672 13.9182 9.05639 13.6705C8.9153 13.6093 8.75865 13.5635 8.44535 13.4718C7.64698 13.2383 7.24779 13.1216 7.08426 13.0083C6.38036 12.5204 6.38036 11.4796 7.08426 10.9917C7.24779 10.8784 7.64698 10.7617 8.44535 10.5282Z" stroke="currentColor" stroke-width="2.06294" stroke-linecap="round"/>
</g>
<defs>
<clipPath id="clip0_220_10633">
<rect width="24" height="24" fill="white"/>
</clipPath>
</defs>
</svg>
