<svg width="24" height="24" viewBox="0 0 24 24" fill="none" xmlns="http://www.w3.org/2000/svg">
<path d="M5 6.8C5 5.11984 5 4.27976 5.32698 3.63803C5.6146 3.07354 6.07354 2.6146 6.63803 2.32698C7.27976 2 8.11984 2 9.8 2H14.2C15.8802 2 16.7202 2 17.362 2.32698C17.9265 2.6146 18.3854 3.07354 18.673 3.63803C19 4.27976 19 5.11984 19 6.8V17.2C19 18.8802 19 19.7202 18.673 20.362C18.3854 20.9265 17.9265 21.3854 17.362 21.673C16.7202 22 15.8802 22 14.2 22H9.8C8.11984 22 7.27976 22 6.63803 21.673C6.07354 21.3854 5.6146 20.9265 5.32698 20.362C5 19.7202 5 18.8802 5 17.2V6.8Z" stroke="currentColor" stroke-width="2" stroke-linecap="round" stroke-linejoin="round"/>
<path d="M14.5 16C14.5 17.3807 13.3807 18.5 12 18.5C10.6193 18.5 9.5 17.3807 9.5 16C9.5 14.6193 10.6193 13.5 12 13.5C13.3807 13.5 14.5 14.6193 14.5 16Z" stroke="currentColor" stroke-width="2" stroke-linecap="round" stroke-linejoin="round"/>
<path d="M14.5 8C14.5 9.38071 13.3807 10.5 12 10.5C10.6193 10.5 9.5 9.38071 9.5 8C9.5 6.61929 10.6193 5.5 12 5.5C13.3807 5.5 14.5 6.61929 14.5 8Z" stroke="currentColor" stroke-width="2" stroke-linecap="round" stroke-linejoin="round"/>
</svg>
