<svg width="24" height="24" viewBox="0 0 24 24" fill="none" xmlns="http://www.w3.org/2000/svg">
<path d="M10.1415 6.01437C10.5324 5.05969 10.7278 4.58236 10.9442 4.36772C11.529 3.78775 12.472 3.78775 13.0568 4.36772C13.2732 4.58236 13.4686 5.05969 13.8594 6.01437C14.0226 6.41288 14.1041 6.61213 14.2157 6.76283C14.5099 7.16019 14.981 7.38705 15.4751 7.36931C15.6625 7.36259 15.8691 7.30213 16.2824 7.18122C17.2725 6.89156 17.7675 6.74673 18.0703 6.7821C18.8883 6.87769 19.4763 7.61497 19.3874 8.43378C19.3546 8.73679 19.1032 9.18719 18.6005 10.088C18.3906 10.464 18.2857 10.652 18.2375 10.8332C18.1102 11.311 18.2266 11.8207 18.5485 12.196C18.6706 12.3383 18.8467 12.4621 19.1989 12.7099C20.0427 13.3034 20.4646 13.6001 20.6257 13.8588C21.061 14.558 20.8511 15.4774 20.1556 15.9184C19.8982 16.0817 19.3893 16.166 18.3716 16.3346C17.9468 16.405 17.7344 16.4401 17.5626 16.5154C17.1098 16.7138 16.7838 17.1226 16.6911 17.6082C16.656 17.7924 16.6689 18.0073 16.6948 18.4372C16.7569 19.4669 16.788 19.9817 16.6861 20.269C16.4109 21.0453 15.5613 21.4544 14.7828 21.1856C14.4947 21.0861 14.1115 20.7409 13.3451 20.0503C13.0252 19.762 12.8653 19.6179 12.6994 19.5306C12.2619 19.3002 11.739 19.3002 11.3016 19.5306C11.1357 19.6179 10.9757 19.762 10.6558 20.0503C9.88946 20.7409 9.50628 21.0861 9.21818 21.1856C8.43967 21.4544 7.59004 21.0453 7.31482 20.269C7.21297 19.9817 7.24401 19.4669 7.30609 18.4372C7.33201 18.0073 7.34497 17.7924 7.30983 17.6082C7.21718 17.1226 6.89117 16.7138 6.43831 16.5154C6.26656 16.4401 6.05415 16.405 5.62934 16.3346C4.61162 16.166 4.10277 16.0817 3.84536 15.9184C3.1498 15.4774 2.93996 14.558 3.37527 13.8588C3.53637 13.6001 3.95825 13.3034 4.80202 12.7099C5.15423 12.4621 5.33034 12.3383 5.45244 12.196C5.77436 11.8207 5.89071 11.311 5.76347 10.8332C5.71522 10.652 5.61029 10.464 5.40045 10.088C4.89774 9.18719 4.64638 8.73679 4.6135 8.43378C4.52466 7.61497 5.11263 6.87769 5.93067 6.7821C6.23341 6.74673 6.72845 6.89156 7.71853 7.18122C8.13181 7.30213 8.33845 7.36259 8.52585 7.36931C9.01993 7.38705 9.49103 7.16019 9.78522 6.76283C9.8968 6.61213 9.97837 6.41288 10.1415 6.01437Z" stroke="currentColor" stroke-width="2" stroke-linecap="round" stroke-linejoin="round"/>
</svg>
