<svg width="24" height="24" viewBox="0 0 24 24" fill="none" xmlns="http://www.w3.org/2000/svg">
<path d="M9.81775 6.25353C10.5118 4.73401 10.8587 3.97425 11.339 3.73812C11.7564 3.53293 12.2453 3.53293 12.6627 3.73812C13.1429 3.97425 13.4899 4.73401 14.1839 6.25353L14.2234 6.33991C14.4789 6.89935 14.6066 7.17907 14.8087 7.37539C14.9871 7.54877 15.2058 7.67505 15.4451 7.74287C15.7162 7.81966 16.0223 7.79044 16.6345 7.73199L16.7291 7.72297C18.392 7.56423 19.2235 7.48486 19.6681 7.78272C20.0545 8.04157 20.299 8.46499 20.3299 8.92902C20.3656 9.46302 19.8811 10.1434 18.9122 11.5042L18.8571 11.5815C18.5003 12.0825 18.322 12.333 18.253 12.6061C18.192 12.8473 18.192 13.0999 18.253 13.3411C18.322 13.6142 18.5003 13.8647 18.8571 14.3657L18.9122 14.4431C19.8811 15.8038 20.3656 16.4842 20.3299 17.0182C20.299 17.4823 20.0545 17.9057 19.6681 18.1645C19.2235 18.4624 18.392 18.383 16.7291 18.2243L16.6345 18.2153C16.0223 18.1568 15.7162 18.1276 15.4451 18.2044C15.2058 18.2722 14.9871 18.3985 14.8087 18.5719C14.6066 18.7682 14.4789 19.0479 14.2234 19.6073L14.1839 19.6937C13.4899 21.2132 13.1429 21.973 12.6627 22.2091C12.2453 22.4143 11.7564 22.4143 11.339 22.2091C10.8587 21.973 10.5118 21.2132 9.81775 19.6937L9.7783 19.6073C9.52279 19.0479 9.39504 18.7682 9.19303 18.5719C9.01462 18.3985 8.79589 18.2722 8.55653 18.2044C8.28551 18.1276 7.97939 18.1568 7.36715 18.2153L7.27261 18.2243C5.60967 18.383 4.7782 18.4624 4.33357 18.1645C3.94719 17.9057 3.70273 17.4823 3.67176 17.0182C3.63611 16.4842 4.12058 15.8038 5.08953 14.4431L5.14461 14.3657C5.50134 13.8647 5.67971 13.6142 5.74872 13.3411C5.80967 13.0999 5.80967 12.8473 5.74872 12.6061C5.67971 12.333 5.50134 12.0825 5.14461 11.5815L5.08953 11.5042C4.12058 10.1434 3.63611 9.46302 3.67176 8.92902C3.70273 8.46499 3.94719 8.04157 4.33357 7.78272C4.7782 7.48486 5.60967 7.56423 7.27261 7.72297L7.36715 7.73199C7.97939 7.79044 8.28551 7.81966 8.55653 7.74287C8.79589 7.67505 9.01462 7.54877 9.19303 7.37539C9.39504 7.17907 9.52279 6.89935 9.7783 6.33992L9.81775 6.25353Z" stroke="currentColor" stroke-width="2" stroke-linecap="round" stroke-linejoin="round"/>
</svg>
