<svg width="24" height="24" viewBox="0 0 24 24" fill="none" xmlns="http://www.w3.org/2000/svg">
<path d="M9.75625 5.62905C10.4518 3.80249 10.7995 2.8892 11.3028 2.62542C11.7389 2.39683 12.2594 2.39683 12.6955 2.62542C13.1988 2.8892 13.5465 3.80249 14.2421 5.62905L14.9974 7.61286C15.1384 7.98315 15.2089 8.16829 15.3193 8.32388C15.417 8.46176 15.5374 8.58213 15.6753 8.6799C15.8309 8.79021 16.016 8.86071 16.3863 9.00171L18.3701 9.75711C20.1967 10.4526 21.11 10.8004 21.3737 11.3036C21.6023 11.7397 21.6023 12.2603 21.3737 12.6964C21.11 13.1996 20.1967 13.5474 18.3701 14.2429L16.3863 14.9983C16.016 15.1393 15.8309 15.2098 15.6753 15.3201C15.5374 15.4179 15.417 15.5382 15.3193 15.6761C15.2089 15.8317 15.1384 16.0169 14.9974 16.3871L14.2421 18.371C13.5465 20.1975 13.1988 21.1108 12.6955 21.3746C12.2594 21.6032 11.7389 21.6032 11.3028 21.3746C10.7995 21.1108 10.4518 20.1975 9.75625 18.371L9.00086 16.3871C8.85986 16.0169 8.78936 15.8317 8.67904 15.6761C8.58128 15.5382 8.46091 15.4179 8.32302 15.3201C8.16744 15.2098 7.9823 15.1393 7.61201 14.9983L5.6282 14.2429C3.80163 13.5474 2.88835 13.1996 2.62457 12.6964C2.39598 12.2603 2.39598 11.7397 2.62457 11.3036C2.88835 10.8004 3.80163 10.4526 5.6282 9.75711L7.61201 9.00171C7.9823 8.86071 8.16744 8.79021 8.32302 8.6799C8.46091 8.58213 8.58128 8.46176 8.67904 8.32388C8.78936 8.16829 8.85986 7.98315 9.00086 7.61286L9.75625 5.62905Z" stroke="currentColor" stroke-width="2" stroke-linecap="round" stroke-linejoin="round"/>
</svg>
