<svg width="24" height="24" viewBox="0 0 24 24" fill="none" xmlns="http://www.w3.org/2000/svg">
<path d="M5.5785 18.427H5.58852M18.4379 5.60573H18.4479M5.58852 15.8394L6.28741 17.7281L8.17611 18.427L6.28741 19.1259L5.58852 21.0146L4.88964 19.1259L3.00094 18.427L4.88964 17.7281L5.58852 15.8394ZM6.07968 18.427C6.07968 18.7038 5.85529 18.9282 5.5785 18.9282C5.3017 18.9282 5.07732 18.7038 5.07732 18.427C5.07732 18.1502 5.3017 17.9258 5.5785 17.9258C5.85529 17.9258 6.07968 18.1502 6.07968 18.427ZM18.4479 3.01815L19.1468 4.90685L21.0355 5.60573L19.1468 6.30462L18.4479 8.19332L17.749 6.30462L15.8603 5.60573L17.749 4.90685L18.4479 3.01815ZM18.9391 5.60573C18.9391 5.88253 18.7147 6.10692 18.4379 6.10692C18.1611 6.10692 17.9367 5.88253 17.9367 5.60573C17.9367 5.32894 18.1611 5.10455 18.4379 5.10455C18.7147 5.10455 18.9391 5.32894 18.9391 5.60573ZM4.85717 5.18741L2.77158 6.29315C2.33906 6.52247 2.12281 6.63712 2.05207 6.79002C1.99046 6.9232 1.99046 7.07672 2.05207 7.2099C2.12281 7.3628 2.33906 7.47746 2.77158 7.70677L4.85717 8.81251C4.93782 8.85526 4.97814 8.87664 5.01336 8.90433C5.04462 8.92891 5.07284 8.95713 5.09742 8.98839C5.12511 9.02361 5.14649 9.06393 5.18924 9.14458L6.29499 11.2302C6.5243 11.6627 6.63895 11.8789 6.79185 11.9497C6.92503 12.0113 7.07855 12.0113 7.21173 11.9497C7.36463 11.8789 7.47929 11.6627 7.7086 11.2302L8.81434 9.14458C8.85709 9.06394 8.87847 9.02361 8.90616 8.98839C8.93074 8.95713 8.95896 8.92891 8.99022 8.90433C9.02544 8.87664 9.06577 8.85526 9.14641 8.81251L11.232 7.70677C11.6645 7.47746 11.8808 7.3628 11.9515 7.2099C12.0131 7.07672 12.0131 6.9232 11.9515 6.79002C11.8808 6.63712 11.6645 6.52246 11.232 6.29315L9.14641 5.18741C9.06577 5.14466 9.02544 5.12328 8.99022 5.09559C8.95896 5.07101 8.93074 5.04279 8.90616 5.01153C8.87847 4.97631 8.85709 4.93599 8.81434 4.85534L7.7086 2.76975C7.47929 2.33723 7.36463 2.12098 7.21173 2.05024C7.07855 1.98862 6.92503 1.98862 6.79185 2.05024C6.63895 2.12098 6.5243 2.33723 6.29499 2.76975L5.18924 4.85534C5.14649 4.93599 5.12511 4.97631 5.09742 5.01153C5.07284 5.04279 5.04462 5.07101 5.01336 5.09559C4.97814 5.12328 4.93782 5.14466 4.85717 5.18741ZM14.9059 15.1996L12.8203 16.3054C12.3878 16.5347 12.1716 16.6493 12.1008 16.8022C12.0392 16.9354 12.0392 17.0889 12.1008 17.2221C12.1716 17.375 12.3878 17.4897 12.8203 17.719L14.9059 18.8247C14.9866 18.8675 15.0269 18.8888 15.0621 18.9165C15.0934 18.9411 15.1216 18.9693 15.1462 19.0006C15.1739 19.0358 15.1952 19.0761 15.238 19.1568L16.3437 21.2424C16.573 21.6749 16.6877 21.8911 16.8406 21.9619C16.9738 22.0235 17.1273 22.0235 17.2605 21.9619C17.4134 21.8911 17.528 21.6749 17.7573 21.2424L18.8631 19.1568C18.9058 19.0761 18.9272 19.0358 18.9549 19.0006C18.9795 18.9693 19.0077 18.9411 19.039 18.9165C19.0742 18.8888 19.1145 18.8675 19.1952 18.8247L21.2807 17.719C21.7133 17.4897 21.9295 17.375 22.0003 17.2221C22.0619 17.0889 22.0619 16.9354 22.0003 16.8022C21.9295 16.6493 21.7133 16.5347 21.2807 16.3054L19.1952 15.1996C19.1145 15.1569 19.0742 15.1355 19.039 15.1078C19.0077 15.0832 18.9795 15.055 18.9549 15.0237C18.9272 14.9885 18.9058 14.9482 18.8631 14.8675L17.7573 12.782C17.528 12.3494 17.4134 12.1332 17.2605 12.0624C17.1273 12.0008 16.9738 12.0008 16.8406 12.0624C16.6877 12.1332 16.573 12.3494 16.3437 12.782L15.238 14.8675C15.1952 14.9482 15.1739 14.9885 15.1462 15.0237C15.1216 15.055 15.0934 15.0832 15.0621 15.1078C15.0269 15.1355 14.9866 15.1569 14.9059 15.1996Z" stroke="currentColor" stroke-width="2" stroke-linecap="round" stroke-linejoin="round"/>
</svg>
