<svg width="24" height="24" viewBox="0 0 24 24" fill="none" xmlns="http://www.w3.org/2000/svg">
<path d="M10.4222 6.71202C10.8656 4.02033 11.0872 2.67449 11.4672 2.43469C11.7933 2.22888 12.2086 2.22888 12.5347 2.43469C12.9146 2.67449 13.1363 4.02033 13.5797 6.71202L13.9177 8.76452C13.9848 9.17179 14.0184 9.37543 14.1149 9.53774C14.2001 9.68107 14.3199 9.80081 14.4632 9.88606C14.6255 9.98258 14.8292 10.0161 15.2364 10.0832L17.2889 10.4213C19.9806 10.8647 21.3265 11.0863 21.5663 11.4663C21.7721 11.7923 21.7721 12.2077 21.5663 12.5338C21.3265 12.9137 19.9806 13.1354 17.2889 13.5787L15.2364 13.9168C14.8292 13.9839 14.6255 14.0174 14.4632 14.114C14.3199 14.1992 14.2001 14.319 14.1149 14.4623C14.0184 14.6246 13.9848 14.8282 13.9177 15.2355L13.5797 17.288C13.1363 19.9797 12.9146 21.3255 12.5347 21.5653C12.2086 21.7712 11.7933 21.7712 11.4672 21.5653C11.0872 21.3255 10.8656 19.9797 10.4222 17.288L10.0841 15.2355C10.017 14.8282 9.9835 14.6246 9.88697 14.4623C9.80173 14.319 9.68199 14.1992 9.53865 14.114C9.37635 14.0174 9.17271 13.9839 8.76544 13.9168L6.71294 13.5787C4.02125 13.1354 2.67541 12.9137 2.4356 12.5338C2.2298 12.2077 2.2298 11.7923 2.4356 11.4663C2.67541 11.0863 4.02125 10.8647 6.71293 10.4213L8.76544 10.0832C9.17271 10.0161 9.37635 9.98258 9.53865 9.88606C9.68199 9.80081 9.80173 9.68107 9.88697 9.53774C9.9835 9.37543 10.017 9.17179 10.0841 8.76452L10.4222 6.71202Z" stroke="currentColor" stroke-width="2" stroke-linecap="round" stroke-linejoin="round"/>
</svg>
