<svg width="24" height="24" viewBox="0 0 24 24" fill="none" xmlns="http://www.w3.org/2000/svg">
<path d="M3 7.8C3 6.11984 3 5.27976 3.32698 4.63803C3.6146 4.07354 4.07354 3.6146 4.63803 3.32698C5.27976 3 6.11984 3 7.8 3H16.2C17.8802 3 18.7202 3 19.362 3.32698C19.9265 3.6146 20.3854 4.07354 20.673 4.63803C21 5.27976 21 6.11984 21 7.8V16.2C21 17.8802 21 18.7202 20.673 19.362C20.3854 19.9265 19.9265 20.3854 19.362 20.673C18.7202 21 17.8802 21 16.2 21H7.8C6.11984 21 5.27976 21 4.63803 20.673C4.07354 20.3854 3.6146 19.9265 3.32698 19.362C3 18.7202 3 17.8802 3 16.2V7.8Z" stroke="currentColor" stroke-width="2" stroke-linecap="round" stroke-linejoin="round"/>
<path d="M8.10522 10.442C8.10522 9.62405 8.10522 9.21506 8.26441 8.90263C8.40444 8.62781 8.62788 8.40438 8.90269 8.26435C9.21512 8.10516 9.62411 8.10516 10.4421 8.10516H13.5579C14.3759 8.10516 14.7849 8.10516 15.0973 8.26435C15.3721 8.40438 15.5956 8.62781 15.7356 8.90263C15.8948 9.21506 15.8948 9.62405 15.8948 10.442V13.5578C15.8948 14.3758 15.8948 14.7848 15.7356 15.0972C15.5956 15.3721 15.3721 15.5955 15.0973 15.7355C14.7849 15.8947 14.3759 15.8947 13.5579 15.8947H10.4421C9.62411 15.8947 9.21512 15.8947 8.90269 15.7355C8.62788 15.5955 8.40444 15.3721 8.26441 15.0972C8.10522 14.7848 8.10522 14.3758 8.10522 13.5578V10.442Z" stroke="currentColor" stroke-width="2" stroke-linecap="round" stroke-linejoin="round"/>
</svg>
