<svg width="24" height="24" viewBox="0 0 24 24" fill="none" xmlns="http://www.w3.org/2000/svg">
<path d="M14.6693 14.9791C13.9613 15.6139 13.0258 16 12 16C9.79086 16 8 14.2091 8 12C8 10.985 8.37804 10.0583 9.00099 9.35305M12.9534 8.11431C14.4 8.46803 15.538 9.60851 15.8881 11.0565M17.6124 17.7009C16.1684 19.1227 14.1866 20 12 20C7.58172 20 4 16.4183 4 12C4 9.92099 4.79305 8.02721 6.09313 6.60466M19.4924 14.8104C19.8205 13.9361 20 12.989 20 12C20 7.58172 16.4183 4 12 4C11.026 4 10.0926 4.17408 9.22926 4.49282M18.6836 7.58521C21.2142 10.8968 21.859 14.5073 21.857 17.3227M5.31641 16.4148C2.68574 12.9722 2.09292 9.20661 2.14617 6.34711M2 2L22 22" stroke="currentColor" stroke-width="2" stroke-linecap="round" stroke-linejoin="round"/>
</svg>
