<svg width="24" height="24" viewBox="0 0 24 24" fill="none" xmlns="http://www.w3.org/2000/svg">
<path d="M18.6832 7.58521C23.2459 13.5561 21.6783 20.4989 21.242 22M5.31602 16.4148C0.753298 10.4439 2.32095 3.50112 2.75723 2M15.9996 12C15.9996 14.2091 14.2087 16 11.9996 16C9.79047 16 7.99961 14.2091 7.99961 12C7.99961 9.79086 9.79047 8 11.9996 8C14.2087 8 15.9996 9.79086 15.9996 12ZM19.9996 12C19.9996 16.4183 16.4179 20 11.9996 20C7.58133 20 3.99961 16.4183 3.99961 12C3.99961 7.58172 7.58133 4 11.9996 4C16.4179 4 19.9996 7.58172 19.9996 12Z" stroke="currentColor" stroke-width="2" stroke-linecap="round" stroke-linejoin="round"/>
</svg>
