<svg width="24" height="24" viewBox="0 0 24 24" fill="none" xmlns="http://www.w3.org/2000/svg">
<path d="M21.1427 16C21.6936 14.7677 21.9999 13.4021 21.9999 11.965C21.9999 6.49884 17.5687 2.06763 12.1025 2.06763C6.63629 2.06763 2.20508 6.49884 2.20508 11.965C2.20508 13.4021 2.51137 14.7677 3.06222 16M15.0141 18H14.9999M9.076 18H9.06184M7.20503 15L16.9999 15.0332M8.39989 21H15.5999C16.44 21 16.86 21 17.1809 20.8365C17.4631 20.6927 17.6926 20.4632 17.8364 20.181C17.9999 19.8601 17.9999 19.4401 17.9999 18.6V12.8C17.9999 11.1198 17.9999 10.2798 17.6729 9.63803C17.3853 9.07354 16.9264 8.6146 16.3619 8.32698C15.7201 8 14.8801 8 13.1999 8H10.7999C9.11974 8 8.27966 8 7.63792 8.32698C7.07344 8.6146 6.61449 9.07354 6.32687 9.63803C5.99989 10.2798 5.99989 11.1198 5.99989 12.8V18.6C5.99989 19.4401 5.99989 19.8601 6.16338 20.181C6.30719 20.4632 6.53666 20.6927 6.81891 20.8365C7.13977 21 7.55981 21 8.39989 21Z" stroke="currentColor" stroke-width="2" stroke-linecap="round" stroke-linejoin="round"/>
</svg>
