<svg width="24" height="24" viewBox="0 0 24 24" fill="none" xmlns="http://www.w3.org/2000/svg">
<path d="M12 16.5H12.01M5 13H19M7.5 20L6 22M16.5 20L18 22M9.50003 2.00006L11 5.99999H13L14.5 2.00006M9.50003 2.00006H9.33143C9.084 2.00006 8.96028 2.00006 8.84002 2.01973C8.73325 2.0372 8.62868 2.06616 8.52814 2.10612C8.41489 2.15112 8.30881 2.21478 8.09664 2.34208L7 3.00006M9.50003 2.00006H14.5M17 3.00006L15.9034 2.34208C15.6912 2.21478 15.5851 2.15112 15.4719 2.10612C15.3713 2.06616 15.2668 2.0372 15.16 2.01973C15.0397 2.00006 14.916 2.00006 14.6686 2.00006H14.5M8.8 20H15.2C16.8802 20 17.7202 20 18.362 19.673C18.9265 19.3854 19.3854 18.9264 19.673 18.362C20 17.7202 20 16.8801 20 15.2V10.8C20 9.11983 20 8.27975 19.673 7.63801C19.3854 7.07353 18.9265 6.61459 18.362 6.32697C17.7202 5.99999 16.8802 5.99999 15.2 5.99999H8.8C7.11984 5.99999 6.27976 5.99999 5.63803 6.32697C5.07354 6.61459 4.6146 7.07353 4.32698 7.63801C4 8.27975 4 9.11983 4 10.8V15.2C4 16.8801 4 17.7202 4.32698 18.362C4.6146 18.9264 5.07354 19.3854 5.63803 19.673C6.27976 20 7.11984 20 8.8 20ZM12.5 16.5C12.5 16.7761 12.2761 17 12 17C11.7239 17 11.5 16.7761 11.5 16.5C11.5 16.2238 11.7239 16 12 16C12.2761 16 12.5 16.2238 12.5 16.5Z" stroke="currentColor" stroke-width="2" stroke-linecap="round" stroke-linejoin="round"/>
</svg>
