<svg width="24" height="24" viewBox="0 0 24 24" fill="none" xmlns="http://www.w3.org/2000/svg">
<path d="M6 18.0283C6 18.5806 6.44772 19.0283 7 19.0283C7.55228 19.0283 8 18.5806 8 18.0283H6ZM16 18.0283C16 18.5806 16.4477 19.0283 17 19.0283C17.5523 19.0283 18 18.5806 18 18.0283H16ZM2 17.0283C1.44772 17.0283 1 17.476 1 18.0283C1 18.5806 1.44772 19.0283 2 19.0283V17.0283ZM4 19.0283C4.55228 19.0283 5 18.5806 5 18.0283C5 17.476 4.55228 17.0283 4 17.0283V19.0283ZM20 17.0283C19.4477 17.0283 19 17.476 19 18.0283C19 18.5806 19.4477 19.0283 20 19.0283V17.0283ZM22 19.0283C22.5523 19.0283 23 18.5806 23 18.0283C23 17.476 22.5523 17.0283 22 17.0283V19.0283ZM5.63679 10.2502C5.24627 9.85964 4.6131 9.85964 4.22258 10.2502C3.83206 10.6407 3.83206 11.2739 4.22258 11.6644L5.63679 10.2502ZM5.63679 13.0786C6.02732 13.4691 6.66048 13.4691 7.05101 13.0786C7.44153 12.6881 7.44153 12.0549 7.05101 11.6644L5.63679 13.0786ZM16.9491 11.6645C16.5586 12.055 16.5586 12.6882 16.9491 13.0787C17.3397 13.4692 17.9728 13.4692 18.3634 13.0787L16.9491 11.6645ZM19.7776 11.6645C20.1681 11.274 20.1681 10.6408 19.7776 10.2503C19.387 9.85974 18.7539 9.85974 18.3634 10.2503L19.7776 11.6645ZM22 23C22.5523 23 23 22.5523 23 22C23 21.4477 22.5523 21 22 21V23ZM2 21C1.44772 21 1 21.4477 1 22C1 22.5523 1.44772 23 2 23V21ZM13.0002 2C13.0002 1.44772 12.5525 1 12.0002 1C11.4479 1 11.0002 1.44772 11.0002 2H13.0002ZM11.0002 9.88942C11.0002 10.4417 11.4479 10.8894 12.0002 10.8894C12.5525 10.8894 13.0002 10.4417 13.0002 9.88942H11.0002ZM9.22904 5.51908C8.84873 5.1186 8.21577 5.10225 7.81529 5.48256C7.41482 5.86287 7.39847 6.49582 7.77878 6.8963L9.22904 5.51908ZM11.9296 9.81504L11.2045 10.5036L11.2045 10.5037L11.9296 9.81504ZM12.0709 9.81504L12.796 10.5037L12.796 10.5036L12.0709 9.81504ZM16.2217 6.8963C16.602 6.49582 16.5856 5.86287 16.1851 5.48256C15.7847 5.10225 15.1517 5.1186 14.7714 5.51908L16.2217 6.8963ZM8 18.0283C8 15.8192 9.79086 14.0283 12 14.0283V12.0283C8.68629 12.0283 6 14.7146 6 18.0283H8ZM12 14.0283C14.2091 14.0283 16 15.8192 16 18.0283H18C18 14.7146 15.3137 12.0283 12 12.0283V14.0283ZM2 19.0283H4V17.0283H2V19.0283ZM20 19.0283H22V17.0283H20V19.0283ZM4.22258 11.6644L5.63679 13.0786L7.05101 11.6644L5.63679 10.2502L4.22258 11.6644ZM18.3634 13.0787L19.7776 11.6645L18.3634 10.2503L16.9491 11.6645L18.3634 13.0787ZM22 21H2V23H22V21ZM11.0002 2V9.84585H13.0002V2H11.0002ZM11.0002 9.84585V9.88942H13.0002V9.84585H11.0002ZM7.77878 6.8963L11.2045 10.5036L12.6547 9.12642L9.22904 5.51908L7.77878 6.8963ZM12.796 10.5036L16.2217 6.8963L14.7714 5.51908L11.3457 9.12642L12.796 10.5036ZM11.2045 10.5037C11.4148 10.7251 11.7034 10.8458 12.0002 10.8458V8.84585C12.2459 8.84585 12.4834 8.94603 12.6547 9.12641L11.2045 10.5037ZM12.0002 10.8458C12.297 10.8458 12.5857 10.7251 12.796 10.5037L11.3457 9.12641C11.517 8.94603 11.7545 8.84585 12.0002 8.84585V10.8458Z" fill="currentColor"/>
</svg>
