<svg width="24" height="24" viewBox="0 0 24 24" fill="none" xmlns="http://www.w3.org/2000/svg">
<path d="M6.5 20.3282L10.1331 16.6951M7.22612 13.9453L3.75912 17.4123M7.22612 10.0545L3.67157 6.49991M6.54804 3.71953L9.82842 6.99991M17.3836 20.2119L14.0231 16.8514M16.7738 13.9453L20.2315 17.403M17.5 3.67139L14.0231 7.14832M16.8283 9.99991L20.2551 6.57312M22 12C22 17.5228 17.5228 22 12 22C6.47715 22 2 17.5228 2 12C2 6.47715 6.47715 2 12 2C17.5228 2 22 6.47715 22 12ZM17 12C17 14.7614 14.7614 17 12 17C9.23858 17 7 14.7614 7 12C7 9.23854 9.23858 6.99997 12 6.99997C14.7614 6.99997 17 9.23854 17 12Z" stroke="currentColor" stroke-width="2" stroke-linecap="round" stroke-linejoin="round"/>
</svg>
