<svg width="24" height="24" viewBox="0 0 24 24" fill="none" xmlns="http://www.w3.org/2000/svg">
<path d="M14.873 18.0172V8.23847C14.873 7.07291 14.048 6.07039 12.9042 5.84612C11.4218 5.55545 9.93896 6.33249 9.55388 7.79326C9.2033 9.12313 8.87305 10.8947 8.87305 12.8498C8.87305 14.8597 9.22208 16.6757 9.58341 18.0172M19.3627 12.9915C20.1551 13.7399 20.5085 14.9067 20.2642 16.071C20.0022 17.3199 18.9007 18.2143 17.6246 18.2143H6.4539C5.26813 18.2143 4.21945 17.4449 3.86348 16.3138C3.48574 15.1136 3.77017 13.8596 4.55118 13.0362M19.3627 12.9915C19.0078 12.6564 18.5648 12.4051 18.048 12.2756C17.184 12.059 16.1576 11.8469 15.0204 11.6971M19.3627 12.9915C20.16 13.3278 21.4684 12.7744 21.7171 11.9456C22.1481 10.5087 21.5375 8.9826 20.1156 8.5042C18.8884 8.09128 17.1842 7.65643 15.0204 7.42578M4.55118 13.0362C4.93038 12.6364 5.42663 12.3382 6.02099 12.1969C6.81399 12.0083 7.72739 11.8287 8.72629 11.6971M4.55118 13.0362C3.76502 13.3775 2.76717 12.7722 2.41574 11.9905C1.77496 10.5651 2.30673 8.91995 3.79104 8.43101C5.15877 7.98048 7.08762 7.51978 9.57243 7.33887" stroke="currentColor" stroke-width="2" stroke-linecap="round" stroke-linejoin="round"/>
</svg>
