<svg width="24" height="24" viewBox="0 0 24 24" fill="none" xmlns="http://www.w3.org/2000/svg">
<path d="M5.36039 1.99683L6.56393 1.9965C8.03202 1.9961 8.76607 1.99589 9.45687 2.1616C10.0693 2.30852 10.6548 2.55095 11.1919 2.87999C11.7976 3.25112 12.3167 3.77017 13.3548 4.80827L21.1917 12.6452M6.48221 9.26686H6.49087M2.08212 9.67231L2.08207 9.79537C2.08175 10.5296 2.08159 10.8967 2.16442 11.2422C2.23786 11.5485 2.35907 11.8413 2.52362 12.1099C2.70921 12.4128 2.96879 12.6724 3.48796 13.1916L10.1472 19.8508C11.3353 21.0389 11.9293 21.6329 12.6143 21.8555C13.2168 22.0513 13.8659 22.0513 14.4684 21.8555C15.1534 21.6329 15.7474 21.0389 16.9354 19.8508L17.0585 19.7278C18.2465 18.5397 18.8406 17.9457 19.0631 17.2607C19.2589 16.6582 19.2589 16.0092 19.0631 15.4066C18.8406 14.7217 18.2465 14.1276 17.0585 12.9396L10.3992 6.28025C9.88002 5.76111 9.62045 5.50153 9.31752 5.31595C9.04894 5.15141 8.75613 5.03019 8.44984 4.95675C8.10437 4.87392 7.73728 4.87407 7.0031 4.87436L6.88017 4.87441C5.20129 4.8751 4.36186 4.87544 3.72053 5.20234C3.1564 5.48988 2.69771 5.94856 2.41014 6.51268C2.08323 7.154 2.08286 7.99343 2.08212 9.67231ZM6.91491 9.26686C6.91491 9.50584 6.72119 9.69956 6.48221 9.69956C6.24324 9.69956 6.04952 9.50584 6.04952 9.26686C6.04952 9.02789 6.24324 8.83417 6.48221 8.83417C6.72119 8.83417 6.91491 9.02789 6.91491 9.26686Z" stroke="currentColor" stroke-width="2" stroke-linecap="round" stroke-linejoin="round"/>
</svg>
