<svg width="24" height="24" viewBox="0 0 24 24" fill="none" xmlns="http://www.w3.org/2000/svg">
<path d="M8.01667 2.03711H8.79122C9.58729 2.03679 10.3509 2.35288 10.9138 2.91579L21.156 13.158C21.8992 13.9012 22.1709 14.9373 21.9712 15.8947M3.13922 2.72614C2.4745 3.27614 2.05088 4.10724 2.05047 5.03732L2.04883 8.77948C2.04848 9.57559 2.36458 10.3392 2.92751 10.9021L13.1697 21.1443C14.3412 22.3159 16.2407 22.3159 17.4123 21.1443L19.2841 19.2725M7.13477 7.11316H7.14477M2.75 2L22.75 22M7.63477 7.11316C7.63477 7.3893 7.41091 7.61316 7.13477 7.61316C6.85862 7.61316 6.63477 7.3893 6.63477 7.11316C6.63477 6.83702 6.85862 6.61316 7.13477 6.61316C7.41091 6.61316 7.63477 6.83702 7.63477 7.11316Z" stroke="currentColor" stroke-width="2" stroke-linecap="round" stroke-linejoin="round"/>
</svg>
