<svg width="24" height="24" viewBox="0 0 24 24" fill="none" xmlns="http://www.w3.org/2000/svg">
<path d="M7.13436 7.11321H7.14436M2.04939 6.83577L2.04887 8.03341C2.04854 8.76762 2.04838 9.13473 2.13121 9.48021C2.20465 9.78652 2.32587 10.0793 2.49041 10.3479C2.676 10.6509 2.93559 10.9105 3.45475 11.4296L11.8966 19.8715C13.0846 21.0595 13.6787 21.6535 14.3637 21.8761C14.9662 22.0719 15.6152 22.0719 16.2178 21.8761C16.9027 21.6535 17.4968 21.0595 18.6848 19.8715L19.8829 18.6734C21.0709 17.4854 21.665 16.8913 21.8875 16.2063C22.0833 15.6038 22.0833 14.9548 21.8875 14.3522C21.665 13.6673 21.0709 13.0732 19.8829 11.8852L11.441 3.44327C10.9218 2.92413 10.6623 2.66456 10.3593 2.47897C10.0908 2.31443 9.79794 2.19322 9.49166 2.11977C9.14619 2.03694 8.7791 2.03709 8.04491 2.03739L6.84744 2.03788C5.16856 2.03856 4.32912 2.0389 3.6878 2.3658C3.12366 2.65335 2.66498 3.11202 2.37741 3.67614C2.05049 4.31746 2.05013 5.15689 2.04939 6.83577ZM7.63436 7.11321C7.63436 7.38935 7.4105 7.61321 7.13436 7.61321C6.85821 7.61321 6.63436 7.38935 6.63436 7.11321C6.63436 6.83707 6.85821 6.61321 7.13436 6.61321C7.4105 6.61321 7.63436 6.83707 7.63436 7.11321Z" stroke="currentColor" stroke-width="2" stroke-linecap="round" stroke-linejoin="round"/>
</svg>
