<svg width="24" height="24" viewBox="0 0 24 24" fill="none" xmlns="http://www.w3.org/2000/svg">
<g clip-path="url(#clip0_590_3793)">
<path d="M15.356 8.64661L8.64905 15.3535M9.14905 9.14661H9.15905M14.856 14.8535H14.866M7.42272 4.49548C7.74097 4.55165 7.90009 4.57973 8.04955 4.58354C8.61518 4.59794 9.16043 4.37208 9.5502 3.96195C9.6532 3.85357 9.74586 3.72119 9.93118 3.45644C10.3155 2.90734 10.5077 2.63279 10.7006 2.46778C11.4491 1.82764 12.5521 1.82764 13.3006 2.46778C13.4935 2.63279 13.6857 2.90734 14.0701 3.45644C14.2554 3.72119 14.348 3.85357 14.451 3.96195C14.8408 4.37208 15.3861 4.59794 15.9517 4.58354C16.1011 4.57973 16.2603 4.55165 16.5785 4.49548C17.2386 4.37899 17.5686 4.32074 17.8217 4.34048C18.8036 4.41706 19.5836 5.19705 19.6601 6.17892C19.6799 6.43202 19.6216 6.76205 19.5051 7.42211C19.449 7.74036 19.4209 7.89948 19.4171 8.04894C19.4027 8.61457 19.6285 9.15982 20.0387 9.54959C20.1471 9.65259 20.2794 9.74525 20.5442 9.93057C21.0933 10.3149 21.3678 10.5071 21.5328 10.7C22.173 11.4485 22.173 12.5515 21.5328 13.3C21.3678 13.4929 21.0933 13.6851 20.5442 14.0694C20.2794 14.2548 20.1471 14.3474 20.0387 14.4504C19.6285 14.8402 19.4027 15.3854 19.4171 15.9511C19.4209 16.1005 19.449 16.2597 19.5051 16.5779C19.6216 17.238 19.6799 17.568 19.6601 17.8211C19.5836 18.803 18.8036 19.5829 17.8217 19.6595C17.5686 19.6793 17.2386 19.621 16.5785 19.5045C16.2603 19.4484 16.1011 19.4203 15.9517 19.4165C15.3861 19.4021 14.8408 19.6279 14.451 20.0381C14.348 20.1464 14.2554 20.2788 14.0701 20.5436C13.6857 21.0927 13.4935 21.3672 13.3006 21.5322C12.5521 22.1724 11.4491 22.1724 10.7006 21.5322C10.5077 21.3672 10.3155 21.0927 9.93118 20.5436C9.74586 20.2788 9.6532 20.1464 9.5502 20.0381C9.16043 19.6279 8.61518 19.4021 8.04955 19.4165C7.90009 19.4203 7.74097 19.4484 7.42272 19.5045C6.76266 19.621 6.43263 19.6793 6.17953 19.6595C5.19766 19.583 4.41767 18.803 4.34109 17.8211C4.32135 17.568 4.3796 17.238 4.49609 16.5779C4.55226 16.2597 4.58034 16.1005 4.58415 15.9511C4.59855 15.3854 4.37269 14.8402 3.96256 14.4504C3.85418 14.3474 3.7218 14.2548 3.45705 14.0694C2.90795 13.6851 2.6334 13.4929 2.46839 13.3C1.82825 12.5515 1.82825 11.4485 2.46839 10.7C2.6334 10.5071 2.90795 10.3149 3.45705 9.93057C3.7218 9.74525 3.85418 9.65259 3.96256 9.54959C4.37269 9.15982 4.59855 8.61457 4.58415 8.04894C4.58034 7.89948 4.55226 7.74036 4.49609 7.42211C4.3796 6.76205 4.32135 6.43202 4.34109 6.17892C4.41767 5.19705 5.19766 4.41706 6.17953 4.34048C6.43263 4.32074 6.76266 4.37899 7.42272 4.49548ZM9.64905 9.14661C9.64905 9.42276 9.4252 9.64661 9.14905 9.64661C8.87291 9.64661 8.64905 9.42276 8.64905 9.14661C8.64905 8.87047 8.87291 8.64661 9.14905 8.64661C9.4252 8.64661 9.64905 8.87047 9.64905 9.14661ZM15.356 14.8535C15.356 15.1297 15.1321 15.3535 14.856 15.3535C14.5798 15.3535 14.356 15.1297 14.356 14.8535C14.356 14.5774 14.5798 14.3535 14.856 14.3535C15.1321 14.3535 15.356 14.5774 15.356 14.8535Z" stroke="currentColor" stroke-width="2" stroke-linecap="round" stroke-linejoin="round"/>
</g>
<defs>
<clipPath id="clip0_590_3793">
<rect width="24" height="24" fill="white"/>
</clipPath>
</defs>
</svg>
