<svg width="24" height="24" viewBox="0 0 24 24" fill="none" xmlns="http://www.w3.org/2000/svg">
<path d="M12.0003 17.4733H12.0159M16.5 17.5C16.5 19.9853 14.4853 22 12 22C9.51472 22 7.5 19.9853 7.5 17.5C7.5 15.8964 8.33879 14.4887 9.60156 13.6917V4.39844C9.60156 3.07382 10.6754 2 12 2C13.3246 2 14.3984 3.07382 14.3984 4.39844V13.6917C15.6612 14.4887 16.5 15.8964 16.5 17.5ZM12.7819 17.4733C12.7819 17.9049 12.4319 18.2548 12.0003 18.2548C11.5687 18.2548 11.2188 17.9049 11.2188 17.4733C11.2188 17.0416 11.5687 16.6917 12.0003 16.6917C12.4319 16.6917 12.7819 17.0416 12.7819 17.4733Z" stroke="currentColor" stroke-width="2" stroke-linecap="round" stroke-linejoin="round"/>
</svg>
