<svg width="24" height="24" viewBox="0 0 24 24" fill="none" xmlns="http://www.w3.org/2000/svg">
<path d="M10.9521 16.3632C8.87202 15.9994 7.29102 14.1843 7.29102 12C7.29102 9.55355 9.27425 7.57031 11.7207 7.57031C11.944 7.57031 12.1634 7.58683 12.3778 7.61871M11.7207 3.14062V4.9125M2.86133 12H4.6332M5.45703 5.73547L6.70994 6.98838M5.45703 18.2645L6.70994 17.0116M17.6471 2C18.7589 2 19.6601 2.90128 19.6601 4.01304L19.6595 15.5714C20.5759 16.2089 21.1758 17.2697 21.1758 18.4707C21.1758 20.4199 19.5957 22 17.6465 22C15.6973 22 14.1172 20.4199 14.1172 18.4707C14.1172 17.2696 14.7171 16.2087 15.6336 15.5713L15.6342 4.01286C15.6342 2.90117 16.5354 2 17.6471 2Z" stroke="currentColor" stroke-width="2" stroke-linecap="round" stroke-linejoin="round"/>
</svg>
