<svg width="24" height="24" viewBox="0 0 24 24" fill="none" xmlns="http://www.w3.org/2000/svg">
<path d="M9.02552 11.2998L9.02552 5.09998M9.02552 11.2998L6.19963 14.3998M9.02552 11.2998L11.8516 14.3998M9.02552 11.2998V14.3998M9.02552 5.09998L6.19963 2.00004M9.02552 5.09998L11.8516 2.00004M9.02552 5.09998V2.00004M5.92415 8.19983L12.124 8.19983M5.92415 8.19983L2.82422 5.37395M5.92415 8.19983L2.82422 11.0259M5.92415 8.19983H2.82422M17.6471 2C18.7589 2 19.6601 2.90128 19.6601 4.01304L19.6595 15.5714C20.5759 16.2089 21.1758 17.2697 21.1758 18.4707C21.1758 20.4199 19.5957 22 17.6465 22C15.6973 22 14.1172 20.4199 14.1172 18.4707C14.1172 17.2696 14.7171 16.2087 15.6336 15.5713L15.6342 4.01286C15.6342 2.90117 16.5354 2 17.6471 2Z" stroke="currentColor" stroke-width="2" stroke-linecap="round" stroke-linejoin="round"/>
</svg>
