<svg width="24" height="24" viewBox="0 0 24 24" fill="none" xmlns="http://www.w3.org/2000/svg">
<path d="M7.18359 11H8.18359C8.18359 10.4477 7.73588 10 7.18359 10V11ZM3.82162 21.673L3.36763 22.564L3.82162 21.673ZM2.51057 20.362L1.61957 20.816L2.51057 20.362ZM3.82162 11.327L3.36763 10.436L3.82162 11.327ZM2.51057 12.638L1.61957 12.184L2.51057 12.638ZM7.18359 11.5L6.27986 11.0719C6.21647 11.2057 6.18359 11.3519 6.18359 11.5H7.18359ZM11.0959 3.24074L11.9996 3.66883V3.66883L11.0959 3.24074ZM13.4336 23C13.9859 23 14.4336 22.5523 14.4336 22C14.4336 21.4477 13.9859 21 13.4336 21V23ZM13.2833 2.00332L13.2168 3.00111L13.2833 2.00332ZM14.6803 3.40025L13.6825 3.46675V3.46675L14.6803 3.40025ZM11.1848 3.05843L12.067 3.52922L12.067 3.52921L11.1848 3.05843ZM12.8537 2.00228L12.9015 3.00114L12.8537 2.00228ZM15.6009 9.38221L15.2125 10.3037L15.6009 9.38221ZM14.8014 8.58267L13.8799 8.97112L13.8799 8.97113L14.8014 8.58267ZM20.8234 12.9657C20.6945 13.5028 21.0254 14.0426 21.5624 14.1715C22.0995 14.3004 22.6393 13.9695 22.7682 13.4325L20.8234 12.9657ZM15.9999 18C15.4476 18 14.9999 18.4477 14.9999 19C14.9999 19.5523 15.4476 20 15.9999 20V18ZM21.9999 20C22.5522 20 22.9999 19.5523 22.9999 19C22.9999 18.4477 22.5522 18 21.9999 18V20ZM19.9999 16C19.9999 15.4477 19.5522 15 18.9999 15C18.4476 15 17.9999 15.4477 17.9999 16H19.9999ZM17.9999 22C17.9999 22.5523 18.4476 23 18.9999 23C19.5522 23 19.9999 22.5523 19.9999 22H17.9999ZM6.98359 12H7.18359V10H6.98359V12ZM6.18359 11V22H8.18359V11H6.18359ZM7.18359 21H6.98359V23H7.18359V21ZM3.18359 17.2V15.8H1.18359V17.2H3.18359ZM6.98359 21C6.12701 21 5.54472 20.9992 5.09463 20.9624C4.65622 20.9266 4.43201 20.8617 4.27561 20.782L3.36763 22.564C3.85297 22.8113 4.36967 22.9099 4.93177 22.9558C5.48219 23.0008 6.16002 23 6.98359 23V21ZM1.18359 17.2C1.18359 18.0236 1.18282 18.7014 1.22779 19.2518C1.27371 19.8139 1.37228 20.3306 1.61957 20.816L3.40158 19.908C3.32189 19.7516 3.25697 19.5274 3.22115 19.089C3.18437 18.6389 3.18359 18.0566 3.18359 17.2H1.18359ZM4.27561 20.782C3.89929 20.5903 3.59333 20.2843 3.40158 19.908L1.61957 20.816C2.00306 21.5686 2.61498 22.1805 3.36763 22.564L4.27561 20.782ZM6.98359 10C6.16002 10 5.48219 9.99922 4.93177 10.0442C4.36967 10.0901 3.85297 10.1887 3.36763 10.436L4.27561 12.218C4.43201 12.1383 4.65622 12.0734 5.09463 12.0376C5.54472 12.0008 6.12701 12 6.98359 12V10ZM3.18359 15.8C3.18359 14.9434 3.18437 14.3611 3.22115 13.911C3.25697 13.4726 3.32189 13.2484 3.40158 13.092L1.61957 12.184C1.37228 12.6694 1.27371 13.1861 1.22779 13.7482C1.18282 14.2986 1.18359 14.9764 1.18359 15.8H3.18359ZM3.36763 10.436C2.61498 10.8195 2.00306 11.4314 1.61957 12.184L3.40158 13.092C3.59333 12.7157 3.89929 12.4097 4.27561 12.218L3.36763 10.436ZM8.18359 22V11.5H6.18359V22H8.18359ZM16.9455 10.5H18.8794V8.5H16.9455V10.5ZM8.08733 11.9281L11.9996 3.66883L10.1921 2.81266L6.27986 11.0719L8.08733 11.9281ZM13.6836 3.6271V7.23806H15.6836V3.6271H13.6836ZM13.4336 21H7.18359V23H13.4336V21ZM13.0565 3C13.1178 3 13.1553 3.00002 13.1839 3.00035C13.2112 3.00066 13.218 3.00118 13.2168 3.00111L13.3498 1.00553C13.2584 0.999442 13.1584 1 13.0565 1V3ZM15.6836 3.6271C15.6836 3.5252 15.6842 3.42516 15.6781 3.33375L13.6825 3.46675C13.6824 3.46563 13.6829 3.47238 13.6832 3.49971C13.6836 3.52829 13.6836 3.56579 13.6836 3.6271H15.6836ZM13.2168 3.00111C13.4668 3.01776 13.6658 3.21681 13.6825 3.46675L15.6781 3.33375C15.5948 2.08404 14.5996 1.08882 13.3498 1.00553L13.2168 3.00111ZM11.9996 3.66883C12.0482 3.56621 12.0584 3.54526 12.067 3.52922L10.3025 2.58764C10.2661 2.65597 10.232 2.72844 10.1921 2.81266L11.9996 3.66883ZM13.0565 1C12.9633 1 12.8832 0.999727 12.8059 1.00343L12.9015 3.00114C12.9196 3.00027 12.9429 3 13.0565 3V1ZM12.067 3.52921C12.2328 3.21855 12.5497 3.01797 12.9015 3.00114L12.8059 1.00343C11.7507 1.05391 10.7998 1.65565 10.3025 2.58764L12.067 3.52921ZM16.9455 8.5C16.5766 8.5 16.3507 8.49944 16.1809 8.48767C16.1017 8.48218 16.0531 8.47526 16.0232 8.46934C16.009 8.46652 16.0001 8.46414 15.9953 8.46272C15.9929 8.462 15.9914 8.46147 15.9905 8.46116C15.9901 8.46101 15.9898 8.4609 15.9896 8.46083C15.9895 8.4608 15.9895 8.46077 15.9894 8.46076C15.9894 8.46075 15.9894 8.46074 15.9894 8.46074C15.9894 8.46074 15.9894 8.46073 15.9894 8.46073L15.2125 10.3037C15.4962 10.4233 15.7783 10.4646 16.0426 10.4829C16.2976 10.5006 16.6044 10.5 16.9455 10.5V8.5ZM13.6836 7.23806C13.6836 7.57922 13.683 7.88597 13.7007 8.14102C13.719 8.40525 13.7603 8.68737 13.8799 8.97112L15.7229 8.19423C15.7229 8.19423 15.7229 8.19422 15.7229 8.19421C15.7228 8.1942 15.7228 8.19419 15.7228 8.19417C15.7228 8.19413 15.7228 8.19407 15.7228 8.19398C15.7227 8.19381 15.7226 8.19352 15.7224 8.19308C15.7221 8.19223 15.7216 8.19067 15.7209 8.18826C15.7194 8.18348 15.7171 8.17462 15.7143 8.16036C15.7083 8.13045 15.7014 8.08192 15.6959 8.00274C15.6842 7.83287 15.6836 7.60703 15.6836 7.23806H13.6836ZM15.9894 8.46074C15.8692 8.41006 15.7735 8.31443 15.7229 8.19422L13.8799 8.97113C14.1333 9.57213 14.6115 10.0503 15.2125 10.3037L15.9894 8.46074ZM18.8794 10.5C20.1723 10.5 21.1251 11.7086 20.8234 12.9657L22.7682 13.4325C23.3717 10.9177 21.4656 8.5 18.8794 8.5V10.5ZM15.9999 20H18.9999V18H15.9999V20ZM18.9999 20H21.9999V18H18.9999V20ZM17.9999 16V19H19.9999V16H17.9999ZM17.9999 19V22H19.9999V19H17.9999Z" fill="currentColor"/>
</svg>
