<svg width="24" height="24" viewBox="0 0 24 24" fill="none" xmlns="http://www.w3.org/2000/svg">
<path d="M7.18359 22V11H6.98359C5.30344 11 4.46336 11 3.82162 11.327C3.25714 11.6146 2.79819 12.0735 2.51057 12.638C2.18359 13.2798 2.18359 14.1198 2.18359 15.8V17.2C2.18359 18.8802 2.18359 19.7202 2.51057 20.362C2.79819 20.9265 3.25714 21.3854 3.82162 21.673C4.46336 22 5.30344 22 6.98359 22H7.18359ZM7.18359 22H12.5594C14.8375 22 15.9765 22 16.942 21.6608C18.1979 21.2196 19.2714 20.3732 19.9936 19.2549C20.5487 18.3953 20.8145 17.2877 21.3462 15.0725C21.7543 13.3719 21.9584 12.5216 21.8051 11.8409C21.6058 10.9557 21.0165 10.2083 20.2023 9.80792C19.5762 9.5 18.7 9.5 16.9476 9.5C16.2361 9.5 15.8803 9.5 15.6009 9.38221C15.2403 9.23019 14.9534 8.94328 14.8014 8.58267C14.6836 8.30324 14.6836 7.94818 14.6836 7.23806V3.6271C14.6836 3.50908 14.6836 3.45007 14.6803 3.40025C14.6303 2.65042 14.0332 2.05329 13.2833 2.00332C13.2335 2 13.1745 2 13.0565 2C12.9531 2 12.9014 2 12.8537 2.00228C12.1502 2.03594 11.5163 2.4371 11.1848 3.05843C11.1623 3.10061 11.1401 3.14732 11.0959 3.24074L7.18359 11.5V22Z" stroke="currentColor" stroke-width="2" stroke-linecap="round" stroke-linejoin="round"/>
</svg>
