<svg width="24" height="24" viewBox="0 0 24 24" fill="none" xmlns="http://www.w3.org/2000/svg">
<path d="M10 11.4595V12.5744M10 15.9191V17.0339M10 7V8.11488M22 16.3V16.8C22 17.9201 22 18.4802 21.782 18.908C21.5903 19.2843 21.2843 19.5903 20.908 19.782C20.4802 20 19.9201 20 18.8 20H5.2C4.0799 20 3.51984 20 3.09202 19.782C2.71569 19.5903 2.40973 19.2843 2.21799 18.908C2 18.4802 2 17.9201 2 16.8V16.3C2 16.0259 2 15.8888 2.04004 15.7949C2.08144 15.6978 2.11988 15.6494 2.20516 15.5871C2.28763 15.5269 2.45627 15.4878 2.79338 15.4097C4.3442 15.0503 5.5 13.6601 5.5 12C5.5 10.3399 4.3442 8.94972 2.79338 8.59031C2.45622 8.51217 2.28763 8.4731 2.20516 8.41288C2.11988 8.35062 2.08144 8.30225 2.04004 8.20511C2 8.11118 2 7.97412 2 7.7V7.2C2 6.0799 2 5.51984 2.21799 5.09202C2.40973 4.71569 2.71569 4.40973 3.09202 4.21799C3.51984 4 4.0799 4 5.2 4H18.8C19.9201 4 20.4802 4 20.908 4.21799C21.2843 4.40973 21.5903 4.71569 21.782 5.09202C22 5.51984 22 6.0799 22 7.2V7.7C22 7.97412 22 8.11118 21.96 8.20511C21.9186 8.30225 21.8801 8.35062 21.7948 8.41288C21.7124 8.4731 21.5438 8.51217 21.2066 8.59031C19.6558 8.94972 18.5 10.3399 18.5 12C18.5 13.6601 19.6558 15.0503 21.2066 15.4097C21.5437 15.4878 21.7124 15.5269 21.7948 15.5871C21.8801 15.6494 21.9186 15.6978 21.96 15.7949C22 15.8888 22 16.0259 22 16.3Z" stroke="currentColor" stroke-width="2" stroke-linecap="round" stroke-linejoin="round"/>
</svg>
