<svg width="24" height="24" viewBox="0 0 24 24" fill="none" xmlns="http://www.w3.org/2000/svg">
<path d="M14.4294 8.82242L15.2042 9.59726C15.9557 10.3487 17.174 10.3487 17.9255 9.59726L19.996 7.52676C20.476 7.04676 21.2844 7.20834 21.4185 7.87379C21.8488 10.0104 21.2357 12.3154 19.579 13.9721C17.547 16.0041 14.5395 16.4662 12.0638 15.3583L6.51807 20.9041C5.57875 21.8434 4.0558 21.8434 3.11648 20.9041C2.17716 19.9647 2.17716 18.4418 3.11648 17.5025L8.66458 11.9544C7.5615 9.48032 8.02483 6.47735 10.0546 4.44761C11.7112 2.79095 14.0162 2.1778 16.1528 2.60815C16.8183 2.74218 16.9799 3.55064 16.4999 4.03064L14.4294 6.10115C13.6779 6.8526 13.6779 8.07096 14.4294 8.82242Z" stroke="currentColor" stroke-width="2" stroke-linecap="round" stroke-linejoin="round"/>
</svg>
