<svg width="24" height="24" viewBox="0 0 24 24" fill="none" xmlns="http://www.w3.org/2000/svg">
<path d="M3.0007 17.7166H9.67457M9.67457 17.7166H9.71164M9.67457 17.7166C9.67457 17.7406 9.66584 17.7646 9.64836 17.7829L6.57986 20.9999M9.67457 17.7166C9.67457 17.6925 9.66584 17.6685 9.64836 17.6502L6.57987 14.4332M12.8786 20.9999H16.1968C17.8769 20.9999 18.717 20.9999 19.3588 20.673C19.9232 20.3853 20.3822 19.9264 20.6698 19.3619C20.9968 18.7202 20.9968 17.8801 20.9968 16.1999V12.3005C20.9968 11.2687 20.9968 10.7528 20.8749 10.2704C20.7669 9.8429 20.5889 9.43617 20.3482 9.0667C20.0766 8.64986 19.6977 8.29977 18.9398 7.5996L15.254 4.19446C14.1054 3.1333 13.5311 2.60272 12.8786 2.40205C12.304 2.22536 11.6896 2.22536 11.115 2.40205C10.4625 2.60272 9.88815 3.1333 8.73954 4.19446L5.0538 7.5996C4.29593 8.29977 3.91699 8.64986 3.6454 9.0667C3.40467 9.43617 3.22669 9.8429 3.11867 10.2704C3.03305 10.6093 3.00758 10.9647 3 11.5039" stroke="currentColor" stroke-width="2" stroke-linecap="round" stroke-linejoin="round"/>
</svg>
