<svg width="24" height="24" viewBox="0 0 24 24" fill="none" xmlns="http://www.w3.org/2000/svg">
<path d="M14.2891 17.7166H20.9629M20.9629 17.7166H21M20.9629 17.7166C20.9629 17.7406 20.9542 17.7646 20.9367 17.7829L17.8682 20.9999M20.9629 17.7166C20.9629 17.6926 20.9542 17.6686 20.9367 17.6503L17.8682 14.4333M11.1182 20.9999H7.8C6.11984 20.9999 5.27976 20.9999 4.63803 20.673C4.07354 20.3853 3.6146 19.9264 3.32698 19.3619C3 18.7202 3 17.8801 3 16.1999V12.3005C3 11.2687 3 10.7528 3.12187 10.2704C3.2299 9.8429 3.40788 9.43617 3.6486 9.0667C3.9202 8.64986 4.29913 8.29977 5.057 7.5996L8.74275 4.19446C9.89136 3.1333 10.4657 2.60272 11.1182 2.40205C11.6928 2.22536 12.3072 2.22536 12.8818 2.40205C13.5343 2.60272 14.1086 3.1333 15.2572 4.19446L18.943 7.5996C19.7009 8.29977 20.0798 8.64986 20.3514 9.0667C20.5921 9.43617 20.7701 9.8429 20.8781 10.2704C20.9637 10.6093 20.9892 10.9647 20.9968 11.5039" stroke="currentColor" stroke-width="2" stroke-linecap="round" stroke-linejoin="round"/>
</svg>
