<svg width="24" height="24" viewBox="0 0 24 24" fill="none" xmlns="http://www.w3.org/2000/svg">
<path d="M5 7C4.53501 7 4.30252 7 4.11177 6.94889C3.59413 6.81019 3.18981 6.40587 3.05111 5.88823C3 5.69748 3 5.46499 3 5C3 4.53501 3 4.30252 3.05111 4.11177C3.18981 3.59413 3.59413 3.18981 4.11177 3.05111C4.30252 3 4.53501 3 5 3C5.46499 3 5.69748 3 5.88823 3.05111C6.40587 3.18981 6.81019 3.59413 6.94889 4.11177C7 4.30252 7 4.53501 7 5M5 7C5.46499 7 5.69748 7 5.88823 6.94889C6.40587 6.81019 6.81019 6.40587 6.94889 5.88823C7 5.69748 7 5.46499 7 5M5 7V17M7 5H17M19 7C18.535 7 18.3025 7 18.1118 6.94889C17.5941 6.81019 17.1898 6.40587 17.0511 5.88823C17 5.69748 17 5.46499 17 5M19 7C19.465 7 19.6975 7 19.8882 6.94889C20.4059 6.81019 20.8102 6.40587 20.9489 5.88823C21 5.69748 21 5.46499 21 5C21 4.53501 21 4.30252 20.9489 4.11177C20.8102 3.59413 20.4059 3.18981 19.8882 3.05111C19.6975 3 19.465 3 19 3C18.535 3 18.3025 3 18.1118 3.05111C17.5941 3.18981 17.1898 3.59413 17.0511 4.11177C17 4.30252 17 4.53501 17 5M19 7V17M17 19C17 19.465 17 19.6975 17.0511 19.8882C17.1898 20.4059 17.5941 20.8102 18.1118 20.9489C18.3025 21 18.535 21 19 21C19.465 21 19.6975 21 19.8882 20.9489C20.4059 20.8102 20.8102 20.4059 20.9489 19.8882C21 19.6975 21 19.465 21 19C21 18.535 21 18.3025 20.9489 18.1118C20.8102 17.5941 20.4059 17.1898 19.8882 17.0511C19.6975 17 19.465 17 19 17M17 19C17 18.535 17 18.3025 17.0511 18.1118C17.1898 17.5941 17.5941 17.1898 18.1118 17.0511C18.3025 17 18.535 17 19 17M17 19H7M7 19C7 19.465 7 19.6975 6.94889 19.8882C6.81019 20.4059 6.40587 20.8102 5.88823 20.9489C5.69748 21 5.46499 21 5 21C4.53501 21 4.30252 21 4.11177 20.9489C3.59413 20.8102 3.18981 20.4059 3.05111 19.8882C3 19.6975 3 19.465 3 19C3 18.535 3 18.3025 3.05111 18.1118C3.18981 17.5941 3.59413 17.1898 4.11177 17.0511C4.30252 17 4.53501 17 5 17M7 19C7 18.535 7 18.3025 6.94889 18.1118C6.81019 17.5941 6.40587 17.1898 5.88823 17.0511C5.69748 17 5.46499 17 5 17" stroke="currentColor" stroke-width="2" stroke-linecap="round" stroke-linejoin="round"/>
</svg>
