<svg width="24" height="24" viewBox="0 0 24 24" fill="none" xmlns="http://www.w3.org/2000/svg">
<path d="M8 6C8 7.65685 6.65685 9 5 9C3.34315 9 2 7.65685 2 6C2 4.34315 3.34315 3 5 3C6.65685 3 8 4.34315 8 6ZM8 6H16M8 6V12.2C8 13.8802 8 14.7202 8.32698 15.362C8.6146 15.9265 9.07354 16.3854 9.63803 16.673C10.2798 17 11.1198 17 12.8 17H13.5M16 6C16 7.65685 17.3431 9 19 9C20.6569 9 22 7.65685 22 6C22 4.34315 20.6569 3 19 3C17.3431 3 16 4.34315 16 6ZM19.4105 13.1403H18.5307C17.5861 13.1403 16.8203 13.9061 16.8203 14.8507C16.8203 15.7953 17.5861 16.5611 18.5307 16.5611H20.2902C21.2348 16.5611 22.0006 17.3269 22.0006 18.2715C22.0006 19.2162 21.2348 19.982 20.2902 19.982H19.4105M19.4105 13.1403V12M19.4105 13.1403H20.6808C21.0681 13.1403 21.4401 13.2918 21.7173 13.5623M19.4105 19.982V21.1222M19.4105 19.982H18.4458C18.2791 19.982 18.1958 19.982 18.1135 19.9774C17.7723 19.9587 17.4367 19.8817 17.1213 19.7499C17.0453 19.7182 16.9703 19.6819 16.8203 19.6093" stroke="currentColor" stroke-width="2" stroke-linecap="round" stroke-linejoin="round"/>
</svg>
