<svg width="24" height="24" viewBox="0 0 24 24" fill="none" xmlns="http://www.w3.org/2000/svg">
<path d="M5 12.0324V6H19V17.2C19 18.8802 19 19.7202 18.673 20.362C18.3854 20.9265 17.9265 21.3854 17.362 21.673C16.7202 22 15.8802 22 14.2 22H13.9452M3 6H21M5.6854 22L3 19.3146L5.6854 16.6292M3.98283 19.3146L8.69724 19.3146C10.7947 19.3146 12.495 17.6143 12.495 15.5169C12.495 13.4195 11.4809 12.141 9.48297 10.7077M16 6L8 6C8 5.07003 8 4.60504 8.10222 4.22354C8.37962 3.18827 9.18827 2.37962 10.2235 2.10222C10.605 2 11.07 2 12 2C12.93 2 13.395 2 13.7765 2.10222C14.8117 2.37962 15.6204 3.18827 15.8978 4.22354C16 4.60504 16 5.07003 16 6Z" stroke="currentColor" stroke-width="2" stroke-linecap="round" stroke-linejoin="round"/>
</svg>
