<svg width="24" height="24" viewBox="0 0 24 24" fill="none" xmlns="http://www.w3.org/2000/svg">
<path d="M9.92217 5.28799C10.6042 4.1066 10.9453 3.51591 11.3905 3.31767C11.7789 3.14476 12.2224 3.14476 12.6107 3.31767C13.056 3.51591 13.397 4.1066 14.0791 5.28799L20.9597 17.2055C21.6417 18.3869 21.9828 18.9776 21.9318 19.4623C21.8874 19.8851 21.6656 20.2691 21.3217 20.519C20.9274 20.8055 20.2453 20.8055 18.8812 20.8055H5.12007C3.75591 20.8055 3.07384 20.8055 2.67954 20.519C2.33561 20.2691 2.11387 19.8851 2.06943 19.4623C2.01849 18.9776 2.35953 18.3869 3.0416 17.2055L9.92217 5.28799Z" stroke="currentColor" stroke-width="2" stroke-linecap="round" stroke-linejoin="round"/>
</svg>
