<svg width="24" height="24" viewBox="0 0 24 24" fill="none" xmlns="http://www.w3.org/2000/svg">
<path d="M2 4H2.6C3.44008 4 3.86012 4 4.18099 4.16349C4.46323 4.3073 4.6927 4.53677 4.83651 4.81901C5 5.13988 5 5.55992 5 6.4V13.6C5 14.4401 5 14.8601 5.16349 15.181C5.3073 15.4632 5.53677 15.6927 5.81901 15.8365C6.13988 16 6.55992 16 7.4 16H22M11.1777 18C11.1777 19.1046 10.2823 20 9.17773 20C8.07316 20 7.17773 19.1046 7.17773 18C7.17773 16.8954 8.07316 16 9.17773 16C10.2823 16 11.1777 16.8954 11.1777 18ZM19.5 18C19.5 19.1046 18.6046 20 17.5 20C16.3954 20 15.5 19.1046 15.5 18C15.5 16.8954 16.3954 16 17.5 16C18.6046 16 19.5 16.8954 19.5 18ZM18.5566 16V9.4C18.5566 8.55992 18.5566 8.13988 18.3932 7.81901C18.2493 7.53677 18.0199 7.3073 17.7376 7.16349C17.4168 7 16.9967 7 16.1566 7H10.9566C10.1166 7 9.69652 7 9.37565 7.16349C9.09341 7.3073 8.86394 7.53677 8.72013 7.81901C8.55664 8.13988 8.55664 8.55992 8.55664 9.4V16H18.5566Z" stroke="currentColor" stroke-width="2" stroke-linecap="round" stroke-linejoin="round"/>
</svg>
