<svg width="24" height="24" viewBox="0 0 24 24" fill="none" xmlns="http://www.w3.org/2000/svg">
<path d="M10.3284 3C9.77608 3 9.32837 3.44772 9.32837 4C9.32837 4.55228 9.77608 5 10.3284 5V3ZM3.09202 15.782L3.54601 14.891H3.54601L3.09202 15.782ZM3 12.0522C3 11.4999 2.55228 11.0522 2 11.0522C1.44772 11.0522 1 11.4999 1 12.0522H3ZM2.21799 14.908L1.32698 15.362L2.21799 14.908ZM15.908 4.21799L16.362 3.32698L15.908 4.21799ZM16.782 5.09202L15.891 5.54601V5.54601L16.782 5.09202ZM17 7V6H16V7H17ZM19.6619 7.05767L19.3873 8.01922L19.6619 7.05767ZM20.72 7.96L19.92 8.56L20.72 7.96ZM20.1567 7.30506L20.7612 6.50844L20.1567 7.30506ZM22.8365 15.181L23.7275 15.635L22.8365 15.181ZM22.181 15.8365L22.635 16.7275L22.181 15.8365ZM22.9721 11.2122L23.9536 11.0204L22.9721 11.2122ZM22.52 10.36L23.32 9.76V9.76L22.52 10.36ZM22.8504 10.8469L23.7506 10.4116L22.8504 10.8469ZM2 5.58767C1.44772 5.58767 1 6.03539 1 6.58767C1 7.13996 1.44772 7.58767 2 7.58767L2 5.58767ZM7.28906 7.58767C7.84135 7.58767 8.28906 7.13996 8.28906 6.58767C8.28906 6.03539 7.84135 5.58767 7.28906 5.58767V7.58767ZM4.09722 8.48514C3.71603 8.88478 3.73099 9.51776 4.13062 9.89896C4.53026 10.2801 5.16325 10.2652 5.54444 9.86556L4.09722 8.48514ZM7.2392 6.63995L7.96281 7.33016L7.96281 7.33016L7.2392 6.63995ZM7.2392 6.53539L7.96281 5.84519L7.96281 5.84519L7.2392 6.53539ZM5.54444 3.30979C5.16325 2.91015 4.53026 2.8952 4.13062 3.27639C3.73099 3.65758 3.71603 4.29057 4.09722 4.69021L5.54444 3.30979ZM10.3284 5H13.8V3H10.3284V5ZM16 7.2V16H18V7.2H16ZM17 15H5.2V17H17V15ZM5.2 15C4.62345 15 4.25117 14.9992 3.96784 14.9761C3.69617 14.9539 3.59545 14.9162 3.54601 14.891L2.63803 16.673C3.01641 16.8658 3.40963 16.9371 3.80497 16.9694C4.18864 17.0008 4.65645 17 5.2 17V15ZM1 12.0522C1 12.6055 0.999732 13.2403 1.02862 13.792C1.04308 14.0682 1.06574 14.3435 1.10348 14.5901C1.13765 14.8134 1.1969 15.1067 1.32698 15.362L3.10899 14.454C3.13008 14.4954 3.10758 14.4648 3.08045 14.2875C3.05688 14.1335 3.03867 13.9316 3.02588 13.6874C3.00027 13.1982 3 12.6191 3 12.0522H1ZM3.54601 14.891C3.35785 14.7951 3.20487 14.6422 3.10899 14.454L1.32698 15.362C1.6146 15.9265 2.07354 16.3854 2.63803 16.673L3.54601 14.891ZM13.8 5C14.3766 5 14.7488 5.00078 15.0322 5.02393C15.3038 5.04612 15.4045 5.0838 15.454 5.10899L16.362 3.32698C15.9836 3.13419 15.5904 3.06287 15.195 3.03057C14.8114 2.99922 14.3436 3 13.8 3V5ZM18 7.2C18 6.65645 18.0008 6.18864 17.9694 5.80497C17.9371 5.40963 17.8658 5.01641 17.673 4.63803L15.891 5.54601C15.9162 5.59545 15.9539 5.69617 15.9761 5.96784C15.9992 6.25117 16 6.62345 16 7.2H18ZM15.454 5.10899C15.6422 5.20487 15.7951 5.35785 15.891 5.54601L17.673 4.63803C17.3854 4.07354 16.9265 3.6146 16.362 3.32698L15.454 5.10899ZM22 11.8V13.6H24V11.8H22ZM20.6 15H17V17H20.6V15ZM18 16V7H16V16H18ZM17 8H18.8V6H17V8ZM19.92 8.56L21.72 10.96L23.32 9.76L21.52 7.36L19.92 8.56ZM18.8 8C19.298 8 19.3516 8.00904 19.3873 8.01922L19.9365 6.09611C19.5684 5.99097 19.182 6 18.8 6V8ZM21.52 7.36C21.2908 7.05438 21.0662 6.73989 20.7612 6.50844L19.5522 8.10169C19.5818 8.12411 19.6212 8.16163 19.92 8.56L21.52 7.36ZM19.3873 8.01922C19.4469 8.03625 19.5028 8.06421 19.5522 8.10169L20.7612 6.50844C20.5142 6.32106 20.2346 6.18124 19.9365 6.09611L19.3873 8.01922ZM22 13.6C22 14.0365 21.9992 14.3038 21.9829 14.5038C21.9753 14.5969 21.9657 14.6533 21.9577 14.6875C21.9538 14.7038 21.9506 14.7138 21.9487 14.7192C21.9468 14.7244 21.9457 14.7266 21.9455 14.727L23.7275 15.635C23.8931 15.3101 23.9508 14.9786 23.9762 14.6666C24.0008 14.3663 24 14.0035 24 13.6H22ZM20.6 17C21.0035 17 21.3663 17.0008 21.6666 16.9762C21.9786 16.9508 22.3101 16.8931 22.635 16.7275L21.727 14.9455C21.7266 14.9457 21.7244 14.9468 21.7192 14.9487C21.7138 14.9506 21.7038 14.9538 21.6875 14.9577C21.6533 14.9657 21.5969 14.9753 21.5038 14.9829C21.3038 14.9992 21.0365 15 20.6 15V17ZM21.9455 14.727C21.8976 14.8211 21.8211 14.8976 21.727 14.9455L22.635 16.7275C23.1054 16.4878 23.4878 16.1054 23.7275 15.635L21.9455 14.727ZM24 11.8C24 11.5412 24.0043 11.2799 23.9536 11.0204L21.9907 11.4041C21.9957 11.4297 22 11.4652 22 11.8H24ZM21.72 10.96C21.9209 11.2279 21.9388 11.2588 21.9501 11.2823L23.7506 10.4116C23.6355 10.1736 23.4753 9.96706 23.32 9.76L21.72 10.96ZM23.9536 11.0204C23.9123 10.8096 23.8441 10.6049 23.7506 10.4116L21.9501 11.2823C21.9688 11.321 21.9825 11.3619 21.9907 11.4041L23.9536 11.0204ZM7 19C6.44772 19 6 18.5523 6 18H4C4 19.6569 5.34315 21 7 21V19ZM8 18C8 18.5523 7.55228 19 7 19V21C8.65685 21 10 19.6569 10 18H8ZM7 17C7.55228 17 8 17.4477 8 18H10C10 16.3431 8.65685 15 7 15V17ZM7 15C5.34315 15 4 16.3431 4 18H6C6 17.4477 6.44772 17 7 17V15ZM18 19C17.4477 19 17 18.5523 17 18H15C15 19.6569 16.3431 21 18 21V19ZM19 18C19 18.5523 18.5523 19 18 19V21C19.6569 21 21 19.6569 21 18H19ZM18 17C18.5523 17 19 17.4477 19 18H21C21 16.3431 19.6569 15 18 15V17ZM18 15C16.3431 15 15 16.3431 15 18H17C17 17.4477 17.4477 17 18 17V15ZM2 7.58767L7.25985 7.58767V5.58767L2 5.58767L2 7.58767ZM7.25985 7.58767H7.28906V5.58767H7.25985V7.58767ZM5.54444 9.86556L7.96281 7.33016L6.51559 5.94974L4.09722 8.48514L5.54444 9.86556ZM7.96281 5.84519L5.54444 3.30979L4.09722 4.69021L6.51559 7.2256L7.96281 5.84519ZM7.96281 7.33016C8.16551 7.11764 8.25986 6.84643 8.25985 6.58765L6.25985 6.5877C6.25985 6.36675 6.34042 6.13339 6.51558 5.94975L7.96281 7.33016ZM8.25985 6.58767C8.25985 6.32893 8.16552 6.05772 7.96281 5.84519L6.51558 7.2256C6.34041 7.04195 6.25985 6.80858 6.25985 6.58767H8.25985Z" fill="currentColor"/>
</svg>
