<svg width="24" height="24" viewBox="0 0 24 24" fill="none" xmlns="http://www.w3.org/2000/svg">
<path d="M3.09202 15.782L3.54601 14.891H3.54601L3.09202 15.782ZM2.21799 14.908L1.32698 15.362L2.21799 14.908ZM16.782 5.09202L15.891 5.54601V5.54601L16.782 5.09202ZM16.362 3.32698C15.8699 3.07625 15.2677 3.27191 15.017 3.764C14.7662 4.25609 14.9619 4.85826 15.454 5.10899L16.362 3.32698ZM3.09202 4.21799L3.54601 5.10899L3.54601 5.10899L3.09202 4.21799ZM2.21799 5.09202L3.10899 5.54601L3.10899 5.54601L2.21799 5.09202ZM6.16154 9.0409C5.60925 9.0409 5.16154 9.48861 5.16154 10.0409C5.16154 10.5932 5.60925 11.0409 6.16154 11.0409V9.0409ZM12.1128 8.82108L13.0335 9.21117L13.0335 9.21117L12.1128 8.82108ZM11.0514 9.88245L11.4415 10.8032L11.0514 9.88245ZM11.0514 4.15845L11.4415 3.23767V3.23767L11.0514 4.15845ZM12.1128 5.21982L13.0335 4.82973L13.0335 4.82973L12.1128 5.21982ZM17 7V6H16V7H17ZM19.6619 7.05767L19.3873 8.01922L19.6619 7.05767ZM20.72 7.96L19.92 8.56V8.56L20.72 7.96ZM20.1567 7.30506L20.7612 6.50844L20.1567 7.30506ZM22.8365 15.181L23.7275 15.635L22.8365 15.181ZM22.181 15.8365L22.635 16.7275L22.181 15.8365ZM22.9721 11.2122L23.9536 11.0204L22.9721 11.2122ZM22.52 10.36L23.32 9.76V9.76L22.52 10.36ZM22.8504 10.8469L23.7506 10.4116L22.8504 10.8469ZM5.97715 9C5.42487 9 4.97715 9.44772 4.97715 10C4.97715 10.5523 5.42487 11 5.97715 11V9ZM7.72177 13.2779C8.10296 13.6775 8.73595 13.6925 9.13559 13.3113C9.53523 12.9301 9.55018 12.2971 9.16899 11.8975L7.72177 13.2779ZM6.02702 10.0523L5.3034 10.7425L5.30341 10.7425L6.02702 10.0523ZM6.02702 9.94772L5.30341 9.25751L5.3034 9.25752L6.02702 9.94772ZM9.16899 8.10254C9.55018 7.7029 9.53523 7.06991 9.13559 6.68872C8.73595 6.30752 8.10296 6.32248 7.72177 6.72212L9.16899 8.10254ZM16 7.2V16H18V7.2H16ZM17 15H5.2V17H17V15ZM3 12.8V7.2H1V12.8H3ZM5.2 15C4.62345 15 4.25117 14.9992 3.96784 14.9761C3.69617 14.9539 3.59545 14.9162 3.54601 14.891L2.63803 16.673C3.01641 16.8658 3.40963 16.9371 3.80497 16.9694C4.18864 17.0008 4.65645 17 5.2 17V15ZM1 12.8C1 13.3436 0.999222 13.8114 1.03057 14.195C1.06287 14.5904 1.13419 14.9836 1.32698 15.362L3.10899 14.454C3.0838 14.4045 3.04612 14.3038 3.02393 14.0322C3.00078 13.7488 3 13.3766 3 12.8H1ZM3.54601 14.891C3.35785 14.7951 3.20487 14.6422 3.10899 14.454L1.32698 15.362C1.6146 15.9265 2.07354 16.3854 2.63803 16.673L3.54601 14.891ZM18 7.2C18 6.65645 18.0008 6.18864 17.9694 5.80497C17.9371 5.40963 17.8658 5.01641 17.673 4.63803L15.891 5.54601C15.9162 5.59545 15.9539 5.69617 15.9761 5.96784C15.9992 6.25117 16 6.62345 16 7.2H18ZM15.454 5.10899C15.6422 5.20487 15.7951 5.35785 15.891 5.54601L17.673 4.63803C17.3854 4.07354 16.9265 3.6146 16.362 3.32698L15.454 5.10899ZM5.2 3C4.65645 3 4.18864 2.99922 3.80497 3.03057C3.40963 3.06287 3.01641 3.13419 2.63803 3.32698L3.54601 5.10899C3.59545 5.0838 3.69617 5.04612 3.96784 5.02393C4.25117 5.00078 4.62345 5 5.2 5V3ZM3 7.2C3 6.62345 3.00078 6.25117 3.02393 5.96784C3.04612 5.69617 3.0838 5.59545 3.10899 5.54601L1.32698 4.63803C1.13419 5.01641 1.06287 5.40963 1.03057 5.80497C0.999222 6.18864 1 6.65645 1 7.2H3ZM2.63803 3.32698C2.07354 3.6146 1.6146 4.07354 1.32698 4.63803L3.10899 5.54601C3.20487 5.35785 3.35785 5.20487 3.54601 5.10899L2.63803 3.32698ZM5.2 5H9.25077V3H5.2V5ZM9.25077 9.0409H6.16154V11.0409H9.25077V9.0409ZM11.2712 7.02045C11.2712 7.50996 11.2707 7.82598 11.2538 8.06773C11.2376 8.30023 11.21 8.38856 11.192 8.43099L13.0335 9.21117C13.174 8.87959 13.2256 8.54315 13.249 8.20661C13.2718 7.87931 13.2712 7.48202 13.2712 7.02045H11.2712ZM9.25077 11.0409C9.71234 11.0409 10.1096 11.0415 10.4369 11.0187C10.7735 10.9953 11.1099 10.9437 11.4415 10.8032L10.6613 8.96167C10.6189 8.97965 10.5306 9.00732 10.298 9.02351C10.0563 9.04033 9.74028 9.0409 9.25077 9.0409V11.0409ZM11.192 8.43099C11.0907 8.67007 10.9004 8.86039 10.6613 8.96167L11.4415 10.8032C12.1587 10.4994 12.7297 9.92842 13.0335 9.21117L11.192 8.43099ZM9.25077 5C9.74028 5 10.0563 5.00056 10.298 5.01739C10.5306 5.03358 10.6189 5.06125 10.6613 5.07922L11.4415 3.23767C11.1099 3.0972 10.7735 3.04565 10.4369 3.02222C10.1096 2.99944 9.71234 3 9.25077 3V5ZM13.2712 7.02045C13.2712 6.55887 13.2718 6.16158 13.249 5.83428C13.2256 5.49775 13.174 5.1613 13.0335 4.82973L11.192 5.60991C11.21 5.65234 11.2376 5.74066 11.2538 5.97317C11.2707 6.21491 11.2712 6.53094 11.2712 7.02045H13.2712ZM10.6613 5.07922C10.9004 5.18051 11.0907 5.37083 11.192 5.60991L13.0335 4.82973C12.7297 4.11248 12.1587 3.54154 11.4415 3.23767L10.6613 5.07922ZM22 11.8V13.6H24V11.8H22ZM20.6 15H17V17H20.6V15ZM18 16V7H16V16H18ZM17 8H18.8V6H17V8ZM19.92 8.56L21.72 10.96L23.32 9.76L21.52 7.36L19.92 8.56ZM18.8 8C19.298 8 19.3516 8.00904 19.3873 8.01922L19.9365 6.09611C19.5684 5.99096 19.182 6 18.8 6V8ZM21.52 7.36C21.2908 7.05437 21.0662 6.73989 20.7612 6.50844L19.5522 8.10169C19.5818 8.12411 19.6212 8.16163 19.92 8.56L21.52 7.36ZM19.3873 8.01922C19.4469 8.03625 19.5028 8.06421 19.5522 8.10169L20.7612 6.50844C20.5142 6.32106 20.2346 6.18124 19.9365 6.09611L19.3873 8.01922ZM22 13.6C22 14.0365 21.9992 14.3038 21.9829 14.5038C21.9753 14.5969 21.9657 14.6533 21.9577 14.6875C21.9538 14.7038 21.9506 14.7138 21.9487 14.7192C21.9468 14.7244 21.9457 14.7266 21.9455 14.727L23.7275 15.635C23.8931 15.3101 23.9508 14.9786 23.9762 14.6666C24.0008 14.3663 24 14.0035 24 13.6H22ZM20.6 17C21.0035 17 21.3663 17.0008 21.6666 16.9762C21.9786 16.9508 22.3101 16.8931 22.635 16.7275L21.727 14.9455C21.7266 14.9457 21.7244 14.9468 21.7192 14.9487C21.7138 14.9506 21.7038 14.9538 21.6875 14.9577C21.6533 14.9657 21.5969 14.9753 21.5038 14.9829C21.3038 14.9992 21.0365 15 20.6 15V17ZM21.9455 14.727C21.8976 14.8211 21.8211 14.8976 21.727 14.9455L22.635 16.7275C23.1054 16.4878 23.4878 16.1054 23.7275 15.635L21.9455 14.727ZM24 11.8C24 11.5412 24.0043 11.2799 23.9536 11.0204L21.9907 11.4041C21.9957 11.4297 22 11.4652 22 11.8H24ZM21.72 10.96C21.9209 11.2279 21.9388 11.2588 21.9501 11.2823L23.7506 10.4116C23.6355 10.1736 23.4753 9.96706 23.32 9.76L21.72 10.96ZM23.9536 11.0204C23.9123 10.8096 23.8441 10.6049 23.7506 10.4116L21.9501 11.2823C21.9688 11.321 21.9825 11.3619 21.9907 11.4041L23.9536 11.0204ZM7 19C6.44772 19 6 18.5523 6 18H4C4 19.6569 5.34315 21 7 21V19ZM8 18C8 18.5523 7.55228 19 7 19V21C8.65685 21 10 19.6569 10 18H8ZM7 17C7.55228 17 8 17.4477 8 18H10C10 16.3431 8.65685 15 7 15V17ZM7 15C5.34315 15 4 16.3431 4 18H6C6 17.4477 6.44772 17 7 17V15ZM18 19C17.4477 19 17 18.5523 17 18H15C15 19.6569 16.3431 21 18 21V19ZM19 18C19 18.5523 18.5523 19 18 19V21C19.6569 21 21 19.6569 21 18H19ZM18 17C18.5523 17 19 17.4477 19 18H21C21 16.3431 19.6569 15 18 15V17ZM18 15C16.3431 15 15 16.3431 15 18H17C17 17.4477 17.4477 17 18 17V15ZM6.00636 9H5.97715V11H6.00636V9ZM9.16899 11.8975L6.75063 9.36207L5.30341 10.7425L7.72177 13.2779L9.16899 11.8975ZM6.75063 10.6379L9.16899 8.10254L7.72177 6.72212L5.30341 9.25751L6.75063 10.6379ZM6.75063 9.36208C6.92581 9.54573 7.00636 9.77909 7.00636 10H5.00636C5.00636 10.2587 5.10069 10.53 5.3034 10.7425L6.75063 9.36208ZM7.00636 10C7.00636 10.2209 6.9258 10.4543 6.75063 10.6379L5.3034 9.25752C5.10069 9.47004 5.00636 9.74124 5.00636 10H7.00636Z" fill="currentColor"/>
</svg>
