<svg width="24" height="24" viewBox="0 0 24 24" fill="none" xmlns="http://www.w3.org/2000/svg">
<path d="M10.0004 6V7M14.0004 6V7M17.4182 12V4.4C17.4182 3.55992 17.4182 3.13988 17.2547 2.81901C17.1109 2.53677 16.8814 2.3073 16.5992 2.16349C16.2783 2 15.8583 2 15.0182 2H8.9826C8.14252 2 7.72248 2 7.40161 2.16349C7.11937 2.3073 6.8899 2.53677 6.74609 2.81901C6.5826 3.13988 6.5826 3.55992 6.5826 4.4V12H17.4182ZM10.0004 20H14.0004V22H10.0004V20ZM10.6283 20H13.3724C14.0358 20 14.3675 20 14.6466 19.9686C16.9647 19.7074 18.7941 17.8779 19.0553 15.5598C19.0867 15.2808 19.0867 14.9491 19.0867 14.2857C19.0867 14.0204 19.0867 13.8877 19.0742 13.7761C18.9697 12.8488 18.2379 12.1171 17.3107 12.0126C17.199 12 17.0664 12 16.801 12H7.19978C6.93442 12 6.80174 12 6.69013 12.0126C5.76289 12.1171 5.03111 12.8488 4.92664 13.7761C4.91406 13.8877 4.91406 14.0204 4.91406 14.2857C4.91406 14.9491 4.91406 15.2808 4.9455 15.5598C5.20669 17.8779 7.03614 19.7074 9.35424 19.9686C9.63327 20 9.96496 20 10.6283 20Z" stroke="currentColor" stroke-width="2" stroke-linecap="round" stroke-linejoin="round"/>
</svg>
