<svg width="24" height="24" viewBox="0 0 24 24" fill="none" xmlns="http://www.w3.org/2000/svg">
<path d="M15.6662 20.9635V21.9635C16.2185 21.9635 16.6662 21.5158 16.6662 20.9635H15.6662ZM2 20.9635H1C1 21.5158 1.44772 21.9635 2 21.9635V20.9635ZM4.62714 16.4631L4.3846 15.493L4.62714 16.4631ZM13.0391 16.4631L12.7965 17.4333L13.0391 16.4631ZM16.8975 2.28728C16.507 1.89675 15.8738 1.89675 15.4833 2.28728C15.0928 2.6778 15.0928 3.31097 15.4833 3.70149L16.8975 2.28728ZM20.2841 8.50234C20.6747 8.89287 21.3078 8.89287 21.6984 8.50234C22.0889 8.11182 22.0889 7.47865 21.6984 7.08813L20.2841 8.50234ZM21.6984 3.70149C22.0889 3.31097 22.0889 2.6778 21.6984 2.28728C21.3078 1.89675 20.6747 1.89675 20.2841 2.28728L21.6984 3.70149ZM15.4833 7.08813C15.0928 7.47865 15.0928 8.11182 15.4833 8.50234C15.8738 8.89287 16.507 8.89287 16.8975 8.50234L15.4833 7.08813ZM2 21.9635H15.6662V19.9635H2V21.9635ZM4.86967 17.4333C7.47191 16.7827 10.1943 16.7827 12.7965 17.4333L13.2816 15.493C10.3609 14.7628 7.30532 14.7628 4.3846 15.493L4.86967 17.4333ZM16.6662 19.8279C16.6662 17.7775 15.2708 15.9903 13.2816 15.493L12.7965 17.4333C13.8953 17.708 14.6662 18.6953 14.6662 19.8279H16.6662ZM3 19.8279C3 18.6953 3.77085 17.708 4.86967 17.4333L4.3846 15.493C2.39545 15.9903 1 17.7775 1 19.8279H3ZM14.6662 19.8279V20.9635H16.6662V19.8279H14.6662ZM3 20.9635V19.8279H1V20.9635H3ZM11.6767 9.43266C11.6767 11.0031 10.4036 12.2763 8.8331 12.2763V14.2763C11.5082 14.2763 13.6767 12.1077 13.6767 9.43266H11.6767ZM8.8331 12.2763C7.26261 12.2763 5.98948 11.0031 5.98948 9.43266H3.98948C3.98948 12.1077 6.15804 14.2763 8.8331 14.2763V12.2763ZM5.98948 9.43266C5.98948 7.86217 7.26261 6.58904 8.8331 6.58904V4.58904C6.15804 4.58904 3.98948 6.7576 3.98948 9.43266H5.98948ZM8.8331 6.58904C10.4036 6.58904 11.6767 7.86217 11.6767 9.43266H13.6767C13.6767 6.7576 11.5082 4.58904 8.8331 4.58904V6.58904ZM15.4833 3.70149L17.8837 6.10192L19.2979 4.6877L16.8975 2.28728L15.4833 3.70149ZM17.8837 6.10192L20.2841 8.50234L21.6984 7.08813L19.2979 4.6877L17.8837 6.10192ZM20.2841 2.28728L17.8837 4.6877L19.2979 6.10192L21.6984 3.70149L20.2841 2.28728ZM17.8837 4.6877L15.4833 7.08813L16.8975 8.50234L19.2979 6.10192L17.8837 4.6877Z" fill="currentColor"/>
</svg>
