<svg width="24" height="24" viewBox="0 0 24 24" fill="none" xmlns="http://www.w3.org/2000/svg">
<path d="M22 12C22 11.4477 21.5523 11 21 11C20.4477 11 20 11.4477 20 12H22ZM12 4C12.5523 4 13 3.55228 13 3C13 2.44772 12.5523 2 12 2V4ZM4.63803 20.673L4.18404 21.564H4.18404L4.63803 20.673ZM3.32698 19.362L4.21799 18.908L4.21799 18.908L3.32698 19.362ZM19.362 20.673L18.908 19.782H18.908L19.362 20.673ZM20.673 19.362L19.782 18.908L20.673 19.362ZM3.32698 4.63803L4.21799 5.09202L3.32698 4.63803ZM4.63803 3.32698L5.09202 4.21799L4.63803 3.32698ZM16.3887 19.6306C16.3887 20.1829 16.8364 20.6306 17.3887 20.6306C17.941 20.6306 18.3887 20.1829 18.3887 19.6306H16.3887ZM5.61127 19.6306C5.61127 20.1829 6.05898 20.6306 6.61127 20.6306C7.16355 20.6306 7.61127 20.1829 7.61127 19.6306H5.61127ZM16.5317 6.05412C16.1411 6.44465 16.1411 7.07781 16.5317 7.46834C16.9222 7.85886 17.5554 7.85886 17.9459 7.46834L16.5317 6.05412ZM22.7071 2.70711C23.0976 2.31658 23.0976 1.68342 22.7071 1.29289C22.3166 0.902369 21.6834 0.902369 21.2929 1.29289L22.7071 2.70711ZM17.9459 1.29289C17.5554 0.902369 16.9222 0.902369 16.5317 1.29289C16.1411 1.68342 16.1411 2.31658 16.5317 2.70711L17.9459 1.29289ZM21.2929 7.46834C21.6834 7.85886 22.3166 7.85886 22.7071 7.46834C23.0976 7.07781 23.0976 6.44465 22.7071 6.05412L21.2929 7.46834ZM16.2 20H7.8V22H16.2V20ZM4 16.2V7.8H2V16.2H4ZM20 12V16.2H22V12H20ZM7.8 4H12V2H7.8V4ZM7.8 20C6.94342 20 6.36113 19.9992 5.91104 19.9624C5.47262 19.9266 5.24842 19.8617 5.09202 19.782L4.18404 21.564C4.66937 21.8113 5.18608 21.9099 5.74817 21.9558C6.2986 22.0008 6.97642 22 7.8 22V20ZM2 16.2C2 17.0236 1.99922 17.7014 2.04419 18.2518C2.09012 18.8139 2.18868 19.3306 2.43597 19.816L4.21799 18.908C4.1383 18.7516 4.07337 18.5274 4.03755 18.089C4.00078 17.6389 4 17.0566 4 16.2H2ZM5.09202 19.782C4.71569 19.5903 4.40973 19.2843 4.21799 18.908L2.43597 19.816C2.81947 20.5686 3.43139 21.1805 4.18404 21.564L5.09202 19.782ZM16.2 22C17.0236 22 17.7014 22.0008 18.2518 21.9558C18.8139 21.9099 19.3306 21.8113 19.816 21.564L18.908 19.782C18.7516 19.8617 18.5274 19.9266 18.089 19.9624C17.6389 19.9992 17.0566 20 16.2 20V22ZM20 16.2C20 17.0566 19.9992 17.6389 19.9624 18.089C19.9266 18.5274 19.8617 18.7516 19.782 18.908L21.564 19.816C21.8113 19.3306 21.9099 18.8139 21.9558 18.2518C22.0008 17.7014 22 17.0236 22 16.2H20ZM19.816 21.564C20.5686 21.1805 21.1805 20.5686 21.564 19.816L19.782 18.908C19.5903 19.2843 19.2843 19.5903 18.908 19.782L19.816 21.564ZM4 7.8C4 6.94342 4.00078 6.36113 4.03755 5.91104C4.07337 5.47262 4.1383 5.24842 4.21799 5.09202L2.43597 4.18404C2.18868 4.66937 2.09012 5.18608 2.04419 5.74817C1.99922 6.2986 2 6.97642 2 7.8H4ZM7.8 2C6.97642 2 6.2986 1.99922 5.74817 2.04419C5.18608 2.09012 4.66937 2.18868 4.18404 2.43597L5.09202 4.21799C5.24842 4.1383 5.47262 4.07337 5.91104 4.03755C6.36113 4.00078 6.94342 4 7.8 4V2ZM4.21799 5.09202C4.40973 4.71569 4.71569 4.40973 5.09202 4.21799L4.18404 2.43597C3.43139 2.81947 2.81947 3.43139 2.43597 4.18404L4.21799 5.09202ZM10.3641 16.4394H13.6359V14.4394H10.3641V16.4394ZM16.3887 19.3312V19.6306H18.3887V19.3312H16.3887ZM7.61127 19.6306V19.3312H5.61127V19.6306H7.61127ZM13.6359 16.4394C15.1223 16.4394 16.3887 17.6995 16.3887 19.3312H18.3887C18.3887 16.6641 16.2948 14.4394 13.6359 14.4394V16.4394ZM10.3641 14.4394C7.70523 14.4394 5.61127 16.6641 5.61127 19.3312H7.61127C7.61127 17.6995 8.87773 16.4394 10.3641 16.4394V14.4394ZM14.0312 10.2003C14.0312 11.4187 13.0878 12.3437 12 12.3437V14.3437C14.2603 14.3437 16.0312 12.4541 16.0312 10.2003H14.0312ZM12 12.3437C10.9122 12.3437 9.96884 11.4187 9.96884 10.2003H7.96884C7.96884 12.4541 9.73968 14.3437 12 14.3437V12.3437ZM9.96884 10.2003C9.96884 8.98194 10.9122 8.05688 12 8.05688V6.05688C9.73968 6.05688 7.96884 7.94655 7.96884 10.2003H9.96884ZM12 8.05688C13.0878 8.05688 14.0312 8.98194 14.0312 10.2003H16.0312C16.0312 7.94655 14.2603 6.05688 12 6.05688V8.05688ZM17.9459 7.46834L20.3265 5.08772L18.9123 3.67351L16.5317 6.05412L17.9459 7.46834ZM20.3265 5.08772L22.7071 2.70711L21.2929 1.29289L18.9123 3.67351L20.3265 5.08772ZM16.5317 2.70711L18.9123 5.08772L20.3265 3.67351L17.9459 1.29289L16.5317 2.70711ZM18.9123 5.08772L21.2929 7.46834L22.7071 6.05412L20.3265 3.67351L18.9123 5.08772Z" fill="currentColor"/>
</svg>
