<svg width="24" height="24" viewBox="0 0 24 24" fill="none" xmlns="http://www.w3.org/2000/svg">
<path d="M7.07577 15.7311L7.31831 16.7012L7.07577 15.7311ZM4 21H3C3 21.5523 3.44772 22 4 22V21ZM11.0125 22C11.5648 22 12.0125 21.5523 12.0125 21C12.0125 20.4477 11.5648 20 11.0125 20V22ZM13.9286 16.2214C14.4781 16.2766 14.9683 15.8759 15.0235 15.3263C15.0786 14.7768 14.6779 14.2866 14.1284 14.2314L13.9286 16.2214ZM19.4151 15.8878C19.4151 15.3355 18.9674 14.8878 18.4151 14.8878C17.8628 14.8878 17.4151 15.3355 17.4151 15.8878H19.4151ZM17.4151 21C17.4151 21.5523 17.8628 22 18.4151 22C18.9674 22 19.4151 21.5523 19.4151 21H17.4151ZM20.9712 19.4439C21.5235 19.4439 21.9712 18.9962 21.9712 18.4439C21.9712 17.8916 21.5235 17.4439 20.9712 17.4439V19.4439ZM15.859 17.4439C15.3067 17.4439 14.859 17.8916 14.859 18.4439C14.859 18.9962 15.3067 19.4439 15.859 19.4439V17.4439ZM19.5602 3.17162C19.1027 2.86225 18.481 2.98233 18.1716 3.43983C17.8622 3.89734 17.9823 4.51901 18.4398 4.82838L19.5602 3.17162ZM18.4398 10.1716C17.9823 10.481 17.8622 11.1027 18.1716 11.5602C18.481 12.0177 19.1027 12.1378 19.5602 11.8284L18.4398 10.1716ZM5 19.6704C5 18.266 5.95582 17.0418 7.31831 16.7012L6.83324 14.7609C4.58042 15.3241 3 17.3483 3 19.6704H5ZM5 21V19.6704H3V21H5ZM4 22H11.0125V20H4V22ZM7.31831 16.7012C9.48436 16.1597 11.7209 15.9998 13.9286 16.2214L14.1284 14.2314C11.692 13.9868 9.22373 14.1633 6.83324 14.7609L7.31831 16.7012ZM15.5 7.5C15.5 9.433 13.933 11 12 11V13C15.0376 13 17.5 10.5376 17.5 7.5H15.5ZM12 11C10.067 11 8.5 9.433 8.5 7.5H6.5C6.5 10.5376 8.96243 13 12 13V11ZM8.5 7.5C8.5 5.567 10.067 4 12 4V2C8.96243 2 6.5 4.46243 6.5 7.5H8.5ZM12 4C13.933 4 15.5 5.567 15.5 7.5H17.5C17.5 4.46243 15.0376 2 12 2V4ZM17.4151 15.8878V18.4439H19.4151V15.8878H17.4151ZM17.4151 18.4439V21H19.4151V18.4439H17.4151ZM20.9712 17.4439H18.4151V19.4439H20.9712V17.4439ZM18.4151 17.4439H15.859V19.4439H18.4151V17.4439ZM18.4398 4.82838C19.4372 5.50279 20 6.47699 20 7.5H22C22 5.69574 21.0028 4.14716 19.5602 3.17162L18.4398 4.82838ZM20 7.5C20 8.52301 19.4372 9.49721 18.4398 10.1716L19.5602 11.8284C21.0028 10.8528 22 9.30426 22 7.5H20Z" fill="currentColor"/>
</svg>
