<svg width="24" height="24" viewBox="0 0 24 24" fill="none" xmlns="http://www.w3.org/2000/svg">
<path d="M4 17.9999C4 17.9999 4.41754 15.1672 7.75782 15.1672C11.0981 15.1672 11.5156 17.9999 11.5156 17.9999M13.318 9H18.318M13.318 12H18.318M9.87159 10.5716C9.87159 11.7822 8.92522 12.7636 7.75782 12.7636C6.59041 12.7636 5.64404 11.7822 5.64404 10.5716C5.64404 9.36091 6.59041 8.3795 7.75782 8.3795C8.92522 8.3795 9.87159 9.36091 9.87159 10.5716ZM6.8 19H17.2C18.8802 19 19.7202 19 20.362 18.673C20.9265 18.3854 21.3854 17.9265 21.673 17.362C22 16.7202 22 15.8802 22 14.2V9.8C22 8.11984 22 7.27976 21.673 6.63803C21.3854 6.07354 20.9265 5.6146 20.362 5.32698C19.7202 5 18.8802 5 17.2 5H6.8C5.11984 5 4.27976 5 3.63803 5.32698C3.07354 5.6146 2.6146 6.07354 2.32698 6.63803C2 7.27976 2 8.11984 2 9.8V14.2C2 15.8802 2 16.7202 2.32698 17.362C2.6146 17.9265 3.07354 18.3854 3.63803 18.673C4.27976 19 5.11984 19 6.8 19Z" stroke="currentColor" stroke-width="2" stroke-linecap="round" stroke-linejoin="round"/>
</svg>
