<svg width="24" height="24" viewBox="0 0 24 24" fill="none" xmlns="http://www.w3.org/2000/svg">
<path d="M7.27106 15.5242C7.18761 16.0701 7.56254 16.5804 8.10848 16.6638C8.65442 16.7473 9.16465 16.3723 9.2481 15.8264L7.27106 15.5242ZM14.752 15.8264C14.8355 16.3723 15.3457 16.7473 15.8916 16.6638C16.4376 16.5804 16.8125 16.0701 16.7291 15.5242L14.752 15.8264ZM2.80491 10.7069C2.77574 11.2585 3.19919 11.7292 3.75071 11.7583C4.30222 11.7875 4.77295 11.3641 4.80212 10.8125L2.80491 10.7069ZM3.82314 10.4781L2.82686 10.3919V10.3919L3.82314 10.4781ZM3.76492 13.1088L3.79231 12.1092H3.79231L3.76492 13.1088ZM2.76465 13.1051C2.74952 13.6572 3.1848 14.117 3.73688 14.1321C4.28895 14.1473 4.74877 13.712 4.7639 13.1599L2.76465 13.1051ZM2.54604 10.391C2.16636 9.98991 1.53343 9.97256 1.13236 10.3522C0.731279 10.7319 0.713931 11.3648 1.09361 11.7659L2.54604 10.391ZM3.72499 13.091L2.99878 13.7785L2.99878 13.7785L3.72499 13.091ZM3.80577 13.0932L3.11831 12.367H3.11831L3.80577 13.0932ZM6.50579 11.9143C6.90687 11.5346 6.92422 10.9017 6.54454 10.5006C6.16486 10.0995 5.53193 10.0822 5.13086 10.4618L6.50579 11.9143ZM18.4268 7.34521C18.717 7.8151 19.3332 7.96078 19.8031 7.67058C20.273 7.38038 20.4186 6.7642 20.1284 6.2943L18.4268 7.34521ZM21.1709 12.9569C21.2001 12.4054 20.7766 11.9346 20.2251 11.9055C19.6736 11.8763 19.2029 12.2997 19.1737 12.8512L21.1709 12.9569ZM20.1527 13.1857L21.149 13.2719L21.149 13.2719L20.1527 13.1857ZM21.2112 10.5587C21.2263 10.0066 20.791 9.54681 20.239 9.53168C19.6869 9.51655 19.2271 9.95183 19.2119 10.5039L21.2112 10.5587ZM21.4298 13.2728C21.8095 13.6739 22.4424 13.6912 22.8435 13.3116C23.2446 12.9319 23.2619 12.299 22.8822 11.8979L21.4298 13.2728ZM20.2508 10.5728L20.9771 9.88533L20.977 9.8853L20.2508 10.5728ZM20.1701 10.5706L20.8575 11.2968L20.8575 11.2968L20.1701 10.5706ZM17.47 11.7495C17.069 12.1292 17.0516 12.7621 17.4313 13.1632C17.811 13.5643 18.4439 13.5816 18.845 13.202L17.47 11.7495ZM5.53589 16.2972C5.2473 15.8263 4.63162 15.6785 4.16074 15.9671C3.68985 16.2557 3.54208 16.8714 3.83067 17.3423L5.53589 16.2972ZM8.25958 15.6753C9.2481 15.8264 9.24801 15.827 9.24793 15.8275C9.2479 15.8277 9.24782 15.8282 9.24776 15.8286C9.24766 15.8293 9.24755 15.8299 9.24746 15.8305C9.24726 15.8318 9.24709 15.8328 9.24694 15.8338C9.24664 15.8356 9.24643 15.8369 9.24631 15.8376C9.24608 15.8389 9.24623 15.8379 9.24683 15.8348C9.24804 15.8286 9.25101 15.8139 9.25628 15.792C9.26686 15.7479 9.28629 15.6763 9.31836 15.5864C9.38327 15.4044 9.49475 15.1622 9.67752 14.923C10.0143 14.4824 10.6597 13.9563 12.0001 13.9563V11.9563C10.0155 11.9563 8.7907 12.7898 8.08848 13.7086C7.75174 14.1492 7.5515 14.5867 7.43459 14.9145C7.37574 15.0795 7.33672 15.2203 7.31159 15.3249C7.299 15.3773 7.2898 15.4211 7.28329 15.4547C7.28004 15.4715 7.27745 15.4858 7.27544 15.4974C7.27444 15.5032 7.27358 15.5084 7.27285 15.5129C7.27249 15.5151 7.27216 15.5172 7.27186 15.519C7.27171 15.52 7.27157 15.5209 7.27144 15.5217C7.27137 15.5222 7.27128 15.5228 7.27125 15.523C7.27115 15.5236 7.27106 15.5242 8.25958 15.6753ZM12.0001 13.9563C13.3404 13.9563 13.9858 14.4824 14.3226 14.923C14.5054 15.1622 14.6169 15.4044 14.6818 15.5864C14.7138 15.6763 14.7333 15.7479 14.7438 15.792C14.7491 15.8139 14.7521 15.8286 14.7533 15.8348C14.7539 15.8379 14.754 15.8389 14.7538 15.8375C14.7537 15.8369 14.7535 15.8356 14.7532 15.8338C14.753 15.8328 14.7529 15.8318 14.7527 15.8305C14.7526 15.8299 14.7525 15.8293 14.7524 15.8286C14.7523 15.8282 14.7522 15.8277 14.7522 15.8275C14.7521 15.827 14.752 15.8264 15.7405 15.6753C16.7291 15.5242 16.729 15.5236 16.7289 15.523C16.7288 15.5228 16.7287 15.5222 16.7287 15.5217C16.7285 15.5209 16.7284 15.52 16.7283 15.519C16.728 15.5172 16.7276 15.5151 16.7273 15.5129C16.7265 15.5084 16.7257 15.5032 16.7247 15.4974C16.7227 15.4858 16.7201 15.4715 16.7168 15.4547C16.7103 15.4211 16.7011 15.3773 16.6885 15.3249C16.6634 15.2203 16.6244 15.0795 16.5655 14.9145C16.4486 14.5867 16.2484 14.1492 15.9116 13.7086C15.2094 12.7898 13.9846 11.9563 12.0001 11.9563V13.9563ZM13.1041 9.36323C13.1041 9.97296 12.6098 10.4672 12.0001 10.4672V12.4672C13.7144 12.4672 15.1041 11.0775 15.1041 9.36323H13.1041ZM12.0001 10.4672C11.3903 10.4672 10.896 9.97296 10.896 9.36323H8.89604C8.89604 11.0775 10.2858 12.4672 12.0001 12.4672V10.4672ZM10.896 9.36323C10.896 8.75349 11.3903 8.25921 12.0001 8.25921V6.25921C10.2858 6.25921 8.89604 7.64892 8.89604 9.36323H10.896ZM12.0001 8.25921C12.6098 8.25921 13.1041 8.75349 13.1041 9.36323H15.1041C15.1041 7.64892 13.7144 6.25921 12.0001 6.25921V8.25921ZM4.80212 10.8125C4.80652 10.7294 4.81229 10.6466 4.81941 10.5643L2.82686 10.3919C2.81781 10.4964 2.81049 10.6015 2.80491 10.7069L4.80212 10.8125ZM4.81941 10.5643C5.14517 6.79936 8.306 3.84436 12.1559 3.84436V1.84436C7.25924 1.84436 3.24129 5.60209 2.82686 10.3919L4.81941 10.5643ZM2.7653 13.0814L2.76465 13.1051L4.7639 13.1599L4.76455 13.1362L2.7653 13.0814ZM1.09361 11.7659L2.99878 13.7785L4.45121 12.4035L2.54604 10.391L1.09361 11.7659ZM4.49324 13.8194L6.50579 11.9143L5.13086 10.4618L3.11831 12.367L4.49324 13.8194ZM2.99878 13.7785C3.19927 13.9903 3.46862 14.1011 3.73753 14.1085L3.79231 12.1092C4.03199 12.1158 4.27241 12.2147 4.4512 12.4035L2.99878 13.7785ZM3.73753 14.1085C4.0064 14.1158 4.28143 14.0199 4.49324 13.8194L3.11831 12.367C3.3072 12.1882 3.55268 12.1026 3.79231 12.1092L3.73753 14.1085ZM12.1559 3.84436C14.8048 3.84436 17.128 5.24219 18.4268 7.34521L20.1284 6.2943C18.4806 3.62605 15.5267 1.84436 12.1559 1.84436V3.84436ZM19.1737 12.8512C19.1693 12.9344 19.1635 13.0172 19.1564 13.0995L21.149 13.2719C21.158 13.1674 21.1653 13.0623 21.1709 12.9569L19.1737 12.8512ZM19.1564 13.0995C18.8307 16.8644 15.6698 19.8194 11.8199 19.8194V21.8194C16.7166 21.8194 20.7345 18.0617 21.149 13.2719L19.1564 13.0995ZM21.2105 10.5824L21.2112 10.5587L19.2119 10.5039L19.2113 10.5276L21.2105 10.5824ZM22.8822 11.8979L20.9771 9.88533L19.5246 11.2603L21.4298 13.2728L22.8822 11.8979ZM19.4826 9.84437L17.47 11.7495L18.845 13.202L20.8575 11.2968L19.4826 9.84437ZM20.977 9.8853C20.7766 9.67357 20.5073 9.56271 20.2383 9.55534L20.1835 11.5546C19.9438 11.548 19.7034 11.4491 19.5247 11.2603L20.977 9.8853ZM20.2383 9.55534C19.9694 9.54797 19.6944 9.64387 19.4826 9.84437L20.8575 11.2968C20.6686 11.4756 20.4232 11.5612 20.1835 11.5546L20.2383 9.55534ZM11.8199 19.8194C9.16208 19.8194 6.83208 18.4121 5.53589 16.2972L3.83067 17.3423C5.47525 20.0257 8.43765 21.8194 11.8199 21.8194V19.8194Z" fill="currentColor"/>
</svg>
