<svg width="24" height="24" viewBox="0 0 24 24" fill="none" xmlns="http://www.w3.org/2000/svg">
<path d="M4 21C4 21 4.88889 15.1848 12 15.1848C12.1991 15.1848 12.3933 15.1894 12.5827 15.1982M16.1904 16.1992L18.5908 18.5996M18.5908 18.5996L20.9912 21.0001M18.5908 18.5996L20.9912 16.1992M18.5908 18.5996L16.1904 21.0001M19 4C20.22 4.82497 21 6.08636 21 7.5C21 8.91364 20.22 10.175 19 11M16.5 7.5C16.5 9.98528 14.4853 12 12 12C9.51472 12 7.5 9.98528 7.5 7.5C7.5 5.01472 9.51472 3 12 3C14.4853 3 16.5 5.01472 16.5 7.5Z" stroke="currentColor" stroke-width="2" stroke-linecap="round" stroke-linejoin="round"/>
</svg>
