<svg width="24" height="24" viewBox="0 0 24 24" fill="none" xmlns="http://www.w3.org/2000/svg">
<path d="M3.01148 20.8489C2.92803 21.3948 3.30295 21.9051 3.8489 21.9885C4.39484 22.072 4.90507 21.697 4.98852 21.1511L3.01148 20.8489ZM11.0828 16.2218C11.6332 16.1761 12.0423 15.6928 11.9966 15.1424C11.9508 14.592 11.4676 14.1829 10.9172 14.2287L11.0828 16.2218ZM19.5602 2.83715C19.1027 2.52778 18.481 2.64786 18.1716 3.10536C17.8622 3.56286 17.9823 4.18454 18.4398 4.49391L19.5602 2.83715ZM19.3127 9.04035C18.9675 9.4714 19.037 10.1007 19.468 10.446C19.8991 10.7913 20.5284 10.7218 20.8737 10.2907L19.3127 9.04035ZM20.4046 18.4543C20.0141 18.0638 19.3809 18.0637 18.9904 18.4542C18.5998 18.8448 18.5998 19.4779 18.9903 19.8685L20.4046 18.4543ZM20.8288 21.7071C21.2193 22.0976 21.8525 22.0976 22.243 21.7071C22.6336 21.3166 22.6336 20.6835 22.2431 20.2929L20.8288 21.7071ZM4 21C4.98852 21.1511 4.98844 21.1516 4.98836 21.1521C4.98834 21.1523 4.98826 21.1528 4.98822 21.1531C4.98813 21.1536 4.98805 21.1541 4.98798 21.1546C4.98785 21.1554 4.98776 21.1559 4.98772 21.1562C4.98765 21.1566 4.98777 21.1559 4.98809 21.154C4.98875 21.1502 4.99024 21.1417 4.9927 21.1289C4.99762 21.1032 5.00639 21.0601 5.02005 21.0021C5.04743 20.8858 5.09411 20.7106 5.16818 20.495C5.31697 20.062 5.57195 19.4784 5.99295 18.8831C6.81467 17.7212 8.30714 16.4524 11.0828 16.2218L10.9172 14.2287C7.49687 14.5129 5.48934 16.1315 4.36005 17.7283C3.80556 18.5123 3.47229 19.2759 3.2767 19.8452C3.17858 20.1308 3.11404 20.3705 3.07324 20.5439C3.05282 20.6307 3.03827 20.7011 3.02839 20.7527C3.02345 20.7785 3.01967 20.7997 3.0169 20.8158C3.01552 20.8238 3.01438 20.8307 3.01349 20.8362C3.01304 20.839 3.01265 20.8414 3.01232 20.8435C3.01215 20.8446 3.012 20.8456 3.01186 20.8465C3.01179 20.8469 3.01169 20.8475 3.01166 20.8477C3.01157 20.8483 3.01148 20.8489 4 21ZM15.5 7.5C15.5 9.433 13.933 11 12 11V13C15.0376 13 17.5 10.5376 17.5 7.5H15.5ZM12 11C10.067 11 8.5 9.433 8.5 7.5H6.5C6.5 10.5376 8.96243 13 12 13V11ZM8.5 7.5C8.5 5.567 10.067 4 12 4V2C8.96243 2 6.5 4.46243 6.5 7.5H8.5ZM12 4C13.933 4 15.5 5.567 15.5 7.5H17.5C17.5 4.46243 15.0376 2 12 2V4ZM18.4398 4.49391C19.4372 5.16832 20 6.14252 20 7.16553H22C22 5.36126 21.0028 3.81268 19.5602 2.83715L18.4398 4.49391ZM20 7.16553C20 7.8411 19.7579 8.48454 19.3127 9.04035L20.8737 10.2907C21.574 9.41642 22 8.3401 22 7.16553H20ZM19.536 17C19.536 18.1046 18.6405 19 17.536 19V21C19.7451 21 21.536 19.2091 21.536 17H19.536ZM17.536 19C16.4314 19 15.536 18.1046 15.536 17H13.536C13.536 19.2091 15.3268 21 17.536 21V19ZM15.536 17C15.536 15.8954 16.4314 15 17.536 15V13C15.3268 13 13.536 14.7909 13.536 17H15.536ZM17.536 15C18.6405 15 19.536 15.8954 19.536 17H21.536C21.536 14.7909 19.7451 13 17.536 13V15ZM18.9903 19.8685L20.8288 21.7071L22.2431 20.2929L20.4046 18.4543L18.9903 19.8685Z" fill="currentColor"/>
</svg>
