<svg width="24" height="24" viewBox="0 0 24 24" fill="none" xmlns="http://www.w3.org/2000/svg">
<path d="M8 18C8 18 8.61111 13.8001 13.5 13.8001C18.3889 13.8001 19 18 19 18M2 11.5V12.4C2 15.7603 2 17.4405 2.65396 18.7239C3.2292 19.8529 4.14708 20.7708 5.27606 21.346C6.55953 22 8.23969 22 11.6 22H12M16.5938 8.25C16.5938 10.0449 15.2086 11.5 13.5 11.5C11.7914 11.5 10.4062 10.0449 10.4062 8.25C10.4062 6.45507 11.7914 5 13.5 5C15.2086 5 16.5938 6.45507 16.5938 8.25ZM9.8 19H17.2C18.8802 19 19.7202 19 20.362 18.673C20.9265 18.3854 21.3854 17.9265 21.673 17.362C22 16.7202 22 15.8802 22 14.2V6.8C22 5.11984 22 4.27976 21.673 3.63803C21.3854 3.07354 20.9265 2.6146 20.362 2.32698C19.7202 2 18.8802 2 17.2 2H9.8C8.11984 2 7.27976 2 6.63803 2.32698C6.07354 2.6146 5.6146 3.07354 5.32698 3.63803C5 4.27976 5 5.11984 5 6.8V14.2C5 15.8802 5 16.7202 5.32698 17.362C5.6146 17.9265 6.07354 18.3854 6.63803 18.673C7.27976 19 8.11984 19 9.8 19Z" stroke="currentColor" stroke-width="2" stroke-linecap="round" stroke-linejoin="round"/>
</svg>
