<svg width="24" height="24" viewBox="0 0 24 24" fill="none" xmlns="http://www.w3.org/2000/svg">
<path d="M20 21V20.5714C20 17.4944 17.5056 15 14.4286 15H9.57141C6.49439 15 3.99998 17.4944 3.99998 20.5714V21M22.0344 16.152V15.8832C22.0344 13.9535 20.47 12.3891 18.5403 12.3891M19.0102 8.50009C19.5224 7.98918 19.8394 7.28257 19.8394 6.50194C19.8394 5.51309 19.3308 4.64303 18.5609 4.13904M2 16.152V15.8832C2 13.9535 3.56437 12.3891 5.49412 12.3891M5.02419 8.50009C4.51197 7.98918 4.19502 7.28257 4.19502 6.50194C4.19502 5.51309 4.7036 4.64303 5.47345 4.13904M16.5 7.5C16.5 9.98528 14.4853 12 12 12C9.5147 12 7.49998 9.98528 7.49998 7.5C7.49998 5.01472 9.5147 3 12 3C14.4853 3 16.5 5.01472 16.5 7.5Z" stroke="currentColor" stroke-width="2" stroke-linecap="round" stroke-linejoin="round"/>
</svg>
