<svg width="24" height="24" viewBox="0 0 24 24" fill="none" xmlns="http://www.w3.org/2000/svg">
<path d="M7.07577 15.7311L7.31831 16.7012L7.07577 15.7311ZM4 21H3V22H4V21ZM9 22C9.55228 22 10 21.5523 10 21C10 20.4477 9.55228 20 9 20V22ZM11.0493 16.1483C11.6009 16.1211 12.026 15.6519 11.9988 15.1002C11.9716 14.5486 11.5024 14.1235 10.9507 14.1507L11.0493 16.1483ZM19.5602 2.83715C19.1027 2.52778 18.481 2.64786 18.1716 3.10536C17.8622 3.56286 17.9823 4.18454 18.4398 4.49391L19.5602 2.83715ZM19.3127 9.04035C18.9675 9.4714 19.037 10.1007 19.468 10.446C19.8991 10.7913 20.5284 10.7218 20.8737 10.2907L19.3127 9.04035ZM20.4046 18.4543C20.0141 18.0638 19.3809 18.0637 18.9904 18.4542C18.5998 18.8448 18.5998 19.4779 18.9903 19.8685L20.4046 18.4543ZM20.8288 21.7071C21.2193 22.0976 21.8525 22.0976 22.243 21.7071C22.6336 21.3166 22.6336 20.6835 22.2431 20.2929L20.8288 21.7071ZM5 19.6704C5 18.266 5.95582 17.0418 7.31831 16.7012L6.83324 14.7609C4.58042 15.3241 3 17.3483 3 19.6704H5ZM5 21V19.6704H3V21H5ZM4 22H9V20H4V22ZM7.31831 16.7012C8.54537 16.3944 9.79503 16.2101 11.0493 16.1483L10.9507 14.1507C9.56657 14.219 8.18742 14.4224 6.83324 14.7609L7.31831 16.7012ZM15.5 7.5C15.5 9.433 13.933 11 12 11V13C15.0376 13 17.5 10.5376 17.5 7.5H15.5ZM12 11C10.067 11 8.5 9.433 8.5 7.5H6.5C6.5 10.5376 8.96243 13 12 13V11ZM8.5 7.5C8.5 5.567 10.067 4 12 4V2C8.96243 2 6.5 4.46243 6.5 7.5H8.5ZM12 4C13.933 4 15.5 5.567 15.5 7.5H17.5C17.5 4.46243 15.0376 2 12 2V4ZM18.4398 4.49391C19.4372 5.16832 20 6.14252 20 7.16553H22C22 5.36126 21.0028 3.81268 19.5602 2.83715L18.4398 4.49391ZM20 7.16553C20 7.8411 19.7579 8.48454 19.3127 9.04035L20.8737 10.2907C21.574 9.41642 22 8.3401 22 7.16553H20ZM19.536 17C19.536 18.1046 18.6405 19 17.536 19V21C19.7451 21 21.536 19.2091 21.536 17H19.536ZM17.536 19C16.4314 19 15.536 18.1046 15.536 17H13.536C13.536 19.2091 15.3268 21 17.536 21V19ZM15.536 17C15.536 15.8954 16.4314 15 17.536 15V13C15.3268 13 13.536 14.7909 13.536 17H15.536ZM17.536 15C18.6405 15 19.536 15.8954 19.536 17H21.536C21.536 14.7909 19.7451 13 17.536 13V15ZM18.9903 19.8685L20.8288 21.7071L22.2431 20.2929L20.4046 18.4543L18.9903 19.8685Z" fill="currentColor"/>
</svg>
