<svg width="24" height="24" viewBox="0 0 24 24" fill="none" xmlns="http://www.w3.org/2000/svg">
<path d="M20 21V20.5714C20 17.4944 17.5056 15 14.4286 15H9.57143C6.49441 15 4 17.4944 4 20.5714V21M22.0344 16.4579V16.1891C22.0344 14.2594 20.47 12.695 18.5403 12.695M19.0102 8.806C19.5224 8.29509 19.8394 7.58848 19.8394 6.80785C19.8394 5.819 19.3308 4.94894 18.561 4.44495M16.5 7.5C16.5 9.98528 14.4853 12 12 12C9.51472 12 7.5 9.98528 7.5 7.5C7.5 5.01472 9.51472 3 12 3C14.4853 3 16.5 5.01472 16.5 7.5Z" stroke="currentColor" stroke-width="2" stroke-linecap="round" stroke-linejoin="round"/>
</svg>
