<svg width="24" height="24" viewBox="0 0 24 24" fill="none" xmlns="http://www.w3.org/2000/svg">
<path d="M6.5 21.0457C6.5 21.0457 7.11111 17.0477 12 17.0477C16.8889 17.0477 17.5 21.0457 17.5 21.0457M15.0938 11.7644C15.0938 13.473 13.7086 14.8582 12 14.8582C10.2914 14.8582 8.90625 13.473 8.90625 11.7644C8.90625 10.0558 10.2914 8.67065 12 8.67065C13.7086 8.67065 15.0938 10.0558 15.0938 11.7644ZM6.8 22C5.11984 22 4.27976 22 3.63803 21.673C3.07354 21.3854 2.6146 20.9265 2.32698 20.362C2 19.7202 2 18.8802 2 17.2V11.4C2 10.52 2 10.08 2.11534 9.67616C2.21749 9.31847 2.38527 8.98291 2.61013 8.68657C2.864 8.352 3.216 8.088 3.92 7.56L9.12 3.66C10.1528 2.88542 10.6692 2.49813 11.2363 2.34883C11.7369 2.21706 12.2631 2.21706 12.7637 2.34883C13.3308 2.49813 13.8472 2.88542 14.88 3.66L20.08 7.56C20.784 8.088 21.136 8.352 21.3899 8.68657C21.6147 8.98291 21.7825 9.31847 21.8847 9.67616C22 10.08 22 10.52 22 11.4V17.2C22 18.8802 22 19.7202 21.673 20.362C21.3854 20.9265 20.9265 21.3854 20.362 21.673C19.7202 22 18.8802 22 17.2 22H6.8Z" stroke="currentColor" stroke-width="2" stroke-linecap="round" stroke-linejoin="round"/>
</svg>
