<svg width="24" height="24" viewBox="0 0 24 24" fill="none" xmlns="http://www.w3.org/2000/svg">
<path d="M4 21V20.5714C4 17.4944 6.49441 15 9.57143 15H11.5M19.6975 19.1614L21.536 21M16.5 7.5C16.5 9.98528 14.4853 12 12 12C9.51472 12 7.5 9.98528 7.5 7.5C7.5 5.01472 9.51472 3 12 3C14.4853 3 16.5 5.01472 16.5 7.5ZM20.536 17C20.536 18.6569 19.1928 20 17.536 20C15.8791 20 14.536 18.6569 14.536 17C14.536 15.3431 15.8791 14 17.536 14C19.1928 14 20.536 15.3431 20.536 17Z" stroke="currentColor" stroke-width="2" stroke-linecap="round"/>
</svg>
