<svg width="24" height="24" viewBox="0 0 24 24" fill="none" xmlns="http://www.w3.org/2000/svg">
<path d="M1.01148 20.9629C0.928031 21.5089 1.30295 22.0191 1.8489 22.1026C2.39484 22.186 2.90507 21.8111 2.98852 21.2652L1.01148 20.9629ZM14.6777 21.2652C14.7611 21.8111 15.2714 22.186 15.8173 22.1026C16.3632 22.0191 16.7382 21.5089 16.6547 20.9629L14.6777 21.2652ZM16.8975 2.28728C16.507 1.89675 15.8738 1.89675 15.4833 2.28728C15.0928 2.6778 15.0928 3.31097 15.4833 3.70149L16.8975 2.28728ZM20.2841 8.50234C20.6747 8.89287 21.3078 8.89287 21.6984 8.50234C22.0889 8.11182 22.0889 7.47865 21.6984 7.08813L20.2841 8.50234ZM21.6984 3.70149C22.0889 3.31097 22.0889 2.6778 21.6984 2.28728C21.3078 1.89675 20.6747 1.89675 20.2841 2.28728L21.6984 3.70149ZM15.4833 7.08813C15.0928 7.47865 15.0928 8.11182 15.4833 8.50234C15.8738 8.89287 16.507 8.89287 16.8975 8.50234L15.4833 7.08813ZM2 21.114C2.98852 21.2652 2.98843 21.2657 2.98835 21.2663C2.98833 21.2664 2.98824 21.2669 2.9882 21.2672C2.9881 21.2679 2.98801 21.2684 2.98794 21.2689C2.98779 21.2698 2.98768 21.2705 2.98762 21.2709C2.98749 21.2717 2.98755 21.2713 2.9878 21.2699C2.9883 21.267 2.98958 21.2597 2.99178 21.2484C2.99617 21.2257 3.00418 21.1868 3.01683 21.1342C3.04218 21.0286 3.08577 20.8692 3.15542 20.6739C3.2955 20.2811 3.53583 19.7579 3.93337 19.2378C4.6997 18.2351 6.11825 17.1471 8.8331 17.1471V15.1471C5.47408 15.1471 3.47608 16.5425 2.34433 18.0233C1.79282 18.7449 1.46373 19.4635 1.27165 20.002C1.17522 20.2724 1.11204 20.501 1.07214 20.6671C1.05217 20.7502 1.03794 20.8181 1.02824 20.8682C1.02339 20.8932 1.01967 20.9138 1.01693 20.9297C1.01556 20.9377 1.01443 20.9444 1.01353 20.95C1.01308 20.9528 1.01268 20.9552 1.01234 20.9574C1.01217 20.9585 1.01202 20.9595 1.01187 20.9604C1.0118 20.9609 1.0117 20.9615 1.01167 20.9617C1.01157 20.9624 1.01148 20.9629 2 21.114ZM8.8331 17.1471C11.5479 17.1471 12.9665 18.2351 13.7328 19.2378C14.1304 19.7579 14.3707 20.2811 14.5108 20.6739C14.5804 20.8692 14.624 21.0286 14.6494 21.1342C14.662 21.1868 14.67 21.2257 14.6744 21.2484C14.6766 21.2597 14.6779 21.267 14.6784 21.2699C14.6787 21.2713 14.6787 21.2717 14.6786 21.2709C14.6785 21.2705 14.6784 21.2698 14.6783 21.2689C14.6782 21.2684 14.6781 21.2679 14.678 21.2672C14.678 21.2669 14.6779 21.2664 14.6779 21.2663C14.6778 21.2657 14.6777 21.2652 15.6662 21.114C16.6547 20.9629 16.6546 20.9624 16.6545 20.9617C16.6545 20.9615 16.6544 20.9609 16.6543 20.9604C16.6542 20.9595 16.654 20.9585 16.6539 20.9574C16.6535 20.9552 16.6531 20.9528 16.6527 20.95C16.6518 20.9444 16.6506 20.9377 16.6493 20.9297C16.6465 20.9138 16.6428 20.8932 16.638 20.8682C16.6283 20.8181 16.614 20.7502 16.5941 20.6671C16.5542 20.501 16.491 20.2724 16.3946 20.002C16.2025 19.4635 15.8734 18.7449 15.3219 18.0233C14.1901 16.5425 12.1921 15.1471 8.8331 15.1471V17.1471ZM11.6767 9.58319C11.6767 11.1537 10.4036 12.4268 8.8331 12.4268V14.4268C11.5082 14.4268 13.6767 12.2582 13.6767 9.58319H11.6767ZM8.8331 12.4268C7.26261 12.4268 5.98948 11.1537 5.98948 9.58319H3.98948C3.98948 12.2582 6.15804 14.4268 8.8331 14.4268V12.4268ZM5.98948 9.58319C5.98948 8.0127 7.26261 6.73957 8.8331 6.73957V4.73957C6.15804 4.73957 3.98948 6.90813 3.98948 9.58319H5.98948ZM8.8331 6.73957C10.4036 6.73957 11.6767 8.0127 11.6767 9.58319H13.6767C13.6767 6.90813 11.5082 4.73957 8.8331 4.73957V6.73957ZM15.4833 3.70149L17.8837 6.10192L19.2979 4.6877L16.8975 2.28728L15.4833 3.70149ZM17.8837 6.10192L20.2841 8.50234L21.6984 7.08813L19.2979 4.6877L17.8837 6.10192ZM20.2841 2.28728L17.8837 4.6877L19.2979 6.10192L21.6984 3.70149L20.2841 2.28728ZM17.8837 4.6877L15.4833 7.08813L16.8975 8.50234L19.2979 6.10192L17.8837 4.6877Z" fill="currentColor"/>
</svg>
