<svg width="24" height="24" viewBox="0 0 24 24" fill="none" xmlns="http://www.w3.org/2000/svg">
<path d="M16.3887 19.6306C16.3887 20.1829 16.8364 20.6306 17.3887 20.6306C17.941 20.6306 18.3887 20.1829 18.3887 19.6306H16.3887ZM5.61127 19.6306C5.61127 20.1829 6.05898 20.6306 6.61127 20.6306C7.16355 20.6306 7.61127 20.1829 7.61127 19.6306H5.61127ZM22.8771 10.3512C22.795 9.80511 22.2856 9.42897 21.7395 9.51113C21.1934 9.59328 20.8172 10.1026 20.8994 10.6488L22.8771 10.3512ZM13.3513 3.10063C13.8974 3.18278 14.4067 2.80664 14.4889 2.2605C14.571 1.71436 14.1949 1.20503 13.6487 1.12288L13.3513 3.10063ZM17.1599 5.65685C16.7694 6.04738 16.7694 6.68054 17.1599 7.07107C17.5504 7.46159 18.1836 7.46159 18.5741 7.07107L17.1599 5.65685ZM22.8168 2.82843C23.2073 2.4379 23.2073 1.80474 22.8168 1.41421C22.4262 1.02369 21.7931 1.02369 21.4025 1.41421L22.8168 2.82843ZM18.5741 1.41421C18.1836 1.02369 17.5504 1.02369 17.1599 1.41421C16.7694 1.80474 16.7694 2.4379 17.1599 2.82843L18.5741 1.41421ZM21.4025 7.07107C21.7931 7.46159 22.4262 7.46159 22.8168 7.07107C23.2073 6.68054 23.2073 6.04738 22.8168 5.65685L21.4025 7.07107ZM10.3641 16.4393H13.6359V14.4393H10.3641V16.4393ZM16.3887 19.3312V19.6306H18.3887V19.3312H16.3887ZM7.61127 19.6306V19.3312H5.61127V19.6306H7.61127ZM13.6359 16.4393C15.1223 16.4393 16.3887 17.6995 16.3887 19.3312H18.3887C18.3887 16.6641 16.2948 14.4393 13.6359 14.4393V16.4393ZM10.3641 14.4393C7.70523 14.4393 5.61127 16.6641 5.61127 19.3312H7.61127C7.61127 17.6995 8.87773 16.4393 10.3641 16.4393V14.4393ZM14.0312 10.2003C14.0312 11.4187 13.0878 12.3437 12 12.3437V14.3437C14.2603 14.3437 16.0312 12.4541 16.0312 10.2003H14.0312ZM12 12.3437C10.9122 12.3437 9.96884 11.4187 9.96884 10.2003H7.96884C7.96884 12.4541 9.73968 14.3437 12 14.3437V12.3437ZM9.96884 10.2003C9.96884 8.98192 10.9122 8.05686 12 8.05686V6.05686C9.73968 6.05686 7.96884 7.94653 7.96884 10.2003H9.96884ZM12 8.05686C13.0878 8.05686 14.0312 8.98192 14.0312 10.2003H16.0312C16.0312 7.94653 14.2603 6.05686 12 6.05686V8.05686ZM21 12C21 16.9706 16.9706 21 12 21V23C18.0751 23 23 18.0751 23 12H21ZM12 21C7.02944 21 3 16.9706 3 12H1C1 18.0751 5.92487 23 12 23V21ZM3 12C3 7.02944 7.02944 3 12 3V1C5.92487 1 1 5.92487 1 12H3ZM20.8994 10.6488C20.9656 11.089 21 11.5401 21 12H23C23 11.4402 22.9581 10.8896 22.8771 10.3512L20.8994 10.6488ZM12 3C12.4599 3 12.911 3.03441 13.3513 3.10063L13.6487 1.12288C13.1104 1.04189 12.5598 1 12 1V3ZM18.5741 7.07107L20.6954 4.94975L19.2812 3.53553L17.1599 5.65685L18.5741 7.07107ZM20.6954 4.94975L22.8168 2.82843L21.4025 1.41421L19.2812 3.53553L20.6954 4.94975ZM17.1599 2.82843L19.2812 4.94975L20.6954 3.53553L18.5741 1.41421L17.1599 2.82843ZM19.2812 4.94975L21.4025 7.07107L22.8168 5.65685L20.6954 3.53553L19.2812 4.94975Z" fill="currentColor"/>
</svg>
