<svg width="24" height="24" viewBox="0 0 24 24" fill="none" xmlns="http://www.w3.org/2000/svg">
<path d="M3.01148 20.8489C2.92803 21.3948 3.30296 21.9051 3.8489 21.9885C4.39484 22.072 4.90507 21.697 4.98852 21.1511L3.01148 20.8489ZM13.5759 16.2991C14.1218 16.3827 14.6322 16.0079 14.7158 15.462C14.7994 14.9161 14.4246 14.4057 13.8787 14.3221L13.5759 16.2991ZM19.4151 15.8878C19.4151 15.3355 18.9674 14.8878 18.4151 14.8878C17.8628 14.8878 17.4151 15.3355 17.4151 15.8878H19.4151ZM17.4151 21C17.4151 21.5523 17.8628 22 18.4151 22C18.9674 22 19.4151 21.5523 19.4151 21H17.4151ZM20.9712 19.4439C21.5235 19.4439 21.9712 18.9962 21.9712 18.4439C21.9712 17.8916 21.5235 17.4439 20.9712 17.4439V19.4439ZM15.859 17.4439C15.3067 17.4439 14.859 17.8916 14.859 18.4439C14.859 18.9962 15.3067 19.4439 15.859 19.4439V17.4439ZM19.5602 3.17162C19.1027 2.86225 18.481 2.98233 18.1716 3.43983C17.8622 3.89734 17.9823 4.51901 18.4398 4.82838L19.5602 3.17162ZM18.4398 10.1716C17.9823 10.481 17.8622 11.1027 18.1716 11.5602C18.481 12.0177 19.1027 12.1378 19.5602 11.8284L18.4398 10.1716ZM4 21C4.98852 21.1511 4.98843 21.1517 4.98835 21.1522C4.98833 21.1523 4.98825 21.1529 4.9882 21.1532C4.98811 21.1537 4.98803 21.1543 4.98796 21.1547C4.98783 21.1555 4.98774 21.1561 4.98771 21.1562C4.98766 21.1566 4.98781 21.1556 4.9882 21.1534C4.98898 21.1489 4.99069 21.1392 4.99349 21.1248C4.99908 21.0959 5.00899 21.0479 5.02443 20.9837C5.05535 20.855 5.10805 20.6624 5.19188 20.4273C5.36033 19.955 5.64928 19.3258 6.12785 18.6996C7.05625 17.4849 8.76653 16.1848 12 16.1848V14.1848C8.12236 14.1848 5.83264 15.7923 4.53881 17.4852C3.90627 18.3128 3.52856 19.1374 3.30812 19.7554C3.1975 20.0656 3.12521 20.3273 3.07974 20.5166C3.05698 20.6113 3.04085 20.6883 3.02995 20.7446C3.0245 20.7728 3.02035 20.7958 3.01733 20.8133C3.01582 20.822 3.0146 20.8294 3.01363 20.8353C3.01314 20.8383 3.01273 20.8409 3.01237 20.8432C3.01219 20.8443 3.01203 20.8454 3.01188 20.8463C3.01181 20.8468 3.01171 20.8474 3.01167 20.8477C3.01157 20.8483 3.01148 20.8489 4 21ZM12 16.1848C12.5744 16.1848 13.0983 16.2259 13.5759 16.2991L13.8787 14.3221C13.2953 14.2328 12.67 14.1848 12 14.1848V16.1848ZM15.5 7.5C15.5 9.433 13.933 11 12 11V13C15.0376 13 17.5 10.5376 17.5 7.5H15.5ZM12 11C10.067 11 8.5 9.433 8.5 7.5H6.5C6.5 10.5376 8.96243 13 12 13V11ZM8.5 7.5C8.5 5.567 10.067 4 12 4V2C8.96243 2 6.5 4.46243 6.5 7.5H8.5ZM12 4C13.933 4 15.5 5.567 15.5 7.5H17.5C17.5 4.46243 15.0376 2 12 2V4ZM17.4151 15.8878V18.4439H19.4151V15.8878H17.4151ZM17.4151 18.4439V21H19.4151V18.4439H17.4151ZM20.9712 17.4439H18.4151V19.4439H20.9712V17.4439ZM18.4151 17.4439H15.859V19.4439H18.4151V17.4439ZM18.4398 4.82838C19.4372 5.50279 20 6.47699 20 7.5H22C22 5.69574 21.0028 4.14716 19.5602 3.17162L18.4398 4.82838ZM20 7.5C20 8.52301 19.4372 9.49721 18.4398 10.1716L19.5602 11.8284C21.0028 10.8528 22 9.30426 22 7.5H20Z" fill="currentColor"/>
</svg>
