<svg width="24" height="24" viewBox="0 0 24 24" fill="none" xmlns="http://www.w3.org/2000/svg">
<path d="M4 21V20.5714C4 17.4944 6.49441 15 9.57143 15H11.5M15.7705 15.1667L20.4371 19.8333M16.5 7.5C16.5 9.98528 14.4853 12 12 12C9.51472 12 7.5 9.98528 7.5 7.5C7.5 5.01472 9.51472 3 12 3C14.4853 3 16.5 5.01472 16.5 7.5ZM21.6038 17.5C21.6038 19.433 20.0368 21 18.1038 21C16.1708 21 14.6038 19.433 14.6038 17.5C14.6038 15.567 16.1708 14 18.1038 14C20.0368 14 21.6038 15.567 21.6038 17.5Z" stroke="currentColor" stroke-width="2" stroke-linecap="round"/>
</svg>
