<svg width="24" height="24" viewBox="0 0 24 24" fill="none" xmlns="http://www.w3.org/2000/svg">
<path d="M4 21C4 21 4.88889 15.1848 12 15.1848C12.9303 15.1848 13.7541 15.2843 14.4834 15.4574M15.3283 18.6233H21.0009M21.0009 18.6233H21.0324M21.0009 18.6233C21.0009 18.6407 20.9934 18.6581 20.9786 18.6713L18.3705 21M21.0009 18.6233C21.0009 18.6059 20.9934 18.5886 20.9786 18.5753L18.3705 16.2466M19 4C20.22 4.82497 21 6.08636 21 7.5C21 8.91364 20.22 10.175 19 11M16.5 7.5C16.5 9.98528 14.4853 12 12 12C9.51472 12 7.5 9.98528 7.5 7.5C7.5 5.01472 9.51472 3 12 3C14.4853 3 16.5 5.01472 16.5 7.5Z" stroke="currentColor" stroke-width="2" stroke-linecap="round" stroke-linejoin="round"/>
</svg>
