<svg width="24" height="24" viewBox="0 0 24 24" fill="none" xmlns="http://www.w3.org/2000/svg">
<path d="M14.4286 16C14.9809 16 15.4286 15.5523 15.4286 15C15.4286 14.4477 14.9809 14 14.4286 14V16ZM3 21C3 21.5523 3.44772 22 4 22C4.55228 22 5 21.5523 5 21H3ZM19.4151 15.8878C19.4151 15.3355 18.9674 14.8878 18.4151 14.8878C17.8628 14.8878 17.4151 15.3355 17.4151 15.8878H19.4151ZM17.4151 21C17.4151 21.5523 17.8628 22 18.4151 22C18.9674 22 19.4151 21.5523 19.4151 21H17.4151ZM20.9712 19.4439C21.5235 19.4439 21.9712 18.9962 21.9712 18.4439C21.9712 17.8916 21.5235 17.4439 20.9712 17.4439V19.4439ZM15.859 17.4439C15.3067 17.4439 14.859 17.8916 14.859 18.4439C14.859 18.9962 15.3067 19.4439 15.859 19.4439V17.4439ZM19.5602 3.17162C19.1027 2.86225 18.481 2.98233 18.1716 3.43983C17.8622 3.89734 17.9823 4.51901 18.4398 4.82838L19.5602 3.17162ZM18.4398 10.1716C17.9823 10.481 17.8622 11.1027 18.1716 11.5602C18.481 12.0177 19.1027 12.1378 19.5602 11.8284L18.4398 10.1716ZM9.57143 16H14.4286V14H9.57143V16ZM5 21V20.5714H3V21H5ZM9.57143 14C5.94213 14 3 16.9421 3 20.5714H5C5 18.0467 7.0467 16 9.57143 16V14ZM15.5 7.5C15.5 9.433 13.933 11 12 11V13C15.0376 13 17.5 10.5376 17.5 7.5H15.5ZM12 11C10.067 11 8.5 9.433 8.5 7.5H6.5C6.5 10.5376 8.96243 13 12 13V11ZM8.5 7.5C8.5 5.567 10.067 4 12 4V2C8.96243 2 6.5 4.46243 6.5 7.5H8.5ZM12 4C13.933 4 15.5 5.567 15.5 7.5H17.5C17.5 4.46243 15.0376 2 12 2V4ZM17.4151 15.8878V18.4439H19.4151V15.8878H17.4151ZM17.4151 18.4439V21H19.4151V18.4439H17.4151ZM20.9712 17.4439H18.4151V19.4439H20.9712V17.4439ZM18.4151 17.4439H15.859V19.4439H18.4151V17.4439ZM18.4398 4.82838C19.4372 5.50279 20 6.47699 20 7.5H22C22 5.69574 21.0028 4.14716 19.5602 3.17162L18.4398 4.82838ZM20 7.5C20 8.52301 19.4372 9.49721 18.4398 10.1716L19.5602 11.8284C21.0028 10.8528 22 9.30426 22 7.5H20Z" fill="currentColor"/>
</svg>
