<svg width="24" height="24" viewBox="0 0 24 24" fill="none" xmlns="http://www.w3.org/2000/svg">
<path d="M14.6662 21.0925C14.6662 21.6448 15.1139 22.0925 15.6662 22.0925C16.2185 22.0925 16.6662 21.6448 16.6662 21.0925H14.6662ZM1 21.0925C1 21.6448 1.44772 22.0925 2 22.0925C2.55228 22.0925 3 21.6448 3 21.0925H1ZM16.8975 2.28722C16.507 1.89669 15.8738 1.89669 15.4833 2.28722C15.0928 2.67774 15.0928 3.31091 15.4833 3.70143L16.8975 2.28722ZM20.2841 8.50228C20.6747 8.89281 21.3078 8.89281 21.6984 8.50228C22.0889 8.11176 22.0889 7.47859 21.6984 7.08807L20.2841 8.50228ZM21.6984 3.70143C22.0889 3.31091 22.0889 2.67774 21.6984 2.28722C21.3078 1.89669 20.6747 1.89669 20.2841 2.28722L21.6984 3.70143ZM15.4833 7.08807C15.0928 7.47859 15.0928 8.11176 15.4833 8.50228C15.8738 8.89281 16.507 8.89281 16.8975 8.50228L15.4833 7.08807ZM6.75877 16.9677H10.9074V14.9677H6.75877V16.9677ZM14.6662 20.7265V21.0925H16.6662V20.7265H14.6662ZM3 21.0925V20.7265H1V21.0925H3ZM10.9074 16.9677C12.9833 16.9677 14.6662 18.6505 14.6662 20.7265H16.6662C16.6662 17.546 14.0879 14.9677 10.9074 14.9677V16.9677ZM6.75877 14.9677C3.57829 14.9677 1 17.546 1 20.7265H3C3 18.6505 4.68286 16.9677 6.75877 16.9677V14.9677ZM11.6767 9.56166C11.6767 11.1321 10.4036 12.4053 8.8331 12.4053V14.4053C11.5082 14.4053 13.6767 12.2367 13.6767 9.56166H11.6767ZM8.8331 12.4053C7.26261 12.4053 5.98948 11.1321 5.98948 9.56166H3.98948C3.98948 12.2367 6.15804 14.4053 8.8331 14.4053V12.4053ZM5.98948 9.56166C5.98948 7.99117 7.26261 6.71804 8.8331 6.71804V4.71804C6.15804 4.71804 3.98948 6.8866 3.98948 9.56166H5.98948ZM8.8331 6.71804C10.4036 6.71804 11.6767 7.99117 11.6767 9.56166H13.6767C13.6767 6.8866 11.5082 4.71804 8.8331 4.71804V6.71804ZM15.4833 3.70143L17.8837 6.10186L19.2979 4.68764L16.8975 2.28722L15.4833 3.70143ZM17.8837 6.10186L20.2841 8.50228L21.6984 7.08807L19.2979 4.68764L17.8837 6.10186ZM20.2841 2.28722L17.8837 4.68764L19.2979 6.10186L21.6984 3.70143L20.2841 2.28722ZM17.8837 4.68764L15.4833 7.08807L16.8975 8.50228L19.2979 6.10186L17.8837 4.68764Z" fill="currentColor"/>
</svg>
