<svg width="24" height="24" viewBox="0 0 24 24" fill="none" xmlns="http://www.w3.org/2000/svg">
<path d="M4 21C4 21 4.88889 15.1848 12 15.1848C19.1111 15.1848 20 21 20 21M19.0406 5.10522C19.9878 5.58648 20.6368 6.57012 20.6368 7.70533C20.6368 9.03091 19.7519 10.1498 18.5406 10.5035M17.6368 13.4712C21.4941 13.8855 22 17.1952 22 17.1952M16.5 7.5C16.5 9.98528 14.4853 12 12 12C9.51472 12 7.5 9.98528 7.5 7.5C7.5 5.01472 9.51472 3 12 3C14.4853 3 16.5 5.01472 16.5 7.5Z" stroke="currentColor" stroke-width="2" stroke-linecap="round" stroke-linejoin="round"/>
</svg>
