<svg width="24" height="24" viewBox="0 0 24 24" fill="none" xmlns="http://www.w3.org/2000/svg">
<path d="M11.0125 21H4V19.6704C4 17.8071 5.26812 16.183 7.07577 15.7311C9.35404 15.1615 11.7064 14.9933 14.0285 15.2264M21.0323 18.6233H15.3598M15.3598 18.6233H15.3283M15.3598 18.6233C15.3598 18.6407 15.3672 18.6581 15.3821 18.6713L17.9902 21M15.3598 18.6233C15.3598 18.6059 15.3672 18.5886 15.3821 18.5753L17.9902 16.2466M19 4C20.22 4.82497 21 6.08636 21 7.5C21 8.91364 20.22 10.175 19 11M16.5 7.5C16.5 9.98528 14.4853 12 12 12C9.51472 12 7.5 9.98528 7.5 7.5C7.5 5.01472 9.51472 3 12 3C14.4853 3 16.5 5.01472 16.5 7.5Z" stroke="currentColor" stroke-width="2" stroke-linecap="round" stroke-linejoin="round"/>
</svg>
