<svg width="24" height="24" viewBox="0 0 24 24" fill="none" xmlns="http://www.w3.org/2000/svg">
<path d="M3.01148 20.8489C2.92803 21.3948 3.30295 21.9051 3.8489 21.9885C4.39484 22.072 4.90507 21.697 4.98852 21.1511L3.01148 20.8489ZM11.0828 16.2218C11.6332 16.1761 12.0423 15.6928 11.9966 15.1424C11.9508 14.592 11.4676 14.1829 10.9172 14.2287L11.0828 16.2218ZM19.5602 2.83715C19.1027 2.52778 18.481 2.64786 18.1716 3.10536C17.8622 3.56286 17.9823 4.18454 18.4398 4.49391L19.5602 2.83715ZM19.3127 9.04035C18.9675 9.4714 19.037 10.1007 19.468 10.446C19.8991 10.7913 20.5284 10.7218 20.8737 10.2907L19.3127 9.04035ZM16.4776 14.4596C16.0871 14.069 15.4539 14.069 15.0634 14.4596C14.6728 14.8501 14.6728 15.4832 15.0634 15.8738L16.4776 14.4596ZM19.73 20.5404C20.1206 20.931 20.7537 20.931 21.1442 20.5404C21.5348 20.1499 21.5348 19.5168 21.1442 19.1262L19.73 20.5404ZM4 21C4.98852 21.1511 4.98844 21.1516 4.98836 21.1521C4.98834 21.1523 4.98826 21.1528 4.98822 21.1531C4.98813 21.1536 4.98805 21.1541 4.98798 21.1546C4.98785 21.1554 4.98776 21.1559 4.98772 21.1562C4.98765 21.1566 4.98777 21.1559 4.98809 21.154C4.98875 21.1502 4.99024 21.1417 4.9927 21.1289C4.99762 21.1032 5.00639 21.0601 5.02005 21.0021C5.04743 20.8858 5.09411 20.7106 5.16818 20.495C5.31697 20.062 5.57195 19.4784 5.99295 18.8831C6.81467 17.7212 8.30714 16.4524 11.0828 16.2218L10.9172 14.2287C7.49687 14.5129 5.48934 16.1315 4.36005 17.7283C3.80556 18.5123 3.47229 19.2759 3.2767 19.8452C3.17858 20.1308 3.11404 20.3705 3.07324 20.5439C3.05282 20.6307 3.03827 20.7011 3.02839 20.7527C3.02345 20.7785 3.01967 20.7997 3.0169 20.8158C3.01552 20.8238 3.01438 20.8307 3.01349 20.8362C3.01304 20.839 3.01265 20.8414 3.01232 20.8435C3.01215 20.8446 3.012 20.8456 3.01186 20.8465C3.01179 20.8469 3.01169 20.8475 3.01166 20.8477C3.01157 20.8483 3.01148 20.8489 4 21ZM15.5 7.5C15.5 9.433 13.933 11 12 11V13C15.0376 13 17.5 10.5376 17.5 7.5H15.5ZM12 11C10.067 11 8.5 9.433 8.5 7.5H6.5C6.5 10.5376 8.96243 13 12 13V11ZM8.5 7.5C8.5 5.567 10.067 4 12 4V2C8.96243 2 6.5 4.46243 6.5 7.5H8.5ZM12 4C13.933 4 15.5 5.567 15.5 7.5H17.5C17.5 4.46243 15.0376 2 12 2V4ZM18.4398 4.49391C19.4372 5.16832 20 6.14252 20 7.16553H22C22 5.36126 21.0028 3.81268 19.5602 2.83715L18.4398 4.49391ZM20 7.16553C20 7.8411 19.7579 8.48454 19.3127 9.04035L20.8737 10.2907C21.574 9.41642 22 8.3401 22 7.16553H20ZM20.6038 17.5C20.6038 18.8807 19.4845 20 18.1038 20V22C20.5891 22 22.6038 19.9853 22.6038 17.5H20.6038ZM18.1038 20C16.7231 20 15.6038 18.8807 15.6038 17.5H13.6038C13.6038 19.9853 15.6185 22 18.1038 22V20ZM15.6038 17.5C15.6038 16.1193 16.7231 15 18.1038 15V13C15.6185 13 13.6038 15.0147 13.6038 17.5H15.6038ZM18.1038 15C19.4845 15 20.6038 16.1193 20.6038 17.5H22.6038C22.6038 15.0147 20.5891 13 18.1038 13V15ZM15.0634 15.8738L19.73 20.5404L21.1442 19.1262L16.4776 14.4596L15.0634 15.8738Z" fill="currentColor"/>
</svg>
