<svg width="24" height="24" viewBox="0 0 24 24" fill="none" xmlns="http://www.w3.org/2000/svg">
<path d="M21.9999 15.6515C21.9999 14.4369 21.1733 13.3782 19.9949 13.0836C19.1999 12.8848 18.391 12.761 17.5787 12.7122M19.1926 8.51525C19.524 8.0401 19.7184 7.46223 19.7184 6.83895C19.7184 5.87445 19.2529 5.01867 18.5343 4.48401M1.78931 15.6515C1.78931 14.4369 2.61595 13.3782 3.79431 13.0836C4.58937 12.8848 5.39827 12.761 6.21058 12.7122M4.59668 8.51525C4.26523 8.0401 4.07085 7.46223 4.07085 6.83895C4.07085 5.87445 4.53634 5.01867 5.25491 4.48401M19.9999 19.6704C19.9999 17.8071 18.7318 16.183 16.9242 15.7311C13.6911 14.9228 10.3088 14.9228 7.07572 15.7311C5.26806 16.183 3.99994 17.8071 3.99994 19.6704V21H19.9999V19.6704ZM16.4999 7.5C16.4999 9.98528 14.4852 12 11.9999 12C9.51466 12 7.49994 9.98528 7.49994 7.5C7.49994 5.01472 9.51466 3 11.9999 3C14.4852 3 16.4999 5.01472 16.4999 7.5Z" stroke="currentColor" stroke-width="2" stroke-linecap="round" stroke-linejoin="round"/>
</svg>
