<svg width="24" height="24" viewBox="0 0 24 24" fill="none" xmlns="http://www.w3.org/2000/svg">
<path d="M6 20C6 20 6.66667 15.4771 12 15.4771C17.3333 15.4771 18 20 18 20M15.375 9.5C15.375 11.433 13.864 13 12 13C10.136 13 8.625 11.433 8.625 9.5C8.625 7.567 10.136 6 12 6C13.864 6 15.375 7.567 15.375 9.5ZM22 12C22 17.5228 17.5228 22 12 22C6.47715 22 2 17.5228 2 12C2 6.47715 6.47715 2 12 2C17.5228 2 22 6.47715 22 12Z" stroke="currentColor" stroke-width="2" stroke-linecap="round" stroke-linejoin="round"/>
</svg>
