<svg width="24" height="24" viewBox="0 0 24 24" fill="none" xmlns="http://www.w3.org/2000/svg">
<path d="M12 15.4393H10.3641C8.29148 15.4393 6.61127 17.1818 6.61127 19.3312V19.6306M21.807 10.035C20.894 5.45309 16.8503 2 12 2C6.47715 2 2 6.47715 2 12C2 16.8119 5.39868 20.83 9.92648 21.7847M17.7035 15.4651L18.4106 14.758C18.7394 14.4292 18.9038 14.2648 19.0748 14.166C19.5389 13.8981 20.1107 13.8981 20.5748 14.166C20.7458 14.2648 20.9102 14.4292 21.239 14.758C21.5678 15.0867 21.7322 15.2511 21.831 15.4222C22.0989 15.8863 22.0989 16.4581 21.831 16.9222C21.7322 17.0932 21.5678 17.2576 21.239 17.5864L20.5319 18.2935M17.7035 15.4651L15.0353 18.1332C14.8444 18.3242 14.7489 18.4197 14.673 18.5285C14.6056 18.6251 14.5499 18.7292 14.5069 18.8388C14.4585 18.9623 14.432 19.0947 14.379 19.3596L14.0497 21.0059C13.9711 21.3993 13.9317 21.596 13.9898 21.7363C14.0405 21.859 14.138 21.9565 14.2606 22.0072C14.4009 22.0653 14.5977 22.0259 14.9911 21.9472L16.6374 21.618C16.9022 21.565 17.0347 21.5385 17.1582 21.4901C17.2678 21.4471 17.3719 21.3913 17.4685 21.324C17.5773 21.2481 17.6728 21.1526 17.8638 20.9616L20.5319 18.2935M17.7035 15.4651L20.5319 18.2935M15.0312 10.2003C15.0312 11.9364 13.6741 13.3437 12 13.3437C10.3259 13.3437 8.96884 11.9364 8.96884 10.2003C8.96884 8.46422 10.3259 7.05686 12 7.05686C13.6741 7.05686 15.0312 8.46422 15.0312 10.2003Z" stroke="currentColor" stroke-width="2" stroke-linecap="round" stroke-linejoin="round"/>
</svg>
