<svg width="24" height="24" viewBox="0 0 24 24" fill="none" xmlns="http://www.w3.org/2000/svg">
<path d="M2 21C2 21 2.88889 15.1848 10 15.1848C17.1111 15.1848 18 21 18 21M18 3.3479C18.8333 3.99119 19.37 4.99998 19.37 6.13412C19.37 7.26826 18.8333 8.27705 18 8.92034M20.6427 2C21.7214 3.04689 22.3917 4.51225 22.3917 6.13418C22.3917 7.7561 21.7214 9.22146 20.6427 10.2684M14.5 7.5C14.5 9.98528 12.4853 12 10 12C7.51472 12 5.5 9.98528 5.5 7.5C5.5 5.01472 7.51472 3 10 3C12.4853 3 14.5 5.01472 14.5 7.5Z" stroke="currentColor" stroke-width="2" stroke-linecap="round" stroke-linejoin="round"/>
</svg>
