<svg width="24" height="24" viewBox="0 0 24 24" fill="none" xmlns="http://www.w3.org/2000/svg">
<path d="M3 21C3 21.5523 3.44772 22 4 22C4.55228 22 5 21.5523 5 21H3ZM11.5 16C12.0523 16 12.5 15.5523 12.5 15C12.5 14.4477 12.0523 14 11.5 14V16ZM19.5602 2.83711C19.1027 2.52774 18.481 2.64782 18.1716 3.10532C17.8622 3.56282 17.9823 4.1845 18.4398 4.49387L19.5602 2.83711ZM19.3127 9.04031C18.9675 9.47136 19.037 10.1007 19.468 10.446C19.8991 10.7912 20.5284 10.7217 20.8737 10.2907L19.3127 9.04031ZM16.4776 14.4596C16.0871 14.069 15.4539 14.069 15.0634 14.4596C14.6728 14.8501 14.6728 15.4832 15.0634 15.8738L16.4776 14.4596ZM19.73 20.5404C20.1206 20.931 20.7537 20.931 21.1442 20.5404C21.5348 20.1499 21.5348 19.5168 21.1442 19.1262L19.73 20.5404ZM5 21V20.5714H3V21H5ZM9.57143 14C5.94213 14 3 16.9421 3 20.5714H5C5 18.0467 7.0467 16 9.57143 16V14ZM9.57143 16H11.5V14H9.57143V16ZM15.5 7.5C15.5 9.433 13.933 11 12 11V13C15.0376 13 17.5 10.5376 17.5 7.5H15.5ZM12 11C10.067 11 8.5 9.433 8.5 7.5H6.5C6.5 10.5376 8.96243 13 12 13V11ZM8.5 7.5C8.5 5.567 10.067 4 12 4V2C8.96243 2 6.5 4.46243 6.5 7.5H8.5ZM12 4C13.933 4 15.5 5.567 15.5 7.5H17.5C17.5 4.46243 15.0376 2 12 2V4ZM18.4398 4.49387C19.4372 5.16828 20 6.14248 20 7.16549H22C22 5.36122 21.0028 3.81264 19.5602 2.83711L18.4398 4.49387ZM20 7.16549C20 7.84106 19.7579 8.4845 19.3127 9.04031L20.8737 10.2907C21.574 9.41638 22 8.34006 22 7.16549H20ZM20.6038 17.5C20.6038 18.8807 19.4845 20 18.1038 20V22C20.5891 22 22.6038 19.9853 22.6038 17.5H20.6038ZM18.1038 20C16.7231 20 15.6038 18.8807 15.6038 17.5H13.6038C13.6038 19.9853 15.6185 22 18.1038 22V20ZM15.6038 17.5C15.6038 16.1193 16.7231 15 18.1038 15V13C15.6185 13 13.6038 15.0147 13.6038 17.5H15.6038ZM18.1038 15C19.4845 15 20.6038 16.1193 20.6038 17.5H22.6038C22.6038 15.0147 20.5891 13 18.1038 13V15ZM15.0634 15.8738L19.73 20.5404L21.1442 19.1262L16.4776 14.4596L15.0634 15.8738Z" fill="currentColor"/>
</svg>
