<svg width="24" height="24" viewBox="0 0 24 24" fill="none" xmlns="http://www.w3.org/2000/svg">
<path d="M7.07577 15.7311L7.31831 16.7012L7.07577 15.7311ZM4 21H3V22H4V21ZM9 22C9.55228 22 10 21.5523 10 21C10 20.4477 9.55228 20 9 20V22ZM11.0493 16.1483C11.6009 16.1211 12.026 15.6519 11.9988 15.1002C11.9716 14.5486 11.5024 14.1235 10.9507 14.1507L11.0493 16.1483ZM19.5602 2.83715C19.1027 2.52778 18.481 2.64786 18.1716 3.10536C17.8622 3.56286 17.9823 4.18454 18.4398 4.49391L19.5602 2.83715ZM19.3127 9.04035C18.9675 9.4714 19.037 10.1007 19.468 10.446C19.8991 10.7913 20.5284 10.7218 20.8737 10.2907L19.3127 9.04035ZM16.4776 14.4596C16.0871 14.069 15.4539 14.069 15.0634 14.4596C14.6728 14.8501 14.6728 15.4832 15.0634 15.8738L16.4776 14.4596ZM19.73 20.5404C20.1206 20.931 20.7537 20.931 21.1442 20.5404C21.5348 20.1499 21.5348 19.5168 21.1442 19.1262L19.73 20.5404ZM5 19.6704C5 18.266 5.95582 17.0418 7.31831 16.7012L6.83324 14.7609C4.58042 15.3241 3 17.3483 3 19.6704H5ZM5 21V19.6704H3V21H5ZM4 22H9V20H4V22ZM7.31831 16.7012C8.54537 16.3944 9.79503 16.2101 11.0493 16.1483L10.9507 14.1507C9.56657 14.219 8.18742 14.4224 6.83324 14.7609L7.31831 16.7012ZM15.5 7.5C15.5 9.433 13.933 11 12 11V13C15.0376 13 17.5 10.5376 17.5 7.5H15.5ZM12 11C10.067 11 8.5 9.433 8.5 7.5H6.5C6.5 10.5376 8.96243 13 12 13V11ZM8.5 7.5C8.5 5.567 10.067 4 12 4V2C8.96243 2 6.5 4.46243 6.5 7.5H8.5ZM12 4C13.933 4 15.5 5.567 15.5 7.5H17.5C17.5 4.46243 15.0376 2 12 2V4ZM18.4398 4.49391C19.4372 5.16832 20 6.14252 20 7.16553H22C22 5.36126 21.0028 3.81268 19.5602 2.83715L18.4398 4.49391ZM20 7.16553C20 7.8411 19.7579 8.48454 19.3127 9.04035L20.8737 10.2907C21.574 9.41642 22 8.3401 22 7.16553H20ZM20.6038 17.5C20.6038 18.8807 19.4845 20 18.1038 20V22C20.5891 22 22.6038 19.9853 22.6038 17.5H20.6038ZM18.1038 20C16.7231 20 15.6038 18.8807 15.6038 17.5H13.6038C13.6038 19.9853 15.6185 22 18.1038 22V20ZM15.6038 17.5C15.6038 16.1193 16.7231 15 18.1038 15V13C15.6185 13 13.6038 15.0147 13.6038 17.5H15.6038ZM18.1038 15C19.4845 15 20.6038 16.1193 20.6038 17.5H22.6038C22.6038 15.0147 20.5891 13 18.1038 13V15ZM15.0634 15.8738L19.73 20.5404L21.1442 19.1262L16.4776 14.4596L15.0634 15.8738Z" fill="currentColor"/>
</svg>
