<svg width="24" height="24" viewBox="0 0 24 24" fill="none" xmlns="http://www.w3.org/2000/svg">
<path d="M3 21C3 21.5523 3.44772 22 4 22C4.55228 22 5 21.5523 5 21H3ZM11.5 16C12.0523 16 12.5 15.5523 12.5 15C12.5 14.4477 12.0523 14 11.5 14V16ZM19.5602 2.83711C19.1027 2.52774 18.481 2.64782 18.1716 3.10532C17.8622 3.56282 17.9823 4.1845 18.4398 4.49387L19.5602 2.83711ZM19.3127 9.04031C18.9675 9.47136 19.037 10.1007 19.468 10.446C19.8991 10.7912 20.5284 10.7217 20.8737 10.2907L19.3127 9.04031ZM20.4046 18.4543C20.0141 18.0638 19.3809 18.0637 18.9904 18.4542C18.5998 18.8448 18.5998 19.4779 18.9903 19.8685L20.4046 18.4543ZM20.8288 21.7071C21.2193 22.0976 21.8525 22.0976 22.243 21.7071C22.6336 21.3166 22.6336 20.6835 22.2431 20.2929L20.8288 21.7071ZM5 21V20.5714H3V21H5ZM9.57143 14C5.94213 14 3 16.9421 3 20.5714H5C5 18.0467 7.0467 16 9.57143 16V14ZM9.57143 16H11.5V14H9.57143V16ZM15.5 7.5C15.5 9.433 13.933 11 12 11V13C15.0376 13 17.5 10.5376 17.5 7.5H15.5ZM12 11C10.067 11 8.5 9.433 8.5 7.5H6.5C6.5 10.5376 8.96243 13 12 13V11ZM8.5 7.5C8.5 5.567 10.067 4 12 4V2C8.96243 2 6.5 4.46243 6.5 7.5H8.5ZM12 4C13.933 4 15.5 5.567 15.5 7.5H17.5C17.5 4.46243 15.0376 2 12 2V4ZM18.4398 4.49387C19.4372 5.16828 20 6.14248 20 7.16549H22C22 5.36122 21.0028 3.81264 19.5602 2.83711L18.4398 4.49387ZM20 7.16549C20 7.84106 19.7579 8.4845 19.3127 9.04031L20.8737 10.2907C21.574 9.41638 22 8.34006 22 7.16549H20ZM19.536 17C19.536 18.1046 18.6405 19 17.536 19V21C19.7451 21 21.536 19.2091 21.536 17H19.536ZM17.536 19C16.4314 19 15.536 18.1046 15.536 17H13.536C13.536 19.2091 15.3268 21 17.536 21V19ZM15.536 17C15.536 15.8954 16.4314 15 17.536 15V13C15.3268 13 13.536 14.7909 13.536 17H15.536ZM17.536 15C18.6405 15 19.536 15.8954 19.536 17H21.536C21.536 14.7909 19.7451 13 17.536 13V15ZM18.9903 19.8685L20.8288 21.7071L22.2431 20.2929L20.4046 18.4543L18.9903 19.8685Z" fill="currentColor"/>
</svg>
