<svg width="24" height="24" viewBox="0 0 24 24" fill="none" xmlns="http://www.w3.org/2000/svg">
<path d="M11 22C11 22 11.6111 18.002 16.5 18.002C21.3889 18.002 22 22 22 22M7 22H6.8C5.11984 22 4.27976 22 3.63803 21.673C3.07354 21.3854 2.6146 20.9265 2.32698 20.362C2 19.7202 2 18.8802 2 17.2V11.4C2 10.52 2 10.08 2.11534 9.67616C2.21749 9.31847 2.38527 8.98291 2.61013 8.68657C2.864 8.352 3.216 8.088 3.92 7.56L9.12 3.66C10.1528 2.88542 10.6692 2.49813 11.2363 2.34883C11.7369 2.21706 12.2631 2.21706 12.7637 2.34883C13.3308 2.49813 13.8472 2.88542 14.88 3.66L20 7.5M19.5938 12.7187C19.5938 14.4273 18.2086 15.8125 16.5 15.8125C14.7914 15.8125 13.4063 14.4273 13.4063 12.7187C13.4063 11.0101 14.7914 9.62496 16.5 9.62496C18.2086 9.62496 19.5938 11.0101 19.5938 12.7187Z" stroke="currentColor" stroke-width="2" stroke-linecap="round" stroke-linejoin="round"/>
</svg>
