<svg width="24" height="24" viewBox="0 0 24 24" fill="none" xmlns="http://www.w3.org/2000/svg">
<path d="M9 21H4V19.6704C4 17.8071 5.26812 16.183 7.07577 15.7311C8.3664 15.4084 9.6808 15.2145 11 15.1495M19.6975 19.1614L21.536 21M16.5 7.5C16.5 9.98528 14.4853 12 12 12C9.51472 12 7.5 9.98528 7.5 7.5C7.5 5.01472 9.51472 3 12 3C14.4853 3 16.5 5.01472 16.5 7.5ZM20.536 17C20.536 18.6569 19.1928 20 17.536 20C15.8791 20 14.536 18.6569 14.536 17C14.536 15.3431 15.8791 14 17.536 14C19.1928 14 20.536 15.3431 20.536 17Z" stroke="currentColor" stroke-width="2" stroke-linecap="round"/>
</svg>
