<svg width="24" height="24" viewBox="0 0 24 24" fill="none" xmlns="http://www.w3.org/2000/svg">
<path d="M14.4286 15H9.57143C6.49441 15 4 17.4944 4 20.5714V21M21.0235 18.6233H15.3509M15.3509 18.6233H15.3194M15.3509 18.6233C15.3509 18.6407 15.3584 18.6581 15.3732 18.6713L17.9813 21M15.3509 18.6233C15.3509 18.6059 15.3584 18.5886 15.3732 18.5753L17.9813 16.2466M19 4C20.22 4.82497 21 6.08636 21 7.5C21 8.91364 20.22 10.175 19 11M16.5 7.5C16.5 9.98528 14.4853 12 12 12C9.51472 12 7.5 9.98528 7.5 7.5C7.5 5.01472 9.51472 3 12 3C14.4853 3 16.5 5.01472 16.5 7.5Z" stroke="currentColor" stroke-width="2" stroke-linecap="round" stroke-linejoin="round"/>
</svg>
