<svg width="24" height="24" viewBox="0 0 24 24" fill="none" xmlns="http://www.w3.org/2000/svg">
<path d="M2 9.8C2 8.11984 2 7.27976 2.32698 6.63803C2.6146 6.07354 3.07354 5.6146 3.63803 5.32698C4.27976 5 5.11984 5 6.8 5H11.2C12.8802 5 13.7202 5 14.362 5.32698C14.9265 5.6146 15.3854 6.07354 15.673 6.63803C16 7.27976 16 8.11984 16 9.8V14.2C16 15.8802 16 16.7202 15.673 17.362C15.3854 17.9265 14.9265 18.3854 14.362 18.673C13.7202 19 12.8802 19 11.2 19H6.8C5.11984 19 4.27976 19 3.63803 18.673C3.07354 18.3854 2.6146 17.9265 2.32698 17.362C2 16.7202 2 15.8802 2 14.2V9.8Z" stroke="currentColor" stroke-width="2" stroke-linecap="round" stroke-linejoin="round"/>
<path d="M16.8119 12.611C16.3449 12.0359 16.3677 11.2059 16.8656 10.6573L19.3892 7.87666C20.3111 6.86094 22 7.51308 22 8.88474V14.7732C22 16.1857 20.2259 16.8153 19.3356 15.7188L16.8119 12.611Z" stroke="currentColor" stroke-width="2" stroke-linecap="round" stroke-linejoin="round"/>
</svg>
