<svg width="24" height="24" viewBox="0 0 24 24" fill="none" xmlns="http://www.w3.org/2000/svg">
<path d="M22 11.9999H16.1515M4.4 8.15931H4.56042C4.86498 8.15931 5.01726 8.15931 5.16126 8.12615C5.28895 8.09674 5.41146 8.0482 5.52464 7.98216C5.65227 7.90769 5.76322 7.80339 5.98512 7.59478L8.95612 4.80174C10.2321 3.60223 10.87 3.00247 11.4146 2.97143C11.8875 2.94448 12.3453 3.14244 12.6496 3.50543C13 3.9235 13 4.79911 13 6.55035V17.4475C13 19.1994 13 20.0753 12.6495 20.4934C12.3452 20.8564 11.8872 21.0543 11.4143 21.0273C10.8696 20.9961 10.2316 20.3959 8.95559 19.1956L5.98521 16.4014C5.76328 16.1927 5.65231 16.0883 5.52465 16.0138C5.41144 15.9477 5.28888 15.8991 5.16114 15.8697C5.01709 15.8365 4.86475 15.8365 4.56005 15.8365H4.4C3.55992 15.8365 3.13988 15.8365 2.81901 15.673C2.53677 15.5292 2.3073 15.2997 2.16349 15.0175C2 14.6966 2 14.2766 2 13.4365V10.5593C2 9.71923 2 9.2992 2.16349 8.97833C2.3073 8.69608 2.53677 8.46661 2.81901 8.3228C3.13988 8.15931 3.55992 8.15931 4.4 8.15931Z" stroke="currentColor" stroke-width="2" stroke-linecap="round" stroke-linejoin="round"/>
</svg>
