<svg width="24" height="24" viewBox="0 0 24 24" fill="none" xmlns="http://www.w3.org/2000/svg">
<path d="M20 7.99999C20 7.99999 21.5 9.49999 21.5 12C21.5 14.5 20 16 20 16M6.4 8.15923H7.00536C7.26029 8.15923 7.38775 8.15923 7.51026 8.13549C7.61897 8.11443 7.72454 8.07956 7.82441 8.03174C7.93696 7.97785 8.03935 7.90193 8.24414 7.75011L12.1706 4.83903C13.4043 3.9244 14.0212 3.46709 14.537 3.47981C14.9859 3.49089 15.4063 3.70252 15.6826 4.05657C16 4.46336 16 5.23123 16 6.76697V17.231C16 18.7673 16 19.5354 15.6825 19.9423C15.4061 20.2964 14.9856 20.508 14.5366 20.5189C14.0207 20.5315 13.4038 20.0738 12.17 19.1585L8.24431 16.2459C8.03947 16.094 7.93704 16.018 7.82445 15.964C7.72453 15.9161 7.61891 15.8812 7.51014 15.8601C7.38757 15.8364 7.26004 15.8364 7.00497 15.8364H6.4C5.55992 15.8364 5.13988 15.8364 4.81901 15.6729C4.53677 15.5291 4.3073 15.2996 4.16349 15.0174C4 14.6965 4 14.2765 4 13.4364V10.5592C4 9.71915 4 9.29911 4.16349 8.97824C4.3073 8.696 4.53677 8.46653 4.81901 8.32272C5.13988 8.15923 5.55992 8.15923 6.4 8.15923Z" stroke="currentColor" stroke-width="2" stroke-linecap="round" stroke-linejoin="round"/>
</svg>
