<svg width="24" height="24" viewBox="0 0 24 24" fill="none" xmlns="http://www.w3.org/2000/svg">
<path d="M8.24414 7.75012L12.1706 4.83904C13.4043 3.92441 14.0212 3.4671 14.537 3.47982C14.9859 3.49089 15.4063 3.70253 15.6826 4.05658C16 4.46337 16 5.23124 16 6.76698V16.0001M14 20.3899C13.5684 20.1959 13.0133 19.7841 12.17 19.1585L8.24431 16.2459C8.03946 16.094 7.93704 16.018 7.82445 15.964C7.72453 15.9161 7.61891 15.8812 7.51014 15.8602C7.38757 15.8364 7.26004 15.8364 7.00497 15.8364H6.4C5.55992 15.8364 5.13988 15.8364 4.81901 15.6729C4.53677 15.5291 4.3073 15.2996 4.16349 15.0174C4 14.6965 4 14.2765 4 13.4364V10.5592C4 10.1795 4 9.88554 4.0151 9.64781M20 8C20 8 21.5 9.5 21.5 12C21.5 14.5 20 16 20 16M1.75 2L21.75 22" stroke="currentColor" stroke-width="2" stroke-linecap="round" stroke-linejoin="round"/>
</svg>
