<svg width="24" height="24" viewBox="0 0 24 24" fill="none" xmlns="http://www.w3.org/2000/svg">
<path d="M17 8.00002C17 8.00002 18.5 9.50002 18.5 12C18.5 14.5 17 16 17 16M20 5.00002C20 5.00002 22 7.62502 22 12C22 16.375 20 19 20 19M4.4 8.15925H4.56042C4.86498 8.15925 5.01726 8.15925 5.16126 8.12609C5.28895 8.09668 5.41146 8.04814 5.52464 7.9821C5.65227 7.90763 5.76322 7.80333 5.98512 7.59472L8.95612 4.80167C10.2321 3.60216 10.87 3.00241 11.4146 2.97137C11.8875 2.94442 12.3453 3.14238 12.6496 3.50537C13 3.92343 13 4.79905 13 6.55029V17.4474C13 19.1993 13 20.0752 12.6495 20.4933C12.3452 20.8563 11.8872 21.0543 11.4143 21.0272C10.8696 20.996 10.2316 20.3959 8.95559 19.1955L5.98521 16.4014C5.76328 16.1926 5.65231 16.0882 5.52465 16.0137C5.41144 15.9476 5.28888 15.899 5.16114 15.8696C5.01709 15.8364 4.86475 15.8364 4.56005 15.8364H4.4C3.55992 15.8364 3.13988 15.8364 2.81901 15.6729C2.53677 15.5291 2.3073 15.2996 2.16349 15.0174C2 14.6965 2 14.2765 2 13.4364V10.5593C2 9.71917 2 9.29913 2.16349 8.97827C2.3073 8.69602 2.53677 8.46655 2.81901 8.32274C3.13988 8.15925 3.55992 8.15925 4.4 8.15925Z" stroke="currentColor" stroke-width="2" stroke-linecap="round" stroke-linejoin="round"/>
</svg>
