<svg width="24" height="24" viewBox="0 0 24 24" fill="none" xmlns="http://www.w3.org/2000/svg">
<path d="M8.5 8L13.8515 4.36669C15.188 3.44721 15.8563 2.98747 16.4151 3.00026C16.9014 3.01139 17.3568 3.22415 17.6561 3.58007C18 3.98902 18 4.76097 18 6.30484V18M15.5 20.5C15.0324 20.305 14.431 19.8909 13.5175 19.262L9.26467 16.334C9.04275 16.1812 8.93179 16.1049 8.80982 16.0506C8.70158 16.0025 8.58715 15.9674 8.46932 15.9462C8.33654 15.9223 8.19838 15.9223 7.92205 15.9223H7.26667C6.35658 15.9223 5.90154 15.9223 5.55393 15.758C5.24817 15.6134 4.99957 15.3827 4.84378 15.099C4.66667 14.7764 4.66667 14.3541 4.66667 13.5096V10.6172C4.66667 10.2354 4.66667 9.93993 4.68303 9.70094M1.75 2L21.75 22" stroke="currentColor" stroke-width="2" stroke-linecap="round" stroke-linejoin="round"/>
</svg>
