<svg width="24" height="24" viewBox="0 0 24 24" fill="none" xmlns="http://www.w3.org/2000/svg">
<path d="M20 14.5V16.8C20 17.9201 20 18.4802 19.782 18.908C19.5903 19.2843 19.2843 19.5903 18.908 19.782C18.4802 20 17.9201 20 16.8 20H5.2C4.0799 20 3.51984 20 3.09202 19.782C2.71569 19.5903 2.40973 19.2843 2.21799 18.908C2 18.4802 2 17.9201 2 16.8V7.2C2 6.0799 2 5.51984 2.21799 5.09202C2.40973 4.71569 2.71569 4.40973 3.09202 4.21799C3.51984 4 4.0799 4 5.2 4H16.8C17.9201 4 18.4802 4 18.908 4.21799C19.2843 4.40973 19.5903 4.71569 19.782 5.09202C20 5.51984 20 6.0799 20 7.2V9.24191M17.4 14.4587H19.6C20.4401 14.4587 20.8601 14.4587 21.181 14.2952C21.4632 14.1514 21.6927 13.922 21.8365 13.6397C22 13.3189 22 12.8988 22 12.0587V11.9413C22 11.1012 22 10.6811 21.8365 10.3603C21.6927 10.078 21.4632 9.84856 21.181 9.70475C20.8601 9.54126 20.4401 9.54126 19.6 9.54126H17.4C16.5599 9.54126 16.1399 9.54126 15.819 9.70475C15.5368 9.84856 15.3073 10.078 15.1635 10.3603C15 10.6811 15 11.1012 15 11.9413V12.0587C15 12.8988 15 13.3189 15.1635 13.6397C15.3073 13.922 15.5368 14.1514 15.819 14.2952C16.1399 14.4587 16.5599 14.4587 17.4 14.4587Z" stroke="currentColor" stroke-width="2" stroke-linecap="round" stroke-linejoin="round"/>
</svg>
