<svg width="24" height="24" viewBox="0 0 24 24" fill="none" xmlns="http://www.w3.org/2000/svg">
<path d="M21 21V10.6431C21 9.65518 21 9.16121 20.8586 8.71707C20.7334 8.32403 20.5286 7.96102 20.2568 7.65072C19.9497 7.30009 19.5268 7.04476 18.6811 6.53409L13.6541 3.49873C13.0529 3.13573 12.7523 2.95422 12.4312 2.88333C12.1471 2.82063 11.8529 2.82063 11.5688 2.88333C11.2477 2.95422 10.9471 3.13572 10.3459 3.49873L5.31892 6.53409C4.47319 7.04475 4.05031 7.30009 3.74321 7.65072C3.47144 7.96102 3.26658 8.32403 3.14142 8.71707C3 9.1612 3 9.65518 3 10.6431L3 21M12.2793 21H16.8555V16.5767C16.8555 15.842 16.8555 15.4746 16.7296 15.187C16.5783 14.8415 16.3025 14.5657 15.957 14.4145C15.6694 14.2886 15.3021 14.2886 14.5674 14.2886C13.8327 14.2886 13.4653 14.2886 13.1778 14.4145C12.8323 14.5657 12.5564 14.8415 12.4052 15.187C12.2793 15.4746 12.2793 15.842 12.2793 16.5767V21ZM12.2793 21V16.8845L10.1031 16.8845C9.26305 16.8845 8.84301 16.8845 8.52214 17.048C8.2399 17.1918 8.01042 17.4213 7.86661 17.7035C7.70312 18.0244 7.70312 18.4444 7.70312 19.2845V21H12.2793ZM9.04286 16.8845L9.04286 12.7732C9.04286 11.9331 9.04286 11.513 9.20635 11.1922C9.35016 10.9099 9.57963 10.6805 9.86187 10.5367C10.1827 10.3732 10.6028 10.3732 11.4429 10.3732H12.2555C13.0955 10.3732 13.5156 10.3732 13.8364 10.5367C14.1187 10.6805 14.3482 10.9099 14.492 11.1922C14.6555 11.513 14.6555 11.9331 14.6555 12.7732V13.6288M5 6.99999H19" stroke="currentColor" stroke-width="2" stroke-linecap="round" stroke-linejoin="round"/>
</svg>
