<svg width="24" height="24" viewBox="0 0 24 24" fill="none" xmlns="http://www.w3.org/2000/svg">
<path d="M22 5L19.9791 15.1383C19.7049 16.5138 19.5678 17.2016 19.209 17.7161C18.8926 18.1697 18.457 18.5271 17.9502 18.7487C17.3755 19 16.6742 19 15.2717 19H8.39401C6.94868 19 6.22601 19 5.63999 18.737C5.12342 18.5052 4.683 18.1319 4.36965 17.6603C4.01416 17.1253 3.89574 16.4124 3.6589 14.9866L2 5M8.47656 12H8.49125M8.47656 15.2559H8.49125M11.9922 12H12.0069M11.9922 15.2559H12.0069M15.5078 12H15.5225M15.5078 15.2559H15.5225M21.3069 8.28774L20.7472 8.02338C19.4991 7.43388 17.6483 7.40153 16.3314 7.94617C15.0816 8.46309 13.3402 8.46309 12.0903 7.94617L12.0171 7.91588C10.724 7.3811 8.92246 7.3811 7.62944 7.91588C6.33641 8.45065 4.53483 8.45065 3.24181 7.91588L2.69336 7.68905" stroke="currentColor" stroke-width="2" stroke-linecap="round" stroke-linejoin="round"/>
</svg>
