<svg width="24" height="24" viewBox="0 0 24 24" fill="none" xmlns="http://www.w3.org/2000/svg">
<path d="M8 21C8 21 9.5 20 11.9379 20C14.3758 20 16 21 16 21M6.74966 7.5H6.75727M8.5 17H15.5C19.0899 17 22 14.0899 22 10.5C22 6.91015 19.0899 4 15.5 4H8.5C4.91015 4 2 6.91015 2 10.5C2 14.0899 4.91015 17 8.5 17ZM15 10.5C15 12.1569 13.6569 13.5 12 13.5C10.3431 13.5 9 12.1569 9 10.5C9 8.84315 10.3431 7.5 12 7.5C13.6569 7.5 15 8.84315 15 10.5Z" stroke="currentColor" stroke-width="2" stroke-linecap="round" stroke-linejoin="round"/>
</svg>
