<svg width="24" height="24" viewBox="0 0 24 24" fill="none" xmlns="http://www.w3.org/2000/svg">
<path d="M11.5007 16.5629C11.9788 16.2864 12.1421 15.6746 11.8656 15.1966C11.5891 14.7185 10.9773 14.5552 10.4993 14.8317L11.5007 16.5629ZM11.3331 6.77292C11.7446 7.14125 12.3768 7.10623 12.7451 6.6947C13.1135 6.28317 13.0784 5.65098 12.6669 5.28265L11.3331 6.77292ZM12.7426 5.35867C12.3611 4.95926 11.7282 4.94469 11.3287 5.32613C10.9293 5.70756 10.9148 6.34056 11.2962 6.73996L12.7426 5.35867ZM19.5489 13.9336L18.8257 14.6242V14.6242L19.5489 13.9336ZM15.894 18.5628L16.398 17.6991L15.894 18.5628ZM11.6231 14.9128C11.1461 14.6345 10.5338 14.7955 10.2554 15.2725C9.97709 15.7495 10.1381 16.3619 10.6151 16.6402L11.6231 14.9128ZM19.0471 18.4685L18.4924 17.6365L19.0471 18.4685ZM18.0492 19.0448L18.359 19.9956L18.0492 19.0448ZM16.9246 19.0785L16.6721 20.0461L16.9246 19.0785ZM20.796 15.4992L19.8518 15.8285V15.8285L20.796 15.4992ZM20.6063 17.2134L19.7569 16.6856L19.7569 16.6856L20.6063 17.2134ZM8 15.5C5.23858 15.5 3 13.2614 3 10.5H1C1 14.366 4.13401 17.5 8 17.5V15.5ZM3 10.5C3 7.73858 5.23858 5.5 8 5.5V3.5C4.13401 3.5 1 6.63401 1 10.5H3ZM10.4993 14.8317C9.76486 15.2565 8.91238 15.5 8 15.5V17.5C9.27334 17.5 10.4701 17.1591 11.5007 16.5629L10.4993 14.8317ZM8 5.5C9.28123 5.5 10.4478 5.98059 11.3331 6.77292L12.6669 5.28265C11.4291 4.17482 9.79219 3.5 8 3.5V5.5ZM9 10.5C9 11.0523 8.55228 11.5 8 11.5V13.5C9.65685 13.5 11 12.1569 11 10.5H9ZM8 11.5C7.44772 11.5 7 11.0523 7 10.5H5C5 12.1569 6.34315 13.5 8 13.5V11.5ZM7 10.5C7 9.94772 7.44772 9.5 8 9.5V7.5C6.34315 7.5 5 8.84315 5 10.5H7ZM8 9.5C8.55228 9.5 9 9.94772 9 10.5H11C11 8.84315 9.65685 7.5 8 7.5V9.5ZM11.2962 6.73996L18.8257 14.6242L20.2721 13.2429L12.7426 5.35867L11.2962 6.73996ZM16.398 17.6991L11.6231 14.9128L10.6151 16.6402L15.39 19.4265L16.398 17.6991ZM18.4924 17.6365C17.9521 17.9968 17.8387 18.0617 17.7394 18.094L18.359 19.9956C18.782 19.8578 19.1599 19.5952 19.6018 19.3006L18.4924 17.6365ZM15.39 19.4265C15.8488 19.6943 16.2416 19.9338 16.6721 20.0461L17.177 18.1109C17.0759 18.0845 16.9589 18.0265 16.398 17.6991L15.39 19.4265ZM17.7394 18.094C17.5574 18.1533 17.3622 18.1592 17.177 18.1109L16.6721 20.0461C17.2277 20.191 17.8131 20.1735 18.359 19.9956L17.7394 18.094ZM18.8257 14.6242C19.2038 15.0202 19.4507 15.2796 19.6247 15.4897C19.7946 15.6949 19.8372 15.7867 19.8518 15.8285L21.7402 15.1699C21.6121 14.8025 21.3992 14.4969 21.1653 14.2144C20.9355 13.9367 20.6302 13.6179 20.2721 13.2429L18.8257 14.6242ZM19.6018 19.3006C20.0333 19.0129 20.4009 18.7686 20.6858 18.5479C20.9759 18.3233 21.2504 18.0716 21.4557 17.7412L19.7569 16.6856C19.7335 16.7233 19.6719 16.8035 19.4613 16.9666C19.2456 17.1336 18.9479 17.3328 18.4924 17.6365L19.6018 19.3006ZM19.8518 15.8285C19.9513 16.1139 19.9164 16.4289 19.7569 16.6856L21.4557 17.7412C21.9342 16.9711 22.0388 16.026 21.7402 15.1699L19.8518 15.8285Z" fill="currentColor"/>
</svg>
