<svg width="24" height="24" viewBox="0 0 24 24" fill="none" xmlns="http://www.w3.org/2000/svg">
<path d="M12.0001 19.5H12.0094M22 8.70076C19.3656 6.09199 15.8548 4.5 12 4.5C11.3217 4.5 10.6541 4.54929 10 4.64473C9.83243 4.66919 9.66574 4.69667 9.5 4.72713M8.53495 15.8116C9.4847 14.9908 10.6893 14.5 12 14.5C12.652 14.5 13.8695 14.5 15.1423 15.3999M5.27448 12.243C6.42889 11.144 7.81559 10.3234 9.34475 9.87803M2 8.70076C3.02608 7.68466 4.18511 6.82281 5.44564 6.1492M14 9.71224C15.7887 10.0973 17.4084 10.989 18.7257 12.243M1.75 2L21.75 22" stroke="currentColor" stroke-width="2" stroke-linecap="round" stroke-linejoin="round"/>
</svg>
