<svg width="24" height="24" viewBox="0 0 24 24" fill="none" xmlns="http://www.w3.org/2000/svg">
<path d="M2 12H19C20.6569 12 21.999 10.6569 21.999 9.00003C21.999 7.34317 20.6559 6.00003 18.999 6.00003C17.8886 6.00003 16.9191 6.60333 16.4004 7.50003M2 8.03973H11.0459M11.0459 8.03973H11.168M11.0459 8.03973C12.1654 8.03147 13.0703 7.12143 13.0703 6.00003C13.0703 4.8735 12.1571 3.96027 11.0306 3.96027C10.2755 3.96027 9.61636 4.37046 9.26367 4.98015M11.0459 8.03973L11.0306 8.03979M2 15.96H16.1855M16.263 15.96C17.3895 15.96 18.3027 16.8732 18.3027 17.9998C18.3027 19.1263 17.3895 20.0395 16.263 20.0395C15.508 20.0395 14.8488 19.6293 14.4961 19.0196" stroke="currentColor" stroke-width="2" stroke-linecap="round" stroke-linejoin="round"/>
</svg>
