<svg width="24" height="24" viewBox="0 0 24 24" fill="none" xmlns="http://www.w3.org/2000/svg">
<path d="M16.4004 7.5C16.9191 6.6033 17.8886 6 18.999 6C20.6559 6 21.999 7.34315 21.999 9C21.999 10.6569 20.6569 12 19 12H17.3867M2 12H11.7289M9.26367 4.98012C9.61636 4.37043 10.2755 3.96024 11.0306 3.96024C12.1571 3.96024 13.0703 4.87347 13.0703 6C13.0703 6.5008 12.8898 6.95945 12.5904 7.31446M2 8.03971H7.46038M2 15.96H15.4452M14.4961 19.0195C14.8488 19.6292 15.508 20.0394 16.263 20.0394C17.1196 20.0394 17.853 19.5113 18.1551 18.7629M2 2L22 22" stroke="currentColor" stroke-width="2" stroke-linecap="round" stroke-linejoin="round"/>
</svg>
