<svg width="24" height="24" viewBox="0 0 24 24" fill="none" xmlns="http://www.w3.org/2000/svg">
<path d="M23 9H20M23 15H20M23 12H20M17 6H20.6C21.4401 6 21.8601 6 22.181 6.16349C22.4632 6.3073 22.6927 6.53677 22.8365 6.81901C23 7.13988 23 7.55992 23 8.4V15.6C23 16.4401 23 16.8601 22.8365 17.181C22.6927 17.4632 22.4632 17.6927 22.181 17.8365C21.8601 18 21.4401 18 20.6 18H17V6ZM6.8 20H12.2C13.8802 20 14.7202 20 15.362 19.673C15.9265 19.3854 16.3854 18.9265 16.673 18.362C17 17.7202 17 16.8802 17 15.2V8.8C17 7.11984 17 6.27976 16.673 5.63803C16.3854 5.07354 15.9265 4.6146 15.362 4.32698C14.7202 4 13.8802 4 12.2 4H6.8C5.11984 4 4.27976 4 3.63803 4.32698C3.07354 4.6146 2.6146 5.07354 2.32698 5.63803C2 6.27976 2 7.11984 2 8.8V15.2C2 16.8802 2 17.7202 2.32698 18.362C2.6146 18.9265 3.07354 19.3854 3.63803 19.673C4.27976 20 5.11984 20 6.8 20ZM12.5 12C12.5 13.6569 11.1569 15 9.5 15C7.84315 15 6.5 13.6569 6.5 12C6.5 10.3431 7.84315 9 9.5 9C11.1569 9 12.5 10.3431 12.5 12Z" stroke="currentColor" stroke-width="2" stroke-linecap="round" stroke-linejoin="round"/>
</svg>
