<svg width="24" height="24" viewBox="0 0 24 24" fill="none" xmlns="http://www.w3.org/2000/svg">
<path d="M20.2896 21.7038C20.6783 22.0961 21.3115 22.0991 21.7038 21.7104C22.0961 21.3217 22.0991 20.6885 21.7104 20.2962L20.2896 21.7038ZM14.1803 12C14.7326 12 15.1803 11.5523 15.1803 11C15.1803 10.4477 14.7326 10 14.1803 10V12ZM7.81836 10C7.26607 10 6.81836 10.4477 6.81836 11C6.81836 11.5523 7.26607 12 7.81836 12V10ZM11 18C7.13401 18 4 14.866 4 11H2C2 15.9706 6.02944 20 11 20V18ZM4 11C4 7.13401 7.13401 4 11 4V2C6.02944 2 2 6.02944 2 11H4ZM11 4C14.866 4 18 7.13401 18 11H20C20 6.02944 15.9706 2 11 2V4ZM21.7104 20.2962L17.3874 15.9328L15.9667 17.3404L20.2896 21.7038L21.7104 20.2962ZM14.1803 10H7.81836V12H14.1803V10ZM18 11C18 12.9243 17.2249 14.6656 15.9674 15.932L17.3867 17.3412C19.0009 15.7154 20 13.4734 20 11H18ZM15.9674 15.932C14.6982 17.2103 12.9423 18 11 18V20C13.4966 20 15.7573 18.9821 17.3867 17.3412L15.9674 15.932Z" fill="currentColor"/>
</svg>
