<svg width="24" height="24" viewBox="0 0 24 24" fill="none" xmlns="http://www.w3.org/2000/svg">
<path d="M20.2913 21.7055C20.6809 22.0969 21.3141 22.0984 21.7055 21.7087C22.0969 21.3191 22.0984 20.6859 21.7087 20.2945L20.2913 21.7055ZM16.6668 16.6469L15.9584 15.941L16.6668 16.6469ZM11.9993 7.81897C11.9993 7.26669 11.5516 6.81897 10.9993 6.81897C10.447 6.81897 9.99933 7.26669 9.99933 7.81897H11.9993ZM9.99933 14.1809C9.99933 14.7332 10.447 15.1809 10.9993 15.1809C11.5516 15.1809 11.9993 14.7332 11.9993 14.1809H9.99933ZM14.1803 11.9999C14.7326 11.9999 15.1803 11.5522 15.1803 10.9999C15.1803 10.4477 14.7326 9.99994 14.1803 9.99994V11.9999ZM7.81836 9.99994C7.26607 9.99994 6.81836 10.4477 6.81836 10.9999C6.81836 11.5522 7.26607 11.9999 7.81836 11.9999V9.99994ZM11 18C7.13401 18 4 14.866 4 11H2C2 15.9706 6.02944 20 11 20V18ZM4 11C4 7.13401 7.13401 4 11 4V2C6.02944 2 2 6.02944 2 11H4ZM11 4C14.866 4 18 7.13401 18 11H20C20 6.02944 15.9706 2 11 2V4ZM21.7087 20.2945L17.3755 15.9414L15.9581 17.3524L20.2913 21.7055L21.7087 20.2945ZM9.99933 7.81897V10.9999H11.9993V7.81897H9.99933ZM9.99933 10.9999V14.1809H11.9993V10.9999H9.99933ZM14.1803 9.99994H10.9993V11.9999H14.1803V9.99994ZM10.9993 9.99994H7.81836V11.9999H10.9993V9.99994ZM18 11C18 12.9289 17.2212 14.6739 15.9584 15.941L17.3751 17.3528C18.9962 15.7261 20 13.4793 20 11H18ZM15.9584 15.941C14.6899 17.214 12.9377 18 11 18V20C13.4907 20 15.7467 18.9869 17.3751 17.3528L15.9584 15.941Z" fill="currentColor"/>
</svg>
